<?xml version="1.0" encoding="UTF-8"?>
<svg xmlns="http://www.w3.org/2000/svg" version="1.1" viewBox="0 0 208.6 39">
  <defs>
    <style>
      .cls-1 {
        fill: #fff;
      }
    </style>
  </defs>
  <!-- Generator: Adobe Illustrator 28.7.3, SVG Export Plug-In . SVG Version: 1.2.0 Build 164)  -->
  <g>
    <g id="Camada_1">
      <g>
        <path class="cls-1" d="M2.9,6.4h5.1v1h-3.9v3.1h3.6v1h-3.6v4.3h-1.2V6.4Z"/>
        <path class="cls-1" d="M15.4,12.3c0,2.5-1.8,3.6-3.4,3.6s-3.2-1.3-3.2-3.5,1.5-3.6,3.4-3.6c1.9,0,3.3,1.4,3.3,3.5ZM10,12.4c0,1.5.8,2.6,2,2.6s2.1-1.1,2.1-2.6-.6-2.6-2-2.6c-1.4,0-2.1,1.3-2.1,2.6Z"/>
        <path class="cls-1" d="M16.9,11.1c0-.8,0-1.5,0-2.1h1.1v1.3h0c.3-.9,1.1-1.5,1.9-1.5s.2,0,.3,0v1.2c-.1,0-.3,0-.4,0-.9,0-1.5.6-1.7,1.6,0,.2,0,.4,0,.6v3.6h-1.2s0-4.7,0-4.7Z"/>
        <path class="cls-1" d="M21.6,10.8c0-.7,0-1.3,0-1.8h1.1v1.1h0c.3-.6,1.1-1.3,2.2-1.3s2.4.6,2.4,2.9v4h-1.2v-3.9c0-1.1-.4-2-1.6-2s-1.4.6-1.7,1.3c0,.2,0,.4,0,.6v4.1h-1.2v-4.9Z"/>
        <path class="cls-1" d="M30,12.6c0,1.7,1.1,2.4,2.3,2.4s1.4-.2,1.9-.4l.2.9c-.4.2-1.2.4-2.3.4-2.1,0-3.3-1.4-3.3-3.4s1.2-3.6,3.2-3.6,2.8,1.9,2.8,3.2,0,.4,0,.6h-4.8ZM33.6,11.7c0-.8-.3-2-1.7-2s-1.8,1.1-1.9,2h3.6Z"/>
        <path class="cls-1" d="M41.2,15.6c-.3.2-1,.4-1.9.4-2,0-3.4-1.4-3.4-3.5s1.4-3.6,3.6-3.6,1.4.2,1.7.4l-.3.9c-.3-.2-.8-.3-1.4-.3-1.6,0-2.4,1.2-2.4,2.6s1,2.5,2.4,2.5,1.2-.2,1.5-.3l.2.9Z"/>
        <path class="cls-1" d="M44,7.1c0,.4-.3.8-.8.8s-.7-.3-.7-.8.3-.8.8-.8c.4,0,.8.3.8.8ZM42.6,15.8v-6.8h1.2v6.8h-1.2Z"/>
        <path class="cls-1" d="M51.7,5.8v8.2c0,.6,0,1.3,0,1.8h-1.1v-1.2h0c-.4.8-1.2,1.3-2.3,1.3-1.6,0-2.9-1.4-2.9-3.4,0-2.3,1.4-3.6,3-3.6s1.7.5,2,1h0v-4h1.2ZM50.5,11.8c0-.2,0-.4,0-.5-.2-.8-.9-1.4-1.8-1.4s-2,1.1-2,2.6.7,2.5,2,2.5,1.6-.6,1.8-1.5c0-.2,0-.3,0-.5v-1.2Z"/>
        <path class="cls-1" d="M59.9,12.3c0,2.5-1.8,3.6-3.4,3.6s-3.2-1.3-3.2-3.5,1.5-3.6,3.4-3.6c1.9,0,3.3,1.4,3.3,3.5ZM54.6,12.4c0,1.5.8,2.6,2,2.6s2.1-1.1,2.1-2.6-.6-2.6-2-2.6c-1.4,0-2.1,1.3-2.1,2.6Z"/>
        <path class="cls-1" d="M41.2,28c0-.9,0-1.6,0-2.2h1.1v1.2h0c.5-.8,1.3-1.3,2.4-1.3,1.7,0,2.9,1.4,2.9,3.4s-1.5,3.6-3.1,3.6-1.7-.4-2.1-1.1h0v3.7h-1.2v-7.3ZM42.5,29.8c0,.2,0,.4,0,.5.2.9,1,1.4,1.8,1.4,1.3,0,2.1-1.1,2.1-2.6s-.7-2.5-2-2.5-1.6.6-1.9,1.5c0,.2,0,.3,0,.5,0,0,0,1.2,0,1.2Z"/>
        <path class="cls-1" d="M55.3,29.1c0,2.5-1.8,3.6-3.4,3.6s-3.2-1.3-3.2-3.5,1.5-3.6,3.4-3.6,3.3,1.4,3.3,3.5ZM50,29.2c0,1.5.8,2.6,2,2.6s2.1-1.1,2.1-2.6-.6-2.6-2-2.6-2.1,1.3-2.1,2.6Z"/>
        <path class="cls-1" d="M56.9,27.9c0-.8,0-1.5,0-2.1h1.1v1.3h0c.3-.9,1.1-1.5,1.9-1.5s.2,0,.3,0v1.2c-.1,0-.3,0-.4,0-.9,0-1.5.6-1.7,1.6,0,.2,0,.4,0,.6v3.6h-1.2s0-4.7,0-4.7Z"/>
      </g>
      <rect class="cls-1" x="64.8" y="5.1" width="1.2" height="29.4"/>
      <g>
        <path class="cls-1" d="M72.5,34.5V5.1h8.6c5.9,0,8.8,2.4,8.8,7.2s-1.6,5.6-4.9,6.8h0c3.7.9,5.6,3.2,5.6,7.1s-.9,4.7-2.7,6.2c-1.6,1.4-3.8,2.1-6.5,2.1h-9ZM77.7,9.1v8.3h2.8c1.3,0,2.3-.4,3.1-1.2.8-.8,1.2-1.9,1.2-3.1s-.4-2.2-1.2-2.9c-.8-.7-1.8-1-3.1-1,0,0-2.7,0-2.7,0ZM77.7,21.4v9h3c1.4,0,2.5-.4,3.3-1.2.8-.8,1.2-1.9,1.2-3.3,0-3-1.5-4.5-4.6-4.5,0,0-2.8,0-2.8,0Z"/>
        <rect class="cls-1" x="96" y="5.1" width="5.4" height="29.4"/>
        <path class="cls-1" d="M107.4,34.5V5.1h9.2c5.8,0,8.8,2.6,8.8,7.8s-.5,3.3-1.5,4.6c-1,1.3-2.4,2-4.2,2.3h0c1.5.4,2.5,1.5,3.2,3.5l3.8,11.2h-5.7l-2.9-9.6c-.6-2-2-3.1-4.1-3.1h-1.2v12.6s-5.4,0-5.4,0ZM112.8,17.9h2.2c3.2,0,4.8-1.5,4.8-4.5s-.4-2.7-1.3-3.4c-.7-.6-1.9-.8-3.5-.8h-2.2v8.7h0Z"/>
        <polygon class="cls-1" points="131 34.5 131 5.1 146.5 5.1 146.5 9.4 136.5 9.4 136.5 17.3 146 17.3 146 21.5 136.5 21.5 136.5 30.3 146.9 30.3 146.9 34.5 131 34.5"/>
        <polygon class="cls-1" points="175.4 34.5 175.4 10 167.9 34.5 164.1 34.5 157 10 157 34.5 152.1 34.5 152.1 5.1 160.1 5.1 166.2 27.1 166.3 27.1 172.5 5.1 180.3 5.1 180.3 34.5 175.4 34.5"/>
        <polygon class="cls-1" points="186.4 34.5 186.4 5.1 201.9 5.1 201.9 9.4 191.9 9.4 191.9 17.3 201.4 17.3 201.4 21.5 191.9 21.5 191.9 30.3 202.3 30.3 202.3 34.5 186.4 34.5"/>
      </g>
    </g>
  </g>
</svg>