<?xml version="1.0" encoding="utf-8"?>
<!-- Generator: Adobe Illustrator 14.0.0, SVG Export Plug-In . SVG Version: 6.00 Build 43363)  -->
<!DOCTYPE svg PUBLIC "-//W3C//DTD SVG 1.1//EN" "http://www.w3.org/Graphics/SVG/1.1/DTD/svg11.dtd">
<svg version="1.1" id="Camada_1" xmlns="http://www.w3.org/2000/svg" xmlns:xlink="http://www.w3.org/1999/xlink" x="0px" y="0px"
	 width="655px" height="690px" viewBox="0 0 655 690" enable-background="new 0 0 655 690" xml:space="preserve">
<g>
	<g>
		<g>
			<g enable-background="new    ">
				<path fill="#30286C" d="M24.094,506.554v31.537h0.228c0.302-0.455,0.569-0.835,0.797-1.139l0.911-1.366
					c0.834-0.985,1.708-1.859,2.619-2.618c2.505-1.974,5.389-2.961,8.653-2.961c5.389,0,9.866,2.658,13.435,7.97
					c3.49,5.163,5.237,11.538,5.237,19.127c0,8.426-2.126,15.333-6.376,20.722c-3.947,4.935-8.578,7.4-13.89,7.4
					c-2.658,0-5.086-0.684-7.287-2.05c-0.836-0.53-1.67-1.176-2.505-1.936l-1.024-0.91l-0.797-0.911l-2.733,4.668H13.62v-77.533
					H24.094z M24.094,569.286l0.228,0.342l0.341,0.455l0.683,0.911c0.607,0.836,1.252,1.557,1.936,2.163
					c1.896,1.67,3.985,2.505,6.262,2.505c3.416,0,6.223-1.859,8.425-5.579c2.201-3.566,3.302-7.931,3.302-13.093
					c0-4.705-0.95-8.728-2.846-12.068c-2.049-3.566-4.668-5.352-7.856-5.352c-3.113,0-5.655,1.634-7.628,4.896
					c-1.898,3.112-2.846,6.944-2.846,11.499V569.286z"/>
				<path fill="#30286C" d="M103.334,513.499c0,2.049-0.532,3.72-1.594,5.009c-1.139,1.366-2.544,2.05-4.212,2.05
					c-1.67,0-3.074-0.684-4.213-2.05c-1.138-1.289-1.708-2.921-1.708-4.896c0-2.049,0.606-3.757,1.821-5.123
					c1.063-1.29,2.352-1.936,3.871-1.936C101.322,506.554,103.334,508.87,103.334,513.499z M102.879,531.146v52.941H92.404v-52.941
					H102.879z"/>
				<path fill="#30286C" d="M151.834,506.554v31.537h0.228c0.302-0.455,0.569-0.835,0.797-1.139l0.911-1.366
					c0.834-0.985,1.708-1.859,2.619-2.618c2.505-1.974,5.389-2.961,8.653-2.961c5.389,0,9.866,2.658,13.435,7.97
					c3.49,5.163,5.237,11.538,5.237,19.127c0,8.426-2.126,15.333-6.376,20.722c-3.947,4.935-8.578,7.4-13.89,7.4
					c-2.658,0-5.086-0.684-7.287-2.05c-0.836-0.53-1.67-1.176-2.505-1.936l-1.024-0.91l-0.797-0.911l-2.733,4.668h-7.742v-77.533
					H151.834z M151.834,569.286l0.228,0.342l0.341,0.455l0.683,0.911c0.607,0.836,1.252,1.557,1.936,2.163
					c1.896,1.67,3.985,2.505,6.262,2.505c3.416,0,6.223-1.859,8.425-5.579c2.201-3.566,3.302-7.931,3.302-13.093
					c0-4.705-0.95-8.728-2.846-12.068c-2.049-3.566-4.668-5.352-7.856-5.352c-3.113,0-5.655,1.634-7.628,4.896
					c-1.898,3.112-2.846,6.944-2.846,11.499V569.286z"/>
				<path fill="#30286C" d="M229.367,506.554v77.533h-10.474v-77.533H229.367z"/>
				<path fill="#30286C" d="M279.575,513.499c0,2.049-0.532,3.72-1.594,5.009c-1.139,1.366-2.544,2.05-4.212,2.05
					c-1.67,0-3.074-0.684-4.213-2.05c-1.138-1.289-1.708-2.921-1.708-4.896c0-2.049,0.606-3.757,1.821-5.123
					c1.063-1.29,2.352-1.936,3.871-1.936C277.563,506.554,279.575,508.87,279.575,513.499z M279.12,531.146v52.941h-10.475v-52.941
					H279.12z"/>
				<path fill="#30286C" d="M354.375,538.318c3.719,5.01,5.578,11.462,5.578,19.354c0,8.197-2.049,14.84-6.146,19.925
					c-4.1,5.086-9.527,7.628-16.281,7.628c-6.908,0-12.41-2.693-16.509-8.084c-3.871-5.009-5.807-11.46-5.807-19.354
					c0-7.816,1.896-14.307,5.693-19.469c4.099-5.54,9.487-8.312,16.167-8.312C344.508,530.007,350.276,532.778,354.375,538.318z
					 M327.734,547.085c-0.683,1.898-1.178,4.062-1.48,6.489c-0.153,0.911-0.267,1.822-0.342,2.732v2.05
					c0,4.858,0.986,8.957,2.961,12.296c2.123,3.72,5.009,5.579,8.652,5.579c3.416,0,6.223-1.632,8.425-4.896
					c2.2-3.416,3.302-8.084,3.302-14.004c0-5.54-1.102-10.02-3.302-13.435c-2.126-3.263-4.707-4.896-7.741-4.896
					C333.273,539.002,329.783,541.696,327.734,547.085z"/>
				<path fill="#30286C" d="M408.227,514.182v16.964h9.904v8.994h-9.904v31.537c0,2.81,1.48,4.213,4.439,4.213
					c1.518,0,3.34-0.53,5.465-1.594v9.222c-3.188,1.139-6.188,1.708-8.994,1.708c-7.59,0-11.385-3.644-11.385-10.93V540.14h-7.172
					v-8.994h7.172v-16.964H408.227z"/>
				<path fill="#30286C" d="M491.566,557.56h-32.334v1.936c0,4.554,1.326,8.388,3.984,11.499c2.58,3.113,5.693,4.668,9.336,4.668
					c3.188,0,6.412-0.985,9.678-2.96c1.289-0.758,2.617-1.708,3.984-2.847l1.822-1.594l1.594-1.48v12.068
					c-6.984,4.252-12.865,6.376-17.648,6.376c-7.211,0-12.941-2.693-17.191-8.084c-4.023-5.084-6.033-11.46-6.033-19.127
					c0-8.121,2.199-14.838,6.604-20.151c4.4-5.237,9.865-7.856,16.395-7.856c6.148,0,11.043,2.277,14.688,6.831
					c3.414,4.327,5.123,9.944,5.123,16.851V557.56z M480.521,549.248c-0.303-4.173-1.557-7.134-3.756-8.88
					c-0.836-0.684-1.785-1.139-2.848-1.366c-0.76-0.229-1.557-0.342-2.391-0.342c-3.035,0-5.617,1.291-7.742,3.871
					c-0.76,0.987-1.479,2.163-2.162,3.529l-0.797,1.708l-0.229,0.797l-0.342,0.683H480.521z"/>
				<path fill="#30286C" d="M559.99,544.467c-4.1-3.263-7.555-4.896-10.361-4.896c-4.252,0-7.705,1.822-10.359,5.466
					c-2.582,3.415-3.871,7.628-3.871,12.637c0,5.086,1.289,9.336,3.871,12.752c2.578,3.492,5.766,5.237,9.563,5.237
					c2.201,0,4.479-0.684,6.832-2.05c0.834-0.455,1.707-0.985,2.617-1.594l0.912-0.797l0.455-0.342l0.342-0.228v11.157l-0.912,0.456
					l-1.139,0.569c-0.986,0.455-1.936,0.836-2.846,1.138c-2.504,0.835-5.049,1.253-7.627,1.253c-6.984,0-12.564-2.619-16.736-7.855
					c-4.025-5.01-6.035-11.347-6.035-19.014c0-8.121,2.201-14.876,6.604-20.266c4.4-5.389,9.98-8.084,16.736-8.084
					c2.277,0,4.555,0.342,6.832,1.025c0.91,0.304,1.82,0.646,2.732,1.024c0.758,0.228,1.555,0.569,2.391,1.024V544.467z"/>
				<path fill="#30286C" d="M628.641,572.36c0,2.276,0.91,3.415,2.732,3.415c0.607,0,1.252-0.151,1.936-0.455l0.684-0.342
					l0.227-0.113l0.229-0.114v9.336c-2.125,0.455-4.402,0.684-6.83,0.684c-3.416,0-5.846-0.759-7.287-2.277
					c-0.533-0.606-0.951-1.327-1.252-2.163c-0.229-0.606-0.381-1.366-0.457-2.277c-1.67,2.277-3.227,3.91-4.668,4.896
					c-2.049,1.518-4.516,2.277-7.4,2.277c-4.629,0-8.424-1.632-11.385-4.896c-2.809-3.188-4.213-7.173-4.213-11.955
					c0-6.831,3.264-11.727,9.793-14.687c2.428-1.139,5.35-2.011,8.766-2.619c1.367-0.228,2.846-0.416,4.439-0.568
					c1.063-0.151,2.393-0.303,3.986-0.456v-1.594c0-2.656-0.76-4.856-2.277-6.604c-1.594-1.896-3.834-2.846-6.717-2.846
					c-2.506,0-5.049,0.759-7.629,2.276c-0.988,0.532-2.012,1.215-3.074,2.05l-1.365,1.024l-1.254,0.911v-10.93
					c3.111-1.745,6.223-2.961,9.336-3.644c1.139-0.228,2.314-0.416,3.529-0.569c0.912-0.075,1.822-0.114,2.732-0.114
					c5.617,0,9.98,1.634,13.094,4.896c2.883,2.961,4.326,6.757,4.326,11.386V572.36z M617.939,558.129l-2.848,0.341l-2.846,0.456
					c-2.125,0.381-3.871,0.873-5.236,1.479c-3.568,1.595-5.352,4.213-5.352,7.856c0,2.276,0.721,4.175,2.162,5.692
					c1.441,1.52,3.264,2.277,5.465,2.277c2.732,0,4.857-1.1,6.377-3.302c1.518-2.124,2.277-5.01,2.277-8.653V558.129z"/>
			</g>
			<g enable-background="new    ">
				<path fill="#30286C" d="M24.222,633.547l9.296,36.152h0.207l8.986-36.152h10.33L38.27,681.578h-9.813l-14.564-48.031H24.222z"/>
				<path fill="#30286C" d="M71.84,617.536c0,1.859-0.483,3.375-1.446,4.545c-1.033,1.239-2.308,1.859-3.822,1.859
					c-1.516,0-2.789-0.62-3.822-1.859c-1.033-1.17-1.55-2.65-1.55-4.442c0-1.858,0.551-3.408,1.653-4.647
					c0.963-1.171,2.134-1.756,3.512-1.756C70.015,611.235,71.84,613.336,71.84,617.536z M71.427,633.547v48.031h-9.503v-48.031
					H71.427z"/>
				<path fill="#30286C" d="M110.678,643.256l-0.93-0.413l-1.033-0.413c-0.965-0.274-1.929-0.413-2.892-0.413
					c-3.099,0-5.613,1.343-7.541,4.028c-1.859,2.549-2.789,5.647-2.789,9.297v26.236H85.99v-48.031h8.677l0.723,6.92h0.207
					c1.239-2.409,2.479-4.199,3.718-5.371c1.79-1.721,3.959-2.582,6.508-2.582c1.446,0,3.063,0.345,4.855,1.033V643.256z"/>
				<path fill="#30286C" d="M136.707,618.155v15.392h8.987v8.16h-8.987v28.612c0,2.548,1.343,3.821,4.028,3.821
					c1.377,0,3.03-0.48,4.958-1.445v8.366c-2.893,1.033-5.614,1.55-8.161,1.55c-6.887,0-10.329-3.306-10.329-9.916v-30.988h-6.508
					v-8.16h6.508v-15.392H136.707z"/>
				<path fill="#30286C" d="M164.699,633.547v32.537c0,4.958,2.134,7.438,6.404,7.438c2.892,0,5.268-1.411,7.127-4.235
					c1.79-2.754,2.686-6.335,2.686-10.742v-24.997h9.503v48.031h-9.09l-0.413-6.197c-1.792,2.342-3.375,3.994-4.751,4.958
					c-2.135,1.514-4.648,2.272-7.541,2.272c-4.477,0-7.886-1.48-10.226-4.442c-2.135-2.753-3.202-6.507-3.202-11.259v-33.363
					H164.699z"/>
				<path fill="#30286C" d="M235.352,670.938c0,2.066,0.827,3.1,2.479,3.1c0.55,0,1.136-0.138,1.756-0.414l0.62-0.31l0.207-0.104
					l0.207-0.103v8.47c-1.929,0.413-3.995,0.62-6.198,0.62c-3.099,0-5.303-0.688-6.611-2.066c-0.482-0.55-0.862-1.204-1.136-1.963
					c-0.207-0.55-0.345-1.239-0.413-2.065c-1.516,2.065-2.928,3.548-4.235,4.441c-1.859,1.377-4.098,2.066-6.714,2.066
					c-4.201,0-7.644-1.48-10.329-4.442c-2.549-2.892-3.822-6.507-3.822-10.846c0-6.197,2.96-10.639,8.883-13.324
					c2.203-1.033,4.855-1.824,7.954-2.376c1.24-0.207,2.583-0.378,4.029-0.517c0.963-0.138,2.169-0.274,3.615-0.413v-1.446
					c0-2.409-0.689-4.406-2.066-5.991c-1.446-1.721-3.478-2.582-6.094-2.582c-2.272,0-4.581,0.689-6.921,2.065
					c-0.896,0.482-1.825,1.103-2.789,1.859l-1.239,0.93l-1.136,0.826v-9.916c2.823-1.583,5.646-2.686,8.47-3.306
					c1.033-0.206,2.1-0.377,3.202-0.516c0.826-0.068,1.652-0.104,2.479-0.104c5.095,0,9.054,1.481,11.878,4.441
					c2.617,2.686,3.925,6.13,3.925,10.329V670.938z M225.642,658.027l-2.583,0.31l-2.582,0.413
					c-1.929,0.346-3.512,0.793-4.752,1.343c-3.237,1.446-4.854,3.822-4.854,7.128c0,2.065,0.653,3.787,1.962,5.164
					c1.308,1.379,2.96,2.066,4.958,2.066c2.479,0,4.406-0.998,5.785-2.996c1.376-1.927,2.066-4.545,2.066-7.851V658.027z"/>
				<path fill="#30286C" d="M260.555,611.235v70.343h-9.503v-70.343H260.555z"/>
				<path fill="#30286C" d="M339.365,657.511H310.03v1.756c0,4.132,1.204,7.61,3.615,10.433c2.34,2.824,5.165,4.235,8.47,4.235
					c2.892,0,5.818-0.895,8.78-2.686c1.171-0.688,2.376-1.55,3.616-2.583l1.652-1.445l1.445-1.344v10.949
					c-6.336,3.857-11.672,5.785-16.01,5.785c-6.543,0-11.742-2.443-15.597-7.334c-3.651-4.613-5.475-10.397-5.475-17.354
					c0-7.368,1.997-13.462,5.991-18.283c3.993-4.751,8.951-7.127,14.874-7.127c5.578,0,10.02,2.065,13.325,6.197
					c3.099,3.926,4.647,9.022,4.647,15.288V657.511z M329.346,649.97c-0.275-3.786-1.412-6.472-3.408-8.057
					c-0.758-0.619-1.619-1.033-2.582-1.239c-0.689-0.207-1.413-0.31-2.169-0.31c-2.755,0-5.097,1.171-7.024,3.512
					c-0.689,0.896-1.343,1.963-1.962,3.202l-0.723,1.549l-0.207,0.724l-0.31,0.619H329.346z"/>
				<path fill="#30286C" d="M386.363,681.578h-9.503v-30.885c0-6.059-2.102-9.09-6.301-9.09c-3.099,0-5.544,1.378-7.334,4.132
					c-1.792,2.686-2.686,6.094-2.686,10.226v25.617h-9.503v-48.031h8.677l0.826,6.094l0.31-0.517l0.414-0.517l0.93-1.032
					c0.826-0.964,1.686-1.756,2.582-2.376c2.409-1.79,5.164-2.686,8.264-2.686c4.199,0,7.505,1.446,9.916,4.338
					c2.272,2.755,3.408,6.233,3.408,10.433V681.578z"/>
				<path fill="#30286C" d="M457.118,646.665c-5.164-3.993-9.399-5.991-12.705-5.991c-2.342,0-4.338,0.517-5.991,1.549
					c-1.791,1.103-2.686,2.515-2.686,4.235c0,2.479,3.099,4.581,9.297,6.301c0.067,0,0.171,0.036,0.31,0.104l0.31,0.104
					c5.646,1.585,9.537,3.65,11.673,6.197c1.583,1.859,2.376,4.271,2.376,7.23c0,4.958-1.859,8.953-5.578,11.982
					c-3.513,2.824-7.851,4.235-13.016,4.235c-4.82,0-9.848-1.446-15.08-4.339v-10.226l1.239,0.93l1.446,0.93
					c1.101,0.758,2.203,1.412,3.305,1.962c2.754,1.379,5.543,2.066,8.367,2.066c2.686,0,4.923-0.584,6.714-1.756
					c1.928-1.308,2.893-2.927,2.893-4.855c0-1.927-0.896-3.373-2.686-4.338c-1.24-0.688-4.339-1.721-9.297-3.099
					c-1.309-0.344-2.515-0.757-3.615-1.24c-1.516-0.688-2.824-1.479-3.925-2.375c-2.962-2.341-4.441-5.336-4.441-8.987
					c0-4.199,1.652-7.711,4.958-10.536c3.305-2.822,7.574-4.234,12.808-4.234c3.649,0,8.091,1.239,13.325,3.719V646.665z"/>
				<path fill="#30286C" d="M501.741,670.938c0,2.066,0.826,3.1,2.479,3.1c0.55,0,1.136-0.138,1.756-0.414l0.619-0.31l0.207-0.104
					l0.207-0.103v8.47c-1.929,0.413-3.995,0.62-6.198,0.62c-3.099,0-5.304-0.688-6.61-2.066c-0.482-0.55-0.862-1.204-1.137-1.963
					c-0.206-0.55-0.345-1.239-0.413-2.065c-1.516,2.065-2.928,3.548-4.235,4.441c-1.859,1.377-4.098,2.066-6.714,2.066
					c-4.201,0-7.644-1.48-10.329-4.442c-2.549-2.892-3.822-6.507-3.822-10.846c0-6.197,2.96-10.639,8.884-13.324
					c2.203-1.033,4.854-1.824,7.953-2.376c1.24-0.207,2.583-0.378,4.028-0.517c0.964-0.138,2.17-0.274,3.615-0.413v-1.446
					c0-2.409-0.688-4.406-2.065-5.991c-1.446-1.721-3.479-2.582-6.095-2.582c-2.272,0-4.58,0.689-6.92,2.065
					c-0.896,0.482-1.826,1.103-2.789,1.859l-1.24,0.93l-1.136,0.826v-9.916c2.823-1.583,5.646-2.686,8.47-3.306
					c1.033-0.206,2.1-0.377,3.202-0.516c0.826-0.068,1.653-0.104,2.479-0.104c5.095,0,9.055,1.481,11.879,4.441
					c2.616,2.686,3.925,6.13,3.925,10.329V670.938z M492.031,658.027l-2.582,0.31l-2.582,0.413
					c-1.929,0.346-3.512,0.793-4.752,1.343c-3.237,1.446-4.854,3.822-4.854,7.128c0,2.065,0.653,3.787,1.963,5.164
					c1.307,1.379,2.96,2.066,4.958,2.066c2.479,0,4.406-0.998,5.784-2.996c1.377-1.927,2.065-4.545,2.065-7.851V658.027z"/>
				<path fill="#30286C" d="M526.944,611.235v70.343h-9.503v-70.343H526.944z"/>
				<path fill="#30286C" d="M550.907,633.547v32.537c0,4.958,2.134,7.438,6.404,7.438c2.893,0,5.268-1.411,7.127-4.235
					c1.79-2.754,2.686-6.335,2.686-10.742v-24.997h9.504v48.031h-9.09l-0.414-6.197c-1.791,2.342-3.374,3.994-4.751,4.958
					c-2.136,1.514-4.648,2.272-7.541,2.272c-4.477,0-7.886-1.48-10.226-4.442c-2.136-2.753-3.202-6.507-3.202-11.259v-33.363
					H550.907z"/>
				<path fill="#30286C" d="M626.622,611.235v70.343h-8.883l-0.517-6.404h-0.207c-0.206,0.413-0.413,0.759-0.62,1.033l-0.929,1.239
					c-0.689,0.965-1.446,1.756-2.273,2.376c-2.272,1.859-4.958,2.789-8.057,2.789c-5.097,0-9.229-2.479-12.396-7.438
					c-3.03-4.612-4.545-10.26-4.545-16.94c0-7.23,1.757-13.324,5.269-18.283c3.512-4.958,7.884-7.437,13.118-7.437
					c2.41,0,4.683,0.586,6.817,1.756c0.757,0.413,1.48,0.93,2.169,1.55l0.93,0.723l0.311,0.31l0.31,0.311v-25.927H626.622z
					 M617.119,646.354c-1.446-1.652-2.652-2.822-3.615-3.512c-1.585-1.101-3.238-1.652-4.958-1.652
					c-3.169,0-5.751,1.618-7.747,4.854c-1.929,3.168-2.893,7.094-2.893,11.775c0,4.271,0.826,7.954,2.479,11.053
					c1.789,3.375,4.165,5.062,7.127,5.062c2.823,0,5.165-1.514,7.024-4.545c1.72-2.96,2.582-6.542,2.582-10.743V646.354z"/>
			</g>
		</g>
	</g>
	<g>
		<g>
			<rect x="8.155" y="8" fill="#31286B" width="637.692" height="474.546"/>
		</g>
		<g opacity="0.85">
			<path fill="#FFFFFF" d="M432.211,411.154l-169.022-72.771l2.686,3.602l-21.49-182.764l-1.776,4.127L390.146,53.364l-4.464,0.524
				l169.017,72.782l-2.685-3.602l21.488,182.756l1.777-4.128L427.746,411.684L432.211,411.154z M582.428,304.775L560.939,122.02
				l-0.306-2.576l-2.381-1.026L389.238,45.636l-2.381-1.026l-2.082,1.551l-147.54,109.985l-2.08,1.551l0.303,2.576l21.491,182.763
				l0.303,2.575l2.383,1.027l169.022,72.772l2.381,1.022l2.08-1.549l147.535-109.984l2.078-1.55L582.428,304.775z"/>
		</g>
		<g>
			<path fill="#FFFFFF" d="M559.539,409.669l-191.805,49.348l5.813,1.619L234.902,319.205l1.506,5.845l53.17-190.783l-4.311,4.225
				L477.06,89.156l-5.813-1.62l138.65,141.427l-1.505-5.846l-53.164,190.777L559.539,409.669z M618.516,220.512L479.867,79.085
				l-2.439-2.487l-3.373,0.867L282.26,126.801l-3.375,0.868l-0.936,3.357l-53.17,190.783l-0.937,3.356l2.44,2.489l138.645,141.432
				l2.439,2.49l3.375-0.869l191.805-49.348l3.375-0.867l0.935-3.359l53.164-190.776l0.936-3.357L618.516,220.512z"/>
		</g>
		<g opacity="0.7">
			<path fill="#FFFFFF" d="M529.572,426.038l-209.074,18.541l5.801,2.697L205.706,275.474l0.564,6.372l88.488-190.331l-5.235,3.675
				l209.059-18.524l-5.803-2.696l120.604,171.789l-0.563-6.372l-88.48,190.328L529.572,426.038z M623.852,238.407L503.25,66.618
				l-2.121-3.021l-3.678,0.325L288.395,82.446l-3.679,0.326l-1.557,3.349l-88.487,190.331l-1.559,3.349l2.123,3.022l120.592,171.801
				l2.121,3.023l3.679-0.326l209.073-18.541l3.68-0.324l1.555-3.35l88.48-190.329l1.559-3.348L623.852,238.407z"/>
		</g>
		<path fill="#FFFFFF" d="M76.365,312.435c-6.886-9.593-10.084-19.433-10.084-30.501c0-27.55,23.368-47.721,55.1-47.721
			c37.39,0,59.774,22.139,59.774,59.036c0,14.513-3.198,30.256-8.364,41.078H11.182v-21.893L76.365,312.435L76.365,312.435z
			 M157.049,312.435c1.968-6.395,3.443-15.743,3.443-22.139c0-19.678-15.006-33.698-35.914-33.698
			c-23.367,0-38.619,12.299-38.619,30.746c0,9.103,2.953,15.743,11.315,25.091H157.049z"/>
		<path fill="#FFFFFF" d="M68.495,212.813v-23.861l67.891-29.764l-67.891-29.025v-23.369l112.66,48.705v7.379L68.495,212.813z"/>
		<path fill="#FFFFFF" d="M97.028,13.815c-8.116,12.3-11.561,23.86-11.561,31.978c0,8.855,4.182,14.514,10.085,14.514
			c4.919,0,10.824-7.38,22.14-26.813C129.744,15.292,137.369,8.65,148.685,8.65c19.433,0,32.471,15.496,32.471,36.405
			c0,13.528-2.706,24.106-10.087,38.373h-23.613c9.839-14.267,14.513-27.304,14.513-36.159c-0.492-8.855-4.674-16.234-12.544-16.234
			c-15.252,0-23.37,51.655-53.133,51.655c-18.694,0-30.01-14.267-30.01-36.405c0-10.331,2.951-20.908,9.101-32.47H97.028z"/>
	</g>
</g>
</svg>
