<?xml version="1.0" encoding="utf-8"?>
<!-- Generator: Adobe Illustrator 14.0.0, SVG Export Plug-In . SVG Version: 6.00 Build 43363)  -->
<!DOCTYPE svg PUBLIC "-//W3C//DTD SVG 1.1//EN" "http://www.w3.org/Graphics/SVG/1.1/DTD/svg11.dtd">
<svg version="1.1" id="Camada_1" xmlns="http://www.w3.org/2000/svg" xmlns:xlink="http://www.w3.org/1999/xlink" x="0px" y="0px"
	 width="35px" height="160.5px" viewBox="0 -40.5 35 160.5" enable-background="new 0 -40.5 35 160.5" xml:space="preserve">
<rect y="-40.5" fill="#007CA8" width="35" height="160.5"/>
<g enable-background="new    ">
	<path fill="#FFFFFF" d="M22.996,101.68c-0.336,1.275-0.715,2.521-1.094,3.614c-0.068,0.21-0.139,0.392-0.139,0.574
		c-0.084,2.255-1.738,4.16-4.792,4.16c-3.025,0-4.973-1.835-4.973-4.384c0-2.578,1.989-4.244,4.776-4.244
		c2.437,0,3.978,1.12,4.539,2.689h0.057c0.238-0.939,0.463-1.961,0.602-2.76L22.996,101.68z M16.846,102.688
		c-1.905,0-3.852,0.98-3.852,2.983c0,2.059,1.904,3.068,3.95,3.068c2.016,0,3.823-1.094,3.823-3.025
		C20.768,103.781,18.99,102.688,16.846,102.688z"/>
	<path fill="#FFFFFF" d="M12.167,98.604h5.604c2.1,0,2.997-0.938,2.997-2.199c0-1.387-0.924-2.297-2.997-2.297h-5.604v-1.232h5.52
		c2.899,0,4.077,1.526,4.077,3.571c0,1.933-1.094,3.39-4.035,3.39h-5.562V98.604z"/>
	<path fill="#FFFFFF" d="M17.182,85.89v3.656h3.404v-4.09h1.023v5.322h-9.442v-5.112h1.022v3.88h2.984V85.89H17.182z"/>
	<path fill="#FFFFFF" d="M12.293,83.877c-0.111-0.616-0.195-1.513-0.195-2.34c0-1.303,0.252-2.156,0.771-2.731
		c0.42-0.462,1.064-0.742,1.807-0.742c1.232,0,2.059,0.784,2.396,1.766h0.042c0.252-0.715,0.924-1.149,1.905-1.373
		c1.316-0.309,2.227-0.532,2.592-0.729v1.261c-0.281,0.154-1.078,0.364-2.256,0.616c-1.303,0.28-1.792,0.799-1.834,1.905v1.148h4.09
		v1.219H12.293z M16.594,82.658v-1.247c0-1.303-0.715-2.129-1.793-2.129c-1.219,0-1.751,0.883-1.751,2.171
		c0,0.589,0.042,0.995,0.098,1.205H16.594z"/>
	<path fill="#FFFFFF" d="M17.182,71.471v3.656h3.404v-4.09h1.023v5.322h-9.442v-5.112h1.022v3.88h2.984v-3.656H17.182z"/>
	<path fill="#FFFFFF" d="M17.462,61.501c-1.316,0.069-2.913,0.153-4.076,0.153v0.028c1.093,0.336,2.283,0.715,3.586,1.19
		l4.581,1.667v0.925l-4.497,1.541c-1.345,0.448-2.549,0.813-3.67,1.078v0.028c1.177,0.028,2.746,0.098,4.175,0.182l4.048,0.253
		v1.162l-9.442-0.658v-1.555l4.566-1.611c1.163-0.392,2.2-0.7,3.18-0.952v-0.028c-0.953-0.252-1.989-0.588-3.18-1.009l-4.566-1.681
		V60.66l9.442-0.588v1.204L17.462,61.501z"/>
	<path fill="#FFFFFF" d="M16.791,50.133c3.235,0,4.973,1.975,4.973,4.384c0,2.508-1.947,4.245-4.805,4.245
		c-2.998,0-4.959-1.85-4.959-4.371C12,51.8,13.975,50.133,16.791,50.133z M16.93,57.473c2.031,0,3.837-1.093,3.837-3.025
		c0-1.934-1.777-3.025-3.921-3.025c-1.891,0-3.852,0.98-3.852,3.011C12.995,56.464,14.872,57.473,16.93,57.473z"/>
	<path fill="#FFFFFF" d="M20.125,48.71c0.35-0.547,0.615-1.331,0.615-2.172c0-1.246-0.658-1.975-1.611-1.975
		c-0.867,0-1.386,0.504-1.863,1.779c-0.56,1.54-1.372,2.493-2.689,2.493c-1.471,0-2.563-1.219-2.563-3.054
		c0-0.953,0.224-1.667,0.462-2.073l0.994,0.336c-0.182,0.294-0.448,0.925-0.448,1.779c0,1.288,0.771,1.779,1.415,1.779
		c0.883,0,1.316-0.575,1.821-1.878c0.616-1.597,1.387-2.395,2.773-2.395c1.457,0,2.732,1.064,2.732,3.291
		c0,0.911-0.281,1.905-0.617,2.41L20.125,48.71z"/>
	<path fill="#FFFFFF" d="M20.125,38.84c0.35-0.547,0.615-1.331,0.615-2.172c0-1.246-0.658-1.975-1.611-1.975
		c-0.867,0-1.386,0.504-1.863,1.779c-0.56,1.54-1.372,2.493-2.689,2.493c-1.471,0-2.563-1.219-2.563-3.054
		c0-0.953,0.224-1.667,0.462-2.073l0.994,0.336c-0.182,0.294-0.448,0.925-0.448,1.779c0,1.288,0.771,1.778,1.415,1.778
		c0.883,0,1.316-0.574,1.821-1.877c0.616-1.597,1.387-2.395,2.773-2.395c1.457,0,2.732,1.064,2.732,3.291
		c0,0.911-0.281,1.905-0.617,2.41L20.125,38.84z"/>
	<path fill="#FFFFFF" d="M12.167,30.565h5.604c2.1,0,2.997-0.938,2.997-2.199c0-1.387-0.924-2.297-2.997-2.297h-5.604v-1.233h5.52
		c2.899,0,4.077,1.527,4.077,3.572c0,1.933-1.094,3.39-4.035,3.39h-5.562V30.565z"/>
	<path fill="#FFFFFF" d="M16.791,11.689c3.235,0,4.973,1.975,4.973,4.384c0,2.508-1.947,4.245-4.805,4.245
		c-2.998,0-4.959-1.85-4.959-4.371C12,13.356,13.975,11.689,16.791,11.689z M16.93,19.029c2.031,0,3.837-1.093,3.837-3.025
		c0-1.934-1.777-3.025-3.921-3.025c-1.891,0-3.852,0.98-3.852,3.011C12.995,18.021,14.872,19.029,16.93,19.029z"/>
	<path fill="#FFFFFF" d="M12.28,10.112c-0.098-0.589-0.182-1.358-0.182-2.34c0-1.204,0.279-2.087,0.784-2.647
		c0.448-0.504,1.135-0.826,1.975-0.826c0.854,0,1.527,0.252,2.018,0.729c0.687,0.658,1.036,1.695,1.036,2.886
		c0,0.364-0.014,0.7-0.084,0.98h3.783v1.219H12.28z M16.833,8.894c0.069-0.267,0.098-0.603,0.098-1.009
		c0-1.471-0.729-2.367-2.003-2.367c-1.261,0-1.863,0.896-1.863,2.228c0,0.532,0.042,0.938,0.099,1.148H16.833z"/>
	<path fill="#FFFFFF" d="M12.167,1.445h9.442v1.232h-9.442V1.445z"/>
	<path fill="#FFFFFF" d="M21.609-0.682h-9.442v-1.345l4.777-3.012c1.106-0.687,2.1-1.247,3.067-1.681l-0.014-0.042
		c-1.26,0.111-2.41,0.14-3.88,0.14h-3.95V-7.77h9.442v1.232l-4.792,2.998c-1.05,0.658-2.129,1.288-3.151,1.751l0.014,0.042
		c1.191-0.07,2.325-0.084,3.895-0.084h4.035V-0.682z"/>
	<path fill="#FFFFFF" d="M12.167-11.112h9.442v1.232h-9.442V-11.112z"/>
	<path fill="#FFFFFF" d="M9.997-19.038l1.639,1.793v0.994l-1.639-1.303V-19.038z M16.791-21.308c3.235,0,4.973,1.975,4.973,4.384
		c0,2.508-1.947,4.245-4.805,4.245c-2.998,0-4.959-1.85-4.959-4.371C12-19.641,13.975-21.308,16.791-21.308z M16.93-13.968
		c2.031,0,3.837-1.093,3.837-3.025c0-1.934-1.777-3.026-3.921-3.026c-1.891,0-3.852,0.981-3.852,3.012
		C12.995-14.977,14.872-13.968,16.93-13.968z"/>
	<path fill="#FFFFFF" d="M21.609-22.886h-9.442v-1.345l4.777-3.012c1.106-0.687,2.1-1.247,3.067-1.681l-0.014-0.042
		c-1.26,0.111-2.41,0.14-3.88,0.14h-3.95v-1.148h9.442v1.232l-4.792,2.998c-1.05,0.658-2.129,1.288-3.151,1.751l0.014,0.042
		c1.191-0.07,2.325-0.084,3.895-0.084h4.035V-22.886z"/>
</g>
</svg>
