<?xml version="1.0" encoding="utf-8"?>
<!-- Generator: Adobe Illustrator 14.0.0, SVG Export Plug-In . SVG Version: 6.00 Build 43363)  -->
<!DOCTYPE svg PUBLIC "-//W3C//DTD SVG 1.1//EN" "http://www.w3.org/Graphics/SVG/1.1/DTD/svg11.dtd">
<svg version="1.1" id="Camada_1" xmlns="http://www.w3.org/2000/svg" xmlns:xlink="http://www.w3.org/1999/xlink" x="0px" y="0px"
	 width="35px" height="160.5px" viewBox="0 0 35 160.5" enable-background="new 0 0 35 160.5" xml:space="preserve">
<rect fill="#007CA8" width="35" height="160.5"/>
<g>
	<path fill="#FFFFFF" d="M21.609,149.078l-9.442,2.396v-1.289l4.777-1.121c1.176-0.279,2.352-0.532,3.264-0.7v-0.028
		c-0.939-0.154-2.061-0.447-3.279-0.77l-4.763-1.262v-1.274l4.791-1.148c1.12-0.267,2.241-0.519,3.235-0.658v-0.028
		c-1.035-0.195-2.086-0.462-3.263-0.756l-4.763-1.247v-1.247l9.442,2.676v1.275l-4.917,1.189c-1.204,0.295-2.129,0.49-3.081,0.617
		v0.027c0.938,0.154,1.862,0.379,3.081,0.729l4.917,1.346V149.078z"/>
	<path fill="#FFFFFF" d="M17.182,133.9v3.656h3.404v-4.09h1.023v5.322h-9.442v-5.111h1.022v3.879h2.984V133.9H17.182z"/>
	<path fill="#FFFFFF" d="M21.609,127.883l-9.442,2.396v-1.289l4.777-1.12c1.176-0.28,2.352-0.533,3.264-0.701v-0.027
		c-0.939-0.154-2.061-0.448-3.279-0.771l-4.763-1.261v-1.275l4.791-1.148c1.12-0.266,2.241-0.518,3.235-0.658V122
		c-1.035-0.196-2.086-0.463-3.263-0.757l-4.763-1.247v-1.246l9.442,2.676v1.274l-4.917,1.19c-1.204,0.295-2.129,0.49-3.081,0.616
		v0.028c0.938,0.154,1.862,0.378,3.081,0.729l4.917,1.345V127.883z"/>
	<path fill="#FFFFFF" d="M12.167,116.361h9.442v1.232h-9.442V116.361z"/>
	<path fill="#FFFFFF" d="M20.125,114.388c0.35-0.546,0.615-1.331,0.615-2.171c0-1.246-0.658-1.975-1.611-1.975
		c-0.867,0-1.386,0.504-1.863,1.778c-0.56,1.541-1.372,2.493-2.689,2.493c-1.471,0-2.563-1.219-2.563-3.053
		c0-0.953,0.224-1.668,0.462-2.074l0.994,0.336c-0.182,0.295-0.448,0.926-0.448,1.779c0,1.289,0.771,1.779,1.415,1.779
		c0.883,0,1.316-0.574,1.821-1.877c0.616-1.598,1.387-2.396,2.773-2.396c1.457,0,2.732,1.065,2.732,3.292
		c0,0.91-0.281,1.904-0.617,2.409L20.125,114.388z"/>
	<path fill="#FFFFFF" d="M12.167,106.113h3.95v-4.566h-3.95v-1.232h9.442v1.232h-4.427v4.566h4.427v1.232h-9.442V106.113z"/>
	<path fill="#FFFFFF" d="M21.609,93.779h-4.006l-5.436,2.998v-1.401l2.605-1.331c0.715-0.35,1.289-0.645,1.947-0.938v-0.029
		c-0.616-0.252-1.232-0.588-1.947-0.951l-2.605-1.359v-1.373l5.421,3.152h4.021V93.779z"/>
	<path fill="#FFFFFF" d="M16.791,80.742c3.235,0,4.973,1.975,4.973,4.385c0,2.507-1.947,4.244-4.805,4.244
		C13.96,89.371,12,87.521,12,85C12,82.409,13.975,80.742,16.791,80.742z M16.93,88.082c2.031,0,3.837-1.093,3.837-3.025
		c0-1.934-1.777-3.025-3.921-3.025c-1.891,0-3.852,0.98-3.852,3.012S14.872,88.082,16.93,88.082z"/>
	<path fill="#FFFFFF" d="M12.167,77.946h5.604c2.1,0,2.997-0.938,2.997-2.199c0-1.387-0.924-2.297-2.997-2.297h-5.604v-1.232h5.52
		c2.899,0,4.077,1.527,4.077,3.572c0,1.933-1.094,3.39-4.035,3.39h-5.562V77.946z"/>
	<path fill="#FFFFFF" d="M12.293,70.106c-0.111-0.617-0.195-1.513-0.195-2.339c0-1.303,0.252-2.157,0.771-2.731
		c0.42-0.462,1.064-0.743,1.807-0.743c1.232,0,2.059,0.785,2.396,1.765h0.042c0.252-0.714,0.924-1.148,1.905-1.373
		c1.316-0.308,2.227-0.532,2.592-0.729v1.261c-0.281,0.154-1.078,0.364-2.256,0.616c-1.303,0.28-1.792,0.798-1.834,1.905v1.148h4.09
		v1.219H12.293z M16.594,68.888v-1.247c0-1.303-0.715-2.129-1.793-2.129c-1.219,0-1.751,0.883-1.751,2.171
		c0,0.588,0.042,0.995,0.098,1.205H16.594z"/>
	<path fill="#FFFFFF" d="M16.791,51.539c3.235,0,4.973,1.975,4.973,4.384c0,2.507-1.947,4.244-4.805,4.244
		c-2.998,0-4.959-1.849-4.959-4.37C12,53.206,13.975,51.539,16.791,51.539z M16.93,58.878c2.031,0,3.837-1.093,3.837-3.025
		c0-1.933-1.777-3.026-3.921-3.026c-1.891,0-3.852,0.98-3.852,3.012C12.995,57.87,14.872,58.878,16.93,58.878z"/>
	<path fill="#FFFFFF" d="M12.28,49.961c-0.098-0.588-0.182-1.359-0.182-2.339c0-1.205,0.279-2.087,0.784-2.647
		c0.448-0.504,1.135-0.827,1.975-0.827c0.854,0,1.527,0.252,2.018,0.729c0.687,0.659,1.036,1.695,1.036,2.886
		c0,0.364-0.014,0.7-0.084,0.98h3.783v1.219H12.28z M16.833,48.742c0.069-0.266,0.098-0.603,0.098-1.009
		c0-1.471-0.729-2.367-2.003-2.367c-1.261,0-1.863,0.896-1.863,2.228c0,0.532,0.042,0.938,0.099,1.148H16.833z"/>
	<path fill="#FFFFFF" d="M12.167,41.294h9.442v1.232h-9.442V41.294z"/>
	<path fill="#FFFFFF" d="M21.609,39.167h-9.442v-1.345l4.777-3.012c1.106-0.687,2.1-1.247,3.067-1.681l-0.014-0.042
		c-1.26,0.112-2.41,0.14-3.88,0.14h-3.95v-1.148h9.442v1.232l-4.792,2.998c-1.05,0.659-2.129,1.289-3.151,1.751l0.014,0.042
		c1.191-0.07,2.325-0.084,3.895-0.084h4.035V39.167z"/>
	<path fill="#FFFFFF" d="M12.167,28.736h9.442v1.233h-9.442V28.736z"/>
	<path fill="#FFFFFF" d="M16.791,18.541c3.235,0,4.973,1.975,4.973,4.384c0,2.508-1.947,4.245-4.805,4.245
		C13.96,27.17,12,25.32,12,22.799C12,20.208,13.975,18.541,16.791,18.541z M16.93,25.881c2.031,0,3.837-1.093,3.837-3.025
		c0-1.934-1.777-3.026-3.921-3.026c-1.891,0-3.852,0.981-3.852,3.012C12.995,24.872,14.872,25.881,16.93,25.881z"/>
	<path fill="#FFFFFF" d="M21.609,16.964h-9.442v-1.345l4.777-3.012c1.106-0.687,2.1-1.247,3.067-1.681l-0.014-0.042
		c-1.26,0.111-2.41,0.14-3.88,0.14h-3.95V9.876h9.442v1.232l-4.792,2.998c-1.05,0.658-2.129,1.288-3.151,1.751l0.014,0.042
		c1.191-0.07,2.325-0.084,3.895-0.084h4.035V16.964z"/>
</g>
</svg>
