<?xml version="1.0" encoding="utf-8"?>
<!-- Generator: Adobe Illustrator 14.0.0, SVG Export Plug-In . SVG Version: 6.00 Build 43363)  -->
<!DOCTYPE svg PUBLIC "-//W3C//DTD SVG 1.1//EN" "http://www.w3.org/Graphics/SVG/1.1/DTD/svg11.dtd">
<svg version="1.1" id="Camada_1" xmlns="http://www.w3.org/2000/svg" xmlns:xlink="http://www.w3.org/1999/xlink" x="0px" y="0px"
	 width="425.643px" height="110px" viewBox="0 0 425.643 110" enable-background="new 0 0 425.643 110" xml:space="preserve">
<g>
	<g>
		<g>
			<g>
				<g>
					<path fill="#2588B8" d="M203.588,50.307V40.88c0-5.315-1.25-8.856-7.344-8.856c-2.955,0-4.802,0.969-6.008,1.615l-0.112,0.052
						l0.292,4.686l0.27-0.26c0.791-0.76,2.74-2.051,5.003-2.051c3.002,0,3.325,2.749,3.325,3.934v0.621h-0.739
						c-4.669,0-10.042,0.85-10.042,7.514c0,4.269,2.916,6.503,5.785,6.503c2.659,0,4.11-1.461,5.149-2.998
						c0.014,0.885,0.056,1.787,0.254,2.533l0.029,0.129h4.416l-0.021-0.197C203.752,53.374,203.588,51.914,203.588,50.307
						 M199.015,44.778c0,4.086-1.113,5.985-3.496,5.985c-1.65,0-2.702-1.229-2.702-3.133c0-2.762,1.727-3.891,5.974-3.891h0.224
						V44.778L199.015,44.778z M180.973,32.359l-0.073,1.521c0,0-0.052,1.086-0.064,1.602c-0.932-1.759-2.276-3.458-4.935-3.458
						c-4.416,0-6.954,4.143-6.954,11.371c0,10.121,5.149,10.907,6.73,10.907c2.774,0,4.097-1.675,4.848-3.187v1.417
						c0,3.083-0.541,6.613-4.775,6.613c-1.688,0-3.569-0.627-5.438-1.812l-0.253-0.163l-0.279,5.042l0.116,0.043
						c2.13,0.897,4.321,1.357,6.515,1.357c7.829,0,8.835-6.279,8.835-11.751V35.935l0.15-3.565l-0.185-0.011H180.973z
						 M176.733,50.135c-1.275,0-2.775-1.842-2.775-7.037c0-4.584,0.988-6.743,3.105-6.779c0.674-0.013,1.28,0.232,1.787,0.732
						c1.078,1.055,1.675,3.192,1.675,6.009C180.525,48.014,179.392,50.135,176.733,50.135 M217.104,32.024
						c-2.869,0-4.235,2.023-4.904,3.277c-0.026-0.577-0.065-1.458-0.065-1.458l-0.068-1.484h-0.172h-4.423l0.025,0.195
						c0.1,0.863,0.146,2.019,0.146,3.542v18.206h4.866V41.55c0-1.83,0.395-4.898,3.032-4.898c1.731,0,2.396,1.264,2.396,4.52v13.129
						h4.879V40.208C222.817,34.778,220.893,32.024,217.104,32.024 M307.941,23.934h-4.655l-2.465,6.389h3.194L307.941,23.934z
						 M144.183,24.268c-4.982,0-10.303,3.999-10.303,15.225c0,11.231,5.321,15.229,10.303,15.229
						c4.973,0,10.291-3.999,10.291-15.229C154.474,28.267,149.156,24.268,144.183,24.268 M144.183,50.261
						c-3.325,0-5.137-3.823-5.137-10.768c0-6.94,1.812-10.763,5.137-10.763c3.307,0,5.132,3.822,5.132,10.763
						C149.315,46.438,147.49,50.261,144.183,50.261 M166.452,32.024c-2.74,0-4.123,2.375-4.69,3.745
						c-0.026-0.7-0.06-1.673-0.06-1.673l-0.069-1.737h-0.171h-4.274l0.022,0.195c0.094,0.861,0.141,2.019,0.141,3.542v18.206h4.867
						V42.305c0-4.778,2.847-5.148,3.724-5.148c0.39,0,0.777,0.062,1.215,0.202l0.231,0.071v-5.246l-0.378-0.082L166.452,32.024z
						 M285.979,28.646h5.008v-5.472h-5.008V28.646z M282.438,49.328c-0.558,0.429-2.018,1.014-3.1,1.014
						c-3.093,0-4.947-2.598-4.947-6.947c0-4.763,1.554-7.076,4.741-7.076c1.143,0,2.189,0.518,3.074,1.024l0.241,0.142l0.282-4.513
						l-0.104-0.05c-0.806-0.363-2.524-0.898-4.01-0.898c-5.781,0-9.243,4.233-9.243,11.33c0,7.064,3.367,11.283,8.985,11.283
						c2.147,0,3.745-0.559,4.518-0.894l0.111-0.052l-0.282-4.556L282.438,49.328z M286.047,54.302h4.87V32.364h-4.87V54.302z
						 M303.226,32.024c-2.542,0-8.435,1.1-8.435,11.287c0,9.856,5.282,11.326,8.435,11.326c3.135,0,8.409-1.47,8.409-11.326
						C311.635,33.124,305.752,32.024,303.226,32.024 M303.226,50.591c-2.835,0-3.427-3.957-3.427-7.28
						c0-3.304,0.592-7.245,3.427-7.245c2.25,0,3.385,2.438,3.385,7.245C306.61,48.143,305.476,50.591,303.226,50.591
						 M227.193,54.302h4.862V32.364h-4.862V54.302z M227.116,28.646h5.012v-5.472h-5.012V28.646z M265.835,50.307V40.88
						c0-5.315-1.244-8.856-7.343-8.856c-2.947,0-4.803,0.969-6.021,1.615l-0.096,0.052l0.283,4.686l0.275-0.26
						c0.799-0.76,2.74-2.051,5.008-2.051c2.998,0,3.324,2.749,3.324,3.934v0.621h-0.73c-4.681,0-10.042,0.85-10.042,7.514
						c0,4.269,2.904,6.503,5.782,6.503c2.646,0,4.105-1.461,5.145-2.998c0.018,0.868,0.061,1.778,0.249,2.533l0.034,0.129h4.416
						l-0.026-0.197C265.999,53.383,265.835,51.918,265.835,50.307 M261.266,44.778c0,4.086-1.116,5.985-3.505,5.985
						c-1.64,0-2.696-1.229-2.696-3.133c0-2.762,1.727-3.891,5.97-3.891h0.231V44.778z M248.295,37.026v-4.667h-12.629v4.293h7.619
						c-0.309,0.515-7.872,12.938-7.872,12.938v4.712h13.131v-4.295h-7.982C240.867,49.5,248.295,37.026,248.295,37.026
						 M324.52,32.024c-2.868,0-4.226,2.023-4.905,3.277c-0.025-0.577-0.059-1.449-0.059-1.449l-0.069-1.493h-0.172h-4.424
						l0.017,0.195c0.104,0.866,0.146,2.023,0.146,3.542v18.206h4.879V41.55c0-1.83,0.386-4.898,3.023-4.898
						c1.735,0,2.405,1.264,2.405,4.52v13.129h4.87V40.208C330.231,34.778,328.308,32.024,324.52,32.024"/>
					<path fill="#2588B8" d="M239.781,92.326v-8.934c0-5.042-1.185-8.393-6.953-8.393c-2.805,0-4.544,0.92-5.7,1.528l-0.094,0.045
						l0.271,4.447l0.258-0.248c0.751-0.722,2.589-1.941,4.741-1.941c2.839,0,3.148,2.604,3.148,3.729v0.584h-0.696
						c-4.432,0-9.521,0.808-9.521,7.121c0,4.045,2.762,6.158,5.484,6.158c2.517,0,3.891-1.383,4.879-2.835
						c0.013,0.834,0.056,1.685,0.236,2.396l0.03,0.12h4.187l-0.025-0.188C239.936,95.229,239.781,93.847,239.781,92.326
						 M235.452,87.086c0,3.865-1.048,5.669-3.315,5.669c-1.554,0-2.556-1.168-2.556-2.973c0-2.619,1.637-3.685,5.657-3.685h0.214
						V87.086z M189.132,75c-2.714,0-4.011,1.925-4.642,3.102c-0.022-0.542-0.065-1.383-0.065-1.383l-0.064-1.399h-0.163h-4.188
						l0.017,0.188c0.09,0.799,0.138,1.907,0.138,3.359v17.238h4.617V84.027c0-1.734,0.374-4.638,2.86-4.638
						c1.654,0,2.285,1.195,2.285,4.277v12.438h4.617V82.748C194.544,77.604,192.719,75,189.132,75 M146.897,88.34
						c-0.244-1.005-4.874-20.29-4.874-20.29h-6.884v28.055h4.341V73.91c0.472,1.924,5.519,22.194,5.519,22.194h3.41
						c0,0,5.331-20.426,5.811-22.246v22.246h4.325V68.05h-6.678C151.866,68.05,147.146,87.344,146.897,88.34 M176.441,92.566V75.319
						h-4.616v11.887c0,2.199-0.486,4.836-2.766,4.836c-1.692,0-2.384-1.245-2.384-4.286V75.319h-4.613v13.355
						c0,5.137,1.825,7.748,5.412,7.748c2.671,0,3.865-1.761,4.643-3.135c0.026,0.54,0.064,1.425,0.064,1.425l0.064,1.392h0.163
						h4.184l-0.017-0.188C176.484,95.117,176.441,94.018,176.441,92.566 M217.35,71.797h4.746v-5.179h-4.746V71.797z M213.2,92.445
						V65.983h-4.617v11.835c-0.58-1.143-1.864-2.818-4.488-2.818c-3.947,0-6.301,4.012-6.301,10.729
						c0,6.699,2.392,10.694,6.404,10.694c2.178,0,3.698-1.073,4.664-3.195c0.017,1.246,0.082,2.242,0.137,2.731l0.013,0.146h4.346
						l-0.03-0.188C213.235,95.255,213.2,94.12,213.2,92.445 M205.371,92.472c-2.165,0-2.967-1.882-2.967-6.94
						c0-4.432,0.983-6.58,3.04-6.58c2.728,0,3.14,4.2,3.14,6.7C208.583,88.771,208.034,92.472,205.371,92.472 M244.037,96.104h4.602
						V65.983h-4.602V96.104z M217.414,96.104h4.608V75.319h-4.608V96.104z M374.176,92.326v-8.934c0-5.042-1.186-8.393-6.966-8.393
						c-2.8,0-4.543,0.92-5.703,1.528l-0.095,0.045l0.266,4.447l0.268-0.248c0.746-0.722,2.593-1.941,4.741-1.941
						c2.834,0,3.143,2.604,3.143,3.729v0.584h-0.695c-4.415,0-9.509,0.808-9.509,7.121c0,4.045,2.757,6.158,5.489,6.158
						c2.5,0,3.883-1.383,4.869-2.835c0.01,0.843,0.053,1.685,0.232,2.396l0.044,0.12h4.182l-0.024-0.188
						C374.306,95.058,374.176,93.743,374.176,92.326 M369.829,87.086c0,3.865-1.047,5.669-3.307,5.669
						c-1.555,0-2.56-1.168-2.56-2.973c0-2.619,1.64-3.685,5.661-3.685h0.205V87.086z M401.551,92.566V75.319h-4.612v11.887
						c0,2.199-0.481,4.836-2.767,4.836c-1.683,0-2.378-1.245-2.378-4.286V75.319h-4.604v13.355c0,5.137,1.812,7.748,5.395,7.748
						c2.672,0,3.873-1.752,4.646-3.135c0.025,0.55,0.06,1.435,0.06,1.435l0.069,1.382h0.154h4.2l-0.024-0.188
						C401.586,95.109,401.551,94.009,401.551,92.566 M378.429,96.104h4.596V65.983h-4.596V96.104z M420.336,95.916
						c-0.085-0.678-0.128-1.804-0.128-3.471V65.983h-4.622v11.825C415.02,76.676,413.722,75,411.11,75
						c-3.959,0-6.304,4.012-6.304,10.729c0,6.699,2.388,10.694,6.399,10.694c2.181,0,3.702-1.073,4.673-3.195
						c0.017,1.246,0.076,2.234,0.138,2.731l0.017,0.146h4.338L420.336,95.916z M412.382,92.472c-2.164,0-2.971-1.882-2.971-6.94
						c0-4.432,0.995-6.58,3.032-6.58c2.739,0,3.143,4.2,3.143,6.7C415.586,88.771,415.036,92.472,412.382,92.472 M287.679,75
						c-4.39,0-7.473,4.527-7.473,11.013c0,5.033,2.207,10.41,8.383,10.41c2.646,0,4.561-0.927,5.387-1.331l0.093-0.044l-0.231-4.337
						l-0.257,0.214c-0.945,0.808-2.146,1.547-4.544,1.547c-2.921,0-4.304-1.675-4.346-5.257h10.272v-1.126
						C294.963,76.925,291.012,75,287.679,75 M284.69,83.778c0.033-2.396,0.823-5.109,2.988-5.109c2.268,0,2.782,2.739,2.8,5.109
						H284.69z M307.727,96.157h4.604V65.641h-4.604V96.157z M276.891,92.445V65.983h-4.604v11.835
						c-0.584-1.134-1.882-2.818-4.492-2.818c-3.951,0-6.305,4.012-6.305,10.729c0,6.699,2.396,10.694,6.407,10.694
						c2.183,0,3.694-1.073,4.656-3.204c0.017,1.246,0.094,2.243,0.138,2.74l0.017,0.146h4.347l-0.026-0.188
						C276.942,95.255,276.891,94.12,276.891,92.445 M269.064,92.472c-2.164,0-2.972-1.882-2.972-6.94c0-4.432,1.005-6.58,3.041-6.58
						c2.74,0,3.152,4.2,3.152,6.7C272.286,88.771,271.727,92.472,269.064,92.472 M352.821,80.386l-2.584-1.666
						c-1.341-0.858-2.475-1.606-2.475-3.6c0-1.932,1.186-3.084,3.17-3.084c1.838,0,3.144,0.594,4.191,1.058l0.482,0.223l0.222-4.618
						l-0.36-0.13c-0.816-0.3-2.516-0.911-4.845-0.911c-3.856,0-7.748,2.378-7.748,7.712c0,3.316,1.272,5.679,4.004,7.405
						l2.232,1.426c2.079,1.322,3.075,2.155,3.075,4.07c0,2.835-1.813,3.85-3.495,3.85c-2.544,0-4.476-1.28-5.009-1.676l-0.249-0.189
						l-0.257,4.938l0.076,0.053c1.212,0.833,3.093,1.263,5.576,1.263c5.162,0,8.235-3.187,8.235-8.512
						C357.064,83.907,355.571,82.163,352.821,80.386 M330.094,92.326v-8.934c0-5.042-1.176-8.393-6.957-8.393
						c-2.791,0-4.545,0.92-5.704,1.528l-0.095,0.045l0.276,4.447l0.257-0.248c0.748-0.722,2.595-1.941,4.75-1.941
						c2.835,0,3.135,2.604,3.135,3.729v0.584h-0.688c-4.423,0-9.508,0.808-9.508,7.121c0,4.045,2.758,6.158,5.472,6.158
						c2.508,0,3.882-1.383,4.887-2.835c0.01,0.834,0.044,1.685,0.224,2.396l0.034,0.12h4.184l-0.017-0.188
						C330.248,95.229,330.094,93.847,330.094,92.326 M325.756,87.086c0,3.865-1.047,5.669-3.307,5.669
						c-1.547,0-2.569-1.168-2.569-2.973c0-2.619,1.65-3.685,5.67-3.685h0.206V87.086z"/>
					<path fill="#2588B8" d="M101.75,20.644c2.328,2.77,6.382,4.4,8.766,7.176c-1.705-8.203-8.04-14.909-15.534-16.507
						C98.637,14.065,99.427,17.875,101.75,20.644 M11.714,41.445c5.154-11.227,12.859-8.846,16.123-19.548
						c-1.842,3.283-10.251,4.666-14.164,13.077c2.002-4.996,0.997-12.639,4.368-16.771C7.96,25.645,12.251,37.672,11.714,41.445
						 M21.064,68.376c0.923,4.375-1.791,10.679,2.517,16.718c-4.475-5.017-13.954-6.297-17.827-13.933
						C10.589,89.81,23.186,85.97,28.872,90.023C24.195,83.307,28.017,78.84,21.064,68.376 M19.604,80.085
						c-2.783-10.418,2.165-14.016-1.593-24.021c-0.391,5.635-4.148,8.382-1.62,18.68C11.925,66.018,4.997,62.771,3,56.78
						C3.142,73.146,16.288,75.567,19.604,80.085 M39.802,97.565c-3.87-5.353-1.224-8.384-12.103-18.115
						c2.306,3.556-0.073,8.013,7.258,14.972C27.79,90.179,17.886,92,13.114,86.338C21.309,102.023,35.722,95.615,39.802,97.565
						 M92.444,94.422c7.327-6.959,4.956-11.416,7.263-14.972c-10.875,9.731-8.242,12.763-12.111,18.115
						c4.088-1.95,18.493,4.458,26.692-11.228C109.52,92,99.612,90.179,92.444,94.422 M103.816,85.094
						c4.316-6.039,1.602-12.343,2.521-16.718c-6.958,10.464-3.123,14.931-7.808,21.647c5.69-4.054,18.274-0.214,23.11-18.862
						C117.77,78.797,108.287,80.077,103.816,85.094 M86.435,98.304c-4.251-1.134-8.632-1.691-11.892-1.777
						c-4.059-0.104-7.692,0.67-10.845,1.839c-3.144-1.169-6.777-1.942-10.845-1.839c-3.264,0.086-7.64,0.644-11.896,1.777
						c-6.532,1.743-12.202,3.093-17.123,0.602c4.724,4.191,10.234,5.687,18.206,4.826c6.631-0.712,11.982-4.019,18.235-3.984
						c0.078,0,0.159,0.009,0.245,0.009c-6.584,3.333-10.308,8.014-10.308,8.014l3.015,0.404c0,0,3.178-6.373,10.47-8.04
						c7.301,1.667,10.471,8.04,10.471,8.04l3.02-0.404c0,0-3.72-4.681-10.303-8.014c0.077,0,0.155-0.009,0.245-0.009
						c6.245-0.034,11.596,3.272,18.231,3.984c7.967,0.86,13.478-0.635,18.206-4.826C98.637,101.396,92.98,100.047,86.435,98.304
						 M18.452,44.763c-2.692,5.175-6.893,6.361-6.441,17.047c-2.264-9.501-7.675-13.022-7.593-19.095
						c-3.762,15.831,6.279,17.712,8.859,24.342C12.9,57.553,18.963,55.633,18.452,44.763 M22.224,32.532
						c-0.941,1.318-1.606,1.876-4.101,3.94c-3.419,2.813-6.146,6.506-7.297,11.903c0.257-5.802-3.32-14.147-0.94-20.226
						c-9.229,13.037,0.524,20.845,0.876,25.569C13.148,44.632,18.65,44.559,22.224,32.532 M116.572,48.375
						c-1.151-5.396-3.878-9.089-7.288-11.903c-2.504-2.063-3.17-2.622-4.106-3.94c3.578,12.027,9.075,12.1,11.463,21.187
						c0.348-4.725,10.11-12.533,0.872-25.569C119.9,34.228,116.31,42.572,116.572,48.375 M124.405,56.78
						c-2.005,5.991-8.924,9.237-13.4,17.963c2.538-10.298-1.219-13.045-1.61-18.68c-3.767,10.006,1.19,13.604-1.602,24.021
						C111.113,75.567,124.268,73.146,124.405,56.78 M108.944,44.763c-0.511,10.87,5.554,12.79,5.176,22.294
						c2.577-6.63,12.631-8.512,8.868-24.342c0.065,6.073-5.334,9.594-7.597,19.095C115.837,51.124,111.646,49.938,108.944,44.763
						 M25.646,20.644c2.328-2.769,3.118-6.578,6.765-9.331c-7.49,1.598-13.83,8.304-15.53,16.507
						C19.269,25.043,23.323,23.414,25.646,20.644 M99.568,21.897c3.264,10.702,10.957,8.321,16.11,19.548
						c-0.541-3.773,3.758-15.801-6.322-23.242c3.372,4.132,2.375,11.775,4.368,16.771C109.816,26.563,101.407,25.181,99.568,21.897
						 M73.422,27.977c-1.945-0.801-3.994-1.372-6.142-1.679c0,0.456-0.013,0.921-0.026,1.381c1.968,0.292,3.874,0.816,5.665,1.557
						C73.151,28.857,73.328,28.44,73.422,27.977 M71.858,14.732l0.413-0.37l-0.782-0.331l-2.062-0.042l-0.541,0.372l-1.216-0.101
						l-0.004,0.296c0.773,0.052,1.524,0.118,2.113,0.225l1.005-0.094L71.858,14.732z M67.895,59.133
						c0-0.356-0.468-0.695-1.151-1.019l-0.125-0.004c-0.004,0.289-0.029,1.681-0.046,2.362
						C67.413,60.092,67.895,59.679,67.895,59.133 M44.032,32.965c0.052-0.281,0.104-0.504,0.176-0.754
						c-0.253,0.058-0.554,0.09-0.841,0.086L44.032,32.965z M63.746,93.536c23.166,0,42.003-18.845,42.003-42.009
						c0-21.721-16.578-39.647-37.748-41.784c-0.017,0.08-0.034,0.161-0.056,0.238c-0.077,0.406-0.15,0.78-0.21,1.102
						c9.479,0.928,18.012,5.126,24.454,11.45l-4.629,4.636l0.167-0.815l-0.602-0.271l-0.841-0.049l0.18-0.53l-0.562-1.898
						l-1.151-1.267l-3.625-1.911l-0.305,0.33l-0.657,0.194c1.241,1.833,1.915,3.946,1.915,6.088c0,0.283-0.013,0.556-0.021,0.822
						l1.791,2.259l-0.833,0.195l0.554,0.842l-1.589,1.583l-0.632-1.213c-0.309,0.847-0.712,1.633-1.202,2.365
						c0.116,0.107,0.24,0.212,0.356,0.328l-4.874,4.875c-0.301-0.279-0.61-0.55-0.928-0.808c-0.459,0.215-0.945,0.417-1.426,0.605
						c0.137,0.104,0.279,0.209,0.416,0.32l-0.244,0.251l-0.576,0.316l-0.215,0.576l-0.352-0.359l-1.027,0.346l0.275,0.449
						l0.717-0.189l0.459,0.037l0.034-0.253l0.361-0.174l0.103-0.215l0.644-0.176l0.499-0.026c0.099,0.088,0.193,0.178,0.292,0.269
						l-1.941,1.935l-0.142-0.21l-2.019,0.339l-0.447,0.449l-0.451,0.05l1.258-1.2l-0.447-0.226l-1.168,1.573l0.335-0.041
						l-0.021,0.582l0.43,0.164l0.085,0.619l-0.7-0.14l-0.734,0.136l-1.778-0.915c0,0-0.095,4.763-0.151,7.167
						c4.192,1.409,8.641,3.445,8.641,8.791c0,2.346-1.013,4.243-3.006,5.644l0.012,0.004c-0.034,0.022-0.064,0.043-0.099,0.061
						h-0.004c-0.043,0.026-0.09,0.061-0.133,0.091c-1.696,1.12-3.874,1.714-5.768,2.314c-0.012,0-0.056,3.734-0.056,3.734
						c3.006,1.504,6.652,3.667,6.317,9.887c-0.043,1.529-0.64,1.958-1.146,2.096l0,0c-1.761,0.438-3.577,0.722-5.429,0.86
						c-0.013,0.48-0.021,0.936-0.025,1.364c8.087-0.549,15.41-3.968,20.937-9.251l4.879,4.888
						c-7.31,7.019-17.23,11.347-28.147,11.347c-10.858,0-20.735-4.277-28.028-11.234l4.879-4.88
						c5.48,5.171,12.678,8.538,20.641,9.122c-0.009-0.42-0.021-0.875-0.026-1.374c-7.572-0.585-14.431-3.796-19.657-8.719
						l1.301-1.306l1.799,0.215l0.94-1.03l2.496,0.086l0.369-0.858l-0.086-0.37c3.612,2.74,7.967,4.544,12.713,5.033
						c-0.013-0.523-0.017-0.987-0.022-1.366c-5.244-0.584-9.977-2.851-13.662-6.253l4.879-4.876
						c1.186,1.057,2.517,1.958,3.964,2.654c0.107-0.464,0.275-0.897,0.489-1.28c-1.262-0.627-2.431-1.413-3.483-2.337l4.888-4.896
						c0.782,0.627,1.662,1.117,2.624,1.451c-0.008-0.48-0.026-0.987-0.035-1.469c-0.575-0.248-1.116-0.57-1.61-0.954l1.383-1.378
						c-0.485-0.15-0.979-0.304-1.464-0.468l-0.923,0.919c-0.464-0.516-0.863-1.1-1.177-1.731c-0.833-0.374-1.657-0.798-2.414-1.296
						c-3.01-1.972-4.531-4.772-4.531-8.289c0-2.693,0.752-4.731,1.98-6.313l-4.866-4.871c3.5-3.348,8.014-5.656,13.026-6.41
						c-0.009-0.477-0.017-0.936-0.026-1.375c-5.372,0.773-10.217,3.23-13.966,6.822l-0.829-0.823
						c-0.177,0.327-0.4,0.746-0.654,1.271l0.52,0.518c-4.187,4.465-6.79,10.428-6.893,16.999h-6.91
						c0.103-8.469,3.483-16.168,8.92-21.878l2.19,2.195c0.103,0,0.21,0,0.318-0.009c0.387-0.032,0.82-0.152,1.242-0.363
						l-2.783-2.793c1.464-1.422,3.079-2.708,4.806-3.836c0.133-0.461,0.266-0.869,0.334-1.018c0.082-0.167,0.524-0.748,1.062-1.411
						c-2.629,1.447-5.034,3.236-7.173,5.302l-4.874-4.877c6.395-6.228,14.83-10.372,24.201-11.321
						c-0.035-0.167-0.065-0.294-0.065-0.294c-0.06-0.322-0.128-0.679-0.193-1.048c-21.113,2.197-37.618,20.093-37.618,41.771
						C21.742,74.691,40.588,93.536,63.746,93.536 M72.812,64.515V64.48l0.013,0.034C72.82,64.515,72.816,64.515,72.812,64.515
						 M93.144,23.501c6.872,7.198,11.128,16.913,11.24,27.605h-6.902c-0.073-5.296-1.366-10.297-3.603-14.74l0.056-0.123
						l0.485,0.252l0.112-0.366l-1.241-2.162l-1.46-2.023l-1.714-1.43c-0.588-0.735-1.203-1.448-1.851-2.133L93.144,23.501z
						 M84.352,32.351l1.675,0.071l0.387,0.479l-0.198,0.7l2.297,1.437l0.455-0.063l2.951,3.374l1.202-0.42
						c1.86,4.013,2.933,8.48,2.989,13.178h-6.901c-0.03-1.804-0.253-3.561-0.635-5.255l0.309-0.425l0.425-2.162l-0.313-2.328
						l-0.842-2.671l-1.919-2.815l0.464,0.253l0.236-0.243l-1.542-1.045l-0.107,0.344l1.546,2.213l0.876,1.808l0.627,1.793
						l0.193,1.211l0.33,2.025l-0.588,0.047c0,0-0.665-1.243-0.867-1.763l0.305-0.456l-0.588-0.848v-0.839l-0.421-0.531l-0.524,0.063
						c-0.185-0.346-0.382-0.693-0.583-1.031l0.369,0.191l0.099-0.099l-0.198-0.434l0.447-0.256l-0.202-0.251l-0.666,0.251
						l0.24-1.048l-0.391-0.223l-0.352,0.835c-0.756-1.13-1.598-2.201-2.521-3.191L84.352,32.351z M82.974,48.53l1.241-0.672
						l1.263-0.2l0.283-0.616l0.692-0.423l0.279-0.59l0.214-1.018c0.107,0.359,0.198,0.728,0.28,1.091l-0.67,1.999l-0.022,0.67
						l0.971-1.295c0.202,1.184,0.322,2.395,0.344,3.632h-6.051l-0.142-0.524l0.705-0.558l0.142-0.339l0.305-0.228l0.816-0.085
						l0.086-0.37L82.974,48.53z M74.689,43.782l0.613-0.142l-0.021-0.15l-0.619-0.406l0.215-1.306l0.729-0.738
						c0.465,0.524,0.894,1.08,1.285,1.666l-0.258,0.797l-0.679-0.481l-0.51,0.144l0.249,0.475h0.257l-0.279,0.7l-0.202-0.279
						L74.689,43.782z M77.339,66.705l-1.5-0.422l-0.446,0.165l-0.846-0.646l-0.795-0.287c0.391-0.283,0.773-0.571,1.143-0.89
						l1.224,0.869l0.941,0.493l0.464,0.464L77.339,66.705z M76.574,40.078l4.883-4.884c1.142,1.235,2.151,2.596,3.019,4.055
						l-0.61,0.167l0.034,1.093l1.838,1.151c0.442,0.997,0.825,2.025,1.138,3.09l-0.327,0.466l-0.652,0.418l-0.168,1.014
						l-0.455,0.249l-0.374,0.451l-0.382-0.14l-0.674-0.031l0.395-0.53l0.279-1.376l0.455-0.284l-1.318-1.258l-0.992,0.331
						l-0.228,0.928l-0.614,0.677l-0.64-0.533l-0.231-0.571l0.37-0.228l0.202,0.374l0.3-0.105l-0.125-0.626l-0.433-0.022L81.234,44.2
						l-0.279,0.063l-1.52-1.771l-0.516-0.397l0.202-0.21l0.459-0.161l-0.425-0.165c0,0-0.537,0.123-0.597,0.123l0.305,0.379
						l-0.768-0.015C77.631,41.353,77.124,40.692,76.574,40.078 M79.061,66.061l-0.661-0.661l0.511-0.661l0.635-1.297l-0.249-0.365
						l0.421-0.958l-0.043-0.867l-0.257-0.902l-0.61-0.211l-0.219,0.511l-0.352-0.098c0.515-0.825,1.065-1.61,1.443-2.521
						l0.622-0.268l0.335-0.472l0.181,0.197l0.416-0.507l-0.339-0.425l0.313-0.082l0.558,0.228l1.069,0.031l0.64-0.335l1.692-0.457
						l-0.317-0.558l-0.116-0.678l0.902,0.398l0.348-0.201l-0.172-0.704l-1.108,0.42l-1.224-0.253l-0.932-1.894h5.292
						c-0.245,6.073-2.728,11.58-6.67,15.693l-0.727-0.722l0.31-0.971l-0.554-2.13L79.061,66.061z M79.993,79.527l0.644-1.392
						l-0.245-0.619l0.957-0.841v-0.507l-0.815-0.515l0.674-1.342l1.013-1.322l-1.013-1.091h-0.761l-0.476-0.764
						c0.408-0.335,0.807-0.68,1.193-1.05l4.884,4.889C84.219,76.719,82.188,78.255,79.993,79.527 M86.074,73.076l0.546-0.602
						l-0.507-2.671l-0.356-0.137l0.214-0.455l-1.15-0.363l-0.224,0.955l-0.12,1.211l-0.241,0.224l-2.1-2.104
						c4.178-4.366,6.828-10.216,7.061-16.662h6.914c-0.245,8.349-3.663,15.925-9.096,21.54L86.074,73.076z M87.977,74.975
						c5.678-5.866,9.26-13.775,9.496-22.502h6.906c-0.249,10.634-4.595,20.269-11.518,27.381L87.977,74.975z M46.434,68.295
						c-0.503-0.521-0.984-1.062-1.431-1.624l0.21-1.744l-0.73-1.675l-0.176-2.62l-0.815-1.593l0.171-0.992l-0.988-1.891
						l-0.863-0.424l0.352-1.006l-0.357-0.798l0.357-0.906H43.1l0.34-0.55h1.606l0.253,0.472l-0.296,1.641l-0.201,0.284l0.605,1.315
						l-0.396,0.223l-0.274-0.353l-0.116,0.13l0.271,0.785l0.477,0.914l0.219-0.025l0.124-0.816l-0.227-0.3l-0.026-0.558
						l-0.064-1.143l0.335-2.028l-0.322-0.541h1.16c0.223,4.23,1.989,8.057,4.742,10.934L46.434,68.295z M41.868,54.792l-0.657,1.022
						h-1.113l-0.09-0.061c-0.188-1.074-0.305-2.169-0.356-3.281h2.083l-0.494,1.662L41.868,54.792z M44.136,50.059l0.129-1.383
						l0.815-0.469l1.465,0.258l0.218,0.267c-0.128,0.777-0.197,1.567-0.218,2.375h-1.654L44.136,50.059z M51.141,55.217l0.348-0.176
						l0.906,0.682l-0.386,0.313l1.009,0.679l-0.064-0.721l0.536-0.894l0.571,0.598l0.571,0.829l-1.04,0.237l0.477,0.943l0.726-0.386
						l-0.09-0.306l0.545-0.365l0.313-1.506c0.395,0.892,0.936,1.713,1.589,2.431l-4.871,4.869c-2.336-2.443-3.891-5.63-4.282-9.157
						l0.992,1.057l0.945-0.009L51.141,55.217z M46.146,35.076l4.875,4.875c-1.019,1.118-1.89,2.373-2.59,3.731l-0.339-0.025
						l-0.688,0.219l-0.236-0.02l-0.73,0.672l0.928-0.141l0.824-0.211c-0.042,0.102-0.094,0.211-0.146,0.316l-0.722,0.447h-0.344
						l-1.078,0.82l-1.031-0.088l-1.511,2.794l0.304,0.563l-0.815,0.902l-0.125,1.177h-3.088
						C39.746,44.915,42.194,39.289,46.146,35.076 M39.841,71.891l1.546,0.902l0.318,0.215l-1.117,1.125
						c-0.529-0.541-1.027-1.1-1.516-1.683L39.841,71.891z M38.294,52.472c0.022,0.67,0.078,1.332,0.155,1.993l-0.842,0.189
						l-0.18,0.86l-1.757,2.231l0.047,3.076l-1.808,0.609l-0.992,0.009c-0.915-2.843-1.447-5.853-1.542-8.967H38.294z M31.475,61.396
						l-0.4-0.078l-0.382-0.428l-1.941-0.173l0.602,0.816l-1.795-0.344l0.473-0.43l-0.442-0.43l-1.293,0.56l-0.468,0.858l0.185,1.962
						l1.482,3.569l0.722,1.122l0.408,0.153l-1.13-2.142l-0.245-1.084l0.257-0.273l-0.158-0.603l0.673,0.095l1.044,1.572l0.262,0.107
						l-0.03-1.147l0.425,0.245l0.085,0.622l1.104,0.293l0.451-0.327l0.15,0.112L31.5,66.863l0.48,0.594l0.588,0.134l1.276,2.161
						l0.782,0.215l0.236-1.011c1.353,2.23,2.946,4.283,4.763,6.139l-4.884,4.879c-6.991-7.13-11.385-16.809-11.63-27.501h6.906
						C30.096,55.565,30.607,58.558,31.475,61.396 M34.451,23.383l4.883,4.875c-5.682,5.963-9.217,14.001-9.319,22.848h-6.911
						C23.211,40.357,27.523,30.601,34.451,23.383 M84.426,20.867L84,20.194l-0.897-0.451l-0.7,0.537l0.902,0.477l1.004,0.73
						L84.426,20.867z M80.238,40.341l0.025,0.537l1.203-0.36l0.365-0.732l-0.833-1.081l0.447-0.661l1.112,0.799l0.21-0.161
						l-0.227-0.166l-0.254-0.474l0.463-0.267l-0.459-0.586l-1.04,0.53l-0.369,0.634l-0.197,0.573l0.451,0.773l-0.163,0.365
						L80.238,40.341z M30.328,71.308l0.086-0.318l-0.627-1.349l-0.73-0.275L30.328,71.308z M58.553,45.362
						c0,1.164,0.708,1.976,1.989,2.677c0,0-0.008-0.193-0.008-0.513l-0.808-0.805l0.425-0.778l0.348-0.095
						c-0.034-1.352-0.056-2.864-0.065-3.073l-0.056,0.007C59.193,43.432,58.553,44.228,58.553,45.362"/>
					<path fill="#2588B8" d="M66.258,75.274c2.168,1.101,4.17,2.611,4.999,5.489c0.369-4.758-2.293-6.82-4.935-8.212
						C66.327,72.562,66.258,75.274,66.258,75.274"/>
					<path fill="#2588B8" d="M80.659,27.036c0-4.32-3.14-9.107-10.81-10.799c-0.563-0.126-1.43-0.213-2.336-0.269
						c-0.021,0.649-0.056,2.139-0.056,2.139c-0.013,0.466-0.047,2.2-0.056,2.571c0.704,0.062,1.228,0.152,1.473,0.208
						c4.462,1.063,6.051,3.625,6.051,6.149c0,4.098-3.5,5.644-7.804,6.814c-0.472,0.127-0.953,0.247-1.43,0.372
						c-1.306,0.327-2.659,0.64-3.982,0.997c-0.48,0.131-0.944,0.266-1.412,0.41c-4.785,1.452-8.887,3.754-8.887,9.656
						c0,5.84,4.682,8.03,9.26,9.438c-0.034-1.684-0.069-3.375-0.103-5.068c-2.014-0.949-3.444-2.192-3.444-4.297
						c0-2.04,1.306-3.279,3.286-4.177c0.434-0.197,0.906-0.38,1.413-0.547c1.138-0.391,2.414-0.722,3.758-1.044
						c0.464-0.111,0.941-0.225,1.426-0.341C73.448,37.691,80.659,35.675,80.659,27.036"/>
					<path fill="#2588B8" d="M57.522,68.261c0.013,2.359,1.744,3.647,3.483,4.618c-0.004-0.395-0.064-4.044-0.069-4.107
						c0.034-0.734,0.748-1.169,1.306-1.438c0.846-0.396,1.692-0.688,2.771-1.062c0.515-0.172,0.962-0.349,1.456-0.499
						c3.491-1.051,7.528-2.392,7.528-6.636c0-4.259-3.466-5.999-7.249-7.309c-0.026,1.356-0.069,3.333-0.099,4.698
						c1.602,0.635,2.663,1.392,2.663,2.61c0,1.518-1.627,2.397-2.779,2.835c-0.476,0.186-1.207,0.431-1.413,0.489
						c-0.932,0.293-1.933,0.628-2.86,0.972c-0.494,0.185-0.966,0.382-1.417,0.609C59.21,64.884,57.509,66.112,57.522,68.261"/>
					<path fill="#2588B8" d="M59.884,16.64c-2.319,0.664-3.689,1.542-4.204,1.716c-1.508,0.5-3.625,0.584-5.824,2.972
						c-0.386,0.423-1.34,1.624-2.015,2.599c-0.657,0.951-0.683,2.484-1.172,3.311c-0.708,1.188-0.537,1.873-0.537,1.873l0.021,0.035
						c-0.025,0.144-0.167,0.779-0.803,1.497c-0.739,0.81-1.701,1.263-2.847,1.076c0.992,0.502,2.375-0.197,2.375-0.197
						s-0.266,0.756-0.528,1.989c1.13-2.542,2.152-3.471,2.47-3.729c0.489,0.116,1.485,0.069,3.337-0.992
						c2.091-1.202,5.244-3.167,6.128-4.408c0.97-1.338,2.281-2.225,3.71-2.796C59.962,19.709,59.923,18.047,59.884,16.64
						 M50.746,24.919l-1.083,0.234l1.598-2.474l1.512,0.05L50.746,24.919z"/>
					<path fill="#2588B8" d="M64.214,67.968c-0.198,0.069-0.722,0.301-1.061,0.412c-0.348,0.13-0.794,0.301-0.794,0.43
						c0,0.035,0.343,18.302,0.343,18.706c0,3.762,1.916,3.788,1.916,0c0-0.267,0.386-19.806,0.386-19.806
						S64.536,67.852,64.214,67.968"/>
					<path fill="#2588B8" d="M62.229,61.938c0.597-0.207,1.194-0.393,1.743-0.567c0.417-0.125,0.804-0.249,1.165-0.36
						c0.017-1.151,0.348-17.058,0.403-19.95c-1.426,0.356-2.672,0.696-3.698,1.067C61.894,44.297,62.195,60.203,62.229,61.938"/>
					<path fill="#2588B8" d="M63.827,1.029c-5.381,0-3.101,7.982-2.667,10.584c0.017,0.121,0.429,18.041,0.523,22.153
						c0.808-0.221,1.619-0.417,2.414-0.607c0.562-0.14,1.099-0.277,1.619-0.408c0.086-3.958,0.486-21.06,0.502-21.167
						C66.533,8.8,69.355,1.029,63.827,1.029"/>
				</g>
			</g>
		</g>
	</g>
</g>
</svg>
