<?xml version="1.0" encoding="utf-8"?>
<!-- Generator: Adobe Illustrator 14.0.0, SVG Export Plug-In . SVG Version: 6.00 Build 43363)  -->
<!DOCTYPE svg PUBLIC "-//W3C//DTD SVG 1.1//EN" "http://www.w3.org/Graphics/SVG/1.1/DTD/svg11.dtd">
<svg version="1.1" id="Camada_1" xmlns="http://www.w3.org/2000/svg" xmlns:xlink="http://www.w3.org/1999/xlink" x="0px" y="0px"
	 width="507.194px" height="106.282px" viewBox="0 0 507.194 106.282" enable-background="new 0 0 507.194 106.282"
	 xml:space="preserve">
<g>
	<g>
		<rect x="279.975" y="6.436" fill="#2398D0" width="1.516" height="94.576"/>
		<g>
			<path fill="#2398D0" d="M311.293,75.534V31.911h12.752c8.748,0,13.125,3.582,13.125,10.75c0,4.918-2.418,8.271-7.252,10.061
				v0.125c5.5,1.211,8.25,4.687,8.25,10.437c0,3.918-1.314,6.982-3.938,9.189c-2.418,2.041-5.627,3.061-9.627,3.061H311.293z
				 M319.045,37.786v12.373h4.123c1.875,0,3.385-0.613,4.529-1.84c1.148-1.23,1.719-2.783,1.719-4.658s-0.592-3.324-1.779-4.344
				c-1.186-1.02-2.738-1.531-4.656-1.531H319.045z M319.045,56.034v13.377h4.41c2.07,0,3.697-0.594,4.879-1.779
				c1.182-1.189,1.77-2.824,1.77-4.908c0-4.459-2.297-6.689-6.896-6.689H319.045z"/>
			<rect x="346.105" y="31.911" fill="#2398D0" width="8.061" height="43.625"/>
			<path fill="#2398D0" d="M363.041,75.536V31.911h13.627c8.66,0,12.998,3.834,12.998,11.5c0,2.666-0.75,4.947-2.246,6.842
				c-1.506,1.898-3.568,3.031-6.191,3.406v0.189c2.168,0.334,3.771,2.021,4.814,5.06l5.686,16.627h-8.475l-4.299-14.188
				c-0.916-3.041-2.928-4.563-6.043-4.563h-1.809v18.75H363.041z M371.104,50.911h3.23c4.719,0,7.084-2.209,7.084-6.627
				c0-2.332-0.623-3.998-1.865-4.998c-1.078-0.834-2.816-1.25-5.219-1.25h-3.23V50.911z"/>
			<polygon fill="#2398D0" points="398.166,75.536 398.166,31.911 421.102,31.911 421.102,38.224 406.227,38.224 406.227,49.909 
				420.289,49.909 420.289,56.223 406.227,56.223 406.227,69.221 421.729,69.221 421.729,75.536 			"/>
			<polygon fill="#2398D0" points="463.914,75.536 463.914,39.161 452.852,75.536 447.164,75.536 436.605,39.161 436.605,75.536 
				429.352,75.536 429.352,31.911 441.199,31.911 450.266,64.481 450.404,64.469 459.717,31.911 471.162,31.911 471.162,75.536 			
				"/>
			<polygon fill="#2398D0" points="480.352,75.536 480.352,31.911 503.287,31.911 503.287,38.224 488.414,38.224 488.414,49.909 
				502.475,49.909 502.475,56.223 488.414,56.223 488.414,69.221 503.91,69.221 503.91,75.536 			"/>
		</g>
		<g>
			<path fill="#2398D0" d="M192.726,98.913c0-0.628-0.234-0.856-0.562-0.856c-0.437,0-0.606,0.354-0.606,0.763v3.449h-1.474v-3.355
				c0-0.689-0.27-0.856-0.514-0.856c-0.484,0-0.652,0.471-0.652,1.159v3.053h-1.474v-4.309c0-0.521-0.009-0.856-0.038-1.139h1.343
				c0.021,0.243,0.037,0.545,0.037,0.91h0.02c0.224-0.597,0.597-0.995,1.371-0.995c0.701,0,1.053,0.367,1.261,0.91
				c0.213-0.512,0.559-0.91,1.333-0.91c1.073,0,1.427,0.88,1.427,1.968v3.564h-1.473"/>
			<path fill="#2398D0" d="M199.367,99.98h-2.864c0,0.648,0.373,1.245,1.204,1.245c0.504,0,1.006-0.209,1.371-0.431l0.028,1.246
				c-0.475,0.199-1.034,0.313-1.539,0.313c-1.707,0-2.463-1.159-2.463-2.824c0-1.464,0.765-2.792,2.155-2.792
				c0.438,0,2.108,0,2.108,2.846 M198.024,99.081c0-0.69-0.159-1.339-0.765-1.339c-0.756,0-0.756,1.044-0.756,1.339H198.024z"/>
			<path fill="#2398D0" d="M200.236,97.959c0-0.521-0.011-0.854-0.037-1.138h1.344c0.007,0.323,0.027,0.658,0.036,0.983h0.02
				c0.298-0.586,0.504-1.068,1.353-1.068h0.214v1.527c-0.159-0.042-0.289-0.061-0.494-0.061c-0.859,0-0.962,0.836-0.962,1.629v2.438
				h-1.473"/>
			<path fill="#2398D0" d="M203.911,94.426h1.475v1.465h-1.475 M203.911,96.821h1.475v5.451h-1.475V96.821z"/>
			<path fill="#2398D0" d="M209.892,102.125c-0.429,0.126-0.867,0.23-1.335,0.23c-1.875,0-2.295-1.758-2.295-2.752
				c0-1.673,0.859-2.866,2.407-2.866c0.486,0,0.744,0.138,1.176,0.263l-0.074,1.244c-0.272-0.116-0.553-0.229-0.86-0.229
				c-1.119,0-1.119,1.378-1.119,1.589c0,1.151,0.636,1.517,1.195,1.517c0.308,0,0.586-0.125,0.858-0.241"/>
			<path fill="#2398D0" d="M210.937,97.082c0.382-0.135,1.036-0.344,1.567-0.344c1.707,0,2.098,0.797,2.098,2.009v1.986
				c0,0.806,0.009,1.172,0.038,1.536h-1.343l-0.036-0.751h-0.019c-0.065,0.333-0.636,0.836-1.335,0.836
				c-0.902,0-1.5-0.657-1.5-1.653c0-1.817,1.895-1.828,2.407-1.828h0.448c0-1.049-0.689-1.049-0.905-1.049
				c-0.374,0-0.774,0.095-1.351,0.481 M213.26,99.646c-0.587,0-1.513,0.041-1.513,0.951c0,0.709,0.516,0.709,0.637,0.709
				c0.128,0,0.876-0.02,0.876-1.346V99.646z"/>
			<path fill="#2398D0" d="M218.503,98.191c-0.392-0.177-0.758-0.291-1.186-0.291c-0.383,0-0.551,0.208-0.551,0.396
				c0,0.335,0.217,0.451,1.018,0.784c0.505,0.209,1.018,0.566,1.018,1.59c0,1.213-0.813,1.685-1.792,1.685
				c-0.429,0-1.082-0.054-1.595-0.261l0.036-1.278c0.356,0.241,0.804,0.379,1.215,0.379c0.691,0,0.737-0.273,0.737-0.515
				c0-0.24-0.382-0.343-1.018-0.639c-0.514-0.241-1.017-0.699-1.017-1.671c0-0.587,0.374-1.634,1.82-1.634
				c0.606,0,1.109,0.125,1.353,0.22"/>
			<line fill="#2398D0" x1="249.887" y1="91.999" x2="171.411" y2="91.999"/>
			<rect x="171.413" y="91.657" fill="#2398D0" width="78.475" height="0.683"/>
			<path fill="#2398D0" d="M161.122,71.137c0.714,0.819,1.959,1.301,2.691,2.118c-0.523-2.422-2.469-4.398-4.766-4.868
				C160.166,69.199,160.407,70.322,161.122,71.137 M133.486,77.276c1.583-3.313,3.948-2.612,4.946-5.767
				c-0.563,0.968-3.145,1.375-4.345,3.854c0.612-1.473,0.306-3.728,1.34-4.945C132.333,72.612,133.653,76.162,133.486,77.276
				 M136.354,85.219c0.283,1.289-0.55,3.151,0.775,4.929c-1.374-1.48-4.285-1.856-5.474-4.108c1.486,5.503,5.351,4.371,7.097,5.564
				C137.315,89.625,138.49,88.307,136.354,85.219 M135.908,88.673c-0.855-3.074,0.664-4.137-0.491-7.086
				c-0.121,1.66-1.271,2.471-0.495,5.509c-1.373-2.573-3.497-3.533-4.111-5.298C130.853,86.628,134.889,87.341,135.908,88.673
				 M142.106,93.83c-1.188-1.581-0.375-2.474-3.714-5.344c0.709,1.05-0.022,2.365,2.23,4.417c-2.204-1.252-5.245-0.717-6.707-2.386
				C136.43,95.144,140.855,93.254,142.106,93.83 M158.264,92.903c2.25-2.052,1.521-3.367,2.229-4.417
				c-3.339,2.87-2.528,3.763-3.717,5.344c1.255-0.575,5.678,1.314,8.194-3.313C163.506,92.186,160.467,91.651,158.264,92.903
				 M161.754,90.148c1.327-1.777,0.493-3.64,0.777-4.929c-2.135,3.088-0.962,4.405-2.399,6.385c1.748-1.193,5.613-0.062,7.097-5.564
				C166.04,88.292,163.131,88.667,161.754,90.148 M156.422,94.048c-1.305-0.335-2.651-0.502-3.65-0.525
				c-1.25-0.029-2.363,0.198-3.328,0.543c-0.966-0.345-2.083-0.572-3.332-0.543c-1,0.023-2.345,0.19-3.649,0.525
				c-2.009,0.515-3.745,0.911-5.255,0.176c1.447,1.236,3.143,1.68,5.585,1.424c2.037-0.209,3.678-1.188,5.596-1.175
				c0.027,0,0.05,0.001,0.075,0.003c-2.022,0.979-4.436,2.364-4.436,2.364l0.926,0.119c0,0,2.248-1.882,4.488-2.371
				c2.238,0.489,1.941,2.371,1.941,2.371l0.924-0.119c0,0,0.134-1.385-1.888-2.364c0.023-0.002,0.048-0.003,0.074-0.003
				c1.918-0.013,3.562,0.966,5.597,1.175c2.446,0.256,4.136-0.188,5.587-1.424C160.166,94.959,158.429,94.563,156.422,94.048
				 M135.554,78.251c-0.828,1.527-2.114,1.877-1.979,5.029c-0.693-2.799-2.354-3.842-2.331-5.631
				c-1.155,4.669,1.929,5.225,2.72,7.18C133.849,82.024,135.712,81.459,135.554,78.251 M136.71,74.645
				c-0.287,0.389-0.489,0.555-1.257,1.163c-1.049,0.829-1.887,1.921-2.24,3.51c0.079-1.71-1.021-4.17-0.289-5.967
				c-2.835,3.846,0.162,6.151,0.267,7.542C133.925,78.215,135.615,78.192,136.71,74.645 M165.672,79.318
				c-0.353-1.589-1.192-2.681-2.239-3.51c-0.769-0.608-0.971-0.774-1.26-1.163c1.096,3.547,2.787,3.57,3.518,6.248
				c0.107-1.391,3.104-3.696,0.268-7.542C166.691,75.148,165.593,77.608,165.672,79.318 M168.076,81.798
				c-0.617,1.765-2.741,2.725-4.113,5.298c0.778-3.038-0.374-3.849-0.496-5.509c-1.156,2.949,0.365,4.012-0.49,7.086
				C163.997,87.341,168.031,86.628,168.076,81.798 M163.328,78.251c-0.156,3.208,1.708,3.772,1.592,6.578
				c0.793-1.955,3.875-2.511,2.719-7.18c0.022,1.789-1.637,2.832-2.33,5.631C165.444,80.128,164.16,79.779,163.328,78.251
				 M137.763,71.137c0.713-0.815,0.956-1.938,2.076-2.75c-2.298,0.47-4.243,2.446-4.766,4.868
				C135.805,72.438,137.049,71.957,137.763,71.137 M160.451,71.509c1.001,3.154,3.366,2.453,4.947,5.767
				c-0.166-1.114,1.153-4.664-1.943-6.857c1.036,1.218,0.73,3.473,1.341,4.945C163.597,72.884,161.015,72.477,160.451,71.509
				 M152.425,73.301c-0.593-0.235-1.225-0.403-1.883-0.492c-0.004,0.132-0.005,0.269-0.009,0.403
				c0.606,0.087,1.188,0.24,1.738,0.462C152.345,73.56,152.397,73.439,152.425,73.301 M151.945,69.395l0.128-0.11l-0.239-0.097
				l-0.634-0.013l-0.164,0.109l-0.374-0.027l-0.004,0.086c0.236,0.016,0.468,0.035,0.652,0.066l0.308-0.027L151.945,69.395z
				 M150.729,82.493c0-0.104-0.143-0.204-0.354-0.3h-0.036c-0.003,0.082-0.012,0.494-0.015,0.695
				C150.584,82.777,150.729,82.654,150.729,82.493 M143.406,74.772c0.013-0.081,0.032-0.149,0.054-0.222
				c-0.079,0.018-0.168,0.025-0.257,0.022L143.406,74.772z M149.455,92.637c7.111,0,12.893-5.555,12.893-12.387
				c0-6.411-5.086-11.696-11.585-12.327c-0.006,0.021-0.012,0.045-0.014,0.07c-0.028,0.119-0.051,0.229-0.07,0.325
				c2.911,0.273,5.53,1.512,7.509,3.379l-1.424,1.366l0.055-0.242l-0.187-0.079l-0.255-0.013l0.055-0.158l-0.174-0.561l-0.354-0.372
				l-1.112-0.565l-0.095,0.101l-0.203,0.055c0.382,0.54,0.589,1.165,0.589,1.797c0,0.081-0.001,0.162-0.007,0.244l0.552,0.664
				l-0.258,0.058l0.172,0.246l-0.488,0.469l-0.194-0.358c-0.093,0.251-0.217,0.48-0.369,0.696c0.037,0.036,0.073,0.067,0.108,0.1
				l-1.496,1.437c-0.091-0.081-0.185-0.16-0.282-0.238c-0.144,0.063-0.291,0.124-0.439,0.178c0.042,0.031,0.083,0.062,0.127,0.096
				l-0.077,0.073l-0.175,0.096l-0.065,0.169l-0.109-0.106l-0.315,0.101l0.087,0.134l0.218-0.057l0.142,0.011l0.012-0.074
				l0.108-0.052l0.033-0.063l0.197-0.056l0.154-0.004c0.028,0.026,0.061,0.052,0.089,0.076l-0.594,0.573l-0.042-0.062l-0.623,0.099
				l-0.137,0.137l-0.138,0.012l0.386-0.354l-0.138-0.066l-0.359,0.461l0.105-0.011l-0.007,0.173l0.133,0.047l0.026,0.185
				l-0.215-0.043l-0.226,0.039l-0.544-0.269c0,0-0.031,1.406-0.047,2.112c1.29,0.417,2.654,1.016,2.654,2.596
				c0,0.69-0.311,1.251-0.925,1.666l0.007,0.001c-0.013,0.006-0.021,0.01-0.03,0.017l-0.002-0.001
				c-0.014,0.008-0.028,0.018-0.043,0.027c-0.518,0.331-1.188,0.508-1.768,0.681c-0.003,0-0.017,1.104-0.017,1.104
				c0.922,0.442,2.042,1.082,1.938,2.917c-0.01,0.452-0.195,0.576-0.351,0.617c-0.54,0.128-1.097,0.212-1.667,0.252
				c-0.002,0.143-0.006,0.28-0.007,0.406c2.483-0.166,4.73-1.174,6.427-2.729l1.496,1.438c-2.243,2.076-5.289,3.351-8.64,3.351
				c-3.331,0-6.363-1.264-8.604-3.314l1.499-1.44c1.679,1.524,3.892,2.519,6.337,2.691c-0.002-0.125-0.006-0.262-0.007-0.403
				c-2.326-0.176-4.43-1.121-6.034-2.574l0.399-0.384l0.548,0.061l0.293-0.303l0.765,0.025l0.115-0.254l-0.027-0.106
				c1.108,0.809,2.446,1.338,3.902,1.483c-0.003-0.156-0.006-0.292-0.008-0.402c-1.606-0.174-3.063-0.841-4.192-1.844l1.499-1.439
				c0.363,0.31,0.771,0.576,1.214,0.783c0.035-0.14,0.084-0.266,0.15-0.38c-0.387-0.186-0.747-0.415-1.069-0.69l1.505-1.441
				c0.237,0.183,0.508,0.329,0.8,0.43c-0.003-0.143-0.004-0.294-0.007-0.437c-0.181-0.072-0.345-0.167-0.499-0.28l0.424-0.407
				c-0.149-0.043-0.296-0.088-0.448-0.137l-0.283,0.271c-0.144-0.153-0.264-0.325-0.358-0.514c-0.259-0.109-0.509-0.234-0.743-0.379
				c-0.924-0.584-1.391-1.406-1.391-2.447c0-0.794,0.232-1.394,0.606-1.861l-1.495-1.434c1.077-0.99,2.462-1.673,4-1.896
				c-0.001-0.139-0.004-0.273-0.008-0.404c-1.651,0.229-3.135,0.954-4.287,2.014l-0.253-0.243c-0.057,0.095-0.123,0.222-0.201,0.375
				l0.16,0.154c-1.287,1.315-2.084,3.074-2.12,5.011h-2.12c0.034-2.499,1.069-4.766,2.74-6.451l0.674,0.646
				c0.029,0,0.061,0,0.095-0.003c0.118-0.008,0.251-0.044,0.381-0.105l-0.855-0.824c0.453-0.42,0.943-0.799,1.473-1.131
				c0.043-0.139,0.082-0.259,0.105-0.302c0.026-0.05,0.16-0.22,0.323-0.42c-0.804,0.432-1.543,0.959-2.199,1.566l-1.496-1.438
				c1.961-1.839,4.552-3.059,7.428-3.339l-0.017-0.087c-0.02-0.096-0.042-0.198-0.063-0.311
				c-6.479,0.648-11.546,5.929-11.546,12.325C136.563,87.083,142.346,92.637,149.455,92.637 M152.238,84.081l-0.001-0.011
				l0.004,0.01C152.239,84.08,152.239,84.081,152.238,84.081 M158.483,71.983c2.107,2.124,3.413,4.988,3.448,8.14h-2.12
				c-0.021-1.559-0.417-3.035-1.107-4.346l0.021-0.037l0.146,0.074l0.035-0.106l-0.38-0.639l-0.448-0.598l-0.526-0.422
				c-0.18-0.216-0.37-0.427-0.566-0.629L158.483,71.983z M155.783,74.592l0.51,0.021l0.12,0.14l-0.06,0.207l0.706,0.425l0.14-0.02
				l0.903,0.997l0.368-0.127c0.576,1.186,0.904,2.5,0.921,3.887h-2.119c-0.009-0.53-0.079-1.048-0.194-1.547l0.095-0.125l0.132-0.64
				l-0.101-0.686l-0.256-0.789l-0.591-0.831l0.144,0.074l0.072-0.07l-0.474-0.309l-0.031,0.103l0.474,0.65l0.268,0.534l0.192,0.53
				l0.061,0.354l0.099,0.601l-0.175,0.014c0,0-0.207-0.367-0.272-0.521l0.096-0.135l-0.179-0.249v-0.248l-0.129-0.157l-0.162,0.02
				c-0.056-0.101-0.118-0.206-0.179-0.304l0.115,0.056l0.029-0.027l-0.06-0.129l0.138-0.075l-0.063-0.075l-0.205,0.075l0.075-0.308
				l-0.12-0.069l-0.109,0.247c-0.231-0.334-0.49-0.647-0.773-0.941L155.783,74.592z M155.358,79.365l0.381-0.202l0.386-0.056
				l0.088-0.182l0.216-0.127l0.082-0.171l0.068-0.301c0.03,0.106,0.057,0.213,0.083,0.318l-0.204,0.592l-0.01,0.199l0.3-0.382
				c0.062,0.347,0.099,0.705,0.104,1.068h-1.855l-0.044-0.152l0.214-0.167l0.043-0.103l0.096-0.063l0.25-0.025l0.026-0.107
				L155.358,79.365z M152.813,77.964l0.191-0.041l-0.008-0.044l-0.189-0.124l0.064-0.384l0.228-0.214
				c0.142,0.151,0.274,0.316,0.395,0.488l-0.081,0.235l-0.208-0.141l-0.155,0.041l0.075,0.142h0.08l-0.087,0.205l-0.06-0.082
				L152.813,77.964z M153.626,84.726l-0.458-0.127l-0.138,0.051l-0.258-0.19l-0.243-0.085c0.12-0.083,0.239-0.169,0.349-0.263
				l0.377,0.255l0.288,0.147l0.145,0.138L153.626,84.726z M153.394,76.871l1.498-1.441c0.351,0.366,0.662,0.768,0.929,1.197
				l-0.188,0.05l0.01,0.32l0.561,0.341c0.139,0.294,0.256,0.598,0.35,0.911l-0.095,0.139l-0.204,0.124l-0.052,0.299l-0.136,0.071
				l-0.117,0.134l-0.117-0.041l-0.208-0.007l0.121-0.159l0.086-0.405l0.137-0.084l-0.405-0.374l-0.301,0.102l-0.069,0.272
				l-0.192,0.201l-0.195-0.159l-0.071-0.168l0.114-0.064l0.06,0.109l0.092-0.033l-0.038-0.183l-0.133-0.008l-0.009,0.072
				l-0.086,0.018l-0.465-0.522l-0.157-0.116l0.061-0.061l0.14-0.05l-0.127-0.047c0,0-0.167,0.037-0.184,0.037l0.091,0.11
				l-0.237-0.004C153.719,77.248,153.565,77.052,153.394,76.871 M154.158,84.537l-0.205-0.196l0.156-0.193l0.196-0.383l-0.076-0.11
				l0.129-0.281l-0.012-0.255l-0.08-0.266l-0.186-0.063l-0.068,0.148l-0.11-0.027c0.16-0.245,0.329-0.477,0.445-0.744l0.188-0.079
				l0.109-0.138l0.052,0.058l0.128-0.148l-0.102-0.128l0.093-0.022l0.174,0.067l0.328,0.004l0.196-0.097l0.517-0.13l-0.097-0.166
				l-0.034-0.2l0.278,0.115l0.105-0.057l-0.052-0.207l-0.342,0.122l-0.375-0.073l-0.283-0.561h1.618
				c-0.07,1.792-0.835,3.417-2.042,4.631l-0.224-0.214l0.095-0.287l-0.173-0.629L154.158,84.537z M154.445,88.508l0.199-0.412
				l-0.078-0.184l0.294-0.245v-0.15l-0.25-0.149l0.206-0.396l0.311-0.39l-0.311-0.323h-0.231l-0.145-0.226
				c0.124-0.098,0.246-0.199,0.366-0.306l1.498,1.437C155.742,87.679,155.119,88.131,154.445,88.508 M156.311,86.606l0.164-0.179
				l-0.155-0.788l-0.109-0.039l0.067-0.133l-0.354-0.106l-0.07,0.278l-0.034,0.356l-0.075,0.069l-0.647-0.624
				c1.286-1.287,2.099-3.011,2.169-4.914h2.122c-0.073,2.466-1.123,4.7-2.791,6.354L156.311,86.606z M156.894,87.165
				c1.744-1.73,2.841-4.063,2.915-6.638h2.119c-0.074,3.136-1.41,5.979-3.536,8.078L156.894,87.165z M144.143,85.194
				c-0.154-0.153-0.302-0.313-0.44-0.477l0.065-0.515l-0.224-0.495l-0.053-0.774l-0.252-0.466l0.055-0.294l-0.305-0.559
				l-0.264-0.126l0.108-0.297l-0.111-0.235l0.11-0.268h0.29l0.102-0.162h0.496l0.076,0.141l-0.093,0.484l-0.059,0.08l0.187,0.392
				l-0.124,0.063l-0.086-0.102l-0.034,0.038l0.084,0.229l0.144,0.271l0.07-0.007l0.039-0.242l-0.07-0.087l-0.009-0.164l-0.021-0.339
				l0.105-0.597l-0.1-0.161h0.356c0.069,1.249,0.612,2.376,1.456,3.229L144.143,85.194z M142.741,81.213l-0.199,0.299h-0.343
				l-0.027-0.017c-0.061-0.316-0.097-0.64-0.108-0.969h0.637l-0.153,0.491L142.741,81.213z M143.438,79.813l0.041-0.402l0.248-0.14
				l0.45,0.073l0.068,0.079c-0.039,0.23-0.06,0.462-0.068,0.699h-0.508L143.438,79.813z M145.588,81.335l0.106-0.05l0.277,0.2
				l-0.12,0.095l0.311,0.199l-0.019-0.213l0.165-0.266l0.175,0.178l0.177,0.244l-0.32,0.068l0.145,0.28l0.225-0.113l-0.03-0.089
				l0.167-0.109l0.1-0.443c0.12,0.263,0.285,0.504,0.484,0.715l-1.496,1.439c-0.715-0.722-1.193-1.662-1.313-2.705l0.308,0.314
				l0.288-0.005L145.588,81.335z M144.054,75.396l1.497,1.438c-0.313,0.331-0.581,0.7-0.795,1.101l-0.104-0.006l-0.21,0.062
				l-0.072-0.004l-0.227,0.199l0.283-0.044l0.257-0.063c-0.017,0.031-0.031,0.063-0.045,0.096l-0.223,0.133h-0.106l-0.33,0.239
				l-0.316-0.025l-0.46,0.823l0.092,0.166l-0.253,0.267l-0.039,0.346h-0.942C142.09,78.299,142.843,76.64,144.054,75.396
				 M142.118,86.255l0.477,0.267l0.096,0.063l-0.345,0.334c-0.162-0.161-0.314-0.328-0.465-0.496L142.118,86.255z M141.644,80.527
				c0.007,0.196,0.025,0.393,0.05,0.588l-0.26,0.055l-0.054,0.255l-0.542,0.661l0.014,0.907l-0.554,0.175l-0.303,0.003
				c-0.281-0.836-0.445-1.724-0.473-2.644H141.644z M139.554,83.16l-0.126-0.024l-0.121-0.125l-0.591-0.053l0.184,0.243
				l-0.552-0.101l0.146-0.126l-0.135-0.13l-0.398,0.167l-0.141,0.254l0.053,0.576l0.458,1.056l0.221,0.33l0.125,0.045l-0.347-0.631
				l-0.078-0.32l0.078-0.081l-0.045-0.176l0.205,0.026l0.32,0.462l0.08,0.033l-0.01-0.339l0.132,0.073l0.027,0.186l0.336,0.085
				l0.142-0.099l0.047,0.033l-0.005,0.247l0.148,0.175l0.181,0.04l0.392,0.639l0.237,0.063l0.074-0.298
				c0.415,0.656,0.905,1.264,1.462,1.809l-1.5,1.442c-2.146-2.104-3.496-4.961-3.572-8.115h2.121
				C139.13,81.438,139.286,82.323,139.554,83.16 M140.465,71.947l1.498,1.438c-1.746,1.759-2.827,4.132-2.862,6.737h-2.12
				C137.019,76.955,138.337,74.077,140.465,71.947 M155.804,71.203l-0.129-0.195l-0.276-0.135l-0.217,0.158l0.276,0.142l0.31,0.214
				L155.804,71.203z M154.518,76.951l0.01,0.157l0.367-0.106l0.111-0.217l-0.252-0.318l0.135-0.192l0.343,0.234l0.062-0.05
				l-0.066-0.048l-0.079-0.142l0.14-0.078l-0.138-0.171l-0.322,0.154l-0.111,0.188l-0.064,0.168l0.143,0.229l-0.051,0.106
				L154.518,76.951z M139.2,86.082l0.025-0.093l-0.19-0.395l-0.226-0.082L139.2,86.082z M147.861,78.431
				c0,0.343,0.217,0.581,0.611,0.788c0,0-0.001-0.057-0.003-0.151l-0.249-0.236l0.132-0.231l0.106-0.026
				c-0.007-0.398-0.016-0.844-0.019-0.907l-0.018,0.002C148.062,77.861,147.861,78.095,147.861,78.431"/>
			<path fill="#2398D0" d="M150.229,87.256c0.664,0.322,1.278,0.769,1.534,1.615c0.112-1.402-0.707-2.011-1.516-2.421
				C150.249,86.454,150.229,87.256,150.229,87.256"/>
			<path fill="#2398D0" d="M154.648,73.026c0-1.273-0.962-2.688-3.319-3.187c-0.172-0.037-0.44-0.064-0.718-0.079
				c-0.006,0.192-0.014,0.63-0.014,0.63c-0.004,0.139-0.017,0.649-0.02,0.76c0.216,0.018,0.378,0.045,0.452,0.06
				c1.37,0.314,1.86,1.069,1.86,1.816c0,1.21-1.075,1.664-2.398,2.01c-0.144,0.037-0.292,0.073-0.438,0.109
				c-0.402,0.097-0.816,0.188-1.223,0.292c-0.146,0.038-0.291,0.08-0.435,0.122c-1.467,0.43-2.726,1.107-2.726,2.849
				c0,1.723,1.439,2.366,2.841,2.783c-0.009-0.495-0.019-0.996-0.029-1.495c-0.62-0.28-1.057-0.646-1.057-1.266
				c0-0.604,0.396-0.968,1.006-1.233c0.135-0.058,0.28-0.111,0.433-0.162c0.351-0.114,0.742-0.209,1.153-0.306
				c0.144-0.032,0.292-0.07,0.442-0.102C152.433,76.166,154.648,75.574,154.648,73.026"/>
			<path fill="#2398D0" d="M147.548,85.184c0.004,0.697,0.535,1.077,1.069,1.364c-0.001-0.119-0.022-1.196-0.022-1.213
				c0.011-0.218,0.227-0.345,0.402-0.425c0.258-0.117,0.517-0.2,0.848-0.312c0.159-0.054,0.295-0.104,0.447-0.147
				c1.072-0.311,2.313-0.707,2.313-1.959c0-1.258-1.063-1.771-2.225-2.156c-0.009,0.401-0.022,0.983-0.031,1.387
				c0.492,0.188,0.817,0.411,0.817,0.77c0,0.448-0.499,0.706-0.855,0.838c-0.146,0.056-0.37,0.126-0.43,0.144
				c-0.288,0.086-0.595,0.186-0.88,0.285c-0.15,0.056-0.298,0.114-0.433,0.181C148.065,84.189,147.544,84.551,147.548,85.184"/>
			<path fill="#2398D0" d="M148.274,69.96c-0.715,0.194-1.135,0.453-1.292,0.505c-0.462,0.146-1.116,0.172-1.788,0.875
				c-0.118,0.128-0.412,0.478-0.617,0.768c-0.203,0.281-0.213,0.731-0.362,0.978c-0.216,0.35-0.164,0.549-0.164,0.549l0.007,0.014
				c-0.008,0.045-0.05,0.228-0.25,0.439c-0.223,0.241-0.52,0.374-0.872,0.319c0.305,0.146,0.729-0.06,0.729-0.06
				s-0.081,0.222-0.161,0.586c0.344-0.75,0.658-1.023,0.758-1.097c0.148,0.03,0.453,0.017,1.023-0.297
				c0.643-0.352,1.609-0.934,1.883-1.299c0.294-0.394,0.702-0.656,1.141-0.825C148.296,70.864,148.282,70.374,148.274,69.96
				 M145.561,72.295l-0.333,0.068l0.397-0.626l0.465,0.017L145.561,72.295z"/>
			<path fill="#2398D0" d="M149.601,85.098c-0.062,0.022-0.222,0.088-0.325,0.121c-0.107,0.037-0.244,0.089-0.244,0.127
				c0,0.009,0.101,5.401,0.101,5.519c0,1.109,0.589,1.116,0.589,0c0-0.078,0.119-5.842,0.119-5.842S149.7,85.065,149.601,85.098"/>
			<path fill="#2398D0" d="M148.992,83.32c0.185-0.062,0.366-0.116,0.536-0.165c0.127-0.039,0.247-0.073,0.354-0.106
				c0.008-0.341,0.108-5.035,0.127-5.886c-0.44,0.104-0.82,0.204-1.135,0.314C148.888,78.119,148.981,82.806,148.992,83.32"/>
			<path fill="#2398D0" d="M149.481,65.351c-1.651,0-0.949,2.355-0.819,3.123c0.005,0.036,0.134,5.321,0.16,6.536
				c0.25-0.065,0.5-0.124,0.741-0.183c0.172-0.04,0.341-0.081,0.499-0.119c0.027-1.167,0.147-6.209,0.151-6.244
				C150.313,67.642,151.179,65.351,149.481,65.351"/>
			<path fill="#2398D0" d="M173.717,68.253c1.574,0,3.017,1.316,3.017,4.372s-1.443,4.368-3.017,4.368
				c-1.575,0-3.019-1.313-3.019-4.368S172.142,68.253,173.717,68.253 M173.717,75.803c0.88,0,1.585-0.842,1.585-3.178
				c0-2.337-0.705-3.177-1.585-3.177c-0.879,0-1.587,0.84-1.587,3.177C172.13,74.961,172.838,75.803,173.717,75.803"/>
			<path fill="#2398D0" d="M177.67,71.638c0-0.39-0.011-0.755-0.044-1.035h1.218c0.01,0.381,0.043,0.77,0.043,1.146h0.021
				c0.165-0.487,0.586-1.243,1.424-1.243c0.086,0,0.151,0.025,0.225,0.037v1.414c-0.118-0.038-0.237-0.063-0.378-0.063
				c-0.553,0-1.162,0.376-1.162,1.545v3.435h-1.347"/>
			<path fill="#2398D0" d="M181.248,77.847c0.314,0.195,0.946,0.535,1.651,0.535c1.272,0,1.476-0.985,1.476-1.972v-0.597h-0.02
				c-0.219,0.486-0.598,1.06-1.478,1.06c-0.784,0-1.954-0.585-1.954-3.117c0-1.728,0.555-3.25,2.018-3.25
				c0.815,0,1.194,0.523,1.476,1.071h0.045c0-0.329,0.033-0.646,0.044-0.975h1.215c-0.021,0.329-0.045,0.658-0.045,0.989v4.622
				c0,1.961-0.53,3.362-2.581,3.362c-0.891,0-1.596-0.255-1.922-0.389 M183.192,75.766c0.847,0,1.183-0.683,1.183-2.104
				c0-1.315-0.445-2.024-1.085-2.012c-0.707,0.015-0.979,0.745-0.979,2.021C182.312,75.144,182.736,75.766,183.192,75.766"/>
			<path fill="#2398D0" d="M187.014,70.969c0.379-0.193,0.912-0.464,1.771-0.464c1.736,0,2.138,0.951,2.138,2.521v2.739
				c0,0.449,0.042,0.864,0.073,1.107h-1.215c-0.064-0.243-0.074-0.548-0.074-0.853h-0.023c-0.334,0.512-0.76,0.948-1.563,0.948
				c-0.867,0-1.671-0.668-1.671-1.837c0-1.704,1.239-2.13,2.942-2.13h0.272v-0.231c0-0.62-0.272-1.193-1.043-1.193
				c-0.672,0-1.27,0.366-1.53,0.61 M189.664,73.805h-0.119c-1.151,0-1.837,0.27-1.837,1.182c0,0.571,0.337,0.962,0.857,0.962
				c0.805,0,1.098-0.67,1.098-1.79V73.805z"/>
			<path fill="#2398D0" d="M192.008,71.638c0-0.39-0.011-0.755-0.044-1.035h1.26c0.01,0.316,0.044,0.646,0.044,0.964h0.03h-0.01
				c0.198-0.378,0.576-1.061,1.488-1.061c1.271,0,1.65,1.061,1.65,2.324v4.044h-1.347v-3.762c0-0.961-0.215-1.363-0.771-1.363
				c-0.704,0-0.954,0.668-0.954,1.473v3.652h-1.347"/>
			<path fill="#2398D0" d="M197.537,67.939h1.389v1.484h-1.389 M197.557,70.604h1.346v6.27h-1.346V70.604z"/>
			<polyline fill="#2398D0" points="199.888,75.572 202.276,71.748 199.964,71.748 199.964,70.605 203.625,70.605 203.625,71.895 
				201.278,75.731 203.699,75.731 203.699,76.875 199.888,76.875 			"/>
			<path fill="#2398D0" d="M204.825,70.969c0.381-0.193,0.912-0.464,1.77-0.464c1.738,0,2.14,0.951,2.14,2.521v2.739
				c0,0.449,0.042,0.864,0.076,1.107h-1.218c-0.064-0.243-0.075-0.548-0.075-0.853h-0.021c-0.338,0.512-0.761,0.948-1.565,0.948
				c-0.867,0-1.671-0.668-1.671-1.837c0-1.704,1.236-2.13,2.942-2.13h0.272v-0.231c0-0.62-0.272-1.193-1.042-1.193
				c-0.672,0-1.272,0.366-1.532,0.61 M207.475,73.805h-0.12c-1.151,0-1.834,0.27-1.834,1.182c0,0.571,0.335,0.962,0.856,0.962
				c0.803,0,1.098-0.67,1.098-1.79V73.805z"/>
			<path fill="#2398D0" d="M213.358,76.716c-0.314,0.133-0.782,0.254-1.324,0.254h-0.066l-0.196,0.658
				c0.109-0.036,0.241-0.072,0.424-0.072c0.598,0,0.945,0.377,0.945,0.899c0,0.769-0.673,1.121-1.205,1.121
				c-0.456,0-0.924-0.122-1.14-0.244l0.175-0.487c0.215,0.086,0.434,0.172,0.757,0.172c0.361,0,0.565-0.207,0.565-0.499
				c0-0.281-0.205-0.451-0.498-0.451c-0.196,0-0.327,0.036-0.424,0.083l-0.195-0.205l0.326-1.021
				c-1.476-0.271-2.095-1.597-2.095-3.179c0-1.789,0.824-3.239,2.703-3.239c0.423,0,0.922,0.146,1.172,0.257l-0.075,1.193
				c-0.24-0.135-0.575-0.304-0.946-0.304c-1.02,0-1.464,0.766-1.464,2.105c0,1.168,0.5,2.068,1.53,2.068
				c0.325,0,0.772-0.171,0.955-0.305"/>
			<path fill="#2398D0" d="M214.553,70.969c0.38-0.193,0.913-0.464,1.77-0.464c1.737,0,2.14,0.951,2.14,2.521v2.739
				c0,0.449,0.043,0.864,0.074,1.107h-1.216c-0.063-0.243-0.073-0.548-0.073-0.853h-0.022c-0.335,0.512-0.762,0.948-1.564,0.948
				c-0.868,0-1.671-0.668-1.671-1.837c0-1.704,1.238-2.13,2.941-2.13h0.272v-0.231c0-0.62-0.272-1.193-1.042-1.193
				c-0.672,0-1.27,0.366-1.532,0.61 M214.76,69.777c0-0.427,0.205-1.4,1.021-1.424c0.5,0,0.923,0.413,1.249,0.413
				c0.218,0,0.313-0.23,0.313-0.475h0.674c0,0.354-0.207,1.424-1.011,1.424c-0.422,0-0.825-0.413-1.215-0.413
				c-0.271,0-0.401,0.221-0.401,0.475H214.76z M217.202,73.805h-0.118c-1.151,0-1.837,0.27-1.837,1.182
				c0,0.571,0.338,0.962,0.857,0.962c0.804,0,1.097-0.67,1.097-1.79V73.805z"/>
			<path fill="#2398D0" d="M221.86,70.507c1.139,0,2.454,0.67,2.454,3.225c0,2.632-1.315,3.239-2.454,3.239
				s-2.466-0.607-2.466-3.239C219.394,71.177,220.721,70.507,221.86,70.507 M221.86,75.901c0.867,0,1.063-1.12,1.063-2.169
				c0-1.045-0.196-2.155-1.063-2.155c-0.866,0-1.075,1.11-1.075,2.155C220.785,74.781,220.994,75.901,221.86,75.901"/>
			<polyline fill="#2398D0" points="177.329,81.482 177.309,81.482 175.408,88.566 174.421,88.566 172.607,81.482 172.584,81.482 
				172.584,88.566 171.325,88.566 171.325,80.071 173.4,80.071 174.962,86.413 174.985,86.413 176.58,80.071 178.591,80.071 
				178.591,88.566 177.329,88.566 			"/>
			<path fill="#2398D0" d="M184.09,87.533c0,0.391,0.012,0.753,0.045,1.033h-1.259c-0.012-0.317-0.046-0.643-0.046-0.961
				l-0.03-0.013l0.01,0.013c-0.262,0.464-0.609,1.06-1.488,1.06c-1.271,0-1.649-1.06-1.649-2.325v-4.042h1.345v3.761
				c0,0.964,0.24,1.362,0.804,1.362c0.717,0,0.922-0.729,0.922-1.531v-3.592h1.347"/>
			<path fill="#2398D0" d="M185.25,83.333c0-0.392-0.011-0.755-0.044-1.035h1.26c0.01,0.316,0.046,0.644,0.046,0.962h0.03h-0.012
				c0.196-0.375,0.576-1.059,1.489-1.059c1.271,0,1.649,1.059,1.649,2.324v4.041h-1.346v-3.76c0-0.964-0.217-1.364-0.771-1.364
				c-0.706,0-0.954,0.67-0.954,1.474v3.65h-1.347"/>
			<path fill="#2398D0" d="M195.369,79.436v8.057c0,0.454,0.011,0.843,0.044,1.072h-1.26c-0.021-0.181-0.044-0.547-0.044-0.973
				h-0.031c-0.219,0.538-0.62,1.07-1.487,1.07c-1.39,0-1.965-1.484-1.965-3.224c0-2.046,0.728-3.24,1.933-3.24
				c0.803,0,1.248,0.513,1.442,0.999h0.022v-3.762 M192.959,87.555c0.793,0,1.063-0.959,1.063-2.141
				c0-1.218-0.303-2.106-1.041-2.106c-0.75,0-1.012,0.815-1.012,2.068C191.97,86.825,192.177,87.555,192.959,87.555"/>
			<path fill="#2398D0" d="M196.449,79.632h1.392v1.482h-1.392 M196.471,82.297h1.347v6.266h-1.347V82.297z"/>
			<path fill="#2398D0" d="M199.328,82.663c0.38-0.194,0.912-0.463,1.77-0.463c1.738,0,2.14,0.948,2.14,2.521v2.74
				c0,0.448,0.042,0.864,0.073,1.104h-1.214c-0.064-0.24-0.075-0.547-0.075-0.849h-0.022c-0.337,0.511-0.761,0.947-1.564,0.947
				c-0.867,0-1.672-0.668-1.672-1.839c0-1.701,1.238-2.13,2.944-2.13h0.271v-0.231c0-0.622-0.271-1.19-1.043-1.19
				c-0.671,0-1.27,0.363-1.531,0.608 M201.977,85.5h-0.119c-1.151,0-1.837,0.266-1.837,1.181c0,0.573,0.338,0.963,0.857,0.963
				c0.805,0,1.098-0.671,1.098-1.793V85.5z"/>
			<rect x="204.508" y="79.439" fill="#2398D0" width="1.345" height="9.127"/>
			<path fill="#2398D0" d="M214.711,79.436v8.057c0,0.454,0.01,0.843,0.045,1.072h-1.261c-0.021-0.181-0.042-0.547-0.042-0.973
				h-0.034c-0.217,0.538-0.621,1.07-1.486,1.07c-1.392,0-1.966-1.484-1.966-3.224c0-2.046,0.727-3.24,1.932-3.24
				c0.803,0,1.249,0.513,1.442,0.999h0.023v-3.762 M212.301,87.555c0.792,0,1.063-0.959,1.063-2.141
				c0-1.218-0.304-2.106-1.041-2.106c-0.75,0-1.013,0.815-1.013,2.068C211.311,86.825,211.518,87.555,212.301,87.555"/>
			<path fill="#2398D0" d="M216.113,82.663c0.378-0.194,0.91-0.463,1.768-0.463c1.735,0,2.14,0.948,2.14,2.521v2.74
				c0,0.448,0.044,0.864,0.075,1.104h-1.216c-0.065-0.24-0.075-0.547-0.075-0.849h-0.021c-0.336,0.511-0.761,0.947-1.564,0.947
				c-0.867,0-1.671-0.668-1.671-1.839c0-1.701,1.238-2.13,2.942-2.13h0.271v-0.231c0-0.622-0.271-1.19-1.042-1.19
				c-0.672,0-1.27,0.363-1.529,0.608 M218.76,85.5h-0.118c-1.152,0-1.834,0.266-1.834,1.181c0,0.573,0.334,0.963,0.855,0.963
				c0.802,0,1.096-0.671,1.096-1.793V85.5z"/>
			<path fill="#2398D0" d="M223.972,86.924c0.271,0.195,0.867,0.522,1.606,0.522c0.609,0,1.15-0.377,1.15-1.229
				c0-0.608-0.313-0.877-0.986-1.29l-0.708-0.438c-0.748-0.463-1.237-1.133-1.237-2.228c0-1.521,1.119-2.313,2.39-2.313
				c0.804,0,1.365,0.23,1.585,0.303l-0.066,1.304c-0.337-0.147-0.782-0.366-1.421-0.366c-0.695,0-1.053,0.415-1.053,0.999
				c0,0.632,0.378,0.875,0.802,1.144l0.816,0.51c0.888,0.561,1.314,1.096,1.314,2.291c0,1.728-1.098,2.554-2.542,2.554
				c-0.759,0-1.345-0.121-1.724-0.377"/>
			<path fill="#2398D0" d="M229.413,82.663c0.379-0.194,0.913-0.463,1.77-0.463c1.738,0,2.141,0.948,2.141,2.521v2.74
				c0,0.448,0.043,0.864,0.073,1.104h-1.214c-0.065-0.24-0.075-0.547-0.075-0.849h-0.022c-0.336,0.511-0.762,0.947-1.564,0.947
				c-0.868,0-1.67-0.668-1.67-1.839c0-1.701,1.237-2.13,2.941-2.13h0.271v-0.231c0-0.622-0.271-1.19-1.042-1.19
				c-0.671,0-1.271,0.363-1.531,0.608 M232.063,85.5h-0.119c-1.152,0-1.836,0.266-1.836,1.181c0,0.573,0.338,0.963,0.858,0.963
				c0.804,0,1.097-0.671,1.097-1.793V85.5z"/>
			<path fill="#2398D0" d="M238.67,87.533c0,0.389,0.012,0.752,0.045,1.032h-1.259c-0.011-0.316-0.045-0.644-0.045-0.96
				l-0.031-0.014l0.01,0.014c-0.259,0.463-0.607,1.059-1.486,1.059c-1.27,0-1.65-1.059-1.65-2.324v-4.042h1.347v3.76
				c0,0.965,0.239,1.364,0.803,1.364c0.717,0,0.925-0.729,0.925-1.533v-3.591h1.342 M236.521,79.851h1.262l-1.108,1.753h-0.847
				L236.521,79.851z"/>
			<path fill="#2398D0" d="M244.423,79.436v8.057c0,0.454,0.012,0.843,0.045,1.072h-1.261c-0.021-0.181-0.042-0.547-0.042-0.973
				h-0.032c-0.218,0.538-0.62,1.07-1.488,1.07c-1.39,0-1.966-1.484-1.966-3.224c0-2.046,0.729-3.24,1.934-3.24
				c0.803,0,1.248,0.513,1.441,0.999h0.025v-3.762 M242.014,87.555c0.793,0,1.064-0.959,1.064-2.141
				c0-1.218-0.304-2.106-1.042-2.106c-0.75,0-1.011,0.815-1.011,2.068C241.026,86.825,241.231,87.555,242.014,87.555"/>
			<path fill="#2398D0" d="M249.606,88.263c-0.283,0.134-0.871,0.399-1.672,0.399c-1.805,0-2.585-1.446-2.585-3.141
				c0-1.873,0.879-3.322,2.301-3.322c1.206,0,2.237,0.792,2.237,3.348v0.294h-3.236c0,1.07,0.381,1.715,1.423,1.715
				c0.825,0,1.217-0.279,1.464-0.489 M248.584,84.891c0-1.107-0.327-1.668-0.935-1.668c-0.705,0-1,0.84-1,1.668H248.584z"/>
			<polygon fill="#2398D0" points="130.561,98.977 131.972,98.977 131.972,99.449 131.053,99.449 131.053,100.307 131.922,100.307 
				131.922,100.779 131.053,100.779 131.053,101.732 132.012,101.732 132.012,102.203 130.561,102.203 			"/>
			<path fill="#2398D0" d="M132.354,101.58c0.095,0.071,0.307,0.198,0.568,0.198c0.217,0,0.409-0.144,0.409-0.467
				c0-0.231-0.111-0.333-0.349-0.49l-0.252-0.166c-0.264-0.176-0.438-0.431-0.438-0.847c0-0.577,0.396-0.876,0.847-0.876
				c0.285,0,0.484,0.085,0.56,0.115l-0.021,0.494c-0.12-0.056-0.277-0.14-0.504-0.14c-0.247,0-0.374,0.158-0.374,0.379
				c0,0.24,0.136,0.332,0.285,0.436l0.289,0.192c0.315,0.212,0.465,0.416,0.465,0.869c0,0.656-0.387,0.971-0.899,0.971
				c-0.269,0-0.475-0.046-0.61-0.143L132.354,101.58z"/>
			<path fill="#2398D0" d="M135.923,102.133c-0.1,0.065-0.338,0.115-0.582,0.115c-0.815,0-1.233-0.716-1.233-1.658
				s0.418-1.66,1.22-1.66c0.271,0,0.496,0.087,0.595,0.134l-0.027,0.532c-0.101-0.062-0.259-0.175-0.506-0.175
				c-0.409,0-0.758,0.332-0.758,1.169c0,0.836,0.35,1.168,0.758,1.168c0.237,0,0.394-0.069,0.506-0.165L135.923,102.133z"/>
			<path fill="#2398D0" d="M136.236,98.977h0.838c0.477,0,0.799,0.259,0.799,0.85c0,0.421-0.219,0.703-0.519,0.759v0.013
				c0.1,0.02,0.211,0.075,0.295,0.375l0.351,1.23h-0.522l-0.265-1.051c-0.066-0.252-0.193-0.336-0.374-0.336h-0.112v1.387h-0.491
				V98.977z M136.928,100.383c0.261,0,0.438-0.164,0.438-0.492c0-0.37-0.162-0.463-0.438-0.463h-0.201v0.955H136.928z"/>
			<rect x="138.309" y="98.978" fill="#2398D0" width="0.491" height="3.224"/>
			<polygon fill="#2398D0" points="139.679,99.45 139.079,99.45 139.079,98.977 140.765,98.977 140.765,99.45 140.169,99.45 
				140.169,102.203 139.679,102.203 			"/>
			<path fill="#2398D0" d="M141.831,98.93c0.56,0,1.07,0.499,1.07,1.66c0,1.16-0.511,1.658-1.07,1.658
				c-0.558,0-1.068-0.498-1.068-1.658C140.763,99.429,141.273,98.93,141.831,98.93 M141.831,101.796
				c0.311,0,0.562-0.319,0.562-1.206c0-0.889-0.25-1.207-0.562-1.207c-0.31,0-0.562,0.318-0.562,1.207
				C141.27,101.477,141.521,101.796,141.831,101.796"/>
			<path fill="#2398D0" d="M143.247,98.977h0.838c0.479,0,0.801,0.259,0.801,0.85c0,0.421-0.22,0.703-0.519,0.759v0.013
				c0.1,0.02,0.21,0.075,0.295,0.375l0.351,1.23h-0.524l-0.265-1.051c-0.065-0.252-0.192-0.336-0.373-0.336h-0.114v1.387h-0.491
				V98.977z M143.94,100.383c0.259,0,0.439-0.164,0.439-0.492c0-0.37-0.162-0.463-0.439-0.463h-0.203v0.955H143.94z"/>
			<rect x="145.31" y="98.978" fill="#2398D0" width="0.492" height="3.224"/>
			<path fill="#2398D0" d="M147.24,98.93c0.558,0,1.069,0.499,1.069,1.66c0,1.16-0.511,1.658-1.069,1.658
				c-0.56,0-1.069-0.498-1.069-1.658C146.171,99.429,146.681,98.93,147.24,98.93 M147.24,101.796c0.311,0,0.562-0.319,0.562-1.206
				c0-0.889-0.25-1.207-0.562-1.207s-0.562,0.318-0.562,1.207C146.679,101.477,146.929,101.796,147.24,101.796"/>
			<path fill="#2398D0" d="M149.556,98.977h0.838c0.478,0,0.8,0.259,0.8,0.85c0,0.421-0.219,0.703-0.519,0.759v0.013
				c0.101,0.02,0.211,0.075,0.297,0.375l0.349,1.23h-0.522l-0.265-1.051c-0.066-0.252-0.193-0.336-0.374-0.336h-0.112v1.387h-0.491
				V98.977z M150.248,100.383c0.261,0,0.439-0.164,0.439-0.492c0-0.37-0.163-0.463-0.439-0.463h-0.201v0.955H150.248z"/>
			<polygon fill="#2398D0" points="151.622,98.977 153.031,98.977 153.031,99.449 152.113,99.449 152.113,100.307 152.982,100.307 
				152.982,100.779 152.113,100.779 152.113,101.732 153.072,101.732 153.072,102.203 151.622,102.203 			"/>
			<path fill="#2398D0" d="M154.518,100.396h0.868v1.686c-0.139,0.089-0.377,0.166-0.728,0.166c-0.859,0-1.317-0.702-1.317-1.657
				c0-0.958,0.458-1.661,1.317-1.661c0.308,0,0.551,0.085,0.656,0.139l-0.028,0.533c-0.158-0.116-0.372-0.199-0.619-0.199
				c-0.523,0-0.804,0.519-0.804,1.188c0,0.724,0.273,1.186,0.776,1.186c0.117,0,0.221-0.025,0.284-0.057v-0.872h-0.405V100.396z"/>
			<rect x="155.849" y="98.978" fill="#2398D0" width="0.491" height="3.224"/>
			<path fill="#2398D0" d="M157.779,98.93c0.559,0,1.07,0.499,1.07,1.66c0,1.16-0.511,1.658-1.07,1.658
				c-0.559,0-1.07-0.498-1.07-1.658C156.709,99.429,157.22,98.93,157.779,98.93 M157.779,101.796c0.311,0,0.562-0.319,0.562-1.206
				c0-0.889-0.251-1.207-0.562-1.207c-0.311,0-0.562,0.318-0.562,1.207C157.218,101.477,157.469,101.796,157.779,101.796"/>
			<polygon fill="#2398D0" points="159.211,98.977 159.794,98.977 160.688,101.509 160.695,101.509 160.695,98.977 161.141,98.977 
				161.141,102.203 160.552,102.203 159.664,99.689 159.656,99.689 159.656,102.203 159.211,102.203 			"/>
			<path fill="#2398D0" d="M162.965,101.425h-0.922l-0.193,0.777h-0.492l0.899-3.226h0.537l0.867,3.226h-0.507L162.965,101.425z
				 M162.862,100.974l-0.339-1.506h-0.007l-0.371,1.506H162.862z"/>
			<polygon fill="#2398D0" points="163.851,98.977 164.341,98.977 164.341,101.732 165.227,101.732 165.227,102.203 
				163.851,102.203 			"/>
			<path fill="#2398D0" d="M166.378,98.978h0.769c0.554,0,0.843,0.367,0.843,0.977c0,0.612-0.29,0.986-0.843,0.986h-0.276v1.262
				h-0.492V98.978z M167.054,100.488c0.307,0,0.441-0.179,0.441-0.533c0-0.35-0.135-0.525-0.441-0.525h-0.184v1.059H167.054z"/>
			<path fill="#2398D0" d="M169.362,101.425h-0.924l-0.192,0.777h-0.492l0.901-3.226h0.536l0.866,3.226h-0.508L169.362,101.425z
				 M169.258,100.974l-0.338-1.506h-0.008l-0.371,1.506H169.258z"/>
			<path fill="#2398D0" d="M170.234,98.977h0.838c0.478,0,0.801,0.259,0.801,0.85c0,0.421-0.22,0.703-0.52,0.759v0.013
				c0.101,0.02,0.212,0.075,0.296,0.375l0.351,1.23h-0.523l-0.266-1.051c-0.066-0.252-0.192-0.336-0.374-0.336h-0.111v1.387h-0.492
				V98.977z M170.927,100.383c0.261,0,0.439-0.164,0.439-0.492c0-0.37-0.162-0.463-0.439-0.463h-0.2v0.955H170.927z"/>
			<path fill="#2398D0" d="M173.646,101.425h-0.922l-0.192,0.777h-0.493l0.899-3.226h0.538l0.867,3.226h-0.509L173.646,101.425z
				 M173.543,100.974l-0.339-1.506h-0.006l-0.371,1.506H173.543z"/>
			<path fill="#2398D0" d="M176.597,101.425h-0.924l-0.191,0.777h-0.492l0.899-3.226h0.537l0.866,3.226h-0.508L176.597,101.425z
				 M176.494,100.974l-0.339-1.506h-0.007l-0.371,1.506H176.494z"/>
			<path fill="#2398D0" d="M177.475,101.58c0.096,0.071,0.307,0.198,0.569,0.198c0.214,0,0.408-0.144,0.408-0.467
				c0-0.231-0.111-0.333-0.351-0.49l-0.25-0.166c-0.265-0.176-0.439-0.431-0.439-0.847c0-0.577,0.396-0.876,0.846-0.876
				c0.286,0,0.486,0.085,0.562,0.115l-0.022,0.494c-0.119-0.056-0.277-0.14-0.503-0.14c-0.246,0-0.375,0.158-0.375,0.379
				c0,0.24,0.135,0.332,0.285,0.436l0.29,0.192c0.313,0.212,0.464,0.416,0.464,0.869c0,0.656-0.386,0.971-0.898,0.971
				c-0.27,0-0.477-0.046-0.611-0.143L177.475,101.58z"/>
			<polyline fill="#2398D0" points="196.345,96.275 197.165,94.292 198.401,94.292 197.165,96.275 			"/>
			<polyline fill="#2398D0" points="141.631,98.719 142.04,97.73 142.659,97.73 142.04,98.719 			"/>
			<path fill="#2398D0" d="M49.328,66.988c1.896,0,3.634,1.503,3.634,5.004c0,3.495-1.738,4.999-3.634,4.999
				c-1.895,0-3.633-1.504-3.633-4.999C45.694,68.491,47.433,66.988,49.328,66.988 M49.328,75.627c1.059,0,1.91-0.962,1.91-3.636
				c0-2.678-0.851-3.641-1.91-3.641s-1.91,0.963-1.91,3.641C47.418,74.666,48.269,75.627,49.328,75.627"/>
			<path fill="#2398D0" d="M54.15,70.861c0-0.446-0.014-0.864-0.052-1.185h1.462c0.015,0.432,0.053,0.88,0.053,1.31h0.027
				c0.196-0.558,0.706-1.42,1.712-1.42c0.103,0,0.182,0.026,0.274,0.04v1.615c-0.143-0.039-0.289-0.066-0.458-0.066
				c-0.666,0-1.4,0.43-1.4,1.768v3.931H54.15"/>
			<path fill="#2398D0" d="M58.585,77.968c0.376,0.223,1.137,0.613,1.986,0.613c1.529,0,1.778-1.129,1.778-2.259v-0.681h-0.027
				c-0.259,0.557-0.719,1.212-1.776,1.212c-0.943,0-2.353-0.669-2.353-3.568c0-1.979,0.666-3.72,2.429-3.72
				c0.98,0,1.44,0.599,1.778,1.226h0.052c0-0.378,0.041-0.739,0.054-1.114h1.463c-0.026,0.375-0.051,0.752-0.051,1.128V76.1
				c0,2.243-0.643,3.847-3.112,3.847c-1.072,0-1.921-0.293-2.313-0.447 M60.925,75.584c1.018,0,1.424-0.779,1.424-2.41
				c0-1.505-0.536-2.314-1.308-2.298c-0.849,0.013-1.177,0.849-1.177,2.313C59.865,74.873,60.374,75.584,60.925,75.584"/>
			<path fill="#2398D0" d="M65.526,70.093c0.457-0.222,1.096-0.528,2.128-0.528c2.091,0,2.577,1.086,2.577,2.885v3.136
				c0,0.515,0.052,0.987,0.091,1.268h-1.465c-0.077-0.28-0.091-0.629-0.091-0.976H68.74c-0.404,0.584-0.914,1.086-1.881,1.086
				c-1.046,0-2.012-0.766-2.012-2.103c0-1.952,1.488-2.439,3.541-2.439h0.327v-0.266c0-0.709-0.327-1.365-1.256-1.365
				c-0.809,0-1.529,0.418-1.843,0.696 M68.715,73.34h-0.144c-1.386,0-2.209,0.307-2.209,1.354c0,0.654,0.405,1.101,1.032,1.101
				c0.967,0,1.321-0.767,1.321-2.049V73.34z"/>
			<path fill="#2398D0" d="M71.537,70.861c0-0.446-0.015-0.864-0.051-1.185H73c0.015,0.363,0.054,0.738,0.054,1.103h0.039h-0.015
				c0.236-0.433,0.693-1.213,1.792-1.213c1.529,0,1.987,1.213,1.987,2.66v4.627h-1.623v-4.307c0-1.102-0.258-1.561-0.927-1.561
				c-0.85,0-1.151,0.767-1.151,1.688v4.18h-1.62"/>
			<path fill="#2398D0" d="M78.255,66.625h1.674v1.702h-1.674 M78.282,69.677h1.62v7.178h-1.62V69.677z"/>
			<polyline fill="#2398D0" points="80.961,75.363 83.837,70.987 81.053,70.987 81.053,69.676 85.457,69.676 85.457,71.154 
				82.635,75.542 85.547,75.542 85.547,76.853 80.961,76.853 			"/>
			<path fill="#2398D0" d="M86.778,70.093c0.457-0.222,1.097-0.528,2.129-0.528c2.091,0,2.575,1.086,2.575,2.885v3.136
				c0,0.515,0.052,0.987,0.092,1.268H90.11c-0.079-0.28-0.091-0.629-0.091-0.976h-0.028c-0.404,0.584-0.913,1.086-1.881,1.086
				c-1.046,0-2.013-0.766-2.013-2.103c0-1.952,1.49-2.439,3.541-2.439h0.328v-0.266c0-0.709-0.328-1.365-1.256-1.365
				c-0.81,0-1.529,0.418-1.842,0.696 M89.967,73.34h-0.143c-1.386,0-2.21,0.307-2.21,1.354c0,0.654,0.404,1.101,1.032,1.101
				c0.967,0,1.32-0.767,1.32-2.049V73.34z"/>
			<path fill="#2398D0" d="M97.365,76.67c-0.381,0.153-0.942,0.294-1.595,0.294h-0.079l-0.236,0.752
				c0.131-0.042,0.29-0.085,0.51-0.085c0.72,0,1.138,0.434,1.138,1.031c0,0.88-0.811,1.284-1.451,1.284
				c-0.548,0-1.112-0.141-1.373-0.279l0.209-0.559c0.262,0.099,0.525,0.196,0.915,0.196c0.433,0,0.681-0.238,0.681-0.572
				c0-0.319-0.248-0.515-0.601-0.515c-0.237,0-0.393,0.043-0.51,0.098l-0.237-0.237l0.393-1.17
				c-1.778-0.308-2.524-1.825-2.524-3.638c0-2.05,0.993-3.705,3.255-3.705c0.51,0,1.111,0.167,1.412,0.291l-0.091,1.364
				c-0.288-0.15-0.693-0.347-1.138-0.347c-1.228,0-1.765,0.878-1.765,2.41c0,1.338,0.601,2.369,1.843,2.369
				c0.392,0,0.929-0.194,1.15-0.347"/>
			<path fill="#2398D0" d="M98.49,70.093c0.457-0.222,1.097-0.528,2.129-0.528c2.091,0,2.575,1.086,2.575,2.885v3.136
				c0,0.515,0.052,0.987,0.09,1.268h-1.463c-0.078-0.28-0.091-0.629-0.091-0.976h-0.027c-0.404,0.584-0.913,1.086-1.881,1.086
				c-1.046,0-2.013-0.766-2.013-2.103c0-1.952,1.49-2.439,3.541-2.439h0.328v-0.266c0-0.709-0.328-1.365-1.256-1.365
				c-0.81,0-1.529,0.418-1.843,0.696 M98.738,68.731c0-0.49,0.248-1.604,1.228-1.633c0.602,0,1.11,0.473,1.502,0.473
				c0.262,0,0.38-0.262,0.38-0.54h0.812c0,0.402-0.25,1.629-1.217,1.629c-0.51,0-0.993-0.476-1.465-0.476
				c-0.327,0-0.481,0.253-0.481,0.547H98.738z M101.679,73.34h-0.144c-1.387,0-2.209,0.307-2.209,1.354
				c0,0.654,0.404,1.101,1.033,1.101c0.967,0,1.321-0.767,1.321-2.049V73.34z"/>
			<path fill="#2398D0" d="M107.284,69.566c1.373,0,2.955,0.766,2.955,3.691c0,3.011-1.582,3.706-2.955,3.706
				c-1.372,0-2.966-0.695-2.966-3.706C104.318,70.332,105.913,69.566,107.284,69.566 M107.284,75.738
				c1.046,0,1.282-1.283,1.282-2.48c0-1.196-0.236-2.466-1.282-2.466c-1.045,0-1.293,1.27-1.293,2.466
				C105.991,74.455,106.239,75.738,107.284,75.738"/>
			<path fill="#2398D0" d="M45.983,79.348h2.612c1.882,0,2.865,1.115,2.865,2.955s-0.983,2.966-2.865,2.966h-0.941v3.805h-1.671
				 M48.282,83.905c1.045,0,1.503-0.543,1.503-1.602c0-1.058-0.458-1.589-1.503-1.589h-0.628v3.19H48.282z"/>
			<path fill="#2398D0" d="M52.022,82.315c0.457-0.222,1.097-0.526,2.129-0.526c2.091,0,2.574,1.083,2.574,2.882v3.136
				c0,0.517,0.053,0.99,0.091,1.269h-1.464c-0.077-0.278-0.09-0.629-0.09-0.975h-0.028c-0.404,0.585-0.915,1.086-1.881,1.086
				c-1.046,0-2.013-0.767-2.013-2.104c0-1.95,1.489-2.436,3.541-2.436h0.328v-0.27c0-0.709-0.328-1.363-1.256-1.363
				c-0.81,0-1.528,0.417-1.843,0.695 M55.211,85.563h-0.143c-1.386,0-2.21,0.306-2.21,1.353c0,0.655,0.406,1.101,1.034,1.101
				c0.967,0,1.319-0.767,1.319-2.049V85.563z"/>
			<path fill="#2398D0" d="M58.034,83.083c0-0.445-0.014-0.866-0.052-1.186h1.514c0.015,0.363,0.054,0.74,0.054,1.102h0.039h-0.012
				c0.235-0.432,0.692-1.212,1.789-1.212c1.53,0,1.987,1.212,1.987,2.659v4.627h-1.622v-4.305c0-1.101-0.258-1.563-0.927-1.563
				c-0.85,0-1.151,0.769-1.151,1.687v4.181h-1.62"/>
			<rect x="64.438" y="84.408" fill="#2398D0" width="3.019" height="1.421"/>
			<path fill="#2398D0" d="M73.353,86.734h-3.137l-0.655,2.341h-1.672l3.058-9.726h1.831l2.939,9.726h-1.725 M73,85.369l-1.15-4.544
				h-0.027l-1.254,4.544H73z"/>
			<path fill="#2398D0" d="M76.293,83.07c0-0.517-0.024-0.906-0.051-1.171h1.619c0.014,0.375,0.052,0.752,0.052,1.129h0.026
				c0.25-0.558,0.771-1.241,1.7-1.241c1.137,0,1.502,0.752,1.699,1.144c0.327-0.502,0.811-1.144,1.806-1.144
				c1.462,0,1.933,1.117,1.933,2.857v4.432h-1.621v-4.531c0-0.892-0.261-1.336-0.862-1.336c-0.719,0-1.099,0.725-1.099,1.52v4.348
				h-1.621v-4.531c0-0.892-0.26-1.336-0.861-1.336c-0.72,0-1.1,0.725-1.1,1.52v4.348h-1.62"/>
			<path fill="#2398D0" d="M91.244,88.725c-0.339,0.155-1.044,0.461-2.013,0.461c-2.168,0-3.11-1.658-3.11-3.595
				c0-2.147,1.059-3.803,2.772-3.803c1.449,0,2.692,0.903,2.692,3.83v0.334h-3.896c0,1.228,0.458,1.966,1.713,1.966
				c0.993,0,1.463-0.32,1.764-0.559 M90.018,84.867c0-1.271-0.393-1.909-1.124-1.909c-0.853,0-1.205,0.963-1.205,1.909H90.018z"/>
			<path fill="#2398D0" d="M92.697,83.083c0-0.445-0.014-0.866-0.052-1.186h1.463c0.012,0.434,0.052,0.879,0.052,1.309h0.027
				c0.194-0.558,0.706-1.419,1.71-1.419c0.105,0,0.185,0.027,0.277,0.041v1.616c-0.145-0.041-0.289-0.068-0.458-0.068
				c-0.666,0-1.4,0.433-1.4,1.77v3.928h-1.619"/>
			<path fill="#2398D0" d="M97.181,78.848h1.672v1.698h-1.672 M97.205,81.899h1.62v7.177h-1.62V81.899z"/>
			<path fill="#2398D0" d="M104.826,88.894c-0.379,0.153-0.942,0.292-1.596,0.292c-2.221,0-3.164-1.658-3.164-3.692
				c0-2.049,0.994-3.706,3.257-3.706c0.507,0,1.109,0.167,1.411,0.291l-0.091,1.366c-0.288-0.152-0.692-0.349-1.138-0.349
				c-1.228,0-1.764,0.878-1.764,2.409c0,1.338,0.6,2.372,1.842,2.372c0.394,0,0.929-0.197,1.151-0.35"/>
			<path fill="#2398D0" d="M105.95,82.315c0.457-0.222,1.097-0.526,2.129-0.526c2.092,0,2.577,1.083,2.577,2.882v3.136
				c0,0.517,0.05,0.99,0.091,1.269h-1.465c-0.077-0.278-0.091-0.629-0.091-0.975h-0.027c-0.404,0.585-0.915,1.086-1.881,1.086
				c-1.046,0-2.013-0.767-2.013-2.104c0-1.95,1.489-2.436,3.541-2.436h0.327v-0.27c0-0.709-0.327-1.363-1.256-1.363
				c-0.81,0-1.528,0.417-1.841,0.695 M109.139,85.563h-0.143c-1.386,0-2.209,0.306-2.209,1.353c0,0.655,0.404,1.101,1.032,1.101
				c0.967,0,1.319-0.767,1.319-2.049V85.563z"/>
			<path fill="#2398D0" d="M111.962,83.083c0-0.445-0.015-0.866-0.052-1.186h1.516c0.014,0.363,0.053,0.74,0.053,1.102h0.039h-0.012
				c0.233-0.432,0.69-1.212,1.789-1.212c1.53,0,1.987,1.212,1.987,2.659v4.627h-1.622v-4.305c0-1.101-0.259-1.563-0.928-1.563
				c-0.849,0-1.151,0.769-1.151,1.687v4.181h-1.619"/>
			<path fill="#2398D0" d="M118.876,82.315c0.458-0.222,1.097-0.526,2.131-0.526c2.09,0,2.574,1.083,2.574,2.882v3.136
				c0,0.517,0.053,0.99,0.092,1.269h-1.466c-0.077-0.278-0.09-0.629-0.09-0.975h-0.027c-0.404,0.585-0.913,1.086-1.881,1.086
				c-1.046,0-2.013-0.767-2.013-2.104c0-1.95,1.49-2.436,3.541-2.436h0.328v-0.27c0-0.709-0.328-1.363-1.256-1.363
				c-0.81,0-1.529,0.417-1.843,0.695 M122.066,85.563h-0.144c-1.387,0-2.209,0.306-2.209,1.353c0,0.655,0.405,1.101,1.032,1.101
				c0.967,0,1.321-0.767,1.321-2.049V85.563z"/>
			<path fill="#2398D0" d="M51.354,90.847v9.223c0,0.515,0.014,0.961,0.051,1.227H49.89c-0.028-0.208-0.054-0.625-0.054-1.114
				h-0.038c-0.261,0.614-0.746,1.229-1.79,1.229c-1.675,0-2.366-1.703-2.366-3.694c0-2.341,0.875-3.706,2.326-3.706
				c0.967,0,1.504,0.585,1.739,1.142h0.027v-4.305 M48.452,100.14c0.954,0,1.283-1.1,1.283-2.453c0-1.392-0.369-2.409-1.257-2.409
				c-0.9,0-1.215,0.934-1.215,2.368C47.262,99.303,47.51,100.14,48.452,100.14"/>
			<path fill="#2398D0" d="M52.976,94.538c0.456-0.222,1.095-0.528,2.128-0.528c2.091,0,2.577,1.087,2.577,2.885v3.134
				c0,0.518,0.051,0.99,0.091,1.27h-1.466c-0.079-0.279-0.091-0.628-0.091-0.976h-0.025c-0.403,0.584-0.915,1.087-1.881,1.087
				c-1.046,0-2.013-0.767-2.013-2.105c0-1.95,1.489-2.437,3.542-2.437h0.326v-0.265c0-0.711-0.326-1.368-1.255-1.368
				c-0.811,0-1.528,0.418-1.841,0.698 M56.164,97.786H56.02c-1.385,0-2.209,0.305-2.209,1.353c0,0.654,0.406,1.101,1.032,1.101
				c0.968,0,1.321-0.768,1.321-2.051V97.786z"/>
			<path fill="#2398D0" d="M62.308,99.415c0.326,0.223,1.044,0.601,1.934,0.601c0.731,0,1.386-0.435,1.386-1.408
				c0-0.694-0.38-1.002-1.19-1.478l-0.849-0.501c-0.903-0.53-1.491-1.294-1.491-2.55c0-1.743,1.348-2.646,2.875-2.646
				c0.968,0,1.647,0.264,1.909,0.348l-0.078,1.491c-0.406-0.167-0.941-0.42-1.714-0.42c-0.835,0-1.266,0.476-1.266,1.146
				c0,0.724,0.456,1.003,0.967,1.308l0.979,0.584c1.074,0.642,1.583,1.255,1.583,2.62c0,1.979-1.32,2.927-3.059,2.927
				c-0.914,0-1.619-0.139-2.078-0.428"/>
			<path fill="#2398D0" d="M68.856,94.538c0.457-0.222,1.096-0.528,2.129-0.528c2.09,0,2.576,1.087,2.576,2.885v3.134
				c0,0.518,0.051,0.99,0.091,1.27h-1.466c-0.078-0.279-0.09-0.628-0.09-0.976h-0.027c-0.404,0.584-0.913,1.087-1.881,1.087
				c-1.046,0-2.013-0.767-2.013-2.105c0-1.95,1.49-2.437,3.541-2.437h0.328v-0.265c0-0.711-0.328-1.368-1.256-1.368
				c-0.81,0-1.528,0.418-1.841,0.698 M72.044,97.786h-0.144c-1.386,0-2.209,0.305-2.209,1.353c0,0.654,0.405,1.101,1.033,1.101
				c0.967,0,1.32-0.768,1.32-2.051V97.786z"/>
			<path fill="#2398D0" d="M80.188,100.113c0,0.445,0.012,0.863,0.051,1.185h-1.516c-0.015-0.363-0.053-0.739-0.053-1.104
				l-0.04-0.011l0.013,0.011c-0.313,0.531-0.73,1.214-1.79,1.214c-1.529,0-1.987-1.214-1.987-2.662v-4.625h1.622v4.305
				c0,1.101,0.285,1.562,0.966,1.562c0.862,0,1.111-0.835,1.111-1.756v-4.11h1.622 M77.599,91.321h1.516l-1.333,2.007h-1.017
				L77.599,91.321z"/>
			<path fill="#2398D0" d="M86.984,90.847v9.223c0,0.515,0.013,0.961,0.054,1.227h-1.519c-0.027-0.208-0.052-0.625-0.052-1.114
				H85.43c-0.262,0.614-0.746,1.229-1.792,1.229c-1.673,0-2.366-1.703-2.366-3.694c0-2.341,0.876-3.706,2.327-3.706
				c0.968,0,1.503,0.585,1.739,1.142h0.026v-4.305 M84.083,100.14c0.953,0,1.281-1.1,1.281-2.453c0-1.392-0.368-2.409-1.255-2.409
				c-0.903,0-1.216,0.934-1.216,2.368C82.892,99.303,83.141,100.14,84.083,100.14"/>
			<path fill="#2398D0" d="M93.216,100.949c-0.339,0.152-1.044,0.46-2.013,0.46c-2.169,0-3.109-1.659-3.109-3.596
				c0-2.146,1.058-3.804,2.77-3.804c1.451,0,2.692,0.904,2.692,3.833v0.331h-3.896c0,1.229,0.458,1.967,1.713,1.967
				c0.993,0,1.463-0.32,1.764-0.56 M91.989,97.088c0-1.269-0.392-1.908-1.125-1.908c-0.851,0-1.203,0.961-1.203,1.908H91.989z"/>
			<path fill="#2398D0" d="M22.552,103.547c-10.889,0-19.748-8.706-19.748-19.406c0-10.699,8.859-19.404,19.748-19.404
				c10.888,0,19.749,8.705,19.749,19.404C42.301,94.841,33.44,103.547,22.552,103.547 M22.552,65.625
				c-10.391,0-18.844,8.307-18.844,18.516c0,10.21,8.453,18.517,18.844,18.517c10.391,0,18.844-8.307,18.844-18.517
				C41.396,73.932,32.943,65.625,22.552,65.625"/>
			<path fill="#2398D0" d="M22.552,98.213c-8.107,0-14.702-6.313-14.702-14.072c0-7.759,6.594-14.071,14.702-14.071
				c8.108,0,14.703,6.313,14.703,14.071C37.255,91.901,30.661,98.213,22.552,98.213 M22.552,71.061
				c-7.552,0-13.695,5.868-13.695,13.08c0,7.213,6.143,13.081,13.695,13.081c7.551,0,13.696-5.868,13.696-13.081
				C36.248,76.929,30.104,71.061,22.552,71.061"/>
			<polyline fill="#2398D0" points="6.954,77.39 7.212,78.34 8.154,78.34 7.469,78.873 7.726,79.705 6.915,79.048 6.119,79.766 
				6.439,78.873 5.625,78.343 6.571,78.364 			"/>
			<path fill="#2398D0" d="M7.825,79.847l-0.909-0.732l-0.762,0.688L6.073,79.75l0.305-0.855l-0.926-0.604l1.083,0.023l0.429-1.082
				L7.25,78.29h1.05L7.528,78.89 M5.798,78.397L6.5,78.854l-0.266,0.739l0.677-0.611l0.72,0.581l-0.219-0.708l0.599-0.466H7.174
				L6.945,77.55l-0.339,0.862L5.798,78.397z"/>
			<polyline fill="#2398D0" points="37.076,90.854 37.334,91.802 38.277,91.802 37.592,92.334 37.849,93.17 37.033,92.512 
				36.24,93.228 36.561,92.334 35.745,91.805 36.69,91.826 			"/>
			<path fill="#2398D0" d="M37.948,93.312l-0.912-0.736l-0.764,0.689l-0.081-0.054l0.309-0.855l-0.928-0.604l1.084,0.024
				l0.429-1.081l0.286,1.057h1.049l-0.773,0.603 M35.918,91.86l0.704,0.457l-0.267,0.739l0.675-0.612l0.723,0.583l-0.22-0.708
				l0.6-0.467h-0.838l-0.229-0.841l-0.342,0.865L35.918,91.86z"/>
			<polyline fill="#2398D0" points="7.963,90.641 8.221,91.59 9.165,91.59 8.479,92.125 8.736,92.958 7.921,92.3 7.127,93.014 
				7.45,92.125 6.634,91.594 7.579,91.616 			"/>
			<path fill="#2398D0" d="M8.833,93.1l-0.91-0.735l-0.762,0.687l-0.081-0.053l0.307-0.856l-0.925-0.602l1.082,0.025l0.428-1.084
				l0.288,1.059h1.05l-0.774,0.6 M6.808,91.647l0.702,0.457l-0.266,0.739l0.674-0.609l0.722,0.582l-0.219-0.71l0.6-0.466H8.182
				L7.954,90.8l-0.34,0.865L6.808,91.647z"/>
			<polyline fill="#2398D0" points="38.245,76.707 38.59,77.657 39.448,77.657 38.762,78.191 39.018,79.023 38.245,78.318 
				37.413,79.083 37.732,78.191 36.916,77.66 37.862,77.681 			"/>
			<path fill="#2398D0" d="M39.121,79.184l-0.875-0.798l-0.802,0.732l-0.081-0.053l0.309-0.856l-0.929-0.602l1.085,0.023l0.42-1.066
				l0.377,1.043h0.968l-0.773,0.6 M37.089,77.714l0.704,0.457l-0.267,0.736l0.72-0.658l0.67,0.611l-0.213-0.688l0.601-0.465h-0.75
				l-0.31-0.859l-0.348,0.884L37.089,77.714z"/>
			<path fill="#2398D0" d="M23.714,84.136c0.079-0.003,0.161-0.004,0.235,0"/>
			<polyline fill="#2398D0" points="12.549,95.167 12.961,95.541 10.996,97.627 10.553,97.228 11.09,94.958 11.082,94.953 
				9.68,96.442 9.267,96.068 11.235,93.98 11.701,94.402 11.172,96.617 11.179,96.622 			"/>
			<path fill="#2398D0" d="M23.289,69.287l-0.642-0.063l1.326-2.701l0.703,0.067l0.742,2.902l-0.662-0.063l-0.129-0.597
				l-1.075-0.103 M23.761,68.259l0.744,0.07l-0.249-1.143H24.25L23.761,68.259z"/>
			<polyline fill="#2398D0" points="27.228,69.42 28.61,69.854 28.443,70.333 26.479,69.721 27.405,67.067 27.988,67.249 			"/>
			<path fill="#2398D0" d="M31.683,71.145c-0.418,0.618-0.983,0.642-1.597,0.258c-0.224-0.14-0.521-0.399-0.579-0.769
				c-0.035-0.225,0.044-0.446,0.194-0.688l1.057-1.554l0.519,0.322l-1.035,1.523c-0.221,0.327-0.122,0.595,0.112,0.742
				c0.352,0.22,0.604,0.144,0.796-0.142l1.049-1.546l0.518,0.325"/>
			<polyline fill="#2398D0" points="33.006,73.376 32.535,73.002 34.081,71.231 33.4,70.692 33.733,70.311 35.566,71.762 
				35.232,72.145 34.553,71.603 			"/>
			<path fill="#2398D0" d="M20.052,68.63c0.03,0.156,0.161,0.439,0.688,0.364c0.283-0.041,0.59-0.154,0.542-0.449
				c-0.039-0.218-0.263-0.247-0.582-0.272l-0.323-0.025c-0.482-0.036-0.948-0.074-1.054-0.689c-0.053-0.312,0.028-0.888,0.963-1.023
				c0.885-0.127,1.215,0.4,1.279,0.744l-0.578,0.082c-0.038-0.123-0.137-0.411-0.663-0.334c-0.23,0.032-0.49,0.154-0.445,0.407
				c0.036,0.217,0.229,0.238,0.354,0.25l0.73,0.063c0.41,0.038,0.796,0.142,0.883,0.642c0.142,0.844-0.729,1.047-0.983,1.083
				c-1.051,0.152-1.333-0.41-1.392-0.758"/>
			<path fill="#2398D0" d="M13.444,68.708c0.341-0.173,1.317-0.483,1.95,0.69c0.633,1.173-0.19,1.77-0.532,1.942
				s-1.317,0.483-1.951-0.689C12.279,69.475,13.101,68.881,13.444,68.708 M14.624,70.898c0.292-0.146,0.607-0.529,0.231-1.227
				c-0.377-0.7-0.884-0.669-1.176-0.521c-0.29,0.146-0.605,0.527-0.229,1.228C13.828,71.078,14.332,71.046,14.624,70.898"/>
			<path fill="#2398D0" d="M9.235,72.108l1.016-1.031c0.536-0.543,1.04-0.269,1.22-0.102c0.229,0.21,0.313,0.505,0.183,0.771
				c0.24-0.099,0.394-0.129,0.783,0.227c0.302,0.279,0.377,0.351,0.503,0.29l0.055,0.051l-0.467,0.472
				c-0.125-0.061-0.25-0.143-0.463-0.338c-0.283-0.264-0.411-0.347-0.72-0.03l-0.435,0.438l0.812,0.749l-0.411,0.419 M11.053,72.032
				c0.218-0.219,0.248-0.4,0.044-0.59c-0.112-0.102-0.323-0.203-0.568,0.052l-0.525,0.528l0.555,0.513L11.053,72.032z"/>
			<polyline fill="#2398D0" points="30.479,96.828 30.973,96.564 32.389,98.998 31.857,99.284 29.814,98.105 29.805,98.11 
				30.812,99.845 30.318,100.113 28.906,97.678 29.463,97.376 31.457,98.528 31.463,98.524 			"/>
			<path fill="#2398D0" d="M31.537,96.049l1.015-0.759c0.773-0.582,1.449-0.063,1.788,0.358c0.386,0.474,0.742,1.304-0.019,1.873
				l-0.994,0.743 M33.488,97.531l0.468-0.349c0.391-0.29,0.216-0.771-0.08-1.133c-0.529-0.656-0.895-0.468-1.1-0.314l-0.46,0.345
				L33.488,97.531z"/>
			<polyline fill="#2398D0" points="36.401,95.64 36,96.082 33.813,94.232 34.213,93.79 			"/>
			<polyline fill="#2398D0" points="37.335,74.765 36.399,73.574 35.91,73.934 36.773,75.022 36.361,75.323 35.501,74.234 
				34.899,74.671 35.879,75.912 35.465,76.213 34.128,74.511 36.448,72.819 37.746,74.463 			"/>
			<path fill="#2398D0" d="M14.482,96.621c0.315,0.213,1.05,0.905,0.273,1.986c-0.778,1.082-1.703,0.652-2.02,0.438
				c-0.315-0.212-1.051-0.903-0.274-1.985C13.24,95.981,14.166,96.407,14.482,96.621 M13.03,98.639
				c0.27,0.182,0.762,0.277,1.228-0.369c0.464-0.645,0.201-1.062-0.07-1.243c-0.269-0.182-0.763-0.273-1.228,0.369
				C12.497,98.042,12.76,98.458,13.03,98.639"/>
			<polyline fill="#2398D0" points="17.571,98.143 18.156,98.362 16.181,100.649 15.644,100.451 15.794,97.485 16.398,97.708 
				16.175,99.916 16.182,99.917 			"/>
			<polyline fill="#2398D0" points="18.56,101.333 17.969,101.183 18.72,98.489 19.31,98.64 			"/>
			<polyline fill="#2398D0" points="25.461,101.547 24.892,101.586 24.727,99.244 24.718,99.244 24.34,101.622 23.743,101.662 
				23.045,99.353 23.036,99.353 23.2,101.702 22.635,101.738 22.436,98.934 23.325,98.874 24.009,101.048 24.017,101.048 
				24.382,98.802 25.265,98.745 			"/>
			<path fill="#2398D0" d="M28.839,99.805c0.193,0.722-0.174,1.141-0.886,1.315c-0.261,0.064-0.664,0.098-0.987-0.111
				c-0.199-0.13-0.319-0.338-0.397-0.611l-0.484-1.815l0.604-0.146l0.471,1.776c0.102,0.382,0.376,0.494,0.655,0.427
				c0.402-0.1,0.518-0.331,0.428-0.663l-0.479-1.806l0.604-0.146"/>
			<path fill="#2398D0" d="M9.532,76.216l-0.34,0.49l-2.408-1.585l0.746-1.076c0.317-0.452,0.806-0.531,1.279-0.218
				c0.219,0.142,0.687,0.622,0.248,1.253l-0.391,0.563 M8.565,74.915c0.254-0.366-0.015-0.541-0.122-0.613
				c-0.234-0.156-0.42-0.092-0.631,0.213L7.54,74.903l0.707,0.468L8.565,74.915z"/>
			<path fill="#2398D0" d="M25.433,95.201c0.211,0.48-0.339,0.358-0.554,0.531h-0.177C24.736,95.457,25.04,95.01,25.433,95.201"/>
			<path fill="#2398D0" d="M22.296,86.627v0.189h-0.748C21.478,86.404,22.12,86.333,22.296,86.627"/>
			<polyline fill="#2398D0" points="23.598,81.719 23.958,81.286 24.92,81.207 25.36,81.126 25.161,81.523 24.639,81.719 
				24.72,81.523 24.119,81.484 23.797,81.719 			"/>
			<polyline fill="#2398D0" points="25.962,81.168 26.283,81.128 26.642,81.286 26.442,81.522 26.082,81.603 25.919,81.798 
				25.72,81.642 25.401,81.719 25.361,81.561 25.64,81.485 25.522,81.327 25.64,81.208 			"/>
			<polyline fill="#2398D0" points="26.952,81.54 27.154,81.38 27.513,81.421 27.433,81.618 26.91,81.736 			"/>
			<polyline fill="#2398D0" points="24.119,81.996 24.518,81.958 24.438,82.193 24.04,82.193 			"/>
			<polyline fill="#2398D0" points="26.843,81.938 27.08,81.757 27.21,81.883 27.053,82.013 			"/>
			<polyline fill="#2398D0" points="26.636,82.319 26.838,82.556 26.998,82.48 26.875,82.083 			"/>
			<polyline fill="#2398D0" points="27.368,82.468 27.487,82.309 27.128,82.114 			"/>
			<line fill="#2398D0" x1="27.368" y1="82.468" x2="27.487" y2="82.309"/>
			<polyline fill="#2398D0" points="27.771,82.292 27.911,82.348 27.856,82.925 27.659,82.403 			"/>
			<path fill="#2398D0" d="M21.37,73.437c0.143-0.157,0.038-0.827-0.193-0.894c-0.27,0.411,0.549,0.601,0,0.894 M22.653,75.582
				c-0.031-0.322-0.114-1.004,0.19-1.431l0.184-0.186c-0.072,0.057-0.133,0.118-0.184,0.186l-0.368-0.356l0.178-0.187
				c-0.267,0.086-0.357-0.224-0.552-0.345c-0.25,0.671,1.353,1.528-0.179,1.598c-0.107-0.103-0.249-0.188-0.197-0.362h-0.177v0.191
				h0.177c-0.104,0.086-0.195,0.224-0.356,0.171c-0.016,0.206,0.038,0.43-0.193,0.533h0.372c0.106,0.103,0.25,0.188,0.177,0.359
				c0.25,0.07,0.625-0.154,0.75,0.173C22.421,75.771,22.563,75.686,22.653,75.582 M24.619,84.136
				c0.396-0.243,0.618-0.403,1.188-0.532c-0.056,0.174,0.086,0.259,0.175,0.361c0.408-0.459,0.66-0.084,0.963,0.171
				c0.152,0.127,0.316,0.223,0.517,0.171c0.011-0.056,0.039-0.111,0.072-0.171h0.196c0.275,0.662,1.314,1.051,1.405,1.788
				c0.64,0.31,1.533,0.051,2.031,0.703c1.3,1.425-1.565,1.941-1.104,3.403c-0.231,0.943-0.961,1.101-1.853,1.237
				c-0.286,0.718-0.854,1.012-1.478,1.425c-0.925-0.034-1.051,0.639-1.853,0.893c-0.284,0.927-1.071,1.188-1.299,2.147
				c0.144,0.292,0.64,0.12,0.55,0.532c-0.64,0.016-1.46-0.361-1.477-1.063c0.25-1.994,1.729-3.508,1.852-5.534
				c-0.998-0.72-1.158-2.094-1.104-3.382c0.641-0.324,0.5-0.963,0.729-1.428l-0.356-0.36c-0.373,0.535-0.624-0.273-1.121,0
				c-0.034-0.133-0.1-0.25-0.186-0.361c-0.206-0.258-0.517-0.467-0.742-0.72c-0.728-0.225-1.548-0.274-2.207-0.706
				c-0.838-0.066-0.356-0.994-1.104-1.251c-0.108,0.102-0.25,0.188-0.196,0.359c-1.194-0.31-0.714-1.597-1.284-2.319
				c0.126-0.508,0.148-0.979,0.039-1.427c-0.073-0.308-0.21-0.604-0.412-0.89c-1.176-1.274-2.478,0.924-3.884,0.171
				c0.517-0.035,0.944-0.277,1.282-0.704c-0.106-0.174-0.429-0.276-0.358-0.536l0.182-0.188l-0.182-0.173l0.182-0.172
				c-0.11-0.103-0.252-0.188-0.182-0.361c0.697-0.548,1.643-1.306,2.763-1.255c0.856-0.307,2.013,0.689,2.78-0.357
				c-0.392-0.02-0.802-0.587-0.375-0.876c0.267,0.034,0.553-0.429,0.749,0c0.23-0.122,0.178-0.345,0.178-0.552
				c0.606-0.327,1.265,0.688,1.48-0.171h0.372c-0.053,0.171,0.09,0.258,0.177,0.359l0.197-0.188l0.179,0.188
				c0.498-0.479,0.818,0.499,1.479,0.175c0.499,0.308,0.802,0.993,0.925,1.612c-0.194,0-0.427-0.052-0.553,0.172l0.748,0.724
				c0.232-0.121,0.179-0.345,0.179-0.553c0.891,0.448,1.425,1.359,1.853,2.151c-0.962,0.153-1.836,0.564-2.404,1.423
				c0.587,1.443-1.889,1.409-0.748,2.853l-0.369,0.365c-0.04-0.336-0.151-0.637-0.364-0.898c-0.96,0.603-2.635-0.602-2.402,1.255
				c0.248,0.206,0.231,0.516,0.552,0.705c0.462,0.204,0.625-0.362,0.925-0.533v-0.172h0.731c0.391,0.654-0.82,1.426,0.374,1.597
				c0,0.206,0.055,0.432-0.18,0.534c0.093,0.246,0.251,0.335,0.438,0.358c0.135,0.023,0.282,0.011,0.427,0h0.237
				c0.146,0.014,0.279,0.054,0.379,0.171C24.435,84.248,24.532,84.19,24.619,84.136"/>
			<path fill="#2398D0" d="M38.276,80.609c0.141-0.022,0.342-0.038,0.635-0.038c0.273,0,0.47,0.046,0.602,0.146
				c0.131,0.095,0.218,0.265,0.218,0.457c0,0.189-0.064,0.356-0.182,0.463c-0.159,0.136-0.382,0.195-0.638,0.195
				c-0.052,0-0.096-0.004-0.127-0.006v0.637h-0.508 M38.784,81.44c0.03,0.002,0.064,0.006,0.117,0.006
				c0.204,0,0.326-0.102,0.326-0.263c0-0.14-0.097-0.235-0.288-0.235c-0.08,0-0.128,0.007-0.155,0.013V81.44z"/>
			<path fill="#2398D0" d="M39.108,84.638l-0.109,0.436h-0.53l0.556-1.88h0.681l0.571,1.88h-0.553L39.6,84.638 M39.53,84.265
				l-0.089-0.338c-0.028-0.107-0.064-0.26-0.093-0.372h-0.005c-0.027,0.112-0.057,0.267-0.086,0.374l-0.082,0.336H39.53z"/>
			<polyline fill="#2398D0" points="38.697,85.876 38.697,86.572 39.316,86.572 39.316,85.876 39.826,85.876 39.826,87.757 
				39.316,87.757 39.316,87.011 38.697,87.011 38.697,87.757 38.182,87.757 38.182,85.876 			"/>
			<path fill="#2398D0" d="M39.371,89.458c0,0.606-0.366,0.99-0.957,0.99c-0.592,0-0.921-0.436-0.921-0.958
				c0-0.547,0.367-0.982,0.951-0.982C39.061,88.508,39.371,88.958,39.371,89.458 M38.038,89.483c0,0.35,0.156,0.567,0.403,0.567
				c0.245,0,0.391-0.235,0.391-0.572c0-0.324-0.148-0.571-0.396-0.571C38.194,88.907,38.038,89.135,38.038,89.483"/>
			<path fill="#2398D0" d="M7.094,82.503c0,0.606-0.369,0.99-0.958,0.99c-0.592,0-0.918-0.436-0.918-0.957
				c0-0.548,0.367-0.98,0.95-0.98C6.783,81.556,7.094,82.002,7.094,82.503 M5.758,82.528c0,0.35,0.157,0.568,0.403,0.568
				s0.392-0.236,0.392-0.573c0-0.325-0.148-0.571-0.396-0.571C5.915,81.952,5.758,82.18,5.758,82.528"/>
			<path fill="#2398D0" d="M5.219,84.611c0.137-0.023,0.339-0.039,0.631-0.039c0.274,0,0.469,0.046,0.603,0.146
				c0.13,0.095,0.218,0.264,0.218,0.456c0,0.189-0.063,0.356-0.184,0.464c-0.156,0.136-0.378,0.194-0.637,0.194
				c-0.049,0-0.095-0.002-0.125-0.005v0.639H5.219 M5.726,85.442c0.028,0.002,0.06,0.006,0.116,0.006
				c0.201,0,0.326-0.102,0.326-0.263c0-0.139-0.096-0.234-0.289-0.234c-0.077,0-0.129,0.007-0.152,0.012V85.442z"/>
			<path fill="#2398D0" d="M6.04,88.602c0.116,0.058,0.307,0.116,0.497,0.116c0.177,0,0.26-0.059,0.26-0.153
				c0-0.092-0.083-0.145-0.297-0.218c-0.325-0.109-0.538-0.286-0.538-0.565c0-0.332,0.283-0.589,0.764-0.589
				c0.229,0,0.393,0.042,0.519,0.097L7.14,87.692c-0.084-0.035-0.224-0.091-0.418-0.091c-0.156,0-0.241,0.058-0.241,0.142
				c0,0.095,0.102,0.133,0.343,0.224c0.343,0.122,0.499,0.303,0.499,0.566c0,0.323-0.258,0.601-0.815,0.601
				c-0.232,0-0.455-0.06-0.563-0.117"/>
			<path fill="#2398D0" d="M39.756,52.768c-18.494,0-29.332-8.325-29.332-24.436C10.424,12.496,21.263,3.9,39.756,3.9
				c18.492,0,29.559,8.595,29.559,24.432C69.315,44.443,58.249,52.768,39.756,52.768 M39.756,41.397
				c8.034,0,8.262-7.987,8.338-13.065c-0.076-4.398-0.608-13.061-8.338-13.061c-7.504,0-8.111,8.663-8.111,13.061
				C31.646,33.41,32.48,41.397,39.756,41.397"/>
			<path fill="#2398D0" d="M74.549,4.713h34.941c8.262,0,19.403,3.52,19.403,16.244c0,12.317-8.869,17.394-19.479,17.394H94.862
				v13.604H74.549V4.713z M94.332,27.386h4.471c4.851,0,9.778-0.813,9.778-6.091c0-5.008-4.928-5.618-9.854-5.618h-4.396V27.386z"/>
			<path fill="#2398D0" d="M142.922,4.713h27.967l18.871,47.241h-21.298l-3.486-10.219h-17.128l-3.258,10.219h-20.238L142.922,4.713
				z M150.652,30.364h11.747l-5.761-15.5h-0.153L150.652,30.364z"/>
			<path fill="#2398D0" d="M235.242,17.64c-4.546-1.421-9.93-2.37-15.689-2.37c-3.181,0-8.715,0.069-8.715,3.115
				c0,6.158,27.816,0.337,27.816,18.542c0,12.659-14.023,15.839-25.771,15.839c-7.805,0-14.25-0.678-21.827-2.234v-12.25
				c5.456,2.03,12.126,3.112,18.189,3.112c4.777,0,9.097-0.877,9.097-3.247c0-6.363-27.817-0.61-27.817-18.952
				c0-12.995,15.158-15.296,27.211-15.296c5.685,0,11.973,0.609,17.507,1.625V17.64z"/>
			<path fill="#2398D0" d="M184.908,100.639h-2.042l-0.449,1.63h-1.475l2.165-7.299h1.68l2.09,7.299h-1.57 M183.938,96.371h-0.019
				l-0.775,3.035h1.466L183.938,96.371z"/>
		</g>
	</g>
</g>
</svg>
