<?xml version="1.0" encoding="utf-8"?>
<!-- Generator: Adobe Illustrator 29.5.1, SVG Export Plug-In . SVG Version: 9.03 Build 0)  -->
<svg version="1.1" id="Camada_1" xmlns:ev="http://www.w3.org/2001/xml-events"
	 xmlns="http://www.w3.org/2000/svg" xmlns:xlink="http://www.w3.org/1999/xlink" x="0px" y="0px" width="264px" height="264px"
	 viewBox="0 0 264 264" style="enable-background:new 0 0 264 264;" xml:space="preserve">
<style type="text/css">
	.st0{fill:#FFFFFF;}
</style>
<rect class="st0" width="264" height="264"/>
<g>
	<g>
		<rect id="p" x="13" y="13" width="9.5" height="9.5"/>
	</g>
	<g>
		<rect id="p_00000084514273992609461100000007468668298281321094_" x="13" y="22.5" width="9.5" height="9.5"/>
	</g>
	<g>
		<rect id="p_00000008140454796477548160000012924703958263935627_" x="13" y="32.1" width="9.5" height="9.5"/>
	</g>
	<g>
		<rect id="p_00000164499281372024868310000006418361792332452022_" x="13" y="41.6" width="9.5" height="9.5"/>
	</g>
	<g>
		<rect id="p_00000102525021892950746710000013552992195767202963_" x="13" y="51.1" width="9.5" height="9.5"/>
	</g>
	<g>
		<rect id="p_00000111901571636614116900000006707679730768391082_" x="13" y="60.6" width="9.5" height="9.5"/>
	</g>
	<g>
		<rect id="p_00000140015915688428350350000000739153770144798892_" x="13" y="70.1" width="9.5" height="9.5"/>
	</g>
	<g>
		<rect id="p_00000073680630581731486550000015827703505083072438_" x="13" y="89.2" width="9.5" height="9.5"/>
	</g>
	<g>
		<rect id="p_00000072997485428448473470000003542341167123400342_" x="13" y="136.8" width="9.5" height="9.5"/>
	</g>
	<g>
		<rect id="p_00000106830140459526932530000009752703886453049749_" x="13" y="155.8" width="9.5" height="9.5"/>
	</g>
	<g>
		<rect id="p_00000110455888180907159360000011014984187968352697_" x="13" y="184.4" width="9.5" height="9.5"/>
	</g>
	<g>
		<rect id="p_00000122694287453419081960000010597987272512029877_" x="13" y="193.9" width="9.5" height="9.5"/>
	</g>
	<g>
		<rect id="p_00000093875897207764433540000003135224214766720132_" x="13" y="203.4" width="9.5" height="9.5"/>
	</g>
	<g>
		<rect id="p_00000132804234216419629350000002434097931109264520_" x="13" y="212.9" width="9.5" height="9.5"/>
	</g>
	<g>
		<rect id="p_00000080893606456990025350000014350830516629699748_" x="13" y="222.4" width="9.5" height="9.5"/>
	</g>
	<g>
		<rect id="p_00000049195871720602647710000008250058261930613412_" x="13" y="231.9" width="9.5" height="9.5"/>
	</g>
	<g>
		<rect id="p_00000060024709179432494850000017956212890383776655_" x="13" y="241.5" width="9.5" height="9.5"/>
	</g>
	<g>
		<rect id="p_00000023988289277038789040000015341368980195053243_" x="22.5" y="13" width="9.5" height="9.5"/>
	</g>
	<g>
		<rect id="p_00000049203932908956757960000000890185931046960034_" x="22.5" y="70.1" width="9.5" height="9.5"/>
	</g>
	<g>
		<rect id="p_00000168088128465718018690000008840114086498413736_" x="22.5" y="89.2" width="9.5" height="9.5"/>
	</g>
	<g>
		<rect id="p_00000157297584793112974070000018374856230732087482_" x="22.5" y="108.2" width="9.5" height="9.5"/>
	</g>
	<g>
		<rect id="p_00000137851135962562560580000016703682332548206764_" x="22.5" y="136.8" width="9.5" height="9.5"/>
	</g>
	<g>
		<rect id="p_00000109737168427922842880000013309956263457824176_" x="22.5" y="146.3" width="9.5" height="9.5"/>
	</g>
	<g>
		<rect id="p_00000134933846175675430370000006010822103366009501_" x="22.5" y="184.4" width="9.5" height="9.5"/>
	</g>
	<g>
		<rect id="p_00000135650490512610877750000000262072712371635611_" x="22.5" y="241.5" width="9.5" height="9.5"/>
	</g>
	<g>
		<rect id="p_00000005249950896722664840000017624595833910354820_" x="32.1" y="13" width="9.5" height="9.5"/>
	</g>
	<g>
		<rect id="p_00000027568781936399463730000000847512207651224232_" x="32.1" y="32.1" width="9.5" height="9.5"/>
	</g>
	<g>
		<rect id="p_00000157999959683340346260000001908347740479760815_" x="32.1" y="41.6" width="9.5" height="9.5"/>
	</g>
	<g>
		<rect id="p_00000127730969800069458200000008495735566046846619_" x="32.1" y="51.1" width="9.5" height="9.5"/>
	</g>
	<g>
		<rect id="p_00000115477854088744580190000017042531146454165685_" x="32.1" y="70.1" width="9.5" height="9.5"/>
	</g>
	<g>
		<rect id="p_00000101824631306119416820000008919886397882200731_" x="32.1" y="98.7" width="9.5" height="9.5"/>
	</g>
	<g>
		<rect id="p_00000133519336753582478170000015298871430671552911_" x="32.1" y="108.2" width="9.5" height="9.5"/>
	</g>
	<g>
		<rect id="p_00000039818994949419718160000011262568829367793804_" x="32.1" y="117.7" width="9.5" height="9.5"/>
	</g>
	<g>
		<rect id="p_00000034778219276452460080000006477800101611814071_" x="32.1" y="136.8" width="9.5" height="9.5"/>
	</g>
	<g>
		<rect id="p_00000160888932533555462330000013966818142640377022_" x="32.1" y="146.3" width="9.5" height="9.5"/>
	</g>
	<g>
		<rect id="p_00000000221557803413592840000017898896662268004761_" x="32.1" y="155.8" width="9.5" height="9.5"/>
	</g>
	<g>
		<rect id="p_00000165924267781292032990000011350245144972514454_" x="32.1" y="184.4" width="9.5" height="9.5"/>
	</g>
	<g>
		<rect id="p_00000029726312447562641380000004255271173689888387_" x="32.1" y="203.4" width="9.5" height="9.5"/>
	</g>
	<g>
		<rect id="p_00000055680944195461573260000003046813617165870510_" x="32.1" y="212.9" width="9.5" height="9.5"/>
	</g>
	<g>
		<rect id="p_00000058590381971254769040000002058643797490395809_" x="32.1" y="222.4" width="9.5" height="9.5"/>
	</g>
	<g>
		<rect id="p_00000044178722185847663750000012429902652317895591_" x="32.1" y="241.5" width="9.5" height="9.5"/>
	</g>
	<g>
		<rect id="p_00000057844975983481716290000002552345688292273320_" x="41.6" y="13" width="9.5" height="9.5"/>
	</g>
	<g>
		<rect id="p_00000090266417419071155160000013121967930664135298_" x="41.6" y="32.1" width="9.5" height="9.5"/>
	</g>
	<g>
		<rect id="p_00000003097698754142388980000013993788019526219454_" x="41.6" y="41.6" width="9.5" height="9.5"/>
	</g>
	<g>
		<rect id="p_00000070839264334840259360000000422615645262456732_" x="41.6" y="51.1" width="9.5" height="9.5"/>
	</g>
	<g>
		<rect id="p_00000057146566020285035020000000340797354045558197_" x="41.6" y="70.1" width="9.5" height="9.5"/>
	</g>
	<g>
		<rect id="p_00000096768361165834615120000013997699441083714739_" x="41.6" y="89.2" width="9.5" height="9.5"/>
	</g>
	<g>
		<rect id="p_00000183956088463363982390000013446607356132355254_" x="41.6" y="117.7" width="9.5" height="9.5"/>
	</g>
	<g>
		<rect id="p_00000019667295248633982540000009229577166861248663_" x="41.6" y="127.2" width="9.5" height="9.5"/>
	</g>
	<g>
		<rect id="p_00000017495612805748057520000006991180789448539543_" x="41.6" y="136.8" width="9.5" height="9.5"/>
	</g>
	<g>
		<rect id="p_00000158019836372766394210000002121203290196687512_" x="41.6" y="146.3" width="9.5" height="9.5"/>
	</g>
	<g>
		<rect id="p_00000097483671354799438730000011170568886095249816_" x="41.6" y="165.3" width="9.5" height="9.5"/>
	</g>
	<g>
		<rect id="p_00000091704024257021896390000005536391115771213227_" x="41.6" y="184.4" width="9.5" height="9.5"/>
	</g>
	<g>
		<rect id="p_00000111169039380964233930000006040749671274366612_" x="41.6" y="203.4" width="9.5" height="9.5"/>
	</g>
	<g>
		<rect id="p_00000180326247750554471490000011186437264122256039_" x="41.6" y="212.9" width="9.5" height="9.5"/>
	</g>
	<g>
		<rect id="p_00000031165319211687904540000012477217805633870729_" x="41.6" y="222.4" width="9.5" height="9.5"/>
	</g>
	<g>
		<rect id="p_00000169522699710649422070000000130436149388954302_" x="41.6" y="241.5" width="9.5" height="9.5"/>
	</g>
	<g>
		<rect id="p_00000016049594115769429300000015447949586739204742_" x="51.1" y="13" width="9.5" height="9.5"/>
	</g>
	<g>
		<rect id="p_00000008112318234025551190000001284847458669944987_" x="51.1" y="32.1" width="9.5" height="9.5"/>
	</g>
	<g>
		<rect id="p_00000018199552906126518520000001579927616041009809_" x="51.1" y="41.6" width="9.5" height="9.5"/>
	</g>
	<g>
		<rect id="p_00000152966315023682277710000000577879957090856377_" x="51.1" y="51.1" width="9.5" height="9.5"/>
	</g>
	<g>
		<rect id="p_00000122701353179220568370000017289354745502349441_" x="51.1" y="70.1" width="9.5" height="9.5"/>
	</g>
	<g>
		<rect id="p_00000181773077098905440420000003208951677637183884_" x="51.1" y="98.7" width="9.5" height="9.5"/>
	</g>
	<g>
		<rect id="p_00000023272470010357383600000000462893633734241159_" x="51.1" y="108.2" width="9.5" height="9.5"/>
	</g>
	<g>
		<rect id="p_00000020394152777340615950000013169029463294241409_" x="51.1" y="127.2" width="9.5" height="9.5"/>
	</g>
	<g>
		<rect id="p_00000066509932483422464850000012816011233363048086_" x="51.1" y="146.3" width="9.5" height="9.5"/>
	</g>
	<g>
		<rect id="p_00000029047440728321683990000003072600316682495656_" x="51.1" y="155.8" width="9.5" height="9.5"/>
	</g>
	<g>
		<rect id="p_00000073716505888441852450000009279028906130539693_" x="51.1" y="165.3" width="9.5" height="9.5"/>
	</g>
	<g>
		<rect id="p_00000007397142774247631980000010531659006973145022_" x="51.1" y="184.4" width="9.5" height="9.5"/>
	</g>
	<g>
		<rect id="p_00000120558489562628790170000013567866695327915455_" x="51.1" y="203.4" width="9.5" height="9.5"/>
	</g>
	<g>
		<rect id="p_00000074418712046267497220000017528851727982605996_" x="51.1" y="212.9" width="9.5" height="9.5"/>
	</g>
	<g>
		<rect id="p_00000125587711057996865560000013223508480150386073_" x="51.1" y="222.4" width="9.5" height="9.5"/>
	</g>
	<g>
		<rect id="p_00000040574923701028085580000002634394172191991988_" x="51.1" y="241.5" width="9.5" height="9.5"/>
	</g>
	<g>
		<rect id="p_00000041296682700613240920000018286411287913546914_" x="60.6" y="13" width="9.5" height="9.5"/>
	</g>
	<g>
		<rect id="p_00000082331368901056673090000018303772968457054655_" x="60.6" y="70.1" width="9.5" height="9.5"/>
	</g>
	<g>
		<rect id="p_00000015333523726453646650000016229714288700994697_" x="60.6" y="108.2" width="9.5" height="9.5"/>
	</g>
	<g>
		<rect id="p_00000176733861420031358080000017682414755436173500_" x="60.6" y="184.4" width="9.5" height="9.5"/>
	</g>
	<g>
		<rect id="p_00000158024061287112959170000003468551105236794794_" x="60.6" y="241.5" width="9.5" height="9.5"/>
	</g>
	<g>
		<rect id="p_00000132809619211561549140000013365237441359914633_" x="70.1" y="13" width="9.5" height="9.5"/>
	</g>
	<g>
		<rect id="p_00000105384326660244455550000002455710345245534878_" x="70.1" y="22.5" width="9.5" height="9.5"/>
	</g>
	<g>
		<rect id="p_00000025426141146247320870000018056671459760059555_" x="70.1" y="32.1" width="9.5" height="9.5"/>
	</g>
	<g>
		<rect id="p_00000067917564681008946420000012481011614843784586_" x="70.1" y="41.6" width="9.5" height="9.5"/>
	</g>
	<g>
		<rect id="p_00000057851787314394366740000015017834392808489362_" x="70.1" y="51.1" width="9.5" height="9.5"/>
	</g>
	<g>
		<rect id="p_00000140015390052663940830000009671892734690625160_" x="70.1" y="60.6" width="9.5" height="9.5"/>
	</g>
	<g>
		<rect id="p_00000142165850402757992610000012067547192434975655_" x="70.1" y="70.1" width="9.5" height="9.5"/>
	</g>
	<g>
		<rect id="p_00000069386882572193881040000018384723069890667437_" x="70.1" y="89.2" width="9.5" height="9.5"/>
	</g>
	<g>
		<rect id="p_00000090270476310977859870000003391617267709506445_" x="70.1" y="108.2" width="9.5" height="9.5"/>
	</g>
	<g>
		<rect id="p_00000175292812065507152710000001311332464877763210_" x="70.1" y="127.2" width="9.5" height="9.5"/>
	</g>
	<g>
		<rect id="p_00000064326993185637374290000016708047471689329801_" x="70.1" y="146.3" width="9.5" height="9.5"/>
	</g>
	<g>
		<rect id="p_00000041267828075781712450000001056718117183790732_" x="70.1" y="165.3" width="9.5" height="9.5"/>
	</g>
	<g>
		<rect id="p_00000152969812169808821360000009464565440608937385_" x="70.1" y="184.4" width="9.5" height="9.5"/>
	</g>
	<g>
		<rect id="p_00000017484794595601500270000004169927447506853002_" x="70.1" y="193.9" width="9.5" height="9.5"/>
	</g>
	<g>
		<rect id="p_00000158728104041560974380000005907812435211344792_" x="70.1" y="203.4" width="9.5" height="9.5"/>
	</g>
	<g>
		<rect id="p_00000176003438229147078390000002103627158587089823_" x="70.1" y="212.9" width="9.5" height="9.5"/>
	</g>
	<g>
		<rect id="p_00000016767492061422544980000002403692246332426373_" x="70.1" y="222.4" width="9.5" height="9.5"/>
	</g>
	<g>
		<rect id="p_00000052088693637681962770000001716570912235221379_" x="70.1" y="231.9" width="9.5" height="9.5"/>
	</g>
	<g>
		<rect id="p_00000147197053724331127010000012351381536845317258_" x="70.1" y="241.5" width="9.5" height="9.5"/>
	</g>
	<g>
		<rect id="p_00000114062550952084894120000003508669861328518280_" x="79.6" y="89.2" width="9.5" height="9.5"/>
	</g>
	<g>
		<rect id="p_00000179606265459783425620000000780391814381810100_" x="79.6" y="127.2" width="9.5" height="9.5"/>
	</g>
	<g>
		<rect id="p_00000053526854159860305340000008811483222561164448_" x="89.2" y="22.5" width="9.5" height="9.5"/>
	</g>
	<g>
		<rect id="p_00000168094185907969437890000016207415534519718843_" x="89.2" y="32.1" width="9.5" height="9.5"/>
	</g>
	<g>
		<rect id="p_00000159437567056138135010000013250237801407123606_" x="89.2" y="51.1" width="9.5" height="9.5"/>
	</g>
	<g>
		<rect id="p_00000173145799715082123890000002003619377579005875_" x="89.2" y="60.6" width="9.5" height="9.5"/>
	</g>
	<g>
		<rect id="p_00000097467545414126138720000016892156406242644646_" x="89.2" y="70.1" width="9.5" height="9.5"/>
	</g>
	<g>
		<rect id="p_00000116933616313979284930000015220615489135699844_" x="89.2" y="79.6" width="9.5" height="9.5"/>
	</g>
	<g>
		<rect id="p_00000018934520070137274800000007643476334682626707_" x="89.2" y="108.2" width="9.5" height="9.5"/>
	</g>
	<g>
		<rect id="p_00000114774090730610835510000011749388226378509968_" x="89.2" y="117.7" width="9.5" height="9.5"/>
	</g>
	<g>
		<rect id="p_00000062890322477144451190000018092435596370762654_" x="89.2" y="127.2" width="9.5" height="9.5"/>
	</g>
	<g>
		<rect id="p_00000008124336578579487760000008048739816987508122_" x="89.2" y="136.8" width="9.5" height="9.5"/>
	</g>
	<g>
		<rect id="p_00000065055125707823630810000001132484470404421270_" x="89.2" y="146.3" width="9.5" height="9.5"/>
	</g>
	<g>
		<rect id="p_00000114050040221560969500000005986174552033449360_" x="89.2" y="155.8" width="9.5" height="9.5"/>
	</g>
	<g>
		<rect id="p_00000180336411070612610180000009024530358594156713_" x="89.2" y="165.3" width="9.5" height="9.5"/>
	</g>
	<g>
		<rect id="p_00000029755098888764990340000014024003051321384594_" x="89.2" y="174.8" width="9.5" height="9.5"/>
	</g>
	<g>
		<rect id="p_00000080168343998228083190000012208522971027808181_" x="89.2" y="184.4" width="9.5" height="9.5"/>
	</g>
	<g>
		<rect id="p_00000078731074836529334160000011343929499603501720_" x="89.2" y="212.9" width="9.5" height="9.5"/>
	</g>
	<g>
		<rect id="p_00000083771361448163685880000015286891741992813711_" x="89.2" y="231.9" width="9.5" height="9.5"/>
	</g>
	<g>
		<rect id="p_00000039118759224167542730000001751400500963847302_" x="89.2" y="241.5" width="9.5" height="9.5"/>
	</g>
	<g>
		<rect id="p_00000021838222626156339270000013541461943551526025_" x="98.7" y="13" width="9.5" height="9.5"/>
	</g>
	<g>
		<rect id="p_00000069393180476106832890000014880142516712692369_" x="98.7" y="32.1" width="9.5" height="9.5"/>
	</g>
	<g>
		<rect id="p_00000114759463562406709960000004550067174428761487_" x="98.7" y="41.6" width="9.5" height="9.5"/>
	</g>
	<g>
		<rect id="p_00000008149210407028324040000006683007126506821556_" x="98.7" y="60.6" width="9.5" height="9.5"/>
	</g>
	<g>
		<rect id="p_00000000222949732322154400000001616168605186935438_" x="98.7" y="79.6" width="9.5" height="9.5"/>
	</g>
	<g>
		<rect id="p_00000047039076960866192520000009981417852597796770_" x="98.7" y="108.2" width="9.5" height="9.5"/>
	</g>
	<g>
		<rect id="p_00000099621095506309915330000015395079291019725981_" x="98.7" y="146.3" width="9.5" height="9.5"/>
	</g>
	<g>
		<rect id="p_00000072248526722682882380000007592067537647005118_" x="98.7" y="165.3" width="9.5" height="9.5"/>
	</g>
	<g>
		<rect id="p_00000010303751979113791400000003161611660607475347_" x="98.7" y="174.8" width="9.5" height="9.5"/>
	</g>
	<g>
		<rect id="p_00000070116470733237765360000016683982867033204625_" x="98.7" y="222.4" width="9.5" height="9.5"/>
	</g>
	<g>
		<rect id="p_00000052088310804323522650000010998208305829794960_" x="98.7" y="231.9" width="9.5" height="9.5"/>
	</g>
	<g>
		<rect id="p_00000066515148242826413370000002394960699023943089_" x="98.7" y="241.5" width="9.5" height="9.5"/>
	</g>
	<g>
		<rect id="p_00000155140268148949023510000006860697230853146261_" x="108.2" y="32.1" width="9.5" height="9.5"/>
	</g>
	<g>
		<rect id="p_00000178914184938502399480000013257953013025287609_" x="108.2" y="41.6" width="9.5" height="9.5"/>
	</g>
	<g>
		<rect id="p_00000076583621702747825770000018149203435942601622_" x="108.2" y="70.1" width="9.5" height="9.5"/>
	</g>
	<g>
		<rect id="p_00000103235605602941625200000013188343375723301005_" x="108.2" y="89.2" width="9.5" height="9.5"/>
	</g>
	<g>
		<rect id="p_00000080181323351966497050000009235261739356719276_" x="108.2" y="98.7" width="9.5" height="9.5"/>
	</g>
	<g>
		<rect id="p_00000106865332393418784070000008186366522720285577_" x="108.2" y="108.2" width="9.5" height="9.5"/>
	</g>
	<g>
		<rect id="p_00000090988875856046940180000008763679725463036343_" x="108.2" y="136.8" width="9.5" height="9.5"/>
	</g>
	<g>
		<rect id="p_00000099624113517547234330000002297888409524326823_" x="108.2" y="155.8" width="9.5" height="9.5"/>
	</g>
	<g>
		<rect id="p_00000099648023408165372510000002713321124125626795_" x="108.2" y="184.4" width="9.5" height="9.5"/>
	</g>
	<g>
		<rect id="p_00000091693805484230757730000011817142251704050833_" x="108.2" y="203.4" width="9.5" height="9.5"/>
	</g>
	<g>
		<rect id="p_00000130642804127721326490000006747367384770961569_" x="108.2" y="212.9" width="9.5" height="9.5"/>
	</g>
	<g>
		<rect id="p_00000088823272088554970980000000502899483082554544_" x="108.2" y="241.5" width="9.5" height="9.5"/>
	</g>
	<g>
		<rect id="p_00000003802485849177527810000000548541401428416672_" x="117.7" y="22.5" width="9.5" height="9.5"/>
	</g>
	<g>
		<rect id="p_00000163044546201325314050000009143402550511144336_" x="117.7" y="32.1" width="9.5" height="9.5"/>
	</g>
	<g>
		<rect id="p_00000090256909229732388400000016000925974924326284_" x="117.7" y="41.6" width="9.5" height="9.5"/>
	</g>
	<g>
		<rect id="p_00000155867234407047802650000008166812878559180474_" x="117.7" y="60.6" width="9.5" height="9.5"/>
	</g>
	<g>
		<rect id="p_00000067228488298016534840000017607077727795311769_" x="117.7" y="98.7" width="9.5" height="9.5"/>
	</g>
	<g>
		<rect id="p_00000030475344714837432240000015544040395063547834_" x="117.7" y="117.7" width="9.5" height="9.5"/>
	</g>
	<g>
		<rect id="p_00000074434752675911165610000008005733629936123278_" x="117.7" y="127.2" width="9.5" height="9.5"/>
	</g>
	<g>
		<rect id="p_00000075873682501203717340000001042860128761013130_" x="117.7" y="146.3" width="9.5" height="9.5"/>
	</g>
	<g>
		<rect id="p_00000153674154513180835650000001589186072091136938_" x="117.7" y="174.8" width="9.5" height="9.5"/>
	</g>
	<g>
		<rect id="p_00000064348561359608614260000000695508386304525989_" x="117.7" y="203.4" width="9.5" height="9.5"/>
	</g>
	<g>
		<rect id="p_00000163781983675543055550000017998129409971202212_" x="117.7" y="231.9" width="9.5" height="9.5"/>
	</g>
	<g>
		<rect id="p_00000064333411946346685030000002838055529061619633_" x="117.7" y="241.5" width="9.5" height="9.5"/>
	</g>
	<g>
		<rect id="p_00000042724846055264273830000005445368612911523506_" x="127.2" y="13" width="9.5" height="9.5"/>
	</g>
	<g>
		<rect id="p_00000054955511172278144040000011095533748459644345_" x="127.2" y="22.5" width="9.5" height="9.5"/>
	</g>
	<g>
		<rect id="p_00000097467349702843794360000004264550931523193770_" x="127.2" y="32.1" width="9.5" height="9.5"/>
	</g>
	<g>
		<rect id="p_00000113332269049180346440000017337385747021635221_" x="127.2" y="70.1" width="9.5" height="9.5"/>
	</g>
	<g>
		<rect id="p_00000073714570822993857910000013828102592073161886_" x="127.2" y="79.6" width="9.5" height="9.5"/>
	</g>
	<g>
		<rect id="p_00000098904095100364840880000012438937653924713606_" x="127.2" y="89.2" width="9.5" height="9.5"/>
	</g>
	<g>
		<rect id="p_00000101100454916333490180000001059258604769026947_" x="127.2" y="117.7" width="9.5" height="9.5"/>
	</g>
	<g>
		<rect id="p_00000025441723269326490140000007214708920203367321_" x="127.2" y="127.2" width="9.5" height="9.5"/>
	</g>
	<g>
		<rect id="p_00000012445785087828271030000011073972201060936373_" x="127.2" y="155.8" width="9.5" height="9.5"/>
	</g>
	<g>
		<rect id="p_00000072261569406216072690000008457298492550888115_" x="127.2" y="165.3" width="9.5" height="9.5"/>
	</g>
	<g>
		<rect id="p_00000071544451688890092540000009053390349208179863_" x="127.2" y="174.8" width="9.5" height="9.5"/>
	</g>
	<g>
		<rect id="p_00000042714046649173495550000001312877648736385413_" x="127.2" y="184.4" width="9.5" height="9.5"/>
	</g>
	<g>
		<rect id="p_00000054953128598018677090000004620078653071440056_" x="127.2" y="212.9" width="9.5" height="9.5"/>
	</g>
	<g>
		<rect id="p_00000005950369144268720370000003522523876541498256_" x="127.2" y="231.9" width="9.5" height="9.5"/>
	</g>
	<g>
		<rect id="p_00000054258170355537709580000001866011962808082561_" x="127.2" y="241.5" width="9.5" height="9.5"/>
	</g>
	<g>
		<rect id="p_00000042699165367595612140000017304966898086571436_" x="136.8" y="13" width="9.5" height="9.5"/>
	</g>
	<g>
		<rect id="p_00000129185040225513860200000001719148523344247740_" x="136.8" y="51.1" width="9.5" height="9.5"/>
	</g>
	<g>
		<rect id="p_00000151531883286913286420000004662599413804218515_" x="136.8" y="89.2" width="9.5" height="9.5"/>
	</g>
	<g>
		<rect id="p_00000006671120770671035740000006611000025538935952_" x="136.8" y="98.7" width="9.5" height="9.5"/>
	</g>
	<g>
		<rect id="p_00000078723557380961815120000017890967333660823431_" x="136.8" y="108.2" width="9.5" height="9.5"/>
	</g>
	<g>
		<rect id="p_00000150080046137188111050000012488473512881599373_" x="136.8" y="117.7" width="9.5" height="9.5"/>
	</g>
	<g>
		<rect id="p_00000098186617313373952030000006661584304339078535_" x="136.8" y="127.2" width="9.5" height="9.5"/>
	</g>
	<g>
		<rect id="p_00000069375048180000398500000011118029028085164429_" x="136.8" y="136.8" width="9.5" height="9.5"/>
	</g>
	<g>
		<rect id="p_00000099642729137702854210000001885703396907362736_" x="136.8" y="155.8" width="9.5" height="9.5"/>
	</g>
	<g>
		<rect id="p_00000060012437554086405050000004798544402433058477_" x="136.8" y="174.8" width="9.5" height="9.5"/>
	</g>
	<g>
		<rect id="p_00000088823234645265365630000004605292700042321560_" x="136.8" y="203.4" width="9.5" height="9.5"/>
	</g>
	<g>
		<rect id="p_00000092432723825777277780000002410451464848179878_" x="136.8" y="231.9" width="9.5" height="9.5"/>
	</g>
	<g>
		<rect id="p_00000085247998414568078710000006014496911430025895_" x="136.8" y="241.5" width="9.5" height="9.5"/>
	</g>
	<g>
		<rect id="p_00000136372446710484900840000016898544189919079300_" x="146.3" y="13" width="9.5" height="9.5"/>
	</g>
	<g>
		<rect id="p_00000000932067373429288430000012432879258488516790_" x="146.3" y="32.1" width="9.5" height="9.5"/>
	</g>
	<g>
		<rect id="p_00000014624808427307328630000004137015166048850072_" x="146.3" y="41.6" width="9.5" height="9.5"/>
	</g>
	<g>
		<rect id="p_00000098914155670445666810000002481881313724731010_" x="146.3" y="60.6" width="9.5" height="9.5"/>
	</g>
	<g>
		<rect id="p_00000054225223773263647060000009900816362087817887_" x="146.3" y="70.1" width="9.5" height="9.5"/>
	</g>
	<g>
		<rect id="p_00000135672999980678924670000011950376567667750066_" x="146.3" y="89.2" width="9.5" height="9.5"/>
	</g>
	<g>
		<rect id="p_00000178898653452654912450000007638308172865438359_" x="146.3" y="146.3" width="9.5" height="9.5"/>
	</g>
	<g>
		<rect id="p_00000130619453813076250040000013100731682175891646_" x="146.3" y="155.8" width="9.5" height="9.5"/>
	</g>
	<g>
		<rect id="p_00000062874078966744806720000002781695281222158513_" x="146.3" y="174.8" width="9.5" height="9.5"/>
	</g>
	<g>
		<rect id="p_00000062181660388900290410000012576067082931229840_" x="146.3" y="193.9" width="9.5" height="9.5"/>
	</g>
	<g>
		<rect id="p_00000121995243623318037580000010619336497476265633_" x="146.3" y="231.9" width="9.5" height="9.5"/>
	</g>
	<g>
		<rect id="p_00000124149840700846516540000017624066237880473988_" x="155.8" y="13" width="9.5" height="9.5"/>
	</g>
	<g>
		<rect id="p_00000139980187737031837390000014624891332664258944_" x="155.8" y="22.5" width="9.5" height="9.5"/>
	</g>
	<g>
		<rect id="p_00000017488554303887094180000005430304082362547878_" x="155.8" y="32.1" width="9.5" height="9.5"/>
	</g>
	<g>
		<rect id="p_00000098181984970721383570000001196300635253633169_" x="155.8" y="41.6" width="9.5" height="9.5"/>
	</g>
	<g>
		<rect id="p_00000052797101922298551650000011377927119191316901_" x="155.8" y="51.1" width="9.5" height="9.5"/>
	</g>
	<g>
		<rect id="p_00000127759304719818119500000007154851315597874831_" x="155.8" y="60.6" width="9.5" height="9.5"/>
	</g>
	<g>
		<rect id="p_00000139272032635235715810000008185925962862702511_" x="155.8" y="89.2" width="9.5" height="9.5"/>
	</g>
	<g>
		<rect id="p_00000146497246871115145110000005302770491834447506_" x="155.8" y="127.2" width="9.5" height="9.5"/>
	</g>
	<g>
		<rect id="p_00000007408185994497916960000002008427268252258439_" x="155.8" y="155.8" width="9.5" height="9.5"/>
	</g>
	<g>
		<rect id="p_00000147906672092583867760000006302397645729512325_" x="155.8" y="165.3" width="9.5" height="9.5"/>
	</g>
	<g>
		<rect id="p_00000054972586495955506970000008788878764510351488_" x="155.8" y="174.8" width="9.5" height="9.5"/>
	</g>
	<g>
		<rect id="p_00000065761924105057754840000007650932280537533580_" x="155.8" y="184.4" width="9.5" height="9.5"/>
	</g>
	<g>
		<rect id="p_00000088854073144088937310000016016071001429244847_" x="155.8" y="212.9" width="9.5" height="9.5"/>
	</g>
	<g>
		<rect id="p_00000013179652557405579800000017515313023227113661_" x="155.8" y="222.4" width="9.5" height="9.5"/>
	</g>
	<g>
		<rect id="p_00000163043297235969753810000013220577545150522553_" x="155.8" y="241.5" width="9.5" height="9.5"/>
	</g>
	<g>
		<rect id="p_00000009550214906441918700000014205190246030733452_" x="165.3" y="22.5" width="9.5" height="9.5"/>
	</g>
	<g>
		<rect id="p_00000172406864723406876500000000678206561816857780_" x="165.3" y="32.1" width="9.5" height="9.5"/>
	</g>
	<g>
		<rect id="p_00000125577812938436396100000018255690186233289873_" x="165.3" y="51.1" width="9.5" height="9.5"/>
	</g>
	<g>
		<rect id="p_00000072278716876112279780000015836992324032884366_" x="165.3" y="70.1" width="9.5" height="9.5"/>
	</g>
	<g>
		<rect id="p_00000083803473105464056750000012487506719365631376_" x="165.3" y="89.2" width="9.5" height="9.5"/>
	</g>
	<g>
		<rect id="p_00000062900417637327558490000011984873985383881869_" x="165.3" y="117.7" width="9.5" height="9.5"/>
	</g>
	<g>
		<rect id="p_00000101797102815938516640000009302334250729987503_" x="165.3" y="127.2" width="9.5" height="9.5"/>
	</g>
	<g>
		<rect id="p_00000124879094849234674820000003262963392351360646_" x="165.3" y="165.3" width="9.5" height="9.5"/>
	</g>
	<g>
		<rect id="p_00000136398712991413390750000010126647497823534221_" x="165.3" y="174.8" width="9.5" height="9.5"/>
	</g>
	<g>
		<rect id="p_00000072274151122422333220000017925208568441182853_" x="165.3" y="184.4" width="9.5" height="9.5"/>
	</g>
	<g>
		<rect id="p_00000027584179971914467980000012637375153846176912_" x="165.3" y="193.9" width="9.5" height="9.5"/>
	</g>
	<g>
		<rect id="p_00000093176685718981312180000011454242404649306792_" x="165.3" y="203.4" width="9.5" height="9.5"/>
	</g>
	<g>
		<rect id="p_00000145023696696376317820000001694380959175235473_" x="165.3" y="231.9" width="9.5" height="9.5"/>
	</g>
	<g>
		<rect id="p_00000016796859148776346940000018440454635139814019_" x="165.3" y="241.5" width="9.5" height="9.5"/>
	</g>
	<g>
		<rect id="p_00000042710213477997937700000012189342342067791550_" x="174.8" y="98.7" width="9.5" height="9.5"/>
	</g>
	<g>
		<rect id="p_00000120558925515746690690000016711602291324978096_" x="174.8" y="108.2" width="9.5" height="9.5"/>
	</g>
	<g>
		<rect id="p_00000058552740151808306780000006596163994266252974_" x="174.8" y="117.7" width="9.5" height="9.5"/>
	</g>
	<g>
		<rect id="p_00000140727930550984672010000013461437815795255697_" x="174.8" y="127.2" width="9.5" height="9.5"/>
	</g>
	<g>
		<rect id="p_00000062172119357777038950000005047607322202047900_" x="174.8" y="136.8" width="9.5" height="9.5"/>
	</g>
	<g>
		<rect id="p_00000150101801934548462780000002384347771000727973_" x="174.8" y="155.8" width="9.5" height="9.5"/>
	</g>
	<g>
		<rect id="p_00000065069282089726645070000016539387998448063908_" x="174.8" y="165.3" width="9.5" height="9.5"/>
	</g>
	<g>
		<rect id="p_00000106836571216086237210000008604936428302411952_" x="174.8" y="203.4" width="9.5" height="9.5"/>
	</g>
	<g>
		<rect id="p_00000176734594837086359340000010596353946864957375_" x="174.8" y="231.9" width="9.5" height="9.5"/>
	</g>
	<g>
		<rect id="p_00000008108555690677780670000008664164439494517943_" x="174.8" y="241.5" width="9.5" height="9.5"/>
	</g>
	<g>
		<rect id="p_00000114756524531561498780000005791278571626366365_" x="184.4" y="13" width="9.5" height="9.5"/>
	</g>
	<g>
		<rect id="p_00000067218931783159477470000011282356196432640386_" x="184.4" y="22.5" width="9.5" height="9.5"/>
	</g>
	<g>
		<rect id="p_00000103982777270126477360000000159686836945685411_" x="184.4" y="32.1" width="9.5" height="9.5"/>
	</g>
	<g>
		<rect id="p_00000040564269094519817980000016083091278634064279_" x="184.4" y="41.6" width="9.5" height="9.5"/>
	</g>
	<g>
		<rect id="p_00000160895115224877795540000017956756045849689733_" x="184.4" y="51.1" width="9.5" height="9.5"/>
	</g>
	<g>
		<rect id="p_00000083070609106321776660000000178940460672595125_" x="184.4" y="60.6" width="9.5" height="9.5"/>
	</g>
	<g>
		<rect id="p_00000149378751148571743560000007252374171390978957_" x="184.4" y="70.1" width="9.5" height="9.5"/>
	</g>
	<g>
		<rect id="p_00000029735728721154181920000014270764136554927528_" x="184.4" y="89.2" width="9.5" height="9.5"/>
	</g>
	<g>
		<rect id="p_00000052062861505154706670000011461378868614020754_" x="184.4" y="98.7" width="9.5" height="9.5"/>
	</g>
	<g>
		<rect id="p_00000008126084262664975370000011790243555723960967_" x="184.4" y="117.7" width="9.5" height="9.5"/>
	</g>
	<g>
		<rect id="p_00000128456479339134083520000003379382863205049514_" x="184.4" y="127.2" width="9.5" height="9.5"/>
	</g>
	<g>
		<rect id="p_00000072962389486682372340000017271256669314446482_" x="184.4" y="136.8" width="9.5" height="9.5"/>
	</g>
	<g>
		<rect id="p_00000075151836946894859480000000357802788189371529_" x="184.4" y="165.3" width="9.5" height="9.5"/>
	</g>
	<g>
		<rect id="p_00000108999080004249517820000001167640108352048794_" x="184.4" y="184.4" width="9.5" height="9.5"/>
	</g>
	<g>
		<rect id="p_00000021081128583934442260000006730394545506101134_" x="184.4" y="203.4" width="9.5" height="9.5"/>
	</g>
	<g>
		<rect id="p_00000111153665009027452670000014764486881452006844_" x="184.4" y="241.5" width="9.5" height="9.5"/>
	</g>
	<g>
		<rect id="p_00000058561979327245956540000005457354677594039204_" x="193.9" y="13" width="9.5" height="9.5"/>
	</g>
	<g>
		<rect id="p_00000127724052330725818420000011651073097283115963_" x="193.9" y="70.1" width="9.5" height="9.5"/>
	</g>
	<g>
		<rect id="p_00000080897820270241877800000000743665155365549496_" x="193.9" y="89.2" width="9.5" height="9.5"/>
	</g>
	<g>
		<rect id="p_00000158716567471606013090000011119239597030843826_" x="193.9" y="108.2" width="9.5" height="9.5"/>
	</g>
	<g>
		<rect id="p_00000164487213298442602440000007087793316260803231_" x="193.9" y="117.7" width="9.5" height="9.5"/>
	</g>
	<g>
		<rect id="p_00000098194881128489391000000007968298461484842673_" x="193.9" y="136.8" width="9.5" height="9.5"/>
	</g>
	<g>
		<rect id="p_00000074416598003641561700000002619142337418523035_" x="193.9" y="146.3" width="9.5" height="9.5"/>
	</g>
	<g>
		<rect id="p_00000111897128852608399160000013962253550703173510_" x="193.9" y="165.3" width="9.5" height="9.5"/>
	</g>
	<g>
		<rect id="p_00000147210858093454318060000011380668273687954560_" x="193.9" y="203.4" width="9.5" height="9.5"/>
	</g>
	<g>
		<rect id="p_00000013180032022476528130000011635887579730052540_" x="193.9" y="212.9" width="9.5" height="9.5"/>
	</g>
	<g>
		<rect id="p_00000131332041532312734690000005502578583222860733_" x="193.9" y="222.4" width="9.5" height="9.5"/>
	</g>
	<g>
		<rect id="p_00000106120084867131316520000008701101996376966557_" x="193.9" y="241.5" width="9.5" height="9.5"/>
	</g>
	<g>
		<rect id="p_00000102502879457538744610000009243086498632231074_" x="203.4" y="13" width="9.5" height="9.5"/>
	</g>
	<g>
		<rect id="p_00000101804091981877965570000000922923884153899952_" x="203.4" y="32.1" width="9.5" height="9.5"/>
	</g>
	<g>
		<rect id="p_00000131359947635208638500000018329836156465041086_" x="203.4" y="41.6" width="9.5" height="9.5"/>
	</g>
	<g>
		<rect id="p_00000143617892870711422400000013553663070644647097_" x="203.4" y="51.1" width="9.5" height="9.5"/>
	</g>
	<g>
		<rect id="p_00000062896749797279880530000006005899623784160672_" x="203.4" y="70.1" width="9.5" height="9.5"/>
	</g>
	<g>
		<rect id="p_00000154412758723672747680000005215922666584615358_" x="203.4" y="89.2" width="9.5" height="9.5"/>
	</g>
	<g>
		<rect id="p_00000088092441410496515660000002926492720177608887_" x="203.4" y="117.7" width="9.5" height="9.5"/>
	</g>
	<g>
		<rect id="p_00000001627607244093574190000009438562876491149973_" x="203.4" y="146.3" width="9.5" height="9.5"/>
	</g>
	<g>
		<rect id="p_00000031182929186391515110000012481815196208182694_" x="203.4" y="155.8" width="9.5" height="9.5"/>
	</g>
	<g>
		<rect id="p_00000082342456113440088280000001500452210307915435_" x="203.4" y="165.3" width="9.5" height="9.5"/>
	</g>
	<g>
		<rect id="p_00000001653902220092696470000011145732795646515861_" x="203.4" y="174.8" width="9.5" height="9.5"/>
	</g>
	<g>
		<rect id="p_00000072969588264733733900000011878264519657699746_" x="203.4" y="184.4" width="9.5" height="9.5"/>
	</g>
	<g>
		<rect id="p_00000183231250942742335800000006478003548788609192_" x="203.4" y="193.9" width="9.5" height="9.5"/>
	</g>
	<g>
		<rect id="p_00000100362225239505688000000018334416506772862388_" x="203.4" y="203.4" width="9.5" height="9.5"/>
	</g>
	<g>
		<rect id="p_00000158743398894243310720000008438806583857477263_" x="203.4" y="212.9" width="9.5" height="9.5"/>
	</g>
	<g>
		<rect id="p_00000045595405505148506640000014201169030093846184_" x="203.4" y="222.4" width="9.5" height="9.5"/>
	</g>
	<g>
		<rect id="p_00000072268308556455965720000009420366314351603864_" x="212.9" y="13" width="9.5" height="9.5"/>
	</g>
	<g>
		<rect id="p_00000070089430017450985380000000605183651449593791_" x="212.9" y="32.1" width="9.5" height="9.5"/>
	</g>
	<g>
		<rect id="p_00000045609213191430361750000011674934840531329163_" x="212.9" y="41.6" width="9.5" height="9.5"/>
	</g>
	<g>
		<rect id="p_00000180324968582747976490000013405165310893407935_" x="212.9" y="51.1" width="9.5" height="9.5"/>
	</g>
	<g>
		<rect id="p_00000156559634921775348610000012719672325199465614_" x="212.9" y="70.1" width="9.5" height="9.5"/>
	</g>
	<g>
		<rect id="p_00000139261038951137399720000018032764404642139020_" x="212.9" y="127.2" width="9.5" height="9.5"/>
	</g>
	<g>
		<rect id="p_00000044172473015425827380000000723242224711690900_" x="212.9" y="136.8" width="9.5" height="9.5"/>
	</g>
	<g>
		<rect id="p_00000036241513047826826290000011383801948967999899_" x="212.9" y="165.3" width="9.5" height="9.5"/>
	</g>
	<g>
		<rect id="p_00000129894327094051463310000013979061471953655735_" x="212.9" y="174.8" width="9.5" height="9.5"/>
	</g>
	<g>
		<rect id="p_00000163760487848052598100000014287499715788403588_" x="212.9" y="184.4" width="9.5" height="9.5"/>
	</g>
	<g>
		<rect id="p_00000080896997340773202920000008692181723411716488_" x="212.9" y="193.9" width="9.5" height="9.5"/>
	</g>
	<g>
		<rect id="p_00000060729016044434499910000003749507875582879133_" x="212.9" y="203.4" width="9.5" height="9.5"/>
	</g>
	<g>
		<rect id="p_00000024686719016277686010000001846696224836806536_" x="212.9" y="212.9" width="9.5" height="9.5"/>
	</g>
	<g>
		<rect id="p_00000147196196037068908510000002714481251676605578_" x="212.9" y="231.9" width="9.5" height="9.5"/>
	</g>
	<g>
		<rect id="p_00000098927514206155908360000008075439330589707451_" x="222.4" y="13" width="9.5" height="9.5"/>
	</g>
	<g>
		<rect id="p_00000088847533006411754340000008140953716983972759_" x="222.4" y="32.1" width="9.5" height="9.5"/>
	</g>
	<g>
		<rect id="p_00000178190479746249925990000005006002422847804042_" x="222.4" y="41.6" width="9.5" height="9.5"/>
	</g>
	<g>
		<rect id="p_00000007428337709810314890000002923505207074507176_" x="222.4" y="51.1" width="9.5" height="9.5"/>
	</g>
	<g>
		<rect id="p_00000106117211911332692740000010684078009818636161_" x="222.4" y="70.1" width="9.5" height="9.5"/>
	</g>
	<g>
		<rect id="p_00000074421955141495247420000000570026525836432551_" x="222.4" y="89.2" width="9.5" height="9.5"/>
	</g>
	<g>
		<rect id="p_00000096039695638946390610000007541431378046537404_" x="222.4" y="136.8" width="9.5" height="9.5"/>
	</g>
	<g>
		<rect id="p_00000085232978107340632230000002190604729664535958_" x="222.4" y="146.3" width="9.5" height="9.5"/>
	</g>
	<g>
		<rect id="p_00000027587296393444291110000012228267988371277455_" x="222.4" y="165.3" width="9.5" height="9.5"/>
	</g>
	<g>
		<rect id="p_00000023277589022891066010000012911117466584956582_" x="222.4" y="193.9" width="9.5" height="9.5"/>
	</g>
	<g>
		<rect id="p_00000085937263506580346140000018183903200351126161_" x="222.4" y="212.9" width="9.5" height="9.5"/>
	</g>
	<g>
		<rect id="p_00000035514973331194071810000016750278774575306113_" x="222.4" y="222.4" width="9.5" height="9.5"/>
	</g>
	<g>
		<rect id="p_00000101076364453120680640000018294744761158407831_" x="231.9" y="13" width="9.5" height="9.5"/>
	</g>
	<g>
		<rect id="p_00000140004927351071110020000008638490150668128931_" x="231.9" y="70.1" width="9.5" height="9.5"/>
	</g>
	<g>
		<rect id="p_00000040556281396501059690000000939663497290533771_" x="231.9" y="89.2" width="9.5" height="9.5"/>
	</g>
	<g>
		<rect id="p_00000104688868939976514040000003413279861579636388_" x="231.9" y="108.2" width="9.5" height="9.5"/>
	</g>
	<g>
		<rect id="p_00000005249001542221480590000013545430463508116157_" x="231.9" y="127.2" width="9.5" height="9.5"/>
	</g>
	<g>
		<rect id="p_00000002350663424603525070000003564383250148146097_" x="231.9" y="155.8" width="9.5" height="9.5"/>
	</g>
	<g>
		<rect id="p_00000084489782356534114360000007025968844755683460_" x="231.9" y="184.4" width="9.5" height="9.5"/>
	</g>
	<g>
		<rect id="p_00000065771525959495230120000015669263177428913036_" x="231.9" y="203.4" width="9.5" height="9.5"/>
	</g>
	<g>
		<rect id="p_00000152974383119410593540000014240399156634220211_" x="231.9" y="241.5" width="9.5" height="9.5"/>
	</g>
	<g>
		<rect id="p_00000133525441625473477240000002578536696610647201_" x="241.5" y="13" width="9.5" height="9.5"/>
	</g>
	<g>
		<rect id="p_00000138555164223812015170000001209270504031875976_" x="241.5" y="22.5" width="9.5" height="9.5"/>
	</g>
	<g>
		<rect id="p_00000135658720447687002050000014383145185499396762_" x="241.5" y="32.1" width="9.5" height="9.5"/>
	</g>
	<g>
		<rect id="p_00000023261505801996542300000011795127274318767548_" x="241.5" y="41.6" width="9.5" height="9.5"/>
	</g>
	<g>
		<rect id="p_00000020391983681583005040000002989027570606827157_" x="241.5" y="51.1" width="9.5" height="9.5"/>
	</g>
	<g>
		<rect id="p_00000055697341147148780910000012365738701776032139_" x="241.5" y="60.6" width="9.5" height="9.5"/>
	</g>
	<g>
		<rect id="p_00000011729653771268880780000004172825868153088659_" x="241.5" y="70.1" width="9.5" height="9.5"/>
	</g>
	<g>
		<rect id="p_00000093899660405253907540000001814055797287572907_" x="241.5" y="98.7" width="9.5" height="9.5"/>
	</g>
	<g>
		<rect id="p_00000039114280240099373890000017094127009518236545_" x="241.5" y="108.2" width="9.5" height="9.5"/>
	</g>
	<g>
		<rect id="p_00000049920630554716350140000000493289116998450111_" x="241.5" y="127.2" width="9.5" height="9.5"/>
	</g>
	<g>
		<rect id="p_00000155109204308106368890000001191793435904343743_" x="241.5" y="136.8" width="9.5" height="9.5"/>
	</g>
	<g>
		<rect id="p_00000097477765190212482520000004898288841497529507_" x="241.5" y="146.3" width="9.5" height="9.5"/>
	</g>
	<g>
		<rect id="p_00000169548433561492956190000016530827156194547869_" x="241.5" y="174.8" width="9.5" height="9.5"/>
	</g>
	<g>
		<rect id="p_00000049913003316635524890000012494882292915289229_" x="241.5" y="184.4" width="9.5" height="9.5"/>
	</g>
	<g>
		<rect id="p_00000109747005566593980080000005604913736820016564_" x="241.5" y="193.9" width="9.5" height="9.5"/>
	</g>
	<g>
		<rect id="p_00000089562466199363461630000005667860987333065360_" x="241.5" y="222.4" width="9.5" height="9.5"/>
	</g>
	<g>
		<rect id="p_00000144316730591690368330000004473485197595746198_" x="241.5" y="241.5" width="9.5" height="9.5"/>
	</g>
</g>
</svg>
