<?xml version="1.0" encoding="UTF-8"?>
<svg xmlns="http://www.w3.org/2000/svg" version="1.1" viewBox="0 0 1070.3 237.7">
  <defs>
    <style>
      .cls-1 {
        stroke: #bd3131;
        stroke-miterlimit: 10;
        stroke-width: 2px;
      }

      .cls-1, .cls-2 {
        fill: #fff;
      }

      .cls-3 {
        fill: #bd3131;
      }

      .cls-4, .cls-5 {
        fill: #557f57;
      }

      .cls-5 {
        font-family: FSJoey-Bold, 'FS Joey';
        font-size: 147.5px;
        font-weight: 700;
      }
    </style>
  </defs>
  <!-- Generator: Adobe Illustrator 28.7.6, SVG Export Plug-In . SVG Version: 1.2.0 Build 188)  -->
  <g>
    <g id="Camada_1">
      <g>
        <text class="cls-5" transform="translate(181.1 167.3)"><tspan x="0" y="0">DeCS Finder</tspan></text>
        <g>
          <path class="cls-4" d="M57.9,48.7l6.2,6.7c.7.7.9,1.8.4,2.8-2.3,5.1-1.9,10.9,1.4,15.4,5.1,6.9,15.4,7.9,23,2.2,7.6-5.6,9.6-15.8,4.5-22.7-1.6-2.2-3.8-3.8-6.2-4.7-1.9-.8-3-2.8-2.7-4.8l.9-5.9c.5-3.7,2.8-7,6-9,.7-.4,1.3-.9,2-1.5,4.2-3.6,6.7-7.5,5.4-10.9-1.8-4.6-9.8-5.8-17.7-2.6-8,3.2-12.9,9.5-11.1,14.1.3.8.9,1.6,1.6,2.2,3.4,2.9,5.2,7.2,4.5,11.7l-.6,4.3c-.2,1.5-1.1,2.7-2.4,3.4h0c-1,.5-2.2.3-3-.5l-5.3-5.6c-2.8-3-4.2-7-4.4-11.1,0-.7-.2-1.2-.6-1.7-1.6-2-6.2-.9-10.3,2.5-4,3.3-6,7.7-4.4,9.6.5.6,1.2.9,2.2,1,4.1.3,7.9,2.2,10.6,5.2Z"/>
          <path class="cls-4" d="M116.2,33.9c-4,4.3-5.4,10.6-3.1,16.4,1.3,3.4,3.7,6,6.7,7.7,2.7,1.5,4.5,4.1,5.3,7.1.4,1.5.8,3.2,1.2,4.8,1.2,4.8-.1,9.9-3.4,13.7-3.7,4.2-5,10.4-2.8,16,3.2,8,12.2,11.8,20.1,8.7,8-3.2,11.8-12.2,8.7-20.1-1.3-3.3-3.7-5.9-6.5-7.6-3.5-2-6.1-5.3-7.1-9.2l-.9-3.5c-1.1-4.2.3-8.7,3.5-11.6,0,0,0,0,0,0,1.4-1.3,2.5-2.7,3.3-4.3,1.6-2.9,4.4-4.9,7.6-5.6l10-2.1c2.7-.6,5.4.2,7.4,2.1.3.3.6.5.9.8,7.5,6.4,16.2,8.6,19.5,4.8,3.3-3.8-.1-12.1-7.6-18.6-7.5-6.4-16.2-8.6-19.5-4.8-.5.6-.8,1.2-1,2-.8,3.2-3.3,5.6-6.5,6.3l-2.6.5c-3.9.8-7.9-.5-10.6-3.4-.8-.8-1.7-1.5-2.6-2.2-3-2-4.7-5.3-4.5-8.9h0c.2-2.3,2.1-4.2,4.4-4.2,5.7-.1,9.8-1.5,10.1-3.7.5-3.1-6.7-6.7-15.9-8.1-9.2-1.3-17.1,0-17.5,3.2-.3,2,2.7,4.3,7.3,6,1.9.7,3.2,2.6,3,4.6l-.3,4c-.2,3-1.8,5.7-4.2,7.4-.9.6-1.7,1.3-2.3,1.9Z"/>
          <path class="cls-4" d="M140.9,147.7c-1.6-4.9-6-8-10.8-8.1-3.3,0-6.4-1.1-8.9-3.3l-5.8-5c-4.6-4-7.2-9.9-7.1-16,.2-5-1.3-10.1-4.4-14.4-7.5-10.4-22.2-12.7-32.6-5.2-1.2.9-2.3,1.9-3.3,2.9-1.5,1.6-3.7,2.3-5.8,1.7h0c-6.3-1.6-10.9-7.1-11.4-13.6,0-.3,0-.7-.1-1-1.4-11.3-6.5-20.2-14.5-21.4-10.1-1.5-20,9.7-22.3,25-2.2,15.3,4.1,28.9,14.2,30.3,4.9.7,9.7-1.5,13.7-5.8,3.8-4,9.5-5.7,14.8-4.3l.7.2c2.5.7,4.4,2.9,4.4,5.5,0,0,0,0,0,0,0,2.5-1,4.8-2.9,6.4l-23.2,19.2c-4.5,3.7-10.7,4.6-16.2,2.6-1.7-.6-3.2-.6-4.4,0-4.6,2.5-3.2,14,3.1,25.7,6.3,11.7,15.2,19.2,19.8,16.7,3.7-2,3.6-9.7.2-18.7,0,0,0,0,0,0-2.6-6.6-.6-14.2,4.9-18.7l18.3-15.2c2.8-2.3,6.8-2.4,9.7-.2,5.8,4.4,13.2,5.2,20.3,3.9.7-.1,1.3-.3,2-.5,6.9-2.4,14.6-1.1,20.2,3.7h0c3.1,2.7,5,6.6,5,10.8,0,1.4.3,2.9.8,4.3,2.5,6.2,9.6,9,15.7,6.1,5.1-2.5,7.7-8.4,6-13.8Z"/>
          <path class="cls-4" d="M175,193.8l-3.4-3.6c-2.8-3-4.2-7.2-3.5-11.3.7-4-.1-8.1-2.6-11.4-5.1-6.9-15.4-7.9-23-2.2-7.6,5.6-9.6,15.8-4.5,22.7,1.6,2.2,3.8,3.8,6.2,4.8,1.9.8,3,2.8,2.7,4.8l-1,6.8c-.5,3.4-2.5,6.3-5.5,8-.5.3-1,.6-1.5.9-5,3.3-7.7,8-6.3,11.5,1.8,4.6,9.8,5.8,17.7,2.6,8-3.2,12.9-9.5,11.1-14.1-.4-.9-1-1.7-1.8-2.4-3.2-2.5-5-6.5-4.4-10.5l.8-5.3c.2-1.4,1.1-2.7,2.4-3.4h0c1-.5,2.2-.3,3,.5l6.7,7.1c2.3,2.4,3.3,5.8,3,9.1,0,.9,0,1.6.6,2.2,1.6,2,6.2.9,10.3-2.5,4-3.3,6-7.7,4.4-9.6-.6-.7-1.5-1-2.7-1-3.3.1-6.5-1.3-8.7-3.7Z"/>
          <path class="cls-4" d="M109,215c.3-2.3,1.5-4.3,3.4-5.6,6-4,8.6-11.7,5.9-18.7-2-5.1-6.5-8.5-11.5-9.5-2.2-.4-4.2-1.9-5.2-4l-.2-.3c-.6-1.2-.3-2.5.7-3.4,0,0,0,0,0,0,5.1-4.9,4.5-13.9-1.5-20.1-5.9-6.2-14.9-7.2-20-2.3-5.1,4.9-4.5,13.9,1.5,20.1,2.5,2.7,5.6,4.4,8.7,5.1.9.2,1.6.8,2,1.6l.3.7c1.2,2.5.8,5.6-1.1,7.7-.8.9-1.5,2-2.1,3.1-1.4,2.8-4,4.8-7.1,5.4l-9,1.9c-3.4.7-7-.2-9.6-2.5h0c-7.5-6.5-16.2-8.6-19.5-4.8-3.3,3.8.1,12.1,7.6,18.6,7.5,6.4,16.2,8.6,19.5,4.8.4-.5.7-1,.9-1.6,1.2-3.6,4.3-6.2,8.1-7l1.6-.3c3.6-.7,7.3.4,9.8,3.1,1,1.1,2.2,2.1,3.5,2.9,2.6,1.6,4.2,4.5,4,7.6h0c-.2,2.8-2.5,5.1-5.4,5.2-5.2.2-8.9,1.6-9.2,3.7-.5,3.1,6.7,6.7,15.9,8.1,9.2,1.3,17.1,0,17.5-3.2.3-1.9-2.4-4.1-6.7-5.7-2.3-.9-3.7-3.2-3.6-5.6,0,0,.3-2.4.6-4.7Z"/>
        </g>
      </g>
      <g>
        <circle class="cls-3" cx="981.6" cy="95" r="52.7"/>
        <g>
          <path class="cls-2" d="M949.2,119.6v-54h10.5v54h-10.5Z"/>
          <path class="cls-2" d="M1003.1,119.6l-3.2-9.6h-19.2l-3.3,9.6h-11l19.7-54h8.3l19.7,54h-11ZM990.5,81.5l-6.8,19.7h13.4l-6.6-19.7Z"/>
        </g>
        <path class="cls-1" d="M1048.6,67.3l5.9-.4-4.9,3.2c-5.4,3.5-8.5,9.6-8,16l.4,5.9-3.2-4.9c-3.5-5.4-9.6-8.5-16-8l-5.9.4,4.9-3.2c5.4-3.5,8.5-9.6,8-16l-.4-5.9,3.2,4.9c3.5,5.4,9.6,8.5,16,8Z"/>
        <path class="cls-1" d="M1036.4,102.1h0s0,0,0,0c-5.2,3.4-8.2,9.3-7.7,15.5h0s0,0,0,0c-3.4-5.2-9.3-8.2-15.5-7.7h0s0,0,0,0c5.2-3.4,8.2-9.3,7.7-15.5h0s0,0,0,0c3.4,5.2,9.3,8.2,15.5,7.7Z"/>
        <path class="cls-3" d="M1055.4,95.9h0s0,0,0,0c-3,1.9-4.7,5.4-4.5,9h0s0,0,0,0c-1.9-3-5.4-4.7-9-4.5h0s0,0,0,0c3-1.9,4.7-5.4,4.5-9h0s0,0,0,0c1.9,3,5.4,4.7,9,4.5Z"/>
      </g>
    </g>
  </g>
</svg>