<?xml version="1.0" encoding="UTF-8"?>
<svg xmlns="http://www.w3.org/2000/svg" version="1.1" viewBox="0 0 1293 237.7">
  <defs>
    <style>
      .cls-1 {
        stroke: #bd3131;
        stroke-miterlimit: 10;
        stroke-width: 2px;
      }

      .cls-1, .cls-2 {
        fill: #fff;
      }

      .cls-3 {
        font-family: HittheRoad, 'Hit the Road';
        font-size: 161.5px;
      }

      .cls-3, .cls-4 {
        fill: #557f57;
      }

      .cls-5 {
        fill: #868e88;
      }

      .cls-6 {
        fill: #bd3131;
      }

      .cls-7 {
        fill: #384d38;
      }

      .cls-8 {
        fill: #93c01f;
      }
    </style>
  </defs>
  <!-- Generator: Adobe Illustrator 28.7.6, SVG Export Plug-In . SVG Version: 1.2.0 Build 188)  -->
  <g>
    <g id="Camada_1">
      <g>
        <circle class="cls-6" cx="1208.9" cy="108.9" r="52.7"/>
        <g>
          <path class="cls-2" d="M1176.6,133.5v-54h10.5v54h-10.5Z"/>
          <path class="cls-2" d="M1230.5,133.5l-3.2-9.6h-19.2l-3.3,9.6h-11l19.7-54h8.3l19.7,54h-11ZM1217.9,95.4l-6.8,19.7h13.4l-6.6-19.7Z"/>
        </g>
        <path class="cls-1" d="M1276,81.2l5.9-.4-4.9,3.2c-5.4,3.5-8.5,9.6-8,16l.4,5.9-3.2-4.9c-3.5-5.4-9.6-8.5-16-8l-5.9.4,4.9-3.2c5.4-3.5,8.5-9.6,8-16l-.4-5.9,3.2,4.9c3.5,5.4,9.6,8.5,16,8Z"/>
        <path class="cls-1" d="M1263.8,116h0s0,0,0,0c-5.2,3.4-8.2,9.3-7.7,15.5h0s0,0,0,0c-3.4-5.2-9.3-8.2-15.5-7.7h0s0,0,0,0c5.2-3.4,8.2-9.3,7.7-15.5h0s0,0,0,0c3.4,5.2,9.3,8.2,15.5,7.7Z"/>
        <path class="cls-6" d="M1282.8,109.8h0s0,0,0,0c-3,1.9-4.7,5.4-4.5,9h0s0,0,0,0c-1.9-3-5.4-4.7-9-4.5h0s0,0,0,0c3-1.9,4.7-5.4,4.5-9h0s0,0,0,0c1.9,3,5.4,4.7,9,4.5Z"/>
      </g>
      <g>
        <g>
          <g>
            <path class="cls-5" d="M245.1,125.3c1.4-9.5-5.2-18.3-14.7-19.7-7-1-13.6,2.3-17.1,7.9l-10.5-5.6c.3-.8.5-1.7.7-2.5.9-6.5-3.6-12.5-10-13.4-5.3-.8-10.2,2.1-12.4,6.7l-12-3.9s0,0,0-.1c.7-4.9-2.7-9.4-7.6-10.1-4.8-.7-9.3,2.6-10.1,7.4h-11.5c-.6-2.8-2.9-5.1-5.9-5.6-3.9-.6-7.5,2.1-8,6-.6,3.9,2.1,7.5,6,8,3.7.5,7.2-2,8-5.6h11.5c.6,3.7,3.6,6.8,7.6,7.4,3.9.6,7.5-1.5,9.2-4.7l12,3.9c0,.2,0,.4-.1.6-.9,6.5,3.6,12.5,10,13.4,4.6.7,8.9-1.4,11.4-5l10.5,5.6c-.6,1.4-1,2.8-1.2,4.4-1.4,9.5,5.2,18.3,14.7,19.7,9.5,1.4,18.3-5.2,19.7-14.7Z"/>
            <path class="cls-5" d="M214.9,75.2c-1.2-6-7-9.9-13-8.8-4.2.8-7.4,3.9-8.5,7.8l-7.6-1.2c0-.4,0-.8-.1-1.1-.8-4.1-4.7-6.7-8.8-6-3.1.6-5.5,3.1-6,6.1h-8.2c-.8-2.7-3.6-4.5-6.6-3.9-2.9.6-4.8,3.2-4.6,6l-7.2,2.5c-1-1.3-2.7-2-4.4-1.7-2.4.5-4,2.8-3.6,5.3.5,2.4,2.8,4,5.3,3.6,2.2-.4,3.7-2.3,3.7-4.5l7.2-2.5c1.2,1.8,3.5,2.9,5.8,2.4,2.3-.4,3.9-2.1,4.4-4.2h8.2c.8,3.9,4.7,6.5,8.8,5.7,2.7-.5,4.8-2.4,5.7-4.8l7.6,1.2c0,.8,0,1.6.2,2.4,1.2,6,7,9.9,13,8.8,6-1.2,9.9-7,8.8-13Z"/>
          </g>
          <g>
            <path class="cls-4" d="M184,226.4c8.9-3.6,13.2-13.7,9.7-22.6-2.6-6.5-8.8-10.6-15.4-10.9l-.4-11.9c.9-.1,1.7-.4,2.5-.7,6.1-2.4,9-9.3,6.6-15.4-2-4.9-6.9-7.8-12-7.4l-2.6-12.4s0,0,.1,0c4.6-1.8,6.8-7,5-11.6-1.8-4.5-6.9-6.8-11.5-5l-5.8-10c2.2-1.9,3-5.1,1.9-7.9-1.5-3.6-5.6-5.4-9.2-3.9-3.6,1.5-5.4,5.6-3.9,9.2,1.4,3.5,5.3,5.3,8.8,4.1l5.8,10c-2.9,2.4-4.1,6.5-2.6,10.2,1.5,3.6,5,5.8,8.7,5.6l2.6,12.4c-.2,0-.4.1-.6.2-6.1,2.4-9,9.3-6.6,15.4,1.7,4.3,5.7,7,10,7.4l.4,11.9c-1.5.2-3,.5-4.4,1.1-8.9,3.6-13.2,13.7-9.7,22.6,3.6,8.9,13.7,13.2,22.6,9.7Z"/>
            <path class="cls-4" d="M212.3,175.2c4.6-4,5.1-11,1.1-15.6-2.8-3.2-7.1-4.5-11-3.5l-2.8-7.2c.3-.2.6-.4.9-.7,3.1-2.7,3.5-7.5.8-10.6-2.1-2.4-5.4-3.2-8.3-2.1l-4.2-7.1c2.1-2.1,2.2-5.5.2-7.7-1.9-2.2-5.2-2.6-7.5-1l-5.7-5c.6-1.5.4-3.3-.8-4.7-1.6-1.9-4.5-2.1-6.4-.5s-2.1,4.5-.5,6.4c1.5,1.7,3.9,2,5.7.9l5.7,5c-1,2-.7,4.5.8,6.2,1.5,1.7,3.8,2.3,5.9,1.7l4.2,7.1c-3.1,2.7-3.4,7.4-.7,10.5,1.8,2.1,4.5,2.9,7,2.5l2.8,7.2c-.7.4-1.3.8-1.9,1.4-4.6,4-5.1,11-1.1,15.6,4,4.6,11,5.1,15.6,1.1Z"/>
          </g>
          <g>
            <path class="cls-7" d="M65.9,224c7.6,5.9,18.5,4.6,24.4-2.9,4.3-5.5,4.8-12.9,1.8-18.8l10.1-6.3c.5.7,1.2,1.3,1.9,1.8,5.1,4,12.6,3.1,16.6-2,3.3-4.2,3.3-9.9.4-14.1l9.4-8.4s0,0,0,0c3.9,3,9.5,2.4,12.5-1.5,3-3.8,2.4-9.4-1.4-12.5l5.7-10c2.8.9,5.9,0,7.8-2.4,2.4-3.1,1.9-7.5-1.2-10-3.1-2.4-7.5-1.9-10,1.2-2.3,3-1.9,7.2.9,9.7l-5.7,10c-3.6-1.3-7.7-.3-10.2,2.8-2.4,3.1-2.5,7.2-.5,10.3l-9.4,8.4c-.2-.1-.3-.3-.5-.4-5.1-4-12.6-3.1-16.6,2-2.9,3.6-3.2,8.4-1.4,12.3l-10.1,6.3c-.9-1.2-2-2.3-3.2-3.2-7.6-5.9-18.5-4.6-24.4,2.9-5.9,7.6-4.6,18.5,2.9,24.4Z"/>
            <path class="cls-7" d="M124.4,222.9c5.8,2,12.1-1.1,14.1-6.8,1.4-4.1.3-8.4-2.5-11.3l4.8-6c.3.2.7.3,1.1.5,3.9,1.4,8.2-.7,9.6-4.6,1-3,0-6.3-2.3-8.2l4-7.2c2.8.7,5.8-.8,6.8-3.6,1-2.8-.3-5.8-2.9-7l1.4-7.5c1.6-.2,3.1-1.3,3.7-3,.8-2.4-.4-4.9-2.8-5.7-2.4-.8-4.9.4-5.7,2.8-.7,2.1.2,4.4,2.1,5.4l-1.4,7.5c-2.2.1-4.2,1.6-5,3.8-.8,2.2-.1,4.5,1.4,6l-4,7.2c-3.9-1.3-8.1.8-9.5,4.7-.9,2.6-.3,5.4,1.4,7.3l-4.8,6c-.7-.4-1.4-.7-2.1-1-5.8-2-12.1,1.1-14.1,6.8-2,5.8,1.1,12.1,6.8,14.1Z"/>
          </g>
          <g>
            <path class="cls-4" d="M8.9,120.6c-1.4,9.5,5.2,18.3,14.7,19.7,7,1,13.6-2.3,17.1-7.9l10.5,5.6c-.3.8-.5,1.7-.7,2.5-.9,6.5,3.6,12.5,10,13.4,5.3.8,10.2-2.1,12.4-6.7l12,3.9s0,0,0,.1c-.7,4.9,2.7,9.4,7.6,10.1,4.8.7,9.3-2.6,10.1-7.4h11.5c.6,2.8,2.9,5.1,5.9,5.6,3.9.6,7.5-2.1,8-6s-2.1-7.5-6-8c-3.7-.5-7.2,2-8,5.6h-11.5c-.6-3.7-3.6-6.8-7.6-7.4-3.9-.6-7.5,1.5-9.2,4.7l-12-3.9c0-.2,0-.4.1-.6.9-6.5-3.6-12.5-10-13.4-4.6-.7-8.9,1.4-11.4,5l-10.5-5.6c.6-1.4,1-2.8,1.2-4.4,1.4-9.5-5.2-18.3-14.7-19.7s-18.3,5.2-19.7,14.7Z"/>
            <path class="cls-4" d="M39.1,170.6c1.2,6,7,9.9,13,8.8,4.2-.8,7.4-3.9,8.5-7.8l7.6,1.2c0,.4,0,.8.1,1.1.8,4.1,4.7,6.7,8.8,6,3.1-.6,5.5-3.1,6-6.1h8.2c.8,2.7,3.6,4.5,6.6,3.9,2.9-.6,4.8-3.2,4.6-6l7.2-2.5c1,1.3,2.7,2,4.4,1.7,2.4-.5,4-2.8,3.6-5.3-.5-2.4-2.8-4-5.3-3.6-2.2.4-3.7,2.3-3.7,4.5l-7.2,2.5c-1.2-1.8-3.5-2.9-5.8-2.4-2.3.4-3.9,2.1-4.4,4.2h-8.2c-.8-3.9-4.7-6.5-8.8-5.7-2.7.5-4.8,2.4-5.7,4.8l-7.6-1.2c0-.8,0-1.6-.2-2.4-1.2-6-7-9.9-13-8.8-6,1.2-9.9,7-8.8,13Z"/>
          </g>
          <g>
            <path class="cls-8" d="M70,19.5c-8.9,3.6-13.2,13.7-9.7,22.6,2.6,6.5,8.8,10.6,15.4,10.9l.4,11.9c-.9.1-1.7.4-2.5.7-6.1,2.4-9,9.3-6.6,15.4,2,4.9,6.9,7.8,12,7.4l2.6,12.4s0,0-.1,0c-4.6,1.8-6.8,7-5,11.6,1.8,4.5,6.9,6.8,11.5,5l5.8,10c-2.2,1.9-3,5.1-1.9,7.9,1.5,3.6,5.6,5.4,9.2,3.9,3.6-1.5,5.4-5.6,3.9-9.2-1.4-3.5-5.3-5.3-8.8-4.1l-5.8-10c2.9-2.4,4.1-6.5,2.6-10.2-1.5-3.6-5-5.8-8.7-5.6l-2.6-12.4c.2,0,.4-.1.6-.2,6.1-2.4,9-9.3,6.6-15.4-1.7-4.3-5.7-7-10-7.4l-.4-11.9c1.5-.2,3-.5,4.4-1.1,8.9-3.6,13.2-13.7,9.7-22.6-3.6-8.9-13.7-13.2-22.6-9.7Z"/>
            <path class="cls-8" d="M41.8,70.7c-4.6,4-5.1,11-1.1,15.6,2.8,3.2,7.1,4.5,11,3.5l2.8,7.2c-.3.2-.6.4-.9.7-3.1,2.7-3.5,7.5-.8,10.6,2.1,2.4,5.4,3.2,8.3,2.1l4.2,7.1c-2.1,2.1-2.2,5.5-.2,7.7,1.9,2.2,5.2,2.6,7.5,1l5.7,5c-.6,1.5-.4,3.3.8,4.7,1.6,1.9,4.5,2.1,6.4.5,1.9-1.6,2.1-4.5.5-6.4-1.5-1.7-3.9-2-5.7-.9l-5.7-5c1-2,.7-4.5-.8-6.2-1.5-1.7-3.8-2.3-5.9-1.7l-4.2-7.1c3.1-2.7,3.4-7.4.7-10.5-1.8-2.1-4.5-2.9-7-2.5l-2.8-7.2c.7-.4,1.3-.8,1.9-1.4,4.6-4,5.1-11,1.1-15.6-4-4.6-11-5.1-15.6-1.1Z"/>
          </g>
          <g>
            <path class="cls-4" d="M188.1,21.8c-7.6-5.9-18.5-4.6-24.4,2.9-4.3,5.5-4.8,12.9-1.8,18.8l-10.1,6.3c-.5-.7-1.2-1.3-1.9-1.8-5.1-4-12.6-3.1-16.6,2-3.3,4.2-3.3,9.9-.4,14.1l-9.4,8.4s0,0,0,0c-3.9-3-9.5-2.4-12.5,1.5-3,3.8-2.4,9.4,1.4,12.5l-5.7,10c-2.8-.9-5.9,0-7.8,2.4-2.4,3.1-1.9,7.5,1.2,10,3.1,2.4,7.5,1.9,10-1.2,2.3-3,1.9-7.2-.9-9.7l5.7-10c3.6,1.3,7.7.3,10.2-2.8,2.4-3.1,2.5-7.2.5-10.3l9.4-8.4c.2.1.3.3.5.4,5.1,4,12.6,3.1,16.6-2,2.9-3.6,3.2-8.4,1.4-12.3l10.1-6.3c.9,1.2,2,2.3,3.2,3.2,7.6,5.9,18.5,4.6,24.4-2.9,5.9-7.6,4.6-18.5-2.9-24.4Z"/>
            <path class="cls-4" d="M129.7,23c-5.8-2-12.1,1.1-14.1,6.8-1.4,4.1-.3,8.4,2.5,11.3l-4.8,6c-.3-.2-.7-.3-1.1-.5-3.9-1.4-8.2.7-9.6,4.6-1,3,0,6.3,2.3,8.2l-4,7.2c-2.8-.7-5.8.8-6.8,3.6-1,2.8.3,5.8,2.9,7l-1.4,7.5c-1.6.2-3.1,1.3-3.7,3-.8,2.4.4,4.9,2.8,5.7,2.4.8,4.9-.4,5.7-2.8.7-2.1-.2-4.4-2.1-5.4l1.4-7.5c2.2-.1,4.2-1.6,5-3.8.8-2.2.1-4.5-1.4-6l4-7.2c3.9,1.3,8.1-.8,9.5-4.7.9-2.6.3-5.4-1.4-7.3l4.8-6c.7.4,1.4.7,2.1,1,5.8,2,12.1-1.1,14.1-6.8,2-5.8-1.1-12.1-6.8-14.1Z"/>
          </g>
          <path class="cls-8" d="M156.3,17.8c0,4.4-3.5,7.9-7.9,7.9s-7.9-3.5-7.9-7.9,3.5-7.9,7.9-7.9,7.9,3.5,7.9,7.9Z"/>
          <path class="cls-7" d="M113.5,228.1c0,4.4-3.5,7.9-7.9,7.9s-7.9-3.5-7.9-7.9,3.5-7.9,7.9-7.9,7.9,3.5,7.9,7.9Z"/>
          <path class="cls-4" d="M228.4,163.5c-4.3-.5-7.4-4.4-7-8.7.5-4.3,4.4-7.4,8.7-7s7.4,4.4,7,8.7c-.5,4.3-4.4,7.4-8.7,7Z"/>
          <path class="cls-4" d="M23.9,98c-4.3-.5-7.4-4.4-7-8.7.5-4.3,4.4-7.4,8.7-7s7.4,4.4,7,8.7-4.4,7.4-8.7,7Z"/>
          <path class="cls-7" d="M141.6,231.1c-1.7-4,.1-8.6,4.1-10.3,4-1.7,8.6.1,10.3,4.1,1.7,4-.1,8.6-4.1,10.3-4,1.7-8.6-.1-10.3-4.1Z"/>
          <path class="cls-4" d="M97.9,21c-1.7-4,.1-8.6,4.1-10.3,4-1.7,8.6.1,10.3,4.1s-.1,8.6-4.1,10.3c-4,1.7-8.6-.1-10.3-4.1Z"/>
          <path class="cls-4" d="M41.4,190.7c2.6-3.5,7.5-4.3,11-1.7,3.5,2.6,4.3,7.5,1.7,11-2.6,3.5-7.5,4.3-11,1.7-3.5-2.6-4.3-7.5-1.7-11Z"/>
          <path class="cls-4" d="M199.9,45.9c2.6-3.5,7.5-4.3,11-1.7,3.5,2.6,4.3,7.5,1.7,11-2.6,3.5-7.5,4.3-11,1.7-3.5-2.6-4.3-7.5-1.7-11Z"/>
          <path class="cls-5" d="M21.3,150.1c3.8-2.2,8.6-.9,10.8,2.9,2.2,3.8.9,8.6-2.9,10.8s-8.6.9-10.8-2.9c-2.2-3.8-.9-8.6,2.9-10.8Z"/>
          <path class="cls-7" d="M224.9,82.1c3.8-2.2,8.6-.9,10.8,2.9,2.2,3.8.9,8.6-2.9,10.8-3.8,2.2-8.6.9-10.8-2.9s-.9-8.6,2.9-10.8Z"/>
          <path class="cls-7" d="M50.9,44.7c3.8,2.2,5,7,2.8,10.8-2.2,3.8-7,5-10.8,2.8-3.8-2.2-5-7-2.8-10.8s7-5,10.8-2.8Z"/>
          <path class="cls-8" d="M211,187.6c3.8,2.2,5,7,2.8,10.8s-7,5-10.8,2.8c-3.8-2.2-5-7-2.8-10.8,2.2-3.8,7-5,10.8-2.8Z"/>
        </g>
        <text class="cls-3" transform="translate(252.8 173)"><tspan x="0" y="0">DeCS Finder</tspan></text>
      </g>
    </g>
  </g>
</svg>