<?xml version="1.0" encoding="UTF-8"?>
<svg xmlns="http://www.w3.org/2000/svg" version="1.1" viewBox="0 0 1187.3 237.7">
  <defs>
    <style>
      .cls-1, .cls-2 {
        fill: #bd3131;
      }

      .cls-3 {
        font-family: KelsonSans-Regular, 'Kelson Sans';
        font-size: 146.3px;
      }

      .cls-3, .cls-4 {
        fill: #557f57;
      }

      .cls-2 {
        font-family: DINPro-Bold, DINPro;
        font-size: 70.3px;
        font-weight: 700;
      }

      .cls-5 {
        fill: #fff;
        stroke: #bd3131;
        stroke-miterlimit: 10;
        stroke-width: 5px;
      }
    </style>
  </defs>
  <!-- Generator: Adobe Illustrator 28.7.6, SVG Export Plug-In . SVG Version: 1.2.0 Build 188)  -->
  <g>
    <g id="Camada_1">
      <g>
        <text class="cls-3" transform="translate(251.9 192.1)"><tspan x="0" y="0">DeCS Finder</tspan></text>
        <path class="cls-4" d="M50.5,29.2c-.5.6-1.6,2.3-2.3,3.6-1.8,3.4-2.9,4.3-5.9,5-5.6,1.3-9.3,5-10.7,10.6-1,3.9-2,5.2-5.4,6.9-2.9,1.4-4.7,3.2-6.3,6.2-1,1.8-1.4,2.9-2,6.3-.8,4.6-1.1,5.3-3.9,7.8-3.6,3.2-5.6,8.8-4.9,14,.3,2.7,0,5.5-1.1,6.9-1.7,2.4-2.9,5-3.3,7.4-.6,3.1-.4,5.8.8,9.2,1,3,1,4.3,0,7-1.3,3.5-1.5,8.2-.4,11.8.3.9,1.1,2.7,1.9,4.1,1.6,2.8,1.8,4.1,1.4,7.3-.2,1.2-.3,3.1-.2,4.1.3,4.2,2.2,8.8,4.5,11.1,2.5,2.6,3.1,3.9,3.3,7.7.2,3.1,1.2,5.8,3.5,9.1,1.7,2.5,2,2.8,4.3,4.5,1.4,1,2.7,2.2,3,2.6.3.4.8,1.9,1.2,3.3.7,2.5.8,2.8,2.9,5.8,2.6,3.8,4.3,5.2,7.4,6.5,3.4,1.4,3.5,1.5,6.5,5.8,2.4,3.4,2.9,4,4.3,5.1,2.6,2,5.1,3.2,7.9,3.8,3.3.8,4.3,1.4,6.5,3.9,2,2.3,3.3,3.4,5.9,4.7,2.8,1.4,5.6,2,8.6,2,3.4-.1,5.1.5,7.5,2.4,4.7,3.7,11.9,4.9,17.4,2.9,2.4-.9,3.8-1,5.6-.5,4.9,1.4,8.1,1.5,11.3.1,2-.8,4.1-2.6,5.1-4.2.6-1,1.4-1.7,3.5-3.4,1.5-1.2,3.2-2.7,3.8-3.5,1.5-1.8,3.4-5.5,4.3-8.2,1-2.9,1.8-8.6,1.9-12.4.1-7.6-1.2-12.9-5.5-23.1-3.5-8.3-4.6-11.5-5.1-15.5-.3-2.7,0-4.4,1.1-5.4.8-.7,1-.7,2.3-.5l1.4.3,1.1,1.9c5.3,9.1,9.4,14.3,16.3,20.5,9.1,8.1,19.7,14.6,33,20.1,4.1,1.7,9.7,3.6,13.2,4.6,1.3.4,2.4.7,2.3.8,0,.5-9.3,2-12.2,2-3.9,0-5.6-.3-8.2-1.7-1.4-.8-3.3-1.7-4.1-2-8.2-3.5-17.5-2.6-25.8,2.2-2.4,1.4-2.4,1.3.3,3.1,8,5.3,17.9,5.8,28.2,1.4,2.3-1,3.5-1.2,5.7-1h1.1c0,0-.6.5-.6.5-1.5,1-5.8,2.9-8.5,3.6-4.4,1.3-7.1,2.6-10.4,5.1-4.3,3.2-6.9,6.6-8.8,11.4-.7,1.9-2.2,9-2,10.2,0,.5.3.4,2.3-.2,9-2.8,14.7-7.1,18.5-13.5,1.2-2,2.1-4.3,3.7-8.7.6-1.7.8-2,2.3-3.1,3.7-2.9,8.3-4.3,20.4-6.2,2.7-.4,4.8-.7,4.8-.6,0,0-.9.5-2,1-2.4,1.1-7.8,5-9.6,7.1-.7.8-1.9,2.5-2.7,3.9-1.2,2.2-1.5,3.1-2.1,6.2-.7,4.1-.6,6.9.7,11.3l.7,2.4,1.3-1.1c1.7-1.5,4.2-4.5,5.2-6.3,2.2-4.1,3.3-8.8,3.2-14.4,0-3.1,0-3.1,1-4.2,1.6-1.6,2.7-2.3,5.5-3.4,4.4-1.6,7.3-1.8,16.1-.8,4.2.5,6.1.3,7.3-.5,1.5-1.1,1.8-3.6.6-5.4-.5-.7-1-.9-2.7-1.3-2.7-.6-3.6-1.1-4.8-2.5-1.6-1.9-3.1-6.4-2.6-8.3.1-.4.8-1.4,1.4-2.3,3.1-4,4.1-8.3,3-13.2-.6-2.8-.6-2.8-2.4-1.2-3,2.5-4.5,4.7-5.1,7.7-.5,2.3-.4,4.4.3,6.8.3,1.1.7,2.7.8,3.7v1.7c.1,0-.7-.6-.7-.6-.6-.4-1.1-1.1-1.8-2.2-3.3-6-4.1-6.8-7.1-8.5-2.2-1.3-8.7-2.7-8.6-1.9,0,.8,1.7,4.4,2.4,5.4,2.1,3,6.2,5.8,9.8,6.7,2.7.6,3.3,1.2,6,5.1l2,2.9-5.2-1c-20.8-4.1-39.5-11.8-53.8-22.4-8.5-6.3-13.6-11.4-21.1-21.2-3.7-4.9-5.5-6.8-8.9-9.8-2.3-2-2.8-2.2-3.6-1.6-1,.7-3,4.2-4.5,7.9-1.8,4.6-3,9.1-4.1,15.2-1.5,9.1-1.8,13.9-1.6,33.3,0,6.2,0,13.6-.3,14-.3.8-2.5-14-3.7-25.2-.6-5.4-.9-6.5-1.7-6.2-.6.1-3,2.7-8,8.4-4.5,5.1-7.4,8.7-13.8,17.4-2.2,3.1-4,5.3-3.9,4.9.3-1.1,2.4-5.7,3.8-8.5,3.3-6.7,8.2-13.5,15.7-21.9,6.6-7.4,6.9-7.8,7.3-8.9.2-.5.8-2.9,1.3-5.3,1.9-9.1,4.3-16.5,7.2-22,1.6-3.1.9-4.2-1.7-2.8-.9.5-5.4,2.8-10,5.2-14,7.2-18.4,9.8-21.2,12.5-2.1,2-4.9,5.8-11.8,16.3-7.4,11.1-10.4,15.4-13.6,19.3-2.2,2.7-3.3,3.7-3.1,3,0-.6,8.5-15.9,11.8-21.5,1.6-2.8,4.5-7.5,6.4-10.6,1.9-3,3.5-5.8,3.5-6.1,0-.9-.9-1.1-3.5-1-3.2.2-14.9,1.9-20.8,3-6,1.2-24,5.1-25.8,5.6-.3,0-.5,0-.5,0,0-.3,7.4-3.4,10.8-4.6,9.4-3.4,17.6-5.3,33.4-7.8,4.9-.8,9.8-1.8,11.1-2.1,2.8-.9,16.9-7.8,31.1-15.3,1.6-.8,1.9-1.6,1.2-2.6-.5-.8-2.2-1-15.1-2.3-19.2-2-24.7-2.4-51.2-3.7-13.3-.7-33.7-2.1-33.3-2.3.3-.2,8.1-.9,12.5-1.1,4.7-.2,20.7-.5,27.2-.5,2.4,0,4.4-.2,4.6-.4,1-.9.6-1.3-6.6-6.4-9.2-6.6-16.3-12-21.4-16.1-4.5-3.6-9.6-8.1-9.7-8.6,0-.4,5.5,3.2,20.3,13,18.2,12,22.3,14.5,26.8,16.4,2.9,1.2,4.6,1.5,11.7,2.3,3.4.3,11.6,1.3,18.3,2.1,15.9,1.9,16.1,1.9,16.5,1.6.2-.1.4-.5.5-.9,0-.6-1-2.2-11.6-17.4-11.6-16.6-11.7-16.8-13-17.7-2.5-1.6-4.5-2.2-13.5-3.9-4.9-.9-10.1-2-11.5-2.4-12.3-3.3-24.8-9.3-34.9-16.7-1.6-1.1-2.8-2.1-2.9-2.2,0,0,1.2.5,2.8,1.4,11.1,5.7,16,8,22.7,10.3,7.7,2.7,16.2,4.7,26.4,6,5.1.7,6.4.7,6.5-.2,0-.3-1.7-3.2-6.3-10.1-10.2-15.3-24.4-37.7-24.3-38.3,0-.4.5,0,3.2,3.5,4.4,5.5,10.2,13.3,18.6,25,4.2,5.9,8.8,12.2,10.1,14,1.5,2,2.6,3.4,2.9,3.4.9.2,1.3-1.1,2.7-7.2,3.7-16.9,4.2-28.9,1.9-48.6-.3-2.8-.5-5.1-.5-5.1,0,0,.5,1.4,1,3.2,2.4,8.6,3.6,17.6,3.7,27.1,0,8-.5,14.6-2.4,24.9-1.3,7.2-1.4,9.7-.8,12.5l.4,1.7,11.4,16.7c7.9,11.6,11.6,16.8,12,17,1.3.7,1.6-.1,4.1-10.5,2.3-9.2,5.8-23.1,7.2-28.1,1.3-4.7.9-11.4-1.3-21.8-.6-2.8-8-36.1-8.8-39.2-.4-1.6.3-.4,1.8,3.3,2.8,6.8,5,14.1,9.4,30.8,1.5,5.7,3,10.8,3.3,11.2.5.7.6.8,1.1.5.3-.2.7-.7.9-1.1.8-2.4,7.7-19.6,9.7-24.5,2.4-5.7,6.8-15.2,7.1-15.2.3,0-5,17.8-10.6,35.1-7.6,23.7-9.1,28.6-13.9,46.8-2.9,11-3.4,13.6-3,14.1.1.2.5.4.9.6.7.3.8.2,2.2-.9,2-1.7,14.3-12.9,19.4-17.7,6.3-5.9,6.4-6.1,11.6-15.2,6.8-12,13.2-21.6,19-28.5,2.3-2.7,7.8-8.5,8-8.5,0,0-2.2,3.7-5.1,8.2-7.1,10.9-10.9,17-14.9,24.3-4.5,8.3-5.6,10.7-5.1,11.5.4.8.5.8,8.2-.7,12-2.4,25.1-4.4,32.4-5.1,3.7-.3,3.8-.3,1.9.5-4.4,1.7-11.5,3.6-25.5,6.8-17,3.9-19.1,4.6-23.3,7.5-2.9,2-6.8,5.3-15.9,13.6-3.4,3.1-6.7,6.1-7.5,6.8-1.7,1.4-2,2-1.5,2.6.3.3,1.2.4,3.2.1,7.1-.8,13.1-.5,23,1.1,2.7.4,5.4.7,6.1.6.7,0,4-1.3,7.4-2.6,14.1-5.5,20.1-7.1,28.3-7.9,3.4-.3,10.1-.5,10.1-.3,0,0-2.2.7-4.9,1.3-10.3,2.5-17.5,4.9-27.8,9.2-5,2.1-5.7,2.6-5.2,3.4.1.2,2.3,1.4,4.8,2.6,6.9,3.5,23.4,12.5,23.1,12.6-.3.2-6.6-2.2-15.7-5.7-15.6-6.1-22-8.1-31.5-9.8-8-1.5-15.5-1.7-20.2-.7-2.5.5-3.7,1.6-3,2.6.7,1,6.3,6.2,6.8,6.4.2,0,.9,0,1.5-.2,2.3-.7,5.3-.4,7.4.8,1.5.8,3.3,2.4,7,6.4,9.9,10.6,15.8,14.5,26.3,17.5,5.4,1.5,10.4,1.9,14.8,1.3,4-.6,6.4-1.5,9.8-3.9,2.6-1.8,3-2,5.2-2.5,1.9-.5,2.7-.8,4.1-1.8,2-1.4,3.8-3.5,4.7-5.7.9-2,1-2.8,1.2-5.6.2-2.6.5-3.3,3-6.5,3.4-4.3,4.7-11.1,3-16-1.1-3.2-.9-5,.5-8.3,1.5-3.4,1.6-8.4.5-12.2-.2-.8-1-2.5-1.7-3.8-.7-1.3-1.4-2.8-1.5-3.4-.1-.6,0-2.3.2-3.9.5-3.3,0-6.7-1.1-10.1-.7-1.9-1.1-2.6-3-5-2.5-3.3-2.8-4-3-7.7-.2-3.7-1-5.9-3.6-9.6-1.9-2.8-2.3-3.2-4.1-4.5-2.6-1.8-3.6-3.3-4.1-5.8-1.2-5.4-5.1-10.3-10.1-12.6-3-1.4-3.3-1.7-5.8-5.6-1.9-3.1-2.4-3.7-3.9-5-2.6-2.3-5.7-3.9-8.8-4.6-3.4-.8-4.5-1.4-6.8-4.3-2.6-3.2-4.9-4.8-8.5-5.8-1.9-.6-3.7-.8-5.4-.8-3,0-4.4-.5-7-2.8-4.2-3.7-9.7-5-15.3-3.6-2.7.7-4.7.4-7.3-1.1-4.4-2.4-10.6-2.8-14.6-.9-4.5,2.2-5.7,2.3-8.9,1.3-2.3-.7-4.9-.9-7.5-.4-3,.5-4.6,1.3-7.9,3.9-3.5,2.7-4.1,2.9-7.9,2.4-4.3-.5-7.2.3-10.4,2.7-1.6,1.2-2.3,1.9-3.2,3.3-1.7,2.7-3,3.4-6.5,3.9-1.6.2-3.5.7-4.4,1-1.9.7-5.5,3.2-6.9,4.7Z"/>
      </g>
      <g>
        <circle class="cls-5" cx="1098.3" cy="116.2" r="54.6"/>
        <text class="cls-2" transform="translate(1058.3 141.7) scale(1.1 1)"><tspan x="0" y="0">AI</tspan></text>
        <path class="cls-1" d="M1167.3,87.6l6.4-.5-5.4,3.5c-5.4,3.5-8.5,9.6-8,16l.5,6.4-3.5-5.4c-3.5-5.4-9.6-8.5-16-8l-6.4.5,5.4-3.5c5.4-3.5,8.5-9.6,8-16l-.5-6.4,3.5,5.4c3.5,5.4,9.6,8.5,16,8Z"/>
        <path class="cls-1" d="M1155,123.6h0s0,0,0,0c-5.4,3.5-8.5,9.6-8,16h0s0,0,0,0c-3.5-5.4-9.6-8.5-16-8h0s0,0,0,0c5.4-3.5,8.5-9.6,8-16h0s0,0,0,0c3.5,5.4,9.6,8.5,16,8Z"/>
        <path class="cls-1" d="M1174.7,117.2h0s0,0,0,0c-3.1,2-4.9,5.6-4.6,9.3h0s0,0,0,0c-2-3.1-5.6-4.9-9.3-4.6h0s0,0,0,0c3.1-2,4.9-5.6,4.6-9.3h0s0,0,0,0c2,3.1,5.6,4.9,9.3,4.6Z"/>
      </g>
    </g>
  </g>
</svg>