<svg width="477" height="89" viewBox="0 0 477 89" fill="none" xmlns="http://www.w3.org/2000/svg">
<path d="M150.617 11.6367H147.879V78.729H150.617V11.6367Z" fill="white"/>
<path d="M165.449 78.729V11.6367H185.075C198.539 11.6367 205.157 17.1136 205.157 28.0675C205.157 39.0213 201.505 40.847 193.975 43.5854C202.418 45.6393 206.754 50.888 206.754 59.788C206.754 68.688 204.7 70.5136 200.592 73.9367C196.941 77.1316 191.921 78.729 185.759 78.729H165.221H165.449ZM177.316 20.7649V39.7059H183.705C186.672 39.7059 188.954 38.7931 190.78 36.9675C192.605 35.1418 193.518 32.6316 193.518 29.8931C193.518 27.1547 192.605 24.8726 190.78 23.2752C188.954 21.6777 186.672 20.9931 183.705 20.9931H177.544L177.316 20.7649ZM177.316 48.8342V69.3726H184.162C187.357 69.3726 189.867 68.4598 191.692 66.6342C193.518 64.8085 194.431 62.2983 194.431 59.1034C194.431 52.2572 191.008 48.8342 183.934 48.8342H177.544H177.316Z" fill="white"/>
<path d="M231.399 11.6367H219.076V78.729H231.399V11.6367Z" fill="white"/>
<path d="M245.094 78.729V11.6367H266.089C279.325 11.6367 286.171 17.5701 286.171 29.4367C286.171 41.3034 285.03 36.9675 282.748 39.9342C280.466 42.9008 277.271 44.4983 273.163 45.1829C276.586 46.0957 278.868 48.6059 280.466 53.1701L289.137 78.729H276.13L269.512 56.8213C268.142 52.2572 264.948 49.747 260.155 49.747H257.417V78.5008H245.094V78.729ZM257.417 40.847H262.437C269.74 40.847 273.391 37.4239 273.391 30.5777C273.391 23.7316 272.478 24.4162 270.425 22.8188C268.827 21.4495 266.089 20.9931 262.437 20.9931H257.417V40.847Z" fill="white"/>
<path d="M298.949 78.729V11.6367H334.321V21.4495H311.501V39.4777H333.18V49.0624H311.501V69.1444H335.234V78.729H298.949Z" fill="white"/>
<path d="M400.271 78.729V22.8188L383.156 78.729H374.484L358.282 22.8188V78.729H347.1V11.6367H365.356L379.277 61.8418H379.505L393.653 11.6367H411.453V78.729H400.271Z" fill="white"/>
<path d="M425.375 78.729V11.6367H460.747V21.4495H437.926V39.4777H459.606V49.0624H437.926V69.1444H461.66V78.729H425.375Z" fill="white"/>
<path d="M4 34.3843V14.2104H6.5555V34.3843H4Z" fill="white"/>
<path d="M28.4963 18.9657C31.7929 18.9657 34.0417 21.0984 34.0417 25.5942V34.3843H31.5884V25.9113C31.5884 22.914 30.3107 21.4442 28.0874 21.4442C25.6341 21.4442 24.0242 23.2022 24.0242 26.5165V34.3843H21.5709V25.9113C21.5709 22.914 20.2931 21.4442 18.0698 21.4442C15.6166 21.4442 14.0066 23.2022 14.0066 26.5165V34.3843H11.5533V19.1098H13.9044V21.3866C14.8755 19.8303 16.5365 18.9657 18.5809 18.9657C20.6509 18.9657 22.3886 19.8879 23.2831 21.79C24.3053 20.0608 26.1963 18.9657 28.4963 18.9657Z" fill="white"/>
<path d="M45.7367 18.9657C49.6978 18.9657 52.5855 22.0782 52.5855 26.747C52.5855 31.4446 49.6978 34.5572 45.7367 34.5572C43.8201 34.5572 42.1335 33.7214 41.0091 32.0787V39.9753H38.5558V19.1098H40.9068V21.5307C42.0057 19.8303 43.7435 18.9657 45.7367 18.9657ZM45.5323 32.1363C48.1389 32.1363 50.1067 30.0037 50.1067 26.747C50.1067 23.5192 48.1389 21.3866 45.5323 21.3866C42.9512 21.3866 40.9835 23.5192 40.9835 26.747C40.9835 30.0037 42.9512 32.1363 45.5323 32.1363Z" fill="white"/>
<path d="M66.146 19.1098H68.5993V34.3843H66.2738V32.0787C65.2772 33.6638 63.5905 34.5572 61.6739 34.5572C58.1729 34.5572 55.8473 32.3957 55.8473 27.8998V19.1098H58.3006V27.5828C58.3006 30.5801 59.6295 32.0787 61.955 32.0787C64.5105 32.0787 66.146 30.2919 66.146 27.0064V19.1098Z" fill="white"/>
<path d="M73.2697 34.3843V13H75.723V34.3843H73.2697Z" fill="white"/>
<path d="M84.2915 34.5572C82.0426 34.5572 79.8194 33.779 78.6949 32.7704L79.7171 30.5801C80.8671 31.5023 82.7071 32.1651 84.4704 32.1651C86.7448 32.1651 87.6903 31.387 87.6903 30.0901C87.6903 26.6606 79.1294 29.629 79.1294 23.548C79.1294 20.8102 81.3015 18.9657 84.777 18.9657C86.5403 18.9657 88.5336 19.4844 89.7092 20.349L88.6614 22.5393C87.4348 21.6459 86.0803 21.3289 84.7515 21.3289C82.6049 21.3289 81.5571 22.2223 81.5571 23.4328C81.5571 27.0352 90.1436 24.0956 90.1436 30.0325C90.1436 32.7992 87.8947 34.5572 84.2915 34.5572Z" fill="white"/>
<path d="M98.1417 18.9657C101.847 18.9657 103.943 20.9831 103.943 25.1619V34.3843H101.617V32.3669C100.799 33.7502 99.2917 34.5572 97.1706 34.5572C94.104 34.5572 92.1618 32.7127 92.1618 30.0613C92.1618 27.6116 93.5674 25.5942 97.6051 25.5942H101.489V25.0467C101.489 22.7123 100.288 21.3577 97.8606 21.3577C96.2506 21.3577 94.6151 21.9918 93.5674 23.0005L92.5452 20.9254C93.9507 19.6574 95.9695 18.9657 98.1417 18.9657ZM97.5795 32.4245C99.4195 32.4245 100.876 31.4735 101.489 29.7155V27.5828H97.7073C95.2795 27.5828 94.5896 28.6491 94.5896 29.946C94.5896 31.4735 95.714 32.4245 97.5795 32.4245Z" fill="white"/>
<path d="M118.882 13H121.335V34.3843H118.984V31.9634C117.885 33.6926 116.147 34.5572 114.154 34.5572C110.193 34.5572 107.305 31.4158 107.305 26.747C107.305 22.0782 110.193 18.9657 114.154 18.9657C116.071 18.9657 117.757 19.7726 118.882 21.4154V13ZM114.359 32.1363C116.94 32.1363 118.907 30.0037 118.907 26.747C118.907 23.4904 116.94 21.3866 114.359 21.3866C111.752 21.3866 109.784 23.4904 109.784 26.747C109.784 30.0037 111.752 32.1363 114.359 32.1363Z" fill="white"/>
<path d="M131.778 34.5572C127.715 34.5572 124.725 31.3006 124.725 26.747C124.725 22.1935 127.715 18.9657 131.778 18.9657C135.841 18.9657 138.806 22.1935 138.806 26.747C138.806 31.3006 135.841 34.5572 131.778 34.5572ZM131.778 32.1363C134.385 32.1363 136.327 30.0037 136.327 26.747C136.327 23.4904 134.385 21.3866 131.778 21.3866C129.171 21.3866 127.204 23.4904 127.204 26.747C127.204 30.0037 129.171 32.1363 131.778 32.1363Z" fill="white"/>
<path d="M105.257 54.9904C109.218 54.9904 112.106 58.1029 112.106 62.7717C112.106 67.4694 109.218 70.5819 105.257 70.5819C103.34 70.5819 101.654 69.7461 100.529 68.1034V76H98.076V55.1345H100.427V57.5554C101.526 55.855 103.264 54.9904 105.257 54.9904ZM105.053 68.161C107.659 68.161 109.627 66.0284 109.627 62.7717C109.627 59.5439 107.659 57.4113 105.053 57.4113C102.471 57.4113 100.504 59.5439 100.504 62.7717C100.504 66.0284 102.471 68.161 105.053 68.161Z" fill="white"/>
<path d="M121.296 70.5819C117.233 70.5819 114.243 67.3253 114.243 62.7717C114.243 58.2182 117.233 54.9904 121.296 54.9904C125.36 54.9904 128.324 58.2182 128.324 62.7717C128.324 67.3253 125.36 70.5819 121.296 70.5819ZM121.296 68.161C123.903 68.161 125.845 66.0284 125.845 62.7717C125.845 59.5151 123.903 57.4113 121.296 57.4113C118.69 57.4113 116.722 59.5151 116.722 62.7717C116.722 66.0284 118.69 68.161 121.296 68.161Z" fill="white"/>
<path d="M134.068 57.6995C134.937 55.9126 136.623 54.9904 139 54.9904V57.6706C138.796 57.6418 138.617 57.6418 138.438 57.6418C135.806 57.6418 134.17 59.4575 134.17 62.8005V70.409H131.717V55.1345H134.068V57.6995Z" fill="white"/>
</svg>
