<svg width="477" height="89" viewBox="0 0 477 89" fill="none" xmlns="http://www.w3.org/2000/svg">
<path d="M150.617 11.6367H147.879V78.729H150.617V11.6367Z" fill="white"/>
<path d="M165.449 78.729V11.6367H185.075C198.539 11.6367 205.157 17.1136 205.157 28.0675C205.157 39.0213 201.505 40.847 193.975 43.5854C202.418 45.6393 206.754 50.888 206.754 59.788C206.754 68.688 204.7 70.5136 200.592 73.9367C196.941 77.1316 191.921 78.729 185.759 78.729H165.221H165.449ZM177.316 20.7649V39.7059H183.705C186.672 39.7059 188.954 38.7931 190.78 36.9675C192.605 35.1418 193.518 32.6316 193.518 29.8931C193.518 27.1547 192.605 24.8726 190.78 23.2752C188.954 21.6777 186.672 20.9931 183.705 20.9931H177.544L177.316 20.7649ZM177.316 48.8342V69.3726H184.162C187.357 69.3726 189.867 68.4598 191.692 66.6342C193.518 64.8085 194.431 62.2983 194.431 59.1034C194.431 52.2572 191.008 48.8342 183.934 48.8342H177.544H177.316Z" fill="white"/>
<path d="M231.399 11.6367H219.076V78.729H231.399V11.6367Z" fill="white"/>
<path d="M245.094 78.729V11.6367H266.089C279.325 11.6367 286.171 17.5701 286.171 29.4367C286.171 41.3034 285.03 36.9675 282.748 39.9342C280.466 42.9008 277.271 44.4983 273.163 45.1829C276.586 46.0957 278.868 48.6059 280.466 53.1701L289.137 78.729H276.13L269.512 56.8213C268.142 52.2572 264.948 49.747 260.155 49.747H257.417V78.5008H245.094V78.729ZM257.417 40.847H262.437C269.74 40.847 273.391 37.4239 273.391 30.5777C273.391 23.7316 272.478 24.4162 270.425 22.8188C268.827 21.4495 266.089 20.9931 262.437 20.9931H257.417V40.847Z" fill="white"/>
<path d="M298.949 78.729V11.6367H334.321V21.4495H311.501V39.4777H333.18V49.0624H311.501V69.1444H335.234V78.729H298.949Z" fill="white"/>
<path d="M400.271 78.729V22.8188L383.156 78.729H374.484L358.282 22.8188V78.729H347.1V11.6367H365.356L379.277 61.8418H379.505L393.653 11.6367H411.453V78.729H400.271Z" fill="white"/>
<path d="M425.375 78.729V11.6367H460.747V21.4495H437.926V39.4777H459.606V49.0624H437.926V69.1444H461.66V78.729H425.375Z" fill="white"/>
<path d="M25.7331 12.7219C30.7179 12.7219 33.7307 15.5953 33.7307 20.3426C33.7307 25.09 30.7179 27.9634 25.7331 27.9634H20.9948V34.5846H18.2559V12.7219H25.7331ZM25.6509 25.2461C29.1567 25.2461 30.9918 23.4659 30.9918 20.3426C30.9918 17.2194 29.1567 15.4391 25.6509 15.4391H20.9948V25.2461H25.6509Z" fill="white"/>
<path d="M43.535 34.772C39.1801 34.772 35.9756 31.2428 35.9756 26.308C35.9756 21.3733 39.1801 17.8753 43.535 17.8753C47.8898 17.8753 51.067 21.3733 51.067 26.308C51.067 31.2428 47.8898 34.772 43.535 34.772ZM43.535 32.1485C46.3287 32.1485 48.4102 29.8373 48.4102 26.308C48.4102 22.7788 46.3287 20.4988 43.535 20.4988C40.7413 20.4988 38.6323 22.7788 38.6323 26.308C38.6323 29.8373 40.7413 32.1485 43.535 32.1485Z" fill="white"/>
<path d="M73.9127 18.0314H76.2682L70.8451 34.5846H68.3253L64.1348 22.0292L59.8895 34.5846H57.3697L51.974 18.0314H54.4664L58.6844 31.2115L63.0666 18.0314H65.2851L69.5852 31.274L73.9127 18.0314Z" fill="white"/>
<path d="M91.6545 26.4017C91.6545 26.6516 91.6271 27.0264 91.5997 27.3075H79.8224C80.151 30.2121 82.2052 32.1485 85.0811 32.1485C86.7792 32.1485 88.2034 31.4926 89.2716 30.1496L90.7232 32.086C89.4086 33.8351 87.4091 34.772 84.9989 34.772C80.3154 34.772 77.193 31.2428 77.193 26.308C77.193 21.4045 80.288 17.8753 84.4785 17.8753C88.6691 17.8753 91.6545 21.3108 91.6545 26.4017ZM84.4785 20.4051C81.9587 20.4051 80.0962 22.3415 79.8224 25.1524H89.1347C88.8608 22.3727 87.0257 20.4051 84.4785 20.4051Z" fill="white"/>
<path d="M97.8254 20.8111C98.7566 18.8747 100.564 17.8753 103.111 17.8753V20.7799C102.892 20.7487 102.701 20.7487 102.509 20.7487C99.6878 20.7487 97.9349 22.7163 97.9349 26.3393V34.5846H95.3056V18.0314H97.8254V20.8111Z" fill="white"/>
<path d="M119.338 26.4017C119.338 26.6516 119.31 27.0264 119.283 27.3075H107.506C107.834 30.2121 109.889 32.1485 112.764 32.1485C114.463 32.1485 115.887 31.4926 116.955 30.1496L118.407 32.086C117.092 33.8351 115.093 34.772 112.682 34.772C107.999 34.772 104.876 31.2428 104.876 26.308C104.876 21.4045 107.971 17.8753 112.162 17.8753C116.352 17.8753 119.338 21.3108 119.338 26.4017ZM112.162 20.4051C109.642 20.4051 107.78 22.3415 107.506 25.1524H116.818C116.544 22.3727 114.709 20.4051 112.162 20.4051Z" fill="white"/>
<path d="M134.054 11.4102H136.683V34.5846H134.164V31.9611C132.986 33.8351 131.123 34.772 128.987 34.772C124.742 34.772 121.647 31.3677 121.647 26.308C121.647 21.2484 124.742 17.8753 128.987 17.8753C131.041 17.8753 132.849 18.7498 134.054 20.53V11.4102ZM129.206 32.1485C131.973 32.1485 134.082 29.8373 134.082 26.308C134.082 22.7788 131.973 20.4988 129.206 20.4988C126.413 20.4988 124.304 22.7788 124.304 26.308C124.304 29.8373 126.413 32.1485 129.206 32.1485Z" fill="white"/>
<path d="M115.787 56.9158C120.032 56.9158 123.127 60.2889 123.127 65.3486C123.127 70.4083 120.032 73.8126 115.787 73.8126C113.651 73.8126 111.788 72.8756 110.611 71.0017V73.6252H108.091V50.4507H110.72V59.5706C111.925 57.7903 113.733 56.9158 115.787 56.9158ZM115.568 71.1891C118.362 71.1891 120.471 68.8779 120.471 65.3486C120.471 61.8193 118.362 59.5394 115.568 59.5394C112.802 59.5394 110.693 61.8193 110.693 65.3486C110.693 68.8779 112.802 71.1891 115.568 71.1891Z" fill="white"/>
<path d="M136.63 57.072H139.205L132.166 75.2805C130.878 78.7786 129.208 79.8717 126.989 79.8717C125.592 79.8717 124.168 79.3407 123.264 78.3413L124.387 76.0926C125.099 76.8734 126.003 77.3106 126.989 77.3106C128.249 77.3106 129.043 76.6548 129.755 74.7496L130.221 73.594L123.812 57.072H126.551L131.618 70.3146L136.63 57.072Z" fill="white"/>
</svg>
