<?xml version="1.0" encoding="utf-8"?>
<!-- Generator: Adobe Illustrator 14.0.0, SVG Export Plug-In . SVG Version: 6.00 Build 43363)  -->
<!DOCTYPE svg PUBLIC "-//W3C//DTD SVG 1.1//EN" "http://www.w3.org/Graphics/SVG/1.1/DTD/svg11.dtd">
<svg version="1.1" id="Camada_1" xmlns="http://www.w3.org/2000/svg" xmlns:xlink="http://www.w3.org/1999/xlink" x="0px" y="0px"
	 width="200px" height="200px" viewBox="0 0 200 200" enable-background="new 0 0 200 200" xml:space="preserve">
<g>
	<g>
		<defs>
			<rect id="SVGID_1_" x="2.799" y="2.084" width="195.629" height="195.626"/>
		</defs>
		<clipPath id="SVGID_2_">
			<use xlink:href="#SVGID_1_"  overflow="visible"/>
		</clipPath>
		<path clip-path="url(#SVGID_2_)" stroke="#75C0A6" d="M141.014,30.631c0-0.059-0.023-0.102-0.023-0.158
			c0-0.051,0.023-0.097,0.023-0.159V16.613h-19.209c-2.305,0-4.411-1.3-5.425-3.367c-3.019-6.104-9.072-9.902-15.783-9.902
			c-6.728,0-12.77,3.797-15.788,9.899c-1.019,2.067-3.131,3.37-5.419,3.37H60.176v13.78c0,0.028,0.005,0.051,0.005,0.08
			c0,0.025-0.005,0.054-0.005,0.076v13.789h80.838V30.631z"/>
	</g>
	<g>
		<defs>
			<rect id="SVGID_3_" x="2.799" y="2.084" width="195.629" height="195.626"/>
		</defs>
		<clipPath id="SVGID_4_">
			<use xlink:href="#SVGID_3_"  overflow="visible"/>
		</clipPath>
		<path clip-path="url(#SVGID_4_)" fill="#7CA820" d="M153.12,36.526v13.863c0,3.341-2.706,6.054-6.048,6.054H54.128
			c-3.347,0-6.054-2.712-6.054-6.054V36.526H23.435v160.551h142.234c7.051,0,12.776-5.733,12.776-12.77V36.526H153.12z"/>
	</g>
	<g>
		<defs>
			<rect id="SVGID_5_" x="2.799" y="2.084" width="195.629" height="195.626"/>
		</defs>
		<clipPath id="SVGID_6_">
			<use xlink:href="#SVGID_5_"  overflow="visible"/>
		</clipPath>
		<path clip-path="url(#SVGID_6_)" fill="#C6D100" d="M154.684,91.654H47.185c-3.341,0-6.048-2.707-6.048-6.048
			c0-3.35,2.712-6.054,6.048-6.054h107.499c3.341,0,6.048,2.709,6.048,6.054C160.731,88.947,158.024,91.654,154.684,91.654z
			 M154.684,128.081H47.185c-3.341,0-6.048-2.71-6.048-6.051c0-3.35,2.712-6.054,6.048-6.054h107.499
			c3.341,0,6.048,2.709,6.048,6.054C160.731,125.371,158.024,128.081,154.684,128.081z M140.486,164.521h-18.88
			c-3.347,0-6.06-2.707-6.06-6.045c0-3.347,2.713-6.054,6.06-6.054h18.88c3.33,0,6.048,2.709,6.048,6.054
			C146.534,161.814,143.816,164.521,140.486,164.521z M101.458,164.521H86.672c-3.335,0-6.048-2.707-6.048-6.045
			c0-3.347,2.718-6.054,6.048-6.054h14.786c3.347,0,6.054,2.709,6.054,6.054C107.512,161.814,104.799,164.521,101.458,164.521z
			 M67.107,164.521H47.185c-3.341,0-6.048-2.707-6.048-6.045c0-3.347,2.712-6.054,6.048-6.054h19.922
			c3.341,0,6.048,2.709,6.048,6.054C73.155,161.814,70.448,164.521,67.107,164.521z"/>
	</g>
</g>
</svg>
