<?xml version="1.0" encoding="utf-8"?>
<!-- Generator: Adobe Illustrator 14.0.0, SVG Export Plug-In . SVG Version: 6.00 Build 43363)  -->
<!DOCTYPE svg PUBLIC "-//W3C//DTD SVG 1.1//EN" "http://www.w3.org/Graphics/SVG/1.1/DTD/svg11.dtd">
<svg version="1.1" id="Camada_1" xmlns="http://www.w3.org/2000/svg" xmlns:xlink="http://www.w3.org/1999/xlink" x="0px" y="0px"
	 width="200px" height="200px" viewBox="0 0 200 200" enable-background="new 0 0 200 200" xml:space="preserve">
<g>
	<defs>
		<rect id="SVGID_1_" x="2.61" y="2.084" width="196.008" height="196.006"/>
	</defs>
	<clipPath id="SVGID_2_">
		<use xlink:href="#SVGID_1_"  overflow="visible"/>
	</clipPath>
	<path clip-path="url(#SVGID_2_)" fill="#E42322" d="M177.383,100.088h-48.185l-12.246,17.147l-32.67-42.462l-16.338,25.315H23.846
		c-8.983-16.332-6.531-35.115,5.721-48.185C44.264,37.2,68.768,36.389,84.282,51.086c3.269,3.269,16.332,16.338,16.332,16.338
		s13.069-13.069,16.338-16.338c14.698-14.697,39.202-13.887,54.717,1.634C184.738,64.973,186.366,83.757,177.383,100.088z
		 M100.614,179.307c0,0-66.151-71.054-71.048-71.054H72.03l12.252-20.417l32.67,44.096l16.332-23.68h38.385
		C166.771,108.253,100.614,179.307,100.614,179.307z M182.286,39.651c-21.235-21.235-55.533-21.235-76.769,0
		c-1.635,1.635-4.086,4.08-5.721,6.532c-1.628-2.452-3.262-4.08-5.714-6.532c-20.418-21.235-54.716-21.235-75.134,0
		c-21.235,21.235-21.235,55.54,0,76.768l71.055,71.054l10.611,10.618l10.617-10.618l71.055-71.054
		C203.521,95.191,203.521,60.887,182.286,39.651z"/>
</g>
</svg>
