<?xml version="1.0" encoding="utf-8"?>
<!-- Generator: Adobe Illustrator 14.0.0, SVG Export Plug-In . SVG Version: 6.00 Build 43363)  -->
<!DOCTYPE svg PUBLIC "-//W3C//DTD SVG 1.1//EN" "http://www.w3.org/Graphics/SVG/1.1/DTD/svg11.dtd">
<svg version="1.1" id="Camada_1" xmlns="http://www.w3.org/2000/svg" xmlns:xlink="http://www.w3.org/1999/xlink" x="0px" y="0px"
	 width="300px" height="300px" viewBox="0 0 300 300" enable-background="new 0 0 300 300" xml:space="preserve">
<g id="clipboard">
	<g>
		<g>
			<g>
				<path fill="#148128" d="M220.938,63.409h-39.685v6.661h39.685c1.836,0,3.332,1.5,3.332,3.331v166.521
					c0,1.835-1.496,3.331-3.332,3.331H81.061c-1.837,0-3.33-1.496-3.33-3.331V73.4c0-1.831,1.493-3.331,3.33-3.331h39.965v-6.661
					H81.061c-5.509,0-9.991,4.481-9.991,9.991V239.92c0,5.51,4.482,9.991,9.991,9.991h139.876c5.51,0,9.992-4.481,9.992-9.991V73.4
					C230.93,67.891,226.448,63.409,220.938,63.409z"/>
			</g>
		</g>
		<g>
			<path fill="#148128" d="M214.277,189.965c-1.834,0-3.33-1.496-3.33-3.33V83.392h-16.651c-1.835,0-3.331-1.493-3.331-3.331
				c0-1.837,1.496-3.33,3.331-3.33h19.981c1.834,0,3.33,1.493,3.33,3.33v106.574C217.607,188.469,216.111,189.965,214.277,189.965z"
				/>
		</g>
		<g>
			<path fill="#148128" d="M180.975,236.591H87.722c-1.838,0-3.331-1.495-3.331-3.33v-153.2c0-1.837,1.493-3.33,3.331-3.33h19.982
				c1.837,0,3.331,1.493,3.331,3.33c0,1.838-1.493,3.331-3.331,3.331H91.052V229.93h89.921c1.834,0,3.33,1.496,3.33,3.331
				C184.305,235.096,182.809,236.591,180.975,236.591z"/>
		</g>
		<g>
			<path fill="#148128" d="M180.975,236.591c-0.43,0-0.858-0.091-1.274-0.254c-1.243-0.514-2.056-1.729-2.056-3.076v-33.305
				c0-1.834,1.496-3.33,3.33-3.33h33.305c1.346,0,2.563,0.813,3.076,2.056c0.521,1.25,0.233,2.68-0.723,3.629l-33.305,33.306
				C182.691,236.253,181.839,236.591,180.975,236.591z M184.305,203.287v21.934l21.934-21.934H184.305z"/>
		</g>
		<g id="customer_survey_questionnaire_2_">
			<g>
				<g>
					<path fill="#148128" d="M108.723,163.426c-0.026,0-0.046,0-0.072,0c-0.946-0.013-1.837-0.436-2.452-1.158l-7.679-8.963
						c-1.2-1.393-1.041-3.497,0.357-4.697c1.399-1.2,3.506-1.024,4.697,0.368l5.269,6.137l10.593-11.272
						c1.259-1.34,3.363-1.405,4.707-0.14c1.346,1.265,1.408,3.37,0.149,4.706l-13.136,13.979
						C110.521,163.049,109.643,163.426,108.723,163.426z"/>
				</g>
			</g>
			<g>
				<g>
					<path fill="#148128" d="M108.723,130.125c-0.026,0-0.046,0-0.072,0c-0.946-0.02-1.837-0.439-2.452-1.161L98.52,120
						c-1.2-1.392-1.041-3.496,0.357-4.696c1.399-1.2,3.506-1.024,4.697,0.368l5.269,6.14l10.593-11.276
						c1.259-1.34,3.363-1.405,4.707-0.14c1.346,1.265,1.408,3.37,0.149,4.706l-13.136,13.982
						C110.521,129.744,109.643,130.125,108.723,130.125z"/>
				</g>
			</g>
			<g>
				<g>
					<path fill="#148128" d="M160.991,196.626h-26.644c-1.837,0-3.33-1.496-3.33-3.33c0-1.835,1.493-3.331,3.33-3.331h26.644
						c1.834,0,3.329,1.496,3.329,3.331C164.32,195.13,162.825,196.626,160.991,196.626z"/>
				</g>
			</g>
			<g>
				<g>
					<path fill="#148128" d="M194.296,183.305h-59.948c-1.837,0-3.33-1.496-3.33-3.33s1.493-3.33,3.33-3.33h59.948
						c1.834,0,3.33,1.496,3.33,3.33S196.13,183.305,194.296,183.305z"/>
				</g>
			</g>
			<g>
				<g>
					<path fill="#148128" d="M194.296,150h-19.983c-1.834,0-3.33-1.493-3.33-3.331c0-1.837,1.496-3.33,3.33-3.33h19.983
						c1.834,0,3.33,1.493,3.33,3.33C197.626,148.507,196.13,150,194.296,150z"/>
				</g>
			</g>
			<g>
				<g>
					<path fill="#148128" d="M180.975,163.32h-46.626c-1.837,0-3.33-1.495-3.33-3.329s1.493-3.33,3.33-3.33h46.626
						c1.834,0,3.33,1.496,3.33,3.33S182.809,163.32,180.975,163.32z"/>
				</g>
			</g>
			<g>
				<g>
					<path fill="#148128" d="M160.991,150h-26.644c-1.837,0-3.33-1.493-3.33-3.331c0-1.837,1.493-3.33,3.33-3.33h26.644
						c1.834,0,3.329,1.493,3.329,3.33C164.32,148.507,162.825,150,160.991,150z"/>
				</g>
			</g>
			<g>
				<g>
					<path fill="#148128" d="M194.296,116.696h-59.948c-1.837,0-3.33-1.493-3.33-3.331c0-1.837,1.493-3.33,3.33-3.33h59.948
						c1.834,0,3.33,1.493,3.33,3.33C197.626,115.203,196.13,116.696,194.296,116.696z"/>
				</g>
			</g>
			<g>
				<g>
					<path fill="#148128" d="M167.652,130.018h-33.305c-1.837,0-3.33-1.493-3.33-3.331s1.493-3.331,3.33-3.331h33.305
						c1.834,0,3.33,1.493,3.33,3.331S169.486,130.018,167.652,130.018z"/>
				</g>
			</g>
			<g>
				<g>
					<path fill="#148128" d="M114.365,196.626h-13.322c-1.837,0-3.33-1.496-3.33-3.33v-13.321c0-1.834,1.493-3.33,3.33-3.33h13.322
						c1.838,0,3.331,1.496,3.331,3.33v13.321C117.696,195.13,116.203,196.626,114.365,196.626z M104.374,189.965h6.661v-6.66h-6.661
						V189.965z"/>
				</g>
			</g>
		</g>
	</g>
	<g>
		<path fill="#148128" d="M180.975,90.052h-59.948c-1.838,0-3.331-1.493-3.331-3.33V66.739c0-5.509,4.482-9.991,9.991-9.991
			c1.837,0,3.331,1.493,3.331,3.331s-1.493,3.331-3.331,3.331s-3.331,1.499-3.331,3.33v16.652h53.287V66.739
			c0-1.831-1.496-3.33-3.33-3.33s-3.33-1.493-3.33-3.331s1.496-3.331,3.33-3.331c5.51,0,9.99,4.482,9.99,9.991v19.983
			C184.305,88.56,182.809,90.052,180.975,90.052z"/>
	</g>
	<g>
		<path fill="#148128" d="M160.991,63.409c-1.834,0-3.33-1.493-3.33-3.331c0-1.831-1.496-3.331-3.331-3.331h-6.661
			c-0.719,0-1.405,0.221-1.971,0.647c-0.865,0.631-1.359,1.61-1.359,2.683c0,1.837-1.493,3.331-3.331,3.331
			c-1.838,0-3.331-1.493-3.331-3.331c0-3.165,1.519-6.167,4.056-8.04c1.721-1.271,3.776-1.951,5.936-1.951h6.661
			c5.51,0,9.99,4.482,9.99,9.991C164.32,61.916,162.825,63.409,160.991,63.409z"/>
	</g>
</g>
</svg>
