<?xml version="1.0" encoding="utf-8"?>
<!-- Generator: Adobe Illustrator 14.0.0, SVG Export Plug-In . SVG Version: 6.00 Build 43363)  -->
<!DOCTYPE svg PUBLIC "-//W3C//DTD SVG 1.1//EN" "http://www.w3.org/Graphics/SVG/1.1/DTD/svg11.dtd">
<svg version="1.1" id="Camada_1" xmlns="http://www.w3.org/2000/svg" xmlns:xlink="http://www.w3.org/1999/xlink" x="0px" y="0px"
	 width="300px" height="300px" viewBox="0 0 300 300" enable-background="new 0 0 300 300" xml:space="preserve">
<g>
	<path fill="#148128" d="M226.604,155.159H77.053c-2.991,0-4.985-1.994-4.985-4.985s1.994-4.985,4.985-4.985h149.551
		c2.991,0,4.985,1.994,4.985,4.985S229.097,155.159,226.604,155.159z"/>
</g>
<g>
	<path fill="#148128" d="M225.107,50.474H78.548c-14.457,0-26.42,11.964-26.42,26.42v146.061c0,14.457,11.964,26.421,26.42,26.421
		h146.062c14.457,0,26.421-11.964,26.421-26.421V76.894C251.528,62.438,239.564,50.474,225.107,50.474z M241.559,223.454
		c0,8.974-7.478,16.45-16.451,16.45h-68.294V205.01h69.79c2.493,0,4.985-1.994,4.985-4.985s-2.492-4.984-4.985-4.984h-69.79v-81.256
		c0-2.991-2.493-4.985-4.985-4.985c-2.493,0-4.985,1.994-4.985,4.985v81.256h-69.79c-2.493,0-4.985,1.993-4.985,4.984
		s2.493,4.985,4.985,4.985h69.79v34.895H78.548c-8.973,0-16.45-7.477-16.45-16.45V76.894c0-8.973,7.478-16.45,16.45-16.45h68.295
		v34.895h-69.79c-2.493,0-4.985,1.994-4.985,4.985c0,2.991,2.493,4.985,4.985,4.985h69.79v21.436c0,2.991,2.493,4.985,4.985,4.985
		c2.492,0,4.985-1.994,4.985-4.985v-21.436h69.79c2.493,0,4.985-1.994,4.985-4.985c0-2.991-2.492-4.985-4.985-4.985h-69.79V60.444
		h68.294c8.974,0,16.451,7.478,16.451,16.45V223.454z"/>
</g>
</svg>
