<?xml version="1.0" encoding="utf-8"?>
<!-- Generator: Adobe Illustrator 14.0.0, SVG Export Plug-In . SVG Version: 6.00 Build 43363)  -->
<!DOCTYPE svg PUBLIC "-//W3C//DTD SVG 1.1//EN" "http://www.w3.org/Graphics/SVG/1.1/DTD/svg11.dtd">
<svg version="1.1" id="Camada_1" xmlns="http://www.w3.org/2000/svg" xmlns:xlink="http://www.w3.org/1999/xlink" x="0px" y="0px"
	 width="300px" height="300px" viewBox="0 0 300 300" enable-background="new 0 0 300 300" xml:space="preserve">
<g id="Page-1">
	<g id="icon-40-clipboard-list">
		<path id="clipboard-list" fill="#148128" d="M181.607,73.185l4.029-5.261c4.424-5.774,12.748-6.882,18.563-2.429l5.2,3.982
			c5.83,4.465,6.931,12.76,2.492,18.555l-4.029,5.261l10.523,8.059c2.891,2.215,3.432,6.354,1.213,9.251l-4.029,5.261
			c-2.237,2.92-6.356,3.455-9.248,1.24L159.02,80.878c-2.893-2.215-3.43-6.353-1.209-9.25l4.028-5.261
			c2.236-2.92,6.356-3.453,9.245-1.242L181.607,73.185L181.607,73.185z M180.379,63.913l-5.234-4.01
			c-5.801-4.441-14.088-3.366-18.562,2.447l-5.265-4.031c-5.793-4.438-14.066-3.362-18.545,2.486L48.352,171.039
			c-4.453,5.814-3.379,14.105,2.431,18.557l78.788,60.34c5.795,4.438,14.07,3.362,18.55-2.487l84.422-110.233
			c4.449-5.81,3.38-14.102-2.436-18.555l-5.262-4.029l0,0c4.434-5.81,3.346-14.099-2.475-18.557l-5.235-4.01
			c6.659-8.706,4.978-21.181-3.737-27.854l-5.153-3.947C199.521,53.579,187.068,55.189,180.379,63.913L180.379,63.913
			L180.379,63.913z M220.825,119.881l5.251,4.021c2.861,2.191,3.443,6.38,1.218,9.288l-84.427,110.24
			c-2.266,2.959-6.383,3.469-9.285,1.245l-78.766-60.321c-2.864-2.193-3.444-6.381-1.217-9.289l84.428-110.24
			c2.268-2.961,6.384-3.466,9.284-1.245l5.251,4.022c-4.432,5.812-3.343,14.101,2.475,18.557l47.229,36.17
			C208.064,126.77,216.355,125.696,220.825,119.881L220.825,119.881L220.825,119.881z M194.736,83.239
			c1.451,1.111,3.523,0.836,4.636-0.615s0.837-3.524-0.614-4.636c-1.451-1.112-3.525-0.836-4.636,0.614
			C193.01,80.054,193.285,82.127,194.736,83.239L194.736,83.239z M139.723,138.756l-4.022,5.251l42.008,32.171l4.021-5.251
			L139.723,138.756L139.723,138.756z M117.488,113.398l-12.064,15.753l15.753,12.064l12.064-15.753L117.488,113.398L117.488,113.398
			z M118.719,122.67l-4.022,5.251l5.251,4.021l4.021-5.251L118.719,122.67L118.719,122.67z M97.381,139.653l-12.064,15.753
			l15.753,12.064l12.064-15.754L97.381,139.653L97.381,139.653z M98.611,148.926l-4.021,5.251l5.251,4.021l4.021-5.251
			L98.611,148.926L98.611,148.926z M119.615,165.012l-4.022,5.252l42.009,32.172l4.021-5.252L119.615,165.012L119.615,165.012z
			 M77.274,165.908l-12.065,15.753l15.753,12.063l12.065-15.752L77.274,165.908L77.274,165.908z M78.503,175.182l-4.021,5.25
			l5.251,4.021l4.021-5.251L78.503,175.182L78.503,175.182z M99.507,191.268l-4.021,5.25l42.008,32.172l4.021-5.25L99.507,191.268
			L99.507,191.268z"/>
	</g>
</g>
<path fill="#148128" d="M153.221,121.825l3.969,3.04l-3.041,3.97c-1.678,2.192-1.262,5.331,0.931,7.009
	c2.192,1.678,5.331,1.263,7.01-0.929l3.04-3.97l3.971,3.04c2.191,1.679,5.33,1.263,7.01-0.929c1.679-2.192,1.264-5.331-0.93-7.01
	l-3.971-3.04l3.041-3.97c1.68-2.192,1.262-5.331-0.93-7.01c-2.192-1.679-5.332-1.263-7.01,0.93l-3.041,3.969l-3.97-3.04
	c-2.192-1.679-5.331-1.263-7.01,0.93C150.611,117.007,151.027,120.146,153.221,121.825z"/>
</svg>
