<?xml version="1.0" encoding="utf-8"?>
<!-- Generator: Adobe Illustrator 14.0.0, SVG Export Plug-In . SVG Version: 6.00 Build 43363)  -->
<!DOCTYPE svg PUBLIC "-//W3C//DTD SVG 1.1//EN" "http://www.w3.org/Graphics/SVG/1.1/DTD/svg11.dtd">
<svg version="1.1" id="Camada_1" xmlns="http://www.w3.org/2000/svg" xmlns:xlink="http://www.w3.org/1999/xlink" x="0px" y="0px"
	 width="300px" height="300px" viewBox="0 0 300 300" enable-background="new 0 0 300 300" xml:space="preserve">
<g id="Layer_x0020_1">
	<path fill="#148128" d="M11.381,240.936h13.085v-8.723c0-4.807,1.968-9.178,5.124-12.322h0.023
		c3.162-3.156,7.527-5.125,12.31-5.125h91.613c4.806,0,9.18,1.969,12.327,5.125c3.153,3.153,5.124,7.517,5.124,12.322v8.723h13.088
		v8.729H11.39v-8.729H11.381z M115.178,73.96l40.169,26.249l7.166-10.965l0.204-0.317c1.138-1.928,1.458-4.173,1.023-6.246
		c-0.452-2.167-1.757-4.191-3.759-5.503l-0.4-0.26l-0.018-0.017l-25.151-16.43c-2-1.313-4.389-1.683-6.562-1.225
		c-2.175,0.452-4.199,1.756-5.511,3.765l-7.156,10.957L115.178,73.96z M150.581,107.5l-40.18-26.249L81.755,125.1l40.182,26.24
		L150.581,107.5z M117.185,158.619l-40.18-26.247l-7.163,10.967l-0.009-0.008c-1.304,2.007-1.676,4.389-1.218,6.57
		c0.46,2.181,1.749,4.207,3.747,5.509h0.017l25.569,16.707l-0.008,0.008c2.009,1.305,4.38,1.68,6.57,1.219
		c2.175-0.451,4.199-1.755,5.511-3.767l7.163-10.963L117.185,158.619L117.185,158.619z M62.543,138.572l52.492-80.354
		c2.616-4.001,6.657-6.594,11.029-7.512c4.363-0.916,9.099-0.172,13.109,2.452l25.569,16.705l0.396,0.262l0.024,0.023
		c3.767,2.625,6.204,6.53,7.09,10.744c0.907,4.357,0.157,9.078-2.454,13.085l-0.004,0.017l0.004,0.009L150.921,122.9l127.504,68.161
		l0.304,0.176l0.037,0.013c10.32,6.741,13.2,16.821,11.31,26.076c-0.712,3.511-2.136,6.903-4.091,9.901
		c-1.951,2.996-4.49,5.658-7.422,7.722c-7.709,5.44-18.093,6.852-28.408,0.11l-0.229-0.141l-0.094-0.081l-113.647-89.372
		l-18.871,28.889c-2.627,4.01-6.666,6.601-11.038,7.512c-4.356,0.921-9.078,0.175-13.093-2.449h-0.015l-25.57-16.706l0.006-0.009
		c-4.016-2.624-6.602-6.664-7.518-11.029c-0.91-4.356-0.166-9.084,2.45-13.093v-0.015L62.543,138.572z M146.154,130.206
		l-5.188,7.938l114.136,89.76c6.771,4.309,13.498,3.422,18.457-0.071c2-1.415,3.764-3.272,5.14-5.378
		c1.372-2.107,2.368-4.465,2.862-6.868c1.215-5.981-0.715-12.544-7.527-17.014l-127.879-68.359V130.206L146.154,130.206z
		 M33.186,240.932h109.055v-8.728c0-2.386-0.989-4.576-2.569-6.156c-1.575-1.571-3.765-2.569-6.159-2.569H41.899
		c-2.395,0-4.584,0.979-6.167,2.558l0.009,0.004c-1.572,1.571-2.569,3.762-2.569,6.161v8.722L33.186,240.932z"/>
</g>
</svg>
