<?xml version="1.0" encoding="utf-8"?>
<!-- Generator: Adobe Illustrator 14.0.0, SVG Export Plug-In . SVG Version: 6.00 Build 43363)  -->
<!DOCTYPE svg PUBLIC "-//W3C//DTD SVG 1.1//EN" "http://www.w3.org/Graphics/SVG/1.1/DTD/svg11.dtd">
<svg version="1.1" id="Camada_1" xmlns="http://www.w3.org/2000/svg" xmlns:xlink="http://www.w3.org/1999/xlink" x="0px" y="0px"
	 width="300px" height="300px" viewBox="0 0 300 300" enable-background="new 0 0 300 300" xml:space="preserve">
<g>
	<path fill="#148128" d="M107.632,175.443c-2.218,0-4.024,1.808-4.024,4.025v61.271H73.3v-61.106c0-2.219-1.807-4.024-4.024-4.024
		c-2.217,0-4.024,1.807-4.024,4.024v65.214c0,2.217,1.807,4.024,4.024,4.024h38.356c2.218,0,4.025-1.808,4.025-4.024v-65.296
		C111.657,177.251,109.85,175.443,107.632,175.443z"/>
	<path fill="#148128" d="M169.973,159.839c-2.219,0-4.024,1.808-4.024,4.024v76.877h-30.226v-64.803
		c0-2.219-1.807-4.024-4.024-4.024c-2.218,0-4.025,1.808-4.025,4.024v68.828c0,2.217,1.807,4.023,4.025,4.023h38.356
		c2.217,0,4.023-1.807,4.023-4.023v-80.902C174.078,161.646,172.271,159.839,169.973,159.839z"/>
	<path fill="#148128" d="M232.477,122.632c-2.219,0-4.024,1.807-4.024,4.024V240.74h-30.308v-90.182
		c0-2.219-1.808-4.025-4.025-4.025c-2.217,0-4.023,1.807-4.023,4.025v94.207c0,2.219,1.807,4.024,4.023,4.024h38.357
		c2.217,0,4.023-1.808,4.023-4.024V126.739C236.5,124.439,234.693,122.632,232.477,122.632z"/>
	<path fill="#148128" d="M238.635,54.543c-0.08-1.479-0.984-2.711-2.217-3.368c-1.314-0.657-2.875-0.575-4.023,0.247l-44.188,29.404
		c-1.231,0.821-1.89,2.218-1.808,3.614c0.082,1.479,0.985,2.711,2.219,3.368l19.712,9.774
		c-20.944,46.488-89.115,64.475-144.227,57.658c-2.217-0.328-4.271,1.314-4.518,3.531c-0.246,2.219,1.314,4.271,3.532,4.519
		c8.132,0.985,16.427,1.478,24.887,1.478c52.894,0,108.006-20.205,127.638-63.652l20.614,10.267c0.574,0.246,1.149,0.41,1.808,0.41
		c0.82,0,1.561-0.247,2.217-0.657c1.232-0.822,1.891-2.218,1.809-3.614L238.635,54.543z M215.146,91.914
		C215.063,91.914,215.063,91.832,215.146,91.914c-0.082-0.082-0.082-0.082-0.082-0.082l-16.428-8.131L231.079,62.1l2.546,38.932
		L215.146,91.914z"/>
</g>
</svg>
