<?xml version="1.0" encoding="utf-8"?>
<!-- Generator: Adobe Illustrator 14.0.0, SVG Export Plug-In . SVG Version: 6.00 Build 43363)  -->
<!DOCTYPE svg PUBLIC "-//W3C//DTD SVG 1.1//EN" "http://www.w3.org/Graphics/SVG/1.1/DTD/svg11.dtd">
<svg version="1.1" id="Camada_1" xmlns="http://www.w3.org/2000/svg" xmlns:xlink="http://www.w3.org/1999/xlink" x="0px" y="0px"
	 width="640px" height="150px" viewBox="0 0 640 150" enable-background="new 0 0 640 150" xml:space="preserve">
<g>
	<rect x="478" y="47.143" fill="#54CF8B" width="162" height="49.715"/>
	<rect x="463.972" y="38.545" fill="#54CF8B" width="4.108" height="66.91"/>
	<g>
		<path fill="#FFFFFF" d="M517.026,60.821h12.713c2.088,0,3.648,0.517,4.682,1.551c1.033,1.032,1.551,2.395,1.551,4.086
			c0,1.148-0.324,2.16-0.971,3.037c-0.648,0.877-1.609,1.462-2.881,1.753v0.063c1.461,0.209,2.613,0.809,3.459,1.8
			c0.846,0.992,1.268,2.219,1.268,3.68c0,1.127-0.213,2.098-0.641,2.912c-0.43,0.813-0.998,1.477-1.707,1.988
			c-0.711,0.512-1.498,0.887-2.363,1.127c-0.867,0.24-1.76,0.359-2.678,0.359h-12.432V60.821z M519.344,70.528h9.174
			c1.67,0,2.943-0.308,3.82-0.924c0.877-0.615,1.314-1.633,1.314-3.053c0-1.294-0.381-2.218-1.143-2.771
			c-0.762-0.553-1.832-0.829-3.209-0.829h-9.957V70.528z M519.344,81.049h9.738c1.607,0,2.885-0.344,3.834-1.033
			c0.949-0.688,1.426-1.764,1.426-3.225c0-1.523-0.414-2.594-1.236-3.21c-0.826-0.615-1.979-0.924-3.461-0.924h-10.301V81.049z"/>
		<path fill="#FFFFFF" d="M540.604,60.821h17.787v2.13h-15.469v7.577h14.902v2.129h-14.902v8.392h15.719v2.129h-18.037V60.821z"/>
		<path fill="#FFFFFF" d="M568.317,62.951h-8.768v-2.13h19.85v2.13h-8.768v20.227h-2.314V62.951z"/>
		<path fill="#FFFFFF" d="M595.307,76.383h-11.773l-3.039,6.795h-2.504l10.145-22.356h2.693l10.145,22.356h-2.691L595.307,76.383z
			 M589.451,63.139l-4.979,11.115h9.895L589.451,63.139z"/>
	</g>
</g>
<g>
	<path fill="#FFFFFF" d="M12.677,45.75c0.476-1.368,1.164-2.562,2.066-3.583c0.902-1.021,2.001-1.813,3.3-2.378
		c1.298-0.565,2.75-0.847,4.355-0.847c1.605,0,3.057,0.282,4.355,0.847c1.298,0.565,2.403,1.357,3.314,2.378
		c0.912,1.021,1.6,2.215,2.066,3.583c0.465,1.367,0.698,2.834,0.698,4.399c0,1.526-0.233,2.958-0.698,4.296
		c-0.466,1.338-1.155,2.512-2.066,3.523s-2.017,1.798-3.314,2.363c-1.298,0.565-2.75,0.847-4.355,0.847
		c-1.605,0-3.057-0.282-4.355-0.847c-1.298-0.565-2.398-1.348-3.3-2.349c-0.902-1-1.59-2.175-2.066-3.523
		c-0.476-1.347-0.713-2.784-0.713-4.311C11.964,48.585,12.201,47.118,12.677,45.75z M16.958,52.811
		c0.218,0.842,0.56,1.601,1.025,2.274c0.466,0.674,1.065,1.204,1.799,1.59c0.733,0.387,1.605,0.58,2.616,0.58
		s1.888-0.198,2.631-0.594c0.743-0.396,1.342-0.926,1.798-1.59c0.456-0.664,0.792-1.417,1.011-2.259
		c0.218-0.842,0.327-1.729,0.327-2.661c0-0.971-0.109-1.892-0.327-2.765c-0.218-0.872-0.555-1.645-1.011-2.318
		c-0.456-0.674-1.055-1.209-1.798-1.605c-0.744-0.396-1.621-0.595-2.631-0.595s-1.888,0.198-2.631,0.595s-1.343,0.932-1.798,1.605
		c-0.456,0.674-0.793,1.447-1.011,2.318c-0.218,0.873-0.327,1.794-0.327,2.765C16.631,51.082,16.74,51.969,16.958,52.811z"/>
	<path fill="#FFFFFF" d="M36.013,39.448h9.572c1.268,0,2.373,0.183,3.315,0.55c0.941,0.367,1.709,0.873,2.304,1.516
		c0.595,0.644,1.03,1.373,1.308,2.185c0.277,0.813,0.416,1.665,0.416,2.557c0,0.892-0.139,1.744-0.416,2.557
		c-0.278,0.813-0.713,1.541-1.308,2.185s-1.363,1.149-2.304,1.516c-0.942,0.367-2.047,0.55-3.315,0.55h-4.905v7.61h-4.667V39.448z
		 M40.681,49.437h3.626c0.595,0,1.13-0.044,1.605-0.134c0.476-0.089,0.907-0.248,1.293-0.476c0.387-0.228,0.684-0.55,0.892-0.966
		c0.208-0.417,0.312-0.952,0.312-1.605c0-0.654-0.104-1.189-0.312-1.605c-0.208-0.416-0.505-0.743-0.892-0.981
		c-0.386-0.238-0.817-0.396-1.293-0.476c-0.476-0.079-1.011-0.119-1.605-0.119h-3.626V49.437z"/>
	<path fill="#FFFFFF" d="M55.842,39.448h15.875v3.924H60.509v4.548h10.286v3.627H60.509v5.202h11.445v3.924H55.842V39.448z"/>
	<path fill="#FFFFFF" d="M75.105,39.448h4.638l8.859,14.24h0.059v-14.24h4.37v21.226h-4.667l-8.83-14.21h-0.059v14.21h-4.37V39.448z
		"/>
	<path fill="#FFFFFF" d="M105.398,39.448h6.57l4.964,14.596h0.06l4.697-14.596h6.57v21.226h-4.37V45.631h-0.06l-5.202,15.042h-3.597
		l-5.203-14.894h-0.059v14.894h-4.37V39.448z"/>
	<path fill="#FFFFFF" d="M132.361,39.448h15.875v3.924h-11.207v4.548h10.286v3.627h-10.286v5.202h11.445v3.924h-16.112V39.448z"/>
	<path fill="#FFFFFF" d="M156.321,43.372h-6.362v-3.924h17.391v3.924h-6.362v17.302h-4.667V43.372z"/>
	<path fill="#FFFFFF" d="M173.385,39.448h4.786l7.938,21.226h-4.846l-1.605-4.727h-7.937l-1.665,4.727h-4.727L173.385,39.448z
		 M172.94,52.469h5.5l-2.675-7.789h-0.06L172.94,52.469z"/>
	<path fill="#FFFFFF" d="M187.952,39.448h9.156c2.874,0,5.197,0.897,6.971,2.69c1.773,1.793,2.661,4.395,2.661,7.803
		c0,1.566-0.198,2.998-0.595,4.296c-0.396,1.298-1.001,2.433-1.813,3.404c-0.813,0.971-1.823,1.72-3.032,2.245
		c-1.209,0.525-2.606,0.788-4.191,0.788h-9.156V39.448z M192.619,56.75h4.162c0.713,0,1.382-0.114,2.007-0.342
		c0.624-0.228,1.184-0.594,1.68-1.1c0.495-0.505,0.887-1.169,1.174-1.992s0.431-1.799,0.431-2.928c0-2.279-0.466-4.018-1.397-5.217
		c-0.932-1.199-2.507-1.799-4.727-1.799h-3.329V56.75z"/>
	<path fill="#FFFFFF" d="M215.777,39.448h4.786l7.938,21.226h-4.846l-1.605-4.727h-7.937l-1.665,4.727h-4.727L215.777,39.448z
		 M215.331,52.469h5.5l-2.675-7.789h-0.06L215.331,52.469z"/>
	<path fill="#FFFFFF" d="M232.841,43.372h-6.362v-3.924h17.391v3.924h-6.362v17.302h-4.667V43.372z"/>
	<path fill="#FFFFFF" d="M249.905,39.448h4.786l7.938,21.226h-4.846l-1.605-4.727h-7.937l-1.665,4.727h-4.727L249.905,39.448z
		 M249.459,52.469h5.5l-2.675-7.789h-0.06L249.459,52.469z"/>
	<path fill="#FFFFFF" d="M272.528,45.75c0.476-1.368,1.164-2.562,2.066-3.583c0.902-1.021,2.001-1.813,3.3-2.378
		c1.298-0.565,2.75-0.847,4.355-0.847c1.605,0,3.057,0.282,4.355,0.847c1.298,0.565,2.403,1.357,3.314,2.378
		c0.912,1.021,1.6,2.215,2.066,3.583c0.465,1.367,0.698,2.834,0.698,4.399c0,1.526-0.233,2.958-0.698,4.296
		c-0.466,1.338-1.155,2.512-2.066,3.523s-2.017,1.798-3.314,2.363c-1.298,0.565-2.75,0.847-4.355,0.847
		c-1.605,0-3.057-0.282-4.355-0.847c-1.298-0.565-2.398-1.348-3.3-2.349c-0.902-1-1.59-2.175-2.066-3.523
		c-0.476-1.347-0.713-2.784-0.713-4.311C271.815,48.585,272.052,47.118,272.528,45.75z M276.809,52.811
		c0.218,0.842,0.56,1.601,1.025,2.274c0.466,0.674,1.065,1.204,1.799,1.59c0.733,0.387,1.605,0.58,2.616,0.58
		s1.888-0.198,2.631-0.594c0.743-0.396,1.342-0.926,1.798-1.59c0.456-0.664,0.792-1.417,1.011-2.259
		c0.218-0.842,0.327-1.729,0.327-2.661c0-0.971-0.109-1.892-0.327-2.765c-0.218-0.872-0.555-1.645-1.011-2.318
		c-0.456-0.674-1.055-1.209-1.798-1.605c-0.744-0.396-1.621-0.595-2.631-0.595s-1.888,0.198-2.631,0.595s-1.343,0.932-1.798,1.605
		c-0.456,0.674-0.793,1.447-1.011,2.318c-0.218,0.873-0.327,1.794-0.327,2.765C276.482,51.082,276.591,51.969,276.809,52.811z"/>
	<path fill="#FFFFFF" d="M295.865,39.448h14.923v3.924h-10.256v4.905h8.888v3.627h-8.888v8.77h-4.667V39.448z"/>
	<path fill="#FFFFFF" d="M326.454,43.372h-6.362v-3.924h17.391v3.924h-6.362v17.302h-4.667V43.372z"/>
	<path fill="#FFFFFF" d="M339.921,39.448h4.667v8.146h8.591v-8.146h4.667v21.226h-4.667v-9.156h-8.591v9.156h-4.667V39.448z"/>
	<path fill="#FFFFFF" d="M361.949,39.448h15.875v3.924h-11.207v4.548h10.285v3.627h-10.285v5.202h11.445v3.924h-16.113V39.448z"/>
	<path fill="#FFFFFF" d="M399.346,60.674h-5.262l-6.897-21.226h4.816l4.727,14.923h0.06l4.786-14.923h4.816L399.346,60.674z"/>
	<path fill="#FFFFFF" d="M408.204,39.448h4.668v8.146h8.591v-8.146h4.668v21.226h-4.668v-9.156h-8.591v9.156h-4.668V39.448z"/>
	<path fill="#FFFFFF" d="M430.233,39.448h4.668V56.75h10.345v3.924h-15.013V39.448z"/>
	<path fill="#FFFFFF" d="M13.297,78.021h5.604v25.485h-5.604V78.021z"/>
	<path fill="#FFFFFF" d="M23.826,78.021h5.568l10.636,17.098h0.072V78.021h5.247v25.485h-5.604L29.144,86.444h-0.071v17.062h-5.247
		V78.021z"/>
	<path fill="#FFFFFF" d="M50.275,78.021h17.918v4.712H55.879v5.89h10.672v4.354H55.879v10.529h-5.604V78.021z"/>
	<path fill="#FFFFFF" d="M71.191,85.588c0.571-1.642,1.398-3.075,2.481-4.301c1.083-1.226,2.403-2.178,3.962-2.855
		c1.558-0.679,3.302-1.018,5.229-1.018s3.67,0.339,5.229,1.018c1.558,0.678,2.885,1.63,3.98,2.855
		c1.094,1.226,1.921,2.659,2.48,4.301s0.839,3.403,0.839,5.282c0,1.833-0.28,3.552-0.839,5.158s-1.386,3.016-2.48,4.229
		c-1.095,1.214-2.422,2.159-3.98,2.838c-1.559,0.678-3.302,1.017-5.229,1.017s-3.671-0.339-5.229-1.017
		c-1.559-0.679-2.879-1.618-3.962-2.82c-1.083-1.201-1.91-2.611-2.481-4.229c-0.571-1.618-0.856-3.343-0.856-5.176
		C70.334,88.991,70.62,87.229,71.191,85.588z M76.331,94.065c0.261,1.011,0.672,1.922,1.231,2.73
		c0.559,0.809,1.279,1.445,2.159,1.909c0.88,0.464,1.928,0.696,3.141,0.696s2.267-0.238,3.159-0.714
		c0.893-0.476,1.612-1.112,2.16-1.91c0.547-0.797,0.951-1.701,1.213-2.712c0.262-1.012,0.393-2.076,0.393-3.195
		c0-1.165-0.131-2.271-0.393-3.319c-0.262-1.047-0.667-1.975-1.213-2.784c-0.548-0.809-1.267-1.451-2.16-1.927
		c-0.892-0.477-1.945-0.714-3.159-0.714s-2.267,0.237-3.159,0.714c-0.893,0.476-1.612,1.118-2.16,1.927
		c-0.548,0.81-0.952,1.737-1.213,2.784c-0.262,1.048-0.393,2.154-0.393,3.319C75.938,91.989,76.069,93.054,76.331,94.065z"/>
	<path fill="#FFFFFF" d="M99.21,78.021h13.742c1.119,0,2.142,0.179,3.07,0.536c0.928,0.356,1.719,0.862,2.374,1.517
		c0.654,0.654,1.154,1.404,1.499,2.249c0.345,0.845,0.518,1.755,0.518,2.73c0,1.547-0.327,2.861-0.981,3.943
		c-0.655,1.083-1.672,1.898-3.052,2.445v0.071c1.261,0.334,2.171,1.029,2.73,2.088c0.559,1.06,0.886,2.351,0.981,3.873
		c0,0.096,0.012,0.381,0.036,0.856c0.071,1.214,0.172,2.249,0.303,3.105c0.13,0.856,0.375,1.547,0.731,2.07h-5.604
		c-0.214-0.476-0.363-1.022-0.446-1.642c-0.083-0.619-0.161-1.416-0.232-2.392c-0.071-0.904-0.143-1.594-0.214-2.07
		c-0.19-1.38-0.601-2.367-1.231-2.963c-0.631-0.594-1.636-0.892-3.016-0.892h-5.604v9.958H99.21V78.021z M104.814,89.55h6.139
		c1.285,0,2.249-0.291,2.891-0.875c0.643-0.582,0.964-1.504,0.964-2.766c0-1.214-0.321-2.106-0.964-2.677
		c-0.643-0.571-1.606-0.857-2.891-0.857h-6.139V89.55z"/>
	<path fill="#FFFFFF" d="M124.98,78.021h7.888l5.961,17.525h0.071l5.64-17.525h7.888v25.485h-5.247V85.445h-0.071l-6.247,18.061
		h-4.319l-6.246-17.883h-0.071v17.883h-5.247V78.021z"/>
	<path fill="#FFFFFF" d="M164.314,78.021h5.747l9.53,25.485h-5.818l-1.927-5.675h-9.53l-1.999,5.675h-5.675L164.314,78.021z
		 M163.779,93.654h6.603l-3.212-9.352h-0.071L163.779,93.654z"/>
	<path fill="#FFFFFF" d="M184.802,82.732h-7.639v-4.712h20.881v4.712h-7.639v20.773h-5.604V82.732z"/>
	<path fill="#FFFFFF" d="M200.971,78.021h5.604v25.485h-5.604V78.021z"/>
	<path fill="#FFFFFF" d="M211.251,85.588c0.571-1.642,1.398-3.075,2.481-4.301c1.083-1.226,2.403-2.178,3.962-2.855
		c1.558-0.679,3.302-1.018,5.229-1.018s3.67,0.339,5.229,1.018c1.558,0.678,2.885,1.63,3.98,2.855
		c1.094,1.226,1.921,2.659,2.48,4.301s0.839,3.403,0.839,5.282c0,1.833-0.28,3.552-0.839,5.158s-1.386,3.016-2.48,4.229
		c-1.095,1.214-2.422,2.159-3.98,2.838c-1.559,0.678-3.302,1.017-5.229,1.017s-3.671-0.339-5.229-1.017
		c-1.559-0.679-2.879-1.618-3.962-2.82c-1.083-1.201-1.91-2.611-2.481-4.229c-0.571-1.618-0.856-3.343-0.856-5.176
		C210.394,88.991,210.68,87.229,211.251,85.588z M216.391,94.065c0.261,1.011,0.672,1.922,1.231,2.73
		c0.559,0.809,1.279,1.445,2.159,1.909c0.88,0.464,1.928,0.696,3.141,0.696s2.267-0.238,3.159-0.714
		c0.893-0.476,1.612-1.112,2.16-1.91c0.547-0.797,0.951-1.701,1.213-2.712c0.262-1.012,0.393-2.076,0.393-3.195
		c0-1.165-0.131-2.271-0.393-3.319c-0.262-1.047-0.667-1.975-1.213-2.784c-0.548-0.809-1.267-1.451-2.16-1.927
		c-0.892-0.477-1.945-0.714-3.159-0.714s-2.267,0.237-3.159,0.714c-0.893,0.476-1.612,1.118-2.16,1.927
		c-0.548,0.81-0.952,1.737-1.213,2.784c-0.262,1.048-0.393,2.154-0.393,3.319C215.998,91.989,216.129,93.054,216.391,94.065z"/>
	<path fill="#FFFFFF" d="M239.27,78.021h5.568l10.636,17.098h0.072V78.021h5.247v25.485h-5.604l-10.601-17.062h-0.071v17.062h-5.247
		V78.021z"/>
	<path fill="#FFFFFF" d="M279.461,95.047c0,1.594,0.529,2.778,1.588,3.551c1.058,0.773,2.409,1.16,4.051,1.16
		c0.547,0,1.101-0.047,1.66-0.143c0.559-0.095,1.094-0.262,1.606-0.5c0.511-0.237,0.922-0.564,1.231-0.981
		c0.309-0.416,0.464-0.934,0.464-1.553c0-0.571-0.155-1.053-0.464-1.445c-0.31-0.393-0.726-0.726-1.249-0.999
		c-0.524-0.273-1.095-0.506-1.713-0.696c-0.619-0.19-1.452-0.404-2.499-0.643c-0.69-0.19-1.238-0.333-1.642-0.429
		c-1.119-0.309-2.106-0.63-2.962-0.963c-0.857-0.333-1.636-0.768-2.338-1.304c-0.702-0.535-1.262-1.213-1.678-2.034
		c-0.417-0.821-0.625-1.803-0.625-2.944c0-1.262,0.268-2.38,0.803-3.355c0.535-0.976,1.261-1.784,2.177-2.427
		c0.916-0.643,1.939-1.125,3.069-1.446c1.13-0.321,2.29-0.481,3.48-0.481c1.379,0,2.682,0.155,3.908,0.464
		c1.225,0.31,2.308,0.798,3.248,1.464c0.94,0.666,1.683,1.522,2.231,2.569c0.547,1.048,0.821,2.284,0.821,3.712h-5.425
		c-0.071-1.428-0.553-2.427-1.446-2.998c-0.892-0.571-2.088-0.856-3.587-0.856c-1.047,0-1.952,0.238-2.713,0.714
		c-0.762,0.477-1.142,1.202-1.142,2.178c0,0.499,0.095,0.898,0.286,1.195c0.19,0.298,0.523,0.56,1,0.785
		c0.476,0.227,1.106,0.459,1.892,0.696c0.785,0.238,2.07,0.583,3.855,1.035c0.071,0,0.261,0.048,0.571,0.143
		c0.072,0.024,0.143,0.036,0.214,0.036c0.856,0.214,1.642,0.452,2.356,0.714s1.463,0.66,2.249,1.195s1.439,1.262,1.963,2.178
		s0.786,2.017,0.786,3.301c0,2.428-0.928,4.396-2.784,5.907c-1.856,1.512-4.462,2.267-7.817,2.267c-1.452,0-2.826-0.178-4.123-0.535
		c-1.297-0.356-2.451-0.91-3.462-1.659c-1.012-0.75-1.809-1.701-2.392-2.855s-0.875-2.493-0.875-4.016H279.461z"/>
	<path fill="#FFFFFF" d="M298.556,85.588c0.571-1.642,1.398-3.075,2.481-4.301c1.083-1.226,2.403-2.178,3.962-2.855
		c1.558-0.679,3.302-1.018,5.229-1.018s3.67,0.339,5.229,1.018c1.558,0.678,2.885,1.63,3.98,2.855
		c1.094,1.226,1.921,2.659,2.48,4.301s0.839,3.403,0.839,5.282c0,1.833-0.28,3.552-0.839,5.158s-1.386,3.016-2.48,4.229
		c-1.095,1.214-2.422,2.159-3.98,2.838c-1.559,0.678-3.302,1.017-5.229,1.017s-3.671-0.339-5.229-1.017
		c-1.559-0.679-2.879-1.618-3.962-2.82c-1.083-1.201-1.91-2.611-2.481-4.229c-0.571-1.618-0.856-3.343-0.856-5.176
		C297.7,88.991,297.986,87.229,298.556,85.588z M303.697,94.065c0.261,1.011,0.672,1.922,1.231,2.73
		c0.559,0.809,1.279,1.445,2.159,1.909c0.88,0.464,1.928,0.696,3.141,0.696s2.267-0.238,3.159-0.714
		c0.893-0.476,1.612-1.112,2.16-1.91c0.547-0.797,0.951-1.701,1.213-2.712c0.262-1.012,0.393-2.076,0.393-3.195
		c0-1.165-0.131-2.271-0.393-3.319c-0.262-1.047-0.667-1.975-1.213-2.784c-0.548-0.809-1.267-1.451-2.16-1.927
		c-0.892-0.477-1.945-0.714-3.159-0.714s-2.267,0.237-3.159,0.714c-0.893,0.476-1.612,1.118-2.16,1.927
		c-0.548,0.81-0.952,1.737-1.213,2.784c-0.262,1.048-0.393,2.154-0.393,3.319C303.304,91.989,303.434,93.054,303.697,94.065z"/>
	<path fill="#FFFFFF" d="M348.206,93.868c0,3.38-0.946,5.932-2.838,7.656c-1.892,1.726-4.575,2.588-8.049,2.588
		c-3.475,0-6.151-0.856-8.031-2.569c-1.88-1.714-2.82-4.271-2.82-7.675V78.021h5.604v15.848c0,0.786,0.065,1.5,0.196,2.142
		c0.131,0.643,0.387,1.22,0.768,1.731c0.38,0.512,0.922,0.916,1.624,1.214c0.702,0.298,1.588,0.446,2.659,0.446
		c1.951,0,3.319-0.435,4.105-1.303c0.785-0.869,1.178-2.278,1.178-4.23V78.021h5.604V93.868z"/>
	<path fill="#FFFFFF" d="M353.024,78.021h13.742c1.119,0,2.142,0.179,3.07,0.536c0.928,0.356,1.719,0.862,2.374,1.517
		c0.654,0.654,1.154,1.404,1.499,2.249c0.345,0.845,0.518,1.755,0.518,2.73c0,1.547-0.327,2.861-0.981,3.943
		c-0.655,1.083-1.672,1.898-3.052,2.445v0.071c1.261,0.334,2.171,1.029,2.73,2.088c0.559,1.06,0.886,2.351,0.981,3.873
		c0,0.096,0.012,0.381,0.036,0.856c0.071,1.214,0.172,2.249,0.303,3.105c0.13,0.856,0.375,1.547,0.731,2.07h-5.604
		c-0.214-0.476-0.363-1.022-0.446-1.642c-0.083-0.619-0.161-1.416-0.232-2.392c-0.071-0.904-0.143-1.594-0.214-2.07
		c-0.19-1.38-0.601-2.367-1.231-2.963c-0.631-0.594-1.636-0.892-3.016-0.892h-5.604v9.958h-5.604V78.021z M358.628,89.55h6.139
		c1.285,0,2.249-0.291,2.891-0.875c0.643-0.582,0.964-1.504,0.964-2.766c0-1.214-0.321-2.106-0.964-2.677
		c-0.643-0.571-1.606-0.857-2.891-0.857h-6.139V89.55z"/>
	<path fill="#FFFFFF" d="M395.784,86.587c-0.167-1.261-0.785-2.319-1.856-3.177c-1.07-0.856-2.309-1.284-3.712-1.284
		c-1.214,0-2.267,0.237-3.159,0.714c-0.892,0.476-1.612,1.118-2.159,1.927c-0.548,0.81-0.952,1.737-1.214,2.784
		c-0.262,1.048-0.393,2.154-0.393,3.319c0,1.119,0.131,2.184,0.393,3.195c0.262,1.011,0.672,1.922,1.231,2.73
		s1.279,1.445,2.16,1.909c0.88,0.464,1.927,0.696,3.141,0.696c1.665,0,2.992-0.518,3.979-1.553s1.589-2.421,1.803-4.158h5.426
		c-0.144,1.57-0.513,2.998-1.106,4.283c-0.596,1.285-1.387,2.386-2.374,3.302s-2.136,1.618-3.444,2.105s-2.736,0.731-4.283,0.731
		c-1.928,0-3.671-0.339-5.229-1.017c-1.559-0.679-2.879-1.618-3.962-2.82c-1.083-1.201-1.909-2.611-2.48-4.229
		s-0.856-3.343-0.856-5.176c0-1.879,0.285-3.641,0.856-5.282s1.397-3.075,2.48-4.301s2.403-2.178,3.962-2.855
		c1.559-0.679,3.302-1.018,5.229-1.018c1.403,0,2.736,0.202,3.998,0.606c1.261,0.405,2.385,1,3.373,1.785
		c0.986,0.785,1.796,1.749,2.427,2.891c0.63,1.143,1.029,2.439,1.195,3.891H395.784z"/>
	<path fill="#FFFFFF" d="M405.243,78.021h19.061v4.712h-13.457v5.461h12.351v4.354h-12.351v6.246h13.742v4.712h-19.346V78.021z"/>
	<path fill="#FFFFFF" d="M432.192,95.047c0,1.594,0.529,2.778,1.588,3.551c1.059,0.773,2.409,1.16,4.052,1.16
		c0.547,0,1.1-0.047,1.659-0.143c0.56-0.095,1.095-0.262,1.606-0.5c0.512-0.237,0.922-0.564,1.231-0.981
		c0.309-0.416,0.464-0.934,0.464-1.553c0-0.571-0.155-1.053-0.464-1.445c-0.31-0.393-0.727-0.726-1.249-0.999
		c-0.523-0.273-1.095-0.506-1.714-0.696s-1.451-0.404-2.498-0.643c-0.69-0.19-1.237-0.333-1.642-0.429
		c-1.119-0.309-2.106-0.63-2.963-0.963s-1.637-0.768-2.338-1.304c-0.702-0.535-1.262-1.213-1.678-2.034
		c-0.417-0.821-0.625-1.803-0.625-2.944c0-1.262,0.269-2.38,0.804-3.355s1.261-1.784,2.177-2.427s1.939-1.125,3.07-1.446
		c1.13-0.321,2.29-0.481,3.479-0.481c1.38,0,2.683,0.155,3.908,0.464c1.226,0.31,2.309,0.798,3.249,1.464
		c0.939,0.666,1.683,1.522,2.23,2.569c0.547,1.048,0.821,2.284,0.821,3.712h-5.426c-0.071-1.428-0.554-2.427-1.445-2.998
		c-0.893-0.571-2.088-0.856-3.588-0.856c-1.047,0-1.951,0.238-2.712,0.714c-0.763,0.477-1.143,1.202-1.143,2.178
		c0,0.499,0.095,0.898,0.285,1.195c0.19,0.298,0.523,0.56,1,0.785c0.476,0.227,1.106,0.459,1.892,0.696
		c0.785,0.238,2.07,0.583,3.854,1.035c0.071,0,0.262,0.048,0.571,0.143c0.071,0.024,0.143,0.036,0.214,0.036
		c0.857,0.214,1.643,0.452,2.356,0.714s1.463,0.66,2.248,1.195c0.786,0.535,1.439,1.262,1.964,2.178
		c0.522,0.916,0.785,2.017,0.785,3.301c0,2.428-0.929,4.396-2.784,5.907c-1.856,1.512-4.462,2.267-7.817,2.267
		c-1.451,0-2.825-0.178-4.122-0.535c-1.297-0.356-2.451-0.91-3.462-1.659c-1.012-0.75-1.81-1.701-2.392-2.855
		c-0.584-1.154-0.875-2.493-0.875-4.016H432.192z"/>
</g>
</svg>
