<?xml version="1.0" encoding="utf-8"?>
<!-- Generator: Adobe Illustrator 14.0.0, SVG Export Plug-In . SVG Version: 6.00 Build 43363)  -->
<!DOCTYPE svg PUBLIC "-//W3C//DTD SVG 1.1//EN" "http://www.w3.org/Graphics/SVG/1.1/DTD/svg11.dtd">
<svg version="1.1" id="Camada_1" xmlns="http://www.w3.org/2000/svg" xmlns:xlink="http://www.w3.org/1999/xlink" x="0px" y="0px"
	 width="750px" height="150px" viewBox="0 0 750 150" enable-background="new 0 0 750 150" xml:space="preserve">
<g>
	<path fill="#FFFFFF" d="M8.362,38.72h8.619l6.513,19.149h0.078l6.162-19.149h8.619v27.846H32.62V46.833h-0.078l-6.825,19.734
		h-4.719l-6.825-19.539h-0.078v19.539H8.362V38.72z"/>
	<path fill="#FFFFFF" d="M43.735,38.72h20.826v5.148H49.858v5.967h13.494v4.758H49.858v6.825h15.015v5.148H43.735V38.72z"/>
	<path fill="#FFFFFF" d="M75.169,43.868h-8.346V38.72h22.815v5.148h-8.346v22.698h-6.123V43.868z"/>
	<path fill="#FFFFFF" d="M97.555,38.72h6.279l10.413,27.846h-6.357l-2.106-6.201H95.371l-2.184,6.201h-6.201L97.555,38.72z
		 M96.97,55.802h7.215l-3.51-10.218h-0.078L96.97,55.802z"/>
	<path fill="#FFFFFF" d="M116.665,38.72h12.012c3.77,0,6.818,1.177,9.146,3.53c2.327,2.354,3.49,5.766,3.49,10.237
		c0,2.054-0.26,3.933-0.78,5.636c-0.521,1.703-1.313,3.192-2.379,4.465c-1.066,1.274-2.393,2.256-3.978,2.944
		c-1.586,0.689-3.419,1.034-5.499,1.034h-12.012V38.72z M122.788,61.418h5.46c0.936,0,1.813-0.149,2.633-0.449
		c0.819-0.298,1.553-0.78,2.203-1.443s1.164-1.534,1.541-2.613c0.376-1.079,0.565-2.36,0.565-3.842c0-2.989-0.611-5.271-1.833-6.844
		c-1.222-1.573-3.289-2.36-6.201-2.36h-4.368V61.418z"/>
	<path fill="#FFFFFF" d="M153.169,38.72h6.279l10.413,27.846h-6.357l-2.106-6.201h-10.413l-2.184,6.201H142.6L153.169,38.72z
		 M152.584,55.802h7.215l-3.51-10.218h-0.078L152.584,55.802z"/>
	<path fill="#FFFFFF" d="M172.279,38.72h12.012c3.77,0,6.818,1.177,9.146,3.53c2.327,2.354,3.49,5.766,3.49,10.237
		c0,2.054-0.26,3.933-0.78,5.636c-0.521,1.703-1.313,3.192-2.379,4.465c-1.066,1.274-2.393,2.256-3.978,2.944
		c-1.586,0.689-3.419,1.034-5.499,1.034h-12.012V38.72z M178.402,61.418h5.46c0.936,0,1.813-0.149,2.633-0.449
		c0.819-0.298,1.553-0.78,2.203-1.443s1.164-1.534,1.541-2.613c0.376-1.079,0.565-2.36,0.565-3.842c0-2.989-0.611-5.271-1.833-6.844
		c-1.222-1.573-3.289-2.36-6.201-2.36h-4.368V61.418z"/>
	<path fill="#FFFFFF" d="M200.905,46.988c0.624-1.794,1.527-3.36,2.71-4.699c1.183-1.339,2.626-2.379,4.329-3.12
		c1.703-0.741,3.607-1.111,5.713-1.111s4.01,0.37,5.713,1.111c1.703,0.741,3.152,1.781,4.349,3.12c1.196,1.339,2.1,2.905,2.71,4.699
		s0.917,3.719,0.917,5.772c0,2.002-0.306,3.881-0.917,5.636s-1.515,3.295-2.71,4.622c-1.196,1.326-2.646,2.359-4.349,3.1
		c-1.703,0.741-3.607,1.112-5.713,1.112s-4.011-0.371-5.713-1.112c-1.703-0.741-3.146-1.768-4.329-3.081s-2.086-2.854-2.71-4.622
		s-0.936-3.653-0.936-5.655C199.969,50.707,200.281,48.782,200.905,46.988z M206.521,56.251c0.286,1.105,0.734,2.1,1.345,2.983
		c0.611,0.884,1.397,1.58,2.359,2.086c0.962,0.507,2.106,0.761,3.432,0.761c1.326,0,2.477-0.26,3.452-0.78
		c0.975-0.52,1.761-1.215,2.359-2.086c0.598-0.871,1.04-1.858,1.326-2.964c0.286-1.105,0.429-2.268,0.429-3.491
		c0-1.273-0.143-2.482-0.429-3.627c-0.287-1.144-0.729-2.158-1.326-3.042c-0.598-0.883-1.384-1.585-2.359-2.106
		c-0.975-0.52-2.125-0.78-3.452-0.78c-1.326,0-2.477,0.26-3.451,0.78c-0.975,0.521-1.762,1.223-2.36,2.106
		c-0.598,0.884-1.04,1.898-1.326,3.042c-0.287,1.145-0.429,2.354-0.429,3.627C206.092,53.983,206.234,55.146,206.521,56.251z"/>
	<path fill="#FFFFFF" d="M235.692,57.323c0,1.742,0.579,3.036,1.736,3.881c1.156,0.845,2.632,1.267,4.426,1.267
		c0.598,0,1.203-0.052,1.813-0.156c0.611-0.104,1.196-0.286,1.755-0.546c0.559-0.26,1.007-0.617,1.345-1.073
		c0.338-0.455,0.507-1.02,0.507-1.696c0-0.624-0.169-1.15-0.507-1.58c-0.338-0.429-0.793-0.793-1.365-1.092
		c-0.572-0.299-1.196-0.552-1.872-0.761c-0.677-0.208-1.586-0.442-2.73-0.702c-0.754-0.208-1.353-0.364-1.794-0.468
		c-1.223-0.337-2.301-0.688-3.237-1.053c-0.936-0.364-1.788-0.838-2.554-1.423c-0.768-0.585-1.378-1.326-1.833-2.223
		c-0.456-0.897-0.683-1.969-0.683-3.217c0-1.378,0.292-2.6,0.877-3.666c0.585-1.066,1.378-1.95,2.379-2.652
		c1-0.702,2.119-1.229,3.354-1.58c1.235-0.351,2.502-0.526,3.803-0.526c1.507,0,2.931,0.169,4.271,0.507
		c1.339,0.338,2.521,0.872,3.549,1.599c1.027,0.728,1.839,1.664,2.438,2.808c0.598,1.145,0.897,2.496,0.897,4.056h-5.928
		c-0.078-1.56-0.604-2.652-1.58-3.276s-2.282-0.936-3.919-0.936c-1.145,0-2.132,0.26-2.964,0.78
		c-0.832,0.521-1.248,1.313-1.248,2.379c0,0.546,0.104,0.981,0.312,1.306c0.208,0.326,0.572,0.611,1.092,0.858
		c0.52,0.248,1.209,0.501,2.067,0.761c0.858,0.26,2.262,0.637,4.212,1.131c0.078,0,0.286,0.053,0.624,0.156
		c0.078,0.026,0.156,0.039,0.234,0.039c0.936,0.234,1.794,0.494,2.574,0.78c0.78,0.287,1.599,0.722,2.457,1.307
		s1.573,1.378,2.145,2.379c0.571,1.001,0.858,2.204,0.858,3.607c0,2.652-1.014,4.804-3.042,6.455
		c-2.028,1.651-4.875,2.477-8.541,2.477c-1.586,0-3.088-0.195-4.504-0.585c-1.417-0.39-2.678-0.995-3.783-1.813
		c-1.105-0.819-1.976-1.859-2.613-3.12c-0.638-1.261-0.956-2.723-0.956-4.388H235.692z"/>
	<path fill="#FFFFFF" d="M275.277,38.72h6.279l10.413,27.846h-6.357l-2.106-6.201h-10.413l-2.184,6.201h-6.201L275.277,38.72z
		 M274.692,55.802h7.215l-3.51-10.218h-0.078L274.692,55.802z"/>
	<path fill="#FFFFFF" d="M294.387,38.72h13.104c2.833,0,5.024,0.533,6.572,1.599c1.546,1.066,2.32,2.834,2.32,5.304
		c0,2.652-1.261,4.589-3.783,5.811c1.664,0.468,2.931,1.32,3.803,2.554c0.871,1.235,1.307,2.737,1.307,4.504
		c0,1.353-0.267,2.542-0.8,3.569c-0.533,1.027-1.261,1.872-2.184,2.535c-0.923,0.663-1.969,1.157-3.139,1.482
		s-2.405,0.487-3.705,0.487h-13.494V38.72z M300.51,49.991h6.201c1.144,0,2.053-0.273,2.73-0.819
		c0.676-0.546,1.014-1.378,1.014-2.496c0-1.222-0.384-2.06-1.15-2.515c-0.767-0.455-1.788-0.683-3.062-0.683h-5.733V49.991z
		 M300.51,61.809h6.552c1.377,0,2.476-0.279,3.295-0.839c0.819-0.559,1.229-1.501,1.229-2.827c0-1.378-0.39-2.385-1.17-3.022
		c-0.78-0.637-1.859-0.956-3.237-0.956h-6.669V61.809z"/>
	<path fill="#FFFFFF" d="M321.843,38.72h20.826v5.148h-14.702v5.967h13.493v4.758h-13.493v6.825h15.015v5.148h-21.138V38.72z"/>
	<path fill="#FFFFFF" d="M347.115,38.72h15.015c1.222,0,2.34,0.195,3.354,0.585c1.015,0.39,1.879,0.943,2.594,1.658
		c0.715,0.715,1.261,1.534,1.638,2.457c0.377,0.923,0.566,1.917,0.566,2.983c0,1.69-0.358,3.127-1.073,4.31
		c-0.715,1.184-1.826,2.074-3.334,2.671v0.078c1.378,0.364,2.372,1.125,2.983,2.282c0.61,1.157,0.968,2.568,1.072,4.231
		c0,0.104,0.013,0.416,0.039,0.936c0.078,1.326,0.188,2.457,0.332,3.393c0.143,0.936,0.409,1.69,0.799,2.262h-6.123
		c-0.233-0.52-0.396-1.118-0.487-1.794c-0.092-0.676-0.176-1.547-0.254-2.613c-0.077-0.988-0.155-1.741-0.233-2.262
		c-0.209-1.508-0.657-2.587-1.346-3.237c-0.689-0.65-1.788-0.975-3.296-0.975h-6.122v10.881h-6.123V38.72z M353.238,51.317h6.708
		c1.403,0,2.456-0.318,3.158-0.956c0.702-0.637,1.054-1.644,1.054-3.022c0-1.326-0.352-2.301-1.054-2.925s-1.755-0.936-3.158-0.936
		h-6.708V51.317z"/>
	<path fill="#FFFFFF" d="M380.732,43.868h-8.346V38.72h22.815v5.148h-8.347v22.698h-6.123V43.868z"/>
	<path fill="#FFFFFF" d="M398.126,46.988c0.624-1.794,1.527-3.36,2.711-4.699c1.183-1.339,2.625-2.379,4.328-3.12
		c1.703-0.741,3.608-1.111,5.714-1.111c2.106,0,4.011,0.37,5.714,1.111c1.702,0.741,3.152,1.781,4.349,3.12
		c1.195,1.339,2.099,2.905,2.71,4.699c0.61,1.794,0.917,3.719,0.917,5.772c0,2.002-0.307,3.881-0.917,5.636
		c-0.611,1.755-1.515,3.295-2.71,4.622c-1.196,1.326-2.646,2.359-4.349,3.1c-1.703,0.741-3.607,1.112-5.714,1.112
		c-2.105,0-4.011-0.371-5.714-1.112c-1.703-0.741-3.146-1.768-4.328-3.081c-1.184-1.313-2.087-2.854-2.711-4.622
		s-0.936-3.653-0.936-5.655C397.191,50.707,397.502,48.782,398.126,46.988z M403.742,56.251c0.285,1.105,0.734,2.1,1.346,2.983
		c0.61,0.884,1.396,1.58,2.359,2.086c0.961,0.507,2.105,0.761,3.432,0.761s2.477-0.26,3.451-0.78c0.976-0.52,1.762-1.215,2.36-2.086
		c0.598-0.871,1.039-1.858,1.325-2.964c0.286-1.105,0.43-2.268,0.43-3.491c0-1.273-0.144-2.482-0.43-3.627
		c-0.286-1.144-0.728-2.158-1.325-3.042c-0.599-0.883-1.385-1.585-2.36-2.106c-0.975-0.52-2.125-0.78-3.451-0.78
		s-2.477,0.26-3.451,0.78c-0.976,0.521-1.762,1.223-2.359,2.106c-0.599,0.884-1.041,1.898-1.326,3.042
		c-0.286,1.145-0.429,2.354-0.429,3.627C403.314,53.983,403.456,55.146,403.742,56.251z"/>
	<path fill="#FFFFFF" d="M432.914,57.323c0,1.742,0.578,3.036,1.735,3.881c1.156,0.845,2.633,1.267,4.427,1.267
		c0.598,0,1.202-0.052,1.813-0.156c0.61-0.104,1.195-0.286,1.755-0.546c0.559-0.26,1.007-0.617,1.346-1.073
		c0.337-0.455,0.507-1.02,0.507-1.696c0-0.624-0.17-1.15-0.507-1.58c-0.339-0.429-0.794-0.793-1.365-1.092
		c-0.572-0.299-1.196-0.552-1.872-0.761c-0.677-0.208-1.586-0.442-2.73-0.702c-0.754-0.208-1.352-0.364-1.794-0.468
		c-1.222-0.337-2.301-0.688-3.236-1.053c-0.937-0.364-1.788-0.838-2.555-1.423c-0.768-0.585-1.379-1.326-1.833-2.223
		c-0.455-0.897-0.683-1.969-0.683-3.217c0-1.378,0.292-2.6,0.877-3.666c0.586-1.066,1.378-1.95,2.38-2.652
		c1-0.702,2.118-1.229,3.354-1.58c1.234-0.351,2.502-0.526,3.803-0.526c1.508,0,2.931,0.169,4.271,0.507
		c1.339,0.338,2.521,0.872,3.549,1.599c1.026,0.728,1.839,1.664,2.438,2.808c0.598,1.145,0.897,2.496,0.897,4.056h-5.929
		c-0.078-1.56-0.604-2.652-1.579-3.276c-0.976-0.624-2.281-0.936-3.92-0.936c-1.145,0-2.132,0.26-2.964,0.78
		c-0.832,0.521-1.248,1.313-1.248,2.379c0,0.546,0.104,0.981,0.313,1.306c0.207,0.326,0.571,0.611,1.092,0.858
		c0.52,0.248,1.209,0.501,2.067,0.761c0.857,0.26,2.262,0.637,4.212,1.131c0.077,0,0.285,0.053,0.624,0.156
		c0.077,0.026,0.155,0.039,0.233,0.039c0.937,0.234,1.794,0.494,2.574,0.78c0.78,0.287,1.599,0.722,2.457,1.307
		s1.572,1.378,2.145,2.379c0.572,1.001,0.858,2.204,0.858,3.607c0,2.652-1.014,4.804-3.042,6.455
		c-2.028,1.651-4.875,2.477-8.541,2.477c-1.586,0-3.088-0.195-4.505-0.585c-1.417-0.39-2.678-0.995-3.782-1.813
		c-1.105-0.819-1.977-1.859-2.613-3.12c-0.638-1.261-0.956-2.723-0.956-4.388H432.914z"/>
	<path fill="#FFFFFF" d="M464.894,38.72h12.012c3.77,0,6.818,1.177,9.146,3.53c2.326,2.354,3.49,5.766,3.49,10.237
		c0,2.054-0.26,3.933-0.78,5.636c-0.52,1.703-1.313,3.192-2.379,4.465c-1.066,1.274-2.393,2.256-3.978,2.944
		c-1.586,0.689-3.419,1.034-5.499,1.034h-12.012V38.72z M471.017,61.418h5.46c0.936,0,1.813-0.149,2.632-0.449
		c0.819-0.298,1.554-0.78,2.204-1.443c0.649-0.663,1.163-1.534,1.54-2.613c0.377-1.079,0.565-2.36,0.565-3.842
		c0-2.989-0.611-5.271-1.833-6.844c-1.223-1.573-3.289-2.36-6.201-2.36h-4.367V61.418z"/>
	<path fill="#FFFFFF" d="M501.398,38.72h6.279l10.413,27.846h-6.357l-2.105-6.201h-10.413l-2.185,6.201h-6.201L501.398,38.72z
		 M500.813,55.802h7.215l-3.51-10.218h-0.078L500.813,55.802z"/>
	<path fill="#FFFFFF" d="M524.681,57.323c0,1.742,0.578,3.036,1.735,3.881c1.156,0.845,2.633,1.267,4.427,1.267
		c0.598,0,1.202-0.052,1.813-0.156c0.61-0.104,1.195-0.286,1.755-0.546c0.559-0.26,1.007-0.617,1.346-1.073
		c0.337-0.455,0.507-1.02,0.507-1.696c0-0.624-0.17-1.15-0.507-1.58c-0.339-0.429-0.794-0.793-1.365-1.092
		c-0.572-0.299-1.196-0.552-1.872-0.761c-0.677-0.208-1.586-0.442-2.73-0.702c-0.754-0.208-1.352-0.364-1.794-0.468
		c-1.222-0.337-2.301-0.688-3.236-1.053c-0.937-0.364-1.788-0.838-2.555-1.423c-0.768-0.585-1.379-1.326-1.833-2.223
		c-0.455-0.897-0.683-1.969-0.683-3.217c0-1.378,0.292-2.6,0.877-3.666c0.586-1.066,1.378-1.95,2.38-2.652
		c1-0.702,2.118-1.229,3.354-1.58c1.234-0.351,2.502-0.526,3.803-0.526c1.508,0,2.931,0.169,4.271,0.507
		c1.339,0.338,2.521,0.872,3.549,1.599c1.026,0.728,1.839,1.664,2.438,2.808c0.598,1.145,0.897,2.496,0.897,4.056h-5.929
		c-0.078-1.56-0.604-2.652-1.579-3.276c-0.976-0.624-2.281-0.936-3.92-0.936c-1.145,0-2.132,0.26-2.964,0.78
		c-0.832,0.521-1.248,1.313-1.248,2.379c0,0.546,0.104,0.981,0.313,1.306c0.207,0.326,0.571,0.611,1.092,0.858
		c0.52,0.248,1.209,0.501,2.067,0.761c0.857,0.26,2.262,0.637,4.212,1.131c0.077,0,0.285,0.053,0.624,0.156
		c0.077,0.026,0.155,0.039,0.233,0.039c0.937,0.234,1.794,0.494,2.574,0.78c0.78,0.287,1.599,0.722,2.457,1.307
		s1.572,1.378,2.145,2.379c0.572,1.001,0.858,2.204,0.858,3.607c0,2.652-1.014,4.804-3.042,6.455
		c-2.028,1.651-4.875,2.477-8.541,2.477c-1.586,0-3.088-0.195-4.505-0.585c-1.417-0.39-2.678-0.995-3.782-1.813
		c-1.105-0.819-1.977-1.859-2.613-3.12c-0.638-1.261-0.956-2.723-0.956-4.388H524.681z"/>
	<path fill="#FFFFFF" d="M7.879,82.118h16.064v4.224h-11.04v5.28h9.568v3.904h-9.568v9.44H7.879V82.118z"/>
	<path fill="#FFFFFF" d="M26.631,88.902c0.512-1.473,1.253-2.757,2.224-3.855c0.971-1.1,2.154-1.953,3.552-2.561
		s2.96-0.912,4.688-0.912c1.728,0,3.29,0.305,4.688,0.912c1.397,0.607,2.586,1.461,3.568,2.561c0.981,1.099,1.722,2.383,2.224,3.855
		c0.501,1.473,0.752,3.051,0.752,4.736c0,1.643-0.251,3.184-0.752,4.623c-0.502,1.44-1.243,2.705-2.224,3.793
		c-0.981,1.088-2.171,1.936-3.568,2.543c-1.398,0.609-2.96,0.912-4.688,0.912c-1.728,0-3.291-0.303-4.688-0.912
		c-1.397-0.607-2.581-1.449-3.552-2.527c-0.971-1.077-1.712-2.341-2.224-3.792c-0.512-1.45-0.768-2.997-0.768-4.64
		C25.863,91.953,26.119,90.375,26.631,88.902z M31.239,96.502c0.235,0.907,0.603,1.723,1.104,2.448
		c0.501,0.726,1.146,1.296,1.936,1.712c0.789,0.416,1.728,0.624,2.816,0.624c1.088,0,2.032-0.213,2.832-0.64
		c0.8-0.427,1.445-0.997,1.936-1.713c0.491-0.714,0.853-1.524,1.088-2.432c0.234-0.906,0.352-1.861,0.352-2.863
		c0-1.045-0.117-2.037-0.352-2.977c-0.235-0.938-0.598-1.771-1.088-2.496c-0.491-0.725-1.136-1.301-1.936-1.728
		c-0.8-0.427-1.744-0.64-2.832-0.64c-1.088,0-2.032,0.213-2.832,0.64c-0.8,0.427-1.446,1.003-1.936,1.728
		c-0.491,0.726-0.854,1.558-1.088,2.496c-0.235,0.939-0.352,1.932-0.352,2.977C30.887,94.641,31.004,95.596,31.239,96.502z"/>
	<path fill="#FFFFFF" d="M51.751,82.118h4.992l9.536,15.328h0.064V82.118h4.704v22.849h-5.024L56.519,89.67h-0.064v15.297h-4.704
		V82.118z"/>
	<path fill="#FFFFFF" d="M80.519,86.342h-6.848v-4.224h18.72v4.224h-6.848v18.625h-5.024V86.342z"/>
	<path fill="#FFFFFF" d="M95.014,82.118h17.088v4.224h-12.064v4.896h11.072v3.904h-11.072v5.6h12.32v4.225H95.014V82.118z"/>
	<path fill="#FFFFFF" d="M119.174,97.383c0,1.43,0.475,2.49,1.424,3.184c0.949,0.693,2.16,1.04,3.632,1.04
		c0.491,0,0.986-0.042,1.488-0.128c0.501-0.086,0.981-0.234,1.44-0.448c0.458-0.213,0.826-0.507,1.104-0.88
		c0.277-0.373,0.416-0.837,0.416-1.393c0-0.512-0.139-0.943-0.416-1.295c-0.278-0.353-0.651-0.65-1.12-0.896
		c-0.47-0.245-0.981-0.453-1.536-0.624c-0.555-0.171-1.301-0.362-2.24-0.576c-0.619-0.171-1.11-0.298-1.472-0.384
		c-1.003-0.277-1.888-0.564-2.656-0.864c-0.768-0.298-1.467-0.688-2.096-1.168c-0.629-0.479-1.131-1.088-1.504-1.823
		c-0.374-0.736-0.56-1.617-0.56-2.641c0-1.131,0.24-2.133,0.72-3.008s1.131-1.6,1.952-2.176c0.821-0.576,1.738-1.008,2.752-1.297
		c1.013-0.287,2.053-0.432,3.12-0.432c1.237,0,2.405,0.139,3.504,0.416c1.099,0.277,2.069,0.715,2.912,1.313
		c0.842,0.598,1.509,1.365,2,2.304c0.49,0.938,0.736,2.048,0.736,3.327h-4.864c-0.064-1.279-0.496-2.176-1.296-2.688
		c-0.8-0.512-1.872-0.768-3.216-0.768c-0.939,0-1.75,0.213-2.432,0.64s-1.024,1.077-1.024,1.952c0,0.447,0.085,0.806,0.256,1.072
		s0.469,0.502,0.896,0.703c0.427,0.203,0.992,0.412,1.696,0.625s1.856,0.522,3.456,0.928c0.064,0,0.234,0.043,0.512,0.128
		c0.064,0.021,0.128,0.032,0.192,0.032c0.768,0.191,1.472,0.405,2.112,0.64c0.64,0.235,1.312,0.593,2.016,1.072
		s1.291,1.131,1.76,1.952s0.704,1.808,0.704,2.959c0,2.177-0.832,3.942-2.496,5.297c-1.664,1.355-4,2.031-7.008,2.031
		c-1.302,0-2.534-0.16-3.696-0.479s-2.197-0.815-3.104-1.487c-0.907-0.673-1.621-1.525-2.144-2.561s-0.784-2.234-0.784-3.6H119.174z
		"/>
	<path fill="#FFFFFF" d="M145.414,82.118h9.856c3.093,0,5.595,0.966,7.504,2.896c1.909,1.932,2.864,4.731,2.864,8.4
		c0,1.686-0.214,3.227-0.64,4.624c-0.427,1.397-1.078,2.619-1.952,3.664c-0.875,1.046-1.963,1.851-3.264,2.416
		c-1.302,0.565-2.806,0.849-4.512,0.849h-9.856V82.118z M150.438,100.742h4.48c0.768,0,1.488-0.123,2.16-0.367
		c0.672-0.246,1.274-0.641,1.808-1.185c0.533-0.544,0.954-1.259,1.264-2.144c0.309-0.886,0.464-1.937,0.464-3.152
		c0-2.453-0.501-4.325-1.504-5.616c-1.003-1.29-2.699-1.937-5.088-1.937h-3.584V100.742z"/>
	<path fill="#FFFFFF" d="M169.126,82.118h17.088v4.224H174.15v4.896h11.072v3.904H174.15v5.6h12.32v4.225h-17.344V82.118z"/>
	<path fill="#FFFFFF" d="M198.758,82.118h5.024v22.849h-5.024V82.118z"/>
	<path fill="#FFFFFF" d="M208.198,82.118h4.992l9.536,15.328h0.064V82.118h4.704v22.849h-5.024l-9.504-15.297h-0.064v15.297h-4.704
		V82.118z"/>
	<path fill="#FFFFFF" d="M231.909,82.118h16.064v4.224h-11.04v5.28h9.568v3.904h-9.568v9.44h-5.024V82.118z"/>
	<path fill="#FFFFFF" d="M250.661,88.902c0.512-1.473,1.253-2.757,2.224-3.855c0.971-1.1,2.154-1.953,3.552-2.561
		s2.96-0.912,4.688-0.912c1.728,0,3.29,0.305,4.688,0.912c1.397,0.607,2.586,1.461,3.568,2.561c0.981,1.099,1.722,2.383,2.224,3.855
		c0.501,1.473,0.752,3.051,0.752,4.736c0,1.643-0.251,3.184-0.752,4.623c-0.502,1.44-1.243,2.705-2.224,3.793
		c-0.981,1.088-2.171,1.936-3.568,2.543c-1.398,0.609-2.96,0.912-4.688,0.912c-1.728,0-3.291-0.303-4.688-0.912
		c-1.397-0.607-2.581-1.449-3.552-2.527c-0.971-1.077-1.712-2.341-2.224-3.792c-0.512-1.45-0.768-2.997-0.768-4.64
		C249.893,91.953,250.149,90.375,250.661,88.902z M255.269,96.502c0.235,0.907,0.603,1.723,1.104,2.448
		c0.501,0.726,1.146,1.296,1.936,1.712c0.789,0.416,1.728,0.624,2.816,0.624c1.088,0,2.032-0.213,2.832-0.64
		c0.8-0.427,1.445-0.997,1.936-1.713c0.491-0.714,0.853-1.524,1.088-2.432c0.234-0.906,0.352-1.861,0.352-2.863
		c0-1.045-0.117-2.037-0.352-2.977c-0.235-0.938-0.598-1.771-1.088-2.496c-0.491-0.725-1.136-1.301-1.936-1.728
		c-0.8-0.427-1.744-0.64-2.832-0.64c-1.088,0-2.032,0.213-2.832,0.64c-0.8,0.427-1.446,1.003-1.936,1.728
		c-0.491,0.726-0.854,1.558-1.088,2.496c-0.235,0.939-0.352,1.932-0.352,2.977C254.917,94.641,255.034,95.596,255.269,96.502z"/>
	<path fill="#FFFFFF" d="M275.781,82.118h12.32c1.002,0,1.92,0.16,2.752,0.479c0.832,0.32,1.541,0.773,2.128,1.361
		c0.586,0.586,1.034,1.258,1.344,2.016c0.309,0.758,0.464,1.573,0.464,2.447c0,1.387-0.293,2.566-0.88,3.537
		c-0.587,0.971-1.499,1.701-2.736,2.191v0.064c1.13,0.299,1.946,0.922,2.448,1.871c0.501,0.949,0.794,2.107,0.88,3.473
		c0,0.086,0.01,0.342,0.032,0.768c0.064,1.088,0.155,2.016,0.272,2.784s0.336,1.387,0.656,1.856h-5.024
		c-0.192-0.427-0.325-0.918-0.4-1.473s-0.144-1.27-0.208-2.145c-0.064-0.81-0.128-1.428-0.192-1.855
		c-0.171-1.236-0.539-2.123-1.104-2.656c-0.565-0.533-1.467-0.8-2.704-0.8h-5.024v8.929h-5.024V82.118z M280.805,92.454h5.504
		c1.152,0,2.016-0.261,2.592-0.784c0.576-0.521,0.864-1.349,0.864-2.479c0-1.088-0.288-1.888-0.864-2.399
		c-0.576-0.513-1.44-0.769-2.592-0.769h-5.504V92.454z"/>
	<path fill="#FFFFFF" d="M298.885,82.118h7.072l5.344,15.712h0.064l5.056-15.712h7.072v22.849h-4.704V88.774h-0.064l-5.6,16.192
		h-3.872l-5.6-16.033h-0.064v16.033h-4.704V82.118z"/>
	<path fill="#FFFFFF" d="M334.149,82.118h5.151l8.544,22.849h-5.216l-1.728-5.088h-8.544l-1.792,5.088h-5.088L334.149,82.118z
		 M333.668,96.135h5.92l-2.88-8.385h-0.063L333.668,96.135z"/>
	<path fill="#FFFFFF" d="M365.061,89.799c-0.15-1.131-0.704-2.08-1.664-2.849s-2.07-1.151-3.328-1.151
		c-1.088,0-2.032,0.213-2.832,0.64s-1.445,1.003-1.937,1.728c-0.49,0.726-0.854,1.558-1.088,2.496
		c-0.234,0.939-0.352,1.932-0.352,2.977c0,1.002,0.117,1.957,0.352,2.863c0.234,0.907,0.603,1.723,1.104,2.448
		c0.501,0.726,1.146,1.296,1.936,1.712s1.729,0.624,2.816,0.624c1.493,0,2.683-0.464,3.567-1.392
		c0.886-0.928,1.425-2.171,1.616-3.729h4.864c-0.256,2.838-1.28,5.1-3.072,6.784c-1.792,1.686-4.085,2.538-6.88,2.56l-0.832,1.152
		h0.064c0.213-0.107,0.575-0.16,1.088-0.16c0.811,0,1.504,0.192,2.08,0.576c0.575,0.385,0.863,0.938,0.863,1.664
		c0,1.152-0.352,1.973-1.056,2.465c-0.704,0.49-1.6,0.735-2.688,0.735c-0.854,0-1.531-0.048-2.032-0.144
		c-0.502-0.097-1.094-0.262-1.776-0.496l-0.16-0.064l0.672-1.536c0.896,0.384,1.792,0.576,2.688,0.576
		c0.853,0,1.28-0.362,1.28-1.088c0-0.363-0.112-0.624-0.336-0.784c-0.225-0.16-0.539-0.24-0.944-0.24
		c-0.448,0-0.875,0.074-1.28,0.225l-0.672-0.769l1.536-2.208c-1.515-0.149-2.886-0.555-4.112-1.216s-2.267-1.524-3.12-2.592
		c-0.854-1.066-1.499-2.277-1.936-3.632c-0.438-1.355-0.656-2.801-0.656-4.336c0-1.686,0.256-3.264,0.769-4.736
		c0.512-1.473,1.253-2.757,2.224-3.855c0.971-1.1,2.154-1.953,3.552-2.561s2.96-0.912,4.688-0.912c1.258,0,2.453,0.182,3.584,0.544
		c1.13,0.363,2.139,0.896,3.023,1.601c0.886,0.703,1.61,1.567,2.177,2.592c0.564,1.023,0.922,2.187,1.071,3.488H365.061z"/>
	<path fill="#FFFFFF" d="M379.781,82.118h5.151l8.544,22.849h-5.216l-1.728-5.088h-8.544l-1.792,5.088h-5.088L379.781,82.118z
		 M388.164,75.814l-0.032,0.128c-0.149,0.491-0.293,0.907-0.432,1.248c-0.14,0.341-0.315,0.672-0.528,0.991
		c-0.277,0.406-0.624,0.721-1.04,0.945c-0.416,0.223-0.934,0.336-1.552,0.336c-0.619,0-1.462-0.171-2.528-0.513l-0.096-0.032h-0.032
		c-0.981-0.362-1.718-0.543-2.208-0.543c-0.405,0-0.704,0.111-0.896,0.336c-0.192,0.223-0.342,0.56-0.448,1.008h-1.952
		c0.128-0.555,0.277-1.051,0.448-1.488c0.17-0.438,0.405-0.843,0.704-1.217c0.298-0.373,0.688-0.666,1.168-0.879
		c0.479-0.213,1.051-0.32,1.712-0.32c0.427,0,1.034,0.149,1.824,0.447l0.224,0.097c0.896,0.384,1.6,0.575,2.112,0.575
		c0.896,0,1.344-0.372,1.344-1.119H388.164z M379.3,96.135h5.92l-2.88-8.385h-0.063L379.3,96.135z"/>
	<path fill="#FFFFFF" d="M395.237,88.902c0.512-1.473,1.253-2.757,2.224-3.855c0.971-1.1,2.154-1.953,3.552-2.561
		s2.96-0.912,4.688-0.912c1.728,0,3.29,0.305,4.688,0.912s2.587,1.461,3.568,2.561c0.98,1.099,1.723,2.383,2.224,3.855
		s0.752,3.051,0.752,4.736c0,1.643-0.251,3.184-0.752,4.623c-0.501,1.44-1.243,2.705-2.224,3.793
		c-0.981,1.088-2.171,1.936-3.568,2.543c-1.397,0.609-2.96,0.912-4.688,0.912c-1.729,0-3.291-0.303-4.688-0.912
		c-1.397-0.607-2.581-1.449-3.552-2.527c-0.971-1.077-1.712-2.341-2.224-3.792c-0.513-1.45-0.769-2.997-0.769-4.64
		C394.468,91.953,394.724,90.375,395.237,88.902z M399.844,96.502c0.234,0.907,0.603,1.723,1.104,2.448
		c0.501,0.726,1.146,1.296,1.936,1.712s1.729,0.624,2.816,0.624s2.032-0.213,2.832-0.64s1.444-0.997,1.936-1.713
		c0.49-0.714,0.854-1.524,1.088-2.432c0.234-0.906,0.353-1.861,0.353-2.863c0-1.045-0.118-2.037-0.353-2.977
		c-0.234-0.938-0.598-1.771-1.088-2.496c-0.491-0.725-1.136-1.301-1.936-1.728s-1.744-0.64-2.832-0.64s-2.032,0.213-2.832,0.64
		s-1.445,1.003-1.937,1.728c-0.49,0.726-0.854,1.558-1.088,2.496c-0.234,0.939-0.352,1.932-0.352,2.977
		C399.492,94.641,399.61,95.596,399.844,96.502z"/>
	<path fill="#FFFFFF" d="M429.252,82.118h9.856c3.093,0,5.594,0.966,7.504,2.896c1.908,1.932,2.863,4.731,2.863,8.4
		c0,1.686-0.213,3.227-0.64,4.624s-1.077,2.619-1.952,3.664c-0.875,1.046-1.963,1.851-3.264,2.416
		c-1.302,0.565-2.806,0.849-4.512,0.849h-9.856V82.118z M434.277,100.742h4.479c0.769,0,1.488-0.123,2.16-0.367
		c0.672-0.246,1.274-0.641,1.808-1.185s0.955-1.259,1.265-2.144c0.309-0.886,0.464-1.937,0.464-3.152
		c0-2.453-0.502-4.325-1.504-5.616c-1.003-1.29-2.699-1.937-5.088-1.937h-3.584V100.742z"/>
	<path fill="#FFFFFF" d="M459.204,82.118h5.151l8.544,22.849h-5.216l-1.728-5.088h-8.544l-1.792,5.088h-5.088L459.204,82.118z
		 M458.724,96.135h5.92l-2.88-8.385H461.7L458.724,96.135z"/>
	<path fill="#FFFFFF" d="M483.78,82.118h10.752c2.325,0,4.122,0.438,5.392,1.312c1.27,0.875,1.904,2.326,1.904,4.353
		c0,2.177-1.035,3.766-3.104,4.769c1.364,0.383,2.404,1.082,3.12,2.096c0.714,1.014,1.071,2.245,1.071,3.695
		c0,1.109-0.219,2.086-0.655,2.929c-0.438,0.843-1.035,1.536-1.792,2.079c-0.758,0.545-1.616,0.95-2.576,1.217
		c-0.96,0.268-1.974,0.4-3.04,0.4H483.78V82.118z M488.804,91.366h5.088c0.938,0,1.685-0.224,2.239-0.672s0.832-1.13,0.832-2.048
		c0-1.002-0.314-1.691-0.943-2.064c-0.63-0.373-1.467-0.56-2.513-0.56h-4.703V91.366z M488.804,101.063h5.376
		c1.13,0,2.031-0.229,2.703-0.688c0.673-0.459,1.009-1.232,1.009-2.32c0-1.131-0.32-1.957-0.96-2.48
		c-0.641-0.522-1.525-0.783-2.656-0.783h-5.472V101.063z"/>
	<path fill="#FFFFFF" d="M516.932,104.967h-5.664l-7.424-22.849h5.184l5.088,16.063h0.064l5.152-16.063h5.184L516.932,104.967z"/>
	<path fill="#FFFFFF" d="M529.891,97.383c0,1.43,0.475,2.49,1.424,3.184s2.16,1.04,3.633,1.04c0.49,0,0.986-0.042,1.487-0.128
		s0.981-0.234,1.44-0.448c0.458-0.213,0.826-0.507,1.104-0.88s0.416-0.837,0.416-1.393c0-0.512-0.139-0.943-0.416-1.295
		c-0.277-0.353-0.65-0.65-1.12-0.896c-0.469-0.245-0.981-0.453-1.535-0.624c-0.556-0.171-1.302-0.362-2.24-0.576
		c-0.619-0.171-1.109-0.298-1.473-0.384c-1.003-0.277-1.888-0.564-2.655-0.864c-0.769-0.298-1.468-0.688-2.097-1.168
		s-1.131-1.088-1.504-1.823c-0.373-0.736-0.56-1.617-0.56-2.641c0-1.131,0.24-2.133,0.72-3.008c0.48-0.875,1.131-1.6,1.952-2.176
		s1.738-1.008,2.752-1.297c1.013-0.287,2.053-0.432,3.12-0.432c1.237,0,2.405,0.139,3.504,0.416s2.069,0.715,2.912,1.313
		s1.509,1.365,2,2.304c0.49,0.938,0.736,2.048,0.736,3.327h-4.864c-0.064-1.279-0.496-2.176-1.296-2.688s-1.872-0.768-3.216-0.768
		c-0.939,0-1.75,0.213-2.433,0.64s-1.023,1.077-1.023,1.952c0,0.447,0.085,0.806,0.256,1.072c0.17,0.267,0.469,0.502,0.896,0.703
		c0.427,0.203,0.992,0.412,1.696,0.625s1.855,0.522,3.456,0.928c0.063,0,0.234,0.043,0.512,0.128
		c0.064,0.021,0.128,0.032,0.192,0.032c0.768,0.191,1.472,0.405,2.111,0.64c0.641,0.235,1.313,0.593,2.017,1.072
		s1.29,1.131,1.76,1.952c0.469,0.821,0.704,1.808,0.704,2.959c0,2.177-0.832,3.942-2.496,5.297c-1.664,1.355-4,2.031-7.008,2.031
		c-1.302,0-2.533-0.16-3.696-0.479s-2.197-0.815-3.104-1.487c-0.907-0.673-1.622-1.525-2.145-2.561s-0.784-2.234-0.784-3.6H529.891z
		"/>
</g>
<g>
	<rect x="569.737" y="47.143" fill="#54CF8B" width="162" height="49.715"/>
	<rect x="555.708" y="38.545" fill="#54CF8B" width="4.108" height="66.91"/>
	<g>
		<path fill="#FFFFFF" d="M608.762,60.821h12.713c2.088,0,3.648,0.517,4.682,1.551c1.033,1.032,1.551,2.395,1.551,4.086
			c0,1.148-0.324,2.16-0.971,3.037c-0.648,0.877-1.609,1.462-2.881,1.753v0.063c1.461,0.209,2.613,0.809,3.459,1.8
			c0.846,0.992,1.268,2.219,1.268,3.68c0,1.127-0.213,2.098-0.641,2.912c-0.43,0.813-0.998,1.477-1.707,1.988
			c-0.711,0.512-1.498,0.887-2.363,1.127c-0.867,0.24-1.76,0.359-2.678,0.359h-12.432V60.821z M611.08,70.528h9.174
			c1.67,0,2.943-0.308,3.82-0.924c0.877-0.615,1.314-1.633,1.314-3.053c0-1.294-0.381-2.218-1.143-2.771
			c-0.762-0.553-1.832-0.829-3.209-0.829h-9.957V70.528z M611.08,81.049h9.738c1.607,0,2.885-0.344,3.834-1.033
			c0.949-0.688,1.426-1.764,1.426-3.225c0-1.523-0.414-2.594-1.236-3.21c-0.826-0.615-1.979-0.924-3.461-0.924H611.08V81.049z"/>
		<path fill="#FFFFFF" d="M632.34,60.821h17.787v2.13h-15.469v7.577h14.902v2.129h-14.902v8.392h15.719v2.129H632.34V60.821z"/>
		<path fill="#FFFFFF" d="M660.053,62.951h-8.768v-2.13h19.85v2.13h-8.768v20.227h-2.314V62.951z"/>
		<path fill="#FFFFFF" d="M687.043,76.383H675.27l-3.039,6.795h-2.504l10.145-22.356h2.693l10.145,22.356h-2.691L687.043,76.383z
			 M681.188,63.139l-4.979,11.115h9.895L681.188,63.139z"/>
	</g>
</g>
</svg>
