<?xml version="1.0" encoding="utf-8"?>
<!-- Generator: Adobe Illustrator 14.0.0, SVG Export Plug-In . SVG Version: 6.00 Build 43363)  -->
<!DOCTYPE svg PUBLIC "-//W3C//DTD SVG 1.1//EN" "http://www.w3.org/Graphics/SVG/1.1/DTD/svg11.dtd">
<svg version="1.1" id="Camada_1" xmlns="http://www.w3.org/2000/svg" xmlns:xlink="http://www.w3.org/1999/xlink" x="0px" y="0px"
	 width="750px" height="150px" viewBox="0 0 750 150" enable-background="new 0 0 750 150" xml:space="preserve">
<g>
	<rect x="588" y="50.143" fill="#54CF8B" width="162" height="49.714"/>
	<rect x="573.973" y="41.545" fill="#54CF8B" width="4.107" height="66.91"/>
	<g>
		<path fill="#FFFFFF" d="M627.025,63.821h12.713c2.088,0,3.648,0.517,4.684,1.551c1.031,1.032,1.551,2.395,1.551,4.086
			c0,1.148-0.324,2.16-0.971,3.037c-0.648,0.877-1.609,1.462-2.883,1.753v0.063c1.461,0.209,2.613,0.809,3.459,1.8
			c0.848,0.992,1.27,2.219,1.27,3.68c0,1.127-0.213,2.098-0.643,2.912c-0.43,0.813-0.996,1.477-1.705,1.988
			c-0.713,0.512-1.498,0.887-2.363,1.127c-0.867,0.24-1.76,0.358-2.678,0.358h-12.434V63.821L627.025,63.821z M629.344,73.528h9.174
			c1.67,0,2.943-0.308,3.82-0.924c0.877-0.615,1.314-1.633,1.314-3.053c0-1.294-0.381-2.218-1.143-2.771
			c-0.764-0.553-1.832-0.829-3.209-0.829h-9.957V73.528L629.344,73.528z M629.344,84.049h9.738c1.607,0,2.885-0.344,3.834-1.033
			c0.949-0.688,1.426-1.764,1.426-3.225c0-1.523-0.414-2.594-1.236-3.21c-0.826-0.615-1.979-0.924-3.461-0.924h-10.301V84.049
			L629.344,84.049z"/>
		<path fill="#FFFFFF" d="M650.604,63.821h17.787v2.13h-15.469v7.577h14.902v2.129h-14.902v8.392h15.719v2.129h-18.037V63.821z"/>
		<path fill="#FFFFFF" d="M678.316,65.951h-8.768v-2.13h19.85v2.13h-8.768v20.227h-2.314V65.951L678.316,65.951z"/>
		<path fill="#FFFFFF" d="M705.307,79.383h-11.773l-3.039,6.795h-2.504l10.146-22.355h2.691l10.146,22.355h-2.691L705.307,79.383z
			 M699.451,66.139l-4.979,11.115h9.895L699.451,66.139z"/>
	</g>
</g>
<g>
	<path fill="#FFFFFF" d="M6.186,42.688h6.625l4.628,12.442l1.656,4.842h0.17l1.656-4.842l4.501-12.442h6.625v27.688h-5.86V60.227
		c0-2.718,0.51-6.752,0.807-9.427h-0.17l-2.25,6.412l-4.289,10.744h-2.505l-4.247-10.744L11.324,50.8h-0.17
		c0.297,2.675,0.807,6.709,0.807,9.427v10.149H6.186V42.688z"/>
	<path fill="#FFFFFF" d="M38.505,42.688h17.368v5.266H44.79v5.563h9.427v5.224H44.79v6.369h11.508v5.266H38.505V42.688z"/>
	<path fill="#FFFFFF" d="M67.129,47.954h-7.644v-5.266h21.487v5.266h-7.601v22.422h-6.242V47.954z"/>
	<path fill="#FFFFFF" d="M96.603,63.794h-8.493l-1.698,6.582h-6.37l8.706-27.688h7.474l8.706,27.688h-6.625L96.603,63.794z
		 M95.329,58.91l-0.68-2.548c-0.764-2.76-1.486-6.029-2.25-8.917h-0.17c-0.637,2.93-1.401,6.157-2.166,8.917l-0.68,2.548H95.329z"/>
	<path fill="#FFFFFF" d="M107.816,42.688h7.813c8.493,0,13.929,4.204,13.929,13.717c0,9.512-5.436,13.971-13.546,13.971h-8.196
		V42.688z M115.29,65.323c4.671,0,7.856-2.294,7.856-8.918c0-6.625-3.185-8.663-7.856-8.663h-1.189v17.581H115.29z"/>
	<path fill="#FFFFFF" d="M147.354,63.794h-8.493l-1.698,6.582h-6.37l8.706-27.688h7.474l8.706,27.688h-6.625L147.354,63.794z
		 M146.081,58.91l-0.68-2.548c-0.764-2.76-1.486-6.029-2.25-8.917h-0.17c-0.637,2.93-1.401,6.157-2.166,8.917l-0.68,2.548H146.081z"
		/>
	<path fill="#FFFFFF" d="M162.305,47.954h-7.644v-5.266h21.487v5.266h-7.601v22.422h-6.242V47.954z"/>
	<path fill="#FFFFFF" d="M177.935,56.405c0-9.045,5.138-14.226,12.569-14.226c7.474,0,12.57,5.223,12.57,14.226
		c0,9.045-5.096,14.48-12.57,14.48C183.073,70.886,177.935,65.45,177.935,56.405z M196.662,56.405c0-5.521-2.378-8.833-6.158-8.833
		c-3.737,0-6.157,3.313-6.157,8.833c0,5.563,2.42,9.088,6.157,9.088C194.284,65.493,196.662,61.968,196.662,56.405z"/>
	<path fill="#FFFFFF" d="M210.084,62.605c1.954,1.698,4.501,2.888,6.794,2.888c2.59,0,3.864-1.02,3.864-2.676
		c0-1.741-1.571-2.293-3.992-3.313l-3.567-1.528c-2.888-1.146-5.605-3.524-5.605-7.559c0-4.587,4.119-8.238,9.852-8.238
		c3.185,0,6.54,1.273,8.917,3.651l-3.142,3.949c-1.826-1.401-3.567-2.208-5.775-2.208c-2.124,0-3.525,0.935-3.525,2.506
		c0,1.698,1.826,2.293,4.247,3.27l3.525,1.443c3.354,1.359,5.478,3.61,5.478,7.517c0,4.587-3.822,8.578-10.404,8.578
		c-3.609,0-7.431-1.358-10.276-3.991L210.084,62.605z"/>
	<path fill="#FFFFFF" d="M253.657,63.794h-8.493l-1.698,6.582h-6.37l8.706-27.688h7.474l8.706,27.688h-6.625L253.657,63.794z
		 M252.383,58.91l-0.68-2.548c-0.764-2.76-1.486-6.029-2.25-8.917h-0.17c-0.637,2.93-1.401,6.157-2.166,8.917l-0.68,2.548H252.383z"
		/>
	<path fill="#FFFFFF" d="M264.871,42.688h9.47c5.775,0,10.234,1.571,10.234,6.88c0,2.463-1.444,5.139-4.671,5.987v0.17
		c3.949,0.722,6.03,2.803,6.03,6.497c0,5.648-4.756,8.153-10.786,8.153h-10.276V42.688z M274.043,53.857
		c3.058,0,4.417-1.316,4.417-3.397s-1.444-2.93-4.332-2.93h-2.973v6.327H274.043z M274.637,65.535c3.397,0,5.181-1.274,5.181-3.779
		c0-2.421-1.741-3.482-5.181-3.482h-3.482v7.262H274.637z"/>
	<path fill="#FFFFFF" d="M290.522,42.688h6.285v27.688h-6.285V42.688z"/>
	<path fill="#FFFFFF" d="M303.263,42.688h17.368v5.266h-11.083v5.563h9.427v5.224h-9.427v6.369h11.508v5.266h-17.793V42.688z"/>
	<path fill="#FFFFFF" d="M341.441,70.376l-5.309-9.979h-3.397v9.979h-6.285V42.688h9.979c5.86,0,10.701,2.039,10.701,8.621
		c0,4.076-1.996,6.667-4.926,7.983l6.242,11.083H341.441z M332.736,55.429h3.185c3.27,0,5.053-1.401,5.053-4.119
		s-1.784-3.652-5.053-3.652h-3.185V55.429z"/>
	<path fill="#FFFFFF" d="M357.157,47.954h-7.644v-5.266H371v5.266h-7.601v22.422h-6.242V47.954z"/>
	<path fill="#FFFFFF" d="M372.786,56.405c0-9.045,5.138-14.226,12.569-14.226c7.474,0,12.57,5.223,12.57,14.226
		c0,9.045-5.097,14.48-12.57,14.48C377.924,70.886,372.786,65.45,372.786,56.405z M391.513,56.405c0-5.521-2.378-8.833-6.157-8.833
		c-3.736,0-6.157,3.313-6.157,8.833c0,5.563,2.421,9.088,6.157,9.088C389.135,65.493,391.513,61.968,391.513,56.405z"/>
	<path fill="#FFFFFF" d="M404.936,62.605c1.953,1.698,4.501,2.888,6.794,2.888c2.591,0,3.864-1.02,3.864-2.676
		c0-1.741-1.571-2.293-3.991-3.313l-3.567-1.528c-2.888-1.146-5.605-3.524-5.605-7.559c0-4.587,4.119-8.238,9.852-8.238
		c3.186,0,6.54,1.273,8.918,3.651l-3.143,3.949c-1.826-1.401-3.566-2.208-5.775-2.208c-2.123,0-3.524,0.935-3.524,2.506
		c0,1.698,1.826,2.293,4.247,3.27l3.524,1.443c3.354,1.359,5.478,3.61,5.478,7.517c0,4.587-3.821,8.578-10.403,8.578
		c-3.609,0-7.432-1.358-10.277-3.991L404.936,62.605z"/>
	<path fill="#FFFFFF" d="M435.472,42.688h7.813c8.493,0,13.929,4.204,13.929,13.717c0,9.512-5.436,13.971-13.547,13.971h-8.195
		V42.688z M442.945,65.323c4.671,0,7.856-2.294,7.856-8.918c0-6.625-3.186-8.663-7.856-8.663h-1.189v17.581H442.945z"/>
	<path fill="#FFFFFF" d="M462.396,42.688h17.368v5.266h-11.083v5.563h9.427v5.224h-9.427v6.369h11.508v5.266h-17.793V42.688z"/>
	<path fill="#FFFFFF" d="M494.419,42.688h6.284V65.11h10.914v5.266h-17.198V42.688z"/>
	<path fill="#FFFFFF" d="M529.115,63.794h-8.493l-1.699,6.582h-6.369l8.705-27.688h7.474l8.705,27.688h-6.624L529.115,63.794z
		 M527.841,58.91l-0.68-2.548c-0.764-2.76-1.486-6.029-2.25-8.917h-0.17c-0.638,2.93-1.401,6.157-2.166,8.917l-0.68,2.548H527.841z"
		/>
	<path fill="#FFFFFF" d="M542.155,62.605c1.953,1.698,4.501,2.888,6.794,2.888c2.591,0,3.864-1.02,3.864-2.676
		c0-1.741-1.571-2.293-3.991-3.313l-3.567-1.528c-2.888-1.146-5.605-3.524-5.605-7.559c0-4.587,4.119-8.238,9.852-8.238
		c3.186,0,6.54,1.273,8.918,3.651l-3.143,3.949c-1.826-1.401-3.566-2.208-5.775-2.208c-2.123,0-3.524,0.935-3.524,2.506
		c0,1.698,1.826,2.293,4.247,3.27l3.524,1.443c3.354,1.359,5.478,3.61,5.478,7.517c0,4.587-3.821,8.578-10.403,8.578
		c-3.609,0-7.432-1.358-10.277-3.991L542.155,62.605z"/>
	<path fill="#FFFFFF" d="M5.495,85.471h13.868v4.174h-8.886v5.082h7.573v4.175h-7.573v8.515H5.495V85.471z"/>
	<path fill="#FFFFFF" d="M22.996,85.471h4.948v12.286c0,4.309,1.346,5.789,3.803,5.789c2.458,0,3.905-1.48,3.905-5.789V85.471h4.779
		v11.781c0,7.371-2.995,10.568-8.684,10.568c-5.688,0-8.751-3.197-8.751-10.568V85.471z"/>
	<path fill="#FFFFFF" d="M45.411,85.471h13.767v4.174h-8.785v4.41h7.472v4.14h-7.472v5.049h9.121v4.173H45.411V85.471z"/>
	<path fill="#FFFFFF" d="M63.788,85.471h5.083l5.722,10.906l2.188,4.846h0.135c-0.236-2.321-0.64-5.418-0.64-8.011v-7.741h4.712
		v21.945h-5.083l-5.722-10.938l-2.154-4.779h-0.134c0.235,2.423,0.64,5.352,0.64,7.942v7.775h-4.746V85.471z"/>
	<path fill="#FFFFFF" d="M90.444,89.645h-6.059v-4.174h17.031v4.174h-6.024v17.771h-4.948V89.645z"/>
	<path fill="#FFFFFF" d="M104.815,85.471h13.767v4.174h-8.785v4.41h7.472v4.14h-7.472v5.049h9.121v4.173h-14.103V85.471z"/>
	<path fill="#FFFFFF" d="M124.639,101.258c1.548,1.345,3.567,2.288,5.385,2.288c2.053,0,3.063-0.808,3.063-2.121
		c0-1.38-1.245-1.817-3.164-2.625l-2.827-1.212c-2.289-0.908-4.443-2.793-4.443-5.991c0-3.635,3.265-6.529,7.808-6.529
		c2.525,0,5.184,1.01,7.069,2.895l-2.491,3.131c-1.448-1.111-2.828-1.751-4.578-1.751c-1.683,0-2.793,0.74-2.793,1.986
		c0,1.346,1.447,1.817,3.365,2.591l2.794,1.145c2.659,1.077,4.342,2.861,4.342,5.958c0,3.635-3.029,6.799-8.246,6.799
		c-2.861,0-5.89-1.076-8.145-3.164L124.639,101.258z"/>
	<path fill="#FFFFFF" d="M148.838,85.471h6.193c6.732,0,11.04,3.333,11.04,10.872c0,7.54-4.308,11.073-10.737,11.073h-6.496V85.471z
		 M154.762,103.411c3.702,0,6.227-1.817,6.227-7.068c0-5.25-2.525-6.866-6.227-6.866h-0.943v13.935H154.762z"/>
	<path fill="#FFFFFF" d="M170.176,85.471h13.767v4.174h-8.785v4.41h7.472v4.14h-7.472v5.049h9.122v4.173h-14.103V85.471z"/>
	<path fill="#FFFFFF" d="M195.553,85.471h4.981v21.945h-4.981V85.471z"/>
	<path fill="#FFFFFF" d="M205.649,85.471h5.083l5.722,10.906l2.188,4.846h0.135c-0.235-2.321-0.64-5.418-0.64-8.011v-7.741h4.712
		v21.945h-5.083l-5.722-10.938l-2.154-4.779h-0.134c0.235,2.423,0.64,5.352,0.64,7.942v7.775h-4.746V85.471z"/>
	<path fill="#FFFFFF" d="M227.997,85.471h13.868v4.174h-8.886v5.082h7.573v4.175h-7.573v8.515h-4.981V85.471z"/>
	<path fill="#FFFFFF" d="M244.22,96.343c0-7.169,4.073-11.275,9.963-11.275c5.924,0,9.963,4.14,9.963,11.275
		c0,7.169-4.039,11.478-9.963,11.478C248.292,107.82,244.22,103.512,244.22,96.343z M259.063,96.343
		c0-4.376-1.885-7.001-4.881-7.001c-2.962,0-4.88,2.625-4.88,7.001c0,4.409,1.918,7.203,4.88,7.203
		C257.179,103.546,259.063,100.752,259.063,96.343z"/>
	<path fill="#FFFFFF" d="M280.132,107.416l-4.207-7.909h-2.693v7.909h-4.981V85.471h7.91c4.645,0,8.482,1.616,8.482,6.833
		c0,3.231-1.583,5.284-3.904,6.328l4.947,8.784H280.132z M273.232,95.569h2.525c2.591,0,4.005-1.111,4.005-3.266
		s-1.414-2.895-4.005-2.895h-2.525V95.569z"/>
	<path fill="#FFFFFF" d="M288.95,85.471h5.251l3.668,9.862l1.313,3.837h0.135l1.313-3.837l3.568-9.862h5.25v21.945h-4.645v-8.044
		c0-2.154,0.404-5.352,0.64-7.472h-0.135l-1.784,5.082l-3.399,8.516h-1.986l-3.366-8.516l-1.75-5.082h-0.135
		c0.236,2.12,0.64,5.317,0.64,7.472v8.044h-4.578V85.471z"/>
	<path fill="#FFFFFF" d="M324.896,102.199h-6.731l-1.347,5.217h-5.048l6.899-21.945h5.924l6.9,21.945h-5.251L324.896,102.199z
		 M323.886,98.329l-0.539-2.021c-0.605-2.188-1.178-4.779-1.784-7.068h-0.135c-0.505,2.323-1.111,4.881-1.716,7.068l-0.539,2.021
		H323.886z"/>
	<path fill="#FFFFFF" d="M342.869,85.067c2.726,0,5.015,1.347,6.496,2.86l-2.726,3.063c-1.111-1.01-2.154-1.649-3.703-1.649
		c-3.063,0-5.453,2.659-5.453,7.068c0,4.511,2.121,7.136,5.318,7.136c1.817,0,3.096-0.774,4.173-1.952l2.726,2.996
		c-1.817,2.119-4.241,3.23-6.967,3.23c-5.688,0-10.333-3.871-10.333-11.241C332.401,89.309,337.214,85.067,342.869,85.067z"/>
	<path fill="#FFFFFF" d="M352.965,85.471h4.982v21.945h-4.982V85.471z"/>
	<path fill="#FFFFFF" d="M362.018,96.343c0-7.169,4.073-11.275,9.963-11.275c5.924,0,9.962,4.14,9.962,11.275
		c0,7.169-4.038,11.478-9.962,11.478C366.091,107.82,362.018,103.512,362.018,96.343z M376.862,96.343
		c0-4.376-1.885-7.001-4.881-7.001c-2.962,0-4.88,2.625-4.88,7.001c0,4.409,1.918,7.203,4.88,7.203
		C374.977,103.546,376.862,100.752,376.862,96.343z M373.428,83.788h-3.938l2.692-4.039h5.25L373.428,83.788z"/>
	<path fill="#FFFFFF" d="M386.049,85.471h5.083l5.722,10.906l2.188,4.846h0.135c-0.235-2.321-0.64-5.418-0.64-8.011v-7.741h4.713
		v21.945h-5.083l-5.722-10.938l-2.154-4.779h-0.135c0.235,2.423,0.64,5.352,0.64,7.942v7.775h-4.746V85.471z"/>
	<path fill="#FFFFFF" d="M415.397,85.471h6.193c6.731,0,11.04,3.333,11.04,10.872c0,7.54-4.309,11.073-10.737,11.073h-6.496V85.471z
		 M421.321,103.411c3.702,0,6.227-1.817,6.227-7.068c0-5.25-2.524-6.866-6.227-6.866h-0.943v13.935H421.321z"/>
	<path fill="#FFFFFF" d="M436.736,85.471h13.766v4.174h-8.785v4.41h7.473v4.14h-7.473v5.049h9.122v4.173h-14.103V85.471z"/>
	<path fill="#FFFFFF" d="M462.113,85.471h4.98v17.772h8.651v4.173h-13.632V85.471z"/>
	<path fill="#FFFFFF" d="M489.61,102.199h-6.732l-1.346,5.217h-5.049l6.9-21.945h5.923l6.901,21.945h-5.251L489.61,102.199z
		 M488.601,98.329l-0.538-2.021c-0.606-2.188-1.179-4.779-1.784-7.068h-0.135c-0.505,2.323-1.111,4.881-1.717,7.068l-0.538,2.021
		H488.601z"/>
	<path fill="#FFFFFF" d="M505.496,85.471h7.506c4.578,0,8.112,1.245,8.112,5.453c0,1.952-1.145,4.073-3.703,4.746v0.135
		c3.131,0.572,4.779,2.221,4.779,5.149c0,4.477-3.77,6.462-8.549,6.462h-8.146V85.471z M512.767,94.323c2.424,0,3.5-1.043,3.5-2.693
		c0-1.648-1.145-2.321-3.433-2.321h-2.355v5.015H512.767z M513.238,103.579c2.691,0,4.106-1.01,4.106-2.995
		c0-1.919-1.38-2.76-4.106-2.76h-2.76v5.755H513.238z"/>
	<path fill="#FFFFFF" d="M522.561,85.471h5.25l2.66,10.232c0.639,2.39,1.077,4.611,1.75,7.035h0.135
		c0.673-2.424,1.11-4.646,1.75-7.035l2.592-10.232h5.082l-6.631,21.945h-5.958L522.561,85.471z"/>
	<path fill="#FFFFFF" d="M545.11,101.258c1.548,1.345,3.568,2.288,5.386,2.288c2.053,0,3.063-0.808,3.063-2.121
		c0-1.38-1.246-1.817-3.165-2.625l-2.827-1.212c-2.289-0.908-4.443-2.793-4.443-5.991c0-3.635,3.266-6.529,7.81-6.529
		c2.524,0,5.184,1.01,7.067,2.895l-2.489,3.131c-1.448-1.111-2.828-1.751-4.578-1.751c-1.683,0-2.794,0.74-2.794,1.986
		c0,1.346,1.447,1.817,3.366,2.591l2.793,1.145c2.659,1.077,4.343,2.861,4.343,5.958c0,3.635-3.03,6.799-8.247,6.799
		c-2.86,0-5.891-1.076-8.145-3.164L545.11,101.258z"/>
</g>
</svg>
