<?xml version="1.0" encoding="utf-8"?>
<!-- Generator: Adobe Illustrator 14.0.0, SVG Export Plug-In . SVG Version: 6.00 Build 43363)  -->
<!DOCTYPE svg PUBLIC "-//W3C//DTD SVG 1.1//EN" "http://www.w3.org/Graphics/SVG/1.1/DTD/svg11.dtd">
<svg version="1.1" id="Camada_1" xmlns="http://www.w3.org/2000/svg" xmlns:xlink="http://www.w3.org/1999/xlink" x="0px" y="0px"
	 width="730px" height="150px" viewBox="0 0 730 150" enable-background="new 0 0 730 150" xml:space="preserve">
<g>
	<rect x="568" y="47.143" fill="#54CF8B" width="162" height="49.715"/>
	<rect x="553.972" y="38.545" fill="#54CF8B" width="4.108" height="66.91"/>
	<g>
		<path fill="#FFFFFF" d="M607.026,60.821h12.713c2.088,0,3.648,0.517,4.682,1.551c1.033,1.032,1.551,2.395,1.551,4.086
			c0,1.148-0.324,2.16-0.971,3.037c-0.648,0.877-1.609,1.462-2.881,1.753v0.063c1.461,0.209,2.613,0.809,3.459,1.8
			c0.846,0.992,1.268,2.219,1.268,3.68c0,1.127-0.213,2.098-0.641,2.912c-0.43,0.813-0.998,1.477-1.707,1.988
			c-0.711,0.512-1.498,0.887-2.363,1.127c-0.867,0.24-1.76,0.359-2.678,0.359h-12.432V60.821z M609.344,70.528h9.174
			c1.67,0,2.943-0.308,3.82-0.924c0.877-0.615,1.314-1.633,1.314-3.053c0-1.294-0.381-2.218-1.143-2.771
			c-0.762-0.553-1.832-0.829-3.209-0.829h-9.957V70.528z M609.344,81.049h9.738c1.607,0,2.885-0.344,3.834-1.033
			c0.949-0.688,1.426-1.764,1.426-3.225c0-1.523-0.414-2.594-1.236-3.21c-0.826-0.615-1.979-0.924-3.461-0.924h-10.301V81.049z"/>
		<path fill="#FFFFFF" d="M630.604,60.821h17.787v2.13h-15.469v7.577h14.902v2.129h-14.902v8.392h15.719v2.129h-18.037V60.821z"/>
		<path fill="#FFFFFF" d="M658.317,62.951h-8.768v-2.13h19.85v2.13h-8.768v20.227h-2.314V62.951z"/>
		<path fill="#FFFFFF" d="M685.307,76.383h-11.773l-3.039,6.795h-2.504l10.145-22.356h2.693l10.145,22.356h-2.691L685.307,76.383z
			 M679.451,63.139l-4.979,11.115h9.895L679.451,63.139z"/>
	</g>
</g>
<g>
	<path fill="#FFFFFF" d="M8.746,39.915h7.403l5.595,16.448h0.067l5.293-16.448h7.404v23.919h-4.925V46.882h-0.067l-5.862,16.951
		H19.6L13.738,47.05H13.67v16.784H8.746V39.915z"/>
	<path fill="#FFFFFF" d="M39.13,39.915h17.889v4.422h-12.63v5.125h11.591v4.087H44.389v5.863h12.897v4.422H39.13V39.915z
		 M48.477,37.771H45.16l3.216-4.757h5.259L48.477,37.771z"/>
	<path fill="#FFFFFF" d="M66.131,44.336h-7.169v-4.422H78.56v4.422H71.39v19.497h-5.259V44.336z"/>
	<path fill="#FFFFFF" d="M85.361,39.915h5.393l8.945,23.919h-5.46l-1.809-5.327h-8.945l-1.876,5.327h-5.326L85.361,39.915z
		 M84.858,54.587h6.198l-3.015-8.777h-0.067L84.858,54.587z"/>
	<path fill="#FFFFFF" d="M101.775,39.915h10.318c3.238,0,5.857,1.011,7.856,3.032c1.999,2.021,2.998,4.953,2.998,8.794
		c0,1.764-0.224,3.378-0.67,4.84c-0.447,1.463-1.128,2.742-2.043,3.836c-0.916,1.095-2.055,1.938-3.417,2.529
		c-1.362,0.592-2.937,0.888-4.724,0.888h-10.318V39.915z M107.034,59.412h4.69c0.804,0,1.558-0.128,2.261-0.385
		c0.703-0.257,1.334-0.67,1.893-1.24c0.558-0.569,0.999-1.317,1.323-2.244c0.323-0.927,0.486-2.027,0.486-3.3
		c0-2.568-0.525-4.528-1.575-5.879c-1.05-1.351-2.825-2.027-5.326-2.027h-3.752V59.412z"/>
	<path fill="#FFFFFF" d="M126.364,47.017c0.536-1.541,1.312-2.886,2.328-4.037c1.016-1.15,2.255-2.044,3.718-2.68
		c1.463-0.637,3.099-0.955,4.908-0.955c1.809,0,3.444,0.318,4.908,0.955c1.462,0.636,2.708,1.53,3.735,2.68s1.803,2.496,2.329,4.037
		c0.524,1.541,0.787,3.194,0.787,4.958c0,1.72-0.263,3.333-0.787,4.841c-0.525,1.507-1.301,2.831-2.329,3.97
		c-1.027,1.139-2.272,2.026-3.735,2.663c-1.463,0.637-3.099,0.955-4.908,0.955c-1.809,0-3.445-0.318-4.908-0.955
		s-2.702-1.519-3.718-2.646c-1.017-1.127-1.792-2.451-2.328-3.97c-0.536-1.519-0.804-3.138-0.804-4.857
		C125.56,50.21,125.828,48.558,126.364,47.017z M131.188,54.973c0.246,0.95,0.631,1.804,1.156,2.563
		c0.524,0.759,1.2,1.356,2.027,1.792c0.826,0.436,1.809,0.653,2.948,0.653c1.139,0,2.127-0.223,2.964-0.67
		c0.838-0.446,1.513-1.044,2.027-1.792c0.514-0.748,0.893-1.596,1.139-2.546c0.246-0.949,0.368-1.948,0.368-2.998
		c0-1.094-0.123-2.133-0.368-3.116c-0.246-0.982-0.625-1.854-1.139-2.613c-0.514-0.759-1.189-1.362-2.027-1.809
		c-0.837-0.446-1.826-0.67-2.964-0.67c-1.139,0-2.127,0.224-2.965,0.67c-0.837,0.447-1.513,1.05-2.027,1.809
		c-0.514,0.759-0.894,1.63-1.139,2.613c-0.246,0.983-0.368,2.021-0.368,3.116C130.82,53.024,130.942,54.024,131.188,54.973z"/>
	<path fill="#FFFFFF" d="M152.661,39.915h5.226l9.983,16.046h0.067V39.915h4.925v23.919h-5.26l-9.949-16.013h-0.067v16.013h-4.924
		V39.915z"/>
	<path fill="#FFFFFF" d="M177.485,39.915h5.226l9.983,16.046h0.067V39.915h4.925v23.919h-5.26l-9.949-16.013h-0.067v16.013h-4.924
		V39.915z"/>
	<path fill="#FFFFFF" d="M202.308,39.915h17.889v4.422h-12.63v5.125h11.591v4.087h-11.591v5.863h12.897v4.422h-18.157V39.915z
		 M211.655,37.771h-3.317l3.216-4.757h5.259L211.655,37.771z"/>
	<path fill="#FFFFFF" d="M224.016,39.915h17.889v4.422h-12.63v5.125h11.591v4.087h-11.591v5.863h12.897v4.422h-18.157V39.915z"/>
	<path fill="#FFFFFF" d="M249.308,55.894c0,1.497,0.497,2.608,1.491,3.333c0.994,0.726,2.261,1.089,3.802,1.089
		c0.514,0,1.033-0.044,1.558-0.134c0.524-0.089,1.027-0.246,1.508-0.469c0.48-0.223,0.865-0.53,1.156-0.921
		c0.29-0.39,0.436-0.876,0.436-1.457c0-0.536-0.146-0.988-0.436-1.357c-0.291-0.368-0.682-0.681-1.173-0.938
		c-0.491-0.256-1.027-0.474-1.608-0.653c-0.581-0.179-1.362-0.38-2.345-0.603c-0.648-0.179-1.162-0.313-1.541-0.402
		c-1.05-0.29-1.977-0.591-2.781-0.904c-0.804-0.313-1.536-0.72-2.194-1.223s-1.184-1.139-1.574-1.91
		c-0.391-0.771-0.586-1.692-0.586-2.764c0-1.184,0.251-2.233,0.754-3.149c0.502-0.916,1.184-1.675,2.043-2.278
		c0.859-0.603,1.82-1.055,2.881-1.356c1.061-0.302,2.149-0.452,3.267-0.452c1.295,0,2.518,0.146,3.668,0.435
		c1.15,0.291,2.166,0.749,3.048,1.374c0.882,0.625,1.58,1.43,2.094,2.412c0.514,0.983,0.771,2.144,0.771,3.484h-5.092
		c-0.067-1.34-0.519-2.278-1.357-2.814c-0.837-0.536-1.959-0.804-3.367-0.804c-0.983,0-1.832,0.223-2.546,0.67
		c-0.715,0.447-1.072,1.128-1.072,2.043c0,0.469,0.089,0.843,0.268,1.122c0.179,0.28,0.491,0.525,0.938,0.737
		c0.447,0.212,1.039,0.43,1.776,0.653c0.737,0.223,1.943,0.547,3.618,0.971c0.067,0,0.246,0.045,0.536,0.134
		c0.067,0.022,0.134,0.033,0.201,0.033c0.804,0.201,1.541,0.425,2.211,0.67c0.67,0.246,1.374,0.62,2.11,1.123
		c0.737,0.502,1.351,1.184,1.843,2.043c0.491,0.86,0.737,1.893,0.737,3.099c0,2.278-0.871,4.126-2.613,5.544
		c-1.742,1.418-4.188,2.127-7.337,2.127c-1.362,0-2.652-0.167-3.869-0.502s-2.3-0.854-3.25-1.558s-1.697-1.597-2.245-2.68
		c-0.547-1.083-0.82-2.339-0.82-3.769H249.308z"/>
	<path fill="#FFFFFF" d="M276.544,47.017c0.536-1.541,1.312-2.886,2.328-4.037c1.016-1.15,2.255-2.044,3.718-2.68
		c1.463-0.637,3.099-0.955,4.908-0.955c1.809,0,3.444,0.318,4.908,0.955c1.462,0.636,2.708,1.53,3.735,2.68s1.803,2.496,2.329,4.037
		c0.524,1.541,0.787,3.194,0.787,4.958c0,1.72-0.263,3.333-0.787,4.841c-0.525,1.507-1.301,2.831-2.329,3.97
		c-1.027,1.139-2.272,2.026-3.735,2.663c-1.463,0.637-3.099,0.955-4.908,0.955c-1.809,0-3.445-0.318-4.908-0.955
		s-2.702-1.519-3.718-2.646c-1.017-1.127-1.792-2.451-2.328-3.97c-0.536-1.519-0.804-3.138-0.804-4.857
		C275.74,50.21,276.008,48.558,276.544,47.017z M281.367,54.973c0.246,0.95,0.631,1.804,1.156,2.563
		c0.524,0.759,1.2,1.356,2.027,1.792c0.826,0.436,1.809,0.653,2.948,0.653c1.139,0,2.127-0.223,2.964-0.67
		c0.838-0.446,1.513-1.044,2.027-1.792c0.514-0.748,0.893-1.596,1.139-2.546c0.246-0.949,0.368-1.948,0.368-2.998
		c0-1.094-0.123-2.133-0.368-3.116c-0.246-0.982-0.625-1.854-1.139-2.613c-0.514-0.759-1.189-1.362-2.027-1.809
		c-0.837-0.446-1.826-0.67-2.964-0.67c-1.139,0-2.127,0.224-2.965,0.67c-0.837,0.447-1.513,1.05-2.027,1.809
		c-0.514,0.759-0.894,1.63-1.139,2.613c-0.246,0.983-0.368,2.021-0.368,3.116C280.999,53.024,281.121,54.024,281.367,54.973z"/>
	<path fill="#FFFFFF" d="M323.142,54.789c0,3.171-0.888,5.567-2.663,7.186c-1.775,1.62-4.294,2.429-7.554,2.429
		c-3.261,0-5.773-0.804-7.538-2.412c-1.765-1.608-2.646-4.009-2.646-7.203V39.915H308v14.874c0,0.737,0.061,1.407,0.184,2.01
		c0.123,0.603,0.363,1.145,0.72,1.625c0.357,0.48,0.865,0.86,1.524,1.139c0.658,0.28,1.491,0.419,2.496,0.419
		c1.831,0,3.116-0.407,3.852-1.223c0.737-0.815,1.105-2.138,1.105-3.97V39.915h5.26V54.789z"/>
	<path fill="#FFFFFF" d="M338.786,63.833h-5.93l-7.771-23.919h5.427l5.326,16.817h0.067l5.394-16.817h5.427L338.786,63.833z"/>
	<path fill="#FFFFFF" d="M348.769,39.915h17.889v4.422h-12.629v5.125h11.591v4.087h-11.591v5.863h12.897v4.422h-18.157V39.915z"/>
	<path fill="#FFFFFF" d="M370.477,39.915h12.897c1.05,0,2.01,0.167,2.881,0.502s1.613,0.81,2.228,1.424s1.083,1.318,1.407,2.11
		c0.323,0.793,0.486,1.647,0.486,2.563c0,1.452-0.308,2.686-0.922,3.702c-0.614,1.017-1.569,1.781-2.864,2.294v0.067
		c1.184,0.313,2.038,0.966,2.563,1.959c0.525,0.994,0.832,2.206,0.922,3.635c0,0.09,0.011,0.357,0.033,0.804
		c0.067,1.139,0.162,2.11,0.285,2.915c0.122,0.804,0.352,1.452,0.687,1.943h-5.26c-0.201-0.446-0.341-0.96-0.419-1.541
		c-0.078-0.581-0.15-1.329-0.218-2.245c-0.066-0.848-0.134-1.496-0.2-1.943c-0.18-1.295-0.564-2.222-1.156-2.78
		s-1.536-0.838-2.831-0.838h-5.259v9.347h-5.26V39.915z M375.737,50.735h5.762c1.206,0,2.11-0.273,2.714-0.821
		c0.603-0.547,0.904-1.412,0.904-2.596c0-1.139-0.302-1.977-0.904-2.512c-0.604-0.536-1.508-0.804-2.714-0.804h-5.762V50.735z"/>
	<path fill="#FFFFFF" d="M399.354,44.336h-7.169v-4.422h19.598v4.422h-7.169v19.497h-5.26V44.336z"/>
	<path fill="#FFFFFF" d="M414.529,39.915h17.889v4.422h-12.629v5.125h11.591v4.087h-11.591v5.863h12.897v4.422h-18.157V39.915z"/>
	<path fill="#FFFFFF" d="M439.822,55.894c0,1.497,0.496,2.608,1.49,3.333c0.993,0.726,2.262,1.089,3.803,1.089
		c0.513,0,1.032-0.044,1.558-0.134c0.524-0.089,1.026-0.246,1.507-0.469c0.48-0.223,0.865-0.53,1.156-0.921
		c0.29-0.39,0.436-0.876,0.436-1.457c0-0.536-0.146-0.988-0.436-1.357c-0.291-0.368-0.682-0.681-1.173-0.938
		c-0.491-0.256-1.027-0.474-1.607-0.653c-0.581-0.179-1.363-0.38-2.346-0.603c-0.647-0.179-1.161-0.313-1.541-0.402
		c-1.05-0.29-1.977-0.591-2.78-0.904c-0.804-0.313-1.536-0.72-2.194-1.223c-0.659-0.502-1.184-1.139-1.574-1.91
		s-0.586-1.692-0.586-2.764c0-1.184,0.251-2.233,0.753-3.149c0.503-0.916,1.184-1.675,2.044-2.278
		c0.859-0.603,1.82-1.055,2.881-1.356c1.061-0.302,2.149-0.452,3.267-0.452c1.295,0,2.518,0.146,3.668,0.435
		c1.15,0.291,2.166,0.749,3.049,1.374c0.882,0.625,1.579,1.43,2.094,2.412c0.514,0.983,0.771,2.144,0.771,3.484h-5.093
		c-0.066-1.34-0.519-2.278-1.356-2.814c-0.837-0.536-1.96-0.804-3.366-0.804c-0.983,0-1.832,0.223-2.546,0.67
		c-0.716,0.447-1.072,1.128-1.072,2.043c0,0.469,0.089,0.843,0.268,1.122c0.179,0.28,0.491,0.525,0.938,0.737
		c0.446,0.212,1.038,0.43,1.775,0.653s1.942,0.547,3.618,0.971c0.066,0,0.245,0.045,0.536,0.134c0.066,0.022,0.134,0.033,0.2,0.033
		c0.805,0.201,1.541,0.425,2.211,0.67c0.671,0.246,1.374,0.62,2.111,1.123c0.736,0.502,1.351,1.184,1.842,2.043
		c0.491,0.86,0.737,1.893,0.737,3.099c0,2.278-0.871,4.126-2.613,5.544c-1.742,1.418-4.188,2.127-7.336,2.127
		c-1.362,0-2.652-0.167-3.869-0.502c-1.218-0.335-2.301-0.854-3.25-1.558s-1.697-1.597-2.244-2.68
		c-0.548-1.083-0.821-2.339-0.821-3.769H439.822z"/>
	<path fill="#FFFFFF" d="M467.291,39.915h10.318c3.237,0,5.856,1.011,7.855,3.032c1.998,2.021,2.998,4.953,2.998,8.794
		c0,1.764-0.224,3.378-0.67,4.84c-0.447,1.463-1.128,2.742-2.044,3.836c-0.916,1.095-2.055,1.938-3.417,2.529
		c-1.362,0.592-2.937,0.888-4.723,0.888h-10.318V39.915z M472.551,59.412h4.689c0.805,0,1.558-0.128,2.262-0.385
		c0.703-0.257,1.334-0.67,1.893-1.24c0.558-0.569,0.999-1.317,1.323-2.244c0.323-0.927,0.485-2.027,0.485-3.3
		c0-2.568-0.524-4.528-1.574-5.879c-1.05-1.351-2.825-2.027-5.326-2.027h-3.752V59.412z"/>
	<path fill="#FFFFFF" d="M492.115,39.915h17.889v4.422h-12.629v5.125h11.591v4.087h-11.591v5.863h12.897v4.422h-18.157V39.915z"/>
	<path fill="#FFFFFF" d="M517.406,55.894c0,1.497,0.496,2.608,1.49,3.333c0.993,0.726,2.262,1.089,3.803,1.089
		c0.513,0,1.032-0.044,1.558-0.134c0.524-0.089,1.026-0.246,1.507-0.469c0.48-0.223,0.865-0.53,1.156-0.921
		c0.29-0.39,0.436-0.876,0.436-1.457c0-0.536-0.146-0.988-0.436-1.357c-0.291-0.368-0.682-0.681-1.173-0.938
		c-0.491-0.256-1.027-0.474-1.607-0.653c-0.581-0.179-1.363-0.38-2.346-0.603c-0.647-0.179-1.161-0.313-1.541-0.402
		c-1.05-0.29-1.977-0.591-2.78-0.904c-0.804-0.313-1.536-0.72-2.194-1.223c-0.659-0.502-1.184-1.139-1.574-1.91
		s-0.586-1.692-0.586-2.764c0-1.184,0.251-2.233,0.753-3.149c0.503-0.916,1.184-1.675,2.044-2.278
		c0.859-0.603,1.82-1.055,2.881-1.356c1.061-0.302,2.149-0.452,3.267-0.452c1.295,0,2.518,0.146,3.668,0.435
		c1.15,0.291,2.166,0.749,3.049,1.374c0.882,0.625,1.579,1.43,2.094,2.412c0.514,0.983,0.771,2.144,0.771,3.484h-5.093
		c-0.066-1.34-0.519-2.278-1.356-2.814c-0.837-0.536-1.96-0.804-3.366-0.804c-0.983,0-1.832,0.223-2.546,0.67
		c-0.716,0.447-1.072,1.128-1.072,2.043c0,0.469,0.089,0.843,0.268,1.122c0.179,0.28,0.491,0.525,0.938,0.737
		c0.446,0.212,1.038,0.43,1.775,0.653s1.942,0.547,3.618,0.971c0.066,0,0.245,0.045,0.536,0.134c0.066,0.022,0.134,0.033,0.2,0.033
		c0.805,0.201,1.541,0.425,2.211,0.67c0.671,0.246,1.374,0.62,2.111,1.123c0.736,0.502,1.351,1.184,1.842,2.043
		c0.491,0.86,0.737,1.893,0.737,3.099c0,2.278-0.871,4.126-2.613,5.544c-1.742,1.418-4.188,2.127-7.336,2.127
		c-1.362,0-2.652-0.167-3.869-0.502c-1.218-0.335-2.301-0.854-3.25-1.558s-1.697-1.597-2.244-2.68
		c-0.548-1.083-0.821-2.339-0.821-3.769H517.406z"/>
	<path fill="#FFFFFF" d="M12.418,96.575c0,1.519,0.504,2.647,1.513,3.384c1.008,0.736,2.295,1.104,3.859,1.104
		c0.521,0,1.048-0.046,1.581-0.136c0.532-0.091,1.042-0.25,1.53-0.477s0.878-0.538,1.173-0.936c0.294-0.396,0.442-0.889,0.442-1.479
		c0-0.544-0.148-1.003-0.442-1.377c-0.295-0.374-0.692-0.691-1.19-0.951c-0.499-0.262-1.043-0.482-1.632-0.664
		c-0.589-0.181-1.383-0.385-2.38-0.611c-0.658-0.182-1.179-0.317-1.564-0.408c-1.066-0.295-2.006-0.601-2.822-0.918
		c-0.816-0.317-1.559-0.73-2.227-1.241c-0.669-0.51-1.202-1.155-1.598-1.938c-0.397-0.781-0.595-1.717-0.595-2.805
		c0-1.201,0.255-2.266,0.765-3.195c0.51-0.93,1.201-1.7,2.074-2.313c0.872-0.611,1.847-1.07,2.924-1.377
		c1.076-0.307,2.181-0.459,3.315-0.459c1.314,0,2.555,0.147,3.723,0.441c1.167,0.295,2.198,0.76,3.094,1.395
		s1.604,1.451,2.125,2.448s0.782,2.176,0.782,3.536H21.7c-0.068-1.36-0.527-2.313-1.377-2.856c-0.85-0.544-1.989-0.815-3.417-0.815
		c-0.998,0-1.859,0.227-2.584,0.68c-0.726,0.453-1.088,1.145-1.088,2.074c0,0.476,0.09,0.855,0.272,1.139
		c0.181,0.283,0.499,0.533,0.952,0.748c0.453,0.216,1.054,0.437,1.802,0.663s1.972,0.556,3.672,0.985
		c0.068,0,0.249,0.047,0.544,0.137c0.068,0.022,0.136,0.033,0.204,0.033c0.816,0.205,1.564,0.432,2.244,0.681
		c0.68,0.249,1.394,0.629,2.142,1.14c0.748,0.51,1.371,1.201,1.87,2.073c0.499,0.873,0.748,1.921,0.748,3.146
		c0,2.312-0.884,4.188-2.652,5.627s-4.25,2.158-7.446,2.158c-1.383,0-2.692-0.17-3.927-0.51c-1.236-0.34-2.335-0.867-3.298-1.581
		s-1.723-1.62-2.278-2.72c-0.556-1.1-0.833-2.374-0.833-3.825H12.418z"/>
	<path fill="#FFFFFF" d="M30.608,87.565c0.544-1.563,1.332-2.93,2.363-4.097c1.031-1.168,2.289-2.074,3.774-2.721
		c1.484-0.646,3.145-0.969,4.981-0.969s3.496,0.323,4.981,0.969c1.484,0.646,2.748,1.553,3.791,2.721
		c1.042,1.167,1.83,2.533,2.363,4.097s0.799,3.241,0.799,5.032c0,1.745-0.267,3.383-0.799,4.912
		c-0.533,1.531-1.32,2.873-2.363,4.029c-1.043,1.156-2.307,2.057-3.791,2.703c-1.485,0.646-3.145,0.969-4.981,0.969
		s-3.497-0.322-4.981-0.969c-1.485-0.646-2.743-1.541-3.774-2.686c-1.032-1.145-1.819-2.488-2.363-4.029s-0.816-3.185-0.816-4.93
		C29.792,90.807,30.064,89.129,30.608,87.565z M35.504,95.641c0.249,0.963,0.64,1.83,1.173,2.601s1.218,1.377,2.057,1.819
		c0.838,0.441,1.836,0.662,2.992,0.662c1.156,0,2.159-0.226,3.009-0.68c0.85-0.453,1.536-1.059,2.057-1.818
		c0.521-0.76,0.906-1.621,1.156-2.584c0.249-0.963,0.374-1.978,0.374-3.043c0-1.111-0.125-2.164-0.374-3.162
		c-0.25-0.998-0.635-1.881-1.156-2.652c-0.521-0.77-1.207-1.383-2.057-1.836s-1.853-0.68-3.009-0.68
		c-1.156,0-2.159,0.227-3.009,0.68c-0.85,0.453-1.536,1.066-2.057,1.836c-0.522,0.771-0.907,1.654-1.156,2.652
		c-0.25,0.998-0.374,2.051-0.374,3.162C35.13,93.663,35.254,94.678,35.504,95.641z"/>
	<path fill="#FFFFFF" d="M77.902,95.453c0,3.219-0.901,5.65-2.703,7.293c-1.802,1.645-4.358,2.465-7.667,2.465
		c-3.31,0-5.86-0.815-7.65-2.447c-1.791-1.633-2.686-4.068-2.686-7.311V80.357h5.338v15.096c0,0.748,0.062,1.428,0.187,2.04
		c0.125,0.612,0.368,1.162,0.731,1.649c0.362,0.487,0.878,0.873,1.547,1.156c0.668,0.283,1.513,0.424,2.533,0.424
		c1.858,0,3.162-0.412,3.91-1.24c0.748-0.827,1.122-2.17,1.122-4.029V80.357h5.338V95.453z"/>
	<path fill="#FFFFFF" d="M82.492,80.357h13.09c1.065,0,2.04,0.17,2.924,0.51c0.884,0.34,1.637,0.822,2.261,1.445
		c0.623,0.623,1.099,1.338,1.428,2.142c0.329,0.806,0.493,1.672,0.493,2.601c0,1.475-0.312,2.727-0.935,3.758
		c-0.624,1.031-1.593,1.808-2.907,2.328v0.068c1.201,0.318,2.068,0.98,2.601,1.989s0.844,2.239,0.935,3.688
		c0,0.092,0.011,0.363,0.034,0.816c0.068,1.156,0.164,2.143,0.289,2.958c0.124,0.816,0.357,1.474,0.697,1.972h-5.338
		c-0.204-0.453-0.346-0.974-0.425-1.563c-0.08-0.589-0.153-1.349-0.221-2.278c-0.068-0.861-0.136-1.518-0.204-1.972
		c-0.182-1.314-0.573-2.255-1.173-2.822c-0.601-0.565-1.559-0.85-2.873-0.85H87.83v9.485h-5.338V80.357z M87.83,91.34h5.848
		c1.224,0,2.142-0.277,2.754-0.834c0.612-0.555,0.918-1.434,0.918-2.635c0-1.156-0.306-2.006-0.918-2.55
		c-0.612-0.544-1.53-0.815-2.754-0.815H87.83V91.34z"/>
	<path fill="#FFFFFF" d="M123.223,88.518c-0.159-1.201-0.748-2.211-1.768-3.026s-2.199-1.224-3.536-1.224
		c-1.156,0-2.159,0.227-3.009,0.68c-0.85,0.453-1.536,1.066-2.057,1.836c-0.522,0.771-0.907,1.654-1.156,2.652
		c-0.25,0.998-0.374,2.051-0.374,3.162c0,1.065,0.125,2.08,0.374,3.043c0.249,0.963,0.64,1.83,1.173,2.601s1.218,1.377,2.057,1.819
		c0.838,0.441,1.836,0.662,2.992,0.662c1.586,0,2.85-0.492,3.791-1.479c0.94-0.986,1.513-2.307,1.717-3.961h5.168
		c-0.136,1.496-0.487,2.855-1.054,4.08c-0.567,1.225-1.321,2.273-2.261,3.145c-0.941,0.873-2.035,1.542-3.281,2.006
		c-1.247,0.465-2.607,0.697-4.08,0.697c-1.836,0-3.497-0.322-4.981-0.969c-1.485-0.646-2.743-1.541-3.774-2.686
		c-1.032-1.145-1.819-2.488-2.363-4.029s-0.816-3.185-0.816-4.93c0-1.791,0.272-3.469,0.816-5.032s1.332-2.93,2.363-4.097
		c1.031-1.168,2.289-2.074,3.774-2.721c1.484-0.646,3.145-0.969,4.981-0.969c1.337,0,2.606,0.193,3.808,0.578
		c1.201,0.386,2.272,0.951,3.213,1.699c0.94,0.748,1.711,1.666,2.312,2.755c0.6,1.088,0.98,2.323,1.139,3.706H123.223z"/>
	<path fill="#FFFFFF" d="M132.233,80.357h18.156v4.488h-12.818v5.201h11.764v4.148h-11.764v5.95h13.09v4.487h-18.428V80.357z"/>
	<path fill="#FFFFFF" d="M157.903,96.575c0,1.519,0.504,2.647,1.513,3.384c1.008,0.736,2.295,1.104,3.859,1.104
		c0.521,0,1.048-0.046,1.581-0.136c0.532-0.091,1.042-0.25,1.53-0.477s0.878-0.538,1.173-0.936c0.294-0.396,0.442-0.889,0.442-1.479
		c0-0.544-0.148-1.003-0.442-1.377c-0.295-0.374-0.692-0.691-1.19-0.951c-0.499-0.262-1.043-0.482-1.632-0.664
		c-0.589-0.181-1.383-0.385-2.38-0.611c-0.658-0.182-1.179-0.317-1.564-0.408c-1.066-0.295-2.006-0.601-2.822-0.918
		c-0.816-0.317-1.559-0.73-2.227-1.241c-0.669-0.51-1.202-1.155-1.598-1.938c-0.397-0.781-0.595-1.717-0.595-2.805
		c0-1.201,0.255-2.266,0.765-3.195c0.51-0.93,1.201-1.7,2.074-2.313c0.872-0.611,1.847-1.07,2.924-1.377
		c1.076-0.307,2.181-0.459,3.315-0.459c1.314,0,2.555,0.147,3.723,0.441c1.167,0.295,2.198,0.76,3.094,1.395
		s1.604,1.451,2.125,2.448s0.782,2.176,0.782,3.536h-5.168c-0.068-1.36-0.527-2.313-1.377-2.856
		c-0.85-0.544-1.989-0.815-3.417-0.815c-0.998,0-1.859,0.227-2.584,0.68c-0.726,0.453-1.088,1.145-1.088,2.074
		c0,0.476,0.09,0.855,0.272,1.139c0.181,0.283,0.499,0.533,0.952,0.748c0.453,0.216,1.054,0.437,1.802,0.663
		s1.972,0.556,3.672,0.985c0.068,0,0.249,0.047,0.544,0.137c0.068,0.022,0.136,0.033,0.204,0.033
		c0.816,0.205,1.564,0.432,2.244,0.681c0.68,0.249,1.394,0.629,2.142,1.14c0.748,0.51,1.371,1.201,1.87,2.073
		c0.499,0.873,0.748,1.921,0.748,3.146c0,2.312-0.884,4.188-2.652,5.627s-4.25,2.158-7.446,2.158c-1.383,0-2.692-0.17-3.927-0.51
		c-1.236-0.34-2.335-0.867-3.298-1.581s-1.723-1.62-2.278-2.72c-0.556-1.1-0.833-2.374-0.833-3.825H157.903z"/>
	<path fill="#FFFFFF" d="M185.783,80.357h10.472c3.287,0,5.944,1.025,7.973,3.076c2.028,2.053,3.043,5.027,3.043,8.926
		c0,1.791-0.227,3.429-0.68,4.913c-0.454,1.485-1.145,2.782-2.074,3.894c-0.93,1.11-2.086,1.966-3.468,2.566
		c-1.383,0.601-2.98,0.9-4.794,0.9h-10.472V80.357z M191.121,100.146h4.76c0.816,0,1.581-0.13,2.295-0.392
		c0.714-0.26,1.354-0.68,1.921-1.258c0.566-0.578,1.014-1.337,1.343-2.277c0.329-0.941,0.493-2.058,0.493-3.35
		c0-2.605-0.533-4.596-1.598-5.967s-2.868-2.057-5.406-2.057h-3.808V100.146z"/>
	<path fill="#FFFFFF" d="M213.833,84.879h-3.366l3.264-4.828h5.338L213.833,84.879z"/>
	<path fill="#FFFFFF" d="M219.782,80.357h5.338v24.275h-5.338V80.357z"/>
	<path fill="#FFFFFF" d="M229.812,80.357h5.304l10.132,16.285h0.068V80.357h4.998v24.275h-5.338l-10.098-16.252h-0.068v16.252
		h-4.998V80.357z"/>
	<path fill="#FFFFFF" d="M255.006,80.357h17.068v4.488h-11.73v5.609h10.166v4.148h-10.166v10.029h-5.338V80.357z"/>
	<path fill="#FFFFFF" d="M274.929,87.565c0.544-1.563,1.332-2.93,2.363-4.097c1.031-1.168,2.289-2.074,3.774-2.721
		c1.484-0.646,3.145-0.969,4.981-0.969s3.496,0.323,4.981,0.969c1.484,0.646,2.748,1.553,3.791,2.721
		c1.042,1.167,1.83,2.533,2.363,4.097s0.799,3.241,0.799,5.032c0,1.745-0.267,3.383-0.799,4.912
		c-0.533,1.531-1.32,2.873-2.363,4.029c-1.043,1.156-2.307,2.057-3.791,2.703c-1.485,0.646-3.145,0.969-4.981,0.969
		s-3.497-0.322-4.981-0.969c-1.485-0.646-2.743-1.541-3.774-2.686c-1.032-1.145-1.819-2.488-2.363-4.029s-0.816-3.185-0.816-4.93
		C274.114,90.807,274.385,89.129,274.929,87.565z M279.825,95.641c0.249,0.963,0.64,1.83,1.173,2.601s1.218,1.377,2.057,1.819
		c0.838,0.441,1.836,0.662,2.992,0.662c1.156,0,2.159-0.226,3.009-0.68c0.85-0.453,1.536-1.059,2.057-1.818
		c0.521-0.76,0.906-1.621,1.156-2.584c0.249-0.963,0.374-1.978,0.374-3.043c0-1.111-0.125-2.164-0.374-3.162
		c-0.25-0.998-0.635-1.881-1.156-2.652c-0.521-0.77-1.207-1.383-2.057-1.836s-1.853-0.68-3.009-0.68
		c-1.156,0-2.159,0.227-3.009,0.68c-0.85,0.453-1.536,1.066-2.057,1.836c-0.522,0.771-0.907,1.654-1.156,2.652
		c-0.25,0.998-0.374,2.051-0.374,3.162C279.451,93.663,279.576,94.678,279.825,95.641z"/>
	<path fill="#FFFFFF" d="M301.62,80.357h13.09c1.065,0,2.04,0.17,2.924,0.51c0.884,0.34,1.637,0.822,2.261,1.445
		c0.623,0.623,1.099,1.338,1.428,2.142c0.328,0.806,0.493,1.672,0.493,2.601c0,1.475-0.312,2.727-0.935,3.758
		c-0.624,1.031-1.593,1.808-2.907,2.328v0.068c1.201,0.318,2.068,0.98,2.601,1.989s0.845,2.239,0.936,3.688
		c0,0.092,0.011,0.363,0.033,0.816c0.068,1.156,0.165,2.143,0.289,2.958c0.125,0.816,0.357,1.474,0.697,1.972h-5.338
		c-0.204-0.453-0.346-0.974-0.425-1.563c-0.08-0.589-0.153-1.349-0.221-2.278c-0.068-0.861-0.137-1.518-0.204-1.972
		c-0.182-1.314-0.573-2.255-1.173-2.822c-0.601-0.565-1.559-0.85-2.873-0.85h-5.338v9.485h-5.338V80.357z M306.958,91.34h5.848
		c1.224,0,2.142-0.277,2.754-0.834c0.612-0.555,0.918-1.434,0.918-2.635c0-1.156-0.306-2.006-0.918-2.55s-1.53-0.815-2.754-0.815
		h-5.848V91.34z"/>
	<path fill="#FFFFFF" d="M326.166,80.357h7.515l5.678,16.693h0.068l5.371-16.693h7.515v24.275h-4.998V87.43h-0.068l-5.95,17.203
		h-4.113l-5.95-17.033h-0.068v17.033h-4.998V80.357z"/>
	<path fill="#FFFFFF" d="M363.634,80.357h5.475l9.078,24.275h-5.542l-1.836-5.405h-9.078l-1.904,5.405h-5.406L363.634,80.357z
		 M363.124,95.25h6.29l-3.06-8.908h-0.068L363.124,95.25z"/>
	<path fill="#FFFFFF" d="M383.151,84.846h-7.275v-4.488h19.89v4.488h-7.276v19.787h-5.338V84.846z"/>
	<path fill="#FFFFFF" d="M398.553,80.357h5.338v24.275h-5.338V80.357z"/>
	<path fill="#FFFFFF" d="M408.345,87.565c0.544-1.563,1.331-2.93,2.362-4.097c1.031-1.168,2.289-2.074,3.774-2.721
		c1.484-0.646,3.145-0.969,4.98-0.969s3.496,0.323,4.981,0.969c1.484,0.646,2.748,1.553,3.791,2.721
		c1.042,1.167,1.83,2.533,2.363,4.097c0.532,1.563,0.799,3.241,0.799,5.032c0,1.745-0.267,3.383-0.799,4.912
		c-0.533,1.531-1.321,2.873-2.363,4.029c-1.043,1.156-2.307,2.057-3.791,2.703c-1.485,0.646-3.146,0.969-4.981,0.969
		s-3.496-0.322-4.98-0.969c-1.485-0.646-2.743-1.541-3.774-2.686s-1.818-2.488-2.362-4.029s-0.816-3.185-0.816-4.93
		C407.529,90.807,407.801,89.129,408.345,87.565z M413.24,95.641c0.249,0.963,0.641,1.83,1.173,2.601s1.219,1.377,2.058,1.819
		c0.838,0.441,1.836,0.662,2.991,0.662c1.156,0,2.159-0.226,3.01-0.68c0.85-0.453,1.535-1.059,2.057-1.818s0.906-1.621,1.156-2.584
		c0.249-0.963,0.374-1.978,0.374-3.043c0-1.111-0.125-2.164-0.374-3.162c-0.25-0.998-0.635-1.881-1.156-2.652
		c-0.521-0.77-1.207-1.383-2.057-1.836c-0.851-0.453-1.854-0.68-3.01-0.68c-1.155,0-2.158,0.227-3.009,0.68
		c-0.85,0.453-1.535,1.066-2.057,1.836c-0.521,0.771-0.907,1.654-1.156,2.652c-0.25,0.998-0.374,2.051-0.374,3.162
		C412.866,93.663,412.99,94.678,413.24,95.641z"/>
	<path fill="#FFFFFF" d="M435.034,80.357h5.305l10.132,16.285h0.067V80.357h4.998v24.275h-5.338l-10.098-16.252h-0.068v16.252
		h-4.998V80.357z"/>
	<path fill="#FFFFFF" d="M480.968,104.633h-6.018l-7.889-24.275h5.509l5.405,17.068h0.068l5.474-17.068h5.509L480.968,104.633z"/>
	<path fill="#FFFFFF" d="M491.1,80.357h5.338v9.316h9.826v-9.316h5.338v24.275h-5.338V94.161h-9.826v10.472H491.1V80.357z"/>
	<path fill="#FFFFFF" d="M516.294,80.357h5.338v19.788h11.832v4.487h-17.17V80.357z"/>
</g>
</svg>
