<?xml version="1.0" encoding="utf-8"?>
<!-- Generator: Adobe Illustrator 14.0.0, SVG Export Plug-In . SVG Version: 6.00 Build 43363)  -->
<!DOCTYPE svg PUBLIC "-//W3C//DTD SVG 1.1//EN" "http://www.w3.org/Graphics/SVG/1.1/DTD/svg11.dtd">
<svg version="1.1" id="Camada_1" xmlns="http://www.w3.org/2000/svg" xmlns:xlink="http://www.w3.org/1999/xlink" x="0px" y="0px"
	 width="750px" height="150px" viewBox="0 0 750 150" enable-background="new 0 0 750 150" xml:space="preserve">
<g>
	<rect x="569.934" y="82.52" fill="#54CF8B" width="176.203" height="43.498"/>
	<g>
		<path fill="#FFFFFF" d="M616.371,106.146c0.848,0.703,1.465,1.5,1.854,2.391c0.388,0.891,0.582,1.824,0.582,2.801
			c0,1.607-0.396,3.01-1.186,4.201c-0.791,1.191-1.961,2.118-3.512,2.777c-1.552,0.662-3.433,0.992-5.646,0.992h-10.471v-27.92
			h9.953c2.067,0,3.836,0.31,5.301,0.926c1.465,0.619,2.578,1.474,3.338,2.563c0.762,1.093,1.143,2.356,1.143,3.792
			c0,1.321-0.372,2.506-1.12,3.555c-0.746,1.049-1.896,1.846-3.445,2.392C614.453,104.932,615.523,105.441,616.371,106.146z
			 M602.906,95.354v7.754h4.477c1.623,0,2.935-0.314,3.935-0.946s1.5-1.666,1.5-3.104c0-1.119-0.42-2.018-1.263-2.691
			c-0.84-0.676-2.026-1.012-3.563-1.012H602.906z M612.449,114.139c0.848-0.777,1.272-1.768,1.272-2.975
			c0-1.292-0.446-2.318-1.336-3.08c-0.891-0.762-2.227-1.143-4.008-1.143h-5.473v8.358h5.387
			C610.217,115.301,611.604,114.913,612.449,114.139z"/>
		<path fill="#FFFFFF" d="M637.461,115.215h13.314v4.094h-18.228v-27.92h18.013v4.051H637.46v7.668h11.375l-0.561,3.965H637.46
			L637.461,115.215L637.461,115.215z"/>
		<path fill="#FFFFFF" d="M685.545,91.389v4.223h-9.221v23.697h-4.912V95.609h-9.35v-4.221H685.545L685.545,91.389z"/>
		<path fill="#FFFFFF" d="M707.777,91.389l10.297,27.617v0.303h-5.17l-2.629-7.41h-11.203l-2.584,7.41h-5.041v-0.303l10.254-27.617
			H707.777z M700.453,107.934h8.4l-4.224-11.979L700.453,107.934z"/>
	</g>
</g>
<g>
	<path fill="#FFFFFF" d="M40.556,34.563v31.104h-6.624V46.322c-0.418,1.185-1.126,2.736-2.122,4.656l-5.401,10.848h-5.257
		l-5.498-10.848c-0.997-1.952-1.704-3.504-2.122-4.656v19.344H6.908V34.563h7.008l7.104,13.632c0.544,1.056,1.056,2.136,1.536,3.24
		s0.864,2.072,1.152,2.904c0.452-1.471,1.357-3.52,2.714-6.144l7.222-13.632H40.556z"/>
	<path fill="#FFFFFF" d="M53.996,60.099h14.4v5.567H47.372V34.563h20.784v5.52h-14.16v7.008h12.24l-0.78,5.472h-11.46V60.099z"/>
	<path fill="#FFFFFF" d="M97.531,34.563v5.808h-9.888v25.295h-6.624V40.371h-9.936v-5.808H97.531z"/>
	<path fill="#FFFFFF" d="M114.043,34.563l11.184,30.721v0.383h-7.248l-2.496-7.439h-11.52l-2.448,7.439h-7.152v-0.383l11.184-30.721
		H114.043z M105.787,52.754h7.872l-3.984-11.856L105.787,52.754z"/>
	<path fill="#FFFFFF" d="M152.155,38.09c2.976,2.352,4.464,6.36,4.464,12.024c0,3.456-0.785,6.352-2.352,8.688
		c-1.568,2.336-3.656,4.064-6.264,5.184c-2.608,1.121-5.48,1.68-8.616,1.68h-10.128V34.563h10.368
		C145.003,34.563,149.179,35.738,152.155,38.09z M144.65,59.019c1.637-0.528,2.873-1.495,3.708-2.903
		c0.835-1.409,1.252-3.409,1.252-6c0-2.4-0.375-4.304-1.127-5.712c-0.751-1.408-1.862-2.424-3.333-3.048
		c-1.47-0.624-3.323-0.936-5.561-0.936h-3.707v19.392h2.204C140.826,59.811,143.014,59.547,144.65,59.019z"/>
	<path fill="#FFFFFF" d="M177.258,34.563l11.184,30.721v0.383h-7.248l-2.496-7.439h-11.52l-2.448,7.439h-7.152v-0.383l11.184-30.721
		H177.258z M169.002,52.754h7.872l-3.984-11.856L169.002,52.754z"/>
	<path fill="#FFFFFF" d="M215.371,38.09c2.976,2.352,4.464,6.36,4.464,12.024c0,3.456-0.785,6.352-2.352,8.688
		c-1.568,2.336-3.656,4.064-6.264,5.184c-2.608,1.121-5.48,1.68-8.616,1.68h-10.128V34.563h10.368
		C208.218,34.563,212.395,35.738,215.371,38.09z M207.866,59.019c1.637-0.528,2.873-1.495,3.708-2.903
		c0.835-1.409,1.252-3.409,1.252-6c0-2.4-0.375-4.304-1.127-5.712c-0.751-1.408-1.862-2.424-3.333-3.048
		c-1.47-0.624-3.323-0.936-5.561-0.936h-3.707v19.392h2.204C204.042,59.811,206.229,59.547,207.866,59.019z"/>
	<path fill="#FFFFFF" d="M230.466,64.274c-2.321-1.376-4.073-3.288-5.256-5.735c-1.184-2.449-1.776-5.288-1.776-8.521
		c0-3.583,0.72-6.583,2.16-9c1.44-2.416,3.352-4.208,5.736-5.376c2.384-1.168,5.032-1.752,7.944-1.752
		c3.328,0,6.151,0.688,8.472,2.064c2.32,1.376,4.063,3.288,5.232,5.736c1.168,2.448,1.752,5.288,1.752,8.52
		c0,3.584-0.712,6.584-2.136,9c-1.424,2.416-3.329,4.208-5.712,5.375c-2.384,1.168-5.033,1.752-7.944,1.752
		C235.609,66.338,232.786,65.65,230.466,64.274z M243.762,59.498c1.328-0.848,2.32-2.063,2.976-3.647
		c0.655-1.584,0.984-3.448,0.984-5.592c0-3.391-0.72-6.04-2.16-7.944c-1.44-1.903-3.536-2.856-6.288-2.856
		c-2.88,0-5.072,0.936-6.576,2.808c-1.504,1.872-2.256,4.44-2.256,7.704c0,3.392,0.72,6.041,2.16,7.943
		c1.44,1.904,3.552,2.856,6.336,2.856C240.826,60.771,242.434,60.347,243.762,59.498z"/>
	<path fill="#FFFFFF" d="M257.418,62.595l3.072-4.753c2.976,1.889,5.888,2.832,8.736,2.832c1.824,0,3.255-0.287,4.296-0.863
		c1.04-0.576,1.56-1.439,1.56-2.592c0-0.703-0.168-1.288-0.504-1.752c-0.336-0.463-0.928-0.912-1.776-1.344
		c-0.848-0.432-2.12-0.984-3.816-1.656l-1.104-0.432c-2.048-0.8-3.696-1.568-4.944-2.304c-1.248-0.736-2.24-1.68-2.976-2.832
		c-0.736-1.152-1.104-2.608-1.104-4.368c0-1.951,0.56-3.576,1.68-4.872c1.12-1.296,2.56-2.248,4.32-2.856
		c1.759-0.608,3.631-0.912,5.616-0.912c1.792,0,3.64,0.296,5.544,0.888c1.903,0.593,3.72,1.464,5.448,2.616l-3.101,4.704
		c-1.527-0.928-2.878-1.6-4.055-2.016c-1.177-0.416-2.449-0.624-3.816-0.624c-1.527,0-2.68,0.256-3.459,0.768
		c-0.779,0.512-1.168,1.2-1.168,2.064c0,0.544,0.159,1.032,0.477,1.464s0.89,0.864,1.718,1.296c0.827,0.432,2.021,0.936,3.579,1.512
		l1.05,0.384c2.036,0.768,3.682,1.488,4.938,2.16c1.256,0.672,2.314,1.632,3.173,2.88c0.859,1.248,1.289,2.864,1.289,4.848
		c0,2.081-0.544,3.833-1.632,5.256c-1.088,1.425-2.568,2.489-4.44,3.193c-1.872,0.703-3.993,1.055-6.36,1.055
		C264.858,66.338,260.778,65.09,257.418,62.595z"/>
	<path fill="#FFFFFF" d="M314.729,34.563l11.184,30.721v0.383h-7.248l-2.496-7.439h-11.52l-2.448,7.439h-7.152v-0.383l11.184-30.721
		H314.729z M306.473,52.754h7.872l-3.984-11.856L306.473,52.754z"/>
	<path fill="#FFFFFF" d="M351.329,50.955c0.912,0.752,1.584,1.608,2.016,2.568s0.648,1.968,0.648,3.024
		c0,2.912-1.024,5.16-3.072,6.744s-4.976,2.375-8.784,2.375h-12.192V34.563h11.376c2.463,0,4.552,0.344,6.264,1.032
		c1.711,0.688,3,1.648,3.864,2.88c0.864,1.232,1.296,2.68,1.296,4.344c0,1.376-0.4,2.648-1.2,3.816c-0.8,1.169-2,2.057-3.6,2.664
		C349.289,49.651,350.417,50.203,351.329,50.955z M336.569,39.938v7.248h3.832c3.557,0,5.336-1.264,5.336-3.792
		c0-1.12-0.397-1.976-1.189-2.568c-0.792-0.592-1.948-0.888-3.468-0.888H336.569z M345.714,59.115
		c0.848-0.721,1.271-1.688,1.271-2.904c0-1.184-0.44-2.128-1.321-2.833c-0.881-0.704-2.217-1.056-4.01-1.056h-5.085v7.872h4.89
		C343.448,60.194,344.866,59.834,345.714,59.115z"/>
	<path fill="#FFFFFF" d="M365.849,60.099h14.399v5.567h-21.023V34.563h20.784v5.52h-14.16v7.008h12.24l-0.78,5.472h-11.46V60.099z"
		/>
	<path fill="#FFFFFF" d="M410.439,65.283v0.383h-7.617l-7.812-11.328h-2.619v11.328h-6.624V34.563h10.416
		c2.752,0,5.047,0.424,6.888,1.272c1.84,0.848,3.208,2,4.104,3.456c0.896,1.457,1.344,3.112,1.344,4.968
		c0,2.177-0.545,4.056-1.632,5.64c-1.089,1.584-2.688,2.76-4.801,3.528L410.439,65.283z M392.392,49.203h2.991
		c1.961,0,3.473-0.368,4.535-1.104c1.062-0.736,1.594-1.952,1.594-3.648c0-1.472-0.475-2.576-1.422-3.312
		c-0.948-0.736-2.272-1.104-3.972-1.104h-3.727V49.203z"/>
	<path fill="#FFFFFF" d="M437.08,34.563v5.808h-9.889v25.295h-6.624V40.371h-9.936v-5.808H437.08z"/>
	<path fill="#FFFFFF" d="M445.407,64.274c-2.32-1.376-4.072-3.288-5.256-5.735c-1.184-2.449-1.775-5.288-1.775-8.521
		c0-3.583,0.72-6.583,2.159-9c1.44-2.416,3.353-4.208,5.736-5.376c2.384-1.168,5.032-1.752,7.944-1.752
		c3.327,0,6.151,0.688,8.472,2.064c2.32,1.376,4.063,3.288,5.232,5.736c1.167,2.448,1.752,5.288,1.752,8.52
		c0,3.584-0.713,6.584-2.137,9s-3.328,4.208-5.712,5.375c-2.384,1.168-5.032,1.752-7.943,1.752
		C450.551,66.338,447.728,65.65,445.407,64.274z M458.703,59.498c1.328-0.848,2.32-2.063,2.977-3.647
		c0.655-1.584,0.984-3.448,0.984-5.592c0-3.391-0.721-6.04-2.16-7.944c-1.44-1.903-3.536-2.856-6.288-2.856
		c-2.88,0-5.072,0.936-6.576,2.808c-1.505,1.872-2.256,4.44-2.256,7.704c0,3.392,0.72,6.041,2.16,7.943
		c1.439,1.904,3.552,2.856,6.336,2.856C455.768,60.771,457.375,60.347,458.703,59.498z"/>
	<path fill="#FFFFFF" d="M472.359,62.595l3.072-4.753c2.976,1.889,5.887,2.832,8.735,2.832c1.824,0,3.256-0.287,4.296-0.863
		s1.561-1.439,1.561-2.592c0-0.703-0.168-1.288-0.504-1.752c-0.336-0.463-0.929-0.912-1.776-1.344
		c-0.849-0.432-2.12-0.984-3.815-1.656l-1.104-0.432c-2.048-0.8-3.696-1.568-4.944-2.304c-1.248-0.736-2.24-1.68-2.976-2.832
		c-0.736-1.152-1.104-2.608-1.104-4.368c0-1.951,0.56-3.576,1.681-4.872c1.119-1.296,2.56-2.248,4.319-2.856
		s3.632-0.912,5.616-0.912c1.792,0,3.64,0.296,5.544,0.888c1.903,0.593,3.721,1.464,5.448,2.616l-3.102,4.704
		c-1.526-0.928-2.878-1.6-4.055-2.016c-1.177-0.416-2.449-0.624-3.816-0.624c-1.526,0-2.68,0.256-3.459,0.768
		c-0.779,0.512-1.168,1.2-1.168,2.064c0,0.544,0.158,1.032,0.477,1.464s0.891,0.864,1.718,1.296
		c0.827,0.432,2.021,0.936,3.579,1.512l1.05,0.384c2.035,0.768,3.682,1.488,4.938,2.16s2.313,1.632,3.174,2.88
		c0.858,1.248,1.288,2.864,1.288,4.848c0,2.081-0.545,3.833-1.632,5.256c-1.089,1.425-2.568,2.489-4.44,3.193
		c-1.872,0.703-3.992,1.055-6.359,1.055C479.799,66.338,475.72,65.09,472.359,62.595z"/>
	<path fill="#FFFFFF" d="M535.718,38.09c2.977,2.352,4.464,6.36,4.464,12.024c0,3.456-0.784,6.352-2.352,8.688
		c-1.568,2.336-3.656,4.064-6.264,5.184c-2.608,1.121-5.48,1.68-8.616,1.68h-10.128V34.563h10.368
		C528.566,34.563,532.742,35.738,535.718,38.09z M528.214,59.019c1.636-0.528,2.872-1.495,3.708-2.903
		c0.834-1.409,1.252-3.409,1.252-6c0-2.4-0.376-4.304-1.127-5.712c-0.752-1.408-1.862-2.424-3.332-3.048
		c-1.471-0.624-3.323-0.936-5.562-0.936h-3.707v19.392h2.204C524.39,59.811,526.577,59.547,528.214,59.019z"/>
	<path fill="#FFFFFF" d="M560.822,34.563l11.185,30.721v0.383h-7.248l-2.496-7.439h-11.521l-2.448,7.439h-7.151v-0.383
		l11.184-30.721H560.822z M552.566,52.754h7.872l-3.984-11.856L552.566,52.754z"/>
	<path fill="#FFFFFF" d="M573.063,62.595l3.072-4.753c2.976,1.889,5.887,2.832,8.735,2.832c1.824,0,3.256-0.287,4.296-0.863
		s1.561-1.439,1.561-2.592c0-0.703-0.168-1.288-0.504-1.752c-0.336-0.463-0.929-0.912-1.776-1.344
		c-0.849-0.432-2.12-0.984-3.815-1.656l-1.104-0.432c-2.048-0.8-3.696-1.568-4.944-2.304c-1.248-0.736-2.24-1.68-2.976-2.832
		c-0.736-1.152-1.104-2.608-1.104-4.368c0-1.951,0.56-3.576,1.681-4.872c1.119-1.296,2.56-2.248,4.319-2.856
		s3.632-0.912,5.616-0.912c1.792,0,3.64,0.296,5.544,0.888c1.903,0.593,3.721,1.464,5.448,2.616l-3.102,4.704
		c-1.526-0.928-2.878-1.6-4.055-2.016c-1.177-0.416-2.449-0.624-3.816-0.624c-1.526,0-2.68,0.256-3.459,0.768
		c-0.779,0.512-1.168,1.2-1.168,2.064c0,0.544,0.158,1.032,0.477,1.464s0.891,0.864,1.718,1.296
		c0.827,0.432,2.021,0.936,3.579,1.512l1.05,0.384c2.035,0.768,3.682,1.488,4.938,2.16s2.313,1.632,3.174,2.88
		c0.858,1.248,1.288,2.864,1.288,4.848c0,2.081-0.545,3.833-1.632,5.256c-1.089,1.425-2.568,2.489-4.44,3.193
		c-1.872,0.703-3.992,1.055-6.359,1.055C580.502,66.338,576.423,65.09,573.063,62.595z"/>
	<path fill="#FFFFFF" d="M634.909,50.955c0.912,0.752,1.584,1.608,2.016,2.568c0.433,0.96,0.648,1.968,0.648,3.024
		c0,2.912-1.024,5.16-3.072,6.744s-4.976,2.375-8.784,2.375h-12.191V34.563h11.376c2.464,0,4.552,0.344,6.264,1.032
		c1.712,0.688,3,1.648,3.864,2.88c0.864,1.232,1.296,2.68,1.296,4.344c0,1.376-0.4,2.648-1.2,3.816c-0.8,1.169-2,2.057-3.6,2.664
		C632.869,49.651,633.997,50.203,634.909,50.955z M620.149,39.938v7.248h3.832c3.557,0,5.336-1.264,5.336-3.792
		c0-1.12-0.396-1.976-1.188-2.568c-0.792-0.592-1.949-0.888-3.469-0.888H620.149z M629.294,59.115
		c0.848-0.721,1.271-1.688,1.271-2.904c0-1.184-0.44-2.128-1.321-2.833c-0.88-0.704-2.217-1.056-4.009-1.056h-5.086v7.872h4.89
		C627.028,60.194,628.446,59.834,629.294,59.115z"/>
	<path fill="#FFFFFF" d="M658.933,34.563l11.185,30.721v0.383h-7.248l-2.496-7.439h-11.521l-2.448,7.439h-7.151v-0.383
		l11.184-30.721H658.933z M650.677,52.754h7.872l-3.984-11.856L650.677,52.754z"/>
	<path fill="#FFFFFF" d="M671.173,62.595l3.072-4.753c2.976,1.889,5.887,2.832,8.735,2.832c1.824,0,3.256-0.287,4.296-0.863
		s1.561-1.439,1.561-2.592c0-0.703-0.168-1.288-0.504-1.752c-0.336-0.463-0.929-0.912-1.776-1.344
		c-0.849-0.432-2.12-0.984-3.815-1.656l-1.104-0.432c-2.048-0.8-3.696-1.568-4.944-2.304c-1.248-0.736-2.24-1.68-2.976-2.832
		c-0.736-1.152-1.104-2.608-1.104-4.368c0-1.951,0.56-3.576,1.681-4.872c1.119-1.296,2.56-2.248,4.319-2.856
		s3.632-0.912,5.616-0.912c1.792,0,3.64,0.296,5.544,0.888c1.903,0.593,3.721,1.464,5.448,2.616l-3.102,4.704
		c-1.526-0.928-2.878-1.6-4.055-2.016c-1.177-0.416-2.449-0.624-3.816-0.624c-1.526,0-2.68,0.256-3.459,0.768
		c-0.779,0.512-1.168,1.2-1.168,2.064c0,0.544,0.158,1.032,0.477,1.464s0.891,0.864,1.718,1.296
		c0.827,0.432,2.021,0.936,3.579,1.512l1.05,0.384c2.035,0.768,3.682,1.488,4.938,2.16s2.313,1.632,3.174,2.88
		c0.858,1.248,1.288,2.864,1.288,4.848c0,2.081-0.545,3.833-1.632,5.256c-1.089,1.425-2.568,2.489-4.44,3.193
		c-1.872,0.703-3.992,1.055-6.359,1.055C678.612,66.338,674.533,65.09,671.173,62.595z"/>
	<path fill="#FFFFFF" d="M707.461,60.099h14.399v5.567h-21.023V34.563h20.784v5.52h-14.16v7.008h12.24l-0.78,5.472h-11.46V60.099z"
		/>
	<path fill="#FFFFFF" d="M724.836,62.595l3.072-4.753c2.976,1.889,5.887,2.832,8.735,2.832c1.824,0,3.256-0.287,4.296-0.863
		s1.561-1.439,1.561-2.592c0-0.703-0.168-1.288-0.504-1.752c-0.336-0.463-0.929-0.912-1.776-1.344
		c-0.849-0.432-2.12-0.984-3.815-1.656l-1.104-0.432c-2.048-0.8-3.696-1.568-4.944-2.304c-1.248-0.736-2.24-1.68-2.976-2.832
		c-0.736-1.152-1.104-2.608-1.104-4.368c0-1.951,0.56-3.576,1.681-4.872c1.119-1.296,2.56-2.248,4.319-2.856
		s3.632-0.912,5.616-0.912c1.792,0,3.64,0.296,5.544,0.888c1.903,0.593,3.721,1.464,5.448,2.616l-3.102,4.704
		c-1.526-0.928-2.878-1.6-4.055-2.016c-1.177-0.416-2.449-0.624-3.816-0.624c-1.526,0-2.68,0.256-3.459,0.768
		c-0.779,0.512-1.168,1.2-1.168,2.064c0,0.544,0.158,1.032,0.477,1.464s0.891,0.864,1.718,1.296
		c0.827,0.432,2.021,0.936,3.579,1.512l1.05,0.384c2.035,0.768,3.682,1.488,4.938,2.16s2.313,1.632,3.174,2.88
		c0.858,1.248,1.288,2.864,1.288,4.848c0,2.081-0.545,3.833-1.632,5.256c-1.089,1.425-2.568,2.489-4.44,3.193
		c-1.872,0.703-3.992,1.055-6.359,1.055C732.275,66.338,728.196,65.09,724.836,62.595z"/>
	<path fill="#FFFFFF" d="M28.292,108.555c0.912,0.752,1.584,1.608,2.016,2.568s0.648,1.968,0.648,3.023
		c0,2.912-1.024,5.16-3.072,6.744s-4.976,2.376-8.784,2.376H6.908V92.163h11.376c2.463,0,4.552,0.344,6.264,1.031
		c1.711,0.688,3,1.648,3.864,2.88c0.864,1.232,1.296,2.681,1.296,4.345c0,1.376-0.4,2.647-1.2,3.815c-0.8,1.169-2,2.057-3.6,2.664
		C26.252,107.251,27.38,107.803,28.292,108.555z M13.532,97.539v7.247h3.832c3.557,0,5.336-1.264,5.336-3.792
		c0-1.119-0.397-1.975-1.189-2.567c-0.792-0.592-1.948-0.888-3.468-0.888H13.532z M22.677,116.715
		c0.848-0.721,1.271-1.688,1.271-2.904c0-1.184-0.44-2.128-1.321-2.832c-0.881-0.703-2.217-1.056-4.01-1.056h-5.085v7.872h4.89
		C20.411,117.795,21.829,117.435,22.677,116.715z"/>
	<path fill="#FFFFFF" d="M36.379,123.267V92.163h6.624v31.104H36.379z"/>
	<path fill="#FFFFFF" d="M71.251,108.555c0.912,0.752,1.584,1.608,2.016,2.568s0.648,1.968,0.648,3.023
		c0,2.912-1.024,5.16-3.072,6.744s-4.976,2.376-8.784,2.376H49.867V92.163h11.376c2.463,0,4.552,0.344,6.264,1.031
		c1.711,0.688,3,1.648,3.864,2.88c0.864,1.232,1.296,2.681,1.296,4.345c0,1.376-0.4,2.647-1.2,3.815c-0.8,1.169-2,2.057-3.6,2.664
		C69.211,107.251,70.339,107.803,71.251,108.555z M56.491,97.539v7.247h3.832c3.557,0,5.336-1.264,5.336-3.792
		c0-1.119-0.397-1.975-1.189-2.567c-0.792-0.592-1.948-0.888-3.468-0.888H56.491z M65.636,116.715
		c0.848-0.721,1.271-1.688,1.271-2.904c0-1.184-0.44-2.128-1.321-2.832c-0.881-0.703-2.217-1.056-4.01-1.056h-5.085v7.872h4.89
		C63.37,117.795,64.788,117.435,65.636,116.715z"/>
	<path fill="#FFFFFF" d="M85.771,117.41h14.304v5.856H79.146V92.163h6.624V117.41z"/>
	<path fill="#FFFFFF" d="M104.346,123.267V92.163h6.624v31.104H104.346z"/>
	<path fill="#FFFFFF" d="M123.233,121.875c-2.321-1.376-4.073-3.288-5.256-5.736c-1.184-2.448-1.776-5.287-1.776-8.521
		c0-3.583,0.72-6.583,2.16-9c1.44-2.415,3.352-4.207,5.736-5.376c2.384-1.167,5.032-1.752,7.944-1.752
		c3.328,0,6.151,0.688,8.472,2.064c2.32,1.376,4.063,3.288,5.232,5.736c1.168,2.447,1.752,5.288,1.752,8.52
		c0,3.584-0.712,6.584-2.136,9c-1.424,2.417-3.329,4.208-5.712,5.376c-2.384,1.168-5.033,1.752-7.944,1.752
		C128.377,123.938,125.553,123.251,123.233,121.875z M136.529,117.099c1.328-0.848,2.32-2.064,2.976-3.648
		c0.655-1.584,0.984-3.447,0.984-5.592c0-3.392-0.72-6.039-2.16-7.943c-1.44-1.904-3.536-2.856-6.288-2.856
		c-2.88,0-5.072,0.936-6.576,2.808c-1.504,1.872-2.256,4.44-2.256,7.704c0,3.393,0.72,6.041,2.16,7.944
		c1.44,1.904,3.552,2.855,6.336,2.855C133.593,118.37,135.201,117.947,136.529,117.099z"/>
	<path fill="#FFFFFF" d="M177.929,105.362v15.553c-2.144,1.088-4.152,1.864-6.024,2.327c-1.872,0.464-3.784,0.696-5.736,0.696
		c-5.216,0-9.041-1.447-11.472-4.344c-2.432-2.896-3.648-6.808-3.648-11.736c0-3.775,0.688-6.888,2.064-9.336
		c1.375-2.448,3.232-4.231,5.568-5.352c2.335-1.12,4.992-1.681,7.968-1.681c1.952,0,3.824,0.249,5.616,0.744
		c1.792,0.497,3.439,1.225,4.944,2.185l-2.791,4.848c-2.439-1.44-4.925-2.16-7.458-2.16c-2.983,0-5.213,0.904-6.689,2.712
		c-1.476,1.809-2.213,4.393-2.213,7.752c0,3.553,0.692,6.2,2.077,7.944c1.385,1.744,3.577,2.616,6.575,2.616
		c1.694,0,3.226-0.256,4.596-0.769v-6.479h-6.624l0.756-5.521H177.929z"/>
	<path fill="#FFFFFF" d="M208.457,122.883v0.384h-7.617l-7.811-11.328h-2.62v11.328h-6.624V92.163h10.416
		c2.751,0,5.047,0.424,6.888,1.271c1.84,0.849,3.208,2,4.104,3.456c0.896,1.456,1.344,3.112,1.344,4.968
		c0,2.177-0.544,4.057-1.632,5.641s-2.688,2.76-4.8,3.527L208.457,122.883z M190.409,106.803h2.991c1.961,0,3.473-0.367,4.535-1.104
		c1.062-0.735,1.594-1.951,1.594-3.647c0-1.472-0.474-2.575-1.422-3.313c-0.948-0.735-2.272-1.104-3.971-1.104h-3.727V106.803z"/>
	<path fill="#FFFFFF" d="M229.48,92.163l11.184,30.72v0.384h-7.248l-2.496-7.44H219.4l-2.448,7.44h-7.152v-0.384l11.184-30.72
		H229.48z M222.473,89.955l-2.112-3.024l8.592-6.624l3.216,5.184L222.473,89.955z M221.225,110.354h7.872l-3.984-11.855
		L221.225,110.354z"/>
	<path fill="#FFFFFF" d="M265.481,97.683h-14.16v7.776h12.24l-0.78,5.472h-11.46v12.336h-6.624V92.163h20.784V97.683z"/>
	<path fill="#FFFFFF" d="M270.329,123.267V92.163h6.624v31.104H270.329z"/>
	<path fill="#FFFFFF" d="M285.808,119.595c-2.417-2.896-3.624-6.775-3.624-11.64c0-3.937,0.672-7.129,2.016-9.576
		c1.344-2.448,3.127-4.208,5.352-5.28c2.224-1.072,4.728-1.608,7.512-1.608c1.952,0,3.744,0.232,5.376,0.696
		c1.632,0.464,3.264,1.176,4.896,2.136l-2.558,5.04c-2.285-1.472-4.761-2.208-7.431-2.208c-5.438,0-8.155,3.473-8.155,10.416
		c0,3.456,0.756,6.08,2.268,7.872c1.512,1.793,3.651,2.688,6.417,2.688c1.415,0,2.653-0.184,3.715-0.553
		c1.061-0.367,2.171-0.888,3.33-1.56l2.653,4.8c-1.728,1.024-3.416,1.8-5.064,2.328c-1.648,0.528-3.4,0.792-5.256,0.792
		C292.04,123.938,288.224,122.491,285.808,119.595z"/>
	<path fill="#FFFFFF" d="M328.407,92.163l11.184,30.72v0.384h-7.248l-2.496-7.44h-11.52l-2.448,7.44h-7.152v-0.384l11.184-30.72
		H328.407z M320.151,110.354h7.872l-3.984-11.855L320.151,110.354z"/>
	<path fill="#FFFFFF" d="M340.648,120.194l3.072-4.752c2.976,1.889,5.888,2.832,8.736,2.832c1.824,0,3.255-0.288,4.296-0.864
		c1.04-0.575,1.56-1.439,1.56-2.592c0-0.703-0.168-1.287-0.504-1.752c-0.336-0.463-0.928-0.912-1.776-1.344
		c-0.848-0.432-2.12-0.984-3.816-1.656l-1.104-0.432c-2.048-0.8-3.696-1.567-4.944-2.304s-2.24-1.681-2.976-2.832
		c-0.736-1.152-1.104-2.608-1.104-4.368c0-1.952,0.56-3.576,1.68-4.872c1.12-1.296,2.56-2.248,4.32-2.856
		c1.759-0.607,3.631-0.912,5.616-0.912c1.792,0,3.64,0.297,5.544,0.889c1.903,0.592,3.72,1.464,5.448,2.615l-3.101,4.704
		c-1.527-0.928-2.878-1.6-4.055-2.016c-1.177-0.415-2.449-0.624-3.816-0.624c-1.527,0-2.68,0.257-3.459,0.768
		c-0.779,0.513-1.168,1.2-1.168,2.064c0,0.545,0.159,1.032,0.477,1.464s0.89,0.864,1.718,1.296c0.827,0.433,2.021,0.937,3.579,1.513
		l1.05,0.384c2.036,0.768,3.682,1.487,4.938,2.16c1.256,0.672,2.314,1.632,3.173,2.88c0.859,1.248,1.289,2.864,1.289,4.848
		c0,2.08-0.544,3.833-1.632,5.256c-1.088,1.425-2.568,2.488-4.44,3.192c-1.872,0.703-3.993,1.056-6.36,1.056
		C348.088,123.938,344.008,122.69,340.648,120.194z"/>
	<path fill="#FFFFFF" d="M404.007,95.69c2.977,2.353,4.464,6.36,4.464,12.024c0,3.456-0.784,6.353-2.352,8.688
		c-1.568,2.337-3.656,4.064-6.264,5.185c-2.608,1.12-5.48,1.68-8.616,1.68h-10.128V92.163h10.368
		C396.855,92.163,401.031,93.339,404.007,95.69z M396.503,116.618c1.636-0.527,2.872-1.495,3.708-2.903
		c0.834-1.408,1.252-3.408,1.252-6c0-2.4-0.376-4.304-1.127-5.712c-0.752-1.408-1.862-2.425-3.332-3.048
		c-1.471-0.624-3.323-0.937-5.562-0.937h-3.707v19.392h2.204C392.679,117.41,394.866,117.146,396.503,116.618z"/>
	<path fill="#FFFFFF" d="M429.11,92.163l11.185,30.72v0.384h-7.248l-2.496-7.44H419.03l-2.448,7.44h-7.151v-0.384l11.184-30.72
		H429.11z M420.854,110.354h7.872l-3.984-11.855L420.854,110.354z"/>
	<path fill="#FFFFFF" d="M476.51,108.555c0.912,0.752,1.584,1.608,2.016,2.568c0.433,0.96,0.648,1.968,0.648,3.023
		c0,2.912-1.024,5.16-3.072,6.744s-4.976,2.376-8.784,2.376h-12.191V92.163h11.376c2.464,0,4.552,0.344,6.264,1.031
		c1.712,0.688,3,1.648,3.864,2.88c0.864,1.232,1.296,2.681,1.296,4.345c0,1.376-0.4,2.647-1.2,3.815c-0.8,1.169-2,2.057-3.6,2.664
		C474.47,107.251,475.598,107.803,476.51,108.555z M461.75,97.539v7.247h3.832c3.557,0,5.336-1.264,5.336-3.792
		c0-1.119-0.396-1.975-1.188-2.567c-0.792-0.592-1.949-0.888-3.469-0.888H461.75z M470.895,116.715
		c0.848-0.721,1.271-1.688,1.271-2.904c0-1.184-0.44-2.128-1.321-2.832c-0.88-0.703-2.217-1.056-4.009-1.056h-5.086v7.872h4.89
		C468.629,117.795,470.047,117.435,470.895,116.715z"/>
	<path fill="#FFFFFF" d="M503.51,92.163h6.96v0.384l-11.376,30.72h-7.536l-11.424-30.72v-0.384h7.2l8.111,24.239L503.51,92.163z"/>
	<path fill="#FFFFFF" d="M510.998,120.194l3.072-4.752c2.976,1.889,5.887,2.832,8.735,2.832c1.824,0,3.256-0.288,4.296-0.864
		c1.04-0.575,1.561-1.439,1.561-2.592c0-0.703-0.168-1.287-0.504-1.752c-0.336-0.463-0.929-0.912-1.776-1.344
		c-0.849-0.432-2.12-0.984-3.815-1.656l-1.104-0.432c-2.048-0.8-3.696-1.567-4.944-2.304s-2.24-1.681-2.976-2.832
		c-0.736-1.152-1.104-2.608-1.104-4.368c0-1.952,0.56-3.576,1.681-4.872c1.119-1.296,2.56-2.248,4.319-2.856
		c1.76-0.607,3.632-0.912,5.616-0.912c1.792,0,3.64,0.297,5.544,0.889c1.903,0.592,3.721,1.464,5.448,2.615l-3.102,4.704
		c-1.526-0.928-2.878-1.6-4.055-2.016c-1.177-0.415-2.449-0.624-3.816-0.624c-1.526,0-2.68,0.257-3.459,0.768
		c-0.779,0.513-1.168,1.2-1.168,2.064c0,0.545,0.158,1.032,0.477,1.464s0.891,0.864,1.718,1.296
		c0.827,0.433,2.021,0.937,3.579,1.513l1.05,0.384c2.035,0.768,3.682,1.487,4.938,2.16c1.257,0.672,2.313,1.632,3.174,2.88
		c0.858,1.248,1.288,2.864,1.288,4.848c0,2.08-0.545,3.833-1.632,5.256c-1.089,1.425-2.568,2.488-4.44,3.192
		c-1.872,0.703-3.992,1.056-6.359,1.056C518.438,123.938,514.358,122.69,510.998,120.194z"/>
</g>
</svg>
