<?xml version="1.0" encoding="utf-8"?>
<!-- Generator: Adobe Illustrator 14.0.0, SVG Export Plug-In . SVG Version: 6.00 Build 43363)  -->
<!DOCTYPE svg PUBLIC "-//W3C//DTD SVG 1.1//EN" "http://www.w3.org/Graphics/SVG/1.1/DTD/svg11.dtd">
<svg version="1.1" id="Camada_1" xmlns="http://www.w3.org/2000/svg" xmlns:xlink="http://www.w3.org/1999/xlink" x="0px" y="0px"
	 width="750px" height="150px" viewBox="0 0 750 150" enable-background="new 0 0 750 150" xml:space="preserve">
<g>
	<rect x="588" y="47.143" fill="#54CF8B" width="162" height="49.715"/>
	<rect x="573.972" y="38.545" fill="#54CF8B" width="4.108" height="66.91"/>
	<g>
		<path fill="#FFFFFF" d="M627.026,60.821h12.713c2.088,0,3.648,0.517,4.682,1.551c1.033,1.032,1.551,2.395,1.551,4.086
			c0,1.148-0.324,2.16-0.971,3.037c-0.648,0.877-1.609,1.462-2.881,1.753v0.063c1.461,0.209,2.613,0.809,3.459,1.8
			c0.846,0.992,1.268,2.219,1.268,3.68c0,1.127-0.213,2.098-0.641,2.912c-0.43,0.813-0.998,1.477-1.707,1.988
			c-0.711,0.512-1.498,0.887-2.363,1.127c-0.867,0.24-1.76,0.359-2.678,0.359h-12.432V60.821z M629.344,70.528h9.174
			c1.67,0,2.943-0.308,3.82-0.924c0.877-0.615,1.314-1.633,1.314-3.053c0-1.294-0.381-2.218-1.143-2.771
			c-0.762-0.553-1.832-0.829-3.209-0.829h-9.957V70.528z M629.344,81.049h9.738c1.607,0,2.885-0.344,3.834-1.033
			c0.949-0.688,1.426-1.764,1.426-3.225c0-1.523-0.414-2.594-1.236-3.21c-0.826-0.615-1.979-0.924-3.461-0.924h-10.301V81.049z"/>
		<path fill="#FFFFFF" d="M650.604,60.821h17.787v2.13h-15.469v7.577h14.902v2.129h-14.902v8.392h15.719v2.129h-18.037V60.821z"/>
		<path fill="#FFFFFF" d="M678.317,62.951h-8.768v-2.13h19.85v2.13h-8.768v20.227h-2.314V62.951z"/>
		<path fill="#FFFFFF" d="M705.307,76.383h-11.773l-3.039,6.795h-2.504l10.145-22.356h2.693l10.145,22.356h-2.691L705.307,76.383z
			 M699.451,63.139l-4.979,11.115h9.895L699.451,63.139z"/>
	</g>
</g>
<g>
	<path fill="#FFFFFF" d="M6.434,40.614h7.934l5.995,17.627h0.072l5.672-17.627h7.934v25.633h-5.277V48.082h-0.072L22.41,66.247
		h-4.344l-6.283-17.986h-0.072v17.986H6.434V40.614z"/>
	<path fill="#FFFFFF" d="M38.995,40.614h19.17v4.739H44.632v5.493h12.421v4.379H44.632v6.283h13.822v4.739H38.995V40.614z"/>
	<path fill="#FFFFFF" d="M67.931,45.353h-7.683v-4.739H81.25v4.739h-7.683v20.894h-5.636V45.353z"/>
	<path fill="#FFFFFF" d="M88.537,40.614h5.78l9.585,25.633h-5.852l-1.938-5.708h-9.585l-2.01,5.708h-5.708L88.537,40.614z
		 M87.999,56.339h6.642l-3.231-9.406h-0.072L87.999,56.339z"/>
	<path fill="#FFFFFF" d="M106.128,40.614h11.057c3.47,0,6.276,1.083,8.418,3.249c2.142,2.167,3.213,5.308,3.213,9.424
		c0,1.891-0.24,3.62-0.718,5.188c-0.479,1.568-1.208,2.938-2.19,4.111c-0.981,1.173-2.202,2.076-3.662,2.71
		c-1.46,0.634-3.147,0.951-5.062,0.951h-11.057V40.614z M111.764,61.508h5.026c0.862,0,1.669-0.138,2.423-0.413
		c0.754-0.274,1.43-0.718,2.028-1.328s1.071-1.412,1.418-2.405c0.346-0.993,0.521-2.172,0.521-3.536c0-2.752-0.563-4.852-1.688-6.3
		c-1.125-1.448-3.028-2.172-5.708-2.172h-4.021V61.508z"/>
	<path fill="#FFFFFF" d="M139.731,40.614h5.78l9.585,25.633h-5.852l-1.938-5.708h-9.585l-2.01,5.708h-5.708L139.731,40.614z
		 M139.192,56.339h6.642l-3.231-9.406h-0.072L139.192,56.339z"/>
	<path fill="#FFFFFF" d="M157.322,40.614h11.057c3.47,0,6.276,1.083,8.418,3.249c2.142,2.167,3.213,5.308,3.213,9.424
		c0,1.891-0.24,3.62-0.718,5.188c-0.479,1.568-1.208,2.938-2.19,4.111c-0.981,1.173-2.202,2.076-3.662,2.71
		c-1.46,0.634-3.147,0.951-5.062,0.951h-11.057V40.614z M162.958,61.508h5.026c0.862,0,1.669-0.138,2.423-0.413
		c0.754-0.274,1.43-0.718,2.028-1.328s1.071-1.412,1.418-2.405c0.346-0.993,0.521-2.172,0.521-3.536c0-2.752-0.563-4.852-1.688-6.3
		c-1.125-1.448-3.028-2.172-5.708-2.172h-4.021V61.508z"/>
	<path fill="#FFFFFF" d="M183.672,48.225c0.575-1.651,1.406-3.093,2.495-4.326c1.089-1.232,2.417-2.19,3.985-2.872
		c1.567-0.682,3.321-1.023,5.26-1.023c1.938,0,3.691,0.341,5.259,1.023c1.567,0.682,2.901,1.64,4.003,2.872
		c1.1,1.233,1.932,2.674,2.495,4.326c0.562,1.651,0.844,3.423,0.844,5.313c0,1.843-0.282,3.572-0.844,5.188
		c-0.563,1.615-1.395,3.034-2.495,4.254c-1.102,1.221-2.436,2.172-4.003,2.854c-1.568,0.682-3.321,1.023-5.259,1.023
		c-1.939,0-3.692-0.341-5.26-1.023c-1.568-0.682-2.896-1.627-3.985-2.836c-1.089-1.208-1.92-2.626-2.495-4.254
		c-0.574-1.627-0.861-3.362-0.861-5.206C182.811,51.648,183.098,49.876,183.672,48.225z M188.842,56.751
		c0.263,1.018,0.676,1.933,1.238,2.747c0.562,0.814,1.287,1.454,2.172,1.92s1.939,0.7,3.16,0.7c1.22,0,2.279-0.239,3.177-0.718
		c0.897-0.479,1.621-1.118,2.172-1.92c0.55-0.802,0.957-1.711,1.221-2.729c0.263-1.017,0.395-2.088,0.395-3.213
		c0-1.172-0.132-2.285-0.395-3.339c-0.264-1.053-0.67-1.986-1.221-2.8c-0.551-0.813-1.274-1.459-2.172-1.938
		c-0.897-0.479-1.957-0.718-3.177-0.718c-1.221,0-2.28,0.239-3.177,0.718c-0.897,0.479-1.622,1.125-2.172,1.938
		c-0.551,0.814-0.958,1.748-1.221,2.8c-0.264,1.054-0.395,2.167-0.395,3.339C188.447,54.664,188.578,55.734,188.842,56.751z"/>
	<path fill="#FFFFFF" d="M215.695,57.739c0,1.604,0.532,2.794,1.598,3.572c1.064,0.778,2.423,1.167,4.075,1.167
		c0.55,0,1.106-0.048,1.669-0.144c0.562-0.095,1.101-0.263,1.615-0.502s0.927-0.568,1.239-0.987
		c0.311-0.418,0.466-0.939,0.466-1.562c0-0.574-0.156-1.059-0.466-1.454c-0.312-0.395-0.73-0.73-1.257-1.005
		c-0.526-0.275-1.101-0.508-1.723-0.7c-0.623-0.191-1.46-0.406-2.513-0.646c-0.695-0.191-1.245-0.335-1.651-0.431
		c-1.125-0.311-2.118-0.634-2.98-0.969c-0.861-0.335-1.646-0.772-2.352-1.311s-1.269-1.221-1.687-2.046
		c-0.419-0.826-0.628-1.813-0.628-2.961c0-1.269,0.27-2.393,0.808-3.375c0.539-0.981,1.269-1.795,2.19-2.441
		c0.921-0.646,1.951-1.131,3.087-1.454s2.303-0.484,3.5-0.484c1.388,0,2.698,0.156,3.931,0.466c1.232,0.312,2.321,0.802,3.267,1.472
		c0.945,0.67,1.693,1.532,2.244,2.584c0.55,1.054,0.826,2.298,0.826,3.734h-5.457c-0.072-1.436-0.557-2.441-1.454-3.016
		s-2.1-0.862-3.608-0.862c-1.053,0-1.963,0.24-2.729,0.718c-0.766,0.479-1.148,1.208-1.148,2.19c0,0.502,0.095,0.903,0.287,1.203
		c0.191,0.299,0.526,0.563,1.005,0.79c0.479,0.228,1.113,0.461,1.903,0.7c0.79,0.24,2.083,0.587,3.877,1.041
		c0.072,0,0.263,0.048,0.574,0.144c0.072,0.024,0.144,0.036,0.215,0.036c0.862,0.215,1.651,0.455,2.37,0.718
		c0.718,0.264,1.472,0.664,2.262,1.203c0.79,0.539,1.448,1.269,1.974,2.19c0.526,0.922,0.79,2.028,0.79,3.321
		c0,2.441-0.934,4.422-2.8,5.941c-1.867,1.52-4.487,2.28-7.862,2.28c-1.46,0-2.842-0.18-4.146-0.539
		c-1.305-0.359-2.465-0.916-3.482-1.669c-1.018-0.754-1.819-1.711-2.405-2.872c-0.587-1.161-0.879-2.507-0.879-4.039H215.695z"/>
	<path fill="#FFFFFF" d="M252.133,40.614h5.78l9.585,25.633h-5.852l-1.938-5.708h-9.585l-2.01,5.708h-5.708L252.133,40.614z
		 M251.594,56.339h6.642l-3.231-9.406h-0.072L251.594,56.339z"/>
	<path fill="#FFFFFF" d="M269.724,40.614h12.063c2.608,0,4.625,0.491,6.049,1.472c1.423,0.981,2.136,2.609,2.136,4.882
		c0,2.441-1.161,4.225-3.482,5.349c1.532,0.431,2.698,1.215,3.5,2.352c0.802,1.137,1.203,2.519,1.203,4.146
		c0,1.245-0.246,2.339-0.736,3.285c-0.491,0.946-1.161,1.723-2.011,2.333s-1.813,1.065-2.89,1.364
		c-1.077,0.299-2.214,0.449-3.411,0.449h-12.421V40.614z M275.36,50.99h5.708c1.053,0,1.891-0.251,2.513-0.754
		c0.622-0.503,0.934-1.269,0.934-2.298c0-1.125-0.354-1.896-1.059-2.315c-0.707-0.418-1.646-0.628-2.818-0.628h-5.277V50.99z
		 M275.36,61.867h6.031c1.269,0,2.28-0.257,3.034-0.772c0.754-0.514,1.131-1.382,1.131-2.603c0-1.268-0.359-2.195-1.077-2.782
		c-0.718-0.586-1.711-0.879-2.979-0.879h-6.139V61.867z"/>
	<path fill="#FFFFFF" d="M294.997,40.614h5.636v25.633h-5.636V40.614z"/>
	<path fill="#FFFFFF" d="M305.588,40.614h19.17v4.739h-13.534v5.493h12.421v4.379h-12.421v6.283h13.822v4.739h-19.458V40.614z"/>
	<path fill="#FFFFFF" d="M328.851,40.614h13.821c1.124,0,2.153,0.18,3.087,0.539c0.934,0.359,1.729,0.868,2.388,1.526
		c0.658,0.659,1.16,1.413,1.508,2.262c0.347,0.85,0.521,1.765,0.521,2.747c0,1.556-0.329,2.878-0.987,3.967
		c-0.658,1.089-1.682,1.909-3.069,2.459v0.072c1.269,0.335,2.184,1.036,2.746,2.1c0.563,1.065,0.892,2.364,0.987,3.896
		c0,0.096,0.012,0.383,0.036,0.861c0.071,1.221,0.173,2.262,0.305,3.124c0.132,0.861,0.377,1.556,0.736,2.082h-5.637
		c-0.215-0.479-0.365-1.029-0.448-1.651c-0.084-0.622-0.162-1.424-0.233-2.405c-0.072-0.909-0.144-1.603-0.216-2.082
		c-0.191-1.388-0.604-2.381-1.238-2.98c-0.635-0.598-1.646-0.897-3.033-0.897h-5.637v10.016h-5.636V40.614z M334.487,52.21h6.175
		c1.293,0,2.262-0.292,2.908-0.879c0.646-0.586,0.969-1.513,0.969-2.782c0-1.221-0.322-2.118-0.969-2.692
		c-0.646-0.575-1.615-0.862-2.908-0.862h-6.175V52.21z"/>
	<path fill="#FFFFFF" d="M359.797,45.353h-7.683v-4.739h21.001v4.739h-7.683v20.894h-5.636V45.353z"/>
	<path fill="#FFFFFF" d="M375.807,48.225c0.574-1.651,1.406-3.093,2.496-4.326c1.088-1.232,2.416-2.19,3.984-2.872
		s3.32-1.023,5.26-1.023c1.938,0,3.691,0.341,5.26,1.023c1.566,0.682,2.9,1.64,4.002,2.872c1.102,1.233,1.934,2.674,2.496,4.326
		c0.561,1.651,0.844,3.423,0.844,5.313c0,1.843-0.283,3.572-0.844,5.188c-0.563,1.615-1.395,3.034-2.496,4.254
		c-1.102,1.221-2.436,2.172-4.002,2.854c-1.568,0.682-3.322,1.023-5.26,1.023c-1.939,0-3.691-0.341-5.26-1.023
		c-1.568-0.682-2.896-1.627-3.984-2.836c-1.09-1.208-1.922-2.626-2.496-4.254c-0.574-1.627-0.861-3.362-0.861-5.206
		C374.946,51.648,375.233,49.876,375.807,48.225z M380.977,56.751c0.264,1.018,0.676,1.933,1.238,2.747
		c0.563,0.814,1.287,1.454,2.172,1.92c0.887,0.467,1.939,0.7,3.16,0.7s2.279-0.239,3.178-0.718c0.896-0.479,1.621-1.118,2.172-1.92
		c0.549-0.802,0.957-1.711,1.221-2.729c0.262-1.017,0.395-2.088,0.395-3.213c0-1.172-0.133-2.285-0.395-3.339
		c-0.264-1.053-0.672-1.986-1.221-2.8c-0.551-0.813-1.275-1.459-2.172-1.938c-0.898-0.479-1.957-0.718-3.178-0.718
		s-2.279,0.239-3.178,0.718c-0.896,0.479-1.621,1.125-2.172,1.938c-0.551,0.814-0.957,1.748-1.221,2.8
		c-0.264,1.054-0.395,2.167-0.395,3.339C380.582,54.664,380.713,55.734,380.977,56.751z"/>
	<path fill="#FFFFFF" d="M407.83,57.739c0,1.604,0.531,2.794,1.598,3.572c1.064,0.778,2.422,1.167,4.074,1.167
		c0.551,0,1.107-0.048,1.67-0.144c0.561-0.095,1.1-0.263,1.615-0.502c0.514-0.239,0.928-0.568,1.238-0.987
		c0.311-0.418,0.467-0.939,0.467-1.562c0-0.574-0.156-1.059-0.467-1.454s-0.73-0.73-1.256-1.005c-0.527-0.275-1.102-0.508-1.725-0.7
		c-0.621-0.191-1.459-0.406-2.512-0.646c-0.695-0.191-1.246-0.335-1.652-0.431c-1.125-0.311-2.117-0.634-2.979-0.969
		c-0.863-0.335-1.646-0.772-2.352-1.311c-0.707-0.539-1.27-1.221-1.688-2.046c-0.42-0.826-0.629-1.813-0.629-2.961
		c0-1.269,0.27-2.393,0.809-3.375c0.537-0.981,1.268-1.795,2.189-2.441c0.92-0.646,1.949-1.131,3.088-1.454
		c1.135-0.323,2.303-0.484,3.5-0.484c1.387,0,2.697,0.156,3.93,0.466c1.232,0.312,2.322,0.802,3.268,1.472
		c0.945,0.67,1.693,1.532,2.244,2.584c0.551,1.054,0.826,2.298,0.826,3.734h-5.457c-0.072-1.436-0.557-2.441-1.455-3.016
		c-0.896-0.574-2.1-0.862-3.607-0.862c-1.053,0-1.963,0.24-2.729,0.718c-0.766,0.479-1.148,1.208-1.148,2.19
		c0,0.502,0.096,0.903,0.287,1.203s0.525,0.563,1.006,0.79c0.479,0.228,1.111,0.461,1.902,0.7c0.789,0.24,2.082,0.587,3.877,1.041
		c0.072,0,0.264,0.048,0.574,0.144c0.072,0.024,0.145,0.036,0.215,0.036c0.861,0.215,1.652,0.455,2.369,0.718
		c0.719,0.264,1.473,0.664,2.262,1.203c0.791,0.539,1.449,1.269,1.975,2.19c0.527,0.922,0.791,2.028,0.791,3.321
		c0,2.441-0.934,4.422-2.801,5.941c-1.867,1.52-4.488,2.28-7.861,2.28c-1.461,0-2.844-0.18-4.146-0.539
		c-1.305-0.359-2.467-0.916-3.482-1.669c-1.018-0.754-1.82-1.711-2.406-2.872c-0.586-1.161-0.879-2.507-0.879-4.039H407.83z"/>
	<path fill="#FFFFFF" d="M437.268,40.614h11.057c3.471,0,6.277,1.083,8.42,3.249c2.141,2.167,3.213,5.308,3.213,9.424
		c0,1.891-0.24,3.62-0.719,5.188c-0.479,1.568-1.209,2.938-2.189,4.111c-0.982,1.173-2.203,2.076-3.662,2.71
		c-1.461,0.634-3.146,0.951-5.063,0.951h-11.057V40.614z M442.905,61.508h5.025c0.861,0,1.67-0.138,2.424-0.413
		c0.754-0.274,1.43-0.718,2.027-1.328s1.072-1.412,1.418-2.405c0.348-0.993,0.521-2.172,0.521-3.536c0-2.752-0.563-4.852-1.688-6.3
		c-1.125-1.448-3.027-2.172-5.709-2.172h-4.02V61.508z"/>
	<path fill="#FFFFFF" d="M463.869,40.614h19.17v4.739h-13.533v5.493h12.422v4.379h-12.422v6.283h13.82v4.739h-19.457V40.614z"/>
	<path fill="#FFFFFF" d="M497.114,40.614h5.635v20.894h12.494v4.739h-18.129V40.614z"/>
	<path fill="#FFFFFF" d="M525.401,40.614h5.781l9.584,25.633h-5.852l-1.938-5.708h-9.586l-2.01,5.708h-5.709L525.401,40.614z
		 M524.864,56.339h6.641l-3.23-9.406h-0.072L524.864,56.339z"/>
	<path fill="#FFFFFF" d="M546.834,57.739c0,1.604,0.531,2.794,1.598,3.572c1.064,0.778,2.422,1.167,4.074,1.167
		c0.551,0,1.107-0.048,1.67-0.144c0.561-0.095,1.1-0.263,1.615-0.502c0.514-0.239,0.928-0.568,1.238-0.987
		c0.311-0.418,0.467-0.939,0.467-1.562c0-0.574-0.156-1.059-0.467-1.454s-0.73-0.73-1.256-1.005c-0.527-0.275-1.102-0.508-1.725-0.7
		c-0.621-0.191-1.459-0.406-2.512-0.646c-0.695-0.191-1.246-0.335-1.652-0.431c-1.125-0.311-2.117-0.634-2.979-0.969
		c-0.863-0.335-1.646-0.772-2.352-1.311c-0.707-0.539-1.27-1.221-1.688-2.046c-0.42-0.826-0.629-1.813-0.629-2.961
		c0-1.269,0.27-2.393,0.809-3.375c0.537-0.981,1.268-1.795,2.189-2.441c0.92-0.646,1.949-1.131,3.088-1.454
		c1.135-0.323,2.303-0.484,3.5-0.484c1.387,0,2.697,0.156,3.93,0.466c1.232,0.312,2.322,0.802,3.268,1.472
		c0.945,0.67,1.693,1.532,2.244,2.584c0.551,1.054,0.826,2.298,0.826,3.734h-5.457c-0.072-1.436-0.557-2.441-1.455-3.016
		c-0.896-0.574-2.1-0.862-3.607-0.862c-1.053,0-1.963,0.24-2.729,0.718c-0.766,0.479-1.148,1.208-1.148,2.19
		c0,0.502,0.096,0.903,0.287,1.203s0.525,0.563,1.006,0.79c0.479,0.228,1.111,0.461,1.902,0.7c0.789,0.24,2.082,0.587,3.877,1.041
		c0.072,0,0.264,0.048,0.574,0.144c0.072,0.024,0.145,0.036,0.215,0.036c0.861,0.215,1.652,0.455,2.369,0.718
		c0.719,0.264,1.473,0.664,2.262,1.203c0.791,0.539,1.449,1.269,1.975,2.19c0.527,0.922,0.791,2.028,0.791,3.321
		c0,2.441-0.934,4.422-2.801,5.941c-1.867,1.52-4.488,2.28-7.861,2.28c-1.461,0-2.844-0.18-4.146-0.539
		c-1.305-0.359-2.467-0.916-3.482-1.669c-1.018-0.754-1.82-1.711-2.406-2.872c-0.586-1.161-0.879-2.507-0.879-4.039H546.834z"/>
	<path fill="#FFFFFF" d="M5.958,80.341h14.558v3.828H10.511v4.785h8.671v3.538h-8.671v8.555H5.958V80.341z"/>
	<path fill="#FFFFFF" d="M40.729,93.217c0,2.746-0.769,4.818-2.306,6.221s-3.717,2.103-6.54,2.103s-4.998-0.696-6.525-2.089
		c-1.527-1.391-2.291-3.469-2.291-6.234V80.341h4.553v12.876c0,0.639,0.053,1.219,0.16,1.74c0.106,0.521,0.314,0.99,0.624,1.406
		c0.309,0.416,0.749,0.744,1.319,0.986s1.291,0.362,2.161,0.362c1.585,0,2.697-0.353,3.335-1.059s0.957-1.851,0.957-3.437V80.341
		h4.553V93.217z"/>
	<path fill="#FFFFFF" d="M44.644,80.341H60.13v3.828H49.197v4.437h10.034v3.539H49.197v5.074h11.165v3.828H44.644V80.341z"/>
	<path fill="#FFFFFF" d="M63.436,80.341h4.524l8.642,13.892h0.058V80.341h4.263v20.706H76.37l-8.613-13.861h-0.058v13.861h-4.263
		V80.341z"/>
	<path fill="#FFFFFF" d="M89.507,84.169h-6.206v-3.828h16.965v3.828H94.06v16.878h-4.553V84.169z"/>
	<path fill="#FFFFFF" d="M102.643,80.341h15.486v3.828h-10.933v4.437h10.034v3.539h-10.034v5.074h11.165v3.828h-15.718V80.341z"/>
	<path fill="#FFFFFF" d="M124.538,94.174c0,1.295,0.43,2.258,1.291,2.886c0.86,0.628,1.958,0.942,3.292,0.942
		c0.444,0,0.894-0.039,1.349-0.116c0.454-0.077,0.889-0.212,1.305-0.405c0.416-0.193,0.749-0.459,1-0.798
		c0.251-0.339,0.377-0.759,0.377-1.262c0-0.464-0.126-0.855-0.377-1.175c-0.251-0.318-0.59-0.59-1.015-0.812
		c-0.426-0.222-0.89-0.411-1.392-0.565c-0.503-0.154-1.18-0.328-2.03-0.522c-0.561-0.154-1.005-0.271-1.334-0.348
		c-0.909-0.251-1.711-0.513-2.407-0.783c-0.696-0.271-1.33-0.624-1.899-1.059c-0.571-0.435-1.025-0.985-1.363-1.653
		c-0.338-0.666-0.507-1.464-0.507-2.393c0-1.023,0.217-1.933,0.652-2.726c0.435-0.792,1.024-1.45,1.769-1.972
		c0.744-0.521,1.576-0.914,2.494-1.175c0.918-0.261,1.86-0.392,2.827-0.392c1.121,0,2.18,0.126,3.176,0.377
		c0.996,0.252,1.875,0.648,2.639,1.189c0.763,0.541,1.367,1.237,1.813,2.088c0.444,0.852,0.667,1.855,0.667,3.016h-4.408
		c-0.058-1.16-0.45-1.972-1.174-2.436c-0.725-0.465-1.697-0.696-2.915-0.696c-0.851,0-1.585,0.194-2.204,0.58
		c-0.619,0.388-0.928,0.977-0.928,1.769c0,0.406,0.077,0.73,0.232,0.973c0.154,0.241,0.425,0.453,0.812,0.637
		c0.386,0.185,0.899,0.373,1.537,0.566c0.638,0.193,1.682,0.474,3.132,0.841c0.058,0,0.212,0.039,0.464,0.116
		c0.058,0.02,0.116,0.029,0.174,0.029c0.696,0.174,1.334,0.367,1.914,0.58s1.189,0.535,1.827,0.971
		c0.638,0.436,1.169,1.025,1.595,1.77s0.638,1.639,0.638,2.682c0,1.973-0.754,3.572-2.262,4.8c-1.508,1.228-3.625,1.842-6.351,1.842
		c-1.18,0-2.296-0.146-3.35-0.435c-1.054-0.291-1.992-0.74-2.813-1.35c-0.822-0.608-1.47-1.381-1.943-2.319
		c-0.474-0.938-0.711-2.025-0.711-3.263H124.538z"/>
	<path fill="#FFFFFF" d="M148.318,80.341h8.932c2.803,0,5.07,0.875,6.8,2.624c1.73,1.75,2.596,4.288,2.596,7.613
		c0,1.527-0.193,2.924-0.58,4.19c-0.387,1.267-0.977,2.373-1.769,3.32c-0.793,0.947-1.779,1.677-2.958,2.189
		c-1.18,0.513-2.542,0.769-4.089,0.769h-8.932V80.341z M152.871,97.219h4.06c0.696,0,1.349-0.111,1.958-0.334
		c0.609-0.221,1.155-0.58,1.639-1.072c0.483-0.493,0.865-1.141,1.146-1.943c0.28-0.802,0.42-1.754,0.42-2.856
		c0-2.223-0.455-3.919-1.363-5.089c-0.909-1.17-2.446-1.755-4.611-1.755h-3.248V97.219z"/>
	<path fill="#FFFFFF" d="M169.807,80.341h15.486v3.828H174.36v4.437h10.034v3.539H174.36v5.074h11.165v3.828h-15.718V80.341z"/>
	<path fill="#FFFFFF" d="M196.66,80.341h4.553v20.706h-4.553V80.341z"/>
	<path fill="#FFFFFF" d="M205.216,80.341h4.524l8.642,13.892h0.058V80.341h4.263v20.706h-4.553l-8.613-13.861h-0.058v13.861h-4.263
		V80.341z"/>
	<path fill="#FFFFFF" d="M226.704,80.341h14.558v3.828h-10.005v4.785h8.671v3.538h-8.671v8.555h-4.553V80.341z"/>
	<path fill="#FFFFFF" d="M243.698,86.488c0.464-1.334,1.136-2.498,2.016-3.494c0.879-0.995,1.953-1.769,3.219-2.32
		c1.266-0.551,2.682-0.826,4.248-0.826c1.566,0,2.982,0.275,4.249,0.826c1.266,0.552,2.344,1.325,3.234,2.32
		c0.889,0.996,1.561,2.16,2.015,3.494s0.682,2.766,0.682,4.293c0,1.488-0.228,2.885-0.682,4.189
		c-0.454,1.306-1.126,2.451-2.015,3.438c-0.89,0.986-1.968,1.754-3.234,2.305s-2.682,0.827-4.249,0.827
		c-1.566,0-2.982-0.276-4.248-0.827c-1.267-0.551-2.34-1.314-3.219-2.291c-0.88-0.976-1.551-2.121-2.016-3.436
		c-0.464-1.314-0.696-2.717-0.696-4.205C243.002,89.254,243.234,87.822,243.698,86.488z M247.874,93.377
		c0.212,0.821,0.546,1.561,1,2.218c0.454,0.657,1.039,1.175,1.754,1.552c0.715,0.377,1.566,0.565,2.552,0.565
		c0.986,0,1.842-0.192,2.567-0.58c0.725-0.387,1.31-0.903,1.754-1.552c0.444-0.647,0.773-1.382,0.986-2.203
		c0.212-0.822,0.319-1.688,0.319-2.596c0-0.947-0.107-1.846-0.319-2.697c-0.213-0.851-0.542-1.604-0.986-2.262
		c-0.445-0.657-1.03-1.18-1.754-1.566c-0.725-0.387-1.581-0.58-2.567-0.58c-0.986,0-1.841,0.193-2.566,0.58s-1.31,0.909-1.754,1.566
		c-0.445,0.657-0.773,1.411-0.986,2.262c-0.213,0.852-0.319,1.75-0.319,2.697C247.555,91.689,247.661,92.555,247.874,93.377z"/>
	<path fill="#FFFFFF" d="M266.463,80.341h11.165c0.909,0,1.74,0.146,2.494,0.435c0.754,0.291,1.396,0.701,1.928,1.232
		c0.532,0.533,0.938,1.142,1.218,1.828c0.28,0.686,0.42,1.426,0.42,2.218c0,1.257-0.266,2.325-0.797,3.204
		c-0.532,0.881-1.359,1.543-2.479,1.987v0.058c1.024,0.271,1.764,0.836,2.218,1.697c0.454,0.859,0.72,1.908,0.797,3.146
		c0,0.076,0.01,0.309,0.029,0.695c0.058,0.986,0.14,1.827,0.247,2.523c0.106,0.695,0.304,1.257,0.594,1.682h-4.553
		c-0.174-0.387-0.295-0.831-0.363-1.334c-0.068-0.502-0.13-1.15-0.188-1.943c-0.058-0.734-0.116-1.295-0.174-1.682
		c-0.155-1.121-0.489-1.924-1-2.407c-0.513-0.483-1.33-0.725-2.451-0.725h-4.553v8.091h-4.553V80.341z M271.016,89.708h4.988
		c1.044,0,1.827-0.237,2.349-0.71c0.522-0.475,0.783-1.223,0.783-2.248c0-0.986-0.261-1.711-0.783-2.176
		c-0.522-0.463-1.305-0.695-2.349-0.695h-4.988V89.708z"/>
	<path fill="#FFFFFF" d="M287.401,80.341h6.409l4.843,14.239h0.058l4.582-14.239h6.409v20.706h-4.263V86.373h-0.058l-5.075,14.674
		h-3.509l-5.075-14.529h-0.058v14.529h-4.263V80.341z"/>
	<path fill="#FFFFFF" d="M319.358,80.341h4.669l7.743,20.706h-4.727l-1.566-4.611h-7.743l-1.624,4.611h-4.611L319.358,80.341z
		 M318.924,93.043h5.365l-2.61-7.598h-0.058L318.924,93.043z"/>
	<path fill="#FFFFFF" d="M347.372,87.301c-0.135-1.024-0.638-1.885-1.508-2.581s-1.875-1.044-3.016-1.044
		c-0.986,0-1.842,0.193-2.566,0.58c-0.726,0.387-1.311,0.909-1.755,1.566c-0.445,0.657-0.773,1.411-0.986,2.262
		c-0.213,0.852-0.318,1.75-0.318,2.697c0,0.908,0.105,1.773,0.318,2.596c0.213,0.821,0.546,1.561,1.001,2.218
		c0.454,0.657,1.039,1.175,1.754,1.552c0.716,0.377,1.566,0.565,2.553,0.565c1.353,0,2.431-0.421,3.233-1.262
		c0.802-0.841,1.29-1.967,1.464-3.378h4.408c-0.115,1.275-0.416,2.436-0.898,3.479c-0.483,1.044-1.127,1.938-1.929,2.683
		c-0.803,0.744-1.735,1.314-2.799,1.711s-2.224,0.595-3.479,0.595c-1.566,0-2.982-0.276-4.249-0.827s-2.339-1.314-3.219-2.291
		c-0.88-0.976-1.552-2.121-2.016-3.436s-0.696-2.717-0.696-4.205c0-1.527,0.232-2.959,0.696-4.293s1.136-2.498,2.016-3.494
		c0.88-0.995,1.952-1.769,3.219-2.32c1.267-0.551,2.683-0.826,4.249-0.826c1.141,0,2.223,0.164,3.248,0.493
		c1.024,0.329,1.938,0.812,2.74,1.45c0.802,0.638,1.46,1.421,1.972,2.349c0.513,0.929,0.836,1.982,0.972,3.161H347.372z"/>
	<path fill="#FFFFFF" d="M355.057,80.341h4.553v20.706h-4.553V80.341z"/>
	<path fill="#FFFFFF" d="M363.409,86.488c0.464-1.334,1.136-2.498,2.016-3.494c0.88-0.995,1.952-1.769,3.219-2.32
		c1.267-0.551,2.683-0.826,4.249-0.826c1.565,0,2.981,0.275,4.249,0.826c1.266,0.552,2.344,1.325,3.232,2.32
		c0.891,0.996,1.563,2.16,2.016,3.494c0.455,1.334,0.682,2.766,0.682,4.293c0,1.488-0.227,2.885-0.682,4.189
		c-0.453,1.306-1.125,2.451-2.016,3.438c-0.889,0.986-1.967,1.754-3.232,2.305c-1.268,0.551-2.683,0.827-4.249,0.827
		c-1.566,0-2.982-0.276-4.249-0.827s-2.339-1.314-3.219-2.291c-0.88-0.976-1.552-2.121-2.016-3.436s-0.696-2.717-0.696-4.205
		C362.713,89.254,362.945,87.822,363.409,86.488z M367.585,93.377c0.213,0.821,0.546,1.561,1.001,2.218
		c0.454,0.657,1.039,1.175,1.754,1.552c0.716,0.377,1.566,0.565,2.553,0.565c0.985,0,1.841-0.192,2.566-0.58
		c0.725-0.387,1.309-0.903,1.754-1.552c0.445-0.647,0.773-1.382,0.986-2.203c0.213-0.822,0.318-1.688,0.318-2.596
		c0-0.947-0.105-1.846-0.318-2.697c-0.213-0.851-0.541-1.604-0.986-2.262s-1.029-1.18-1.754-1.566
		c-0.726-0.387-1.581-0.58-2.566-0.58c-0.986,0-1.842,0.193-2.566,0.58c-0.726,0.387-1.311,0.909-1.755,1.566
		c-0.445,0.657-0.773,1.411-0.986,2.262c-0.213,0.852-0.318,1.75-0.318,2.697C367.266,91.689,367.372,92.555,367.585,93.377z
		 M373.588,78.484h-2.87l2.783-4.118h4.554L373.588,78.484z"/>
	<path fill="#FFFFFF" d="M386.174,80.341h4.525l8.641,13.892h0.059V80.341h4.264v20.706h-4.555l-8.611-13.861h-0.059v13.861h-4.264
		V80.341z"/>
	<path fill="#FFFFFF" d="M415.725,80.341h8.932c2.805,0,5.07,0.875,6.801,2.624c1.73,1.75,2.596,4.288,2.596,7.613
		c0,1.527-0.193,2.924-0.58,4.19s-0.977,2.373-1.768,3.32c-0.793,0.947-1.779,1.677-2.959,2.189s-2.543,0.769-4.09,0.769h-8.932
		V80.341z M420.278,97.219h4.061c0.695,0,1.35-0.111,1.957-0.334c0.609-0.221,1.156-0.58,1.639-1.072
		c0.484-0.493,0.865-1.141,1.146-1.943c0.279-0.802,0.42-1.754,0.42-2.856c0-2.223-0.455-3.919-1.363-5.089
		s-2.445-1.755-4.611-1.755h-3.248V97.219z"/>
	<path fill="#FFFFFF" d="M437.215,80.341h15.486v3.828h-10.934v4.437h10.033v3.539h-10.033v5.074h11.164v3.828h-15.717V80.341z"/>
	<path fill="#FFFFFF" d="M464.069,80.341h4.553v16.878h10.092v3.828h-14.645V80.341z"/>
	<path fill="#FFFFFF" d="M486.92,80.341h4.668l7.744,20.706h-4.729l-1.564-4.611h-7.744l-1.623,4.611h-4.611L486.92,80.341z
		 M486.485,93.043h5.365l-2.611-7.598h-0.057L486.485,93.043z"/>
	<path fill="#FFFFFF" d="M509.192,80.341h9.744c2.105,0,3.736,0.396,4.887,1.188c1.148,0.793,1.725,2.107,1.725,3.944
		c0,1.972-0.938,3.413-2.813,4.321c1.236,0.348,2.18,0.981,2.826,1.899c0.648,0.919,0.973,2.035,0.973,3.35
		c0,1.005-0.199,1.89-0.596,2.653s-0.938,1.393-1.623,1.885c-0.686,0.493-1.465,0.861-2.334,1.103
		c-0.871,0.241-1.789,0.362-2.756,0.362h-10.033V80.341z M513.744,88.722h4.611c0.85,0,1.527-0.202,2.029-0.608
		s0.754-1.025,0.754-1.856c0-0.909-0.285-1.532-0.855-1.87s-1.33-0.508-2.275-0.508h-4.264V88.722z M513.744,97.509h4.871
		c1.025,0,1.842-0.208,2.451-0.624c0.609-0.415,0.914-1.115,0.914-2.102c0-1.025-0.291-1.773-0.871-2.248
		c-0.58-0.473-1.383-0.711-2.406-0.711h-4.959V97.509z"/>
	<path fill="#FFFFFF" d="M539.235,101.047h-5.133l-6.729-20.706h4.699l4.611,14.558h0.057l4.67-14.558h4.697L539.235,101.047z"/>
	<path fill="#FFFFFF" d="M550.979,94.174c0,1.295,0.432,2.258,1.291,2.886c0.861,0.628,1.957,0.942,3.291,0.942
		c0.445,0,0.895-0.039,1.35-0.116c0.453-0.077,0.889-0.212,1.305-0.405s0.75-0.459,1-0.798c0.252-0.339,0.377-0.759,0.377-1.262
		c0-0.464-0.125-0.855-0.377-1.175c-0.25-0.318-0.59-0.59-1.014-0.812c-0.426-0.222-0.891-0.411-1.393-0.565
		c-0.504-0.154-1.18-0.328-2.029-0.522c-0.563-0.154-1.006-0.271-1.334-0.348c-0.91-0.251-1.711-0.513-2.408-0.783
		c-0.695-0.271-1.328-0.624-1.898-1.059s-1.025-0.985-1.363-1.653c-0.34-0.666-0.508-1.464-0.508-2.393
		c0-1.023,0.217-1.933,0.652-2.726c0.436-0.792,1.025-1.45,1.77-1.972s1.574-0.914,2.494-1.175c0.918-0.261,1.859-0.392,2.826-0.392
		c1.121,0,2.18,0.126,3.176,0.377c0.996,0.252,1.875,0.648,2.639,1.189s1.369,1.237,1.813,2.088
		c0.445,0.852,0.668,1.855,0.668,3.016h-4.408c-0.059-1.16-0.449-1.972-1.174-2.436c-0.727-0.465-1.697-0.696-2.916-0.696
		c-0.85,0-1.584,0.194-2.203,0.58c-0.619,0.388-0.928,0.977-0.928,1.769c0,0.406,0.076,0.73,0.232,0.973
		c0.154,0.241,0.424,0.453,0.811,0.637c0.387,0.185,0.9,0.373,1.537,0.566c0.639,0.193,1.684,0.474,3.133,0.841
		c0.059,0,0.213,0.039,0.463,0.116c0.059,0.02,0.117,0.029,0.176,0.029c0.695,0.174,1.334,0.367,1.914,0.58
		c0.578,0.213,1.188,0.535,1.826,0.971s1.17,1.025,1.596,1.77c0.424,0.744,0.637,1.639,0.637,2.682c0,1.973-0.754,3.572-2.262,4.8
		s-3.625,1.842-6.352,1.842c-1.18,0-2.295-0.146-3.35-0.435c-1.053-0.291-1.99-0.74-2.813-1.35
		c-0.822-0.608-1.469-1.381-1.943-2.319c-0.473-0.938-0.709-2.025-0.709-3.263H550.979z"/>
</g>
</svg>
