<?xml version="1.0" encoding="utf-8"?>
<!-- Generator: Adobe Illustrator 14.0.0, SVG Export Plug-In . SVG Version: 6.00 Build 43363)  -->
<!DOCTYPE svg PUBLIC "-//W3C//DTD SVG 1.1//EN" "http://www.w3.org/Graphics/SVG/1.1/DTD/svg11.dtd">
<svg version="1.1" id="Camada_1" xmlns="http://www.w3.org/2000/svg" xmlns:xlink="http://www.w3.org/1999/xlink" x="0px" y="0px"
	 width="409.571px" height="110px" viewBox="0 0 409.571 110" enable-background="new 0 0 409.571 110" xml:space="preserve">
<g>
	<g>
		<path fill="#1A92CC" d="M104.62,21.529c2.413,2.774,6.636,4.409,9.109,7.17c-1.771-8.192-8.351-14.887-16.134-16.479
			C101.385,14.967,102.204,18.772,104.62,21.529 M11.052,42.31c5.362-11.213,13.367-8.84,16.753-19.518
			c-1.91,3.278-10.65,4.649-14.709,13.056c2.07-4.996,1.035-12.628,4.535-16.749C7.154,26.527,11.616,38.545,11.052,42.31
			 M20.767,69.206c0.957,4.365-1.866,10.663,2.629,16.688C18.736,80.881,8.891,79.61,4.859,71.987
			c5.029,18.631,18.117,14.793,24.025,18.84C24.024,84.119,27.996,79.664,20.767,69.206 M19.251,80.9
			c-2.894-10.412,2.248-14.008-1.659-23.994c-0.412,5.622-4.31,8.367-1.676,18.657C11.273,66.85,4.079,63.608,2,57.629
			C2.139,73.974,15.804,76.399,19.251,80.9 M40.241,98.355c-4.02-5.351-1.273-8.374-12.574-18.088
			c2.396,3.552-0.078,8.005,7.545,14.952c-7.454-4.232-17.749-2.426-22.704-8.075C21.027,102.808,36,96.409,40.241,98.355
			 M94.944,95.22c7.619-6.947,5.15-11.4,7.545-14.952c-11.295,9.714-8.55,12.737-12.578,18.088
			c4.24-1.946,19.218,4.452,27.742-11.211C112.694,92.794,102.402,90.987,94.944,95.22 M106.76,85.895
			c4.496-6.025,1.668-12.323,2.629-16.688c-7.22,10.458-3.257,14.913-8.117,21.621c5.912-4.047,19.005-0.209,24.025-18.84
			C121.265,79.61,111.42,80.881,106.76,85.895 M88.707,99.1c-4.417-1.135-8.969-1.698-12.361-1.775
			c-4.227-0.104-7.995,0.662-11.265,1.836c-3.27-1.174-7.047-1.94-11.274-1.836c-3.387,0.077-7.943,0.641-12.356,1.775
			c-6.801,1.741-12.678,3.084-17.793,0.595c4.898,4.188,10.633,5.681,18.914,4.819c6.891-0.706,12.448-4.019,18.94-3.977
			c0.095,0,0.173,0.004,0.255,0.01c-6.843,3.321-15.016,7.998-15.016,7.998l3.131,0.412c0,0,7.614-6.375,15.194-8.029
			c7.584,1.654,6.575,8.029,6.575,8.029l3.131-0.412c0,0,0.447-4.677-6.397-7.998c0.083-0.006,0.165-0.01,0.256-0.01
			c6.497-0.042,12.054,3.271,18.945,3.977c8.286,0.861,14.012-0.632,18.915-4.819C101.385,102.184,95.507,100.841,88.707,99.1
			 M18.06,45.615c-2.807,5.169-7.164,6.356-6.7,17.029C9.008,53.165,3.391,49.637,3.464,43.58
			c-3.907,15.804,6.532,17.686,9.217,24.309C12.287,58.394,18.588,56.475,18.06,45.615 M21.976,33.405
			c-0.979,1.317-1.663,1.876-4.267,3.938c-3.552,2.813-6.384,6.501-7.58,11.884c0.269-5.792-3.452-14.12-0.975-20.201
			c-9.598,13.022,0.55,20.823,0.91,25.537C12.542,45.49,18.26,45.416,21.976,33.405 M120.031,49.227
			c-1.196-5.383-4.037-9.071-7.583-11.884c-2.599-2.062-3.288-2.621-4.267-3.938c3.721,12.01,9.434,12.084,11.911,21.158
			c0.359-4.714,10.507-12.515,0.91-25.537C123.479,35.107,119.763,43.435,120.031,49.227 M128.165,57.629
			c-2.087,5.979-9.282,9.221-13.929,17.935c2.642-10.29-1.261-13.035-1.672-18.657c-3.912,9.986,1.234,13.582-1.663,23.994
			C114.353,76.399,128.014,73.974,128.165,57.629 M112.092,45.615c-0.529,10.859,5.778,12.778,5.388,22.273
			c2.677-6.623,13.119-8.505,9.205-24.309c0.082,6.057-5.54,9.585-7.888,19.065C119.255,51.972,114.907,50.784,112.092,45.615
			 M25.536,21.529c2.417-2.757,3.236-6.562,7.026-9.308c-7.779,1.592-14.367,8.286-16.134,16.479
			C18.901,25.938,23.12,24.304,25.536,21.529 M102.351,22.792c3.383,10.678,11.396,8.305,16.753,19.518
			c-0.567-3.765,3.902-15.783-6.583-23.21c3.508,4.121,2.469,11.752,4.539,16.749C112.997,27.441,104.256,26.07,102.351,22.792
			 M75.177,28.855c-2.01-0.799-4.15-1.364-6.38-1.672c-0.009,0.457-0.009,0.914-0.026,1.371c2.053,0.292,4.024,0.816,5.886,1.561
			C74.904,29.735,75.077,29.326,75.177,28.855 M73.552,15.63l0.433-0.371l-0.811-0.329l-2.148-0.043l-0.554,0.372l-1.265-0.102
			l-0.013,0.294c0.801,0.061,1.581,0.126,2.204,0.23l1.04-0.091L73.552,15.63z M69.438,59.976c0-0.349-0.485-0.694-1.2-1.02h-0.122
			c-0.013,0.278-0.043,1.673-0.056,2.356C68.939,60.935,69.438,60.517,69.438,59.976 M44.646,33.836
			c0.039-0.277,0.108-0.502,0.173-0.752c-0.264,0.06-0.567,0.091-0.865,0.083L44.646,33.836z M65.128,94.326
			c24.064,0,43.651-18.811,43.651-41.945c0-21.702-17.23-39.601-39.229-41.734c-0.018,0.074-0.039,0.158-0.056,0.236
			c-0.083,0.411-0.169,0.773-0.229,1.108c9.853,0.92,18.719,5.113,25.419,11.43l-4.812,4.63l0.178-0.813l-0.633-0.27l-0.866-0.048
			l0.186-0.54l-0.584-1.893l-1.2-1.261l-3.764-1.914l-0.321,0.338l-0.68,0.186c1.291,1.832,1.983,3.943,1.983,6.083
			c0,0.277,0,0.554-0.017,0.823L86.018,31l-0.875,0.193l0.588,0.834l-1.654,1.583l-0.659-1.204c-0.316,0.84-0.736,1.625-1.242,2.356
			c0.117,0.115,0.242,0.221,0.364,0.332l-5.072,4.866c-0.308-0.279-0.624-0.546-0.953-0.808c-0.485,0.219-0.979,0.42-1.482,0.611
			c0.144,0.097,0.277,0.199,0.425,0.316l-0.26,0.247l-0.589,0.325l-0.217,0.57l-0.376-0.36l-1.062,0.34l0.291,0.457l0.736-0.192
			l0.481,0.035l0.039-0.248l0.368-0.18l0.108-0.212l0.671-0.182l0.52-0.016c0.095,0.085,0.204,0.171,0.304,0.26l-2.019,1.934
			l-0.147-0.208l-2.101,0.34l-0.464,0.452l-0.468,0.043l1.308-1.195l-0.467-0.226l-1.217,1.562l0.359-0.037l-0.021,0.582
			l0.441,0.163l0.096,0.625l-0.737-0.15l-0.767,0.137l-1.84-0.91c0,0-0.109,4.758-0.156,7.153c4.353,1.412,8.983,3.441,8.983,8.786
			c0,2.348-1.052,4.238-3.131,5.639l0.012,0.006c-0.03,0.021-0.064,0.036-0.099,0.056l-0.009-0.004
			c-0.039,0.027-0.091,0.06-0.138,0.089c-1.759,1.124-4.028,1.722-5.99,2.31c-0.008,0-0.056,3.739-0.056,3.739
			c3.126,1.493,6.912,3.663,6.562,9.87c-0.035,1.534-0.663,1.948-1.187,2.091c-1.824,0.438-3.721,0.724-5.644,0.859
			c-0.017,0.479-0.026,0.938-0.03,1.363c8.412-0.551,16.012-3.967,21.761-9.234l5.067,4.869c-7.592,7.033-17.9,11.343-29.245,11.343
			c-11.287,0-21.548-4.275-29.136-11.221l5.072-4.879c5.687,5.163,13.175,8.534,21.461,9.112c-0.013-0.415-0.022-0.882-0.026-1.367
			c-7.878-0.584-14.999-3.785-20.431-8.706l1.351-1.308l1.863,0.207l0.984-1.018l2.59,0.081l0.385-0.856l-0.091-0.364
			c3.751,2.729,8.291,4.536,13.219,5.025c-0.009-0.529-0.018-0.996-0.035-1.369c-5.436-0.588-10.364-2.846-14.189-6.242l5.072-4.874
			c1.234,1.052,2.616,1.951,4.115,2.653c0.112-0.46,0.286-0.894,0.511-1.284c-1.313-0.627-2.529-1.406-3.625-2.335l5.094-4.886
			c0.805,0.623,1.719,1.118,2.711,1.457c-0.014-0.483-0.018-0.992-0.022-1.473c-0.61-0.251-1.169-0.57-1.689-0.949l1.434-1.381
			c-0.502-0.149-1.005-0.296-1.516-0.467l-0.958,0.923c-0.485-0.522-0.896-1.104-1.213-1.739c-0.874-0.372-1.723-0.795-2.516-1.292
			c-3.127-1.971-4.708-4.755-4.708-8.271c0-2.696,0.785-4.734,2.053-6.311l-5.063-4.857c3.647-3.351,8.337-5.65,13.548-6.41
			c-0.008-0.475-0.017-0.932-0.026-1.375c-5.591,0.773-10.62,3.233-14.514,6.821l-0.862-0.825c-0.19,0.323-0.411,0.748-0.671,1.27
			l0.542,0.52c-4.367,4.457-7.064,10.415-7.177,16.97h-7.181c0.112-8.457,3.625-16.141,9.273-21.838l2.283,2.183
			c0.104,0,0.203,0,0.324-0.011c0.399-0.025,0.849-0.147,1.291-0.351l-2.894-2.796c1.529-1.422,3.192-2.709,4.99-3.833
			c0.139-0.466,0.269-0.866,0.351-1.014c0.086-0.169,0.55-0.747,1.091-1.416c-2.716,1.448-5.219,3.235-7.437,5.297l-5.072-4.873
			c6.644-6.217,15.415-10.352,25.152-11.307c-0.03-0.163-0.061-0.289-0.061-0.289c-0.065-0.324-0.139-0.675-0.208-1.048
			c-21.938,2.191-39.099,20.069-39.099,41.723C21.469,75.516,41.055,94.326,65.128,94.326 M74.544,65.347L74.54,65.32l0.014,0.022
			C74.548,65.343,74.548,65.347,74.544,65.347 M95.685,24.388c7.134,7.196,11.56,16.892,11.672,27.564h-7.172
			c-0.074-5.275-1.408-10.278-3.75-14.713l0.069-0.128l0.489,0.249l0.122-0.355l-1.287-2.164l-1.516-2.024l-1.785-1.429
			c-0.606-0.732-1.248-1.442-1.918-2.129L95.685,24.388z M86.542,33.228l1.723,0.067l0.412,0.477l-0.199,0.702l2.387,1.436
			l0.481-0.056l3.054,3.369l1.247-0.428c1.949,4.009,3.058,8.465,3.119,13.158h-7.172c-0.03-1.795-0.269-3.547-0.663-5.241
			l0.32-0.425l0.446-2.164l-0.337-2.319l-0.866-2.672l-2.001-2.809l0.489,0.243l0.247-0.234l-1.611-1.046l-0.104,0.344l1.607,2.205
			l0.909,1.808l0.65,1.795l0.203,1.2l0.333,2.033l-0.602,0.05c0,0-0.693-1.25-0.914-1.765l0.329-0.451l-0.611-0.849v-0.845
			l-0.438-0.523l-0.545,0.061c-0.199-0.34-0.398-0.693-0.611-1.029l0.39,0.191l0.1-0.098l-0.208-0.431l0.472-0.257l-0.217-0.26
			l-0.693,0.26l0.255-1.044l-0.407-0.229l-0.368,0.834c-0.785-1.128-1.659-2.192-2.612-3.186L86.542,33.228z M85.108,49.381
			l1.287-0.677l1.308-0.19l0.295-0.613l0.736-0.431l0.273-0.585l0.238-1.012c0.1,0.358,0.195,0.717,0.281,1.079l-0.693,1.997
			l-0.035,0.675l1.013-1.295c0.217,1.176,0.338,2.391,0.36,3.624h-6.28l-0.147-0.522l0.724-0.561l0.143-0.34l0.329-0.218l0.84-0.085
			l0.087-0.37L85.108,49.381z M76.493,44.643l0.645-0.141l-0.021-0.147l-0.645-0.416l0.216-1.302l0.767-0.73
			c0.477,0.515,0.927,1.079,1.338,1.654l-0.272,0.799l-0.706-0.477l-0.529,0.141l0.256,0.477h0.273L77.52,45.2l-0.204-0.277
			L76.493,44.643z M79.244,67.532l-1.551-0.423l-0.463,0.172l-0.884-0.648l-0.818-0.282c0.411-0.288,0.809-0.58,1.182-0.897
			l1.274,0.871l0.974,0.491l0.489,0.472L79.244,67.532z M78.456,40.942l5.076-4.884c1.187,1.241,2.239,2.599,3.14,4.056
			l-0.637,0.174l0.035,1.078l1.906,1.154c0.472,0.996,0.866,2.023,1.183,3.089l-0.325,0.467l-0.688,0.418l-0.173,1.014l-0.468,0.245
			l-0.394,0.451l-0.398-0.137l-0.702-0.028l0.407-0.539l0.295-1.373l0.463-0.279l-1.365-1.258l-1.017,0.333l-0.234,0.925
			l-0.646,0.676l-0.671-0.531l-0.239-0.574l0.386-0.221l0.208,0.372l0.316-0.109l-0.134-0.618l-0.45-0.033l-0.03,0.254l-0.295,0.057
			l-1.572-1.77l-0.528-0.394l0.199-0.204l0.477-0.171l-0.433-0.162c0,0-0.567,0.124-0.624,0.124l0.313,0.378l-0.802-0.015
			C79.556,42.215,79.032,41.557,78.456,40.942 M81.041,66.893l-0.688-0.658l0.528-0.655l0.667-1.3l-0.259-0.369l0.438-0.956
			l-0.043-0.864l-0.269-0.897l-0.632-0.215l-0.23,0.507l-0.372-0.095c0.537-0.828,1.117-1.607,1.503-2.521l0.641-0.267l0.364-0.459
			l0.177,0.186l0.434-0.507l-0.343-0.421l0.313-0.084l0.589,0.229l1.108,0.023l0.667-0.331l1.754-0.444l-0.33-0.563l-0.117-0.675
			l0.94,0.389l0.351-0.191l-0.169-0.705l-1.157,0.417l-1.273-0.251l-0.961-1.886h5.488c-0.247,6.057-2.837,11.558-6.921,15.67
			l-0.758-0.722l0.32-0.975l-0.584-2.124L81.041,66.893z M82.011,80.342l0.676-1.391l-0.264-0.623l0.996-0.832v-0.511l-0.848-0.509
			l0.697-1.338l1.052-1.325l-1.052-1.091h-0.784l-0.494-0.755c0.424-0.34,0.84-0.683,1.243-1.038l5.072,4.858
			C86.403,77.539,84.302,79.063,82.011,80.342 M88.335,73.9l0.554-0.605l-0.528-2.669l-0.368-0.138l0.225-0.443l-1.191-0.363
			l-0.243,0.944l-0.113,1.216l-0.255,0.227l-2.187-2.114c4.353-4.354,7.103-10.191,7.345-16.627h7.186
			c-0.251,8.341-3.807,15.904-9.451,21.514L88.335,73.9z M90.306,75.798c5.903-5.861,9.624-13.765,9.871-22.471h7.172
			c-0.252,10.605-4.773,20.234-11.967,27.343L90.306,75.798z M47.132,69.119c-0.52-0.521-1.018-1.057-1.49-1.619l0.221-1.739
			l-0.753-1.673l-0.182-2.623l-0.854-1.58l0.187-0.994l-1.031-1.886l-0.892-0.422l0.364-1.012l-0.377-0.795l0.377-0.907h0.974
			l0.342-0.542h1.681l0.265,0.465l-0.321,1.64l-0.199,0.278l0.632,1.321l-0.419,0.215L45.36,56.9l-0.113,0.131l0.286,0.776
			l0.489,0.92l0.229-0.024l0.134-0.813l-0.238-0.306l-0.031-0.554l-0.061-1.145l0.342-2.022l-0.333-0.537h1.204
			c0.234,4.219,2.075,8.039,4.933,10.921L47.132,69.119z M42.385,55.643l-0.672,1.014h-1.165l-0.087-0.06
			c-0.204-1.068-0.329-2.169-0.368-3.27h2.157l-0.52,1.654L42.385,55.643z M44.754,50.908l0.134-1.364l0.841-0.479l1.524,0.253
			l0.229,0.264c-0.139,0.777-0.208,1.568-0.229,2.37h-1.724L44.754,50.908z M52.03,56.064l0.355-0.176l0.94,0.681l-0.403,0.315
			l1.052,0.679l-0.061-0.72l0.555-0.905l0.593,0.602l0.598,0.83l-1.087,0.234l0.498,0.941l0.754-0.385l-0.095-0.302l0.559-0.361
			l0.342-1.503c0.411,0.886,0.965,1.707,1.641,2.419L53.2,63.285c-2.413-2.441-4.032-5.625-4.444-9.155l1.043,1.068l0.975-0.021
			L52.03,56.064z M46.837,35.944l5.063,4.868c-1.061,1.125-1.962,2.374-2.686,3.727l-0.359-0.017l-0.711,0.219l-0.242-0.02
			L47.14,45.39l0.953-0.147l0.875-0.212c-0.061,0.106-0.112,0.212-0.156,0.329l-0.758,0.444h-0.36l-1.117,0.808l-1.069-0.082
			l-1.564,2.789l0.316,0.559l-0.853,0.9l-0.135,1.174h-3.188C40.189,45.775,42.731,40.158,46.837,35.944 M40.28,72.713l1.615,0.901
			l0.329,0.217l-1.169,1.131c-0.55-0.551-1.065-1.114-1.577-1.685L40.28,72.713z M38.672,53.327
			c0.026,0.661,0.091,1.323,0.165,1.984L37.962,55.5l-0.182,0.859l-1.836,2.236l0.047,3.073l-1.875,0.596L33.09,62.27
			c-0.944-2.828-1.503-5.834-1.594-8.942H38.672z M31.595,62.23l-0.429-0.077l-0.402-0.428l-2.006-0.176l0.628,0.82l-1.871-0.343
			l0.489-0.427l-0.45-0.432l-1.352,0.559l-0.477,0.861l0.178,1.955l1.55,3.571l0.745,1.116l0.429,0.152l-1.174-2.136l-0.26-1.085
			l0.26-0.274l-0.147-0.59l0.688,0.085l1.087,1.568l0.269,0.11l-0.03-1.15l0.441,0.243l0.091,0.633l1.139,0.286l0.481-0.319
			l0.161,0.099l-0.018,0.84l0.498,0.594l0.611,0.13l1.334,2.166l0.801,0.217l0.256-1.014c1.395,2.223,3.058,4.278,4.942,6.128
			l-5.071,4.878c-7.272-7.126-11.838-16.787-12.093-27.465h7.177C30.162,56.407,30.69,59.397,31.595,62.23 M34.684,24.271
			l5.067,4.868c-5.908,5.956-9.568,13.985-9.689,22.813H22.89C23.016,41.224,27.477,31.479,34.684,24.271 M86.619,21.759
			l-0.441-0.669l-0.936-0.455L84.51,21.17l0.936,0.476l1.048,0.728L86.619,21.759z M82.263,41.21l0.031,0.531l1.238-0.359
			l0.381-0.732l-0.853-1.078l0.459-0.654l1.157,0.791l0.212-0.162l-0.226-0.167l-0.264-0.475l0.476-0.259l-0.468-0.579l-1.091,0.524
			l-0.381,0.632l-0.212,0.568l0.48,0.773l-0.177,0.373L82.263,41.21z M30.396,72.125l0.087-0.304l-0.646-1.351l-0.762-0.274
			L30.396,72.125z M59.727,46.22c0,1.165,0.731,1.975,2.066,2.676c0,0-0.004-0.195-0.013-0.513l-0.836-0.795l0.442-0.784l0.359-0.1
			c-0.021-1.344-0.056-2.856-0.061-3.069L61.62,43.64C60.402,44.292,59.727,45.091,59.727,46.22"/>
		<path fill="#1A92CC" d="M67.735,76.102c2.252,1.095,4.336,2.607,5.197,5.474c0.382-4.746-2.391-6.809-5.132-8.199
			C67.8,73.384,67.735,76.102,67.735,76.102"/>
		<path fill="#1A92CC" d="M82.695,27.922c0-4.314-3.257-9.102-11.23-10.785c-0.585-0.126-1.486-0.217-2.426-0.273
			c-0.022,0.647-0.061,2.133-0.061,2.133c-0.013,0.474-0.048,2.205-0.057,2.572c0.728,0.061,1.283,0.156,1.529,0.204
			c4.634,1.063,6.298,3.617,6.298,6.148c0,4.097-3.643,5.637-8.122,6.805c-0.485,0.125-0.987,0.249-1.485,0.368
			c-1.352,0.327-2.759,0.639-4.136,0.992c-0.49,0.129-0.979,0.266-1.473,0.413c-4.963,1.453-9.225,3.747-9.225,9.642
			c0,5.836,4.873,8.021,9.615,9.422c-0.021-1.674-0.065-3.369-0.1-5.061c-2.101-0.944-3.573-2.183-3.573-4.279
			c0-2.046,1.339-3.283,3.4-4.177c0.455-0.202,0.949-0.377,1.468-0.548c1.183-0.393,2.517-0.717,3.903-1.042
			c0.49-0.108,0.992-0.23,1.495-0.343C75.198,38.553,82.695,36.547,82.695,27.922"/>
		<path fill="#1A92CC" d="M58.661,69.088c0.018,2.361,1.811,3.645,3.617,4.623c-0.004-0.404-0.069-4.047-0.069-4.112
			c0.039-0.731,0.771-1.165,1.359-1.438c0.871-0.395,1.754-0.679,2.872-1.052c0.537-0.173,1-0.354,1.516-0.503
			c3.629-1.051,7.826-2.391,7.826-6.633c0-4.25-3.604-5.993-7.536-7.298c-0.03,1.357-0.074,3.332-0.104,4.697
			c1.667,0.633,2.768,1.391,2.768,2.602c0,1.519-1.693,2.4-2.894,2.838c-0.494,0.193-1.247,0.427-1.468,0.489
			c-0.957,0.288-1.997,0.626-2.967,0.965c-0.511,0.191-1.009,0.385-1.464,0.611C60.416,65.715,58.648,66.944,58.661,69.088"/>
		<path fill="#1A92CC" d="M61.122,17.541c-2.421,0.66-3.842,1.535-4.379,1.714c-1.563,0.494-3.771,0.585-6.05,2.963
			c-0.403,0.427-1.395,1.616-2.092,2.599c-0.684,0.951-0.724,2.48-1.222,3.303c-0.732,1.187-0.563,1.868-0.563,1.868l0.021,0.037
			c-0.021,0.152-0.168,0.778-0.84,1.488c-0.758,0.819-1.759,1.27-2.954,1.085c1.035,0.496,2.474-0.204,2.474-0.204
			s-0.278,0.758-0.551,1.984c1.169-2.534,2.235-3.46,2.577-3.714c0.499,0.111,1.533,0.061,3.461-0.998
			c2.174-1.198,5.449-3.164,6.371-4.403c1.001-1.332,2.374-2.222,3.864-2.792C61.195,20.6,61.148,18.939,61.122,17.541
			 M51.93,25.447l-1.121,0.236l1.338-2.123l1.577,0.061L51.93,25.447z"/>
		<path fill="#1A92CC" d="M65.608,68.798c-0.203,0.069-0.749,0.3-1.1,0.412c-0.363,0.118-0.823,0.308-0.823,0.429
			c0,0.025,0.347,18.281,0.347,18.686c0,3.751,1.997,3.775,1.997,0c0-0.269,0.403-19.786,0.403-19.786S65.947,68.682,65.608,68.798"
			/>
		<path fill="#1A92CC" d="M63.547,62.772c0.624-0.203,1.243-0.387,1.819-0.561c0.438-0.12,0.836-0.242,1.204-0.358
			c0.021-1.148,0.36-17.042,0.429-19.92c-1.491,0.354-2.781,0.687-3.851,1.063C63.201,45.163,63.517,61.035,63.547,62.772"/>
		<path fill="#1A92CC" d="M65.21,1.943c-5.591,0-3.217,7.972-2.776,10.57c0.021,0.124,0.455,18.02,0.542,22.124
			c0.849-0.212,1.693-0.418,2.512-0.606c0.581-0.142,1.148-0.28,1.689-0.408c0.086-3.954,0.494-21.028,0.506-21.14
			C68.017,9.7,70.954,1.943,65.21,1.943"/>
		<path fill="#1A92CC" d="M147.266,25.074c5.324,0,10.213,4.451,10.213,14.795c0,10.346-4.889,14.796-10.213,14.796
			c-5.336,0-10.226-4.45-10.226-14.796C137.04,29.525,141.93,25.074,147.266,25.074 M147.266,50.628
			c2.976,0,5.367-2.848,5.367-10.759c0-7.911-2.391-10.754-5.367-10.754c-2.98,0-5.375,2.844-5.375,10.754
			C141.891,47.781,144.286,50.628,147.266,50.628"/>
		<path fill="#1A92CC" d="M160.645,36.529c0-1.315-0.039-2.551-0.147-3.502h4.12c0.035,1.286,0.147,2.601,0.147,3.874h0.074
			c0.559-1.646,1.983-4.204,4.82-4.204c0.295,0,0.507,0.085,0.767,0.126v4.788c-0.407-0.127-0.811-0.212-1.287-0.212
			c-1.88,0-3.937,1.28-3.937,5.235v11.623h-4.557"/>
		<path fill="#1A92CC" d="M172.76,57.55c1.065,0.665,3.205,1.818,5.595,1.818c4.301,0,4.99-3.341,4.99-6.68v-2.016h-0.065
			c-0.745,1.644-2.027,3.584-5.007,3.584c-2.646,0-6.609-1.981-6.609-10.553c0-5.852,1.875-11,6.831-11
			c2.758,0,4.041,1.77,4.998,3.621h0.151c0-1.111,0.108-2.183,0.147-3.298h4.115c-0.07,1.115-0.147,2.228-0.147,3.346v15.655
			c0,6.633-1.802,11.38-8.741,11.38c-3.015,0-5.41-0.863-6.514-1.317 M179.343,50.503c2.867,0,4.002-2.306,4.002-7.12
			c0-4.457-1.503-6.854-3.673-6.811c-2.391,0.048-3.304,2.523-3.304,6.841C176.368,48.405,177.801,50.503,179.343,50.503"/>
		<path fill="#1A92CC" d="M192.285,34.27c1.287-0.659,3.084-1.566,5.995-1.566c5.882,0,7.237,3.208,7.237,8.528v9.271
			c0,1.524,0.143,2.93,0.251,3.753h-4.11c-0.221-0.823-0.256-1.849-0.256-2.884h-0.086c-1.13,1.729-2.564,3.213-5.284,3.213
			c-2.941,0-5.669-2.269-5.669-6.221c0-5.771,4.197-7.214,9.966-7.214h0.922v-0.784c0-2.101-0.922-4.041-3.534-4.041
			c-2.27,0-4.296,1.239-5.171,2.066 M201.25,43.865h-0.403c-3.898,0-6.211,0.912-6.211,4c0,1.938,1.136,3.257,2.898,3.257
			c2.729,0,3.716-2.261,3.716-6.055V43.865z"/>
		<path fill="#1A92CC" d="M209.19,36.529c0-1.315-0.039-2.551-0.147-3.502h4.266c0.035,1.076,0.147,2.187,0.147,3.257h0.1h-0.026
			c0.667-1.276,1.945-3.587,5.033-3.587c4.296,0,5.587,3.587,5.587,7.874v13.685h-4.561V41.527c0-3.259-0.728-4.626-2.607-4.626
			c-2.382,0-3.235,2.271-3.235,4.992v12.363h-4.556"/>
		<path fill="#1A92CC" d="M227.909,24.005h4.708v5.028h-4.708 M227.974,33.027h4.561v21.229h-4.561V33.027z"/>
		<polyline fill="#1A92CC" points="235.87,49.849 243.961,36.903 236.13,36.903 236.13,33.031 248.526,33.031 248.526,37.398 
			240.583,50.382 248.773,50.382 248.773,54.258 235.87,54.258 		"/>
		<path fill="#1A92CC" d="M252.589,34.27c1.291-0.659,3.08-1.566,5.991-1.566c5.88,0,7.239,3.208,7.239,8.528v9.271
			c0,1.524,0.146,2.93,0.262,3.753h-4.12c-0.221-0.823-0.256-1.849-0.256-2.884h-0.081c-1.139,1.729-2.568,3.213-5.288,3.213
			c-2.942,0-5.666-2.269-5.666-6.221c0-5.771,4.192-7.214,9.965-7.214h0.923v-0.784c0-2.101-0.923-4.041-3.534-4.041
			c-2.271,0-4.302,1.239-5.18,2.066 M261.559,43.865h-0.41c-3.896,0-6.203,0.912-6.203,4c0,1.938,1.136,3.257,2.897,3.257
			c2.724,0,3.716-2.261,3.716-6.055V43.865z"/>
		<path fill="#1A92CC" d="M281.474,53.724c-1.069,0.457-2.649,0.861-4.487,0.861h-0.221l-0.657,2.224
			c0.357-0.119,0.809-0.245,1.433-0.245c2.027,0,3.199,1.278,3.199,3.051c0,2.602-2.276,3.797-4.079,3.797
			c-1.545,0-3.126-0.416-3.858-0.828l0.59-1.646c0.73,0.284,1.472,0.573,2.563,0.573c1.223,0,1.919-0.696,1.919-1.688
			c0-0.947-0.696-1.527-1.688-1.527c-0.661,0-1.108,0.125-1.434,0.294l-0.663-0.702l1.097-3.459
			c-4.99-0.903-7.087-5.403-7.087-10.761c0-6.055,2.785-10.964,9.143-10.964c1.434,0,3.128,0.491,3.974,0.873l-0.252,4.036
			c-0.811-0.457-1.949-1.033-3.201-1.033c-3.45,0-4.959,2.597-4.959,7.129c0,3.955,1.69,7.006,5.184,7.006
			c1.097,0,2.609-0.576,3.229-1.033"/>
		<path fill="#1A92CC" d="M285.524,34.27c1.286-0.659,3.083-1.566,5.99-1.566c5.88,0,7.236,3.208,7.236,8.528v9.271
			c0,1.524,0.146,2.93,0.255,3.753h-4.11c-0.217-0.823-0.255-1.849-0.255-2.884h-0.081c-1.132,1.729-2.573,3.213-5.289,3.213
			c-2.941,0-5.665-2.269-5.665-6.221c0-5.771,4.191-7.214,9.961-7.214h0.919v-0.784c0-2.101-0.919-4.041-3.526-4.041
			c-2.272,0-4.298,1.239-5.18,2.066 M286.217,30.232c0-1.446,0.696-4.745,3.46-4.82c1.685,0,3.118,1.393,4.223,1.393
			c0.741,0,1.066-0.783,1.066-1.605h2.282c0,1.195-0.702,4.818-3.426,4.818c-1.43,0-2.789-1.401-4.11-1.401
			c-0.915,0-1.36,0.745-1.36,1.615H286.217z M294.485,43.865h-0.398c-3.896,0-6.207,0.912-6.207,4c0,1.938,1.136,3.257,2.894,3.257
			c2.729,0,3.712-2.261,3.712-6.055V43.865z"/>
		<path fill="#1A92CC" d="M310.264,32.704c3.851,0,8.3,2.27,8.3,10.919c0,8.91-4.449,10.965-8.3,10.965
			c-3.859,0-8.356-2.055-8.356-10.965C301.907,34.974,306.404,32.704,310.264,32.704 M310.264,50.964
			c2.933,0,3.594-3.79,3.594-7.342c0-3.545-0.661-7.3-3.594-7.3s-3.643,3.755-3.643,7.3
			C306.621,47.174,307.331,50.964,310.264,50.964"/>
		<polyline fill="#1A92CC" points="159.493,69.855 159.428,69.855 152.988,93.841 149.647,93.841 143.506,69.855 143.428,69.855 
			143.428,93.841 139.167,93.841 139.167,65.082 146.187,65.082 151.48,86.547 151.554,86.547 156.955,65.082 163.759,65.082 
			163.759,93.841 159.493,93.841 		"/>
		<path fill="#1A92CC" d="M182.383,90.342c0,1.321,0.039,2.551,0.152,3.499h-4.262c-0.043-1.069-0.152-2.178-0.152-3.248
			l-0.108-0.048l0.031,0.048c-0.88,1.567-2.057,3.583-5.033,3.583c-4.296,0-5.583-3.583-5.583-7.871V72.618h4.556v12.735
			c0,3.265,0.81,4.617,2.72,4.617c2.421,0,3.123-2.471,3.123-5.19V72.618h4.556"/>
		<path fill="#1A92CC" d="M186.312,76.123c0-1.317-0.039-2.548-0.148-3.505h4.262c0.035,1.083,0.152,2.188,0.152,3.257h0.108h-0.035
			c0.663-1.269,1.949-3.586,5.033-3.586c4.301,0,5.587,3.586,5.587,7.874v13.678h-4.561V81.115c0-3.265-0.728-4.621-2.607-4.621
			c-2.382,0-3.235,2.274-3.235,4.986v12.36h-4.557"/>
		<path fill="#1A92CC" d="M220.572,62.933v27.289c0,1.524,0.034,2.85,0.147,3.619h-4.266c-0.065-0.615-0.143-1.854-0.143-3.296
			h-0.108c-0.736,1.82-2.105,3.625-5.037,3.625c-4.709,0-6.653-5.023-6.653-10.913c0-6.927,2.464-10.968,6.541-10.968
			c2.724,0,4.227,1.737,4.885,3.379h0.074V62.933 M212.408,90.419c2.686,0,3.604-3.247,3.604-7.242c0-4.131-1.027-7.137-3.526-7.137
			c-2.538,0-3.417,2.764-3.417,7.008C209.068,87.941,209.762,90.419,212.408,90.419"/>
		<path fill="#1A92CC" d="M224.223,63.597h4.713v5.02h-4.713 M224.301,72.618h4.561v21.215h-4.561V72.618z"/>
		<path fill="#1A92CC" d="M233.977,73.857c1.282-0.659,3.08-1.563,5.991-1.563c5.881,0,7.237,3.207,7.237,8.526v9.274
			c0,1.521,0.143,2.923,0.251,3.741h-4.106c-0.221-0.818-0.26-1.846-0.26-2.876h-0.077c-1.139,1.729-2.573,3.209-5.293,3.209
			c-2.937,0-5.665-2.26-5.665-6.219c0-5.761,4.188-7.215,9.966-7.215h0.922v-0.781c0-2.104-0.922-4.035-3.539-4.035
			c-2.27,0-4.296,1.233-5.176,2.056 M242.943,83.456h-0.407c-3.894,0-6.211,0.909-6.211,4.002c0,1.939,1.139,3.257,2.902,3.257
			c2.725,0,3.716-2.265,3.716-6.063V83.456z"/>
		<rect x="251.51" y="62.933" fill="#1A92CC" width="4.558" height="30.908"/>
		<path fill="#1A92CC" d="M286.052,62.933v27.289c0,1.524,0.035,2.85,0.151,3.619h-4.262c-0.069-0.615-0.148-1.854-0.148-3.296
			h-0.11c-0.733,1.82-2.103,3.625-5.033,3.625c-4.708,0-6.653-5.023-6.653-10.913c0-6.927,2.46-10.968,6.535-10.968
			c2.726,0,4.232,1.737,4.895,3.379h0.069V62.933 M277.901,90.419c2.671,0,3.594-3.247,3.594-7.242c0-4.131-1.031-7.137-3.53-7.137
			c-2.534,0-3.416,2.764-3.416,7.008C274.553,87.941,275.241,90.419,277.901,90.419"/>
		<path fill="#1A92CC" d="M290.799,73.857c1.286-0.659,3.079-1.563,5.99-1.563c5.883,0,7.236,3.207,7.236,8.526v9.274
			c0,1.521,0.149,2.923,0.262,3.741h-4.114c-0.223-0.818-0.262-1.846-0.262-2.876h-0.081c-1.136,1.729-2.568,3.209-5.288,3.209
			c-2.933,0-5.662-2.26-5.662-6.219c0-5.761,4.191-7.215,9.966-7.215h0.919v-0.781c0-2.104-0.919-4.035-3.53-4.035
			c-2.278,0-4.3,1.233-5.176,2.056 M299.765,83.456h-0.406c-3.89,0-6.203,0.909-6.203,4.002c0,1.939,1.135,3.257,2.897,3.257
			c2.72,0,3.712-2.265,3.712-6.063V83.456z"/>
		<path fill="#1A92CC" d="M317.411,88.285c0.918,0.658,2.932,1.763,5.435,1.763c2.063,0,3.897-1.272,3.897-4.159
			c0-2.052-1.056-2.967-3.342-4.361l-2.396-1.485c-2.524-1.567-4.181-3.838-4.181-7.544c0-5.147,3.778-7.826,8.084-7.826
			c2.727,0,4.631,0.781,5.371,1.025l-0.227,4.41c-1.129-0.495-2.646-1.24-4.816-1.24c-2.352,0-3.564,1.408-3.564,3.379
			c0,2.147,1.282,2.972,2.72,3.877l2.76,1.728c3.014,1.894,4.449,3.717,4.449,7.758c0,5.842-3.708,8.648-8.604,8.648
			c-2.569,0-4.56-0.42-5.842-1.28"/>
		<path fill="#1A92CC" d="M335.835,73.857c1.286-0.659,3.085-1.563,5.99-1.563c5.886,0,7.242,3.207,7.242,8.526v9.274
			c0,1.521,0.146,2.923,0.255,3.741h-4.11c-0.221-0.818-0.259-1.846-0.259-2.876h-0.08c-1.137,1.729-2.576,3.209-5.292,3.209
			c-2.936,0-5.659-2.26-5.659-6.219c0-5.761,4.188-7.215,9.961-7.215h0.917v-0.781c0-2.104-0.917-4.035-3.53-4.035
			c-2.269,0-4.3,1.233-5.174,2.056 M344.8,83.456h-0.406c-3.89,0-6.207,0.909-6.207,4.002c0,1.939,1.14,3.257,2.901,3.257
			c2.726,0,3.712-2.265,3.712-6.063V83.456z"/>
		<path fill="#1A92CC" d="M367.18,90.342c0,1.317,0.041,2.551,0.139,3.499h-4.253c-0.039-1.069-0.151-2.182-0.151-3.248
			l-0.104-0.048l0.021,0.048c-0.874,1.567-2.052,3.577-5.029,3.577c-4.296,0-5.582-3.577-5.582-7.865V72.618h4.558v12.735
			c0,3.265,0.811,4.617,2.716,4.617c2.429,0,3.131-2.471,3.131-5.2V72.618h4.556 M359.901,64.337h4.261l-3.747,5.933h-2.862
			L359.901,64.337z"/>
		<path fill="#1A92CC" d="M386.654,62.933v27.289c0,1.524,0.038,2.85,0.146,3.619h-4.267c-0.064-0.615-0.142-1.854-0.142-3.296
			h-0.108c-0.733,1.82-2.097,3.625-5.039,3.625c-4.702,0-6.655-5.023-6.655-10.913c0-6.927,2.468-10.968,6.54-10.968
			c2.729,0,4.231,1.737,4.894,3.379h0.073V62.933 M378.493,90.419c2.687,0,3.604-3.247,3.604-7.242c0-4.131-1.031-7.137-3.53-7.137
			c-2.533,0-3.412,2.764-3.412,7.008C375.154,87.941,375.843,90.419,378.493,90.419"/>
		<path fill="#1A92CC" d="M404.195,92.815c-0.957,0.455-2.945,1.354-5.655,1.354c-6.108,0-8.755-4.894-8.755-10.627
			c0-6.351,2.976-11.254,7.788-11.254c4.085,0,7.574,2.677,7.574,11.331v0.996h-10.958c0,3.629,1.287,5.813,4.816,5.813
			c2.799,0,4.124-0.953,4.964-1.653 M400.739,81.401c0-3.75-1.104-5.652-3.166-5.652c-2.378,0-3.384,2.846-3.384,5.652H400.739z"/>
	</g>
</g>
</svg>
