<?xml version="1.0" encoding="utf-8"?>
<!-- Generator: Adobe Illustrator 14.0.0, SVG Export Plug-In . SVG Version: 6.00 Build 43363)  -->
<!DOCTYPE svg PUBLIC "-//W3C//DTD SVG 1.1//EN" "http://www.w3.org/Graphics/SVG/1.1/DTD/svg11.dtd">
<svg version="1.1" id="Camada_1" xmlns="http://www.w3.org/2000/svg" xmlns:xlink="http://www.w3.org/1999/xlink" x="0px" y="0px"
	 width="373.5px" height="110px" viewBox="0 0 373.5 110" enable-background="new 0 0 373.5 110" xml:space="preserve">
<g>
	<g>
		<line fill="#0093D5" x1="354.297" y1="64.794" x2="220.876" y2="64.794"/>
		<path fill="#0093D5" d="M106.644,20.165c2.422,2.843,6.628,4.519,9.105,7.372c-1.763-8.436-8.35-15.322-16.134-16.96
			C103.403,13.402,104.218,17.313,106.644,20.165 M13.055,41.538c5.367-11.536,13.373-9.097,16.755-20.087
			c-1.915,3.372-10.657,4.794-14.707,13.439c2.067-5.14,1.021-12.99,4.534-17.234C9.151,25.298,13.621,37.662,13.055,41.538
			 M22.768,69.206c0.962,4.502-1.854,10.979,2.624,17.175c-4.649-5.156-14.5-6.468-18.537-14.313
			c5.04,19.168,18.118,15.219,24.038,19.385C26.026,84.553,30.004,79.969,22.768,69.206 M21.257,81.238
			c-2.9-10.707,2.251-14.403-1.661-24.686c-0.41,5.789-4.309,8.615-1.676,19.198C13.275,66.781,6.076,63.443,4,57.292
			C4.143,74.107,17.806,76.6,21.257,81.238 M42.253,99.201c-4.023-5.506-1.27-8.613-12.585-18.615
			c2.398,3.648-0.069,8.239,7.554,15.383c-7.457-4.35-17.75-2.484-22.708-8.304C23.025,103.781,38.005,97.193,42.253,99.201
			 M96.963,95.969c7.628-7.144,5.161-11.732,7.55-15.383c-11.302,10.002-8.562,13.109-12.585,18.615
			c4.249-2.008,19.223,4.58,27.743-11.536C114.718,93.482,104.416,91.619,96.963,95.969 M108.789,86.381
			c4.483-6.195,1.661-12.673,2.624-17.175c-7.231,10.762-3.259,15.347-8.125,22.247c5.916-4.166,19.007-0.217,24.038-19.385
			C123.294,79.913,113.443,81.225,108.789,86.381 M90.73,99.966c-4.424-1.171-8.972-1.75-12.369-1.833
			c-4.217-0.102-7.996,0.689-11.274,1.889c-3.263-1.197-7.043-1.989-11.268-1.889c-3.393,0.083-7.945,0.662-12.36,1.833
			c-6.795,1.784-12.687,3.175-17.806,0.604c4.912,4.314,10.644,5.849,18.925,4.975c6.891-0.738,12.451-4.145,18.947-4.104
			c0.087,0,0.18,0.015,0.253,0.015c-6.835,3.416-10.702,8.229-10.702,8.229l3.13,0.416c0,0,3.3-6.556,10.882-8.259
			c7.596,1.703,10.892,8.259,10.892,8.259l3.13-0.416c0,0-3.862-4.813-10.707-8.229c0.083,0,0.156-0.015,0.253-0.015
			c6.495-0.041,12.056,3.365,18.952,4.104c8.276,0.874,14.013-0.658,18.915-4.975C103.403,103.141,97.524,101.75,90.73,99.966
			 M20.065,44.942c-2.808,5.317-7.167,6.537-6.703,17.52c-2.352-9.759-7.963-13.386-7.898-19.624
			c-3.913,16.268,6.541,18.204,9.22,25.016C14.284,58.089,20.595,56.117,20.065,44.942 M23.979,32.375
			c-0.971,1.358-1.662,1.931-4.268,4.049c-3.549,2.894-6.385,6.688-7.577,12.235c0.267-5.966-3.457-14.537-0.98-20.784
			c-9.603,13.393,0.548,21.419,0.906,26.271C14.551,44.809,20.259,44.734,23.979,32.375 M122.051,48.659
			c-1.206-5.547-4.032-9.342-7.582-12.235c-2.605-2.118-3.292-2.69-4.272-4.049c3.724,12.359,9.438,12.434,11.919,21.771
			c0.367-4.852,10.504-12.878,0.911-26.271C125.508,34.122,121.779,42.693,122.051,48.659 M130.189,57.292
			c-2.085,6.151-9.275,9.489-13.921,18.46c2.634-10.583-1.27-13.409-1.68-19.197c-3.912,10.28,1.233,13.977-1.667,24.686
			C116.375,76.6,130.042,74.107,130.189,57.292 M114.125,44.942c-0.534,11.175,5.772,13.147,5.376,22.914
			c2.684-6.813,13.119-8.748,9.216-25.017c0.073,6.237-5.547,9.865-7.895,19.624C121.277,51.479,116.933,50.259,114.125,44.942
			 M27.542,20.165c2.417-2.852,3.231-6.763,7.029-9.588c-7.789,1.638-14.367,8.524-16.135,16.96
			C20.913,24.684,25.12,23.008,27.542,20.165 M104.37,21.451c3.388,10.99,11.393,8.551,16.751,20.087
			c-0.557-3.876,3.899-16.24-6.568-23.882c3.503,4.244,2.458,12.095,4.529,17.234C115.021,26.246,106.285,24.823,104.37,21.451
			 M77.192,27.696c-2.016-0.824-4.152-1.408-6.375-1.727c-0.009,0.47-0.019,0.948-0.028,1.418c2.048,0.299,4.023,0.843,5.878,1.599
			C76.916,28.601,77.091,28.172,77.192,27.696 M75.571,14.088L76,13.704l-0.815-0.336l-2.145-0.046l-0.557,0.382l-1.257-0.099
			l-0.015,0.301c0.802,0.051,1.579,0.125,2.201,0.23l1.041-0.097L75.571,14.088z M71.447,59.712c0-0.362-0.483-0.716-1.196-1.048
			l-0.125-0.004c-0.009,0.297-0.032,1.727-0.046,2.428C70.955,60.691,71.447,60.275,71.447,59.712 M46.649,32.822
			c0.055-0.291,0.105-0.518,0.189-0.776c-0.272,0.064-0.58,0.094-0.879,0.087L46.649,32.822z M67.134,95.059
			c24.075,0,43.667-19.361,43.667-43.161c0-22.319-17.239-40.741-39.243-42.939c-0.013,0.082-0.032,0.168-0.046,0.246
			c-0.092,0.424-0.161,0.801-0.235,1.135c9.851,0.951,18.726,5.268,25.429,11.764l-4.825,4.762l0.189-0.838l-0.631-0.275
			l-0.865-0.051l0.184-0.548l-0.58-1.95l-1.206-1.301l-3.761-1.965l-0.322,0.34l-0.681,0.198c1.293,1.887,1.993,4.058,1.993,6.255
			c0,0.291-0.014,0.574-0.022,0.85l1.854,2.317L87.172,30.1l0.571,0.862l-1.652,1.626l-0.659-1.247
			c-0.313,0.873-0.732,1.68-1.243,2.431c0.119,0.112,0.248,0.221,0.368,0.34l-5.069,5.009c-0.313-0.286-0.635-0.567-0.957-0.836
			c-0.493,0.223-0.981,0.433-1.487,0.626c0.147,0.106,0.286,0.211,0.428,0.325l-0.257,0.265l-0.585,0.325L76.4,40.41l-0.364-0.364
			L74.968,40.4l0.286,0.463l0.741-0.196l0.484,0.037l0.027-0.258l0.382-0.182l0.111-0.219l0.663-0.18l0.521-0.025
			c0.105,0.087,0.207,0.177,0.304,0.27L76.48,42.1l-0.152-0.216l-2.099,0.348l-0.475,0.463l-0.46,0.053l1.307-1.234l-0.464-0.235
			l-1.225,1.616l0.359-0.037l-0.022,0.592l0.451,0.17l0.082,0.635l-0.731-0.147l-0.764,0.141l-1.846-0.939
			c0,0-0.097,4.9-0.152,7.365c4.359,1.445,8.986,3.538,8.986,9.037c0,2.407-1.059,4.356-3.14,5.795l0.014,0.007
			c-0.028,0.021-0.06,0.047-0.087,0.065l-0.01-0.005c-0.05,0.029-0.097,0.06-0.143,0.094c-1.763,1.15-4.028,1.764-5.993,2.373
			c-0.014,0.005-0.06,3.844-0.06,3.844c3.13,1.538,6.919,3.774,6.564,10.164c-0.042,1.564-0.659,2.008-1.188,2.146V84.2
			c-1.827,0.446-3.719,0.739-5.653,0.879c-0.009,0.497-0.009,0.967-0.018,1.407c8.405-0.57,16.015-4.082,21.769-9.5l5.068,5.009
			c-7.595,7.218-17.911,11.664-29.263,11.664c-11.283,0-21.544-4.392-29.134-11.546l5.078-5.018
			c5.693,5.317,13.184,8.774,21.455,9.373c-0.009-0.434-0.013-0.902-0.022-1.398c-7.876-0.608-15.006-3.904-20.434-8.969
			l1.358-1.334l1.851,0.211l0.985-1.049l2.596,0.088l0.386-0.89l-0.096-0.378c3.756,2.816,8.295,4.668,13.22,5.175
			c-0.009-0.543-0.019-1.022-0.027-1.409c-5.45-0.599-10.367-2.928-14.192-6.416l5.073-5.019c1.229,1.089,2.615,2.01,4.11,2.728
			c0.116-0.479,0.286-0.92,0.516-1.315c-1.321-0.642-2.532-1.452-3.619-2.399l5.087-5.029c0.797,0.638,1.722,1.144,2.711,1.492
			c-0.009-0.498-0.019-1.017-0.028-1.514c-0.598-0.256-1.169-0.587-1.681-0.979l1.437-1.42c-0.511-0.149-1.008-0.31-1.524-0.479
			l-0.957,0.948c-0.479-0.534-0.893-1.135-1.22-1.781c-0.875-0.385-1.717-0.822-2.509-1.331c-3.125-2.032-4.709-4.902-4.709-8.521
			c0-2.764,0.787-4.859,2.053-6.485l-5.054-5.002c3.646-3.443,8.327-5.813,13.538-6.589c-0.014-0.488-0.023-0.96-0.027-1.411
			c-5.584,0.792-10.616,3.321-14.515,7.013l-0.861-0.845c-0.184,0.333-0.418,0.764-0.677,1.303l0.535,0.532
			c-4.35,4.589-7.057,10.719-7.168,17.465h-7.176c0.111-8.701,3.619-16.611,9.275-22.476l2.279,2.252c0.105,0,0.211,0,0.317-0.009
			c0.406-0.033,0.861-0.155,1.299-0.373l-2.896-2.863c1.528-1.464,3.209-2.788,4.995-3.945c0.143-0.477,0.276-0.896,0.345-1.046
			c0.092-0.177,0.543-0.771,1.101-1.452c-2.716,1.489-5.225,3.326-7.439,5.446l-5.073-5.009c6.652-6.401,15.412-10.659,25.148-11.63
			c-0.032-0.172-0.06-0.305-0.06-0.305c-0.06-0.33-0.138-0.698-0.208-1.073c-21.944,2.258-39.1,20.646-39.1,42.921
			C23.477,75.697,43.068,95.059,67.134,95.059 M76.561,65.242l-0.004-0.036l0.018,0.03C76.57,65.236,76.566,65.242,76.561,65.242
			 M97.705,23.099c7.134,7.398,11.554,17.377,11.668,28.361h-7.176c-0.06-5.439-1.408-10.576-3.737-15.143l0.069-0.126l0.492,0.26
			l0.111-0.377l-1.285-2.222l-1.519-2.078l-1.781-1.471c-0.603-0.755-1.252-1.487-1.919-2.191L97.705,23.099z M88.562,32.188
			l1.73,0.074l0.401,0.493l-0.198,0.722l2.389,1.473l0.47-0.06l3.065,3.462l1.252-0.433c1.943,4.127,3.053,8.714,3.112,13.541
			h-7.181c-0.032-1.853-0.263-3.655-0.658-5.395l0.322-0.439l0.442-2.219l-0.327-2.394l-0.866-2.743l-2.007-2.894l0.488,0.255
			l0.244-0.246l-1.603-1.075l-0.115,0.356l1.611,2.267l0.911,1.864l0.649,1.842l0.202,1.24l0.336,2.085l-0.607,0.045
			c0,0-0.686-1.279-0.902-1.809l0.322-0.472l-0.612-0.867v-0.866l-0.437-0.545l-0.543,0.067c-0.198-0.354-0.396-0.711-0.613-1.062
			l0.378,0.201l0.115-0.104l-0.211-0.444l0.469-0.265l-0.211-0.258l-0.696,0.258l0.254-1.077l-0.411-0.228l-0.368,0.856
			c-0.778-1.158-1.652-2.258-2.605-3.278L88.562,32.188z M87.13,48.816l1.284-0.693l1.312-0.205l0.295-0.633l0.728-0.435l0.28-0.606
			l0.226-1.045c0.106,0.366,0.212,0.746,0.295,1.122l-0.699,2.047l-0.028,0.695l1.013-1.337c0.203,1.218,0.332,2.465,0.359,3.733
			h-6.292l-0.144-0.539l0.724-0.575l0.146-0.348l0.323-0.232l0.852-0.085l0.083-0.38L87.13,48.816z M78.518,43.936l0.635-0.145
			l-0.023-0.154l-0.644-0.421l0.221-1.338l0.764-0.759c0.483,0.539,0.925,1.107,1.335,1.71l-0.271,0.822l-0.7-0.495l-0.539,0.145
			l0.267,0.49h0.262l-0.286,0.72l-0.207-0.285L78.518,43.936z M81.261,67.491l-1.551-0.438l-0.46,0.174l-0.879-0.666l-0.824-0.293
			c0.4-0.287,0.796-0.592,1.174-0.914L80,66.246l0.977,0.508l0.492,0.479L81.261,67.491z M80.475,40.129l5.072-5.02
			c1.192,1.27,2.238,2.672,3.144,4.168l-0.635,0.172l0.037,1.122l1.901,1.183c0.47,1.024,0.866,2.083,1.192,3.177l-0.335,0.479
			l-0.686,0.43l-0.176,1.042l-0.464,0.258l-0.396,0.458l-0.4-0.143l-0.695-0.03l0.41-0.546l0.285-1.413l0.475-0.291l-1.372-1.295
			l-1.026,0.345l-0.231,0.95l-0.649,0.695l-0.667-0.552l-0.23-0.583l0.373-0.232l0.22,0.379l0.304-0.105l-0.133-0.647l-0.442-0.023
			l-0.033,0.261l-0.29,0.06l-1.579-1.819l-0.539-0.407l0.212-0.216l0.474-0.168l-0.446-0.166c0,0-0.553,0.123-0.613,0.123
			l0.318,0.391l-0.81-0.017C81.574,41.439,81.045,40.76,80.475,40.129 M83.057,66.828l-0.69-0.68l0.524-0.682l0.672-1.33
			L83.3,63.764l0.442-0.986l-0.045-0.891l-0.267-0.925l-0.63-0.22l-0.226,0.525l-0.378-0.104c0.539-0.847,1.104-1.649,1.51-2.588
			l0.64-0.275L84.7,57.82l0.18,0.201l0.437-0.522l-0.354-0.435l0.322-0.086l0.589,0.232l1.109,0.032l0.673-0.349l1.745-0.465
			l-0.323-0.574l-0.115-0.695l0.939,0.41l0.351-0.202l-0.171-0.725l-1.155,0.428l-1.27-0.255l-0.967-1.954h5.487
			c-0.248,6.246-2.826,11.902-6.928,16.132l-0.75-0.743l0.322-0.999l-0.58-2.189L83.057,66.828z M84.028,80.668l0.672-1.436
			l-0.262-0.637l0.995-0.865v-0.516l-0.852-0.525l0.704-1.381l1.054-1.356l-1.054-1.124h-0.787l-0.493-0.786
			c0.423-0.341,0.842-0.7,1.238-1.067l5.082,5.018C88.415,77.777,86.311,79.352,84.028,80.668 M90.357,74.039l0.552-0.616
			L90.38,70.68l-0.364-0.148l0.221-0.459l-1.197-0.379l-0.229,0.986l-0.12,1.242l-0.253,0.229l-2.191-2.166
			c4.354-4.483,7.107-10.494,7.342-17.123h7.186c-0.248,8.585-3.802,16.367-9.445,22.144L90.357,74.039z M92.323,75.991
			c5.911-6.025,9.625-14.155,9.87-23.129h7.171C109.116,63.787,104.6,73.689,97.4,81.009L92.323,75.991z M49.144,69.113
			c-0.52-0.527-1.017-1.082-1.487-1.656l0.217-1.793l-0.755-1.723l-0.18-2.69l-0.852-1.638l0.18-1.021l-1.031-1.938l-0.888-0.439
			l0.364-1.033l-0.373-0.819l0.368-0.935h0.98l0.34-0.566h1.676l0.263,0.488l-0.309,1.685l-0.211,0.292l0.635,1.354l-0.415,0.228
			L47.38,56.55l-0.119,0.132l0.275,0.807l0.498,0.941l0.226-0.023l0.138-0.846l-0.235-0.307l-0.037-0.572l-0.06-1.174l0.346-2.081
			l-0.336-0.563h1.197c0.24,4.352,2.076,8.281,4.94,11.244L49.144,69.113z M44.398,55.253l-0.682,1.05h-1.165l-0.087-0.066
			c-0.193-1.104-0.326-2.226-0.368-3.375h2.163l-0.515,1.709L44.398,55.253z M46.76,50.386l0.129-1.418l0.852-0.483l1.519,0.265
			l0.23,0.274c-0.138,0.796-0.211,1.608-0.235,2.438h-1.717L46.76,50.386z M54.042,55.684l0.354-0.177l0.944,0.699l-0.41,0.323
			l1.058,0.695l-0.068-0.74l0.561-0.926l0.589,0.621l0.599,0.854l-1.083,0.24l0.493,0.971l0.755-0.396l-0.092-0.311l0.562-0.378
			l0.332-1.544c0.41,0.916,0.967,1.758,1.653,2.49l-5.078,5.008c-2.412-2.51-4.037-5.778-4.442-9.41l1.041,1.093l0.977-0.016
			L54.042,55.684z M48.845,34.989l5.068,5.009c-1.058,1.151-1.96,2.438-2.688,3.835l-0.359-0.023l-0.709,0.228l-0.249-0.026
			l-0.759,0.695l0.967-0.151l0.86-0.214c-0.06,0.108-0.11,0.214-0.156,0.324l-0.755,0.462h-0.354l-1.119,0.84l-1.068-0.092
			l-1.57,2.873l0.313,0.575l-0.846,0.927l-0.129,1.209h-3.208C42.193,45.101,44.744,39.321,48.845,34.989 M42.29,72.814l1.611,0.935
			l0.327,0.217l-1.16,1.16c-0.543-0.554-1.073-1.138-1.584-1.728L42.29,72.814z M40.684,52.862c0.027,0.69,0.083,1.372,0.166,2.05
			l-0.884,0.195l-0.179,0.884l-1.828,2.295L38,61.449l-1.874,0.619l-1.03,0.012c-0.953-2.921-1.506-6.014-1.593-9.218H40.684z
			 M33.599,62.032l-0.423-0.078l-0.405-0.445l-2.007-0.172l0.621,0.843l-1.864-0.353l0.492-0.442l-0.46-0.443l-1.339,0.574
			l-0.488,0.887l0.189,2.015l1.546,3.669l0.746,1.148l0.423,0.156l-1.169-2.195l-0.258-1.121l0.262-0.276l-0.161-0.614l0.704,0.094
			l1.077,1.619l0.271,0.105l-0.028-1.177l0.437,0.249l0.102,0.642l1.132,0.3l0.479-0.336l0.166,0.11l-0.023,0.862l0.502,0.613
			l0.612,0.133l1.321,2.226l0.811,0.222l0.257-1.041c1.4,2.289,3.062,4.41,4.944,6.316L37,81.129
			C29.728,73.8,25.157,63.854,24.909,52.862h7.171C32.167,56.045,32.696,59.118,33.599,62.032 M36.693,22.978l5.068,5.013
			c-5.906,6.125-9.575,14.383-9.69,23.47h-7.167C25.014,40.417,29.488,30.391,36.693,22.978 M88.631,20.393l-0.442-0.695
			l-0.93-0.463l-0.737,0.552l0.939,0.49l1.05,0.751L88.631,20.393z M84.281,40.401l0.027,0.553l1.248-0.369l0.377-0.752
			l-0.856-1.112l0.451-0.676l1.165,0.816l0.211-0.169l-0.23-0.167l-0.262-0.488l0.479-0.274l-0.47-0.6l-1.082,0.545l-0.386,0.649
			l-0.216,0.591l0.482,0.792l-0.179,0.375L84.281,40.401z M32.407,72.217l0.083-0.322l-0.64-1.381l-0.769-0.285L32.407,72.217z
			 M61.739,45.559c0,1.2,0.736,2.03,2.067,2.758c0,0-0.005-0.202-0.019-0.532l-0.833-0.829l0.442-0.794l0.364-0.104
			c-0.022-1.385-0.055-2.939-0.055-3.155L63.63,42.91C62.411,43.578,61.739,44.396,61.739,45.559"/>
		<path fill="#0093D5" d="M69.753,76.3c2.256,1.128,4.332,2.685,5.192,5.63c0.387-4.885-2.384-7.006-5.132-8.429
			C69.822,73.505,69.749,76.3,69.753,76.3"/>
		<path fill="#0093D5" d="M84.719,26.731c0-4.435-3.254-9.358-11.242-11.093c-0.584-0.132-1.482-0.223-2.426-0.283
			c-0.018,0.672-0.06,2.203-0.06,2.203c-0.014,0.481-0.046,2.258-0.06,2.64c0.741,0.063,1.284,0.157,1.533,0.216
			c4.64,1.091,6.301,3.723,6.301,6.318c0,4.215-3.65,5.8-8.124,7.002c-0.489,0.133-0.981,0.255-1.488,0.382
			c-1.353,0.335-2.757,0.656-4.134,1.021c-0.492,0.136-0.984,0.272-1.468,0.419c-4.967,1.496-9.234,3.857-9.234,9.924
			c0,6.003,4.865,8.251,9.621,9.695c-0.037-1.726-0.065-3.466-0.097-5.207c-2.104-0.972-3.582-2.247-3.582-4.41
			c0-2.101,1.35-3.371,3.407-4.292c0.456-0.203,0.943-0.394,1.463-0.567c1.188-0.398,2.514-0.734,3.913-1.069
			c0.483-0.113,0.976-0.231,1.478-0.351C77.215,37.673,84.719,35.602,84.719,26.731"/>
		<path fill="#0093D5" d="M60.671,69.091c0.013,2.427,1.818,3.747,3.623,4.745c0-0.404-0.078-4.161-0.083-4.225
			c0.045-0.752,0.778-1.197,1.372-1.475c0.866-0.406,1.754-0.703,2.877-1.086c0.529-0.185,0.995-0.363,1.506-0.516
			c3.632-1.082,7.82-2.458,7.82-6.822c0-4.375-3.595-6.162-7.531-7.51c-0.032,1.395-0.073,3.423-0.092,4.829
			c1.657,0.649,2.762,1.432,2.762,2.682c0,1.556-1.69,2.46-2.891,2.917c-0.498,0.188-1.252,0.439-1.468,0.503
			c-0.962,0.3-2.003,0.644-2.974,0.995c-0.511,0.188-1.003,0.396-1.468,0.628C62.42,65.62,60.657,66.882,60.671,69.091"/>
		<path fill="#0093D5" d="M63.129,16.047c-2.412,0.684-3.835,1.582-4.374,1.761c-1.57,0.514-3.775,0.599-6.048,3.057
			c-0.405,0.433-1.395,1.667-2.095,2.668c-0.686,0.978-0.717,2.555-1.224,3.399c-0.727,1.225-0.557,1.929-0.557,1.929l0.014,0.037
			c-0.014,0.147-0.162,0.799-0.833,1.538c-0.76,0.832-1.768,1.296-2.955,1.107c1.035,0.509,2.467-0.207,2.467-0.207
			s-0.262,0.778-0.539,2.042c1.165-2.605,2.232-3.561,2.559-3.828c0.511,0.12,1.542,0.072,3.458-1.02
			c2.191-1.239,5.459-3.257,6.384-4.528c0.999-1.381,2.371-2.287,3.862-2.876C63.208,19.205,63.166,17.493,63.129,16.047
			 M53.624,24.554L52.5,24.793l1.662-2.538l1.574,0.05L53.624,24.554z"/>
		<path fill="#0093D5" d="M67.622,68.787c-0.202,0.068-0.76,0.309-1.091,0.419c-0.364,0.138-0.828,0.313-0.828,0.446
			c0,0.037,0.34,18.813,0.34,19.224c0,3.866,2.003,3.89,2.003,0c0-0.271,0.395-20.356,0.395-20.356S67.967,68.667,67.622,68.787"/>
		<path fill="#0093D5" d="M65.564,62.593c0.622-0.211,1.233-0.397,1.818-0.575c0.429-0.131,0.833-0.254,1.202-0.375
			c0.022-1.181,0.368-17.521,0.423-20.496c-1.482,0.361-2.775,0.71-3.839,1.093C65.215,44.472,65.528,60.811,65.564,62.593"/>
		<path fill="#0093D5" d="M67.222,0.005c-5.598,0-3.218,8.205-2.776,10.879c0.028,0.123,0.46,18.536,0.544,22.759
			c0.846-0.223,1.698-0.426,2.509-0.622c0.593-0.147,1.155-0.285,1.694-0.418c0.083-4.07,0.492-21.642,0.506-21.749
			C70.039,7.992,72.971,0.005,67.222,0.005"/>
		<polyline fill="#0093D5" points="158.67,29.689 158.587,29.689 153.846,55.267 147.346,55.267 141.27,24.052 146.435,24.052 
			150.655,48.114 150.739,48.114 155.269,24.052 161.984,24.052 166.473,48.114 166.556,48.114 170.946,24.052 175.942,24.052 
			169.741,55.267 163.158,55.267 		"/>
		<path fill="#0093D5" d="M185.129,31.878c4.521,0,9.741,2.46,9.741,11.854c0,9.66-5.22,11.893-9.741,11.893
			c-4.524,0-9.776-2.232-9.776-11.893C175.353,34.338,180.604,31.878,185.129,31.878 M185.129,51.688
			c3.443,0,4.227-4.116,4.227-7.957c0-3.848-0.781-7.916-4.227-7.916c-3.447,0-4.262,4.067-4.262,7.916
			C180.867,47.573,181.682,51.688,185.129,51.688"/>
		<path fill="#0093D5" d="M198.186,36.035c0-1.43-0.053-2.771-0.176-3.803h4.825c0.04,1.388,0.17,2.817,0.17,4.207h0.097
			c0.645-1.788,2.318-4.562,5.639-4.562c0.342,0,0.6,0.09,0.902,0.136v5.188c-0.47-0.137-0.949-0.226-1.511-0.226
			c-2.194,0-4.61,1.385-4.61,5.68V55.27h-5.336"/>
		<rect x="213.012" y="21.728" fill="#0093D5" width="5.336" height="33.54"/>
		<path fill="#0093D5" d="M240.648,21.723v29.605c0,1.658,0.053,3.087,0.176,3.938h-5c-0.092-0.672-0.17-2.014-0.17-3.579h-0.129
			c-0.871,1.969-2.459,3.936-5.901,3.936c-5.524,0-7.798-5.457-7.798-11.851c0-7.512,2.887-11.895,7.665-11.895
			c3.185,0,4.956,1.876,5.727,3.667h0.093V21.723 M231.083,51.552c3.146,0,4.228-3.535,4.228-7.869c0-4.473-1.211-7.738-4.146-7.738
			c-2.965,0-4,2.997-4,7.605C227.163,48.868,227.98,51.552,231.083,51.552"/>
		<polyline fill="#0093D5" points="258.248,24.052 263.766,24.052 263.766,36.752 272.688,36.752 272.688,24.052 278.199,24.052 
			278.199,55.267 272.688,55.267 272.688,41.497 263.766,41.497 263.766,55.267 258.248,55.267 		"/>
		<path fill="#0093D5" d="M298.664,54.146c-1.119,0.497-3.441,1.473-6.635,1.473c-7.156,0-10.25-5.321-10.25-11.533
			c0-6.886,3.479-12.212,9.135-12.212c4.771,0,8.869,2.907,8.869,12.3v1.072h-12.844c0,3.938,1.51,6.305,5.653,6.305
			c3.271,0,4.818-1.025,5.813-1.787 M294.617,41.761c0-4.071-1.301-6.129-3.703-6.129c-2.805,0-3.975,3.084-3.975,6.129H294.617z"/>
		<path fill="#0093D5" d="M304.57,33.577c1.514-0.716,3.621-1.699,7.02-1.699c6.891,0,8.49,3.487,8.49,9.257v10.061
			c0,1.657,0.174,3.176,0.307,4.071h-4.824c-0.266-0.895-0.303-2.014-0.303-3.13h-0.094c-1.334,1.874-3.018,3.487-6.205,3.487
			c-3.447,0-6.633-2.458-6.633-6.749c0-6.265,4.912-7.83,11.684-7.83h1.068v-0.849c0-2.283-1.068-4.38-4.129-4.38
			c-2.68,0-5.051,1.339-6.082,2.232 M315.08,43.996h-0.48c-4.565,0-7.274,0.985-7.274,4.333c0,2.108,1.334,3.536,3.405,3.536
			c3.189,0,4.351-2.459,4.351-6.572L315.08,43.996L315.08,43.996z"/>
		<rect x="325.336" y="21.728" fill="#0093D5" width="5.346" height="33.54"/>
		<path fill="#0093D5" d="M337.359,27.494l5.332-1.703v6.442h4.436v4.071h-4.436v11.938c0,2.463,0.869,3.177,2.42,3.177
			c0.947,0,1.633-0.269,2.016-0.495v3.938c-0.814,0.405-1.969,0.762-3.566,0.762c-3.965,0-6.201-1.88-6.201-6.709V36.304h-3.534
			v-4.071h3.534"/>
		<path fill="#0093D5" d="M349.895,21.728h5.34v13.458h0.134c0.948-1.429,2.194-3.307,5.51-3.307c5.041,0,6.552,3.89,6.552,8.539
			v14.85h-5.345v-13.82c0-3.535-0.864-5.009-3.062-5.009c-2.805,0-3.789,2.458-3.789,5.412v13.416h-5.34"/>
		<path fill="#0093D5" d="M153.026,63.57c6.256,0,11.982,4.834,11.982,16.058s-5.727,16.052-11.982,16.052
			c-6.246,0-11.982-4.828-11.982-16.052S146.78,63.57,153.026,63.57 M153.026,91.301c3.499,0,6.297-3.088,6.297-11.673
			s-2.798-11.669-6.297-11.669c-3.489,0-6.293,3.084-6.293,11.669S149.537,91.301,153.026,91.301"/>
		<path fill="#0093D5" d="M168.604,76.005c0-1.433-0.047-2.771-0.175-3.803h4.823c0.046,1.391,0.18,2.817,0.18,4.202h0.088
			c0.648-1.784,2.324-4.557,5.644-4.557c0.341,0,0.598,0.082,0.897,0.129v5.191c-0.465-0.139-0.944-0.221-1.505-0.221
			c-2.196,0-4.617,1.382-4.617,5.672v12.617h-5.335"/>
		<path fill="#0093D5" d="M183.38,98.813c1.252,0.721,3.752,1.961,6.552,1.961c5.041,0,5.854-3.608,5.854-7.234v-2.191h-0.082
			c-0.865,1.786-2.371,3.896-5.861,3.896c-3.097,0-7.756-2.149-7.756-11.453c0-6.353,2.195-11.94,8.015-11.94
			c3.231,0,4.737,1.924,5.864,3.932h0.171c0-1.206,0.129-2.366,0.176-3.572h4.822c-0.087,1.206-0.175,2.413-0.175,3.618v17
			c0,7.194-2.112,12.342-10.256,12.342c-3.526,0-6.329-0.938-7.628-1.438 M191.689,91.164c3.365,0,4.689-2.505,4.689-7.734
			c0-4.828-1.758-7.425-4.299-7.379c-2.809,0.041-3.885,2.721-3.885,7.426C188.195,88.885,189.876,91.164,191.689,91.164"/>
		<path fill="#0093D5" d="M206.736,73.553c1.511-0.72,3.623-1.705,7.025-1.705c6.896,0,8.487,3.489,8.487,9.258v10.06
			c0,1.655,0.175,3.176,0.31,4.073h-4.83c-0.261-0.897-0.303-2.012-0.303-3.135h-0.093c-1.331,1.877-3.017,3.488-6.2,3.488
			c-3.447,0-6.638-2.458-6.638-6.749c0-6.265,4.916-7.829,11.683-7.829h1.073v-0.852c0-2.279-1.073-4.378-4.134-4.378
			c-2.676,0-5.047,1.34-6.076,2.241 M217.252,83.964h-0.475c-4.566,0-7.282,0.985-7.282,4.347c0,2.1,1.334,3.525,3.401,3.525
			c3.189,0,4.354-2.458,4.354-6.574L217.252,83.964L217.252,83.964z"/>
		<path fill="#0093D5" d="M227.637,76.005c0-1.433-0.046-2.771-0.176-3.803h4.999c0.052,1.165,0.181,2.37,0.181,3.53h0.119h-0.042
			c0.777-1.381,2.293-3.885,5.91-3.885c5.033,0,6.539,3.885,6.539,8.539v14.85h-5.336V81.414c0-3.531-0.865-5.01-3.062-5.01
			c-2.799,0-3.797,2.464-3.797,5.414v13.418h-5.336"/>
		<path fill="#0093D5" d="M249.988,62.414h5.516v5.455h-5.516 M250.072,72.202h5.336v23.034h-5.336V72.202z"/>
		<polyline fill="#0093D5" points="260.393,90.455 269.871,76.404 260.691,76.404 260.691,72.202 275.205,72.202 275.205,76.949 
			265.898,91.029 275.51,91.029 275.51,95.236 260.393,95.236 		"/>
		<path fill="#0093D5" d="M280.572,73.553c1.502-0.72,3.615-1.705,7.016-1.705c6.891,0,8.494,3.489,8.494,9.258v10.06
			c0,1.655,0.17,3.176,0.299,4.073h-4.82c-0.271-0.897-0.309-2.012-0.309-3.135h-0.086c-1.332,1.877-3.016,3.488-6.207,3.488
			c-3.441,0-6.633-2.458-6.633-6.749c0-6.265,4.918-7.829,11.68-7.829h1.072v-0.852c0-2.279-1.072-4.378-4.129-4.378
			c-2.676,0-5.047,1.34-6.076,2.241 M291.078,83.964h-0.475c-4.566,0-7.277,0.985-7.277,4.347c0,2.1,1.33,3.525,3.396,3.525
			c3.194,0,4.354-2.458,4.354-6.574L291.078,83.964L291.078,83.964z"/>
		<path fill="#0093D5" d="M302.217,67.466l5.346-1.7v6.441h4.431v4.068h-4.431v11.94c0,2.458,0.865,3.168,2.416,3.168
			c0.949,0,1.635-0.259,2.015-0.483v3.937c-0.808,0.405-1.974,0.755-3.563,0.755c-3.957,0-6.211-1.873-6.211-6.707V76.275h-3.533
			v-4.068h3.533"/>
		<path fill="#0093D5" d="M315.678,62.414h5.51v5.455h-5.51 M316.359,72.202h5.334v23.034h-5.334V72.202z"/>
		<path fill="#0093D5" d="M335.574,71.848c4.52,0,9.734,2.459,9.734,11.85c0,9.658-5.215,11.896-9.734,11.896
			c-4.525,0-9.783-2.238-9.783-11.896C325.791,74.307,331.049,71.848,335.574,71.848 M335.574,91.661
			c3.441,0,4.225-4.116,4.225-7.964c0-3.85-0.783-7.913-4.225-7.913c-3.449,0-4.264,4.063-4.264,7.913
			C331.311,87.545,332.125,91.661,335.574,91.661"/>
		<path fill="#0093D5" d="M349.963,76.005c0-1.433-0.045-2.771-0.18-3.803h5c0.045,1.165,0.18,2.37,0.18,3.53h0.125h-0.043
			c0.777-1.381,2.287-3.885,5.906-3.885c5.035,0,6.545,3.885,6.545,8.539v14.85h-5.334V81.414c0-3.531-0.871-5.01-3.07-5.01
			c-2.799,0-3.789,2.464-3.789,5.414v13.418h-5.34"/>
	</g>
</g>
</svg>
