<svg xmlns="http://www.w3.org/2000/svg" viewBox="0 0 489 142.72" class="logo svg replaced-svg">
  <defs>
    <style>.cls-1{fill:#078dc8;}</style>
  </defs>
  <title>Asset 3</title>
  <g id="Layer_2" data-name="Layer 2">
    <g id="Layer_2-2" data-name="Layer 2">
      <path class="cls-1" d="M197.45,52.61l-.51.48-1,1-1.14,1.1a3.24,3.24,0,0,1-2.23,1.1,19.32,19.32,0,0,1-3.57-.48,10.87,10.87,0,0,1-2.91-.86,2.16,2.16,0,0,1-1-2c0-2.08,1.09-4.34,3.27-6.76a17.3,17.3,0,0,1,7.33-5l-.48-2.85,3.33-4.43L201,49.35l.14.93a3.3,3.3,0,0,0,1.13,2.45,7.66,7.66,0,0,0,3.57.54c1,0,1.51.34,1.51,1v5.6q0,1-2.61,1a6.76,6.76,0,0,1-4.22-1.13,7,7,0,0,1-2.16-3.81l-.55-2.1C197.71,53.59,197.61,53.19,197.45,52.61Zm-4.77-22a46.15,46.15,0,0,0-5.59-4.15,54,54,0,0,0,3.81-5.67A23.42,23.42,0,0,0,194.81,24a37.27,37.27,0,0,0,2.81-4A32,32,0,0,0,203,24.1a29.48,29.48,0,0,0-2.58,4.18c-.18.39-.48,1-.89,1.72l-.86-.79a30.22,30.22,0,0,0-3.29-2.61A24.89,24.89,0,0,0,192.68,30.62Zm-2.5,18.08c0,.14.16.23.41.28l2.16.41a16.41,16.41,0,0,0,3,.31.93.93,0,0,0,.91-.43,4.19,4.19,0,0,0,.23-1.7c0-1.9-.3-2.85-.89-2.85a5.3,5.3,0,0,0-2.27.81,8.75,8.75,0,0,0-2.3,1.7l-1,1C190.23,48.46,190.15,48.61,190.18,48.7Z"></path>
      <path class="cls-1" d="M203.22,59.79V54.36c0-.73.63-1.09,1.88-1.09h1.14a11.6,11.6,0,0,0,4.78-.78,7.4,7.4,0,0,0,3-2.83q4-6.1,6.22-6.11c.93,0,2.1.74,3.5,2.2a52.9,52.9,0,0,0,6.34,6.09,7,7,0,0,0,4.12,1.43H237c1,0,1.51.34,1.51,1v5.6q0,1-2.61,1a10,10,0,0,1-6.17-2,4.8,4.8,0,0,0-1.72-1c-.34,0-.62.68-.82,2.06q-.45,2.88-2.34,2.88-1.47,0-6.31-3.6l-2.64-2a5.73,5.73,0,0,0-2.54-1.37c-.28,0-.58.2-.93.61l-1,1.14a10.62,10.62,0,0,1-2.86,2.54,7,7,0,0,1-3.21.65C203.94,60.85,203.22,60.49,203.22,59.79Zm19.49-5.12c.57,0,.85-.42.85-1.27a7.71,7.71,0,0,0-1-3.84c-.67-1.21-1.38-1.82-2.11-1.82a3.46,3.46,0,0,0-2,1.22c-.84.81-1.25,1.45-1.25,1.9S218,52,219.5,53.09A7.28,7.28,0,0,0,222.71,54.67Z"></path>
      <path class="cls-1" d="M266.12,53.27h6c1,0,1.51.34,1.51,1v5.6c0,.66-1.07,1-3.22,1q-3.78,0-11.91-.55c-3-.2-5-.3-6.14-.3-1.47,0-2.64,0-3.5.1l-4.74.44a63.44,63.44,0,0,1-6.49.28c-2.15,0-3.22-.36-3.22-1.06V54.36c0-.73.48-1.09,1.44-1.09l2.09-.07a6.64,6.64,0,0,0,4.7-1.65q1.86-1.65,1.86-7v-.83q0-9-3.4-22.54a10.1,10.1,0,0,0,4.32-5A18.32,18.32,0,0,0,249.34,22a6.53,6.53,0,0,0-2.48,5,8.5,8.5,0,0,0,.21,1.72l.55,3.05a47.86,47.86,0,0,1,.72,8.86c0,.25-.05,1.4-.14,3.46,0,1-.07,1.56-.07,1.79l.73-.59q8.88-7.12,13.31-7.13A6.45,6.45,0,0,1,267,40.24a6.89,6.89,0,0,1,2,5A14.47,14.47,0,0,1,266.12,53.27ZM265,47.91a7.88,7.88,0,0,0-6-2.81q-5.41,0-11.11,5.87c-1.15,1.16-1.72,1.93-1.72,2.3s.19.37.58.37a32.7,32.7,0,0,0,9.59-1.71A31.34,31.34,0,0,0,265,47.91Zm-2.12-20.69a29.12,29.12,0,0,0-3.92,5.56,23.67,23.67,0,0,0-5.66-4.05,51.59,51.59,0,0,0,4-5.49A34.08,34.08,0,0,0,262.86,27.22Z"></path>
      <path class="cls-1" d="M269.55,59.79V54.36c0-.73.48-1.09,1.44-1.09h3.5q3.12,0,5.9-3.68c.48-.64.84-1,1.07-1s.46.24.58.72l.44,1.68a3.53,3.53,0,0,0,.88,1.77,2.54,2.54,0,0,0,1.7.47h2.67c1,0,1.52.34,1.52,1v5.6c0,.25-.25.47-.74.67a4.54,4.54,0,0,1-1.63.29q-4.42,0-5.94-3.26c-.3-.69-.56-1-.79-1s-.61.27-1,.82a8.84,8.84,0,0,1-3,2.75,9.2,9.2,0,0,1-4.05.75,4.12,4.12,0,0,1-.51,0C270.23,60.76,269.55,60.4,269.55,59.79ZM283.14,35.7a31.17,31.17,0,0,0-3.92,5.56,24.52,24.52,0,0,0-5.62-4,60.07,60.07,0,0,0,3.94-5.49A36.42,36.42,0,0,0,283.14,35.7Z"></path>
      <path class="cls-1" d="M308.74,54.53l-.49.45-1.13,1.1q-2.26,2.13-3.36,2.13t-4.67-2a7.89,7.89,0,0,0-3-1.2c-.61,0-1.27.56-1.95,1.68a10,10,0,0,1-2.95,3.43,8.67,8.67,0,0,1-4.19.76c-1.24,0-1.85-.36-1.85-1.06V54.36c0-.73.47-1.09,1.4-1.09a10.3,10.3,0,0,1,1.14,0q3.7,0,5.14-.91T296,48a26.07,26.07,0,0,1,3.76-6,4.81,4.81,0,0,1,3.55-1.56q2.64,0,3.74,2.88T308.74,54.53ZM305,50.83a5.52,5.52,0,0,0-1.3-3.35,3.51,3.51,0,0,0-2.58-1.7,2.28,2.28,0,0,0-1.59,1,3.07,3.07,0,0,0-.84,2c0,.66.56,1.32,1.68,2a6.57,6.57,0,0,0,3.36,1C304.54,51.72,305,51.42,305,50.83Z"></path>
      <path class="cls-1" d="M12.35,107.27l-.51.48-1,1-1.13,1.1a3.26,3.26,0,0,1-2.23,1.1A19.11,19.11,0,0,1,4,110.43,10.86,10.86,0,0,1,1,109.57a2.16,2.16,0,0,1-1-2c0-2.08,1.09-4.34,3.28-6.76a17.21,17.21,0,0,1,7.32-5l-.48-2.85,3.33-4.43L15.85,104l.14.93a3.3,3.3,0,0,0,1.13,2.45,7.66,7.66,0,0,0,3.57.54c1,0,1.51.34,1.51,1v5.6q0,1-2.61,1a6.76,6.76,0,0,1-4.22-1.13,7,7,0,0,1-2.16-3.81l-.55-2.09C12.62,108.25,12.51,107.85,12.35,107.27Zm-4.77-22A45.38,45.38,0,0,0,2,81.13,54,54,0,0,0,5.8,75.46a23.42,23.42,0,0,0,3.91,3.23,37.27,37.27,0,0,0,2.81-4,32.43,32.43,0,0,0,5.36,4.05,29.48,29.48,0,0,0-2.58,4.18c-.18.39-.48,1-.89,1.72l-.86-.79a29.28,29.28,0,0,0-3.29-2.61A24.89,24.89,0,0,0,7.58,85.28Zm-2.5,18.08c0,.14.16.23.41.28l2.16.41a16.51,16.51,0,0,0,3,.31.94.94,0,0,0,.91-.43,4.24,4.24,0,0,0,.22-1.7c0-1.9-.3-2.85-.89-2.85a5.34,5.34,0,0,0-2.27.81,9,9,0,0,0-2.3,1.7l-1,1C5.14,103.12,5.06,103.27,5.08,103.36Z"></path>
      <path class="cls-1" d="M18.12,114.45V109c0-.73.48-1.09,1.44-1.09h3.5q3.12,0,5.9-3.68c.48-.64.84-1,1.07-1s.46.24.58.72l.45,1.68a3.54,3.54,0,0,0,.87,1.77,2.54,2.54,0,0,0,1.7.47h2.68c1,0,1.51.34,1.51,1v5.6c0,.25-.25.47-.74.67a4.5,4.5,0,0,1-1.63.29q-4.43,0-5.94-3.26c-.3-.69-.56-1-.79-1s-.6.27-1,.82a8.84,8.84,0,0,1-3,2.75,9.2,9.2,0,0,1-4,.75,4.12,4.12,0,0,1-.51,0C18.8,115.42,18.12,115.06,18.12,114.45Zm7.48,15.78a37.67,37.67,0,0,0-5.05-3.77,45.59,45.59,0,0,0,3.54-5,14.8,14.8,0,0,0,3.47,2.92A28.89,28.89,0,0,0,30,120.69a29.62,29.62,0,0,0,4.8,3.71,29.3,29.3,0,0,0-3.16,5.21,25.11,25.11,0,0,0-3.74-3A24,24,0,0,0,25.6,130.23Z"></path>
      <path class="cls-1" d="M33.73,114.45V109c0-.73.63-1.09,1.89-1.09h1.13a11.65,11.65,0,0,0,4.79-.78,7.4,7.4,0,0,0,3-2.83q4-6.1,6.21-6.11c.94,0,2.11.74,3.5,2.2a52.75,52.75,0,0,0,6.35,6.09,7,7,0,0,0,4.12,1.43H67.5c1,0,1.51.34,1.51,1v5.6q0,1-2.61,1a10.06,10.06,0,0,1-6.18-2,4.71,4.71,0,0,0-1.71-1c-.35,0-.62.68-.83,2.06-.29,1.92-1.07,2.88-2.33,2.88-1,0-3.09-1.2-6.31-3.6l-2.65-2a5.72,5.72,0,0,0-2.53-1.37c-.28,0-.59.2-.93.62l-1,1.13a10.63,10.63,0,0,1-2.87,2.54,7,7,0,0,1-3.21.65C34.45,115.51,33.73,115.15,33.73,114.45Zm19.49-5.12c.57,0,.86-.42.86-1.27a7.82,7.82,0,0,0-1-3.84c-.68-1.21-1.38-1.82-2.11-1.82a3.46,3.46,0,0,0-2,1.22c-.84.81-1.26,1.45-1.26,1.9s.76,1.18,2.28,2.23A7.37,7.37,0,0,0,53.22,109.33Z"></path>
      <path class="cls-1" d="M71.79,75.33c.41-.51.72-.88.92-1.14q1.65-2,2.61-3.33a18.63,18.63,0,0,0,4.39,6.35,6.07,6.07,0,0,0-2.09,4.53,14.26,14.26,0,0,0,.28,2.71l.58,3.09a92.54,92.54,0,0,1,1.85,15.34,20.56,20.56,0,0,1-3,10.5q-3.23,2.13-10.46,2.13c-1.31,0-2-.36-2-1.06V109c0-.73.47-1.09,1.41-1.09h4.39q5.22,0,5.22-4.5a16.73,16.73,0,0,0-.28-2.64l-.72-4.46q-1.09-6.9-1.44-10.71l-.34-3.81A23,23,0,0,0,71.79,75.33Z"></path>
      <path class="cls-1" d="M85.69,78.45l4.73-5.39,2.13,28.79q.27,3.47,1.77,4.77c1,.87,2.75,1.31,5.26,1.31H100c.74,0,1.1.34,1.1,1v5.6c0,.2-.22.42-.67.63a2.93,2.93,0,0,1-1.32.33,11.85,11.85,0,0,1-3.69-.22A10.73,10.73,0,0,1,92,114.21a5.43,5.43,0,0,1-2.37-2.94,27.93,27.93,0,0,1-1.1-6.5L87.78,96Q87.23,89.82,85.69,78.45Z"></path>
      <path class="cls-1" d="M109,106a12.23,12.23,0,0,0-4.77-2A9.94,9.94,0,0,1,107.56,98a9.44,9.44,0,0,1,6.33-2.2,9,9,0,0,1,5.27,1.48,4.3,4.3,0,0,1,2.14,3.64q0,2.53-3.91,4.28a5.51,5.51,0,0,0,3.16,2.11,24.45,24.45,0,0,0,6.38.61h.38c.73,0,1.1.34,1.1,1v5.6c0,.2-.22.42-.67.63a3,3,0,0,1-1.32.33,8.77,8.77,0,0,1-4.88-.55,22.69,22.69,0,0,1-5.52-3.88c-1.17-1-2-1.58-2.5-1.58a4.13,4.13,0,0,0-2.06.83,51,51,0,0,1-7.57,4.48,9.1,9.1,0,0,1-4.86.7c-1.35,0-2-.36-2-1.06V109c0-.73.48-1.09,1.44-1.09a31.94,31.94,0,0,1,3.67-.11C105.49,107.82,107.78,107.2,109,106Z"></path>
      <path class="cls-1" d="M131.22,75.33l.93-1.14q1.65-2,2.61-3.33a18.49,18.49,0,0,0,4.39,6.35,6,6,0,0,0-2.09,4.53,15.05,15.05,0,0,0,.27,2.71l.58,3.09a91.7,91.7,0,0,1,1.86,15.34,20.66,20.66,0,0,1-3,10.5q-3.23,2.13-10.47,2.13c-1.3,0-2-.36-2-1.06V109c0-.73.47-1.09,1.41-1.09h4.39q5.22,0,5.22-4.5a16.54,16.54,0,0,0-.27-2.64l-.73-4.46q-1.09-6.9-1.44-10.71l-.34-3.81A22.64,22.64,0,0,0,131.22,75.33Z"></path>
      <path class="cls-1" d="M145.12,80.1l5.15-6,0,2.1q0,5.79.35,10.74l.37,4.6.31,4.36.38,4.94c.07,1.19.1,2.22.1,3.08a23.92,23.92,0,0,1-1.54,8.79c-.87,2.22-1.72,3.33-2.54,3.33-.25,0-.38-.31-.38-.93,0-.18,0-.44,0-.79a33.67,33.67,0,0,0,.24-4.29c0-1.37-.11-3.1-.31-5.18-.19-1.9-.33-3.45-.45-4.67l-.31-3.39-.58-5.46Q145.12,83.84,145.12,80.1Z"></path>
      <path class="cls-1" d="M181.19,107.27l-.52.48-1,1-1.13,1.1a3.26,3.26,0,0,1-2.23,1.1,19.11,19.11,0,0,1-3.57-.48,10.86,10.86,0,0,1-2.92-.86,2.16,2.16,0,0,1-1-2c0-2.08,1.09-4.34,3.28-6.76a17.24,17.24,0,0,1,7.33-5L179,92.93l3.33-4.43L184.69,104l.13.93a3.3,3.3,0,0,0,1.14,2.45,7.64,7.64,0,0,0,3.56.54c1,0,1.51.34,1.51,1v5.6c0,.64-.87,1-2.6,1a6.79,6.79,0,0,1-4.23-1.13,7,7,0,0,1-2.16-3.81l-.55-2.09C181.45,108.25,181.34,107.85,181.19,107.27Zm-4.77-22a46.17,46.17,0,0,0-5.6-4.15,54,54,0,0,0,3.81-5.67,23.42,23.42,0,0,0,3.91,3.23,37.15,37.15,0,0,0,2.82-4,31.9,31.9,0,0,0,5.35,4.05,29.5,29.5,0,0,0-2.57,4.18c-.19.39-.48,1-.9,1.72l-.85-.79a30.2,30.2,0,0,0-3.3-2.61A24.19,24.19,0,0,0,176.42,85.28Zm-2.51,18.08c0,.14.16.23.41.28l2.16.41a16.51,16.51,0,0,0,3,.31.94.94,0,0,0,.91-.43,4.24,4.24,0,0,0,.22-1.7c0-1.9-.3-2.85-.89-2.85a5.34,5.34,0,0,0-2.27.81,8.73,8.73,0,0,0-2.29,1.7l-1,1C174,103.12,173.89,103.27,173.91,103.36Z"></path>
      <path class="cls-1" d="M192.23,107.93a22.37,22.37,0,0,0,6-1.31l3.06-1,3-1.1q1.41-.51,3.57-1.2a22.2,22.2,0,0,0-9.78-2.74,13.61,13.61,0,0,0-4.46.68l-1.07.38a1.69,1.69,0,0,1-.55.1.48.48,0,0,1-.55-.54,9.54,9.54,0,0,1,1.65-3.37q2.61-4.15,6.25-4.15a13.81,13.81,0,0,1,5.08,1.27l3.43,1.44a37.7,37.7,0,0,0,14.82,3c1.44,0,3.14-.07,5.08-.21l1.06-.1L226.52,106h-6a1.76,1.76,0,0,0,2,2h9.95c1,0,1.51.34,1.51,1v5.6c0,.2-.22.42-.67.63a2.93,2.93,0,0,1-1.32.33h-9.78a7,7,0,0,1-4.48-1.36,4.34,4.34,0,0,1-1.69-3.58,7.27,7.27,0,0,1,1.16-3.95l.31-.48-.79.1a40,40,0,0,0-14.89,5l-2.51,1.38a24.26,24.26,0,0,1-5.14,2.26,19.22,19.22,0,0,1-5.15.62c-1.37,0-2.06-.36-2.06-1.06V109c0-.73.47-1.09,1.41-1.09Z"></path>
      <path class="cls-1" d="M249.54,115.51q-4.66,0-6.93-2.68l-1.27-1.47a.85.85,0,0,0-.62-.38c-.23,0-.71.49-1.44,1.48-1.55,2-4,3.05-7.24,3.05-1.42,0-2.13-.36-2.13-1.06V109c0-.73.47-1.09,1.41-1.09l2,0q5.73,0,8-3.84c.3-.5.57-.76.82-.76s.52.24.66.72l.44,1.48c.48,1.62,1.92,2.44,4.33,2.44h5.14a62.31,62.31,0,0,1,11-11.17q5.28-4,9.13-4a7.17,7.17,0,0,1,7.24,7.24,12.52,12.52,0,0,1-1,4.44,10.56,10.56,0,0,1-2.23,3.73c-.12.09-.17.17-.17.24l0,.1a.35.35,0,0,0,.14,0,3.23,3.23,0,0,0,.75-.13l.76-.14.82-.14.86-.07.75-.1c.32,0,.82,0,1.48,0h1q1.47,0,1.47,1v5.6q0,1-3.63,1-5.46,0-14.38-.75c-.94-.09-1.56-.14-1.85-.14s-1.08,0-2.47.14l-3.13.14-4.56.44c-.34,0-1,.09-2.06.14l-.14.21-.92,2-.72,1.44c-.44.94-.87,1.41-1.31,1.41-.66,0-1-.45-1-1.34A8.65,8.65,0,0,1,249.54,115.51Zm7.17-7.28a37.14,37.14,0,0,0,11-1.71,39.73,39.73,0,0,0,5.61-2.23c1.78-.87,2.66-1.49,2.66-1.85,0-.55-.71-1.15-2.12-1.79a9.81,9.81,0,0,0-4-1,12.58,12.58,0,0,0-6.86,2.37A22.9,22.9,0,0,0,256.71,108.23Z"></path>
      <path class="cls-1" d="M287.53,75.33l.93-1.14c1.09-1.32,2-2.43,2.6-3.33a18.5,18.5,0,0,0,4.4,6.35,6,6,0,0,0-2.1,4.53,14.26,14.26,0,0,0,.28,2.71l.58,3.09a91.46,91.46,0,0,1,1.85,15.34,20.56,20.56,0,0,1-3,10.5q-3.23,2.13-10.46,2.13c-1.31,0-2-.36-2-1.06V109c0-.73.47-1.09,1.41-1.09h4.39q5.22,0,5.22-4.5a16.73,16.73,0,0,0-.28-2.64l-.72-4.46q-1.09-6.9-1.44-10.71l-.34-3.81A22.64,22.64,0,0,0,287.53,75.33Z"></path>
      <path class="cls-1" d="M301.43,80.1l5.14-6,0,2.1q0,5.79.34,10.74l.38,4.6.31,4.36.38,4.94c.06,1.19.1,2.22.1,3.08a23.92,23.92,0,0,1-1.55,8.79c-.87,2.22-1.71,3.33-2.53,3.33-.26,0-.38-.31-.38-.93,0-.18,0-.44,0-.79a33.67,33.67,0,0,0,.24-4.29c0-1.37-.1-3.1-.31-5.18-.18-1.9-.33-3.45-.44-4.67l-.31-3.39-.59-5.46Q301.43,83.84,301.43,80.1Z"></path>
      <path class="cls-1" d="M458.83,26.13c3.09,3.69,8.5,5.86,11.67,9.56-2.27-10.93-10.7-19.86-20.68-22C454.68,17.36,455.73,22.44,458.83,26.13ZM338.91,53.84c6.87-15,17.13-11.79,21.47-26-2.45,4.37-13.66,6.21-18.86,17.42,2.66-6.66,1.33-16.84,5.81-22.34C333.91,32.79,339.63,48.81,338.91,53.84Zm12.44,35.87c1.24,5.83-2.38,14.23,3.37,22.26-6-6.68-18.59-8.39-23.75-18.55,6.44,24.84,23.21,19.72,30.79,25.12C355.53,109.6,360.62,103.65,351.35,89.71Zm-1.93,15.6c-3.72-13.89,2.88-18.68-2.13-32-.52,7.51-5.53,11.17-2.15,24.89-6-11.63-15.18-16-17.85-23.93C327.48,96.06,345,99.29,349.42,105.31Zm26.9,23.28c-5.16-7.14-1.64-11.17-16.12-24.13,3.06,4.73-.1,10.68,9.67,19.94-9.56-5.64-22.75-3.23-29.1-10.76C351.69,134.52,370.88,126,376.32,128.59Zm70.11-4.19c9.77-9.26,6.6-15.21,9.67-19.94-14.49,13-11,17-16.12,24.13,5.44-2.6,24.63,5.93,35.54-15C469.17,121.17,456,118.76,446.43,124.4ZM461.57,112c5.76-8,2.14-16.43,3.37-22.26-9.26,13.94-4.17,19.89-10.4,28.83,7.58-5.4,24.35-.28,30.79-25.12C480.16,103.58,467.54,105.29,461.57,112Zm-23.14,17.6a71.68,71.68,0,0,0-15.84-2.37,38.5,38.5,0,0,0-14.44,2.45,38.52,38.52,0,0,0-14.45-2.45,71.85,71.85,0,0,0-15.84,2.37c-8.71,2.33-16.24,4.12-22.81.8,6.29,5.58,13.64,7.58,24.25,6.44,8.83-1,16-5.37,24.29-5.31h.32a44.75,44.75,0,0,0-13.73,10.67l4,.54s4.23-8.5,13.95-10.7c9.72,2.2,14,10.7,14,10.7l4-.54a44.63,44.63,0,0,0-13.72-10.67h.32c8.33-.06,15.45,4.35,24.29,5.31,10.61,1.14,17.95-.86,24.24-6.44C454.68,133.69,447.14,131.9,438.43,129.57ZM347.88,58.25c-3.59,6.89-9.17,8.48-8.58,22.71-3-12.65-10.21-17.35-10.12-25.43-5,21.08,8.37,23.59,11.81,32.42C340.48,75.29,348.57,72.74,347.88,58.25Zm5-16.28c-1.25,1.75-2.13,2.49-5.46,5.24a27.09,27.09,0,0,0-9.72,15.86c.35-7.73-4.43-18.84-1.25-26.94-12.3,17.36.7,27.77,1.16,34.05C340.81,58.08,348.14,58,352.9,42Zm125.67,21.1a27.08,27.08,0,0,0-9.71-15.86c-3.34-2.75-4.22-3.49-5.47-5.24,4.77,16,12.09,16.11,15.27,28.21.46-6.28,13.46-16.69,1.16-34.05C483,44.23,478.23,55.34,478.57,63.07ZM489,74.26c-2.67,8-11.89,12.3-17.84,23.93,3.37-13.72-1.63-17.38-2.15-24.89-5,13.33,1.58,18.12-2.13,32C471.3,99.29,488.82,96.06,489,74.26Zm-20.59-16c-.68,14.49,7.4,17,6.9,29.7,3.44-8.83,16.81-11.34,11.8-32.42C487.21,63.61,480,68.31,477,81,477.59,66.73,472,65.14,468.41,58.25ZM357.47,26.13c3.1-3.69,4.15-8.77,9-12.43-10,2.13-18.42,11.06-20.69,22C349,32,354.37,29.82,357.47,26.13Zm98.45,1.67c4.34,14.25,14.6,11.08,21.47,26-.72-5,5-21.05-8.43-31,4.49,5.5,3.16,15.68,5.82,22.34C469.57,34,458.37,32.17,455.92,27.8Zm-34.83,8.09a33.89,33.89,0,0,0-8.17-2.22c0,.6,0,1.21,0,1.82a31.74,31.74,0,0,1,7.54,2.08A4.78,4.78,0,0,0,421.09,35.89ZM419,18.25l.55-.49-1-.44-2.75-.05-.71.49-1.62-.13,0,.39a28.36,28.36,0,0,1,2.83.3l1.34-.12Zm-5.28,59.14c0-.47-.61-.92-1.53-1.35H412c0,.38,0,2.23-.06,3.14C413.1,78.67,413.73,78.13,413.73,77.39ZM382,42.54a7.48,7.48,0,0,1,.23-1,4.1,4.1,0,0,1-1.12.12Zm26.25,80.68A56,56,0,0,0,413.88,11.6c0,.11-.05.22-.07.33l-.3,1.47a53.94,53.94,0,0,1,32.58,15.24l-6.17,6.18.24-1.09-.81-.36-1.11-.06.23-.71-.75-2.53-1.53-1.68-4.83-2.55-.41.44-.88.26a14.45,14.45,0,0,1,2.56,8.11c0,.37,0,.74,0,1.1l2.39,3-1.12.26.74,1.12-2.11,2.11-.85-1.62a14.11,14.11,0,0,1-1.59,3.15l.47.44-6.5,6.5c-.39-.38-.8-.74-1.22-1.09-.63.29-1.26.56-1.91.81l.56.43-.34.33-.75.43-.29.76-.47-.48-1.37.46.37.6.95-.25.62,0,0-.33.48-.24.14-.29.85-.23.67,0,.39.35-2.58,2.58-.19-.28-2.69.45-.6.6-.6.07,1.68-1.6-.6-.3-1.56,2.09.46-.05,0,.77.57.22.11.82-.93-.19-1,.18-2.36-1.21s-.13,6.35-.19,9.54c5.58,1.88,11.5,4.59,11.5,11.71a8.8,8.8,0,0,1-4,7.53h0l-.12.08h0l-.17.13c-2.26,1.49-5.16,2.28-7.68,3.07,0,0-.08,5-.08,5,4,2,8.86,4.89,8.42,13.17-.06,2-.85,2.6-1.53,2.78h0a43.19,43.19,0,0,1-7.24,1.14c0,.64,0,1.26,0,1.82A44.73,44.73,0,0,0,439.2,99.78l6.5,6.5a54,54,0,0,1-74.83.15l6.5-6.5a44.86,44.86,0,0,0,27.5,12.16c0-.56,0-1.18,0-1.83a43,43,0,0,1-26.18-11.61l1.73-1.74,2.38.28L384,95.82l3.32.12.49-1.16-.12-.48A33.79,33.79,0,0,0,404.67,101c0-.71,0-1.33,0-1.83a32,32,0,0,1-18.2-8.32l6.51-6.5a23.06,23.06,0,0,0,5.27,3.54,6.13,6.13,0,0,1,.65-1.71,21.44,21.44,0,0,1-4.64-3.12l6.52-6.52a11.8,11.8,0,0,0,3.49,1.94c0-.64,0-1.32,0-2A10,10,0,0,1,402,75.26l1.84-1.84c-.64-.19-1.29-.4-1.94-.62L400.71,74a10.09,10.09,0,0,1-1.56-2.31A23.06,23.06,0,0,1,395.93,70a12.59,12.59,0,0,1-6-11,13.26,13.26,0,0,1,2.64-8.41L386,44.06a32.08,32.08,0,0,1,17.36-8.55c0-.63,0-1.24,0-1.82a33.79,33.79,0,0,0-18.6,9.09l-1.1-1.1c-.24.44-.54,1-.87,1.7l.69.68a33.81,33.81,0,0,0-9.19,22.64h-9.2A43,43,0,0,1,377,37.56l2.92,2.92h.41A4.57,4.57,0,0,0,382,40l-3.71-3.72a42.71,42.71,0,0,1,6.4-5.11,10.66,10.66,0,0,1,.45-1.35,18.09,18.09,0,0,1,1.41-1.89A45.8,45.8,0,0,0,377,35l-6.49-6.5a54,54,0,0,1,32.23-15.07c0-.23-.08-.4-.08-.4-.08-.43-.17-.9-.27-1.4a56,56,0,0,0,5.85,111.6Zm12.07-38.65v0l0,0Zm27.09-54.63a53.89,53.89,0,0,1,15,36.76h-9.19a44.69,44.69,0,0,0-4.8-19.63l.08-.16.64.33.15-.48-1.65-2.88-1.94-2.7-2.29-1.91c-.78-1-1.6-1.92-2.46-2.84ZM435.66,41.72l2.21.1.53.63-.27.94,3.07,1.91.6-.08,3.93,4.49,1.6-.56a43,43,0,0,1,4,17.55h-9.2a33.51,33.51,0,0,0-.86-7l.42-.57.57-2.88-.43-3.1-1.11-3.56-2.56-3.75.62.33.31-.31-2-1.4-.14.46L439,47.87l1.17,2.42.83,2.38.26,1.61.43,2.71-.78,0s-.88-1.65-1.16-2.34l.42-.61L439.34,53V51.84l-.56-.71-.7.09c-.25-.46-.51-.92-.78-1.37l.49.25.14-.13-.27-.58.6-.33-.27-.34-.89.34.33-1.4-.53-.3-.47,1.11a35.16,35.16,0,0,0-3.35-4.25Zm-1.84,21.55,1.65-.9,1.68-.26.37-.82.94-.56.36-.79.29-1.36c.14.48.26,1,.38,1.45l-.9,2.66,0,.9,1.29-1.73a32.26,32.26,0,0,1,.46,4.84h-8.06l-.19-.7.94-.74.19-.46.41-.29,1.08-.12.12-.48Zm-11-6.32.83-.19,0-.2-.82-.55.28-1.73,1-1a20.35,20.35,0,0,1,1.71,2.21l-.34,1.07-.9-.64-.69.18.34.64h.34l-.38.93-.26-.37Zm3.53,30.53-2-.56-.6.22-1.12-.86-1.06-.38c.52-.38,1-.77,1.52-1.19l1.63,1.16,1.25.65.62.63ZM425.3,52l6.5-6.51a32.72,32.72,0,0,1,4,5.41l-.81.22,0,1.45,2.45,1.54A34.23,34.23,0,0,1,439,58.23l-.43.63-.88.56-.22,1.35-.6.33-.5.6-.51-.19-.9,0,.53-.7.37-1.84.6-.37-1.76-1.69-1.31.45-.3,1.24-.82.89-.86-.71-.31-.75.49-.3.27.49.41-.15-.18-.82-.57,0,0,.34-.37.07-2-2.35-.69-.53.26-.28.62-.22-.57-.22s-.71.16-.79.16l.4.52-1,0A23.79,23.79,0,0,0,425.3,52Zm3.31,34.61-.88-.88.67-.88.85-1.72-.33-.49.56-1.28-.06-1.16L429.08,79l-.8-.28-.3.67-.48-.13a21.51,21.51,0,0,0,1.93-3.36l.82-.35.47-.63.22.26.56-.67-.45-.56.41-.11.75.3,1.42,0,.87-.46,2.24-.59-.42-.75-.15-.9,1.2.53.45-.27-.22-.93-1.48.55-1.62-.33-1.24-2.53h7a32,32,0,0,1-8.87,20.91l-1-1,.42-1.3-.75-2.84Zm1.24,17.94.87-1.86-.34-.82,1.27-1.12v-.68l-1.08-.67.89-1.79,1.35-1.76-1.35-1.46h-1l-.63-1c.55-.45,1.08-.9,1.59-1.39l6.51,6.51A43.45,43.45,0,0,1,429.85,104.56ZM438,96l.72-.8L438,91.61l-.47-.18.29-.6-1.54-.49L436,91.61l-.16,1.61-.32.3-2.8-2.8a33.87,33.87,0,0,0,9.41-22.2h9.2a43,43,0,0,1-12.11,28.7Zm2.54,2.53a44.79,44.79,0,0,0,12.64-30h9.19A53.93,53.93,0,0,1,447,105Zm-55.34-8.91c-.67-.69-1.31-1.41-1.91-2.15l.28-2.32-1-2.24-.23-3.49-1.09-2.12.23-1.32-1.31-2.51L379,72.86l.47-1.34L379,70.46l.48-1.2h1.26l.44-.74h2.15l.33.63-.4,2.19-.26.37.81,1.76-.54.29-.36-.47-.16.18.37,1,.63,1.22.29,0,.18-1.09-.31-.4,0-.74L383.76,72l.45-2.7-.43-.73h1.54a22.82,22.82,0,0,0,6.32,14.57Zm-6.08-18L378.2,73h-1.49l-.12-.09a33.18,33.18,0,0,1-.47-4.37h2.77l-.66,2.22Zm3-6.3.17-1.84,1.09-.63,1.95.35.29.35a22,22,0,0,0-.29,3.16h-2.21Zm9.33,6.87.46-.23,1.21.9-.52.43,1.35.9-.09-1,.72-1.19.76.8.77,1.11-1.39.3.63,1.27,1-.52-.12-.4.72-.49.43-2a11.58,11.58,0,0,0,2.11,3.22l-6.5,6.5a21.12,21.12,0,0,1-5.7-12.2L388.56,71l1.25,0Zm-6.65-26.83,6.49,6.5a23.42,23.42,0,0,0-3.45,5l-.45,0-.92.28-.31,0-1,.91,1.24-.2,1.1-.28c-.06.14-.13.28-.19.43l-1,.59h-.46l-1.43,1.09-1.37-.12-2,3.73.4.74-1.08,1.2-.17,1.57H376.1A32,32,0,0,1,384.77,45.35Zm-8.4,49,2.06,1.2.43.29-1.5,1.49c-.7-.71-1.37-1.46-2-2.23Zm-2.06-25.87c0,.89.11,1.78.21,2.65l-1.13.26-.23,1.15-2.35,3,.06,4.1-2.4.8-1.32,0a43,43,0,0,1-2-12Zm-9.08,11.89-.54-.1-.52-.58-2.57-.22.8,1.08-2.4-.45.63-.58-.58-.57-1.72.75-.62,1.14L358,83.5l2,4.75,1,1.49.55.2-1.51-2.84-.32-1.45.34-.36-.21-.8.9.12,1.39,2.1.34.14,0-1.53.57.33.12.83,1.46.38.6-.43.22.15,0,1.11.64.79.78.18,1.71,2.88,1,.29.32-1.35a45.43,45.43,0,0,0,6.34,8.18l-6.5,6.5a54,54,0,0,1-15.49-36.64h9.19A45,45,0,0,0,365.23,80.41Zm4-50.63,6.49,6.5A44.8,44.8,0,0,0,363.27,66.7h-9.19A54,54,0,0,1,369.2,29.78Zm66.55-3.35-.56-.9-1.2-.6-.94.71,1.2.64,1.35,1Zm-5.57,25.94,0,.71,1.6-.48.49-1-1.11-1.44.59-.88,1.49,1.06.27-.22-.3-.21-.33-.64.61-.35-.6-.79-1.39.71-.49.84-.28.77.61,1-.22.48ZM363.7,93.61l.11-.42-.83-1.8L362,91Zm37.59-34.55c0,1.54.94,2.62,2.65,3.57,0,0,0-.27,0-.69l-1.07-1.08.57-1,.46-.13c0-1.8-.07-3.81-.08-4.09h-.08C402.15,56.48,401.29,57.54,401.29,59.06Z"></path>
      <path class="cls-1" d="M411.56,98.9c2.88,1.46,5.55,3.48,6.66,7.3.49-6.33-3.06-9.07-6.58-10.93C411.64,95.28,411.56,98.91,411.56,98.9Z"></path>
      <path class="cls-1" d="M430.74,34.65c0-5.75-4.18-12.14-14.4-14.39a25.07,25.07,0,0,0-3.12-.36c0,.87-.07,2.85-.07,2.85,0,.63-.06,2.93-.07,3.43a14.6,14.6,0,0,1,2,.27c5.94,1.42,8.07,4.83,8.07,8.2,0,5.46-4.67,7.52-10.41,9.07l-1.9.5c-1.74.43-3.54.85-5.3,1.33-.64.16-1.27.35-1.89.53h0c-6.36,1.94-11.83,5-11.83,12.87S398,69.64,404.11,71.52c0-2.24-.09-4.49-.13-6.75-2.69-1.26-4.58-2.92-4.58-5.71s1.72-4.38,4.36-5.57a18,18,0,0,1,1.88-.73c1.52-.52,3.22-1,5-1.39l1.9-.46h0C421.13,48.83,430.74,46.15,430.74,34.65Z"></path>
      <path class="cls-1" d="M399.92,89.55c0,3.15,2.33,4.86,4.65,6.16,0-.53-.1-5.4-.1-5.48,0-1,1-1.55,1.74-1.91a36.48,36.48,0,0,1,3.69-1.41c.68-.24,1.27-.47,1.93-.67h0c4.65-1.4,10-3.19,10-8.85s-4.61-8-9.65-9.73c0,1.81-.09,4.44-.13,6.26,2.13.84,3.54,1.86,3.54,3.47,0,2-2.16,3.2-3.7,3.79-.63.25-1.61.57-1.88.65-1.24.39-2.57.83-3.81,1.29a17.77,17.77,0,0,0-1.88.82C402.17,85.06,399.91,86.69,399.92,89.55Z"></path>
      <path class="cls-1" d="M403.08,20.8a36.35,36.35,0,0,0-5.61,2.28c-2,.67-4.84.78-7.76,4A41.47,41.47,0,0,0,387,30.51c-.88,1.26-.92,3.3-1.57,4.4a3.72,3.72,0,0,0-.71,2.49l0,.05a4.12,4.12,0,0,1-1.08,2,4,4,0,0,1-3.79,1.44c1.33.67,3.17-.26,3.17-.26a23.93,23.93,0,0,0-.7,2.64c1.49-3.38,2.86-4.61,3.29-5,.64.15,2,.09,4.44-1.32,2.79-1.6,7-4.22,8.17-5.88a11,11,0,0,1,4.94-3.72C403.17,24.89,403.12,22.67,403.08,20.8Zm-12.19,11-1.44.32,2.13-3.3,2,.07Z"></path>
      <path class="cls-1" d="M408.83,89.16c-.26.1-1,.4-1.4.55s-1.06.41-1.06.57.44,24.39.44,24.92c0,5,2.56,5,2.56,0,0-.35.51-26.38.51-26.38Z"></path>
      <path class="cls-1" d="M406.19,81.13c.8-.28,1.59-.52,2.33-.74l1.54-.49c0-1.53.47-22.72.55-26.57a49,49,0,0,0-4.93,1.42C405.74,57.64,406.15,78.82,406.19,81.13Z"></path>
      <path class="cls-1" d="M408.32,0c-7.17,0-4.12,10.64-3.56,14.1,0,.16.58,24,.7,29.5l3.21-.81,2.17-.54c.11-5.27.64-28,.65-28.19C411.92,10.35,415.68,0,408.32,0Z"></path>
    </g>
  </g>
</svg>