<?xml version="1.0" encoding="utf-8"?>
<!-- Generator: Adobe Illustrator 14.0.0, SVG Export Plug-In . SVG Version: 6.00 Build 43363)  -->
<!DOCTYPE svg PUBLIC "-//W3C//DTD SVG 1.1//EN" "http://www.w3.org/Graphics/SVG/1.1/DTD/svg11.dtd">
<svg version="1.1" id="Camada_1" xmlns="http://www.w3.org/2000/svg" xmlns:xlink="http://www.w3.org/1999/xlink" x="0px" y="0px"
	 width="60px" height="60px" viewBox="0 0 60 60" enable-background="new 0 0 60 60" xml:space="preserve">
<g id="Layer_2_1_">
	<g>
		<path d="M17.514,44.175c-0.638,0-1.237-0.25-1.686-0.703L3.923,31.529c-0.453-0.47-0.666-1.014-0.654-1.588
			c0.012-0.574,0.247-1.109,0.662-1.507l11.917-11.917c0.449-0.446,1.044-0.691,1.675-0.691s1.226,0.245,1.674,0.69
			c0.919,0.925,0.919,2.427,0.002,3.351l-5.928,7.717h41.084c1.31,0,2.375,1.065,2.375,2.375s-1.065,2.375-2.375,2.375H13.235
			l6.007,7.82c0.416,0.413,0.661,1.011,0.658,1.646s-0.252,1.23-0.703,1.677C18.739,43.93,18.145,44.175,17.514,44.175
			C17.514,44.175,17.514,44.175,17.514,44.175z"/>
		<path fill="#DDDDDD" d="M17.523,16.325c0.478,0,0.956,0.182,1.322,0.545c0.727,0.731,0.727,1.912,0,2.644l-6.588,8.569h42.099
			c1.035,0,1.875,0.839,1.875,1.875c0,1.035-0.84,1.875-1.875,1.875H12.22l6.625,8.625c0.004,0.004,0.008,0.007,0.011,0.01
			c0.729,0.736,0.725,1.924-0.011,2.652c-0.004,0.004-0.008,0.008-0.011,0.011c-0.366,0.363-0.843,0.544-1.321,0.544
			c-0.482,0-0.964-0.186-1.331-0.555L4.277,31.177c-0.017-0.016-0.033-0.032-0.049-0.049c-0.631-0.657-0.609-1.702,0.049-2.333
			L16.202,16.87C16.567,16.507,17.045,16.325,17.523,16.325 M17.523,15.325c-0.765,0-1.484,0.297-2.026,0.835L3.57,28.088
			c-0.496,0.475-0.786,1.135-0.801,1.843c-0.015,0.708,0.248,1.379,0.738,1.89c0.022,0.024,0.054,0.056,0.085,0.085l11.883,11.921
			c0.541,0.547,1.266,0.849,2.039,0.849c0.764,0,1.483-0.296,2.025-0.834c0.556-0.551,0.858-1.271,0.861-2.04
			c0.003-0.753-0.281-1.463-0.802-2.005l-5.349-6.963h40.107c1.585,0,2.875-1.29,2.875-2.875c0-1.585-1.29-2.875-2.875-2.875H14.288
			l5.316-6.915c1.061-1.121,1.044-2.902-0.049-4.002C19.008,15.622,18.288,15.325,17.523,15.325L17.523,15.325z"/>
	</g>
</g>
</svg>
