<?xml version="1.0" encoding="utf-8"?>
<!-- Generator: Adobe Illustrator 14.0.0, SVG Export Plug-In . SVG Version: 6.00 Build 43363)  -->
<!DOCTYPE svg PUBLIC "-//W3C//DTD SVG 1.1//EN" "http://www.w3.org/Graphics/SVG/1.1/DTD/svg11.dtd">
<svg version="1.1" id="Camada_1" xmlns="http://www.w3.org/2000/svg" xmlns:xlink="http://www.w3.org/1999/xlink" x="0px" y="0px"
	 width="300px" height="300px" viewBox="0 0 300 300" enable-background="new 0 0 300 300" xml:space="preserve">
<g>
	<path fill="#7098FC" d="M263.333,47.666H36.667c-6.628,0-12,5.373-12,12v180.668c0,6.627,5.372,12,12,12h226.666
		c6.627,0,12-5.373,12-12V59.666C275.333,53.039,269.96,47.666,263.333,47.666z M51.737,61.274h196.525
		c5.746,0,10.404,4.657,10.404,10.404v68.654H41.333V71.679C41.333,65.932,45.991,61.274,51.737,61.274z M226.425,149.667v21
		h-26.646v-21H226.425z M194.873,170.667h-26.645v-21h26.645V170.667z M136.678,180h26.645v21h-26.645V180z M131.771,201h-26.646
		v-21h26.646V201z M168.229,180h26.645v21h-26.645V180z M163.322,170.667h-26.645v-21h26.645V170.667z M131.771,170.667h-26.646v-21
		h26.646V170.667z M100.219,170.667H73.573v-21h26.646V170.667z M68.667,170.667H41.333v-21h27.334V170.667z M68.667,180v21H41.333
		v-21H68.667z M73.573,180h26.646v21H73.573V180z M100.219,210.333v28.393H73.573v-28.393H100.219z M105.125,210.333h26.646v28.393
		h-26.646V210.333z M136.678,210.333h26.645v28.393h-26.645V210.333z M168.229,210.333h26.645v28.393h-26.645V210.333z
		 M199.779,210.333h26.646v28.393h-26.646V210.333z M199.779,201v-21h26.646v21H199.779z M231.332,180h27.335v21h-27.335V180z
		 M231.332,170.667v-21h27.335v21H231.332z M41.333,228.321v-17.988h27.334v28.393h-16.93
		C45.991,238.726,41.333,234.067,41.333,228.321z M248.263,238.726h-16.931v-28.393h27.335v17.988
		C258.667,234.067,254.009,238.726,248.263,238.726z"/>
	<rect x="115.904" y="123.772" fill="#7098FC" width="4.907" height="11.228"/>
	<rect x="84.286" y="123.741" fill="#7098FC" width="4.906" height="11.228"/>
	<rect x="52.667" y="123.665" fill="#7098FC" width="4.906" height="11.228"/>
	<rect x="210.76" y="123.772" fill="#7098FC" width="4.907" height="11.228"/>
	<rect x="242.379" y="124.053" fill="#7098FC" width="4.907" height="11.228"/>
	<rect x="179.142" y="123.741" fill="#7098FC" width="4.906" height="11.228"/>
	<rect x="147.523" y="123.741" fill="#7098FC" width="4.906" height="11.228"/>
</g>
<polygon fill="#508A1F" points="205,191 213.667,201 233.667,175 213.667,191 "/>
<polygon fill="#508A1F" points="139,223.667 147.667,233.667 167.667,207.667 147.667,223.667 "/>
<polygon fill="#508A1F" points="47,159.001 55.667,169.001 75.667,143.001 55.667,159.001 "/>
<polygon fill="#508A1F" points="107,188.334 115.667,198.334 135.667,172.334 115.667,188.334 "/>
<g>
	<rect x="225" y="33" fill="#5579C4" width="9.333" height="41.333"/>
	<circle fill="#5579C4" cx="229.667" cy="77.333" r="8.333"/>
</g>
<g>
	<rect x="171.889" y="33" fill="#5579C4" width="9.333" height="41.333"/>
	<circle fill="#5579C4" cx="176.556" cy="77.333" r="8.333"/>
</g>
<g>
	<rect x="118.777" y="33" fill="#5579C4" width="9.333" height="41.333"/>
	<circle fill="#5579C4" cx="123.444" cy="77.333" r="8.333"/>
</g>
<g>
	<rect x="65.667" y="33" fill="#5579C4" width="9.333" height="41.333"/>
	<circle fill="#5579C4" cx="70.333" cy="77.333" r="8.333"/>
</g>
</svg>
