<?xml version="1.0" encoding="utf-8"?>
<!-- Generator: Adobe Illustrator 14.0.0, SVG Export Plug-In . SVG Version: 6.00 Build 43363)  -->
<!DOCTYPE svg PUBLIC "-//W3C//DTD SVG 1.1//EN" "http://www.w3.org/Graphics/SVG/1.1/DTD/svg11.dtd">
<svg version="1.1" id="Camada_1" xmlns="http://www.w3.org/2000/svg" xmlns:xlink="http://www.w3.org/1999/xlink" x="0px" y="0px"
	 width="300px" height="300px" viewBox="0 0 300 300" enable-background="new 0 0 300 300" xml:space="preserve">
<g transform="translate(0 -1028.4)">
	<g>
		<g>
			<path fill="#27AE60" d="M112.739,1105.384l-37.482,25.103l42.85,93.063l37.482-25.103L112.739,1105.384z"/>
			<path fill="#3498DB" d="M125.559,1239.736l-35.619,29.149l13.042,28.323l43.817-11.345L125.559,1239.736z"/>
			<path fill="#2ECC71" d="M31.814,1142.645l48.439,105.202l35.62-29.148l-40.616-88.211L31.814,1142.645z"/>
			<path fill="#2980B9" d="M159.315,1206.541l-30.776,39.667l18.259,39.656l37.108-25.916L159.315,1206.541z"/>
			<path fill="#F39C12" d="M147.766,1181.457l-31.893,37.242l12.666,27.509l33.196-34.9L147.766,1181.457z"/>
			<path fill="#F39C12" d="M89.917,1120.796l54.54,65.125l3.679-3.658l-35.397-76.878L89.917,1120.796z"/>
			<path fill="#2ECC71" d="M113.372,1105.093l59.839,78.373l20.231-9.316l-37.26-80.924L113.372,1105.093z"/>
			<path fill="#F1C40F" d="M112.739,1105.384l38.378,83.351l19.113-11.741l-56.859-71.901L112.739,1105.384z"/>
			<path fill="#F1C40F" d="M186.57,1158.685l-38.063,24.384l15.65,33.99l38.6-22.677L186.57,1158.685z"/>
			<path fill="#27AE60" d="M156.183,1093.226l30.554,66.36l35.244-29.963l-28.316-61.5L156.183,1093.226z"/>
			<path fill="#2980B9" d="M230.925,1149.048l-31.519,38.055l28.317,61.5l37.107-25.916L230.925,1149.048z"/>
			<path fill="#3498DB" d="M199.406,1187.103l-37.834,24.278l22.334,48.566l43.817-11.345L199.406,1187.103z"/>
			<path fill="#F1C40F" d="M115.873,1218.699l-37.483,25.103l12.295,26.703l37.854-24.297L115.873,1218.699z"/>
			<path fill="#F39C12" d="M218.257,1121.535l-31.521,38.051l12.67,27.517l34.498-31.583L218.257,1121.535z"/>
		</g>
		<g>
			<path fill="#C0392B" d="M101.948,1118.508c3.48-3.563,5.22-8.018,5.22-12.472c0-5.346-1.74-9.801-5.22-13.364
				c-3.48-2.671-7.678-4.454-12.598-4.454s-9.118,1.783-12.598,4.454c-3.48,3.563-5.22,8.018-5.22,13.364
				c0,4.455,1.74,8.909,5.22,12.472c3.48,3.563,7.678,5.346,12.598,5.346S98.468,1122.071,101.948,1118.508 M124.982,1106.036
				c0,4.455-0.766,8.909-2.297,12.472l-25.331,53.459c-0.744,1.774-1.857,2.671-3.341,3.559c-1.44,0.896-2.993,1.783-4.664,1.783
				s-3.25-0.888-4.733-1.783c-1.44-0.888-2.506-1.784-3.202-3.559l-25.405-53.459c-1.531-3.563-2.297-8.018-2.297-12.472
				c0-9.801,3.48-18.71,10.44-25.835c6.96-6.238,15.36-9.801,25.196-9.801c9.836,0,18.236,3.563,25.196,9.801
				C121.511,1087.326,124.982,1096.235,124.982,1106.036"/>
		</g>
	</g>
</g>
</svg>
