<?xml version="1.0" encoding="utf-8"?>
<!-- Generator: Adobe Illustrator 14.0.0, SVG Export Plug-In . SVG Version: 6.00 Build 43363)  -->
<!DOCTYPE svg PUBLIC "-//W3C//DTD SVG 1.1//EN" "http://www.w3.org/Graphics/SVG/1.1/DTD/svg11.dtd">
<svg version="1.1" id="Camada_1" xmlns="http://www.w3.org/2000/svg" xmlns:xlink="http://www.w3.org/1999/xlink" x="0px" y="0px"
	 width="300px" height="300px" viewBox="0 0 300 300" enable-background="new 0 0 300 300" xml:space="preserve">
<path fill="#FFFFFF" d="M262.667,272.667c0,6.627-5.373,12-12,12h-202c-6.627,0-12-5.373-12-12V27.333c0-6.627,5.373-12,12-12h202
	c6.627,0,12,5.373,12,12V272.667z"/>
<text transform="matrix(1 0 0 1 68.1431 76.3325)" font-family="'MyriadPro-Semibold'" font-size="48" letter-spacing="9">NEWS</text>
<rect x="54" y="105" fill="#414564" width="191.333" height="13.333"/>
<rect x="54" y="128.778" fill="#414564" width="109.333" height="13.333"/>
<rect x="54" y="152.556" fill="#414564" width="109.333" height="13.334"/>
<rect x="54" y="176.333" fill="#414564" width="109.333" height="13.334"/>
<rect x="136" y="207.889" fill="#414564" width="109.333" height="13.334"/>
<rect x="136" y="230.777" fill="#414564" width="109.333" height="13.334"/>
<rect x="136" y="253.666" fill="#414564" width="109.333" height="13.334"/>
<rect x="171.667" y="129.667" fill="#8292F4" width="72.666" height="60"/>
<rect x="56.334" y="207" fill="#8292F4" width="72.666" height="60"/>
</svg>
