<?xml version="1.0" encoding="utf-8"?>
<!-- Generator: Adobe Illustrator 14.0.0, SVG Export Plug-In . SVG Version: 6.00 Build 43363)  -->
<!DOCTYPE svg PUBLIC "-//W3C//DTD SVG 1.1//EN" "http://www.w3.org/Graphics/SVG/1.1/DTD/svg11.dtd">
<svg version="1.1" id="Camada_1" xmlns="http://www.w3.org/2000/svg" xmlns:xlink="http://www.w3.org/1999/xlink" x="0px" y="0px"
	 width="300px" height="300px" viewBox="0 0 300 300" enable-background="new 0 0 300 300" xml:space="preserve">
<circle fill="#FF9797" cx="150" cy="150" r="124.667"/>
<circle fill="#FFFFFF" cx="150" cy="150" r="97.001"/>
<path fill="#157EFB" d="M150,19.167C77.743,19.167,19.167,77.743,19.167,150S77.743,280.833,150,280.833
	S280.833,222.257,280.833,150S222.257,19.167,150,19.167z M150,270.5c-66.55,0-120.5-53.95-120.5-120.5S83.45,29.5,150,29.5
	c66.551,0,120.5,53.95,120.5,120.5S216.551,270.5,150,270.5z"/>
<path fill="#157EFB" d="M150,49.167C94.312,49.167,49.167,94.312,49.167,150c0,55.688,45.145,100.833,100.833,100.833
	c55.688,0,100.833-45.146,100.833-100.833C250.833,94.312,205.688,49.167,150,49.167z M150,242.869
	c-51.29,0-92.869-41.579-92.869-92.869S98.71,57.131,150,57.131c51.291,0,92.869,41.579,92.869,92.869S201.291,242.869,150,242.869z
	"/>
<path fill="#157EFB" d="M149.999,84.5C113.825,84.5,84.5,113.825,84.5,150c0,36.174,29.325,65.5,65.499,65.5
	c36.175,0,65.501-29.326,65.501-65.5C215.5,113.825,186.174,84.5,149.999,84.5z M149.999,210.326
	c-33.316,0-60.325-27.01-60.325-60.326c0-33.317,27.009-60.326,60.325-60.326c33.319,0,60.327,27.009,60.327,60.326
	C210.326,183.316,183.318,210.326,149.999,210.326z"/>
<circle fill="#FF9797" cx="150" cy="150" r="61.333"/>
<circle fill="#FFFFFF" cx="150" cy="150" r="27.167"/>
<path fill="#157EFB" d="M149.999,106.5c-24.023,0-43.499,19.476-43.499,43.5c0,24.023,19.476,43.5,43.499,43.5
	c24.024,0,43.501-19.477,43.501-43.5C193.5,125.976,174.023,106.5,149.999,106.5z M150,176.764
	c-14.781,0-26.764-11.981-26.764-26.764s11.983-26.765,26.764-26.765c14.783,0,26.764,11.983,26.764,26.765
	C176.764,164.781,164.782,176.764,150,176.764z"/>
<polyline fill="#157EFB" points="232.672,77.031 166.314,143.426 166.314,143.426 173.401,150.512 142.031,160.969 152.488,129.599 
	158.911,136.022 225.734,69.188 "/>
<polyline fill="#157EFB" points="225.686,69.248 225.686,69.248 236.142,58.792 236.142,56.402 237.336,56.402 236.142,56.402 
	236.142,25.032 246.599,25.032 246.599,48.335 260.118,34.814 267.512,42.208 253.323,56.402 277.969,56.402 277.969,66.858 
	242.866,66.858 242.866,66.858 232.409,77.315 "/>
</svg>
