<?xml version="1.0" encoding="utf-8"?>
<!-- Generator: Adobe Illustrator 14.0.0, SVG Export Plug-In . SVG Version: 6.00 Build 43363)  -->
<!DOCTYPE svg PUBLIC "-//W3C//DTD SVG 1.1//EN" "http://www.w3.org/Graphics/SVG/1.1/DTD/svg11.dtd">
<svg version="1.1" id="Camada_1" xmlns="http://www.w3.org/2000/svg" xmlns:xlink="http://www.w3.org/1999/xlink" x="0px" y="0px"
	 width="300px" height="300px" viewBox="0 0 300 300" enable-background="new 0 0 300 300" xml:space="preserve">
<g>
	<path fill="#CCCCCC" d="M114.703,83.382l-17.008-7.6l-13.3,29.765l78.13,34.91c0,0,12.775,12.084,7.551,23.777
		c-5.225,11.691-36.335,81.32-36.335,81.32s-4.682,6.196-10.528,3.584c-5.846-2.611-8.38-6.933-6.125-11.98
		c2.255-5.049,35.86-80.258,35.86-80.258l-78.396-35.029c0,0-12.801-12.734-8.289-22.833c4.512-10.098,14.724-32.953,14.724-32.953
		s7.006-15.68,21.623-9.149c14.616,6.531,19.932,8.906,19.932,8.906L114.703,83.382z"/>
	<path fill="#CCCCCC" d="M137.755,53.193l138.458,61.865c0,0,7.77,1.877,2.426,13.836s-22.68,50.758-22.68,50.758
		s-2.878,5.729-8.459,3.234c-5.58-2.492-5.693-5.094-3.675-9.611c2.019-4.519,5.581-12.49-0.531-15.223
		c-6.112-2.73-8.573,0.635-10.71,5.418c-2.139,4.782-5.639,11.189-5.639,11.189s-1.492,7.621-6.926,5.513s-7.797-2.528-5.15-10.591
		s5.699-12.756,5.699-12.756s1.754-4.637-2.498-6.537c-4.252-1.9-8.42-1.849-10.941,3.082c-2.521,4.931-4.71,5.548-7.898,4.122
		c-3.189-1.425-6.975-6.323-3.434-13.011c2.047-3.868-2.471-5.886-2.471-5.886l-78.663-35.148c0,0-6.848-4.654-4.117-10.766
		c2.731-6.112,15.674-35.079,15.674-35.079S130.846,50.105,137.755,53.193z"/>
</g>
<g>
	<path fill="#414564" d="M116.95,76.719l-17.009-7.6L86.642,98.884l78.131,34.91c0,0,12.773,12.083,7.55,23.776
		c-5.226,11.693-36.335,81.32-36.335,81.32s-4.682,6.197-10.529,3.586c-5.846-2.612-8.38-6.934-6.125-11.981
		c2.256-5.049,35.861-80.258,35.861-80.258l-78.397-35.029c0,0-12.802-12.734-8.289-22.833
		c4.512-10.098,14.724-32.953,14.724-32.953s7.006-15.68,21.623-9.149c14.616,6.531,19.932,8.906,19.932,8.906L116.95,76.719z"/>
	<path fill="#C75C5C" d="M140.002,46.53l138.458,61.865c0,0,7.769,1.877,2.426,13.836c-5.344,11.959-22.681,50.759-22.681,50.759
		s-2.878,5.729-8.458,3.234c-5.581-2.494-5.694-5.095-3.675-9.611c2.019-4.52,5.58-12.491-0.532-15.223s-8.572,0.633-10.71,5.416
		c-2.137,4.783-5.637,11.19-5.637,11.19s-1.493,7.622-6.928,5.513c-5.433-2.109-7.797-2.527-5.149-10.591
		c2.646-8.063,5.698-12.756,5.698-12.756s1.754-4.637-2.498-6.537s-8.418-1.849-10.941,3.082c-2.521,4.931-4.71,5.548-7.898,4.123
		s-6.974-6.323-3.433-13.011c2.047-3.868-2.471-5.886-2.471-5.886L116.91,96.786c0,0-6.848-4.654-4.116-10.766
		c2.731-6.112,15.674-35.079,15.674-35.079S133.093,43.442,140.002,46.53z"/>
</g>
</svg>
