<?xml version="1.0" encoding="utf-8"?>
<!-- Generator: Adobe Illustrator 14.0.0, SVG Export Plug-In . SVG Version: 6.00 Build 43363)  -->
<!DOCTYPE svg PUBLIC "-//W3C//DTD SVG 1.1//EN" "http://www.w3.org/Graphics/SVG/1.1/DTD/svg11.dtd">
<svg version="1.1" id="Camada_1" xmlns="http://www.w3.org/2000/svg" xmlns:xlink="http://www.w3.org/1999/xlink" x="0px" y="0px"
	 width="14.061px" height="9.651px" viewBox="0.795 3.116 14.061 9.651" enable-background="new 0.795 3.116 14.061 9.651"
	 xml:space="preserve">
<path fill="#FFFFFF" d="M1,8c0-0.276,0.224-0.5,0.5-0.5h11.793l-3.146-3.146c-0.195-0.195-0.195-0.513,0-0.708s0.512-0.195,0.707,0
	l4,4c0.195,0.195,0.196,0.512,0.002,0.707c-0.001,0-0.001,0-0.002,0.001l-4,4c-0.195,0.195-0.512,0.195-0.707,0
	s-0.195-0.512,0-0.707L13.293,8.5H1.5C1.224,8.5,1,8.276,1,8"/>
</svg>
