<svg width="40" height="42" viewBox="0 0 40 42" fill="none" xmlns="http://www.w3.org/2000/svg">
<g id="Group 5">
<g id="Group 22">
<path id="Intersect (Stroke)" fill-rule="evenodd" clip-rule="evenodd" d="M20.1254 0.335113C19.5387 0.921851 19.0122 1.54624 18.5461 2.20066C14.9092 7.30663 14.942 14.2406 18.6275 19.3813C19.0999 20.0401 19.6323 20.6695 20.2246 21.2619C20.8113 20.6751 21.3377 20.0507 21.8039 19.3963C25.4408 14.2904 25.4079 7.35638 21.7224 2.21571C21.2501 1.55685 20.7177 0.927439 20.1254 0.335113ZM20.2061 17.3671C17.6695 13.3528 17.6452 8.22033 20.1439 4.22989C22.6804 8.24419 22.7048 13.3767 20.2061 17.3671Z" fill="#0093D5"/>
<path id="Intersect (Stroke)_2" fill-rule="evenodd" clip-rule="evenodd" d="M38.3379 10.6066C37.5364 10.3919 36.7324 10.2482 35.9326 10.1717C29.6922 9.57502 23.7037 13.0705 21.0945 18.8325C20.7601 19.571 20.4812 20.3468 20.2644 21.1559C21.0659 21.3707 21.8698 21.5144 22.6696 21.5908C28.91 22.1875 34.8985 18.6921 37.5077 12.93C37.8422 12.1915 38.1211 11.4158 38.3379 10.6066ZM23.6281 19.1925C25.8363 14.9886 30.269 12.4013 34.9741 12.57C32.7659 16.7739 28.3332 19.3612 23.6281 19.1925Z" fill="#0093D5"/>
<path id="Intersect (Stroke)_3" fill-rule="evenodd" clip-rule="evenodd" d="M2.04992 10.7987C2.26468 11.6002 2.54221 12.3683 2.87589 13.0992C5.47932 18.8019 11.5007 22.2404 17.7954 21.619C18.6022 21.5394 19.4135 21.393 20.2226 21.1762C20.0079 20.3747 19.7303 19.6066 19.3966 18.8757C16.7932 13.1731 10.7718 9.73456 4.4771 10.3559C3.67032 10.4356 2.85906 10.5819 2.04992 10.7987ZM16.8404 19.2448C12.0956 19.4344 7.63862 16.8892 5.43213 12.7301C10.1769 12.5405 14.6339 15.0857 16.8404 19.2448Z" fill="#0093D5"/>
<path id="Intersect (Stroke)_4" fill-rule="evenodd" clip-rule="evenodd" d="M20.2625 42C20.8492 41.4132 21.3756 40.7888 21.8418 40.1344C25.4787 35.0285 25.4458 28.0945 21.7603 22.9538C21.288 22.2949 20.7556 21.6655 20.1633 21.0732C19.5766 21.66 19.0501 22.2843 18.584 22.9388C14.9471 28.0447 14.9799 34.9787 18.6654 40.1194C19.1378 40.7782 19.6702 41.4076 20.2625 42ZM20.1818 24.968C22.7183 28.9823 22.7427 34.1148 20.244 38.1052C17.7074 34.0909 17.6831 28.9584 20.1818 24.968Z" fill="#0093D5"/>
<path id="Intersect (Stroke)_5" fill-rule="evenodd" clip-rule="evenodd" d="M2.04995 31.7285C2.85145 31.9433 3.6554 32.087 4.45521 32.1634C10.6956 32.7601 16.6841 29.2647 19.2933 23.5026C19.6278 22.7641 19.9067 21.9884 20.1235 21.1792C19.322 20.9645 18.518 20.8208 17.7182 20.7443C11.4778 20.1476 5.48929 23.6431 2.88008 29.4051C2.54566 30.1436 2.26676 30.9194 2.04995 31.7285ZM16.7597 23.1426C14.5515 27.3465 10.1188 29.9338 5.4137 29.7651C7.62189 25.5612 12.0546 22.9739 16.7597 23.1426Z" fill="#0093D5"/>
<path id="Intersect (Stroke)_6" fill-rule="evenodd" clip-rule="evenodd" d="M38.3378 31.5364C38.1231 30.7349 37.8455 29.9668 37.5119 29.2359C34.9084 23.5332 28.887 20.0947 22.5923 20.7161C21.7855 20.7957 20.9743 20.9421 20.1651 21.1589C20.3799 21.9604 20.6574 22.7284 20.9911 23.4593C23.5945 29.162 29.616 32.6005 35.9107 31.9791C36.7174 31.8995 37.5287 31.7532 38.3378 31.5364ZM23.5473 23.0903C28.2921 22.9007 32.7491 25.4458 34.9556 29.6049C30.2108 29.7945 25.7538 27.2494 23.5473 23.0903Z" fill="#0093D5"/>
</g>
<g id="Group 2">
<path id="Intersect" fill-rule="evenodd" clip-rule="evenodd" d="M23.9832 20.7829C27.2927 17.4734 32.6585 17.4734 35.9679 20.7829C32.6585 24.0924 27.2927 24.0924 23.9832 20.7829Z" fill="#0093D5"/>
<path id="Intersect_2" fill-rule="evenodd" clip-rule="evenodd" d="M15.9876 20.7493C12.6781 24.0588 7.31237 24.0588 4.00288 20.7493C7.31237 17.4398 12.6781 17.4398 15.9876 20.7493Z" fill="#0093D5"/>
<path id="Intersect_3" fill-rule="evenodd" clip-rule="evenodd" d="M21.9988 17.3123C20.7874 12.7915 23.4703 8.1446 27.9912 6.93325C29.2025 11.4541 26.5196 16.101 21.9988 17.3123Z" fill="#0093D5"/>
<path id="Intersect_4" fill-rule="evenodd" clip-rule="evenodd" d="M17.972 24.2199C19.1833 28.7408 16.5005 33.3876 11.9796 34.599C10.7683 30.0781 13.4511 25.4313 17.972 24.2199Z" fill="#0093D5"/>
<path id="Intersect_5" fill-rule="evenodd" clip-rule="evenodd" d="M18.001 17.2955C13.4801 16.0842 10.7973 11.4373 12.0086 6.91645C16.5295 8.1278 19.2123 12.7747 18.001 17.2955Z" fill="#0093D5"/>
<path id="Intersect_6" fill-rule="evenodd" clip-rule="evenodd" d="M21.9698 24.2367C26.4906 25.4481 29.1735 30.0949 27.9621 34.6158C23.4413 33.4044 20.7584 28.7576 21.9698 24.2367Z" fill="#0093D5"/>
</g>
</g>
</svg>
