<svg width="90" height="90" viewBox="0 0 90 90" fill="none" xmlns="http://www.w3.org/2000/svg">
<g filter="url(#filter0_d_447_7897)">
<rect x="4" width="82" height="82" rx="41" fill="#0C2B64"/>
<path fill-rule="evenodd" clip-rule="evenodd" d="M45.328 6.70907C44.3575 7.67957 43.4868 8.71234 42.7157 9.79478C36.7001 18.2403 36.7544 29.7095 42.8504 38.2124C43.6317 39.3022 44.5123 40.3433 45.492 41.323C46.4625 40.3525 47.3332 39.3197 48.1043 38.2373C54.1199 29.7918 54.0656 18.3226 47.9696 9.81968C47.1883 8.72988 46.3077 7.68881 45.328 6.70907ZM45.4615 34.8809C41.2658 28.241 41.2256 19.7516 45.3585 13.1512C49.5542 19.7911 49.5944 28.2805 45.4615 34.8809Z" fill="#0093D5"/>
<path fill-rule="evenodd" clip-rule="evenodd" d="M75.4526 23.6987C74.1269 23.3435 72.7971 23.1058 71.4741 22.9793C61.1523 21.9923 51.2469 27.774 46.9311 37.3047C46.378 38.5263 45.9166 39.8094 45.558 41.1477C46.8838 41.503 48.2135 41.7406 49.5365 41.8671C59.8583 42.8541 69.7637 37.0724 74.0795 27.5417C74.6326 26.3202 75.094 25.037 75.4526 23.6987ZM51.1219 37.9002C54.7743 30.9467 62.1062 26.6672 69.8888 26.9462C66.2363 33.8997 58.9044 38.1792 51.1219 37.9002Z" fill="#0093D5"/>
<path fill-rule="evenodd" clip-rule="evenodd" d="M15.4303 24.0165C15.7856 25.3422 16.2446 26.6127 16.7965 27.8216C21.1027 37.2541 31.0625 42.9416 41.4743 41.9138C42.8087 41.782 44.1506 41.54 45.4889 41.1814C45.1337 39.8557 44.6746 38.5852 44.1227 37.3763C39.8165 27.9438 29.8568 22.2563 19.445 23.2841C18.1106 23.4158 16.7687 23.6579 15.4303 24.0165ZM39.8946 37.9867C32.0465 38.3004 24.6743 34.0905 21.0247 27.2111C28.8728 26.8975 36.2449 31.1074 39.8946 37.9867Z" fill="#0093D5"/>
<path fill-rule="evenodd" clip-rule="evenodd" d="M45.5548 75.625C46.5253 74.6545 47.3961 73.6217 48.1671 72.5393C54.1827 64.0937 54.1284 52.6246 48.0324 44.1216C47.2511 43.0318 46.3705 41.9908 45.3908 41.011C44.4203 41.9815 43.5496 43.0143 42.7786 44.0967C36.7629 52.5423 36.8172 64.0114 42.9132 72.5144C43.6945 73.6042 44.5751 74.6452 45.5548 75.625ZM45.4213 47.4532C49.617 54.0931 49.6572 62.5824 45.5243 69.1828C41.3287 62.5429 41.2884 54.0536 45.4213 47.4532Z" fill="#0093D5"/>
<path fill-rule="evenodd" clip-rule="evenodd" d="M15.4302 58.6354C16.756 58.9906 18.0857 59.2283 19.4087 59.3548C29.7305 60.3417 39.6359 54.5601 43.9517 45.0293C44.5048 43.8078 44.9662 42.5247 45.3248 41.1863C43.9991 40.8311 42.6693 40.5934 41.3464 40.4669C31.0245 39.48 21.1191 45.2616 16.8033 54.7924C16.2502 56.0139 15.7888 57.297 15.4302 58.6354ZM39.761 44.4338C36.1085 51.3873 28.7766 55.6668 20.9941 55.3878C24.6465 48.4344 31.9784 44.1548 39.761 44.4338Z" fill="#0093D5"/>
<path fill-rule="evenodd" clip-rule="evenodd" d="M75.4525 58.3176C75.0972 56.9918 74.6382 55.7214 74.0863 54.5124C69.7801 45.08 59.8203 39.3925 49.4086 40.4203C48.0741 40.552 46.7322 40.794 45.3939 41.1527C45.7491 42.4784 46.2082 43.7488 46.7601 44.9578C51.0663 54.3903 61.026 60.0778 71.4378 59.0499C72.7722 58.9182 74.1141 58.6762 75.4525 58.3176ZM50.9882 44.3473C58.8363 44.0337 66.2085 48.2435 69.8581 55.1229C62.01 55.4365 54.6379 51.2267 50.9882 44.3473Z" fill="#0093D5"/>
<path fill-rule="evenodd" clip-rule="evenodd" d="M51.7092 40.5308C57.1832 35.0567 66.0585 35.0567 71.5325 40.5308C66.0585 46.0048 57.1832 46.0048 51.7092 40.5308Z" fill="#0093D5"/>
<path fill-rule="evenodd" clip-rule="evenodd" d="M38.4839 40.4753C33.0099 45.9493 24.1347 45.9493 18.6606 40.4753C24.1347 35.0012 33.0099 35.0012 38.4839 40.4753Z" fill="#0093D5"/>
<path fill-rule="evenodd" clip-rule="evenodd" d="M48.4267 34.7902C46.4231 27.3125 50.8607 19.6263 58.3384 17.6227C60.342 25.1004 55.9044 32.7866 48.4267 34.7902Z" fill="#0093D5"/>
<path fill-rule="evenodd" clip-rule="evenodd" d="M41.7662 46.2158C43.7698 53.6935 39.3322 61.3797 31.8545 63.3833C29.8508 55.9056 34.2884 48.2195 41.7662 46.2158Z" fill="#0093D5"/>
<path fill-rule="evenodd" clip-rule="evenodd" d="M41.8142 34.7625C34.3365 32.7589 29.8989 25.0727 31.9025 17.595C39.3803 19.5986 43.8179 27.2848 41.8142 34.7625Z" fill="#0093D5"/>
<path fill-rule="evenodd" clip-rule="evenodd" d="M48.3787 46.2435C55.8564 48.2472 60.294 55.9334 58.2903 63.4111C50.8126 61.4074 46.375 53.7213 48.3787 46.2435Z" fill="#0093D5"/>
</g>
<defs>
<filter id="filter0_d_447_7897" x="0" y="0" width="90" height="90" filterUnits="userSpaceOnUse" color-interpolation-filters="sRGB">
<feFlood flood-opacity="0" result="BackgroundImageFix"/>
<feColorMatrix in="SourceAlpha" type="matrix" values="0 0 0 0 0 0 0 0 0 0 0 0 0 0 0 0 0 0 127 0" result="hardAlpha"/>
<feOffset dy="4"/>
<feGaussianBlur stdDeviation="2"/>
<feComposite in2="hardAlpha" operator="out"/>
<feColorMatrix type="matrix" values="0 0 0 0 0 0 0 0 0 0 0 0 0 0 0 0 0 0 0.25 0"/>
<feBlend mode="normal" in2="BackgroundImageFix" result="effect1_dropShadow_447_7897"/>
<feBlend mode="normal" in="SourceGraphic" in2="effect1_dropShadow_447_7897" result="shape"/>
</filter>
</defs>
</svg>
