<svg width="500" height="415" viewBox="0 0 500 415" fill="none" xmlns="http://www.w3.org/2000/svg">
<path d="M217.052 69.7655C218.419 69.9895 225.146 69.3549 225.624 70.0268C225.781 70.2508 225.713 75.2384 225.363 75.4848C224.87 75.8357 219.912 75.007 219.389 75.7461C217.717 78.1055 220.114 126.832 220.166 133.671L266.667 132.894C268.153 118.096 263.023 85.2957 270.826 77.8218C270.184 87.7074 271.677 132.857 270.826 136.008C270.766 136.239 269.87 137.598 269.527 137.83C267.399 139.241 221.084 138.98 218.613 138.352C218.202 138.248 216.522 136.993 216.276 136.531C214.783 133.731 214.842 76.2912 215.238 73.1478C215.365 72.1324 215.805 70.2135 217.06 69.773L217.052 69.7655Z" fill="#C6C7CB"/>
<path d="M248.486 74.9622C246.231 78.8746 242.356 77.4037 238.615 78.5983C237.72 78.337 235.816 77.9711 235.502 77.2991L236.278 62.4932L248.486 63.2697C248.262 67.1298 248.792 71.1169 248.486 74.9622Z" fill="#A4C9A1"/>
<path d="M227.96 113.407C229.215 112.518 257.363 112.518 258.61 113.407C258.939 113.638 259.043 117.431 258.871 117.82C258.252 119.208 229.872 119.216 228.475 118.596C227.258 118.059 227.565 113.676 227.953 113.399L227.96 113.407Z" fill="#ABB36C"/>
<path d="M228.998 103.536C230.35 102.939 257.259 102.939 258.61 103.536C259.506 103.932 259.671 106.523 259.387 106.911C258.483 108.165 229.737 108.061 228.476 107.172C227.99 106.829 227.916 104.014 228.998 103.536Z" fill="#EE6636"/>
<path d="M227.961 96.264C229.364 95.6443 257.363 95.3755 258.61 96.264C259.006 96.5402 258.954 98.9967 258.872 99.1236C257.976 100.385 229.372 100.527 227.961 99.9001C226.826 99.3999 226.826 96.7642 227.961 96.264Z" fill="#EE6636"/>
<path d="M228.999 123.278C230.216 122.479 256.908 122.441 258.095 123.278C258.484 123.554 258.439 125.503 258.357 125.615C257.565 126.66 233.419 126.085 232.12 125.876C231.119 125.712 226.714 124.778 229.006 123.278H228.999Z" fill="#F27F32"/>
<path d="M260.172 69.7655C261.396 69.2204 273.94 68.1154 270.819 75.7386C270.565 76.3658 260.657 76.2165 260.172 76C258.984 75.4699 258.984 70.2956 260.172 69.7655Z" fill="#C6C7CB"/>
<path d="M230.558 85.3555C237.584 82.227 237.338 91.3511 236.27 92.1126C236.001 92.2993 230.275 92.4486 229.774 91.3361C229.483 90.6716 229.565 85.8035 230.551 85.363L230.558 85.3555Z" fill="#5D9AC3"/>
<path d="M246.664 85.8706C257.147 83.7203 255.072 95.7712 245.365 91.3286C248.434 88.8721 245.022 87.0205 246.664 85.8706Z" fill="#F27F32"/>
<path d="M241.467 85.8706C247.015 83.571 244.312 90.0518 244.327 91.3286C244.334 92.1649 246.455 94.2853 245.626 94.7034C239.585 97.7946 240.892 86.1096 241.467 85.8706Z" fill="#F9A41B"/>
<path d="M238.607 78.5983C242.348 77.4037 246.223 78.8746 248.478 74.9622C248.411 75.8133 248.754 78.7402 248.217 79.121C244.954 78.9866 241.818 79.5466 238.607 78.5983Z" fill="#989165"/>
<path d="M452.14 340.439C451.468 340.41 450.773 340.454 450.064 340.439C449.586 338.2 451.333 339.036 452.14 340.439Z" fill="#614226"/>
<path d="M424.605 267.186C424.635 267.522 424.538 267.94 424.605 268.224L414.734 268.485L417.848 295.76C415.085 295.693 412.3 295.813 409.537 295.76C408.193 286.935 407.813 277.901 406.939 269.008H391.357C393.589 285.464 394.194 302.137 396.031 318.623C394.515 317.331 389.236 313.209 388.236 312.911L381.225 268.231L224.586 269.269C222.249 268.53 214.767 267.485 208.481 265.633C204.12 264.349 199.864 262.706 195.489 261.474L194.451 255.24C274.693 255.83 355.017 255.232 435.252 254.717C428.263 257.741 423.791 257.689 424.605 267.186Z" fill="#784330"/>
<path d="M228.222 243.809C232.284 244.137 235.084 242.801 234.456 245.369C217.06 245.212 199.648 245.489 182.243 245.369C181.863 245.168 182.856 243.435 183.281 243.293C185.693 242.48 222.995 243.391 228.222 243.816V243.809Z" fill="#6E8498"/>
<path d="M194.451 255.24L195.489 261.474C188.314 259.451 181.161 258.04 173.926 256.278C173.537 256.181 173.664 255.583 173.664 255.24C180.235 255.628 187.731 255.188 194.444 255.24H194.451Z" fill="#5C3830"/>
<path d="M405.378 393.437C405.408 394.818 405.356 396.214 405.378 397.595C403.572 397.237 400.07 397.857 397.845 397.595C396.986 397.214 396.725 392.19 396.546 390.838C395.441 382.662 394.97 366.326 393.947 354.992C394.291 354.992 394.843 355.141 394.985 354.73C395.388 353.581 396.023 340.051 398.621 335.25C400.413 350.631 405.117 381.975 405.378 393.437Z" fill="#A96849"/>
<path d="M77.5561 201.728C73.4869 216.914 98.7459 269.217 114.702 278.102C125.767 278.027 154.528 271.696 163.017 277.064C168.849 280.753 179.346 310.141 195.489 316.808L185.096 317.331L196.004 318.107C190.21 318.182 184.394 318.01 178.6 318.107C178.495 318.107 177.286 319.138 176.778 319.145C160.486 319.384 143.739 319.227 127.425 319.145C123.258 319.123 121.996 319.668 121.713 319.668C111.252 319.578 96.058 320.474 88.9798 311.873C88.8977 311.261 86.4338 302.174 85.8663 299.927C85.6871 299.217 85.5452 298.575 85.3437 297.851C84.5671 295.014 83.492 292.288 82.7453 289.541C82.2973 287.898 81.7373 287.577 81.7075 287.465C80.8712 284.322 79.9155 281.283 79.1092 278.117C75.906 265.536 63.9373 213.674 69.2385 204.602C70.9185 201.728 74.5098 201.511 77.5487 201.743L77.5561 201.728Z" fill="#39828E"/>
<path d="M119.123 194.971C118.167 201.466 115.688 215.279 115.486 218.609C114.732 230.899 113.806 236.111 126.918 238.612C126.305 239.724 126.671 241.158 126.395 242.248C125.058 247.572 119.623 259.742 122.236 263.55L118.861 273.421C120.81 274.548 151.96 270.86 158.867 272.383C168.849 274.578 171.783 286.524 175.748 288.488C174.449 291.221 185.813 305.825 187.441 306.669C190.517 308.259 198.006 308.102 201.731 308.229C201.746 308.617 202.762 310.932 202.769 311.089C202.881 313.344 202.142 316.233 202.247 318.1H196.012L185.104 317.323L195.497 316.801C179.354 310.133 168.857 280.745 163.025 277.057C154.536 271.688 125.775 278.02 114.71 278.095C98.7541 269.21 73.4951 216.914 77.5643 201.72C80.73 189.893 110.081 196.688 119.13 194.963L119.123 194.971Z" fill="#064E52"/>
<path d="M176.785 319.145C172.403 329.008 154.11 320.661 151.848 326.679C150.489 330.3 152.221 363.847 152.37 371.358C158.254 373.322 192.331 380.915 194.19 382.005C198.707 384.648 194.474 387.277 196.527 392.914C193.376 401.545 187.873 395.684 186.656 395.512C185.835 394.392 184.961 392.772 185.096 391.353C185.252 389.696 192.659 385.709 172.365 384.596C171.342 384.544 165.675 384.409 165.354 384.857C165.892 386.799 166.452 388.792 166.392 390.831C166.332 392.817 165.817 393.295 165.354 394.989C164.794 395.019 157.544 399.589 155.484 393.952C155.379 393.668 155.528 392.944 155.484 392.391C155.073 387.613 158.067 385.768 158.082 385.38C158.336 376.54 127.186 386.396 121.713 385.119C122.124 382.558 122.385 379.9 122.751 377.324L142.492 370.828L141.969 325.626C139.05 322.961 133.092 325.372 130.023 323.804C128.425 322.99 128.179 320.534 127.425 319.13C143.739 319.212 160.486 319.369 176.778 319.13L176.785 319.145Z" fill="#232224"/>
<path d="M127.433 319.145C128.187 320.549 128.434 323.005 130.032 323.819C126.813 341.522 125.305 359.524 122.759 377.331C122.393 379.907 122.132 382.565 121.721 385.126C121.303 387.702 121.251 390.375 120.684 392.921C120.534 393.593 120.706 394.855 120.161 396.035C118.518 399.649 116.129 397.647 112.627 398.11C112.105 397.737 112.426 395.266 112.366 394.474C112.231 392.712 112.665 387.837 112.889 385.641C113.053 384.029 113.725 382.229 113.926 380.445C116.241 360.173 119.489 339.947 121.721 319.66C122.005 319.66 123.267 319.123 127.433 319.138V319.145Z" fill="#A25833"/>
<path d="M113.926 380.445C113.724 382.229 113.052 384.029 112.888 385.641L105.616 387.978L106.653 394.989C103.838 395.99 99.3437 400.619 96.7827 394.989C95.1774 391.465 97.94 391.966 96.26 387.717V386.679C100.732 381.692 107.93 382.252 113.926 380.445Z" fill="#232224"/>
<path d="M204.321 393.952C205.001 403.061 209.047 403.71 208.734 394.474C214.057 398.879 216.947 397.625 218.605 405.383C224.219 405.532 229.879 405.181 235.486 405.383C241.564 405.599 247.111 405.45 253.152 405.383C254.593 405.368 277.351 407.526 271.594 402.784C271.377 402.605 269.093 402.411 268.734 402.262C269.1 400.649 265.598 394.362 264.575 392.914L321.724 392.391C321.754 392.593 322.03 393.19 322.246 393.952C300.691 401.829 318.125 405.487 330.303 406.943C342.675 405.196 399.875 411.207 406.677 403.83C407.887 402.516 408.686 398.252 405.378 397.595C405.356 396.214 405.408 394.818 405.378 393.436H420.96C421.886 394.863 423.678 396.707 425.373 397.073C426.568 397.326 448.594 397.319 449.788 397.073C450.02 397.028 452.812 395.348 453.163 394.997L498.104 400.709V401.747C496.708 401.985 495.214 402.941 493.945 403.307C481.797 406.809 400.286 411.363 381.724 412.14C337.919 413.969 293.598 414.357 249.762 414.216C207.905 414.081 165.861 413.178 124.034 411.617C97.4015 410.624 38.5285 408.414 15.4497 405.383C11.5298 404.868 -5.15027 403.008 2.45805 400.186C7.23658 398.417 42.2767 394.579 50.5122 394.989C53.4465 399.208 74.6736 396.169 80.3855 396.55C81.0649 396.259 82.2745 395.042 82.7225 394.989C87.0754 394.519 92.3094 394.915 96.7519 394.989C99.3129 400.619 103.808 395.99 106.623 394.989C108.079 394.467 110.737 394.556 112.334 394.467C112.394 395.258 112.073 397.73 112.596 398.103C116.098 397.64 118.487 399.641 120.129 396.027C126.431 397.655 134.383 395.856 141.17 395.505C145.874 395.258 152.19 396.834 155.461 393.944C157.521 399.581 164.771 395.012 165.331 394.982C167.556 394.87 170.326 396.057 172.342 396.02C176.636 395.945 181.041 395.034 185.334 395.497C185.565 395.52 186.133 396.505 186.372 396.535C186.775 396.595 186.581 395.49 186.633 395.497C187.85 395.669 193.353 401.53 196.504 392.899C200.259 392.749 202.231 390.51 204.299 393.937L204.321 393.952Z" fill="#F9DCAD"/>
<path d="M405.378 397.588C408.686 398.245 407.887 402.508 406.677 403.822C399.883 411.207 342.675 405.196 330.303 406.936C318.125 405.48 300.698 401.829 322.247 393.944C323.493 398.334 323.628 396.804 326.921 398.618C327.802 399.103 330.236 402.956 331.595 398.618C341.57 399.305 377.618 397.707 381.732 398.618C385.219 399.395 389.437 408.429 396.538 390.823C396.717 392.167 396.978 397.2 397.837 397.58C400.054 397.842 403.564 397.222 405.371 397.58L405.378 397.588Z" fill="#F2D08A"/>
<path d="M321.739 386.164C321.836 388.128 321.485 390.771 321.739 392.399L264.591 392.921C264.337 392.563 263.762 392.899 258.879 386.164H321.739Z" fill="#FAEACE"/>
<path d="M155.484 392.399C155.528 392.951 155.379 393.668 155.484 393.959C152.213 396.849 145.904 395.273 141.193 395.52C134.406 395.87 126.454 397.662 120.152 396.042C120.69 394.855 120.518 393.601 120.675 392.929C125.424 391.727 152.146 390.756 154.184 391.368C154.789 391.547 153.841 393.631 155.484 392.406V392.399Z" fill="#F9DCAD"/>
<path d="M185.095 391.353C184.96 392.772 185.834 394.392 186.655 395.512C186.603 395.512 186.805 396.61 186.394 396.55C186.155 396.513 185.588 395.534 185.356 395.512C181.063 395.049 176.658 395.953 172.365 396.035C170.341 396.072 167.579 394.885 165.354 394.997C165.816 393.309 166.339 392.824 166.391 390.838C167.138 390.748 166.765 391.831 167.168 391.876C169.602 392.137 180.884 390.569 185.095 391.353Z" fill="#F9DCAD"/>
<path d="M112.365 394.474C110.767 394.556 108.109 394.474 106.653 394.997L105.615 387.986L112.888 385.649C112.664 387.844 112.231 392.72 112.365 394.482V394.474Z" fill="white"/>
<path d="M345.377 31.8434C376.482 29.3422 373.413 79.8975 342.263 73.4092C320.834 68.9442 322.156 33.7175 345.377 31.8434Z" fill="#F9A41B"/>
<path d="M346.415 39.1157C355.957 37.7568 348.423 61.0447 348.752 52.3612C348.766 51.8834 351.619 45.8878 350.827 43.0132C349.849 39.4443 342.786 38.9589 344.593 47.6872C344.772 48.5533 349.274 54.4742 345.369 51.5847C343.114 49.9197 342.756 39.6384 346.407 39.1157H346.415Z" fill="#FAF1C8"/>
<path d="M357.846 57.2966C360.444 60.5072 349.603 65.435 344.855 64.5689C342.196 64.0836 332.61 56.6918 337.582 57.8118C338.784 58.0806 346.549 71.2589 357.846 57.2891V57.2966Z" fill="#ECE9D0"/>
<path d="M31.0543 151.852C36.9229 151.15 56.709 150.635 59.8897 155.749C61.8161 158.848 63.608 186.974 58.0679 189.259C51.7737 191.85 42.0449 185.652 37.2888 194.971C36.5347 185.66 25.3872 192.97 22.4828 185.876C21.6018 183.734 21.6391 159.229 22.4828 156.78C23.7372 153.151 27.7765 152.24 31.0543 151.844V151.852Z" fill="#2F83A2"/>
<path d="M40.4091 159.124C49.7422 158.101 53.1917 172.825 44.0453 174.707C31.203 177.35 30.1876 160.237 40.4091 159.124Z" fill="white"/>
<path d="M79.6316 74.9622C78.0412 74.0961 76.1373 73.566 74.6963 72.3639C73.0611 72.2444 70.866 73.9318 69.2383 74.9622C72.7027 65.995 75.5176 66.1443 79.6316 74.9622Z" fill="#ECE9D0"/>
<path d="M82.2289 79.121C82.4678 79.345 85.0139 84.3475 84.0507 85.3555C77.7565 85.9304 71.2383 86.4904 65.0859 85.0942L68.1994 78.5984C68.4608 78.7701 71.4996 79.0837 73.6574 81.7119C77.9506 82.3017 79.1229 76.1867 82.2289 79.1136V79.121Z" fill="white"/>
<path d="M68.2004 78.5983L65.0869 85.0942C71.2392 86.4904 77.7575 85.9229 84.0517 85.3555C85.0223 84.3475 82.4688 79.345 82.2299 79.121L83.7904 78.0832C86.538 80.9727 87.8446 85.1315 88.203 85.3555C89.8233 86.3485 94.5943 84.2803 95.7367 89.253C96.2444 91.4556 96.2967 132.26 95.7367 134.455C95.4082 135.739 92.5186 138.091 91.324 138.352C89.7486 138.696 60.6966 138.659 59.1137 138.352C57.5308 138.046 54.6114 136.12 54.1784 134.455C53.6035 132.245 53.6109 90.9479 54.1784 88.7378C55.0072 85.5272 59.1809 85.7139 61.712 85.8781C62.7126 85.4078 62.1078 81.7343 66.6474 77.0453C68.4916 76.9632 68.1108 78.5461 68.2079 78.6058L68.2004 78.5983Z" fill="#F27F32"/>
<path d="M85.0892 116.005C85.918 120.306 67.4236 114.445 67.1622 119.903C66.9532 124.256 75.6367 121.493 84.0439 122.24V123.278C72.8293 122.516 63.8098 126.033 66.6396 118.342C59.7331 116.797 76.5177 116.453 84.0439 117.043C84.1559 117.051 84.7084 116.304 85.0817 116.005H85.0892Z" fill="#EFBF4A"/>
<path d="M79.6323 74.9622C81.6631 76.0598 82.1783 76.3883 83.7911 78.0757L82.2306 79.1135C79.1245 76.1867 77.9523 82.3017 73.6591 81.7119C71.5088 79.0837 68.4699 78.7626 68.2011 78.5984C68.1115 78.5386 68.4848 76.9557 66.6406 77.0379C67.8875 75.7536 67.7606 75.8955 69.239 74.9622C70.8666 73.9318 73.0618 72.2444 74.6969 72.3639C76.138 73.566 78.0419 74.0961 79.6323 74.9622Z" fill="#F8B51F"/>
<path d="M73.1433 74.9622C80.4006 73.2001 78.086 82.3465 72.6206 79.6362C70.0447 78.3594 70.3583 75.6342 73.1433 74.9622Z" fill="#ECE9D0"/>
<path d="M178.345 126.914C176.778 125.801 179.555 124.315 177.046 122.755C167.34 120.784 177.076 122.352 177.308 119.895C174.903 115.61 175.613 107.934 168.736 109.248C167.833 109.42 153.594 117.207 152.631 118.081C150.092 120.396 149.099 122.538 148.218 125.876C142.499 120.119 140.222 129.049 147.18 133.671C147.24 134.873 149.129 140.01 149.256 141.466C149.443 143.571 149.764 145.565 149.779 147.7C149.816 153.255 150.391 155.174 145.62 158.609C145.411 158.758 141.834 160.281 140.946 160.685C131.284 165.12 127.23 162.193 122.243 175.752C97.215 149.798 128.119 145.655 131.075 128.736C132.36 121.389 129.41 107.449 139.647 99.9001C142.111 98.0858 159.44 92.8219 162.509 92.6278C180.152 91.5078 191.36 110.286 178.353 126.914H178.345Z" fill="#5D2C29"/>
<path d="M174.709 164.321C173.507 163.514 168.243 160.438 167.952 160.162C167.407 159.654 166.877 158.676 166.391 158.086C164.517 155.503 164.293 150.709 165.353 147.693C169.109 147.715 174.067 143.758 175.747 140.421C182.519 148.79 184.751 157.556 174.709 164.321Z" fill="#3C1A1E"/>
<path d="M257.31 397.588C261.14 399.492 264.851 400.656 268.741 402.262C269.1 402.411 271.384 402.605 271.601 402.784C277.357 407.526 254.6 405.368 253.159 405.383C250.904 399.663 249.612 397.491 244.065 394.474C242.885 395.393 245.767 403.994 240.951 402.269C238.913 401.538 239.727 395.564 239.652 393.436C239.547 390.472 240.204 387.336 240.175 384.604C243.811 390.98 250.934 394.415 257.317 397.595L257.31 397.588Z" fill="#202C41"/>
<path d="M235.493 405.383C229.886 405.181 224.226 405.532 218.611 405.383C216.954 397.625 214.064 398.879 208.741 394.474C209.047 403.718 205 403.061 204.328 393.952C203.962 389.054 204.283 386.948 205.888 382.52C206.374 389.218 219.246 396.43 225.368 399.148C230.236 401.314 235.642 399.492 235.5 405.383H235.493Z" fill="#202C41"/>
<path d="M164.84 253.164C160.793 259.742 130.688 265.67 122.236 263.557C119.623 259.75 125.059 247.579 126.395 242.256C131.219 244.04 162.615 244.615 164.325 243.032C164.541 242.831 163.862 241.255 164.847 241.21C165.9 243.98 166.266 250.85 164.847 253.157L164.84 253.164Z" fill="#F9A41B"/>
<path d="M179.907 225.105C181.512 212.539 187.232 203.236 185.104 189.52C184.111 183.106 177.943 172.788 179.907 168.48C189.091 175.67 191.659 206.305 202.769 222.768C186.821 233.699 181.975 220.416 179.907 225.105Z" fill="#F28521"/>
<path d="M153.408 240.695C157.014 240.867 160.703 240.658 164.316 240.695C164.488 240.695 164.66 240.695 164.839 240.695V241.218C163.861 241.263 164.533 242.838 164.316 243.04C162.607 244.615 131.218 244.048 126.387 242.263C126.663 241.173 126.297 239.739 126.909 238.627C131.359 239.478 147.778 240.441 153.408 240.703V240.695Z" fill="#F27F32"/>
<path d="M177.309 166.919C178.227 167.367 179.108 167.852 179.907 168.48C177.943 172.788 184.103 183.106 185.104 189.52C187.231 203.236 181.512 212.539 179.907 225.105C179.735 225.501 179.451 225.74 179.384 226.143C174.919 225.658 169.85 226.165 165.355 225.62C164.108 225.471 154.932 222.425 154.446 223.283L153.408 240.688C147.786 240.426 131.36 239.456 126.91 238.612C113.806 236.111 114.725 230.899 115.479 218.609C115.68 215.279 118.159 201.466 119.115 194.971C119.66 191.267 122.975 178.432 122.228 175.744C127.216 162.185 131.27 165.112 140.932 160.677C153.67 167.419 158.135 179.074 166.646 189.774C175.106 168.823 166.475 161.603 177.294 166.912L177.309 166.919Z" fill="#F9A41B"/>
<path d="M141.201 195.493C143.202 196.217 141.53 197.166 141.978 199.906C143.105 206.745 144.628 213.525 145.353 220.424L135.743 218.602C135.042 215.503 139.701 196.016 141.201 195.486V195.493Z" fill="#F9A41B"/>
<path d="M173.673 255.24C173.673 255.591 173.546 256.188 173.935 256.278C181.162 258.04 188.315 259.451 195.498 261.474C199.866 262.706 204.129 264.349 208.489 265.633C212.439 268.657 221.69 273.376 224.072 277.841C229.313 287.637 224.064 335.825 224.595 339.663C224.677 340.245 226.103 340.484 226.155 340.701C226.342 341.515 225.946 342.903 226.155 343.56C224.206 344.113 225.513 347.921 225.117 351.094C223.982 360.278 218.995 376.48 218.883 377.846C212.193 380.4 210.52 377.869 210.05 377.846C205.368 358.464 203.382 338.043 202.255 318.1C202.15 316.233 202.882 313.344 202.778 311.089C202.778 310.94 201.755 308.617 201.74 308.229C201.665 306.363 202.68 292.609 202.001 292.124L175.764 288.488C171.792 286.524 168.857 274.578 158.882 272.383C151.976 270.86 120.826 274.548 118.877 273.421L122.252 263.55C130.696 265.663 160.809 259.735 164.855 253.157C167.737 255.187 170.478 255.046 173.688 255.232L173.673 255.24Z" fill="#335988"/>
<path d="M224.588 269.269C228.926 270.643 234.048 272.159 236.019 276.803C235.772 293.856 249.593 362.451 249.526 369.798C249.511 371.209 249.6 372.142 248.488 373.172C247.427 374.158 242.059 374.852 240.178 374.733C237.288 368.737 227.089 346.51 226.148 343.56C225.939 342.903 226.335 341.522 226.148 340.701C226.096 340.477 224.67 340.245 224.588 339.663C224.057 335.818 229.314 287.637 224.065 277.841C221.676 273.376 212.425 268.65 208.482 265.633C214.769 267.485 222.258 268.53 224.588 269.269Z" fill="#2A4170"/>
<path d="M201.724 308.229C197.998 308.102 190.509 308.267 187.433 306.669C185.806 305.825 174.449 291.213 175.741 288.488L201.978 292.124C202.657 292.609 201.642 306.363 201.717 308.229H201.724Z" fill="#17354A"/>
<path d="M210.032 377.846C210.502 377.869 212.175 380.4 218.865 377.846C218.529 382.073 220.537 384.029 222.501 387.194C228.392 396.692 228.72 395.087 237.568 393.429C238.21 393.31 238.979 393.504 239.644 393.429C239.719 395.557 238.905 401.53 240.943 402.262C245.759 403.987 242.884 395.385 244.057 394.467C249.604 397.483 250.896 399.656 253.151 405.375C247.118 405.443 241.563 405.592 235.485 405.375C235.627 399.484 230.229 401.306 225.353 399.141C219.231 396.423 206.351 389.218 205.873 382.513C206.963 379.504 205.455 377.652 210.032 377.839V377.846Z" fill="#F8C89C"/>
<path d="M258.871 386.164C263.755 392.891 264.329 392.555 264.583 392.921C265.599 394.37 269.101 400.656 268.742 402.269C264.86 400.664 261.141 399.499 257.311 397.595C261.53 394.243 242.206 386.59 241.206 383.304C240.661 381.527 242.557 377.391 240.168 377.331V374.733C242.05 374.852 247.418 374.158 248.478 373.172C252.712 376.443 255.653 381.736 258.871 386.164Z" fill="#F9AC82"/>
<path d="M179.383 226.143C186.775 226.949 194.413 231.556 201.462 226.143C211.564 226.053 222.047 224.246 231.858 227.181C231.768 227.435 231.537 229.421 230.297 232.377C222.935 230.011 225.81 232.863 224.839 233.415C222.039 235.013 208.204 228.495 207.958 237.051C207.465 237.051 206.24 238.089 206.136 238.089C202.903 238.127 192.233 235.872 191.33 239.127C182.646 242.129 173.731 240.755 164.831 240.688C164.66 240.688 164.488 240.688 164.309 240.688L165.346 225.62C169.834 226.158 174.911 225.65 179.376 226.143H179.383Z" fill="#F79B83"/>
<path d="M145.612 158.609C152.683 160.699 164.651 172.295 167.951 160.169C168.243 160.438 173.499 163.514 174.709 164.328C175.276 164.709 177.389 166.232 177.307 166.927C166.481 161.618 175.112 168.83 166.66 189.789C158.148 179.089 153.683 167.442 140.945 160.692C141.834 160.281 145.41 158.766 145.619 158.616L145.612 158.609Z" fill="white"/>
<path d="M227.697 237.574C226.898 239.023 227.458 239.948 226.137 239.65C223.912 238.873 199.101 240.553 191.328 239.127C192.232 235.872 202.901 238.127 206.134 238.089C206.239 238.089 207.463 237.051 207.956 237.051C214.511 237.007 221.112 238.052 227.697 237.574Z" fill="#8D7988"/>
<path d="M230.297 232.378C229.483 234.311 228.699 235.76 227.698 237.574C221.113 238.052 214.513 237.014 207.957 237.051C208.203 228.495 222.046 235.013 224.839 233.415C225.802 232.863 222.935 230.011 230.297 232.378Z" fill="#EB8269"/>
<path d="M165.353 225.628L164.315 240.695C160.701 240.658 157.013 240.867 153.406 240.695L154.444 223.291C154.929 222.432 164.113 225.478 165.353 225.628Z" fill="white"/>
<path d="M166.398 158.086C166.884 158.684 167.414 159.662 167.959 160.162C164.659 172.295 152.69 160.692 145.619 158.601C150.39 155.167 149.815 153.248 149.778 147.693C151.107 149.903 150.771 147.118 151.6 147.17C152.264 147.215 157.237 152.038 163.546 152.882C164.45 157.549 166.122 157.735 166.406 158.079L166.398 158.086Z" fill="#F9AC82"/>
<path d="M165.353 147.693C164.293 150.709 164.517 155.495 166.391 158.086C166.107 157.743 164.442 157.556 163.531 152.89C157.214 152.038 152.249 147.223 151.585 147.178C150.763 147.118 151.099 149.903 149.763 147.7C149.748 145.565 149.427 143.571 149.24 141.466C153.421 141.063 155.549 145.61 165.084 146.663C165.517 146.707 165.293 147.7 165.345 147.7L165.353 147.693Z" fill="#F9AC82"/>
<path d="M148.21 125.876C148.068 126.421 147.15 133.275 147.172 133.671C140.214 129.049 142.491 120.127 148.21 125.876Z" fill="#F49851"/>
<path d="M178.345 126.914L177.307 138.084C176.851 138.89 176.157 139.607 175.746 140.421C174.074 143.758 169.116 147.715 165.353 147.693C165.301 147.693 165.525 146.7 165.092 146.655C155.55 145.602 153.429 141.055 149.248 141.458C149.121 140.002 147.225 134.866 147.172 133.663C147.15 133.268 148.068 126.414 148.21 125.868C149.091 122.531 150.084 120.396 152.623 118.073C153.586 117.2 167.824 109.412 168.728 109.241C175.605 107.927 174.895 115.602 177.299 119.888C177.068 122.344 167.339 120.776 177.038 122.748C179.547 124.301 176.769 125.794 178.337 126.906L178.345 126.914Z" fill="#F9AC82"/>
<path d="M161.978 138.86L171.588 139.637C167.25 145.617 160.463 139.786 161.978 138.86Z" fill="white"/>
<path d="M158.342 125.353C160.993 124.801 161.291 129.355 159.902 130.027C156.513 131.67 156.192 125.801 158.342 125.353Z" fill="#272026"/>
<path d="M172.886 125.353C174.499 124.002 176.41 130.266 174.446 131.065C171.945 132.081 172.393 125.764 172.886 125.353Z" fill="#3C1A1E"/>
<path d="M158.865 120.679C160.411 120.657 161.471 121.418 163.024 121.202V122.24L153.93 121.978C155.065 121.605 158.611 120.679 158.865 120.679Z" fill="#784330"/>
<path d="M257.311 397.588C250.927 394.407 243.804 390.973 240.168 384.596C240.138 382.177 240.19 379.743 240.168 377.324C242.564 377.384 240.66 381.52 241.206 383.297C242.206 386.582 261.529 394.235 257.311 397.588Z" fill="#F9AC82"/>
<path d="M234.457 245.369C235.084 242.801 232.284 244.137 228.222 243.809C227.991 242.621 227.334 240.068 226.146 239.65C227.468 239.948 226.908 239.023 227.707 237.574C228.707 235.76 229.491 234.311 230.305 232.377C231.545 229.428 231.769 227.435 231.866 227.181C231.97 226.897 232.851 226.569 234.464 221.723C236.473 215.69 242.804 185.197 247.71 184.055C251.077 183.271 313.392 183.539 316.804 184.055C318.947 184.376 323.315 186.063 323.815 188.467C324.502 191.752 307.262 238.836 303.813 245.877C280.689 246.28 257.55 245.563 234.457 245.354V245.369Z" fill="#C0CCDA"/>
<path d="M276.277 203.803C290.545 200.757 285.736 218.393 279.913 219.908C267.085 223.246 269.154 205.319 276.277 203.803Z" fill="#F7F5EA"/>
<path d="M273.162 207.962C277.642 214.585 283.727 216.526 278.62 212.375C285.004 204.221 281.644 215.63 279.919 216.272C274.588 218.258 274.29 210.896 273.162 207.962Z" fill="#E5D057"/>
<path d="M439.41 37.5552C449.049 42.6324 457.128 41.5349 454.216 48.2024C451.14 55.2433 445.726 47.5678 445.122 47.4259C440.769 46.4105 440.059 56.8262 432.914 41.4527L439.41 37.5552Z" fill="#F8B51F"/>
<path d="M98.5955 39.1157C100.477 41.9082 107.003 45.8281 106.129 49.2477C105.92 50.0616 98.6254 58.4539 92.3611 52.1074C87.0375 46.7091 93.705 47.0376 98.5955 39.1157Z" fill="#F9A41B"/>
<path d="M466.424 17.2913C474.615 23.6452 473.144 25.0041 465.902 31.8359C459.339 24.8921 458.271 23.1151 466.424 17.2913Z" fill="#F49851"/>
<path d="M92.8839 0.670929C95.4972 0.260274 100.918 4.84468 100.418 7.16675C100.313 7.6446 95.2284 12.8413 92.3613 12.1021C91.988 12.005 86.9481 7.03235 86.9033 6.6441C86.8212 5.85265 91.9954 0.805326 92.8765 0.670929H92.8839Z" fill="#79B2BD"/>
<path d="M180.683 11.0567C183.64 10.3474 187.119 16.0593 187.179 16.5147C187.53 19.1952 182.908 22.8015 179.645 21.4501C172.037 18.3067 179.473 11.3479 180.683 11.0567Z" fill="#79B2BD"/>
<path d="M423.305 9.50373C429.928 8.45096 430.197 19.449 424.343 19.897C418.758 20.3226 417.885 10.3624 423.305 9.50373Z" fill="#F8B51F"/>
<path d="M444.607 3.26929C453.88 0.558962 452.297 16.7313 444.084 11.5795C439.44 8.66753 442.793 3.7994 444.607 3.26929Z" fill="#F8B51F"/>
<path d="M21.1842 125.876C21.5127 125.876 25.5819 130.154 25.5969 130.811C25.6267 131.834 21.55 135.836 20.6615 135.747C20.333 135.709 16.1817 131.409 16.2489 130.811C16.2862 130.468 20.8333 125.876 21.1842 125.876Z" fill="#F49851"/>
<path d="M37.2903 223.029C37.6561 223.007 42.6512 227.606 42.7482 227.965C43.0469 229.085 38.3654 231.795 38.3356 233.423C37.783 232.377 33.4898 229.324 33.4002 229.01C33.1762 228.189 36.9393 223.059 37.2977 223.037L37.2903 223.029Z" fill="#F8B51F"/>
<path d="M464.349 93.6656C465.573 93.4416 469.082 97.1002 469.284 97.5631C471.912 103.521 459.271 103.701 461.489 96.5253C461.549 96.3312 464.147 93.703 464.349 93.6656Z" fill="#B9C76D"/>
<path d="M429.017 74.4395C429.973 74.2902 434.49 77.2917 433.953 79.3748C433.789 80.0095 429.234 82.9961 427.98 82.7497C427.726 82.6974 424.105 79.6287 424.082 79.3748C424.052 79.0239 428.674 74.4918 429.017 74.4395Z" fill="#E5D057"/>
<path d="M144.313 39.6309C147.651 39.3546 150.301 46.8659 145.351 47.9411C139.662 49.1805 139.49 40.0341 144.313 39.6309Z" fill="#60A2B0"/>
<path d="M317.319 9.50377C321.008 8.77205 325.353 16.455 318.357 17.2987C311.958 18.0678 314.064 10.1459 317.319 9.50377Z" fill="#F49851"/>
<path d="M127.171 79.6362C129.717 79.2778 132.077 82.1897 132.107 82.4959C132.166 83.0932 128.508 86.9085 128.209 86.9085C127.522 86.9085 120.631 80.5546 127.171 79.6362Z" fill="#EFBF4A"/>
<path d="M61.1894 45.3502C64.1311 45.3502 61.8165 52.854 60.1515 53.1452C59.8603 53.1975 54.7607 51.4503 54.6935 50.8082C54.6562 50.3826 60.7638 45.3502 61.1894 45.3502Z" fill="#F8B51F"/>
<path d="M71.3206 39.6309C69.2823 39.1829 70.4097 36.1814 68.2071 37.0326C68.1623 36.9206 66.5794 36.3382 66.6466 35.2108C66.9677 30.1112 74.2101 31.6269 73.9189 35.7334C73.904 35.9649 72.4107 37.8688 71.3206 39.6309Z" fill="#E5D057"/>
<path d="M390.057 77.5605C394.439 76.8736 394.895 83.795 390.579 84.3177C385.972 84.8702 387.279 78.001 390.057 77.5605Z" fill="#9DC2BC"/>
<path d="M409.276 108.733C409.851 108.673 413.719 112.339 413.689 112.63C413.555 114.027 409.299 115.669 407.716 114.967C403.221 112.981 408.836 108.778 409.276 108.733Z" fill="#F1AD62"/>
<path d="M57.5525 263.035C65.4819 262.184 59.0085 269.254 58.0752 269.269C57.4032 269.277 53.6774 265.67 53.6625 265.372C53.6177 264.55 57.336 263.057 57.56 263.035H57.5525Z" fill="#E5D057"/>
<path d="M39.3721 135.747C43.837 133.94 45.7783 140.48 41.9704 141.458C37.8414 142.526 37.0575 136.68 39.3721 135.747Z" fill="#ECE9D0"/>
<path d="M222.764 156.011C230.2 160.431 224.854 163.753 224.324 163.806C224.085 163.828 220.927 160.67 220.949 160.431C220.972 160.132 222.017 159.684 222.771 156.018L222.764 156.011Z" fill="#E5D057"/>
<path d="M487.21 131.588C488.248 131.618 489.92 139.286 487.732 139.898C485.679 140.473 483.992 134.111 487.21 131.588Z" fill="white"/>
<path d="M140.162 18.3291C140.917 17.8214 147.338 24.9668 138.863 24.3022C139.125 22.7866 138.654 19.3445 140.162 18.3291Z" fill="#F7F5EA"/>
<path d="M457.076 62.4932C458.405 62.3439 462.086 69.885 462.012 71.0647C461.78 74.8577 455.396 62.6799 457.076 62.4932Z" fill="#EFBF4A"/>
<path d="M197.825 145.095C202.559 144.796 199.587 149.649 198.348 149.769C196.713 149.933 193.442 145.371 197.825 145.095Z" fill="#EFBF4A"/>
<path d="M76.7797 59.8949C79.7737 60.2458 77.8549 64.0761 77.3023 64.5689C77.0858 64.7555 73.0091 63.3518 73.9275 61.194C73.9872 61.0522 76.6304 59.8799 76.7872 59.8949H76.7797Z" fill="#ECE9D0"/>
<path d="M313.683 80.674C316.378 80.1962 316.393 84.6387 314.72 87.9464C314.243 86.3485 311.293 81.0921 313.683 80.674Z" fill="#E5D057"/>
<path d="M33.6536 215.234C35.789 214.772 36.2296 220.961 34.6915 222.507C33.9075 222.873 32.3246 215.518 33.6536 215.234Z" fill="#F9DCAD"/>
<path d="M497.081 186.66C498.403 186.048 499.224 188.251 499.418 188.997C501.143 195.687 493.385 188.37 497.081 186.66Z" fill="#ECE9D0"/>
<path d="M477.332 116.52C477.862 116.483 478.168 116.431 478.631 116.782C481.804 119.171 479.512 128.123 477.332 116.52Z" fill="#ECE9D0"/>
<path d="M259.133 41.7141C264.374 41.5647 257.11 46.948 256.273 43.5359C255.952 42.2367 258.05 41.7514 259.133 41.7141Z" fill="#F2D08A"/>
<path d="M155.222 65.0915C157.373 63.8073 160.695 70.3479 153.4 67.4285C156.282 67.0552 153.714 65.9875 155.222 65.0915Z" fill="#E5D057"/>
<path d="M385.375 120.164C387.996 121.038 388.354 124.338 386.936 126.399L385.375 120.164Z" fill="#E5D057"/>
<path d="M409.275 42.2292C405.691 47.1496 414.935 44.8276 408.237 46.9033C405.781 44.8873 406.916 43.4836 409.275 42.2292Z" fill="#E5D057"/>
<path d="M443.047 80.674C449.961 81.1593 450.424 84.7582 443.047 81.7118V80.674Z" fill="#E5D057"/>
<path d="M477.332 40.6687C477.631 40.5045 481.185 45.2905 481.229 45.6041C481.745 49.5912 476.391 41.1765 477.332 40.6687Z" fill="#E5D057"/>
<path d="M71.3222 39.6309C70.5232 40.9226 71.0608 41.9604 70.023 41.7065C69.463 40.1237 68.806 38.593 68.2012 37.0326C70.4038 36.1814 69.2838 39.1829 71.3147 39.6309H71.3222Z" fill="#737331"/>
<path d="M461.75 87.4312C464.759 87.3565 461.862 90.9703 460.713 90.5447C458.921 89.8877 460.526 87.4536 461.75 87.4312Z" fill="#EDE5A7"/>
<path d="M134.965 69.7655C138.937 69.4146 131.866 75.1787 131.59 72.6252C131.568 72.4087 134.748 69.7879 134.965 69.7655Z" fill="#E5D057"/>
<path d="M296.539 48.4637C297.256 48.7549 301.519 47.732 301.474 49.2402C301.459 49.7853 296.703 51.1068 296.539 48.4637Z" fill="#E6A93F"/>
<path d="M180.161 40.6688C180.945 40.8256 181.019 41.9679 180.161 42.2293C173.075 44.3572 173.732 39.3995 180.161 40.6688Z" fill="#E59B45"/>
<path d="M110.028 81.1967C112.305 81.1145 115.516 84.6387 108.467 82.7572C107.84 82.3166 109.916 81.2041 110.028 81.1967Z" fill="#D7C478"/>
<path d="M218.09 38.0779C218.217 38.0853 218.277 39.5264 219.912 39.8997C213.446 42.9012 217.037 37.9957 218.09 38.0779Z" fill="#F2D08A"/>
<path d="M40.9264 64.5688C42.5466 65.4275 40.0379 67.1224 38.8507 70.2807L38.0742 69.5042L40.9339 64.5688H40.9264Z" fill="#E6A93F"/>
<path d="M127.171 44.8276C127.731 44.835 128.321 44.6782 128.47 45.0889C124.386 48.5533 118.114 44.6932 127.171 44.8276Z" fill="#F49851"/>
<path d="M26.3816 95.7413C27.9869 95.6741 26.4339 101.117 25.3438 101.453L26.3816 95.7413Z" fill="#E5D057"/>
<path d="M463.826 75.4774C466.663 84.6835 462.206 80.241 463.05 76.2539C463.087 76.0821 463.602 75.7835 463.826 75.4774Z" fill="#F9A41B"/>
<path d="M473.181 107.172C475.884 113.452 465.125 108.322 472.658 109.248L473.181 107.172Z" fill="#EDE5A7"/>
<path d="M65.8629 254.202C67.5354 254.187 65.5269 259.294 64.8251 258.876C64.1232 258.465 65.2432 254.202 65.8629 254.202Z" fill="#E5D057"/>
<path d="M238.354 10.5416L241.213 12.8786C238.869 13.7073 236.599 13.0727 238.354 10.5416Z" fill="#DDD57C"/>
<path d="M471.621 261.474C473.674 261.975 470.621 265.043 470.061 264.588C468.761 263.535 470.591 261.22 471.621 261.474Z" fill="#ECE9D0"/>
<path d="M449.28 55.2208C452.789 54.7281 453.454 61.2164 449.28 56.7813C448.758 56.2288 448.145 55.3851 449.28 55.2208Z" fill="#F8B51F"/>
<path d="M23.2681 114.445C23.5742 114.624 23.7161 118.283 23.5294 118.858C22.3721 122.359 22.0063 113.713 23.2681 114.445Z" fill="#F49851"/>
<path d="M275.76 47.9485C276.417 49.3373 279.15 48.8296 279.135 49.7704C279.113 51.1666 274.61 50.7783 275.76 47.9485Z" fill="#F2D08A"/>
<path d="M32.1007 80.674L32.8772 81.4505C30.6821 88.1853 29.7339 85.8632 32.1007 80.674Z" fill="#DEB670"/>
<path d="M47.6827 56.7814C49.1611 56.7067 48.1307 57.2816 46.9062 58.6032C43.2551 62.5156 44.0316 59.0885 47.6827 56.7814Z" fill="#F1AD62"/>
<path d="M57.5537 291.086C58.584 290.959 58.1883 291.601 57.815 292.385C55.8961 296.38 52.8647 295.066 57.5537 291.086Z" fill="#F2D08A"/>
<path d="M485.651 293.685C489.264 292.161 486.8 296.283 486.173 296.283C485.867 296.283 484.299 294.259 485.651 293.685Z" fill="#EDE5A7"/>
<path d="M248.225 40.6687C253.698 40.2954 253.66 42.0874 248.225 41.7066V40.6687Z" fill="#F9A41B"/>
<path d="M230.559 39.6309C235.196 38.8171 238.578 41.1541 230.037 40.6688C229.499 40.497 230.38 39.6608 230.559 39.6309Z" fill="#F1AD62"/>
<path d="M403.041 81.1967C407.051 81.5028 401.107 84.3401 400.704 82.4959C400.645 82.2271 402.907 81.1892 403.041 81.1967Z" fill="#EDE5A7"/>
<path d="M34.1754 208.485C35.7508 207.574 33.9663 217.43 33.9141 208.746C33.9887 208.642 34.0709 208.545 34.1754 208.485Z" fill="#F8B51F"/>
<path d="M43.5237 250.566C43.8597 250.409 45.3231 253.157 45.8607 253.425C44.9797 255.494 42.583 251.014 43.5237 250.566Z" fill="#E5D057"/>
<path d="M37.8123 236.536C38.1557 236.633 38.9247 239 38.5888 239.911C37.6181 242.577 36.8043 236.253 37.8123 236.536Z" fill="#DDD57C"/>
<path d="M156.268 41.7141C158.687 41.0421 163.525 43.2969 155.745 42.7519C155.215 42.6026 156.022 41.7813 156.268 41.7141Z" fill="#D77328"/>
<path d="M41.4473 124.838C42.612 124.569 42.403 127.115 41.9699 127.436C40.387 128.601 40.7678 125.742 41.4473 124.838Z" fill="#ECE9D0"/>
<path d="M193.152 40.1536C196.198 40.2805 194.026 41.9903 189.777 40.9301C192.704 40.7434 192.98 40.1461 193.152 40.1536Z" fill="#F49851"/>
<path d="M24.3053 104.574C24.7309 104.821 24.7234 107.479 24.3053 107.688C22.9091 108.39 23.6035 104.163 24.3053 104.574Z" fill="#E5D057"/>
<path d="M347.969 77.0378C349.738 76.8288 350.373 79.009 347.969 78.5983C347.125 78.449 347.215 77.1274 347.969 77.0378Z" fill="#EDE5A7"/>
<path d="M35.2129 198.607C35.855 198.233 36.5942 201.899 35.2129 201.205C34.7948 200.996 34.7873 198.853 35.2129 198.607Z" fill="#F9DCAD"/>
<path d="M110.542 78.5984C111.662 78.0384 111.662 81.2415 110.542 80.674C110.124 80.465 110.124 78.8074 110.542 78.5984Z" fill="#ECE9D0"/>
<path d="M486.687 291.086C488.225 291.818 485.022 292.721 484.865 291.863C484.85 291.766 486.598 291.041 486.687 291.086Z" fill="#ECE9D0"/>
<path d="M285.109 53.6604C286.199 53.2871 286.953 54.198 286.147 54.6982C285.684 54.9894 284.497 53.8695 285.109 53.6604Z" fill="#F9DCAD"/>
<path d="M26.3799 141.981C26.4695 141.944 27.1191 143.146 26.9026 143.542C26.0663 145.027 25.7528 142.257 26.3799 141.981Z" fill="#F27F32"/>
<path d="M262.768 35.9948C262.835 35.9574 264.097 36.7041 264.067 36.7713C263.687 37.6747 261.559 36.6219 262.768 35.9948Z" fill="#EDE5A7"/>
<path d="M315.243 51.0621L315.504 51.3234V51.8386L315.243 52.0999H314.72L314.459 51.8386L314.72 51.5847L314.982 51.3234L315.243 51.0621Z" fill="#EDE5A7"/>
<path d="M47.6832 212.636H48.2059L48.4597 212.898V213.42L48.2059 213.674L47.9445 213.42L47.6832 213.159L47.4219 212.898L47.6832 212.636Z" fill="#EDE5A7"/>
<path d="M121.713 319.66C119.48 339.954 116.232 360.173 113.918 380.445C107.922 382.252 100.725 381.692 96.2522 386.679C94.1766 387.814 96.2074 387.605 96.2522 387.717C97.9322 391.973 95.1696 391.465 96.7749 394.989C92.3324 394.915 87.0984 394.519 82.7454 394.989C85.7917 385.97 88.1885 371.112 89.5026 361.219C89.5698 360.718 89.4354 360.158 89.5026 359.658C89.5698 359.15 92.071 354.058 89.7639 349.788C82.5513 349.802 75.3984 349.399 68.2008 349.265C68.7309 344.852 67.6184 339.148 67.6781 337.319H68.2008L71.8369 339.917C71.7697 340.051 71.8967 340.283 71.8369 340.44C68.6264 348.137 72.0535 343.083 73.1361 343.038C74.9131 342.963 88.1885 356.604 103.532 335.504C107.258 330.382 106.332 330.942 105.608 328.493C105.205 327.112 105.115 327.508 105.085 327.455C104.04 325.223 100.321 320.295 97.8127 319.66C97.6485 319.623 97.4618 319.69 97.2901 319.66C95.3712 319.317 90.3388 319.571 88.1959 320.183C87.5464 316.569 89.6146 316.681 88.9724 311.873C96.0506 320.474 111.237 319.578 121.705 319.668L121.713 319.66Z" fill="white"/>
<path d="M409.536 295.76C409.589 296.089 409.477 296.47 409.536 296.798C409.2 296.761 408.76 296.873 408.498 296.798C402.861 295.148 401.137 299.434 395.768 298.874L395.507 299.912C395.313 301.144 396.022 300.89 396.029 300.949C396.328 304.608 397.642 307.572 399.143 310.82C399.613 311.836 400.151 311.791 400.181 311.858C401.674 314.83 401.988 314.971 403.294 317.055C403.675 317.659 403.936 318.04 404.332 318.615C404.482 318.832 404.706 319.451 404.855 319.653C405.243 320.183 405.355 320.146 405.377 320.176C408.26 323.954 407.125 323.983 411.612 327.448C412.889 328.433 413.098 328.433 413.172 328.486C418.66 332.421 423.125 330.546 420.967 340.955C407.155 341.604 411.575 342.097 413.695 356.537C414.681 363.242 418.377 389.427 420.967 393.422H405.385C405.124 381.96 400.42 350.609 398.628 335.235C398.247 331.965 398.486 328.404 398.105 325.103C397.881 323.117 396.209 320.273 396.029 318.608C394.193 302.122 393.588 285.449 391.355 268.993H406.938C407.812 277.886 408.192 286.92 409.536 295.745V295.76Z" fill="white"/>
<path d="M240.167 374.733V377.331C240.189 379.75 240.137 382.185 240.167 384.604C240.197 387.336 239.547 390.472 239.644 393.436C238.98 393.511 238.203 393.317 237.569 393.436C242.482 383.999 232.984 387.986 222.501 387.202C220.538 384.036 218.529 382.072 218.865 377.854C218.977 376.48 223.965 360.285 225.1 351.102C225.495 347.928 224.189 344.121 226.138 343.568C227.078 346.517 237.277 368.745 240.167 374.74V374.733Z" fill="white"/>
<path d="M424.605 268.224C424.747 268.791 425.352 269.038 425.128 269.784C423.463 278.124 423.948 290.511 428.241 297.836C424.493 296.895 422.335 295.969 418.371 295.76C418.199 295.753 418.027 295.76 417.848 295.76L414.734 268.485L424.605 268.224Z" fill="white"/>
<path d="M119.375 105.612C119.599 105.59 123.161 107.747 123.273 107.949C124.445 110.092 119.248 113.422 118.86 113.407C114.328 113.168 117.986 105.769 119.383 105.612H119.375Z" fill="#E5D057"/>
<path d="M118.86 108.21C118.964 108.158 121.144 108.367 121.197 108.472C121.675 109.42 119.061 111.817 118.86 111.846C118.606 111.891 116.993 109.144 118.86 108.21Z" fill="#EDE5A7"/>
<path d="M196.012 318.1H202.246C203.374 338.043 205.36 358.464 210.041 377.847C205.464 377.66 206.973 379.511 205.883 382.52C204.285 386.941 203.956 389.054 204.322 393.952C202.254 390.517 200.283 392.764 196.527 392.914C194.474 387.277 198.707 384.648 194.19 382.005C192.331 380.915 158.247 373.314 152.37 371.358C152.229 363.839 150.489 330.3 151.848 326.679C154.11 320.661 172.403 329.008 176.786 319.145C177.286 319.145 178.503 318.107 178.608 318.107C184.402 318.01 190.218 318.182 196.012 318.107V318.1Z" fill="white"/>
<path d="M168.736 354.992C169.528 354.29 169.184 359.442 168.214 357.59C168.139 357.448 168.475 355.216 168.736 354.992Z" fill="#EDE5A7"/>
<path d="M167.691 359.143C168.334 360.106 169.558 360.338 169.513 360.442C169.118 361.256 165.743 360.509 167.691 359.143Z" fill="#F2D08A"/>
<path d="M96.2587 387.717C96.2139 387.605 94.1831 387.814 96.2587 386.679V387.717Z" fill="#A3937C"/>
<path d="M122.758 377.331C125.304 359.524 126.812 341.522 130.03 323.819C133.099 325.38 139.057 322.975 141.976 325.641L142.499 370.843L122.758 377.339V377.331Z" fill="white"/>
<path d="M155.482 392.399C153.84 393.623 154.788 391.54 154.183 391.361C152.145 390.749 125.422 391.719 120.674 392.921C121.241 390.375 121.301 387.702 121.712 385.126C127.185 386.396 158.335 376.547 158.081 385.388C158.066 385.776 155.072 387.62 155.482 392.399Z" fill="white"/>
<path d="M185.095 391.353C180.891 390.562 169.602 392.137 167.168 391.876C166.765 391.831 167.131 390.741 166.391 390.838C166.451 388.8 165.891 386.799 165.354 384.865C165.675 384.417 171.349 384.551 172.365 384.604C192.658 385.716 185.252 389.696 185.095 391.361V391.353Z" fill="white"/>
<path d="M237.569 393.436C228.722 395.094 228.4 396.699 222.502 387.202C232.985 387.986 242.482 383.999 237.569 393.436Z" fill="#ECE9D0"/>
<path d="M388.235 312.911C384.883 311.895 379.343 311.992 375.766 311.873C375.475 302.473 378.805 283.948 365.634 281.738C347.245 278.647 350.134 300.427 350.306 311.873C345.729 311.977 340.248 311.888 335.761 312.396C328.907 313.165 322.807 317.525 321.732 324.603C321.269 327.65 321.403 379.661 321.732 386.164H258.872C255.661 381.737 252.719 376.443 248.478 373.173C249.598 372.135 249.509 371.209 249.516 369.798C249.576 362.443 235.763 293.849 236.009 276.803C234.038 272.159 228.916 270.643 224.578 269.269L381.217 268.231L388.228 312.911H388.235Z" fill="#F7F5EA"/>
<path d="M299.654 311.35C300.804 310.559 299.833 313.493 304.067 314.725C300.057 315.278 297.63 312.746 299.654 311.35Z" fill="#F9DCAD"/>
<path d="M302.252 307.714C304.253 307.535 301.976 312.201 299.393 310.051L302.252 307.714Z" fill="#F9DCAD"/>
<path d="M304.334 309.79C304.581 309.812 305.26 313.12 304.334 312.903C303.468 312.709 303.991 309.752 304.334 309.79Z" fill="#EFBF4A"/>
<path d="M375.765 311.865C375.608 311.865 375.944 312.478 372.652 312.388C372.151 305.31 375.384 287.002 365.641 284.852C350.013 281.402 353.769 302.831 353.433 311.865C352.388 311.888 351.283 311.843 350.32 311.865C350.14 300.419 347.258 278.647 365.648 281.731C378.812 283.941 375.489 302.458 375.78 311.865H375.765Z" fill="#E55235"/>
<path d="M372.652 312.388C366.411 312.216 359.601 311.746 353.426 311.865C353.762 302.823 350.007 281.402 365.634 284.852C375.385 287.002 372.145 305.31 372.645 312.388H372.652Z" fill="white"/>
<path d="M427.464 120.164C429.084 119.806 459.092 119.813 460.712 120.164C461.787 120.396 464.759 122.628 465.125 123.539C466.08 125.883 465.976 158.407 464.348 159.124C457.942 157.959 423.701 161.812 422.006 156.264C423.604 148.611 417.78 122.285 427.464 120.157V120.164Z" fill="#F9A41B"/>
<path d="M447.461 143.019C446.729 142.705 447.677 140.682 446.938 138.86C443.16 129.46 435.425 138.203 438.882 139.383C441.6 140.301 441.032 136.605 443.294 137.307C445.781 141.078 442.772 142.325 439.136 143.019C438.964 142.974 438.762 143.071 438.613 143.019C432.782 136.486 442.824 133.619 437.575 134.186C442.428 127.914 451.746 134.649 452.12 136.008C453.456 140.839 451.097 142.235 447.446 143.019H447.461Z" fill="white"/>
<path d="M446.946 138.86C447.677 140.682 446.737 142.705 447.468 143.019C444.392 143.683 442.242 143.84 439.158 143.019C442.794 142.317 445.803 141.07 443.317 137.307C446.199 138.196 444.579 141.511 446.953 138.867L446.946 138.86Z" fill="#75A496"/>
<path d="M438.635 143.019C434.162 141.302 435.193 137.285 437.597 134.186C442.846 133.619 432.803 136.486 438.635 143.019Z" fill="#7FA34C"/>
<path d="M446.168 133.671C451.88 133.29 453.948 139.808 448.766 142.504C449.535 137.441 447.714 137.606 446.168 133.671Z" fill="#559395"/>
<path d="M446.945 138.86C444.571 141.503 446.191 138.196 443.309 137.3C441.047 136.598 441.607 140.301 438.896 139.375C435.432 138.203 443.167 129.452 446.953 138.853L446.945 138.86Z" fill="#ABB36C"/>
<path d="M387.72 217.31C387.951 218.296 388.093 219.879 388.242 220.946C389.243 228.174 388.272 237.738 389.28 245.362C385.301 245.369 381.306 245.362 377.334 245.362C378.297 245.28 378.82 242.173 378.894 241.464C379.507 235.252 380.731 219.498 380.97 213.667C380.97 213.584 381.545 214.092 381.493 212.106C386.57 213.107 386.451 211.845 387.727 217.303L387.72 217.31Z" fill="white"/>
<path d="M330.563 120.679L336.275 125.876C335.491 126.966 334.595 129.139 333.677 130.289C333.438 132.372 340.441 144.841 331.34 159.124C319.498 150.889 309.067 140.809 297.83 131.849C297.367 129.49 307.216 122.568 309.523 121.717C322.283 116.998 324.247 124.696 330.563 120.679Z" fill="#115F62"/>
<path d="M344.078 118.081C344.085 118.745 342.838 119.059 343.04 119.903C356.278 128.967 381.925 152.009 391.878 158.609C391.908 159.072 391.415 159.132 391.355 159.647C391.221 160.946 391.318 162.499 391.355 163.806C375.407 148.783 357.45 136.03 340.441 122.24C340.673 121.964 342.913 117.021 344.078 118.081Z" fill="#265661"/>
<path d="M344.077 118.081C342.912 117.021 340.672 121.964 340.441 122.24C338.978 123.979 336.678 125.323 336.282 125.876L330.57 120.679C334.625 118.103 337.783 106.881 343.562 114.706C345.436 117.245 344.077 117.894 344.085 118.081H344.077Z" fill="#115F62"/>
<path d="M334.722 225.628C336.939 225.501 339.246 225.628 341.479 225.628C345.63 225.62 349.796 225.628 353.948 225.628C353.552 232.168 354.358 238.836 353.425 245.369C350.252 245.369 329.853 247.012 329.01 245.108V226.404C329.585 225.113 332.698 225.74 334.722 225.628Z" fill="#F68D5F"/>
<path d="M341.48 225.628C339.255 225.628 336.94 225.501 334.722 225.628C332.901 210.68 338.336 218.266 339.919 216.018C340.643 214.988 338.635 209.851 340.18 209.523C341.831 210.478 344.489 215.653 344.593 216.534C345.825 226.755 335.551 212.92 341.48 225.628Z" fill="#F9AC82"/>
<path d="M381.485 212.121C381.537 214.107 380.97 213.599 380.962 213.681C379.753 213.696 378.536 213.659 377.326 213.681C377.558 211.583 377.685 209.276 378.887 207.447C378.917 207.395 379.895 206.977 379.924 206.924C379.626 208.447 381.47 211.718 381.485 212.121Z" fill="#B9C76D"/>
<path d="M364.334 213.674C364.849 213.674 365.38 213.674 365.895 213.674C366.41 213.674 366.933 213.674 367.455 213.674C369.18 213.674 370.942 213.689 372.652 213.674C374.183 213.659 375.773 213.704 377.326 213.674C378.535 213.652 379.753 213.689 380.962 213.674C380.723 219.505 379.491 235.259 378.886 241.472C378.819 242.181 378.289 245.287 377.326 245.369C369.359 245.362 361.378 245.362 353.426 245.369C354.359 238.828 353.545 232.168 353.948 225.628C354.172 221.902 353.06 215.391 356.024 213.681C357.234 213.667 358.451 213.696 359.66 213.681C361.467 213.659 360.721 213.151 361.221 213.159C361.378 213.159 360.691 213.667 364.334 213.681V213.674Z" fill="#F8B51F"/>
<path d="M377.841 206.924C377.43 207.447 374.839 208.35 374.727 208.485C373.018 208.843 372.054 205.409 372.129 204.326C372.129 204.244 372.495 203.221 372.652 202.765C372.697 202.639 373.301 202.915 374.212 200.69C374.638 199.652 375.885 199.167 376.288 198.353C376.445 198.039 376.788 190.618 379.401 193.156C380.141 193.873 380.551 203.49 377.841 206.924Z" fill="#ABB36C"/>
<path d="M370.569 200.167C370.337 201.802 369.411 203.288 369.008 204.841C368.732 205.901 369.172 208.671 367.448 210.038C368.008 207.268 366.455 192.641 367.448 191.596C367.851 191.17 370.778 191.17 371.084 191.596C371.592 192.305 370.778 198.674 370.561 200.167H370.569Z" fill="#1C272D"/>
<path d="M372.129 204.326C372.054 205.409 373.018 208.836 374.727 208.485C373.316 210.135 373.443 211.86 372.652 213.681C370.942 213.696 369.187 213.681 367.455 213.681V210.045C369.18 208.679 368.739 205.916 369.016 204.849C371.965 201.84 369.225 205.804 372.129 204.326Z" fill="#CFB02C"/>
<path d="M365.893 213.674C365.378 213.674 364.848 213.674 364.333 213.674C360.189 191.917 368.648 190.834 365.893 213.674Z" fill="#D85A4C"/>
<path d="M360.183 203.288H359.66L356.024 204.326C356.017 204.162 354.008 203.714 354.464 201.466C357.48 197.845 356.345 184.876 359.66 197.308C360.108 198.98 359.966 201.631 360.183 203.281V203.288Z" fill="#DF7844"/>
<path d="M359.66 203.288V213.681C358.451 213.696 357.234 213.667 356.024 213.681C355.912 210.583 356.181 207.425 356.024 204.333L359.66 203.296V203.288Z" fill="#A4C9A1"/>
<path d="M378.885 207.439C377.683 209.269 377.556 211.576 377.324 213.674C375.771 213.704 374.181 213.659 372.65 213.674C373.449 211.852 373.315 210.127 374.726 208.477C374.838 208.343 377.429 207.439 377.84 206.917L378.877 207.439H378.885Z" fill="white"/>
<path d="M355.247 191.334C356.643 192.954 356.008 199.346 353.171 198.091C351.088 197.165 354.963 192.924 355.247 191.334Z" fill="#EE6636"/>
<path d="M374.205 200.69C373.294 202.915 372.689 202.646 372.644 202.766C372.89 201.922 372.159 201.735 372.121 201.205C372.054 200.182 373.51 194.635 374.458 193.41L374.197 200.682L374.205 200.69Z" fill="#F2D08A"/>
<path d="M372.129 201.205C372.159 201.735 372.891 201.922 372.652 202.765C372.502 203.221 372.137 204.236 372.129 204.326C369.217 205.804 371.965 201.832 369.016 204.849C369.419 203.296 370.345 201.81 370.576 200.175L372.137 201.212L372.129 201.205Z" fill="#D7C478"/>
<path d="M361.221 213.159C360.72 213.151 361.467 213.652 359.66 213.681V203.288H360.183C360.608 206.573 360.646 209.896 361.221 213.159Z" fill="#7D9868"/>
<path d="M416.809 220.431C416.771 224.62 416.487 230.66 416.809 234.461C416.898 235.528 416.241 235.61 416.286 236.021C407.416 235.446 407.879 237.119 407.976 245.369C401.749 245.377 395.499 245.354 389.272 245.369C388.264 237.738 389.235 228.174 388.234 220.954L416.809 220.431Z" fill="#A25833"/>
<path d="M398.627 216.795C401.218 216.75 403.831 216.788 406.422 216.795C409.64 216.81 412.783 215.944 416.031 216.272C416.509 216.414 417.226 217.818 417.33 217.833C416.554 217.758 416.823 219.013 416.808 220.431L388.234 220.954C388.084 219.886 387.942 218.303 387.711 217.318C389.391 217.489 392.639 216.287 392.908 216.28C393.191 216.265 393.819 216.877 398.619 216.802L398.627 216.795Z" fill="#784330"/>
<path d="M416.293 236.014C418.302 237.783 418.817 242.614 418.891 245.362C415.218 245.421 411.664 245.362 407.983 245.362C407.886 237.104 407.423 235.439 416.293 236.014Z" fill="#4B8CB2"/>
<path d="M418.884 245.369C418.809 242.621 418.294 237.791 416.285 236.021C416.241 235.61 416.898 235.536 416.808 234.461C425.611 233.199 425.118 238.552 425.38 245.892C421.475 246.317 419.212 245.369 418.884 245.369Z" fill="#F2D08A"/>
<path d="M394.991 200.167C394.976 200.518 396.193 202.527 395.768 202.766C385.897 203.908 394.237 203.116 396.29 203.803C397.888 204.341 399.09 209.119 399.665 210.56C400.158 211.785 399.926 211.748 401.226 212.636C399.77 214.742 400.359 217.489 398.627 215.234C398.836 214.047 399.516 213.465 398.889 212.636C398.702 212.397 393.423 210.381 393.177 210.56C392.699 210.904 392.699 215.272 392.915 216.272C392.654 216.28 389.399 217.489 387.719 217.31C386.442 211.852 386.561 213.114 381.484 212.114C381.477 211.71 379.633 208.44 379.924 206.917C380.357 206.193 380.596 207.365 384.083 199.645L394.991 200.167Z" fill="#7FA34C"/>
<path d="M390.833 165.881C392.812 168.345 393.812 176.64 391.871 179.127C397.986 191.028 387.861 183.271 381.477 182.502C379.977 173.93 385.099 158.743 390.825 165.874L390.833 165.881Z" fill="#558F63"/>
<path d="M414.732 190.297C414.605 190.364 414.21 191.499 412.657 192.372C409.006 194.44 408.386 194 404.862 194.971C402.069 195.74 399.105 195.665 396.552 197.569C396.051 195.366 395.73 193.589 395.514 191.334C396.566 190.685 397.574 189.908 398.627 189.259C405.108 188.691 407.505 183.913 409.021 178.35C412.978 182.8 412.925 184.794 414.732 190.297Z" fill="#7FA34C"/>
<path d="M402.264 173.154C402.451 173.191 404.765 174.878 405.378 175.229C410.91 182.897 404.228 185.779 398.621 189.259C397.568 189.916 396.56 190.685 395.507 191.334C395.193 188.072 395.656 186.407 394.984 183.024C395.656 179.433 398.068 172.385 402.257 173.154H402.264Z" fill="#558F63"/>
<path d="M402.264 172.631C397.68 172.399 400.554 166.568 395.768 161.2L398.628 172.892C393.931 181.494 396.955 174.236 393.954 175.752C393.573 170.779 392.759 160.826 391.355 159.647C391.408 159.132 391.908 159.072 391.878 158.609C397.336 162.23 411.649 164.156 402.271 172.638L402.264 172.631Z" fill="#478253"/>
<path d="M393.953 175.752C394.162 178.432 393.244 181.68 394.991 183.024C395.656 186.414 395.2 188.072 395.514 191.334C395.73 193.589 396.059 195.366 396.552 197.569C397.769 202.952 398.523 205.088 401.226 210.038C401.151 210.068 401.442 210.799 399.665 210.56C399.09 209.119 397.888 204.341 396.29 203.803C394.245 203.116 385.905 203.908 395.768 202.766C396.193 202.527 394.976 200.518 394.991 200.167C395.163 195.142 396.38 193.261 390.317 193.933V192.895C395.999 193.97 398.164 187.108 382.007 183.024C382 182.987 381.611 183.218 381.484 182.502C387.861 183.271 397.993 191.028 391.878 179.127C393.819 176.633 392.818 168.345 390.84 165.881C392.751 165.963 391.4 165.12 391.362 163.806C391.325 162.506 391.228 160.946 391.362 159.647C392.759 160.826 393.58 170.779 393.961 175.752H393.953Z" fill="#C4D093"/>
<path d="M390.31 192.895C387.361 192.335 382.874 186.496 382 183.024C398.157 187.108 395.992 193.97 390.31 192.895Z" fill="#558F63"/>
<path d="M394.991 200.167L384.082 199.645C385.015 197.576 383.082 194.732 390.317 193.933C396.379 193.261 395.162 195.142 394.991 200.167Z" fill="#558F63"/>
<path d="M402.262 172.631V173.154C398.074 172.385 395.662 179.44 394.99 183.024C393.243 181.68 394.154 178.432 393.952 175.752C396.954 174.244 393.93 181.501 398.626 172.892L395.767 161.2C400.553 166.561 397.678 172.399 402.262 172.631Z" fill="#93B36B"/>
<path d="M409.012 178.35C407.497 183.913 405.1 188.691 398.619 189.259C404.226 185.779 410.901 182.897 405.376 175.229C408.445 176.976 407.848 177.036 409.012 178.343V178.35Z" fill="#C4D093"/>
<path d="M398.626 215.234C398.537 215.727 398.679 216.287 398.626 216.795C393.825 216.877 393.198 216.265 392.915 216.272C392.698 215.272 392.698 210.904 393.176 210.561C393.422 210.381 398.709 212.397 398.888 212.636C399.515 213.465 398.835 214.047 398.626 215.234Z" fill="#528375"/>
<path d="M434.473 191.857C433.465 193.686 431.225 196.128 430.837 198.353C429.396 206.558 432.868 212.815 432.398 213.42C431.36 214.734 428.956 212.569 428.5 212.644C427.873 212.741 424.222 218.55 417.33 217.84C417.226 217.833 416.509 216.429 416.031 216.28C412.783 215.951 409.64 216.81 406.422 216.802C406.765 214.697 406.683 212.278 409.02 211.606C411.439 210.911 416.509 213.039 415.777 210.045C420.444 212.24 421.041 210.672 426.171 210.822C421.683 201.496 415.859 203.706 419.414 199.129C420.436 198.614 421.556 198.196 422.527 197.569C426.425 195.59 430.568 193.776 434.473 191.857Z" fill="#558F63"/>
<path d="M434.473 191.857C430.56 193.783 426.416 195.59 422.526 197.569C422.108 197.778 421.377 196.598 419.413 199.129C415.127 201.295 413.992 203.318 412.141 202.243C412.141 202.026 411.013 200.212 411.103 198.084C411.207 195.695 411.999 194.493 412.663 192.372C414.216 191.491 414.612 190.364 414.739 190.297C421.212 186.832 426.088 181.867 436.041 190.035C435.593 190.513 434.742 191.387 434.48 191.857H434.473Z" fill="#639659"/>
<path d="M409.012 211.598C406.675 212.27 406.757 214.689 406.413 216.795C403.822 216.788 401.209 216.75 398.618 216.795C398.671 216.295 398.529 215.727 398.618 215.234C400.351 217.489 399.753 214.742 401.217 212.636C402.493 210.799 401.575 210.971 401.993 210.56C402.456 210.105 405.689 209.597 406.929 209L409.004 211.598H409.012Z" fill="#7FA34C"/>
<path d="M415.77 210.038C416.51 213.032 411.44 210.896 409.013 211.598L406.938 209C407.968 208.507 409.864 206.364 410.835 206.402C412.418 207.171 414.419 209.403 415.77 210.038Z" fill="#478253"/>
<path d="M422.526 197.569C421.548 198.189 420.428 198.614 419.412 199.129C421.383 196.598 422.115 197.778 422.526 197.569Z" fill="#C4D093"/>
<path d="M404.861 194.971C403.51 196.165 404.644 200.951 403.562 204.319C404.07 204.46 405.608 197.337 411.095 198.084C411.006 200.205 412.133 202.026 412.133 202.243C412.141 206.484 405.175 208.507 401.225 210.038C398.522 205.088 397.768 202.952 396.551 197.569C399.112 195.665 402.076 195.74 404.861 194.971Z" fill="#558F63"/>
<path d="M412.649 192.372C411.992 194.493 411.193 195.702 411.088 198.084C405.6 197.337 404.062 204.46 403.555 204.319C404.637 200.944 403.502 196.165 404.854 194.971C408.371 194 408.99 194.44 412.649 192.372Z" fill="#93B36B"/>
<path d="M419.405 199.129C415.851 203.699 421.675 201.496 426.163 210.822C421.033 210.672 420.436 212.24 415.769 210.045C414.418 209.411 412.409 207.178 410.834 206.409C409.871 206.372 407.967 208.515 406.936 209.007C405.697 209.605 402.464 210.105 402.001 210.568C401.583 210.986 402.494 210.807 401.225 212.644C399.925 211.755 400.157 211.785 399.664 210.568C401.441 210.807 401.142 210.075 401.225 210.045C405.182 208.515 412.141 206.491 412.133 202.25C413.985 203.318 415.127 201.302 419.405 199.137V199.129Z" fill="#C4D093"/>
<path d="M416.031 201.728C417.315 201.534 423.631 207.656 423.564 208.223C423.064 212.435 411.827 208.746 412.133 205.625C412.163 205.349 415.754 201.772 416.031 201.728Z" fill="#478253"/>
<path d="M89.5035 361.226C88.1894 371.119 85.7927 385.97 82.7463 394.997C82.2984 395.042 81.0888 396.259 80.4094 396.557C74.6975 396.177 53.4704 399.223 50.5361 394.997C49.4385 393.421 45.6903 366.311 44.8242 361.226H89.5035Z" fill="#D85A4C"/>
<path d="M89.5029 359.666L44.3009 358.628C44.2337 358.225 42.5314 355.91 42.7404 350.571C43.9649 348.906 44.6444 349.414 45.3388 349.272C45.951 349.145 54.7166 349.354 57.8077 349.272C60.8989 349.19 64.0646 349.22 67.1557 349.272C67.4992 349.272 67.8501 349.272 68.1936 349.272C75.3838 349.399 82.5366 349.81 89.7567 349.795C92.0713 354.066 89.5626 359.158 89.4954 359.666H89.5029Z" fill="#F27F32"/>
<path d="M89.5027 359.666C89.4355 360.166 89.5699 360.726 89.5027 361.226H44.8234C44.6741 360.345 44.4576 359.524 44.3008 358.628L89.5027 359.666Z" fill="#9F2429"/>
<path d="M44.3087 316.024C41.5013 316.368 39.1643 318.085 36.2524 318.1L37.5516 321.213C33.2285 318.13 31.108 314.322 28.7188 309.782L39.3659 305.623C45.1375 312.829 50.5805 314.718 44.3012 316.017L44.3087 316.024Z" fill="#7FA34C"/>
<path d="M47.4219 292.124C49.3781 293.744 50.9461 295.417 52.6186 297.321L47.6833 312.903C44.0919 311.141 41.3741 305.691 39.627 303.555C43.6812 301.838 43.9799 293.378 47.4219 292.124Z" fill="#7FA34C"/>
<path d="M45.8612 291.086L39.6267 303.555C38.0886 301.659 36.5132 299.717 34.9527 297.843L40.1493 287.711C37.0657 290.519 35.6695 297.769 34.4375 289.011C34.4823 287.54 34.4002 286.263 34.9601 284.852C39.2011 285.128 42.7029 288.704 45.8686 291.086H45.8612Z" fill="#7FA34C"/>
<path d="M28.2026 308.752C26.5973 305.325 24.9397 302.913 24.5664 298.881C27.3962 297.403 31.9507 299.591 32.8766 297.321C34.2803 299.023 37.5506 301.636 38.5884 304.854L28.1951 308.752H28.2026Z" fill="#7FA34C"/>
<path d="M33.914 295.76C34.0111 295.872 32.9359 295.409 34.9519 297.836C36.5124 299.71 38.0878 301.659 39.6259 303.548C41.3655 305.683 44.0833 311.134 47.6822 312.896L52.6175 297.313C53.0954 297.858 53.6553 298.209 54.178 298.874C52.0426 302.271 47.167 312.791 49.504 316.539C48.9813 316.248 48.5707 315.979 48.2048 315.502C44.2252 316.972 44.5015 315.994 44.3073 316.024C50.5866 314.725 45.1436 312.836 39.372 305.631L28.7248 309.79C28.5232 309.409 28.3889 309.148 28.2022 308.752L38.5955 304.854C37.5577 301.636 34.2873 299.023 32.8837 297.321C30.6736 294.648 28.247 291.796 25.6113 289.526C26.0518 288.563 26.6044 288.54 26.6492 288.488C28.5008 292.363 33.2271 294.969 33.9215 295.76H33.914Z" fill="#C4D093"/>
<path d="M34.9524 284.852C34.3924 286.263 34.4745 287.54 34.4297 289.011C34.3625 291.288 34.7209 293.55 33.9071 295.768C33.2127 294.969 28.4864 292.37 26.6348 288.495C28.8374 285.793 31.4432 284.628 34.9449 284.859L34.9524 284.852Z" fill="#639659"/>
<path d="M32.8774 297.321C31.9516 299.591 27.3896 297.395 24.5672 298.881C24.291 295.917 24.3358 292.303 25.6051 289.533C28.2407 291.803 30.6673 294.655 32.8774 297.328V297.321Z" fill="#639659"/>
<path d="M47.4219 292.124C43.9799 293.371 43.6812 301.83 39.627 303.555L45.8614 291.086C46.3617 291.467 46.8246 291.631 47.4219 292.124Z" fill="#C4D093"/>
<path d="M49.5049 316.547C50.9161 317.346 54.0221 322.154 56.7772 324.857C53.2307 328.553 59.5025 334.959 60.4134 336.803C61.0182 338.028 62.9296 341.052 63.0117 342.261C63.624 351.176 59.3382 340.738 57.8151 349.272C54.724 349.354 45.9583 349.145 45.3461 349.272C42.4864 346.935 39.4849 344.71 36.5133 342.515C37.245 341.067 39.3207 340.843 40.6721 340.44C40.7393 340.417 40.7393 341.425 41.9713 340.962C43.8155 340.26 46.9738 337.311 48.7284 337.326C50.7593 337.348 65.4831 345.815 49.5049 336.55C49.7588 325.663 48.6612 323.02 48.2058 335.773C38.8652 333.57 42.5163 328.964 39.6343 327.978C39.3953 326.358 39.0668 324.7 39.1116 323.043L37.5511 321.744V321.221L36.252 318.107C39.1564 318.085 41.5009 316.368 44.3083 316.032C44.5024 316.009 44.2187 316.98 48.2058 315.509C48.5716 315.987 48.9823 316.256 49.5049 316.547Z" fill="#7FA34C"/>
<path d="M37.5509 321.736L39.1114 323.035C39.0591 324.693 39.3877 326.35 39.634 327.971C39.746 328.717 40.8585 330.688 40.4106 331.607C36.5205 333.488 24.4771 314.815 31.8391 326.933H22.4911C22.4687 326.53 21.5876 325.843 21.9684 325.111C23.626 321.96 34.1089 320.168 37.5509 321.736Z" fill="#7FA34C"/>
<path d="M40.6718 340.44C39.3204 340.85 37.2447 341.067 36.513 342.515C34.1685 340.783 32.7872 340.163 29.7559 337.319C37.1924 334.541 40.194 331.226 46.8988 336.542L40.6644 340.44H40.6718Z" fill="#7FA34C"/>
<path d="M32.8769 328.493C34.5195 330.024 37.7077 330.838 39.634 332.391L28.7255 336.288C25.8733 333.391 24.5518 332.421 23.0137 328.493H32.8843H32.8769Z" fill="#7FA34C"/>
<path d="M39.6272 327.971C42.5168 328.956 38.8582 333.563 48.1987 335.766C48.6542 323.013 49.7518 325.663 49.4979 336.542C65.4761 345.815 50.7523 337.341 48.7214 337.319C46.9668 337.304 43.8085 340.253 41.9642 340.955C40.7323 341.418 40.7323 340.417 40.6651 340.432L46.8996 336.535C40.1947 331.218 37.1932 334.541 29.7566 337.311C29.3683 336.945 29.0846 336.639 28.7188 336.273L39.6272 332.376C37.7084 330.83 34.5127 330.009 32.8701 328.478C32.4818 328.112 32.4968 326.948 31.8323 326.918C24.4703 314.8 36.5137 333.481 40.4038 331.592C40.8443 330.673 39.7392 328.702 39.6272 327.956V327.971Z" fill="#B9C76D"/>
<path d="M31.8398 326.933C32.5044 326.963 32.4894 328.127 32.8777 328.493H23.007C22.7308 327.784 22.5366 328.06 22.4844 326.933H31.8324H31.8398Z" fill="#C4D093"/>
<path d="M65.0863 338.886L60.4123 336.811C59.5014 334.967 53.2296 328.553 56.7761 324.865C58.0006 326.067 64.1679 329.419 64.5711 330.322L65.0938 338.894L65.0863 338.886Z" fill="#93B36B"/>
<path d="M65.0868 338.886L67.1625 349.28C64.0639 349.228 60.9056 349.198 57.8145 349.28C59.3376 340.746 63.6234 351.184 63.0111 342.269C62.929 341.059 61.0176 338.043 60.4128 336.811L65.0868 338.886Z" fill="white"/>
<path d="M34.9534 297.843C32.9375 295.409 34.0126 295.88 33.9156 295.768C34.7294 293.558 34.3636 291.288 34.4382 289.011C35.6702 297.769 37.0664 290.519 40.1501 287.711L34.9534 297.843Z" fill="#B9C76D"/>
<path d="M67.6851 337.326C67.6254 339.155 68.7379 344.867 68.2078 349.272C67.8643 349.272 67.5134 349.272 67.1699 349.272L65.0942 338.879L64.5716 330.307C64.1684 329.404 58.0011 326.052 56.7766 324.85C54.0215 322.147 50.9154 317.338 49.5043 316.539C47.1673 312.791 52.0429 302.278 54.1783 298.874C61.8613 308.67 62.3167 316.233 63.2724 316.017C62.1375 307.385 64.5567 300.912 67.6851 293.154L75.9953 302.249C74.3153 308.349 72.7548 320.28 69.7608 320.429C73.2401 320.265 68.0435 326.873 67.6851 337.311V337.326Z" fill="#7FA34C"/>
<path d="M68.2012 292.647C69.6347 289.302 69.4929 288.227 71.8373 284.852C80.4462 292.617 83.2834 289.765 75.7348 301.48L68.2012 292.647Z" fill="#7FA34C"/>
<path d="M81.7152 287.45C80.64 294.879 75.7495 285.203 72.3672 284.337C74.2861 281.753 75.8615 279.132 79.1243 278.102C79.9307 281.275 80.8864 284.314 81.7227 287.45H81.7152Z" fill="#7FA34C"/>
<path d="M85.3505 297.843L78.0781 300.703L82.7521 289.533C83.4988 292.281 84.5739 295.006 85.3505 297.843Z" fill="#7FA34C"/>
<path d="M81.7154 287.45C81.7452 287.562 82.3127 287.891 82.7532 289.526L78.0792 300.696L85.3515 297.836C85.5531 298.56 85.6875 299.202 85.8742 299.912C84.5004 297.395 82.5217 301.591 77.564 301.733L75.227 309.79C90.8543 306.96 90.4437 308.035 75.227 310.828C68.9403 325.708 75.0852 317.682 87.9573 315.763L72.3748 320.437L68.216 337.318H67.6934C68.0517 326.88 73.2559 320.273 69.769 320.437C72.7631 320.28 74.3236 308.349 76.0035 302.256L67.6934 293.162C67.9846 292.43 68.2011 292.677 68.216 292.639L75.7497 301.472C83.2983 289.765 80.461 292.609 71.8522 284.844C72.2479 284.277 72.3524 284.351 72.3748 284.322C75.7571 285.195 80.6551 294.872 81.7228 287.435L81.7154 287.45Z" fill="#B9C76D"/>
<path d="M85.8672 299.919C86.4421 302.166 88.906 311.253 88.9807 311.865C89.6228 316.681 87.5546 316.562 88.2041 320.176C90.3396 319.571 95.3794 319.317 97.2983 319.653C97.1788 322.109 93.9757 324.991 94.1848 327.448C90.5262 331.487 74.7571 334.295 71.8451 339.917L68.209 337.318L72.3678 320.437L87.9503 315.763C75.0781 317.682 68.9332 325.708 75.22 310.828C90.4366 308.035 90.8473 306.96 75.22 309.79L77.557 301.733C82.5222 301.591 84.4933 297.395 85.8672 299.912V299.919Z" fill="#7FA34C"/>
<path d="M94.1836 327.455C93.9746 324.999 97.1777 322.117 97.2971 319.66C97.4614 319.69 97.6555 319.623 97.8198 319.66C97.8198 321.527 95.2737 326.253 94.1836 327.455Z" fill="#B9C76D"/>
<path d="M81.9692 322.781L80.9314 333.175C80.4013 329.68 80.3639 325.962 81.9692 322.781Z" fill="#ABB36C"/>
<path d="M71.844 340.439C73.7032 338.886 78.631 334.765 80.9382 335.243C81.8192 335.429 96.0204 347.958 81.7147 334.981C84.7087 332.398 86.0826 331.734 89.5097 333.16C90.555 335.512 90.8611 334.496 91.0702 334.72C92.9666 336.759 92.9741 336.169 93.1458 336.281C93.1981 336.318 92.892 337.968 94.1837 337.057C93.6237 336.296 93.1832 336.325 93.1458 336.281C91.4211 334.175 91.1747 334.795 91.0702 334.72C90.9806 334.653 90.7192 333.667 89.5097 333.16C89.2558 332.592 88.9198 332.256 88.4718 331.861C93.6013 328.672 99.9104 329.583 105.615 328.486C106.332 330.935 107.257 330.375 103.539 335.497C88.1956 356.597 74.9277 342.956 73.1432 343.03C72.0606 343.075 68.6334 348.13 71.844 340.432V340.439Z" fill="#7FA34C"/>
<path d="M105.092 327.455L94.4449 329.016C93.9895 328.829 94.2284 327.941 94.1836 327.455C95.2737 326.253 97.8198 321.527 97.8198 319.66C100.328 320.288 104.047 325.215 105.092 327.455Z" fill="#7FA34C"/>
<path d="M105.093 327.455C105.115 327.508 105.205 327.112 105.615 328.493C99.9109 329.591 93.6017 328.687 88.4722 331.868C88.9202 332.264 89.2562 332.6 89.5101 333.167C86.083 331.734 84.7091 332.406 81.7151 334.989C96.0134 347.966 81.8196 335.429 80.9386 335.25C78.6314 334.772 73.7036 338.894 71.8444 340.447C71.9042 340.298 71.7772 340.059 71.8444 339.924C74.7564 334.302 90.5255 331.495 94.1841 327.455C94.2214 327.933 93.9899 328.822 94.4454 329.016L105.093 327.455Z" fill="#B9C76D"/>
<path d="M93.1382 336.288C92.9664 336.176 92.959 336.773 91.0625 334.728C91.167 334.802 91.4209 334.175 93.1382 336.288Z" fill="#B9C76D"/>
<path d="M91.0624 334.728C90.8534 334.504 90.5473 335.519 89.502 333.167C90.7115 333.675 90.9728 334.66 91.0624 334.728Z" fill="#B9C76D"/>
<path d="M93.1387 336.288C93.1835 336.34 93.624 336.311 94.1765 337.065C92.8848 337.976 93.1909 336.318 93.1387 336.288Z" fill="#B9C76D"/>
<path d="M466.948 166.396C467.545 166.456 471.331 174.079 469.546 174.707C469.352 174.774 466.082 173.064 466.172 172.37C466.246 171.772 471.241 167.173 465.134 170.294C464.805 169.674 466.328 166.337 466.956 166.396H466.948Z" fill="#ECE9D0"/>
<path d="M455.256 180.426C455.517 180.329 460.221 176.073 458.892 180.165C458.101 182.599 455.45 180.336 455.256 180.426Z" fill="#C0CCDA"/>
<path d="M463.311 179.903C464.132 179.799 465.648 180.038 465.648 180.68C465.648 182.77 458.233 180.56 463.311 179.903Z" fill="#B6D0CF"/>
<path d="M455.255 180.426C455.158 180.471 454.613 182.307 454.994 182.502C455.822 182.935 472.868 182.927 473.697 182.502C474.212 182.24 474.772 179.664 474.474 179.127C472.585 175.707 468.291 184.286 467.717 181.202C467.657 180.874 471.644 177.096 472.129 176.267C476.034 181.919 485.994 181.74 486.935 185.361C487.592 187.877 487.488 234.774 486.935 237.313C485.315 244.809 461.93 239.508 454.986 241.21C452.746 241.755 446.161 250.26 449.528 241.987C449.08 240.852 446.781 243.301 445.892 236.79C445.549 234.267 445.347 188.363 445.892 185.876C446.766 181.919 452.156 181.598 455.24 180.418L455.255 180.426Z" fill="#C0CCDA"/>
<path d="M476.558 206.924C476.558 207.231 478.148 210.777 476.296 212.636H453.957C453.038 209.358 454.211 207.208 454.218 206.924H476.558Z" fill="white"/>
<path d="M476.556 206.924H454.217C454.217 206.618 450.566 204.468 455.516 203.288C458.234 202.639 471.591 203.766 476.818 203.288C479.102 207.141 476.556 206.7 476.556 206.924Z" fill="#79B2BD"/>
<path d="M473.958 221.469H458.891C453.261 213.122 468.441 217.213 473.697 216.272C474.459 217.878 474.697 219.834 473.958 221.469Z" fill="white"/>
<path d="M473.959 221.469C473.937 221.521 475.042 221.544 474.221 222.507C467.329 222.216 455.547 223.313 458.892 221.469H473.959Z" fill="#93B9CD"/>
<path d="M461.488 356.029C460.697 362.846 456.889 391.308 453.178 394.997C452.827 395.348 450.027 397.028 449.803 397.073C448.609 397.319 426.575 397.326 425.388 397.073C423.686 396.707 421.894 394.862 420.975 393.436C418.385 389.442 414.689 363.257 413.703 356.552L461.503 356.029H461.488Z" fill="#4B8CB2"/>
<path d="M452.141 340.439C466.678 341.022 462.908 343.77 461.489 356.022L413.689 356.545C411.569 342.097 407.156 341.612 420.961 340.962C422.335 340.895 423.739 340.999 425.12 340.962C426.15 340.94 427.203 340.985 428.234 340.962C429.443 340.94 430.668 340.985 431.87 340.962C434.281 340.917 436.73 340.947 439.142 340.962C441.039 340.97 442.957 340.932 444.854 340.962C449.274 341.029 449.789 340.439 450.051 340.439C450.767 340.454 451.462 340.41 452.126 340.439H452.141Z" fill="#EE6636"/>
<path d="M451.103 326.418C452.455 327.119 453.261 328.433 454.217 329.531C446.362 335.355 449.849 331.965 446.422 331.092C446.698 328.956 448.199 324.902 451.096 326.418H451.103Z" fill="#7FA34C"/>
<path d="M440.187 317.585C440.09 318.07 440.247 318.645 440.187 319.145C440.426 319.892 439.784 320.138 439.664 320.706C439.067 323.633 435.468 324.178 439.141 340.97C436.73 340.955 434.281 340.925 431.869 340.97C433.87 332.689 435.752 332.988 432.907 324.865C432.817 324.603 432.997 324.058 432.907 323.827C440.179 324.163 436.349 320.332 440.179 317.592L440.187 317.585Z" fill="white"/>
<path d="M492.146 311.35L480.454 317.062L479.677 316.286L483.313 308.491L482.537 308.229C481.021 309.946 478.796 317.196 478.378 317.577C478.109 317.831 471.524 320.37 471.882 318.615L473.181 308.744C470.822 311.037 471.568 319.205 470.068 320.691C469.948 320.81 466.999 321.721 466.693 321.467C466.058 320.945 461.295 304.892 466.17 321.99L460.197 325.365C463.953 307.841 461.601 311.44 458.898 326.141C457.673 327.776 455.784 328.359 454.224 329.516C453.268 328.411 452.454 327.104 451.11 326.403C451.11 325.223 450.125 324.521 450.072 323.289C449.483 310.111 481.521 302.002 492.153 311.343L492.146 311.35Z" fill="#478253"/>
<path d="M485.912 321.221C487.323 322.378 486.472 323.207 484.352 325.895C480.805 330.405 478.184 330.532 473.443 332.652C472.726 332.674 470.203 330.031 469.807 329.538L466.693 323.304C468.717 322.281 470.643 320.848 472.928 320.19C478.042 325.955 482.746 328.889 475.265 319.668C481.574 316.51 482.395 320.034 485.912 321.228V321.221Z" fill="#478253"/>
<path d="M466.684 323.297C466.886 325.79 468.312 327.664 469.798 329.531C470.194 330.031 472.717 332.674 473.434 332.645C472.277 333.16 465.833 336.773 465.378 336.803C464.878 336.833 458.262 333.13 456.03 334.205C455.126 333.697 456.5 332.921 456.806 332.129C459.039 326.41 461.809 325.768 466.677 323.297H466.684Z" fill="#7FA34C"/>
<path d="M493.183 312.911C494.199 317.764 488.479 323.289 484.35 325.902C486.471 323.214 487.322 322.386 485.911 321.228C491.257 323.043 486.702 320.198 481.752 317.853L493.183 312.918V312.911Z" fill="#31745B"/>
<path d="M471.882 318.622L471.36 319.399C472.069 320.459 472.861 320.116 472.92 320.176C470.636 320.84 468.709 322.266 466.686 323.289C461.818 325.76 459.048 326.403 456.815 332.122C455.628 331.592 455.016 330.442 454.217 329.524C455.777 328.366 457.666 327.776 458.891 326.149C461.594 311.44 463.946 307.841 460.19 325.372L466.163 321.997C461.28 304.899 466.044 320.959 466.686 321.475C466.999 321.729 469.941 320.818 470.061 320.698C471.561 319.212 470.822 311.044 473.174 308.752L471.875 318.622H471.882Z" fill="#ABB36C"/>
<path d="M492.146 311.35C492.594 311.746 493.543 311.843 493.707 312.127C493.744 312.194 493.102 312.493 493.184 312.903L481.753 317.839C486.703 320.183 491.258 323.028 485.912 321.213C482.388 320.019 481.574 316.495 475.265 319.653C482.746 328.867 478.042 325.932 472.928 320.176C472.868 320.108 472.084 320.452 471.367 319.399L471.89 318.623C471.531 320.377 478.117 317.831 478.386 317.585C478.796 317.204 481.021 309.947 482.544 308.237L483.321 308.498L479.685 316.293L480.461 317.07L492.154 311.358L492.146 311.35Z" fill="#D7DEB6"/>
<path d="M469.807 329.531C468.314 327.664 466.887 325.79 466.693 323.297L469.807 329.531Z" fill="#ABB36C"/>
<path d="M466.162 294.207C467.125 294.566 468.133 294.872 468.76 295.768C463.586 301.771 460.719 303.115 456.814 307.199C455.291 306.378 452.775 306.504 453.178 304.085C454.529 302.51 455.896 300.143 457.075 298.373C467.379 305.287 458.248 298.814 458.375 297.597C458.404 297.283 462.481 293.244 462.787 293.184C463.422 293.057 465.318 293.909 466.162 294.222V294.207Z" fill="#478253"/>
<path d="M451.618 304.593C451.334 304.854 450.64 305.594 450.58 305.631C450.028 305.967 449.363 306.646 449.281 306.669C448.049 306.99 447.444 306.288 446.944 306.146C444.936 294.64 446.235 299.695 449.02 295.499C450.013 293.998 450.647 292.012 451.618 290.564C451.7 290.444 453.201 288.816 453.694 288.488C452.589 296.059 459.002 297.746 451.618 304.593Z" fill="#3F744C"/>
<path d="M456.815 307.191C454.097 310.036 449.281 315.397 448.505 319.138C446.287 319.735 445.809 317.704 444.346 316.539C445.6 312.836 448.908 309.17 450.58 305.631C450.64 305.594 451.334 304.854 451.618 304.593C451.491 305.519 452.947 304.339 453.178 304.07C452.775 306.49 455.292 306.37 456.815 307.184V307.191Z" fill="#618246"/>
<path d="M475.519 279.655C469.046 288.309 465.507 287.01 473.959 289.526C473.444 290.496 472.958 290.504 472.921 290.564C468.045 286.024 461.43 291.587 466.164 294.2C465.32 293.886 463.424 293.035 462.789 293.162C462.483 293.222 458.406 297.269 458.376 297.575C458.249 298.799 467.381 305.265 457.077 298.351C455.897 300.121 454.531 302.495 453.18 304.063C452.956 304.324 451.492 305.511 451.619 304.586C459.003 297.739 452.59 296.051 453.695 288.48H454.217C453.71 291.071 455.225 295.409 456.554 297.828C463.625 291.071 466.425 291.699 464.088 280.685C465.081 280.178 465.425 280.267 465.649 280.163L465.91 288.473C466.418 288.884 474.668 279.685 475.004 279.125C474.952 279.521 475.131 279.7 475.527 279.648L475.519 279.655Z" fill="#C4D093"/>
<path d="M474.996 279.14C474.668 279.7 466.417 288.899 465.902 288.488L465.641 280.178C467.126 279.513 478.087 273.913 474.989 279.14H474.996Z" fill="#3F744C"/>
<path d="M473.959 289.526C465.499 287.01 469.046 288.309 475.519 279.655C479.006 279.192 475.019 287.555 473.959 289.526Z" fill="#478253"/>
<path d="M472.921 290.564C470.629 294.342 470.054 294.267 468.762 295.76C468.135 294.872 467.127 294.558 466.164 294.2C461.422 291.586 468.038 286.024 472.921 290.564Z" fill="#478253"/>
<path d="M444.346 316.547C443.898 317.868 443.846 317.532 443.823 317.585H443.301C443.719 315.696 443.472 310.357 445.899 306.154C446.235 306.191 446.668 306.079 446.937 306.154C447.445 306.295 448.042 306.997 449.274 306.676C449.356 306.654 450.021 305.974 450.573 305.638C448.901 309.177 445.593 312.843 444.339 316.547H444.346Z" fill="white"/>
<path d="M454.218 288.488C454.718 285.957 461.789 281.873 464.088 280.693C466.425 291.706 463.625 291.079 456.555 297.836C455.226 295.409 453.71 291.071 454.218 288.488Z" fill="#478253"/>
<path d="M456.555 286.412C458.691 295.992 455.719 298.209 456.294 288.749C456.354 287.816 456.115 286.412 456.555 286.412Z" fill="#558F63"/>
<path d="M445.384 331.092L444.862 340.962C442.965 340.932 441.046 340.97 439.15 340.962C435.476 324.17 439.075 323.625 439.672 320.698C442.084 322.072 442.614 330.345 441.233 331.868C441.472 332.831 442.92 330.763 445.392 331.092H445.384Z" fill="#7FA34C"/>
<path d="M448.505 319.145C448.155 320.997 449.148 322.162 449.028 322.781C447.094 332.592 439.434 332.995 443.831 317.585C443.846 317.532 443.906 317.868 444.354 316.547C445.818 317.712 446.295 319.743 448.513 319.145H448.505Z" fill="#7FA34C"/>
<path d="M449.02 322.781L450.057 323.304C450.11 324.536 451.095 325.238 451.095 326.418C448.198 324.902 446.69 328.956 446.421 331.092C446.137 331.017 445.712 331.136 445.383 331.092C442.919 330.77 441.463 332.839 441.225 331.868C442.613 330.345 442.083 322.072 439.664 320.698C439.784 320.131 440.418 319.884 440.187 319.138C442.307 323.199 442.464 321.355 443.3 317.577H443.823C439.425 332.988 447.086 332.585 449.02 322.774V322.781Z" fill="#C4D093"/>
<path d="M450.58 290.048C444.517 306.519 442.404 287.107 442.785 286.151C442.949 285.748 448.183 283.261 449.02 282.253C452.148 281.955 449.923 287.935 450.58 290.048Z" fill="#3F744C"/>
<path d="M448.505 281.738C441.897 288.003 439.291 283.164 441.232 278.625C441.658 277.624 442.226 277.647 442.27 277.587C443.189 276.31 446.885 274.578 446.429 272.39C447.922 275.564 451.469 278.931 448.505 281.738Z" fill="#478253"/>
<path d="M432.916 260.436L436.029 270.568C429.003 266.932 430.161 268.747 426.681 268.231C424.635 262.557 427.719 261.123 432.916 260.436Z" fill="#558F63"/>
<path d="M440.188 263.55C437.447 273.54 435.133 268.067 433.953 260.436C438.142 260.302 437.395 261.056 440.188 263.55Z" fill="#478253"/>
<path d="M433.438 299.396C431.713 299.016 429.973 298.276 428.241 297.836C423.94 290.504 423.462 278.124 425.127 269.784C426.165 269.635 429.04 274.145 429.286 274.72C430.451 277.497 438.082 299.994 436.297 300.434C435.506 299.792 434.401 299.605 433.438 299.396Z" fill="#639659"/>
<path d="M444.346 298.359L439.149 302.517C436.551 292.356 431.638 288.047 441.747 287.711C442.404 291.303 443.621 294.797 444.346 298.359Z" fill="#478253"/>
<path d="M445.906 306.154C443.479 310.35 443.726 315.696 443.308 317.585C442.471 321.363 442.307 323.207 440.194 319.145C440.254 318.645 440.097 318.07 440.194 317.585C440.411 316.487 441.232 311.664 441.232 311.35C441.232 305.377 439.268 302.965 439.156 302.517L444.353 298.359C444.883 300.942 446.436 303.331 445.913 306.154H445.906Z" fill="#478253"/>
<path d="M442.27 277.579L446.428 272.383C446.891 274.563 443.195 276.303 442.27 277.579Z" fill="#C4D093"/>
<path d="M433.952 260.436C435.132 268.067 437.446 273.548 440.186 263.55C440.799 264.095 441.194 264.55 441.747 265.11C437.782 267.746 437.558 272.189 439.149 276.28L444.86 269.269C444.972 269.434 445.249 269.135 445.898 270.307C442.098 273.958 437.446 280.603 441.224 278.617C439.283 283.164 441.896 287.995 448.497 281.731C448.444 282.134 448.624 282.291 449.019 282.253C448.183 283.254 442.949 285.74 442.785 286.151C442.397 287.107 444.517 306.519 450.58 290.048L451.618 290.571C450.647 292.02 450.012 294.006 449.019 295.506C446.234 299.71 444.928 294.648 446.944 306.154C446.675 306.079 446.242 306.191 445.906 306.154C446.428 303.331 444.875 300.949 444.345 298.359C443.621 294.79 442.404 291.303 441.747 287.711C431.637 288.047 436.55 292.356 439.149 302.517C439.261 302.965 441.224 305.377 441.224 311.35C439.574 311.925 440.343 305.362 438.626 302.779C436.998 300.33 433.034 301.099 433.429 299.404C434.393 299.613 435.49 299.8 436.289 300.442C438.073 299.994 430.443 277.497 429.278 274.727C429.032 274.152 426.157 269.643 425.119 269.792C425.343 269.053 424.738 268.806 424.597 268.231C424.529 267.948 424.626 267.53 424.597 267.194C425.254 267.955 425.687 268.082 426.672 268.231C430.152 268.754 429.002 266.932 436.02 270.568L432.907 260.436C433.243 260.392 433.609 260.444 433.945 260.436H433.952Z" fill="#C4D093"/>
<path d="M441.748 265.11C443.562 266.947 443.614 267.373 444.861 269.269L439.149 276.28C437.559 272.189 437.783 267.746 441.748 265.11Z" fill="#478253"/>
<path d="M446.421 272.383L442.263 277.579C442.218 277.639 441.65 277.617 441.225 278.617C437.447 280.596 442.098 273.958 445.899 270.307C446.055 270.591 446.25 272.017 446.421 272.383Z" fill="#478253"/>
<path d="M438.111 280.178C436.655 280.603 436.192 282.209 434.998 283.037C436.446 283.568 437.782 281.335 438.111 280.178C440.142 279.58 441.366 285.8 441.225 286.151C441.098 286.479 435.259 288.966 434.467 288.227C435.147 285.882 427.105 269.77 427.972 269.262C431.16 267.41 432.22 270.329 433.168 270.822C434.004 271.263 440.381 272.368 438.104 280.17L438.111 280.178Z" fill="#478253"/>
<path d="M438.112 280.178C437.776 281.328 436.447 283.568 434.998 283.037C436.2 282.216 436.656 280.611 438.112 280.178Z" fill="#C4D093"/>
<path d="M417.848 295.76C418.019 295.76 418.191 295.753 418.37 295.76C418.296 297.657 418.542 299.628 418.893 301.472C419.117 302.674 421.126 308.543 420.192 309.267C417.542 306.198 413.062 305.287 412.136 304.593C409.754 302.794 410.113 300.121 409.538 296.798C409.478 296.47 409.59 296.089 409.538 295.76C412.3 295.813 415.093 295.693 417.848 295.76Z" fill="#528375"/>
<path d="M422.53 324.857C426.248 325.305 429.227 325.365 432.923 324.857C435.768 332.981 433.886 332.682 431.885 340.962C430.676 340.985 429.451 340.94 428.249 340.962C428.346 339.633 428.227 333.638 427.472 333.167C425.046 331.674 427.241 339.715 425.135 340.962C423.762 341 422.35 340.895 420.977 340.962C423.134 330.554 418.669 332.428 413.182 328.493C414.57 326.709 416.594 325.798 417.856 323.819C419.312 324.782 421.313 324.715 422.53 324.857Z" fill="#7FA34C"/>
<path d="M428.24 340.962C427.21 340.985 426.157 340.94 425.127 340.962C427.232 339.715 425.037 331.674 427.464 333.167C428.226 333.63 428.338 339.626 428.24 340.962Z" fill="white"/>
<path d="M428.241 297.843C429.973 298.276 431.713 299.023 433.438 299.404C433.042 301.099 437.007 300.337 438.634 302.779C440.352 305.362 439.583 311.925 441.233 311.35C441.233 311.664 440.411 316.487 440.195 317.585C436.365 320.325 440.195 324.155 432.923 323.819C432.796 323.491 429.734 318.488 429.286 317.846C427.465 315.218 421.805 310.185 421.491 309.536C421.006 308.513 420.581 299.852 418.893 301.48C418.55 299.635 418.303 297.657 418.37 295.768C422.335 295.977 424.5 296.903 428.241 297.843Z" fill="#7FA34C"/>
<path d="M422.528 324.857C421.311 324.708 419.31 324.782 417.854 323.819C421.49 318.115 422.625 309.14 416.555 323.819L404.863 319.66C404.713 319.459 404.489 318.839 404.34 318.623C404.34 318.302 404.221 317.644 404.601 317.585C420.094 315.083 423.932 302.846 422.528 324.857Z" fill="#639659"/>
<path d="M410.575 305.116C410.157 313.321 412.606 316.719 403.303 317.062C401.996 314.986 401.683 314.845 400.189 311.865C402.459 309.275 407.29 305.549 410.583 305.108L410.575 305.116Z" fill="#478253"/>
<path d="M399.145 310.828C397.644 307.58 396.33 304.615 396.031 300.957C408.03 304.242 411.196 303.257 399.145 310.828Z" fill="#7FA34C"/>
<path d="M408.499 296.798C411.128 308.595 407.932 301.913 395.508 299.912L395.769 298.874C401.138 299.434 402.855 295.141 408.499 296.798Z" fill="#7FA34C"/>
<path d="M409.537 296.798C410.105 300.121 409.754 302.794 412.136 304.593C412.166 305.407 411.374 305.004 410.575 305.116C407.29 305.556 402.452 309.275 400.182 311.873C400.152 311.806 399.615 311.843 399.144 310.835C411.188 303.264 408.022 304.242 396.031 300.964C396.031 300.905 395.314 301.159 395.508 299.927C407.932 301.92 411.12 308.61 408.5 296.813C408.761 296.888 409.209 296.776 409.537 296.813V296.798Z" fill="#C4D093"/>
<path d="M411.613 327.455C407.126 323.991 408.261 323.961 405.379 320.183C412.017 324.103 419.095 324.596 411.613 327.455Z" fill="#7FA34C"/>
<path d="M417.847 323.819C416.585 325.798 414.562 326.709 413.173 328.493C413.098 328.441 412.889 328.441 411.613 327.455C419.094 324.596 412.016 324.095 405.378 320.183C405.356 320.153 405.244 320.19 404.855 319.66L416.548 323.819C422.618 309.14 421.483 318.115 417.847 323.819Z" fill="#C4D093"/>
<path d="M432.914 323.819C433.004 324.051 432.825 324.603 432.914 324.857C429.218 325.365 426.247 325.305 422.521 324.857C423.925 302.838 420.094 315.076 404.594 317.585C404.213 317.644 404.333 318.309 404.333 318.623C403.937 318.048 403.676 317.674 403.295 317.062C412.606 316.719 410.149 313.314 410.567 305.116C411.366 305.011 412.158 305.414 412.128 304.593C413.046 305.287 417.533 306.198 420.184 309.267C421.117 308.543 419.109 302.674 418.885 301.472C420.565 299.844 420.998 308.498 421.483 309.528C421.797 310.185 427.456 315.21 429.278 317.839C429.726 318.481 432.787 323.491 432.914 323.812V323.819Z" fill="#C4D093"/>
<path d="M423.82 313.949C429.913 318.204 434.923 325.97 423.559 324.596L423.82 313.949Z" fill="#558F63"/>
<path d="M411.874 305.631C422.521 309.543 422.282 311.432 411.352 314.464L411.874 305.631Z" fill="#558F63"/>
<path d="M335.76 312.388V314.464C332.012 314.568 329.182 319.72 328.488 323.035C326.636 331.801 328.63 383.566 326.927 398.626C323.634 396.811 323.5 398.342 322.253 393.952C322.037 393.19 321.768 392.6 321.731 392.391C321.477 390.763 321.828 388.12 321.731 386.157C321.402 379.653 321.268 327.635 321.731 324.596C322.806 317.517 328.906 313.15 335.76 312.388Z" fill="#F9A41B"/>
<path d="M353.426 311.865C359.601 311.746 366.41 312.209 372.652 312.388C375.952 312.478 375.609 311.865 375.765 311.865C379.342 311.985 384.882 311.888 388.234 312.903C389.227 313.209 394.514 317.323 396.029 318.615C396.216 320.273 397.881 323.125 398.105 325.111C398.478 328.411 398.247 331.973 398.628 335.243C396.029 340.044 395.395 353.573 394.991 354.723C394.85 355.126 394.29 354.984 393.954 354.984C392.684 340.955 393.991 317.428 382.784 315.502C379.827 314.994 340.994 315.367 338.366 316.024C338.687 314.053 337.791 314.411 335.768 314.464V312.388C340.255 311.888 345.743 311.977 350.312 311.865C351.275 311.843 352.38 311.888 353.426 311.865Z" fill="#F27F32"/>
<path d="M335.761 314.464C337.784 314.404 338.68 314.053 338.359 316.024C335.051 316.846 332.729 319.197 332.124 322.52C330.989 328.71 332.744 394.997 331.602 398.633C330.243 402.971 327.809 399.118 326.928 398.633C328.623 383.573 326.637 331.808 328.488 323.043C329.19 319.728 332.012 314.576 335.761 314.471V314.464Z" fill="#F27F32"/>
<path d="M393.954 354.992C394.977 366.326 395.448 382.662 396.553 390.838C389.452 408.444 385.233 399.41 381.747 398.633C377.633 397.722 341.592 399.32 331.609 398.633C332.744 395.004 330.997 328.71 332.132 322.52C332.737 319.197 335.059 316.846 338.367 316.024C341.002 315.367 379.828 314.994 382.784 315.502C393.992 317.428 392.685 340.955 393.954 354.984V354.992Z" fill="#F9A41B"/>
<path d="M381.486 356.029C380.918 359.464 381.904 367.408 381.486 371.873L380.186 373.172H346.938C345.363 372.478 346.027 357.799 346.162 355.507L381.493 356.029H381.486Z" fill="#EE6636"/>
<path d="M380.962 354.469C377.819 355.552 351.432 355.44 346.154 353.946C346.176 353.827 345.937 351.774 345.631 351.609C350.141 349.347 346.475 345.987 350.044 343.553C355.24 343.986 378.677 342.971 380.178 343.553C382.687 344.524 380.678 351.893 380.955 354.462L380.962 354.469Z" fill="#F28521"/>
<path d="M381.486 356.029L346.155 355.507C346.155 355.432 345.864 355.693 346.155 353.946C351.434 355.432 377.82 355.552 380.963 354.469C381.008 354.454 380.807 355.148 381.74 354.992L382.001 353.17H383.039C383.629 355.372 381.591 355.357 381.479 356.029H381.486Z" fill="#BC392C"/>
</svg>
