<svg width="53" height="56" viewBox="0 0 53 56" fill="none" xmlns="http://www.w3.org/2000/svg">
<g clip-path="url(#clip0_763_6235)">
<g filter="url(#filter0_d_763_6235)">
<path d="M43.9009 34.5163C49.7257 34.3371 49.7234 26.3176 43.9009 26.1389C38.0761 26.3181 38.0785 34.3376 43.9009 34.5163ZM43.9009 28C47.2566 28.0838 47.2566 32.5705 43.9009 32.6543C40.5452 32.5705 40.5452 28.0838 43.9009 28Z" fill="#8ADAFF"/>
</g>
<g filter="url(#filter1_d_763_6235)">
<path d="M1.0821 43.8241H14.114V49.4092H3.40908C-0.889102 49.5419 -0.903101 55.7855 3.40908 55.9255H49.0205C52.4693 55.9139 53.5188 51.2014 50.4168 49.7351V35.2883C53.8958 31.4113 52.2017 25.1213 47.4404 23.1637C45.5089 20.6155 42.6511 17.5879 39.4395 16.5986C41.0383 15.2372 41.15 12.6076 39.6257 11.1485L38.9671 10.4899C38.9997 10.4317 42.0459 7.45065 41.9319 7.52512L43.5748 5.88218C44.3009 5.15609 44.3009 3.97395 43.5748 3.25018L40.9428 0.618179C40.2167 -0.107915 39.0346 -0.107915 38.3108 0.618179L33.7031 5.22591L33.0445 4.56731C31.6576 3.12215 29.1652 3.12215 27.7806 4.56731L13.2986 19.0469C12.028 20.271 11.8488 22.3956 12.8867 23.8128L10.164 25.0649C6.84551 26.6962 9.0842 31.5787 12.4841 30.145L15.3698 28.8208L14.0526 31.7018C13.3987 33.0515 14.048 34.8061 15.4257 35.4042C16.7917 36.0348 18.4812 35.4391 19.1234 34.0335L20.3778 31.3015C21.795 32.3417 23.922 32.1625 25.1461 30.8919L31.9876 24.0504C33.1326 24.0178 35.6063 24.1039 37.4959 25.2372C34.6219 28.2229 35.0152 33.5425 38.2313 36.1256C33.9936 41.7899 23.8262 44.366 20.636 45.0523V43.8189H22.4977C23.7148 43.8003 23.7264 41.9782 22.4977 41.9572C20.8152 41.9549 16.7753 41.9572 15.0509 41.9572L1.08126 41.9618C-0.133524 41.9805 -0.149788 43.8026 1.08126 43.8236L1.0821 43.8241ZM39.6238 1.93614L42.2558 4.56814L41.1504 5.67587L38.5184 3.04387L39.6261 1.93614H39.6238ZM37.2013 4.35868L39.8333 6.99068L37.6481 9.17587C36.9918 8.5196 35.67 7.19782 35.0138 6.54387L37.1989 4.35868H37.2013ZM11.7052 28.456C10.5975 28.9516 9.82489 27.2645 10.9372 26.7595L14.2254 25.2445L15.6333 26.6524L11.7028 28.4559L11.7052 28.456ZM17.4276 33.2615C16.8947 34.3599 15.2494 33.6012 15.7405 32.4819L17.5347 28.556L18.9426 29.964L17.4276 33.2615ZM23.8271 29.5799C23.1243 30.2827 21.8979 30.2827 21.1951 29.5799L14.6139 22.9988C13.8925 22.3053 13.8902 21.0603 14.6139 20.3668L29.0959 5.88718C30.6853 4.44435 31.9629 6.0943 33.045 7.20431L38.3113 12.4706C39.0326 13.1641 39.035 14.4091 38.3113 15.1026L23.8293 29.5845L23.8271 29.5799ZM33.7802 22.2588L37.8667 18.1724C40.3427 18.4377 42.5791 20.3878 44.4407 22.4404C42.4463 22.2844 40.4474 22.9058 38.9347 23.967C37.3243 22.8314 35.3393 22.4055 33.7778 22.2588H33.7802ZM37.3849 30.327C37.7061 22.3148 50.0981 22.3172 50.4169 30.327C50.0957 38.3416 37.7037 38.3368 37.3849 30.327ZM20.7202 46.9429C23.7617 46.3262 34.9364 43.657 39.7351 37.1805C42.3182 38.6745 46.0929 38.5488 48.5551 36.8989V43.822H42.97C39.9122 43.8523 38.0086 46.4749 38.3158 49.4071H20.6549L20.7224 46.9427L20.7202 46.9429ZM48.5551 45.6863V49.4097H40.1778V48.4788C40.1778 46.9383 41.4298 45.6863 42.9703 45.6863H48.5551ZM15.9751 43.8246H18.7676V49.4097H15.9751V43.8246ZM49.0204 51.2714C50.8402 51.2993 50.8682 54.029 49.0204 54.0639H3.40902C1.58687 54.036 1.56358 51.304 3.40902 51.2714H49.0204Z" fill="#8ADAFF"/>
</g>
</g>
<defs>
<filter id="filter0_d_763_6235" x="37.5332" y="26.1389" width="12.7354" height="12.3774" filterUnits="userSpaceOnUse" color-interpolation-filters="sRGB">
<feFlood flood-opacity="0" result="BackgroundImageFix"/>
<feColorMatrix in="SourceAlpha" type="matrix" values="0 0 0 0 0 0 0 0 0 0 0 0 0 0 0 0 0 0 127 0" result="hardAlpha"/>
<feOffset dy="2"/>
<feGaussianBlur stdDeviation="1"/>
<feComposite in2="hardAlpha" operator="out"/>
<feColorMatrix type="matrix" values="0 0 0 0 0 0 0 0 0 0 0 0 0 0 0 0 0 0 0.25 0"/>
<feBlend mode="normal" in2="BackgroundImageFix" result="effect1_dropShadow_763_6235"/>
<feBlend mode="normal" in="SourceGraphic" in2="effect1_dropShadow_763_6235" result="shape"/>
</filter>
<filter id="filter1_d_763_6235" x="-1.83594" y="0.0736084" width="56.0967" height="59.8519" filterUnits="userSpaceOnUse" color-interpolation-filters="sRGB">
<feFlood flood-opacity="0" result="BackgroundImageFix"/>
<feColorMatrix in="SourceAlpha" type="matrix" values="0 0 0 0 0 0 0 0 0 0 0 0 0 0 0 0 0 0 127 0" result="hardAlpha"/>
<feOffset dy="2"/>
<feGaussianBlur stdDeviation="1"/>
<feComposite in2="hardAlpha" operator="out"/>
<feColorMatrix type="matrix" values="0 0 0 0 0 0 0 0 0 0 0 0 0 0 0 0 0 0 0.25 0"/>
<feBlend mode="normal" in2="BackgroundImageFix" result="effect1_dropShadow_763_6235"/>
<feBlend mode="normal" in="SourceGraphic" in2="effect1_dropShadow_763_6235" result="shape"/>
</filter>
<clipPath id="clip0_763_6235">
<rect width="52.4255" height="56" fill="white"/>
</clipPath>
</defs>
</svg>
