<svg width="46" height="56" viewBox="0 0 46 56" fill="none" xmlns="http://www.w3.org/2000/svg">
<g clip-path="url(#clip0_763_6250)">
<g filter="url(#filter0_d_763_6250)">
<path d="M45.5537 28.244C45.555 27.446 45.3916 26.6564 45.0738 25.9244C44.7559 25.1925 44.2905 24.5341 43.7065 23.9903C43.7924 23.9005 43.8775 23.8092 43.9589 23.7141C44.6611 22.8952 45.1526 21.9172 45.3906 20.865C45.6286 19.8128 45.606 18.7185 45.3246 17.6771C45.0432 16.6357 44.5117 15.6788 43.7762 14.8897C43.0406 14.1005 42.1235 13.5031 41.1044 13.1493C41.3687 12.2791 41.4256 11.3592 41.2706 10.4631C41.1155 9.56701 40.7528 8.71968 40.2115 7.98894C39.6701 7.25821 38.9652 6.66438 38.1532 6.25501C37.3411 5.84564 36.4445 5.63209 35.5351 5.63147C35.4914 5.63147 35.4484 5.63147 35.4047 5.63147C35.1478 4.03949 34.3186 2.59606 33.0727 1.57224C31.8268 0.548414 30.2501 0.014636 28.6385 0.0711461C27.0269 0.127656 25.4914 0.770567 24.3203 1.87914C23.1493 2.98771 22.4232 4.48569 22.2784 6.09174H17.3259C15.4081 6.09174 13.8117 6.65941 12.4393 7.82774C11.61 8.53273 10.9051 9.15026 10.4709 9.53152C9.79512 9.15432 9.00477 9.03724 8.24869 9.20231C7.49261 9.36739 6.82299 9.80324 6.36596 10.4278C5.90892 11.0523 5.69603 11.8224 5.76737 12.593C5.83872 13.3636 6.18937 14.0815 6.75329 14.6115C7.31721 15.1415 8.05547 15.447 8.82901 15.4704C9.60254 15.4939 10.358 15.2337 10.953 14.7389C11.548 14.244 11.9415 13.5487 12.0594 12.7838C12.1773 12.019 12.0115 11.2374 11.5932 10.5863C12.0251 10.2066 12.6771 9.63815 13.4343 8.99454C14.5174 8.07399 15.7909 7.62445 17.3266 7.62445H22.2462V13.3564H15.3743C15.1709 13.3564 14.9757 13.4372 14.8319 13.5811C14.688 13.7249 14.6072 13.9201 14.6072 14.1235C14.6072 14.327 14.688 14.5221 14.8319 14.666C14.9757 14.8098 15.1709 14.8906 15.3743 14.8906H22.2462V20.5382H7.64248C7.45526 19.7893 7.00064 19.1348 6.36428 18.6979C5.72791 18.261 4.95374 18.0719 4.18761 18.1662C3.42148 18.2605 2.71629 18.6317 2.2049 19.2099C1.69351 19.7882 1.41122 20.5334 1.41122 21.3053C1.41122 22.0772 1.69351 22.8225 2.2049 23.4007C2.71629 23.9789 3.42148 24.3502 4.18761 24.4445C4.95374 24.5388 5.72791 24.3497 6.36428 23.9128C7.00064 23.4759 7.45526 22.8213 7.64248 22.0725H22.2462V27.6686H11.5694C9.65157 27.6686 8.05519 28.2363 6.6828 29.4046C5.85354 30.1104 5.14856 30.7279 4.71437 31.1092C4.03966 30.7328 3.25063 30.616 2.49583 30.7809C1.74103 30.9457 1.07254 31.3809 0.616224 32.0043C0.159911 32.6277 -0.0527413 33.3965 0.0183073 34.1658C0.0893559 34.9351 0.439202 35.652 1.00198 36.1813C1.56475 36.7106 2.30162 37.0159 3.07385 37.0398C3.84608 37.0636 4.60039 36.8043 5.19474 36.3107C5.7891 35.8171 6.1825 35.1233 6.30087 34.3598C6.41924 33.5963 6.25442 32.8159 5.83744 32.1655C6.26933 31.7858 6.92138 31.2166 7.67853 30.5737C8.76171 29.6532 10.0351 29.2036 11.5709 29.2036H22.2393V35.2593H16.535C16.3477 34.5104 15.8931 33.8559 15.2568 33.419C14.6204 32.9821 13.8462 32.793 13.0801 32.8873C12.314 32.9816 11.6088 33.3528 11.0974 33.931C10.586 34.5093 10.3037 35.2545 10.3037 36.0264C10.3037 36.7983 10.586 37.5436 11.0974 38.1218C11.6088 38.7 12.314 39.0713 13.0801 39.1656C13.8462 39.2599 14.6204 39.0708 15.2568 38.6339C15.8931 38.197 16.3477 37.5424 16.535 36.7935H22.2362V42.8538H14.3671C14.1636 42.8538 13.9685 42.9346 13.8246 43.0785C13.6808 43.2224 13.6 43.4175 13.6 43.6209C13.6 43.8244 13.6808 44.0195 13.8246 44.1634C13.9685 44.3072 14.1636 44.3881 14.3671 44.3881H22.2324V50.1154C22.2324 50.2259 22.2324 50.3356 22.2424 50.4445H15.7724C14.2382 50.4445 12.9632 49.9965 11.8801 49.0744C11.1237 48.4316 10.4716 47.8631 10.039 47.4826C10.4546 46.8333 10.6186 46.0544 10.4999 45.2926C10.3813 44.5308 9.98834 43.8386 9.39495 43.3463C8.80157 42.8541 8.04871 42.5957 7.2781 42.6198C6.50748 42.6439 5.77226 42.9489 5.21084 43.4773C4.64942 44.0058 4.30051 44.7212 4.22979 45.4889C4.15908 46.2567 4.37143 47.0238 4.82689 47.6459C5.28234 48.2679 5.94948 48.7021 6.70272 48.8666C7.45596 49.0311 8.24335 48.9146 8.91667 48.539C9.34933 48.9225 10.0558 49.5362 10.8851 50.2428C12.2575 51.4111 13.8562 51.9788 15.7717 51.9788H22.5377C22.9745 53.2721 23.8522 54.3707 25.0172 55.0823C26.1822 55.794 27.5603 56.0734 28.9104 55.8716C30.2606 55.6698 31.4968 54.9997 32.4028 53.9786C33.3088 52.9575 33.827 51.6503 33.8666 50.2857C33.8919 50.2919 33.9172 50.2972 33.9433 50.3011C34.1381 50.3294 34.3361 50.3502 34.5332 50.3617C34.6652 50.3693 34.7971 50.3732 34.9283 50.3732C36.6151 50.3704 38.2372 49.7238 39.4633 48.5654C40.6894 47.407 41.427 45.8242 41.5255 44.1403C41.5723 43.3312 41.4709 42.5203 41.2264 41.7476C42.0281 41.3763 42.7349 40.8276 43.2934 40.143C43.852 39.4584 44.2476 38.6558 44.4504 37.7958C44.6532 36.9359 44.658 36.0411 44.4642 35.1791C44.2705 34.317 43.8834 33.5103 43.3321 32.8199C44.0237 32.2742 44.5828 31.5791 44.9675 30.7866C45.3522 29.9941 45.5527 29.1249 45.5537 28.244ZM8.93201 13.9225C8.60972 13.9227 8.29462 13.8273 8.02657 13.6483C7.75852 13.4694 7.54956 13.2149 7.42612 12.9172C7.30268 12.6195 7.2703 12.2919 7.33309 11.9758C7.39587 11.6596 7.55099 11.3692 7.77883 11.1413C8.00667 10.9134 8.297 10.7581 8.61309 10.6952C8.92917 10.6322 9.25683 10.6645 9.5546 10.7878C9.85237 10.9111 10.1069 11.1199 10.286 11.3879C10.465 11.6558 10.5606 11.9709 10.5606 12.2932C10.5602 12.725 10.3885 13.1391 10.0832 13.4446C9.77789 13.75 9.36389 13.9219 8.93201 13.9225ZM4.57398 22.937C4.25623 22.9373 3.94535 22.8446 3.67963 22.6703C3.41391 22.4961 3.20497 22.2479 3.07854 21.9564C2.95211 21.6649 2.91372 21.3427 2.9681 21.0297C3.02248 20.7166 3.16725 20.4263 3.38458 20.1945C3.60191 19.9627 3.88231 19.7995 4.19122 19.7251C4.50013 19.6507 4.82407 19.6682 5.12312 19.7756C5.42217 19.883 5.68327 20.0756 5.87426 20.3295C6.06525 20.5835 6.17778 20.8877 6.19798 21.2048C6.18673 21.2734 6.18673 21.3434 6.19798 21.412C6.17131 21.8248 5.9887 22.212 5.68714 22.4952C5.38559 22.7784 4.98766 22.9363 4.57398 22.937ZM3.17552 35.5009C2.85326 35.5009 2.53824 35.4054 2.27029 35.2264C2.00234 35.0473 1.7935 34.7928 1.67018 34.4951C1.54685 34.1974 1.51459 33.8698 1.57745 33.5537C1.64032 33.2376 1.79551 32.9473 2.02338 32.7194C2.25125 32.4916 2.54158 32.3364 2.85764 32.2735C3.17371 32.2106 3.50132 32.2429 3.79905 32.3662C4.09678 32.4896 4.35125 32.6984 4.53029 32.9663C4.70933 33.2343 4.80489 33.5493 4.80489 33.8716C4.80448 34.3036 4.63268 34.7178 4.32721 35.0233C4.02173 35.3287 3.60753 35.5005 3.17552 35.5009ZM13.4657 37.655C13.148 37.6553 12.8371 37.5626 12.5714 37.3883C12.3056 37.2141 12.0967 36.9659 11.9703 36.6744C11.8438 36.3829 11.8054 36.0608 11.8598 35.7477C11.9142 35.4346 12.059 35.1443 12.2763 34.9125C12.4936 34.6807 12.774 34.5176 13.0829 34.4431C13.3919 34.3687 13.7158 34.3863 14.0148 34.4937C14.3139 34.6011 14.575 34.7936 14.766 35.0475C14.957 35.3015 15.0695 35.6058 15.0897 35.9229C15.0795 35.9915 15.0795 36.0613 15.0897 36.13C15.0632 36.5429 14.8807 36.9302 14.5791 37.2134C14.2775 37.4966 13.8794 37.6545 13.4657 37.655ZM5.75305 45.7727C5.75305 45.4506 5.84857 45.1357 6.02752 44.8679C6.20647 44.6001 6.46083 44.3914 6.75841 44.2681C7.056 44.1448 7.38346 44.1126 7.69938 44.1754C8.0153 44.2383 8.30549 44.3934 8.53325 44.6211C8.76101 44.8489 8.91612 45.1391 8.97896 45.455C9.0418 45.7709 9.00955 46.0984 8.88629 46.396C8.76302 46.6936 8.55428 46.9479 8.28646 47.1269C8.01863 47.3058 7.70376 47.4013 7.38166 47.4013C6.94991 47.4007 6.53602 47.2289 6.23073 46.9236C5.92544 46.6184 5.75366 46.2045 5.75305 45.7727ZM42.5382 38.5426C42.2658 39.0356 41.8982 39.4696 41.4568 39.8195C41.0154 40.1694 40.5089 40.4282 39.9668 40.5808C39.8364 40.618 39.7183 40.689 39.6243 40.7867C39.5304 40.8843 39.464 41.0051 39.4319 41.1367C39.3998 41.2684 39.4031 41.4062 39.4415 41.5361C39.48 41.6661 39.5521 41.7835 39.6507 41.8765C39.9254 42.5656 40.0443 43.307 39.999 44.0475C39.9216 45.3415 39.3537 46.5573 38.4109 47.447C37.4682 48.3368 36.2215 48.8335 34.9252 48.8358C34.8263 48.8358 34.7258 48.8358 34.6253 48.8274C34.4718 48.8182 34.3184 48.8021 34.1704 48.7799C34.0223 48.7582 33.8711 48.7803 33.7354 48.8435C33.5773 48.1336 33.2869 47.4598 32.8793 46.8574C32.7656 46.6885 32.5894 46.5716 32.3895 46.5325C32.1896 46.4935 31.9824 46.5354 31.8134 46.6492C31.6444 46.7629 31.5275 46.9391 31.4885 47.139C31.4494 47.3389 31.4914 47.5461 31.6051 47.7151C31.9798 48.2707 32.219 48.9064 32.3035 49.5712C32.388 50.236 32.3155 50.9114 32.0917 51.5431C31.8679 52.1748 31.4992 52.7452 31.0151 53.2086C30.5309 53.672 29.9449 54.0154 29.304 54.2113C28.6631 54.4071 27.9852 54.45 27.3248 54.3365C26.6643 54.223 26.0397 53.9562 25.501 53.5575C24.9623 53.1588 24.5246 52.6394 24.223 52.041C23.9214 51.4426 23.7643 50.7817 23.7643 50.1116L23.7843 6.68626C23.784 5.40836 24.2648 4.17717 25.1311 3.23771C25.9974 2.29824 27.1856 1.71937 28.4593 1.61629C29.7331 1.51321 30.9989 1.89347 32.005 2.6814C33.0111 3.46934 33.6837 4.60718 33.8888 5.86851C32.6846 6.22529 31.6279 6.9614 30.8758 7.96725C30.1237 8.97311 29.7165 10.1949 29.7149 11.4509C29.7149 11.6543 29.7957 11.8494 29.9396 11.9933C30.0835 12.1372 30.2786 12.218 30.482 12.218C30.6855 12.218 30.8806 12.1372 31.0245 11.9933C31.1683 11.8494 31.2492 11.6543 31.2492 11.4509C31.2416 10.8832 31.3468 10.3196 31.5588 9.7929C31.7708 9.2662 32.0853 8.78686 32.4841 8.38272C32.8829 7.97858 33.358 7.65768 33.8818 7.43865C34.4056 7.21962 34.9677 7.10684 35.5355 7.10684C36.1032 7.10684 36.6653 7.21962 37.1891 7.43865C37.713 7.65768 38.188 7.97858 38.5868 8.38272C38.9856 8.78686 39.3001 9.2662 39.5121 9.7929C39.7241 10.3196 39.8294 10.8832 39.8218 11.4509C39.8236 12.1011 39.6761 12.7431 39.3906 13.3273C39.3905 13.3301 39.3905 13.3329 39.3906 13.3357C39.3822 13.3533 39.3745 13.371 39.3676 13.3894C39.3607 13.4078 39.3623 13.404 39.36 13.4116C39.3577 13.4193 39.3492 13.4431 39.3446 13.4592C39.34 13.4753 39.3392 13.4799 39.3369 13.4906C39.3346 13.5014 39.3323 13.506 39.3308 13.5137V13.5321C39.3308 13.5436 39.3308 13.5551 39.3254 13.5674L39.3208 13.6096C39.3208 13.6195 39.3208 13.6295 39.3208 13.6402C39.3208 13.651 39.3208 13.6717 39.3208 13.687C39.3208 13.7024 39.3208 13.7031 39.3208 13.7116C39.3208 13.72 39.3208 13.7461 39.3254 13.763C39.33 13.7799 39.3254 13.776 39.3254 13.7829C39.3254 13.7898 39.3316 13.819 39.3362 13.8366C39.3374 13.8426 39.3389 13.8485 39.3408 13.8543C39.3454 13.8719 39.35 13.8896 39.3561 13.9064L39.363 13.9264C39.3692 13.9425 39.3753 13.9586 39.3822 13.9739C39.3856 13.9821 39.3894 13.99 39.3937 13.9977C39.3998 14.0116 39.4068 14.0252 39.4144 14.0384C39.419 14.0476 39.4252 14.0568 39.4305 14.066L39.452 14.0997C39.4589 14.1097 39.4666 14.1189 39.4743 14.1289L39.4965 14.1573L39.5218 14.1857L39.5479 14.2125L39.574 14.2363L39.6047 14.2631L39.6307 14.2816C39.6428 14.2909 39.6553 14.2996 39.6683 14.3076L39.6921 14.323L39.7351 14.3468L39.7466 14.3529L39.7596 14.3583C39.7765 14.3659 39.7941 14.3736 39.8118 14.3797L39.8425 14.3913L39.8847 14.4035L39.9261 14.4135H39.933C41.1007 14.6473 42.1493 15.2833 42.8963 16.2108C43.6432 17.1382 44.041 18.2984 44.0205 19.489C44 20.6797 43.5623 21.8254 42.7839 22.7266C42.0054 23.6278 40.9354 24.2273 39.7604 24.4206C39.5703 24.4516 39.3987 24.5529 39.2799 24.7046C39.1611 24.8562 39.1036 25.0469 39.119 25.239C39.1344 25.431 39.2214 25.6102 39.3628 25.741C39.5043 25.8718 39.6897 25.9446 39.8824 25.9449C39.9237 25.945 39.965 25.9416 40.0059 25.9349C40.8976 25.7889 41.7499 25.4612 42.5098 24.9722C43.0084 25.3955 43.4036 25.9273 43.665 26.5269C43.9265 27.1265 44.0473 27.7779 44.0182 28.4314C43.9891 29.0848 43.8109 29.723 43.4972 30.2969C43.1835 30.8709 42.7426 31.3655 42.2083 31.7428C42.0209 31.607 41.8257 31.4823 41.6237 31.3692C40.9486 30.9933 40.2054 30.7556 39.4374 30.6699C38.6695 30.5843 37.8922 30.6524 37.1508 30.8703C36.4095 31.0883 35.7189 31.4517 35.1195 31.9393C34.5201 32.4269 34.0237 33.029 33.6595 33.7105C33.5635 33.8899 33.5428 34.1001 33.6019 34.2949C33.6609 34.4896 33.7949 34.6529 33.9744 34.7488C34.1538 34.8447 34.364 34.8654 34.5587 34.8064C34.7535 34.7473 34.9167 34.6133 35.0127 34.4339C35.2778 33.9318 35.6401 33.4873 36.0785 33.1264C36.5168 32.7655 37.0225 32.4952 37.5662 32.3314C38.1099 32.1675 38.6807 32.1133 39.2455 32.1719C39.8103 32.2304 40.3578 32.4006 40.8563 32.6726C41.3547 32.9445 41.7942 33.3128 42.1492 33.756C42.5041 34.1992 42.7675 34.7085 42.924 35.2544C43.0804 35.8002 43.1269 36.3717 43.0607 36.9357C42.9944 37.4996 42.8168 38.0448 42.5382 38.5395V38.5426Z" fill="#8ADAFF"/>
</g>
<g filter="url(#filter1_d_763_6250)">
<path d="M32.7213 21.2202C33.5903 21.6492 34.5528 21.8538 35.5212 21.8155C36.4895 21.7772 37.4329 21.4971 38.2653 21.0008C38.3538 20.9503 38.4313 20.8828 38.4935 20.802C38.5556 20.7213 38.601 20.629 38.6271 20.5306C38.6531 20.4321 38.6593 20.3294 38.6453 20.2285C38.6312 20.1277 38.5972 20.0306 38.5453 19.943C38.4933 19.8553 38.4245 19.779 38.3427 19.7183C38.2609 19.6575 38.1678 19.6137 38.0689 19.5894C37.97 19.565 37.8672 19.5606 37.7666 19.5764C37.666 19.5922 37.5695 19.6278 37.4828 19.6813C36.8226 20.0738 36.0691 20.2817 35.3011 20.2834C34.5331 20.2851 33.7787 20.0805 33.1168 19.691C32.4548 19.3015 31.9097 18.7413 31.5382 18.0691C31.1668 17.3968 30.9827 16.6372 31.0052 15.8695C31.0111 15.666 30.936 15.4685 30.7963 15.3205C30.6566 15.1725 30.4638 15.086 30.2603 15.0801C30.0569 15.0742 29.8594 15.1494 29.7114 15.2891C29.5634 15.4287 29.4769 15.6215 29.471 15.825C29.4402 16.9409 29.73 18.0423 30.3061 18.9985C30.8822 19.9548 31.7203 20.7258 32.7213 21.2202Z" fill="#8ADAFF"/>
</g>
<g filter="url(#filter2_d_763_6250)">
<path d="M28.4271 30.5146C28.5015 30.538 28.5792 30.5496 28.6572 30.5492C28.8211 30.5491 28.9806 30.4965 29.1125 30.3992C29.2443 30.3019 29.3415 30.1649 29.3898 30.0083C29.6913 29.0364 30.328 28.203 31.1865 27.6567C32.045 27.1103 33.0696 26.8865 34.0777 27.025C34.278 27.0503 34.4802 26.9956 34.6404 26.8728C34.8007 26.75 34.906 26.569 34.9337 26.369C34.9613 26.169 34.9091 25.9662 34.7882 25.8045C34.6673 25.6429 34.4875 25.5354 34.2879 25.5053C32.9187 25.3161 31.5269 25.6196 30.3606 26.3614C29.1944 27.1033 28.3297 28.2354 27.9208 29.5557C27.8609 29.75 27.8805 29.9602 27.9755 30.14C28.0704 30.3198 28.2328 30.4545 28.4271 30.5146Z" fill="#8ADAFF"/>
</g>
<g filter="url(#filter3_d_763_6250)">
<path d="M35.1689 40.4543C34.495 40.8226 33.7344 41.0032 32.9668 40.9772C32.1992 40.9511 31.4527 40.7194 30.8053 40.3062C30.1578 39.893 29.6333 39.3135 29.2864 38.6283C28.9395 37.943 28.783 37.1772 28.8332 36.4108C28.8398 36.31 28.8264 36.209 28.7939 36.1134C28.7614 36.0178 28.7104 35.9296 28.6438 35.8537C28.5772 35.7779 28.4963 35.7159 28.4057 35.6713C28.3152 35.6267 28.2167 35.6003 28.116 35.5938C28.0152 35.5872 27.9142 35.6006 27.8186 35.6331C27.723 35.6656 27.6348 35.7166 27.5589 35.7832C27.4831 35.8498 27.4211 35.9307 27.3765 36.0213C27.3319 36.1118 27.3055 36.2103 27.299 36.311C27.2297 37.352 27.4415 38.3925 27.9122 39.3235C28.383 40.2545 29.0953 41.0418 29.9748 41.6031C30.8542 42.1644 31.8683 42.4789 32.911 42.5138C33.9537 42.5486 34.9866 42.3026 35.9015 41.8013C36.0775 41.7026 36.2075 41.5384 36.2633 41.3445C36.3191 41.1506 36.2962 40.9425 36.1997 40.7653C36.1031 40.5881 35.9406 40.4561 35.7474 40.3978C35.5541 40.3396 35.3458 40.3599 35.1674 40.4543H35.1689Z" fill="#8ADAFF"/>
</g>
</g>
<defs>
<filter id="filter0_d_763_6250" x="-1.99512" y="0.0670776" width="49.5488" height="59.8684" filterUnits="userSpaceOnUse" color-interpolation-filters="sRGB">
<feFlood flood-opacity="0" result="BackgroundImageFix"/>
<feColorMatrix in="SourceAlpha" type="matrix" values="0 0 0 0 0 0 0 0 0 0 0 0 0 0 0 0 0 0 127 0" result="hardAlpha"/>
<feOffset dy="2"/>
<feGaussianBlur stdDeviation="1"/>
<feComposite in2="hardAlpha" operator="out"/>
<feColorMatrix type="matrix" values="0 0 0 0 0 0 0 0 0 0 0 0 0 0 0 0 0 0 0.25 0"/>
<feBlend mode="normal" in2="BackgroundImageFix" result="effect1_dropShadow_763_6250"/>
<feBlend mode="normal" in="SourceGraphic" in2="effect1_dropShadow_763_6250" result="shape"/>
</filter>
<filter id="filter1_d_763_6250" x="27.4688" y="15.0798" width="13.1836" height="10.7403" filterUnits="userSpaceOnUse" color-interpolation-filters="sRGB">
<feFlood flood-opacity="0" result="BackgroundImageFix"/>
<feColorMatrix in="SourceAlpha" type="matrix" values="0 0 0 0 0 0 0 0 0 0 0 0 0 0 0 0 0 0 127 0" result="hardAlpha"/>
<feOffset dy="2"/>
<feGaussianBlur stdDeviation="1"/>
<feComposite in2="hardAlpha" operator="out"/>
<feColorMatrix type="matrix" values="0 0 0 0 0 0 0 0 0 0 0 0 0 0 0 0 0 0 0.25 0"/>
<feBlend mode="normal" in2="BackgroundImageFix" result="effect1_dropShadow_763_6250"/>
<feBlend mode="normal" in="SourceGraphic" in2="effect1_dropShadow_763_6250" result="shape"/>
</filter>
<filter id="filter2_d_763_6250" x="25.8867" y="25.4504" width="11.0547" height="9.09875" filterUnits="userSpaceOnUse" color-interpolation-filters="sRGB">
<feFlood flood-opacity="0" result="BackgroundImageFix"/>
<feColorMatrix in="SourceAlpha" type="matrix" values="0 0 0 0 0 0 0 0 0 0 0 0 0 0 0 0 0 0 127 0" result="hardAlpha"/>
<feOffset dy="2"/>
<feGaussianBlur stdDeviation="1"/>
<feComposite in2="hardAlpha" operator="out"/>
<feColorMatrix type="matrix" values="0 0 0 0 0 0 0 0 0 0 0 0 0 0 0 0 0 0 0.25 0"/>
<feBlend mode="normal" in2="BackgroundImageFix" result="effect1_dropShadow_763_6250"/>
<feBlend mode="normal" in="SourceGraphic" in2="effect1_dropShadow_763_6250" result="shape"/>
</filter>
<filter id="filter3_d_763_6250" x="25.2861" y="35.5922" width="13.0068" height="10.9249" filterUnits="userSpaceOnUse" color-interpolation-filters="sRGB">
<feFlood flood-opacity="0" result="BackgroundImageFix"/>
<feColorMatrix in="SourceAlpha" type="matrix" values="0 0 0 0 0 0 0 0 0 0 0 0 0 0 0 0 0 0 127 0" result="hardAlpha"/>
<feOffset dy="2"/>
<feGaussianBlur stdDeviation="1"/>
<feComposite in2="hardAlpha" operator="out"/>
<feColorMatrix type="matrix" values="0 0 0 0 0 0 0 0 0 0 0 0 0 0 0 0 0 0 0.25 0"/>
<feBlend mode="normal" in2="BackgroundImageFix" result="effect1_dropShadow_763_6250"/>
<feBlend mode="normal" in="SourceGraphic" in2="effect1_dropShadow_763_6250" result="shape"/>
</filter>
<clipPath id="clip0_763_6250">
<rect width="45.5671" height="56" fill="white"/>
</clipPath>
</defs>
</svg>
