<svg width="56" height="56" viewBox="0 0 56 56" fill="none" xmlns="http://www.w3.org/2000/svg">
<g clip-path="url(#clip0_763_6258)">
<g filter="url(#filter0_d_763_6258)">
<path d="M28.786 11.0012C19.9918 11.0012 12.8371 18.1559 12.8371 26.95C12.8371 35.7442 19.9918 42.8989 28.786 42.8989C37.5801 42.8989 44.7348 35.7442 44.7348 26.95C44.7348 18.1559 37.5801 11.0012 28.786 11.0012ZM28.786 12.4584C30.2547 12.4584 31.6723 12.6785 33.0089 13.0865C33.5416 14.9242 33.5951 16.2447 33.1664 17.0147C32.7802 17.7077 31.9913 17.9105 31.2276 18.1071C31.0379 18.1559 30.8587 18.2019 30.6845 18.2559C30.2266 18.3978 29.6698 18.634 29.4313 19.2075C29.1721 19.8321 29.4474 20.4854 29.6766 20.9222C30.0191 21.5744 30.8759 22.1783 31.7827 22.8173C32.2286 23.1316 32.6894 23.4569 33.0308 23.7522C33.194 23.8936 33.2514 23.9999 33.2646 24.0418C33.2296 24.0844 33.0917 24.1941 32.7687 24.2631C32.6664 24.2838 32.2723 24.3033 31.9246 24.32C30.9201 24.3688 29.4014 24.4429 28.2504 24.7618C27.8453 24.8739 26.6127 25.2152 26.3737 26.2553C26.1191 27.3603 27.2356 28.3447 27.6028 28.6682C28.5308 29.4865 29.8726 31.0385 29.7634 31.9608C29.7445 32.1194 29.6703 32.3567 29.2422 32.5837C27.8315 33.3319 26.9627 32.5239 26.1938 31.6333C25.8703 31.258 25.4755 30.4932 25.0578 29.6841C24.1993 28.0206 23.2264 26.1358 21.8847 25.6123C21.7663 25.5663 21.6399 25.533 21.5054 25.4979C20.7503 25.2997 19.3442 24.9314 19.1621 21.2106C19.127 20.4906 18.28 18.7317 17.583 17.7674C20.2429 14.5283 24.2769 12.4584 28.786 12.4584ZM22.8167 39.966C22.9638 40.0407 23.0753 40.0981 23.1316 40.2929C21.6531 39.6643 20.3004 38.796 19.1213 37.7381C19.9459 37.5175 21.2187 37.1968 21.7083 37.5893C21.9887 37.814 22.0272 38.3426 22.0099 38.746C21.976 39.539 22.565 39.8384 22.8167 39.966ZM24.6245 40.8319C24.6613 39.4683 24.0976 38.9822 23.4764 38.6667C23.4741 38.6656 23.4724 38.6644 23.4701 38.6633C23.4856 37.66 23.1994 36.9164 22.619 36.4515C21.5313 35.5804 19.8568 36.0309 18.6346 36.3596C18.407 36.4211 18.1197 36.4981 17.9278 36.536C15.6683 33.9795 14.2944 30.6225 14.2944 26.95C14.2944 24.02 15.1695 21.2905 16.6705 19.0081C17.1279 19.7672 17.6835 20.9354 17.7065 21.2819C17.941 26.0703 20.1797 26.657 21.1359 26.9069C21.2238 26.9299 21.3152 26.9541 21.3549 26.9696C22.1835 27.2925 23.096 29.0606 23.7626 30.3518C24.2407 31.2787 24.6538 32.0792 25.09 32.5849C25.5577 33.1267 26.607 34.3432 28.182 34.3432C28.705 34.3432 29.2865 34.2088 29.9237 33.8709C30.8765 33.3658 31.1488 32.6463 31.2092 32.1315C31.4298 30.2611 29.2411 28.1711 28.5647 27.5747C27.7815 26.8845 27.7919 26.584 27.7919 26.5823C27.7924 26.5805 27.897 26.3708 28.6377 26.1657C29.6324 25.8904 31.0535 25.8209 31.9941 25.7749C32.563 25.7473 32.8693 25.7307 33.0704 25.6881C33.9295 25.5054 34.5156 25.0365 34.6794 24.4027C34.7696 24.0522 34.7995 23.3586 33.9841 22.6512C33.5882 22.3082 33.0968 21.9617 32.6216 21.6267C31.9643 21.1629 31.1454 20.586 30.9661 20.2441C30.8299 19.9849 30.7949 19.8407 30.7863 19.7781C30.8294 19.7516 30.9219 19.7063 31.1138 19.6465C31.254 19.6028 31.4172 19.5614 31.589 19.5172C32.4998 19.2827 33.7479 18.9621 34.438 17.7226C34.9696 16.7682 35.0454 15.4454 34.6673 13.7065C38.7759 15.539 41.8812 19.2282 42.9092 23.7022C41.337 23.7264 40.3222 24.0298 39.6815 24.6555C38.9046 25.4152 38.8862 26.4306 38.869 27.4126C38.8466 28.682 38.8253 29.8806 37.2853 30.8299C35.8539 31.7126 36.3326 33.0951 36.7164 34.2065C37.0417 35.1466 37.3778 36.1188 36.9882 37.1256C36.7819 37.6588 36.659 38.234 37.0072 38.8748C34.6696 40.4918 31.8355 41.4405 28.7843 41.4405C27.3402 41.4416 25.9433 41.2279 24.6245 40.8319ZM38.2593 37.9082C38.2771 37.8381 38.3082 37.7577 38.349 37.6531C38.9316 36.1487 38.4679 34.8081 38.0955 33.7312C37.6588 32.4694 37.6973 32.2901 38.0519 32.0717C40.2705 30.7041 40.3033 28.8176 40.328 27.4396C40.3435 26.5719 40.3694 26.0237 40.7021 25.6991C41.0739 25.3353 41.9025 25.1543 43.1672 25.1589C43.2402 25.7462 43.2781 26.3444 43.2781 26.9506C43.2776 31.3224 41.3313 35.2488 38.2593 37.9082ZM6.76443 37.1141C5.28706 33.9186 4.53774 30.4989 4.53774 26.95C4.53774 13.5795 15.4155 2.7018 28.786 2.7018C32.9785 2.7018 36.9928 3.75165 40.544 5.72723C39.8068 6.09729 39.4925 6.68054 39.3684 7.01038C38.8316 8.43431 39.6654 10.3139 41.3956 11.5816C42.3582 12.2866 43.3069 12.59 44.224 12.8837C44.7337 13.0469 45.2158 13.2009 45.7111 13.4227C46.6696 13.8513 47.1782 14.3881 46.9426 15.862C46.8949 16.1591 47.0351 16.4544 47.2948 16.6061C47.4086 16.6728 47.5356 16.7055 47.662 16.7055C47.8235 16.7055 47.9844 16.6521 48.1165 16.5464C51.5798 13.7847 51.5178 9.21179 49.9944 6.13177C48.7101 3.53444 46.5708 2.18464 44.5452 2.69146C43.2046 3.02704 42.3352 3.79475 42.0099 4.90149C41.0514 4.32628 40.0539 3.81141 39.019 3.36148C35.7838 1.95708 32.3412 1.24512 28.786 1.24512C21.9197 1.24512 15.4649 3.91887 10.6099 8.77392C5.75481 13.629 3.08105 20.0838 3.08105 26.95C3.08105 30.7116 3.87519 34.3369 5.44221 37.7255C5.56518 37.9915 5.82893 38.1484 6.10418 38.1484C6.20647 38.1484 6.31047 38.1266 6.40931 38.0812C6.77363 37.9123 6.93337 37.479 6.76443 37.1141ZM44.8986 4.10505C46.2329 3.77062 47.72 4.82046 48.6883 6.77765C49.7605 8.94631 49.9858 11.9849 48.3343 14.2392C48.0079 13.0147 47.0787 12.4383 46.3064 12.093C45.737 11.8384 45.1934 11.6643 44.6682 11.4965C43.8246 11.227 43.0282 10.9719 42.257 10.407C40.9279 9.43302 40.4791 8.19526 40.732 7.52467C40.9423 6.96671 41.6198 6.84546 42.168 6.84546C42.2363 6.84546 42.3024 6.84718 42.3656 6.85063C43.7545 7.79417 45.0578 8.88999 46.253 10.1312C46.5323 10.4208 46.9931 10.4294 47.2833 10.1507C47.5729 9.87146 47.5815 9.41061 47.3028 9.12042C46.0852 7.85623 44.7572 6.73168 43.3316 5.75136C43.4 4.88137 43.9051 4.35386 44.8986 4.10505ZM52.1303 16.1746C51.9614 15.8097 51.5287 15.6499 51.1632 15.8189C50.7983 15.9878 50.6386 16.4205 50.8075 16.786C52.2849 19.9815 53.0336 23.4011 53.0336 26.95C53.0336 40.3205 42.1559 51.1983 28.7854 51.1983C24.5929 51.1983 20.5785 50.1484 17.0273 48.1728C17.764 47.8028 18.0789 47.2195 18.203 46.8897C18.7397 45.4658 17.9059 43.5861 16.1757 42.3179C15.2132 41.6129 14.2645 41.3095 13.3468 41.0158C12.8371 40.8526 12.3556 40.6986 11.8597 40.4774C10.9012 40.0487 10.3926 39.512 10.6282 38.0381C10.6759 37.741 10.5357 37.4456 10.276 37.2939C10.0157 37.1422 9.68987 37.1658 9.45485 37.3537C5.99155 40.1154 6.05361 44.6883 7.57696 47.7683C8.68197 50.0025 10.4191 51.3138 12.1728 51.3138C12.4579 51.3138 12.7429 51.2793 13.0262 51.208C14.3674 50.8724 15.2362 50.1047 15.5614 48.998C16.5199 49.5732 17.5175 50.0881 18.5524 50.538C21.787 51.943 25.2296 52.6555 28.7843 52.6555C35.6505 52.6555 42.1053 49.9818 46.9604 45.1267C51.8171 40.2711 54.4909 33.8163 54.4909 26.95C54.4909 23.1885 53.6968 19.5632 52.1303 16.1746ZM12.6734 49.795C11.3385 50.1289 9.85192 49.0796 8.88367 47.1224C7.81141 44.9538 7.58615 41.9151 9.23764 39.6609C9.56403 40.886 10.4932 41.4617 11.2655 41.8077C11.835 42.0622 12.378 42.2363 12.9038 42.4041C13.7473 42.6736 14.5438 42.9288 15.3149 43.4936C16.644 44.4676 17.0928 45.7054 16.84 46.376C16.6032 47.004 15.7764 47.0782 15.2063 47.0494C13.8174 46.1059 12.5148 45.0107 11.3189 43.7694C11.0397 43.4798 10.5788 43.4712 10.2886 43.7499C9.99902 44.0292 9.9904 44.49 10.2691 44.7802C11.4867 46.0444 12.8147 47.169 14.2404 48.1487C14.172 49.0187 13.6669 49.5462 12.6734 49.795Z" fill="#8ADAFF"/>
</g>
</g>
<defs>
<filter id="filter0_d_763_6258" x="1.08105" y="1.24512" width="55.4102" height="55.4104" filterUnits="userSpaceOnUse" color-interpolation-filters="sRGB">
<feFlood flood-opacity="0" result="BackgroundImageFix"/>
<feColorMatrix in="SourceAlpha" type="matrix" values="0 0 0 0 0 0 0 0 0 0 0 0 0 0 0 0 0 0 127 0" result="hardAlpha"/>
<feOffset dy="2"/>
<feGaussianBlur stdDeviation="1"/>
<feComposite in2="hardAlpha" operator="out"/>
<feColorMatrix type="matrix" values="0 0 0 0 0 0 0 0 0 0 0 0 0 0 0 0 0 0 0.25 0"/>
<feBlend mode="normal" in2="BackgroundImageFix" result="effect1_dropShadow_763_6258"/>
<feBlend mode="normal" in="SourceGraphic" in2="effect1_dropShadow_763_6258" result="shape"/>
</filter>
<clipPath id="clip0_763_6258">
<rect width="56" height="56" fill="white"/>
</clipPath>
</defs>
</svg>
