<svg width="56" height="56" viewBox="0 0 56 56" fill="none" xmlns="http://www.w3.org/2000/svg">
<g clip-path="url(#clip0_763_6230)">
<g filter="url(#filter0_d_763_6230)">
<path fill-rule="evenodd" clip-rule="evenodd" d="M42.9061 21.5471C42.6441 21.0549 42.2346 20.6402 41.7233 20.3463C41.207 20.0501 40.6093 19.886 39.9963 19.8723C39.4596 19.8587 38.9254 19.9566 38.437 20.1572C38.0046 20.3303 37.6358 20.6038 37.3611 20.9479C37.2543 21.0869 37.1627 21.2327 37.0864 21.3854C36.4963 22.5771 36.9847 24.0309 37.9716 25.4163H37.9742C39.0882 26.9134 40.5126 28.2053 42.1685 29.2239C42.6137 29.4996 43.0766 29.748 43.5599 29.9644C44.0432 29.748 44.5086 29.4996 44.9512 29.2216C46.6071 28.2053 48.0316 26.9134 49.1482 25.4186C50.1351 24.0332 50.6234 22.5771 50.0334 21.3876V21.3854C49.9571 21.2327 49.8655 21.0869 49.7586 20.9501C49.4865 20.6061 49.1151 20.3326 48.6853 20.1594C48.1944 19.9589 47.6628 19.8609 47.1235 19.8746C46.5105 19.886 45.9128 20.0501 45.3964 20.3486C44.8826 20.6425 44.4731 21.0572 44.2111 21.5494C44.0916 21.775 43.8372 21.9163 43.56 21.9163C43.2827 21.9163 43.0284 21.775 42.9088 21.5494L42.9061 21.5471ZM47.7364 24.8512H47.7339C48.1256 24.8626 48.4359 25.1474 48.4359 25.4983C48.4359 25.8493 48.1256 26.1341 47.7339 26.1455H44.3382C44.0508 26.1455 43.7888 25.9928 43.6743 25.7581L43.6057 25.6282L42.8069 27.0957C42.6798 27.3281 42.4101 27.4716 42.1202 27.458C41.8302 27.4443 41.5784 27.278 41.4792 27.0342L40.8331 25.7695H39.3832C39.1874 25.7763 38.9966 25.7102 38.8567 25.5872C38.7168 25.4664 38.638 25.2978 38.638 25.1223C38.638 24.9469 38.7168 24.7805 38.8567 24.6575C38.9966 24.5345 39.1874 24.4707 39.3832 24.4752H41.2986C41.5809 24.4752 41.8353 24.6233 41.9523 24.8535L42.1786 25.2978L42.957 23.8691V23.8668C43.0765 23.6435 43.3309 23.5 43.6081 23.5C43.8854 23.5 44.1398 23.6435 44.2593 23.8668L44.7934 24.8489L47.7364 24.8512ZM39.1137 28.6429C34.5276 30.345 29.3287 30.0944 24.9737 27.9615C20.6188 25.8287 17.5798 22.0436 16.7046 17.6669C15.8295 13.2901 17.2184 8.79378 20.4768 5.44194C23.7352 2.08778 28.5148 0.237503 33.4721 0.410695C38.4321 0.581594 43.0363 2.75768 45.9965 6.32861C48.9548 9.89925 49.9467 14.4772 48.6978 18.7793C48.9013 18.8362 49.0997 18.9046 49.293 18.9844C49.9569 19.2555 50.5266 19.6793 50.9438 20.2126C51.1015 20.4154 51.2364 20.6318 51.3483 20.8574C52.1698 22.5072 51.5899 24.3825 50.3614 26.1074C49.1404 27.7481 47.5812 29.1654 45.7676 30.2819C45.1622 30.6624 44.5212 30.9905 43.8497 31.2663C43.6615 31.3415 43.4478 31.3415 43.2622 31.2663C42.5907 30.9905 41.9471 30.6624 41.3418 30.2819C40.5507 29.7897 39.8029 29.2429 39.1085 28.6413L39.1137 28.6429ZM47.2611 18.5804H47.0957C46.2156 18.5963 45.3559 18.831 44.6157 19.2571C44.2189 19.485 43.8629 19.7676 43.5601 20.0911C42.9166 19.4098 42.0518 18.9267 41.0852 18.7103C41.1564 18.2181 41.2149 17.7259 41.2556 17.2291C41.2989 16.7324 41.3243 16.2288 41.337 15.7138H47.7647C47.7138 16.6845 47.546 17.6438 47.2611 18.5804ZM39.6483 18.5849V18.5872C39.0175 18.6123 38.3969 18.7467 37.8246 18.9837C37.1607 19.2526 36.5909 19.6787 36.1737 20.2119C36.016 20.4147 35.8812 20.6312 35.7693 20.8568C35.665 21.0664 35.5811 21.2852 35.52 21.5085C35.1919 21.4834 34.8587 21.4629 34.5204 21.4469C34.182 21.431 33.8565 21.4196 33.5436 21.4128V15.7139H39.8925C39.8797 16.197 39.8543 16.6709 39.8162 17.1335C39.7729 17.6348 39.7195 18.1179 39.6508 18.585L39.6483 18.5849ZM35.398 22.7982C35.5354 23.9876 36.0034 25.1247 36.7588 26.109L36.769 26.125C36.2832 26.7812 35.6701 27.3555 34.958 27.8203C34.5332 28.0914 34.0525 28.2874 33.5437 28.3968V22.7115C33.854 22.7184 34.1567 22.7275 34.4467 22.7412C34.7672 22.7548 35.0826 22.7754 35.398 22.8027L35.398 22.7982ZM37.6593 27.2255C37.7839 27.3623 37.9086 27.4967 38.0383 27.6311C37.6924 27.7474 37.3388 27.8499 36.9802 27.9433L36.9827 27.9456C37.2218 27.7177 37.4482 27.4762 37.6619 27.2278L37.6593 27.2255ZM13.1951 53.104L10.8931 55.2801C10.6388 55.5216 10.2776 55.6492 9.90876 55.631C9.53994 55.6128 9.19651 55.4487 8.97271 55.1844L0.603964 45.277C0.492043 45.1472 0.415739 44.9991 0.377581 44.8395C0.255488 44.3474 0.514938 43.8415 1.01094 43.6045L3.97171 42.1713L3.69446 41.8409L3.69192 41.8386C3.66903 41.8158 3.64868 41.793 3.63087 41.7679C3.26459 41.2826 3.36634 40.6264 3.86997 40.2526C3.89286 40.2321 3.92084 40.2139 3.94628 40.1979L8.00081 37.4545V37.4522C8.02625 37.4339 8.05423 37.4157 8.08221 37.3998C8.62399 37.0694 9.35399 37.1628 9.77373 37.6117C9.79663 37.6345 9.81697 37.6572 9.83478 37.6823L9.88565 37.7438C10.9387 37.0147 11.7755 36.069 12.3275 34.9867C12.9507 33.7516 13.9071 32.6739 15.1127 31.8535C16.8424 30.4726 19.0579 29.6774 21.3726 29.6045C23.6135 29.6022 25.8468 29.8779 28.0014 30.4294C29.4004 30.7165 30.835 30.8327 32.267 30.7689C34.4342 30.6572 36.5454 30.1263 38.4607 29.2125C38.7863 29.0644 39.1831 29.1533 39.3917 29.4222C39.9513 30.0237 40.3379 30.7415 40.516 31.5094C40.6864 32.2773 40.6075 33.0726 40.2896 33.8017C39.9691 34.5264 39.4451 35.1643 38.7685 35.6566C37.9902 36.2194 37.0694 36.6022 36.085 36.7708C34.447 37.099 32.786 37.3382 31.1148 37.4841C30.5145 37.5114 29.9168 37.6049 29.3419 37.7598C29.3343 37.7621 29.3292 37.7666 29.3266 37.7735C29.3165 37.8008 29.3139 37.8327 29.3216 37.8601C29.3292 37.9011 29.347 37.9398 29.375 37.9717C29.4462 38.0401 29.5454 38.0788 29.6497 38.0765C29.67 38.0765 29.6904 38.0788 29.7107 38.0811L34.3452 38.5027V38.5049C35.0065 38.5186 35.6602 38.3933 36.258 38.1403C37.2653 37.7484 38.2242 37.2608 39.117 36.6866L49.4366 30.2448C49.4951 30.2106 49.5587 30.181 49.6248 30.1628C50.9552 29.6182 52.4406 29.445 53.8828 29.666C54.3763 29.7595 54.8291 29.9828 55.1801 30.3064C55.5387 30.655 55.7066 31.1266 55.6456 31.5961C55.4726 32.4414 54.9868 33.2116 54.2669 33.7813L41.4371 45.1038C40.7783 45.6917 39.9949 46.1565 39.1351 46.4687C38.283 46.7694 37.38 46.9449 36.4643 46.9882L23.5654 47.7493C22.7183 47.7652 21.8815 47.9338 21.1083 48.246C20.5487 48.5103 20.0324 48.8407 19.5694 49.2281C19.9026 49.7271 19.7652 50.372 19.2464 50.7229L15.1283 53.5119C14.5687 53.8879 13.7751 53.7877 13.3503 53.2886L13.1951 53.104ZM4.84981 43.2124L1.88649 44.6502L9.99543 54.2478L12.3127 52.058L4.84981 43.2124ZM10.756 38.7758L18.6996 48.1914H18.7021C19.2363 47.7539 19.8315 47.3825 20.475 47.0863C21.4162 46.6966 22.4362 46.4824 23.474 46.4574L36.3729 45.6963C37.1334 45.6599 37.8812 45.5163 38.5909 45.2657C39.2751 45.0173 39.8983 44.6481 40.4223 44.181L53.2371 32.8743C53.7179 32.512 54.0587 32.0243 54.2113 31.4775C54.2291 31.3704 54.1935 31.2587 54.1121 31.1767C53.9519 31.0445 53.7535 30.9557 53.5398 30.9192C52.4028 30.7643 51.243 30.9124 50.2026 31.3453L39.9442 37.7503C38.9624 38.3769 37.9119 38.9079 36.8079 39.3363C35.9914 39.6712 35.0986 39.8262 34.2033 39.7897L29.5587 39.3682H29.5561C29.0398 39.3499 28.5591 39.1289 28.236 38.7666C28.0605 38.5638 27.9435 38.3269 27.8952 38.0739C27.8469 37.8256 27.8723 37.5703 27.9664 37.3334C28.1114 36.9665 28.4319 36.6771 28.8414 36.545C29.5308 36.349 30.2429 36.2328 30.9653 36.1986C32.5831 36.0573 34.1906 35.8272 35.7778 35.5082H35.7905C36.546 35.3828 37.2531 35.0934 37.8534 34.6628C38.3367 34.3119 38.7132 33.8562 38.9446 33.3389C39.1608 32.8376 39.2143 32.2885 39.0972 31.7598C39.0031 31.352 38.8251 30.9623 38.5707 30.6137C36.6223 31.4613 34.5035 31.9536 32.3389 32.0629C30.7772 32.1313 29.2128 32.0083 27.6892 31.6938H27.679C25.6467 31.1743 23.5456 30.9076 21.4319 30.9054C19.4403 30.9692 17.5351 31.6551 16.0471 32.8445L16.0369 32.8536C14.9915 33.5622 14.1623 34.4942 13.6205 35.5652C12.9745 36.8321 11.9901 37.9372 10.7565 38.7826L10.756 38.7758ZM8.76186 38.5594L4.92358 41.1593L14.396 52.3885L18.2343 49.7885L8.76447 38.557L8.76186 38.5594ZM22.2813 5.55553L22.2839 5.55325C23.4132 6.02493 24.5884 6.4009 25.7965 6.67209C26.0433 6.04775 26.3307 5.43705 26.6588 4.84462C27.1777 3.87617 27.8517 2.98297 28.6606 2.18999C26.2544 2.81433 24.0618 3.9719 22.2863 5.55325L22.2813 5.55553ZM27.2159 6.96376L27.2184 6.9592C28.8286 7.23719 30.4615 7.39215 32.1021 7.42177V1.73882C30.5251 2.05783 29.0727 3.40453 27.9535 5.42338V5.4211C27.6788 5.92241 27.4321 6.43739 27.2184 6.96146L27.2159 6.96376ZM33.5469 7.42177C35.1876 7.39214 36.8205 7.23719 38.4307 6.9592C38.217 6.43511 37.9728 5.92017 37.6956 5.42113C36.5764 3.40454 35.1265 2.05786 33.5469 1.73656V7.42177ZM39.85 6.67662L39.8526 6.67207C41.0582 6.40091 42.2308 6.02492 43.3551 5.55323C41.5796 3.97188 39.387 2.81431 36.9808 2.18997C37.7897 2.98295 38.4637 3.87615 38.9851 4.8446C39.3107 5.43703 39.5981 6.04773 39.8449 6.67207L39.85 6.67662ZM44.3751 6.54902L44.3776 6.54674C43.0753 7.12779 41.7068 7.5835 40.2951 7.90252C40.9514 10.0262 41.305 12.216 41.3457 14.4195H47.7734C47.6182 11.5348 46.4253 8.77076 44.37 6.54686L44.3751 6.54902ZM38.886 8.19419C37.1283 8.51092 35.3453 8.68409 33.552 8.71828V14.4194H39.9009C39.8602 12.3139 39.5193 10.2223 38.886 8.19419ZM32.1048 8.72055L32.1074 8.71827C30.3141 8.6841 28.531 8.51092 26.7734 8.19418C26.1401 10.2222 25.7992 12.314 25.7585 14.4195H32.1074V8.72064L32.1048 8.72055ZM25.3568 7.90255C23.9451 7.58353 22.5767 7.12782 21.2743 6.54676C19.2217 8.77299 18.0287 11.5347 17.8787 14.4194H24.3038C24.3445 12.216 24.698 10.0263 25.3568 7.90255ZM32.0996 15.714H25.7508C25.7915 17.8194 26.1323 19.9112 26.7682 21.937C28.5258 21.6225 30.3114 21.4493 32.1021 21.4152V15.714L32.0996 15.714ZM24.3058 15.714H17.8781C18.0282 18.5987 19.2212 21.3627 21.2738 23.589C22.5762 23.0056 23.9446 22.5499 25.3563 22.2286C24.6975 20.1049 24.3439 17.9152 24.3032 15.714H24.3058ZM32.0996 22.714C30.459 22.7436 28.826 22.8985 27.2159 23.1765C27.4295 23.7006 27.6737 24.2156 27.951 24.7169C29.0702 26.7335 30.52 28.0801 32.0996 28.4014V22.7117V22.714ZM25.794 23.4637H25.7915C24.5858 23.7371 23.4081 24.1108 22.2813 24.5848C24.0593 26.1661 26.2494 27.3214 28.6556 27.9458C27.8467 27.1551 27.1727 26.2596 26.6538 25.2934C26.3282 24.6987 26.0408 24.0857 25.7966 23.4614L25.794 23.4637Z" fill="#8ADAFF"/>
</g>
</g>
<defs>
<filter id="filter0_d_763_6230" x="-1.65234" y="0.399536" width="59.3105" height="59.2332" filterUnits="userSpaceOnUse" color-interpolation-filters="sRGB">
<feFlood flood-opacity="0" result="BackgroundImageFix"/>
<feColorMatrix in="SourceAlpha" type="matrix" values="0 0 0 0 0 0 0 0 0 0 0 0 0 0 0 0 0 0 127 0" result="hardAlpha"/>
<feOffset dy="2"/>
<feGaussianBlur stdDeviation="1"/>
<feComposite in2="hardAlpha" operator="out"/>
<feColorMatrix type="matrix" values="0 0 0 0 0 0 0 0 0 0 0 0 0 0 0 0 0 0 0.25 0"/>
<feBlend mode="normal" in2="BackgroundImageFix" result="effect1_dropShadow_763_6230"/>
<feBlend mode="normal" in="SourceGraphic" in2="effect1_dropShadow_763_6230" result="shape"/>
</filter>
<clipPath id="clip0_763_6230">
<rect width="56" height="56" fill="white"/>
</clipPath>
</defs>
</svg>
