<svg width="56" height="55" viewBox="0 0 56 55" fill="none" xmlns="http://www.w3.org/2000/svg">
<g clip-path="url(#clip0_763_6268)">
<g filter="url(#filter0_d_763_6268)">
<path d="M50.2381 20.7862H49.7832C55.0307 15.4865 55.8062 6.92047 55.841 6.52783C55.8833 6.01328 55.5229 5.55089 55.0108 5.46638C54.5907 5.39677 44.6699 3.84314 38.1796 8.9142C36.4122 10.2863 35.0649 12.1259 34.2943 14.2239C33.5212 16.3244 33.3571 18.5964 33.8145 20.7861H27.6324L12.4615 7.15134C12.6032 5.36901 11.9593 3.61157 10.6991 2.34381C6.96787 -1.54151 0.0450616 1.32212 0.159607 6.70888C0.164578 8.41662 0.88048 10.0448 2.13335 11.2082C3.38368 12.369 5.06413 12.9582 6.76684 12.8364L13.9158 20.7909H5.66275C3.99974 20.7934 2.64995 22.1407 2.64499 23.8062V28.7927C2.63753 28.815 2.63753 28.8374 2.64499 28.8598V32.9216C2.65742 39.1112 5.79944 44.8757 10.9973 48.2337C9.53063 48.6091 8.56864 50.0136 8.74759 51.52C8.92657 53.0239 10.1943 54.1599 11.7081 54.1798H44.1977C45.6966 54.14 46.942 53.0065 47.121 51.515C47.3 50.0236 46.3579 48.6265 44.9086 48.2338C50.1065 44.873 53.2482 39.1109 53.2609 32.9216V23.8064C53.2584 22.1384 51.9061 20.7862 50.2381 20.7862ZM39.4002 10.4828C44.1107 6.80389 51.1901 7.07479 53.733 7.31591C53.3899 9.86384 51.6648 17.4354 46.7254 20.7864H38.1071L45.5869 14.9473H45.5844C46.0095 14.6067 46.0791 13.9878 45.746 13.5602C45.4104 13.1327 44.7939 13.0506 44.3614 13.3788L35.7183 20.1274C35.3877 18.3376 35.5542 16.4907 36.203 14.7879C36.8543 13.0851 37.9584 11.5965 39.4002 10.4828ZM2.14808 6.70939C2.14808 5.31238 2.84414 4.00484 4.00748 3.22924C5.16833 2.45116 6.6424 2.30702 7.93257 2.83897C9.22515 3.37342 10.1648 4.51935 10.4382 5.88906C10.7117 7.25871 10.2816 8.67564 9.29477 9.66499C8.08917 10.8383 6.30188 11.1813 4.74827 10.5375C3.19465 9.89618 2.1729 8.38977 2.14808 6.70939ZM8.93936 12.2776C10.2543 11.6859 11.3083 10.632 11.8999 9.31701L24.6596 20.7862H16.5931L8.93936 12.2776ZM5.66558 22.775H50.2384C50.8052 22.7775 51.2675 23.2374 51.2675 23.8066V27.8336H4.63417V23.8066C4.63417 23.2374 5.09633 22.775 5.66558 22.775ZM44.198 52.1897H11.7059C11.1591 52.1598 10.729 51.7074 10.729 51.1581C10.729 50.6087 11.159 50.1563 11.7059 50.1264H44.198C44.7449 50.1563 45.175 50.6087 45.175 51.1581C45.175 51.7074 44.7449 52.1598 44.198 52.1897ZM40.6881 48.1378H15.2189C12.1142 46.9794 9.43948 44.9038 7.54757 42.1843C5.65833 39.4649 4.64168 36.2358 4.63423 32.922V29.8198H51.2676V32.922C51.2626 36.2331 50.2459 39.4645 48.3543 42.1843C46.465 44.9013 43.7904 46.9794 40.6881 48.1378Z" fill="#8ADAFF"/>
</g>
</g>
<defs>
<filter id="filter0_d_763_6268" x="-1.8418" y="0.548706" width="59.6865" height="57.6311" filterUnits="userSpaceOnUse" color-interpolation-filters="sRGB">
<feFlood flood-opacity="0" result="BackgroundImageFix"/>
<feColorMatrix in="SourceAlpha" type="matrix" values="0 0 0 0 0 0 0 0 0 0 0 0 0 0 0 0 0 0 127 0" result="hardAlpha"/>
<feOffset dy="2"/>
<feGaussianBlur stdDeviation="1"/>
<feComposite in2="hardAlpha" operator="out"/>
<feColorMatrix type="matrix" values="0 0 0 0 0 0 0 0 0 0 0 0 0 0 0 0 0 0 0.25 0"/>
<feBlend mode="normal" in2="BackgroundImageFix" result="effect1_dropShadow_763_6268"/>
<feBlend mode="normal" in="SourceGraphic" in2="effect1_dropShadow_763_6268" result="shape"/>
</filter>
<clipPath id="clip0_763_6268">
<rect width="56" height="54.7273" fill="white"/>
</clipPath>
</defs>
</svg>
