<svg width="56" height="56" viewBox="0 0 56 56" fill="none" xmlns="http://www.w3.org/2000/svg">
<g clip-path="url(#clip0_763_6263)">
<g filter="url(#filter0_d_763_6263)">
<path d="M5.66623 18.6533C5.66623 15.9059 7.90583 13.6663 10.6532 13.6663H16.0126C17.6454 13.6663 19.0856 14.4606 19.9996 15.6741C20.9137 14.4606 22.3538 13.6663 23.9866 13.6663H32.0126C33.6454 13.6663 35.0856 14.4606 35.9996 15.6741C36.9137 14.4606 38.3538 13.6663 39.9866 13.6663H45.346C48.0934 13.6663 50.333 15.9059 50.333 18.6533C50.333 19.2054 49.8851 19.6533 49.333 19.6533C48.7809 19.6533 48.333 19.2054 48.333 18.6533C48.333 17.0075 46.9919 15.6663 45.346 15.6663H39.9866C38.3408 15.6663 36.9996 17.0075 36.9996 18.6533V32C36.9996 33.6745 35.872 35.0937 34.333 35.5261V38.6667C34.333 39.2188 33.885 39.6667 33.333 39.6667C32.7809 39.6667 32.333 39.2188 32.333 38.6667V34.6667C32.333 34.1146 32.7809 33.6667 33.333 33.6667C34.2522 33.6667 34.9996 32.9193 34.9996 32V18.6533C34.9996 17.0075 33.6585 15.6663 32.0126 15.6663H23.9866C22.3408 15.6663 20.9996 17.0075 20.9996 18.6533V32C20.9996 32.9193 21.747 33.6667 22.6663 33.6667C23.2184 33.6667 23.6663 34.1146 23.6663 34.6667V38.6667C23.6663 39.2188 23.2184 39.6667 22.6663 39.6667C22.1142 39.6667 21.6663 39.2188 21.6663 38.6667V35.5261C20.1272 35.0938 18.9996 33.6719 18.9996 32V18.6533C18.9996 17.0075 17.6585 15.6663 16.0126 15.6663H10.6532C9.00736 15.6663 7.66623 17.0075 7.66623 18.6533C7.66623 19.2054 7.21831 19.6533 6.66623 19.6533C6.11415 19.6533 5.66623 19.2054 5.66623 18.6533ZM51.9996 21.6663C49.9788 21.6663 48.3329 23.3122 48.3329 25.333V33.6743C47.6324 33.1743 46.799 32.8931 45.9188 32.8931H45.9058C44.7912 32.9009 43.7469 33.3332 42.9657 34.1275L33.1457 44.0808C31.7603 45.4819 30.9998 47.3412 30.9998 49.3152V54.6667C30.9998 55.2188 31.4477 55.6667 31.9998 55.6667C32.5519 55.6667 32.9998 55.2188 32.9998 54.6667V49.3126C32.9998 47.8725 33.5597 46.5131 34.5727 45.4871L44.3854 35.5337C44.7917 35.1197 45.3333 34.8931 45.9115 34.8931H45.9193C46.4922 34.8931 47.0339 35.1197 47.4401 35.5259L47.6927 35.7785C48.526 36.6119 48.5338 37.9713 47.7005 38.8124L41.9531 44.6327C41.5677 45.026 41.5677 45.6588 41.9609 46.0468C42.3541 46.4322 42.987 46.4322 43.375 46.039L49.1224 40.2187C49.8411 39.4843 50.2213 38.552 50.2891 37.5989C50.3099 37.5129 50.3281 37.4244 50.3281 37.3384L50.3255 25.3331C50.3255 24.4138 51.0729 23.6664 51.9922 23.6664C52.9114 23.6664 53.6588 24.4138 53.6588 25.3331V39.9918C53.6588 41.4449 53.0911 42.8173 52.0599 43.8459L45.5469 50.3589C44.7604 51.1454 44.3282 52.1922 44.3282 53.3068L44.3256 54.6662C44.3256 55.2183 44.7735 55.6662 45.3256 55.6662C45.8777 55.6662 46.3256 55.2183 46.3256 54.6662V53.3121C46.3256 52.7314 46.5521 52.1845 46.9584 51.7782L53.4714 45.2652C54.8777 43.859 55.6511 41.984 55.6511 39.9996L55.6537 25.333C55.6667 23.3122 54.0204 21.6663 51.9996 21.6663ZM13.0336 34.127C12.2523 33.3327 11.208 32.8926 10.0934 32.8926H10.0804C9.20021 32.8926 8.36688 33.166 7.66634 33.6739V25.3325C7.66634 23.3117 6.02047 21.6659 3.99967 21.6659C1.97887 21.6659 0.333008 23.3117 0.333008 25.3325V39.9912C0.333008 41.9834 1.10647 43.8506 2.51267 45.2568L9.02567 51.7698C9.43193 52.1761 9.65849 52.7229 9.65849 53.3037V54.6657C9.65849 55.2177 10.1064 55.6657 10.6585 55.6657C11.2106 55.6657 11.6585 55.2177 11.6585 54.6657V53.3115C11.6585 52.1969 11.2262 51.1527 10.4398 50.3636L3.92675 43.8506C2.90069 42.8245 2.32782 41.4495 2.32782 39.9965L2.32522 25.3325C2.32522 24.4132 3.07262 23.6658 3.99188 23.6658C4.91115 23.6658 5.65855 24.4132 5.65855 25.3325V37.3325C5.65855 37.4262 5.67157 37.5122 5.69761 37.5929C5.76532 38.546 6.14553 39.4861 6.86428 40.2127L12.6117 46.033C12.9971 46.4262 13.6325 46.4341 14.0257 46.0408C14.419 45.6554 14.4268 45.02 14.0336 44.6268L8.28616 38.8064C7.46063 37.9653 7.46063 36.6059 8.29397 35.7726L8.54658 35.52C8.95283 35.1137 9.48671 34.8741 10.0726 34.8871C10.6534 34.8871 11.1924 35.1137 11.5987 35.5278L21.4187 45.4811C22.4317 46.5072 22.9916 47.8665 22.9916 49.3066V54.666C22.9916 55.2181 23.4396 55.666 23.9916 55.666C24.5437 55.666 24.9916 55.2181 24.9916 54.666V49.3119C24.9916 47.338 24.2312 45.4786 22.8458 44.0775L13.0336 34.127ZM21.6662 6.66634C21.6662 3.17414 24.5074 0.333008 27.9996 0.333008C31.4918 0.333008 34.3329 3.17414 34.3329 6.66634C34.3329 10.1585 31.4918 12.9997 27.9996 12.9997C24.5074 12.9997 21.6662 10.1585 21.6662 6.66634ZM23.6662 6.66634C23.6662 9.05174 25.6142 10.9997 27.9996 10.9997C30.385 10.9997 32.3329 9.05174 32.3329 6.66634C32.3329 4.28094 30.385 2.33301 27.9996 2.33301C25.6142 2.33301 23.6662 4.28094 23.6662 6.66634ZM37.6662 7.99967C37.6662 5.23927 39.9058 2.99967 42.6662 2.99967C45.4266 2.99967 47.6662 5.23927 47.6662 7.99967C47.6662 10.7601 45.4266 12.9997 42.6662 12.9997C39.9058 12.9997 37.6662 10.7601 37.6662 7.99967ZM39.6662 7.99967C39.6662 9.65334 41.0126 10.9997 42.6662 10.9997C44.3199 10.9997 45.6662 9.65334 45.6662 7.99967C45.6662 6.34601 44.3199 4.99967 42.6662 4.99967C41.0126 4.99967 39.6662 6.34601 39.6662 7.99967ZM8.3329 7.99967C8.3329 5.23927 10.5725 2.99967 13.3329 2.99967C16.0933 2.99967 18.3329 5.23927 18.3329 7.99967C18.3329 10.7601 16.0933 12.9997 13.3329 12.9997C10.5725 12.9997 8.3329 10.7601 8.3329 7.99967ZM10.3329 7.99967C10.3329 9.65334 11.6792 10.9997 13.3329 10.9997C14.9866 10.9997 16.3329 9.65334 16.3329 7.99967C16.3329 6.34601 14.9866 4.99967 13.3329 4.99967C11.6792 4.99967 10.3329 6.34601 10.3329 7.99967Z" fill="#8ADAFF"/>
</g>
</g>
<defs>
<filter id="filter0_d_763_6263" x="-1.66699" y="0.333008" width="59.3203" height="59.3337" filterUnits="userSpaceOnUse" color-interpolation-filters="sRGB">
<feFlood flood-opacity="0" result="BackgroundImageFix"/>
<feColorMatrix in="SourceAlpha" type="matrix" values="0 0 0 0 0 0 0 0 0 0 0 0 0 0 0 0 0 0 127 0" result="hardAlpha"/>
<feOffset dy="2"/>
<feGaussianBlur stdDeviation="1"/>
<feComposite in2="hardAlpha" operator="out"/>
<feColorMatrix type="matrix" values="0 0 0 0 0 0 0 0 0 0 0 0 0 0 0 0 0 0 0.25 0"/>
<feBlend mode="normal" in2="BackgroundImageFix" result="effect1_dropShadow_763_6263"/>
<feBlend mode="normal" in="SourceGraphic" in2="effect1_dropShadow_763_6263" result="shape"/>
</filter>
<clipPath id="clip0_763_6263">
<rect width="56" height="56" fill="white"/>
</clipPath>
</defs>
</svg>
