<svg width="56" height="52" viewBox="0 0 56 52" fill="none" xmlns="http://www.w3.org/2000/svg">
<g clip-path="url(#clip0_763_6214)">
<g filter="url(#filter0_d_763_6214)">
<path d="M6.40207 50.2589H1.21957C0.740176 50.2589 0.353889 49.8702 0.353889 49.3932L0.351562 29.5221C0.351562 29.0427 0.740191 28.6564 1.21724 28.6564H4.67303C5.12217 28.6564 5.49683 29.0009 5.53639 29.4476L7.26542 49.3187C7.28636 49.5607 7.20491 49.8004 7.04201 49.9796C6.87679 50.1565 6.64408 50.2589 6.40207 50.2589ZM2.08524 48.5275H5.45728L3.87951 30.3901H2.0853L2.08524 48.5275Z" fill="#8ADAFF"/>
</g>
<g filter="url(#filter1_d_763_6214)">
<path d="M25.1289 51.1805C22.2666 51.1805 19.4927 50.7081 16.8814 49.7749C14.4589 48.9115 11.8781 48.4717 9.216 48.4717H6.22798C5.74859 48.4717 5.3623 48.083 5.3623 47.606C5.3623 47.1266 5.75093 46.7403 6.22798 46.7403H9.216C12.0784 46.7403 14.8523 47.2127 17.4635 48.1459C19.886 49.0116 22.4668 49.4491 25.1289 49.4491C27.9215 49.4491 30.6605 48.9441 33.2668 47.9481L52.1561 40.8504C53.3336 40.399 54.0504 39.2075 53.8921 37.9531C53.7223 36.5848 52.554 35.5539 51.1764 35.5539C50.953 35.5539 50.7133 35.5888 50.462 35.654L28.2121 41.5113C27.749 41.6323 27.2743 41.3577 27.1533 40.8946C27.0323 40.4315 27.3069 39.9568 27.77 39.8358L50.0175 33.9784C50.4108 33.8737 50.8017 33.8202 51.1741 33.8202C53.4244 33.8202 55.3303 35.505 55.6096 37.7391C55.8655 39.7869 54.6974 41.7324 52.7682 42.4724L33.8789 49.5701C31.0817 50.636 28.1336 51.1805 25.1289 51.1805Z" fill="#8ADAFF"/>
</g>
<g filter="url(#filter2_d_763_6214)">
<path d="M27.5674 41.5395H16.7344C16.255 41.5395 15.8687 41.1509 15.8687 40.6739C15.8687 40.1945 16.2573 39.8082 16.7344 39.8082H27.5674C28.1352 39.8082 28.6774 39.5801 29.094 39.1636C29.4943 38.761 29.7246 38.2002 29.7246 37.6277C29.7246 36.4409 28.7566 35.4751 27.5674 35.4751H20.3976C19.4179 35.4751 18.4428 35.3075 17.5003 34.9771C16.5788 34.6536 15.7131 34.1742 14.9312 33.5483C13.6908 32.5546 12.134 32.0077 10.5492 32.0077H4.81978C4.34039 32.0077 3.9541 31.6191 3.9541 31.142C3.9541 30.6627 4.34273 30.2764 4.81978 30.2764H10.5469C12.5249 30.2764 14.468 30.9582 16.0133 32.1963C16.6416 32.6989 17.3351 33.0852 18.0728 33.3436C18.8314 33.6088 19.6133 33.7438 20.3952 33.7438H27.565C29.7106 33.7438 31.4559 35.4869 31.4559 37.6301C31.4559 38.661 31.0417 39.6664 30.3156 40.3924C29.5756 41.1324 28.5983 41.5395 27.5674 41.5395Z" fill="#8ADAFF"/>
</g>
<g filter="url(#filter3_d_763_6214)">
<path d="M36.6667 26.0501H33.2016C32.7222 26.0501 32.3359 25.6615 32.3359 25.1845C32.3359 24.7051 32.7246 24.3188 33.2016 24.3188H36.6667C39.6757 24.3188 42.5055 23.1483 44.6324 21.0189C46.5546 19.0967 47.6949 16.602 47.8997 13.9188H45.3306C44.8907 13.9188 44.4509 13.9444 44.0274 13.9933C43.5503 14.0491 43.1221 13.7094 43.0663 13.2347C43.0104 12.76 43.3502 12.3294 43.8249 12.2736C44.3159 12.2154 44.8232 12.1851 45.3305 12.1851H48.7956C49.275 12.1851 49.6613 12.5737 49.6613 13.0508C49.6613 16.5229 48.3092 19.7857 45.8541 22.2431C43.4013 24.6983 40.1365 26.0501 36.6667 26.0501Z" fill="#8ADAFF"/>
</g>
<g filter="url(#filter4_d_763_6214)">
<path d="M33.2715 26.0502C33.1598 26.0502 33.0481 26.0292 32.941 25.985C32.7293 25.8966 32.5594 25.729 32.471 25.5173C31.1352 22.3128 31.1282 18.78 32.45 15.5689C33.7719 12.3575 36.2642 9.85585 39.4709 8.52007L42.6707 7.18661C42.8824 7.09818 43.1221 7.09818 43.3339 7.18429C43.5457 7.27272 43.7156 7.44027 43.804 7.65204C45.1398 10.8565 45.1467 14.3893 43.8249 17.6004C42.5031 20.8114 40.0108 23.3135 36.8041 24.6492L33.6043 25.9827C33.4972 26.0292 33.3832 26.0502 33.2715 26.0502ZM42.5055 9.13221L40.1365 10.1189C37.3579 11.2755 35.1983 13.4467 34.0533 16.2277C33.0178 18.741 32.9247 21.4823 33.7671 24.0373L36.1361 23.0506C38.9148 21.894 41.0743 19.7228 42.2193 16.9418C43.2549 14.4285 43.3503 11.6872 42.5055 9.13221Z" fill="#8ADAFF"/>
</g>
<g filter="url(#filter5_d_763_6214)">
<path d="M26.5367 26.0502C26.425 26.0502 26.3132 26.0292 26.2039 25.9827L23.0041 24.6492C19.7996 23.3135 17.3073 20.8095 15.9832 17.6004C14.6614 14.389 14.6684 10.8566 16.0042 7.65205C16.188 7.20989 16.6953 7.00042 17.1375 7.18429L20.3373 8.51775C23.5417 9.85353 26.0341 12.3575 27.3581 15.5666C28.6799 18.778 28.6729 22.3104 27.3372 25.5149C27.1999 25.85 26.8764 26.0502 26.5367 26.0502ZM17.3026 9.13222C16.4578 11.6874 16.5533 14.4288 17.5889 16.9418C18.7338 19.7251 20.8957 21.894 23.672 23.0506L26.041 24.0373C26.8858 21.4821 26.7904 18.7408 25.7548 16.2277C24.6098 13.4444 22.4479 11.2755 19.6717 10.1189L17.3026 9.13222Z" fill="#8ADAFF"/>
</g>
<g filter="url(#filter6_d_763_6214)">
<path d="M19.5667 10.0044C19.5108 10.0044 19.4527 9.99971 19.3968 9.98808C18.9267 9.89499 18.6219 9.43887 18.715 8.96882C19.1571 6.74407 20.1834 4.66361 21.6844 2.94882C21.9986 2.58811 22.5478 2.55321 22.9062 2.86737L25.5149 5.15026C26.078 5.64361 26.597 6.18352 27.0601 6.75597C27.3603 7.12831 27.3021 7.67288 26.9298 7.9754C26.5574 8.2756 26.0129 8.21742 25.7104 7.84508C25.3101 7.3494 24.8586 6.87932 24.3699 6.45348L22.4384 4.76401C21.4331 6.10676 20.7373 7.66129 20.4115 9.30656C20.3347 9.71847 19.9716 10.0044 19.5667 10.0044Z" fill="#8ADAFF"/>
</g>
<g filter="url(#filter7_d_763_6214)">
<path d="M40.0357 10.0043C39.6308 10.0043 39.2677 9.71811 39.1863 9.30619C38.8605 7.66325 38.1647 6.10871 37.1594 4.76364L35.2279 6.45311C34.7392 6.87898 34.29 7.34905 33.8874 7.84471C33.5872 8.21705 33.0403 8.27523 32.668 7.97503C32.2957 7.67483 32.2375 7.12794 32.5377 6.7556C33.0008 6.18313 33.522 5.64091 34.0829 5.14989L36.6916 2.867C37.0523 2.55284 37.5992 2.58774 37.9134 2.94845C39.4144 4.66354 40.4407 6.744 40.8828 8.96845C40.9759 9.43853 40.671 9.89465 40.201 9.98771C40.1475 9.99934 40.0916 10.0043 40.0357 10.0043Z" fill="#8ADAFF"/>
</g>
<g filter="url(#filter8_d_763_6214)">
<path d="M28.0001 26.0502H22.8013C19.3292 26.0502 16.0664 24.6981 13.6089 22.243C11.1538 19.7879 9.80176 16.5229 9.80176 13.0531C9.80176 12.5737 10.1904 12.1874 10.6674 12.1874H14.1325C14.7632 12.1874 15.3915 12.2339 16.0035 12.3224C16.4759 12.3922 16.8041 12.832 16.7366 13.3044C16.6668 13.7768 16.2269 14.1049 15.7546 14.0374C15.2263 13.9583 14.6817 13.9188 14.1348 13.9188H11.568C11.7705 16.6019 12.9131 19.0966 14.8353 21.0188C16.9623 23.1458 19.7921 24.3164 22.801 24.3164H27.9999C28.4792 24.3164 28.8655 24.705 28.8655 25.1821C28.8655 25.6615 28.4795 26.0502 28.0001 26.0502Z" fill="#8ADAFF"/>
</g>
<g filter="url(#filter9_d_763_6214)">
<path d="M34.0111 15.2332C33.9878 15.2332 33.9622 15.2332 33.9389 15.2309C33.4619 15.1913 33.1082 14.7724 33.1477 14.2954C33.1826 13.8765 33.1989 13.46 33.1989 13.0527C33.1989 8.34027 30.9067 4.22618 29.7315 2.42703C28.554 4.22588 26.2571 8.34027 26.2571 13.0527C26.2571 13.1737 26.2595 13.2924 26.2618 13.4088C26.2641 13.5182 26.2664 13.6252 26.2664 13.7346C26.2688 14.214 25.8825 14.6026 25.4031 14.6049H25.3984C24.9214 14.6049 24.5351 14.2186 24.5327 13.7416C24.5327 13.6415 24.5304 13.5391 24.5281 13.439C24.5258 13.311 24.5234 13.1807 24.5234 13.0504C24.5234 6.12487 28.8705 0.609466 29.0544 0.377126C29.2196 0.172338 29.4686 0.0513306 29.7316 0.0513306C29.9945 0.0513306 30.2435 0.172338 30.4087 0.377126C30.5949 0.612165 34.9327 6.12743 34.9327 13.0528C34.9327 13.5066 34.9141 13.972 34.8745 14.4374C34.8373 14.8889 34.4579 15.2332 34.0111 15.2332Z" fill="#8ADAFF"/>
</g>
<g filter="url(#filter10_d_763_6214)">
<path d="M33.3079 26.0501H26.4848C26.0054 26.0501 25.6191 25.6615 25.6191 25.1845C25.6191 24.7051 26.0078 24.3188 26.4848 24.3188H33.3079C33.7873 24.3188 34.1736 24.7074 34.1736 25.1845C34.1736 25.6615 33.7849 26.0501 33.3079 26.0501Z" fill="#8ADAFF"/>
</g>
</g>
<defs>
<filter id="filter0_d_763_6214" x="-1.64844" y="28.6564" width="10.917" height="25.6024" filterUnits="userSpaceOnUse" color-interpolation-filters="sRGB">
<feFlood flood-opacity="0" result="BackgroundImageFix"/>
<feColorMatrix in="SourceAlpha" type="matrix" values="0 0 0 0 0 0 0 0 0 0 0 0 0 0 0 0 0 0 127 0" result="hardAlpha"/>
<feOffset dy="2"/>
<feGaussianBlur stdDeviation="1"/>
<feComposite in2="hardAlpha" operator="out"/>
<feColorMatrix type="matrix" values="0 0 0 0 0 0 0 0 0 0 0 0 0 0 0 0 0 0 0.25 0"/>
<feBlend mode="normal" in2="BackgroundImageFix" result="effect1_dropShadow_763_6214"/>
<feBlend mode="normal" in="SourceGraphic" in2="effect1_dropShadow_763_6214" result="shape"/>
</filter>
<filter id="filter1_d_763_6214" x="3.3623" y="33.8202" width="54.2822" height="21.3603" filterUnits="userSpaceOnUse" color-interpolation-filters="sRGB">
<feFlood flood-opacity="0" result="BackgroundImageFix"/>
<feColorMatrix in="SourceAlpha" type="matrix" values="0 0 0 0 0 0 0 0 0 0 0 0 0 0 0 0 0 0 127 0" result="hardAlpha"/>
<feOffset dy="2"/>
<feGaussianBlur stdDeviation="1"/>
<feComposite in2="hardAlpha" operator="out"/>
<feColorMatrix type="matrix" values="0 0 0 0 0 0 0 0 0 0 0 0 0 0 0 0 0 0 0.25 0"/>
<feBlend mode="normal" in2="BackgroundImageFix" result="effect1_dropShadow_763_6214"/>
<feBlend mode="normal" in="SourceGraphic" in2="effect1_dropShadow_763_6214" result="shape"/>
</filter>
<filter id="filter2_d_763_6214" x="1.9541" y="30.2764" width="31.502" height="15.2632" filterUnits="userSpaceOnUse" color-interpolation-filters="sRGB">
<feFlood flood-opacity="0" result="BackgroundImageFix"/>
<feColorMatrix in="SourceAlpha" type="matrix" values="0 0 0 0 0 0 0 0 0 0 0 0 0 0 0 0 0 0 127 0" result="hardAlpha"/>
<feOffset dy="2"/>
<feGaussianBlur stdDeviation="1"/>
<feComposite in2="hardAlpha" operator="out"/>
<feColorMatrix type="matrix" values="0 0 0 0 0 0 0 0 0 0 0 0 0 0 0 0 0 0 0.25 0"/>
<feBlend mode="normal" in2="BackgroundImageFix" result="effect1_dropShadow_763_6214"/>
<feBlend mode="normal" in="SourceGraphic" in2="effect1_dropShadow_763_6214" result="shape"/>
</filter>
<filter id="filter3_d_763_6214" x="30.3359" y="12.1851" width="21.3252" height="17.8651" filterUnits="userSpaceOnUse" color-interpolation-filters="sRGB">
<feFlood flood-opacity="0" result="BackgroundImageFix"/>
<feColorMatrix in="SourceAlpha" type="matrix" values="0 0 0 0 0 0 0 0 0 0 0 0 0 0 0 0 0 0 127 0" result="hardAlpha"/>
<feOffset dy="2"/>
<feGaussianBlur stdDeviation="1"/>
<feComposite in2="hardAlpha" operator="out"/>
<feColorMatrix type="matrix" values="0 0 0 0 0 0 0 0 0 0 0 0 0 0 0 0 0 0 0.25 0"/>
<feBlend mode="normal" in2="BackgroundImageFix" result="effect1_dropShadow_763_6214"/>
<feBlend mode="normal" in="SourceGraphic" in2="effect1_dropShadow_763_6214" result="shape"/>
</filter>
<filter id="filter4_d_763_6214" x="29.4639" y="7.12" width="17.3477" height="22.9302" filterUnits="userSpaceOnUse" color-interpolation-filters="sRGB">
<feFlood flood-opacity="0" result="BackgroundImageFix"/>
<feColorMatrix in="SourceAlpha" type="matrix" values="0 0 0 0 0 0 0 0 0 0 0 0 0 0 0 0 0 0 127 0" result="hardAlpha"/>
<feOffset dy="2"/>
<feGaussianBlur stdDeviation="1"/>
<feComposite in2="hardAlpha" operator="out"/>
<feColorMatrix type="matrix" values="0 0 0 0 0 0 0 0 0 0 0 0 0 0 0 0 0 0 0.25 0"/>
<feBlend mode="normal" in2="BackgroundImageFix" result="effect1_dropShadow_763_6214"/>
<feBlend mode="normal" in="SourceGraphic" in2="effect1_dropShadow_763_6214" result="shape"/>
</filter>
<filter id="filter5_d_763_6214" x="12.9971" y="7.11761" width="17.3477" height="22.9326" filterUnits="userSpaceOnUse" color-interpolation-filters="sRGB">
<feFlood flood-opacity="0" result="BackgroundImageFix"/>
<feColorMatrix in="SourceAlpha" type="matrix" values="0 0 0 0 0 0 0 0 0 0 0 0 0 0 0 0 0 0 127 0" result="hardAlpha"/>
<feOffset dy="2"/>
<feGaussianBlur stdDeviation="1"/>
<feComposite in2="hardAlpha" operator="out"/>
<feColorMatrix type="matrix" values="0 0 0 0 0 0 0 0 0 0 0 0 0 0 0 0 0 0 0.25 0"/>
<feBlend mode="normal" in2="BackgroundImageFix" result="effect1_dropShadow_763_6214"/>
<feBlend mode="normal" in="SourceGraphic" in2="effect1_dropShadow_763_6214" result="shape"/>
</filter>
<filter id="filter6_d_763_6214" x="16.6982" y="2.65314" width="12.5537" height="11.3513" filterUnits="userSpaceOnUse" color-interpolation-filters="sRGB">
<feFlood flood-opacity="0" result="BackgroundImageFix"/>
<feColorMatrix in="SourceAlpha" type="matrix" values="0 0 0 0 0 0 0 0 0 0 0 0 0 0 0 0 0 0 127 0" result="hardAlpha"/>
<feOffset dy="2"/>
<feGaussianBlur stdDeviation="1"/>
<feComposite in2="hardAlpha" operator="out"/>
<feColorMatrix type="matrix" values="0 0 0 0 0 0 0 0 0 0 0 0 0 0 0 0 0 0 0.25 0"/>
<feBlend mode="normal" in2="BackgroundImageFix" result="effect1_dropShadow_763_6214"/>
<feBlend mode="normal" in="SourceGraphic" in2="effect1_dropShadow_763_6214" result="shape"/>
</filter>
<filter id="filter7_d_763_6214" x="30.3457" y="2.65277" width="12.5537" height="11.3516" filterUnits="userSpaceOnUse" color-interpolation-filters="sRGB">
<feFlood flood-opacity="0" result="BackgroundImageFix"/>
<feColorMatrix in="SourceAlpha" type="matrix" values="0 0 0 0 0 0 0 0 0 0 0 0 0 0 0 0 0 0 127 0" result="hardAlpha"/>
<feOffset dy="2"/>
<feGaussianBlur stdDeviation="1"/>
<feComposite in2="hardAlpha" operator="out"/>
<feColorMatrix type="matrix" values="0 0 0 0 0 0 0 0 0 0 0 0 0 0 0 0 0 0 0.25 0"/>
<feBlend mode="normal" in2="BackgroundImageFix" result="effect1_dropShadow_763_6214"/>
<feBlend mode="normal" in="SourceGraphic" in2="effect1_dropShadow_763_6214" result="shape"/>
</filter>
<filter id="filter8_d_763_6214" x="7.80176" y="12.1874" width="23.0635" height="17.8628" filterUnits="userSpaceOnUse" color-interpolation-filters="sRGB">
<feFlood flood-opacity="0" result="BackgroundImageFix"/>
<feColorMatrix in="SourceAlpha" type="matrix" values="0 0 0 0 0 0 0 0 0 0 0 0 0 0 0 0 0 0 127 0" result="hardAlpha"/>
<feOffset dy="2"/>
<feGaussianBlur stdDeviation="1"/>
<feComposite in2="hardAlpha" operator="out"/>
<feColorMatrix type="matrix" values="0 0 0 0 0 0 0 0 0 0 0 0 0 0 0 0 0 0 0.25 0"/>
<feBlend mode="normal" in2="BackgroundImageFix" result="effect1_dropShadow_763_6214"/>
<feBlend mode="normal" in="SourceGraphic" in2="effect1_dropShadow_763_6214" result="shape"/>
</filter>
<filter id="filter9_d_763_6214" x="22.5234" y="0.0513306" width="14.4092" height="19.1819" filterUnits="userSpaceOnUse" color-interpolation-filters="sRGB">
<feFlood flood-opacity="0" result="BackgroundImageFix"/>
<feColorMatrix in="SourceAlpha" type="matrix" values="0 0 0 0 0 0 0 0 0 0 0 0 0 0 0 0 0 0 127 0" result="hardAlpha"/>
<feOffset dy="2"/>
<feGaussianBlur stdDeviation="1"/>
<feComposite in2="hardAlpha" operator="out"/>
<feColorMatrix type="matrix" values="0 0 0 0 0 0 0 0 0 0 0 0 0 0 0 0 0 0 0.25 0"/>
<feBlend mode="normal" in2="BackgroundImageFix" result="effect1_dropShadow_763_6214"/>
<feBlend mode="normal" in="SourceGraphic" in2="effect1_dropShadow_763_6214" result="shape"/>
</filter>
<filter id="filter10_d_763_6214" x="23.6191" y="24.3188" width="12.5547" height="5.73132" filterUnits="userSpaceOnUse" color-interpolation-filters="sRGB">
<feFlood flood-opacity="0" result="BackgroundImageFix"/>
<feColorMatrix in="SourceAlpha" type="matrix" values="0 0 0 0 0 0 0 0 0 0 0 0 0 0 0 0 0 0 127 0" result="hardAlpha"/>
<feOffset dy="2"/>
<feGaussianBlur stdDeviation="1"/>
<feComposite in2="hardAlpha" operator="out"/>
<feColorMatrix type="matrix" values="0 0 0 0 0 0 0 0 0 0 0 0 0 0 0 0 0 0 0.25 0"/>
<feBlend mode="normal" in2="BackgroundImageFix" result="effect1_dropShadow_763_6214"/>
<feBlend mode="normal" in="SourceGraphic" in2="effect1_dropShadow_763_6214" result="shape"/>
</filter>
<clipPath id="clip0_763_6214">
<rect width="56" height="51.234" fill="white"/>
</clipPath>
</defs>
</svg>
