<svg width="25" height="24" viewBox="0 0 25 24" fill="none" xmlns="http://www.w3.org/2000/svg">
<g id="noun-heart-7171035 1">
<path id="Vector" fill-rule="evenodd" clip-rule="evenodd" d="M13.1348 19.1877C16.0064 17.1787 20.6938 13.3771 21.1026 9.6825C21.2405 8.43562 20.8701 7.1521 19.732 5.8903C18.5236 4.55248 16.6898 4.32374 15.0772 5.04562C14.5166 5.29686 14.001 5.655 13.5622 6.09374C12.9791 6.67874 12.0228 6.68156 11.4388 6.0853C10.6204 5.24248 9.40642 4.6828 8.23442 4.64342C7.09536 4.60592 6.04062 5.04466 5.27762 5.88936C4.13856 7.15124 3.76824 8.43376 3.90606 9.68156C4.31388 13.3754 9.00126 17.1778 11.8739 19.1868C12.2592 19.4558 12.7504 19.4558 13.1357 19.1868L13.1348 19.1877ZM17.9142 18.5221C16.7583 19.5318 15.5686 20.4271 14.5158 21.1641C13.284 22.0256 11.7248 22.0256 10.493 21.1641C6.93044 18.6731 2.01044 14.5321 1.50424 9.94788C1.2933 8.04194 1.82674 6.11528 3.48986 4.27508C5.40986 2.14968 8.34886 1.69708 10.9363 2.8557C11.4978 3.10788 12.0294 3.42946 12.5075 3.8082C13.7009 2.86414 15.1633 2.2857 16.6981 2.23508C17.6187 2.20414 18.514 2.37102 19.3353 2.71884C20.1547 3.06572 20.8981 3.59072 21.5177 4.27602C23.1808 6.11634 23.7143 8.04282 23.5033 9.94882C23.133 13.3004 20.4255 16.3284 17.9139 18.5232L17.9142 18.5221Z" fill="black"/>
</g>
</svg>
