<svg width="25" height="24" viewBox="0 0 25 24" fill="none" xmlns="http://www.w3.org/2000/svg">
<g id="noun-comment-7171058 1">
<path id="Vector" fill-rule="evenodd" clip-rule="evenodd" d="M1.45996 21.8158V11.9994C1.45996 5.89997 6.40436 0.955566 12.5038 0.955566C18.6032 0.955566 23.5476 5.89997 23.5476 11.9994C23.5476 18.0988 18.6024 23.0432 12.5038 23.0432H2.68736C2.00954 23.0432 1.46018 22.4938 1.46018 21.816L1.45996 21.8158ZM7.56576 13.7778C8.54826 13.7778 9.3442 12.9818 9.3442 11.9993C9.3442 11.0168 8.54826 10.2209 7.56576 10.2209C6.58326 10.2209 5.78732 11.0168 5.78732 11.9993C5.78732 12.9818 6.58326 13.7778 7.56576 13.7778ZM17.4422 13.7778C18.4247 13.7778 19.2206 12.9818 19.2206 11.9993C19.2206 11.0168 18.4247 10.2209 17.4422 10.2209C16.4597 10.2209 15.6637 11.0168 15.6637 11.9993C15.6637 12.9818 16.4597 13.7778 17.4422 13.7778ZM12.5044 13.7778C13.4869 13.7778 14.2828 12.9818 14.2828 11.9993C14.2828 11.0168 13.4869 10.2209 12.5044 10.2209C11.5219 10.2209 10.7259 11.0168 10.7259 11.9993C10.7259 12.9818 11.5219 13.7778 12.5044 13.7778ZM3.91496 11.9993V20.5887H12.5044C17.2482 20.5887 21.0938 16.7431 21.0938 11.9993C21.0928 7.25553 17.2474 3.40993 12.5034 3.40993C7.75936 3.40993 3.91396 7.25553 3.91396 11.9993H3.91496Z" fill="black"/>
</g>
</svg>
