<svg width="25" height="24" viewBox="0 0 25 24" fill="none" xmlns="http://www.w3.org/2000/svg">
<g id="noun-cross-7171033 1">
<path id="Vector" fill-rule="evenodd" clip-rule="evenodd" d="M16.6306 14.3917C17.1097 14.8708 17.1097 15.648 16.6306 16.1271C16.1516 16.6061 15.3744 16.6061 14.8953 16.1271L12.5037 13.7355L10.1121 16.1271C9.63307 16.6061 8.85589 16.6061 8.37681 16.1271C7.89773 15.648 7.89775 14.8708 8.37681 14.3917L10.7684 12.0001L8.37681 9.60854C7.89775 9.12948 7.89775 8.3523 8.37681 7.87322C8.85587 7.39414 9.63305 7.39416 10.1121 7.87322L12.5037 10.2648L14.8953 7.87322C15.3744 7.39416 16.1516 7.39416 16.6306 7.87322C17.1097 8.35228 17.1097 9.12946 16.6306 9.60854L14.239 12.0001L16.6306 14.3917ZM3.91445 16.7683C3.91445 18.8673 5.63663 20.5895 7.73565 20.5895H17.2718C19.3708 20.5895 21.093 18.8674 21.093 16.7683V7.23214C21.093 5.13314 19.3709 3.41094 17.2718 3.41094H7.73565C5.63665 3.41094 3.91445 5.13312 3.91445 7.23214V16.7683ZM3.30321 21.2019C4.43945 22.3391 6.00881 23.0441 7.73681 23.0441H17.273C18.9999 23.0441 20.5692 22.3382 21.7066 21.2019C22.8428 20.0648 23.5488 18.4963 23.5488 16.7683L23.5479 7.23214C23.5479 3.77834 20.7258 0.956543 17.2722 0.956543H7.73605C4.28225 0.956543 1.46045 3.77854 1.46045 7.23214V16.7683C1.46045 18.4952 2.16639 20.0645 3.30357 21.2019H3.30321Z" fill="black"/>
</g>
</svg>
