<svg width="32" height="32" viewBox="0 0 32 32" fill="none" xmlns="http://www.w3.org/2000/svg">
<g id="streamline:quality-education">
<path id="Vector" d="M16.1015 15.1674C14.7921 14.1424 12.8296 12.3502 7.20307 12.3502V25.1833C12.8296 25.1833 14.7921 26.9755 16.1015 28.0005M16.1015 15.1674V28.0005M16.1015 15.1674C17.411 14.1424 19.3735 12.3502 25 12.3502V25.1833C19.3735 25.1833 17.411 26.9755 16.1015 28.0005M19.5783 4.10057V8.6081M22.6892 4.00049H11.0002C10.6736 4.00007 10.3534 4.09637 10.0759 4.2785L7 6.30615L10.0759 8.33009C10.3534 8.51223 10.6736 8.60852 11.0002 8.6081H22.6892C22.98 8.61684 23.2695 8.56374 23.5407 8.45194C23.8118 8.34013 24.059 8.17191 24.2676 7.9572C24.4762 7.74249 24.6421 7.48567 24.7553 7.20192C24.8686 6.91817 24.9269 6.61326 24.9269 6.30522C24.9269 5.99718 24.8686 5.69227 24.7553 5.40852C24.6421 5.12478 24.4762 4.86795 24.2676 4.65325C24.059 4.43854 23.8118 4.27031 23.5407 4.15851C23.2695 4.04671 22.98 3.99175 22.6892 4.00049Z" stroke="black" stroke-width="1.5" stroke-linecap="round" stroke-linejoin="round"/>
</g>
</svg>
