<svg width="32" height="32" viewBox="0 0 32 32" fill="none" xmlns="http://www.w3.org/2000/svg">
<g id="material-symbols-light:event-outline">
<path id="Vector" d="M19.8468 24.0005C19.0673 24.0005 18.4024 23.725 17.8522 23.1738C17.3019 22.6227 17.0264 21.9583 17.0255 21.1805C17.0246 20.4027 17.3002 19.7374 17.8522 19.1845C18.4042 18.6316 19.0691 18.3565 19.8468 18.3592C20.6246 18.3618 21.2895 18.6374 21.8415 19.1858C22.3935 19.7343 22.6686 20.3992 22.6668 21.1805C22.6651 21.9618 22.3895 22.6267 21.8402 23.1752C21.2908 23.7236 20.6264 23.9987 19.8468 24.0005ZM7.48683 28.0005C6.8735 28.0005 6.3615 27.7952 5.95083 27.3845C5.54016 26.9738 5.33438 26.4614 5.3335 25.8472V8.82051C5.3335 8.20718 5.53927 7.69518 5.95083 7.28451C6.36238 6.87385 6.87483 6.66807 7.48816 6.66718H9.84683V3.69385H11.2828V6.66718H20.8215V3.69385H22.1548V6.66718H24.5135C25.1268 6.66718 25.6393 6.87296 26.0508 7.28451C26.4624 7.69607 26.6677 8.20851 26.6668 8.82185V25.8472C26.6668 26.4605 26.4615 26.973 26.0508 27.3845C25.6402 27.7961 25.1273 28.0014 24.5122 28.0005H7.48683ZM7.48683 26.6672H24.5135C24.7179 26.6672 24.9059 26.5818 25.0775 26.4112C25.2491 26.2405 25.3344 26.0521 25.3335 25.8458V14.1552H6.66683V25.8472C6.66683 26.0516 6.75216 26.2396 6.92283 26.4112C7.0935 26.5827 7.2815 26.6681 7.48683 26.6672ZM6.66683 12.8205H25.3335V8.82051C25.3335 8.61607 25.2482 8.42807 25.0775 8.25651C24.9068 8.08496 24.7184 7.99963 24.5122 8.00051H7.48816C7.28283 8.00051 7.09438 8.08585 6.92283 8.25651C6.75127 8.42718 6.66594 8.61563 6.66683 8.82185V12.8205Z" fill="black"/>
</g>
</svg>
