<svg width="52" height="52" viewBox="0 0 52 52" fill="none" xmlns="http://www.w3.org/2000/svg">
<g id="carbon:forum">
<path id="Vector" d="M45.5 9.75H13C11.05 9.75 9.75 11.05 9.75 13V35.75C9.75 37.7 11.05 39 13 39H26V35.75H13V13H45.5V35.75H33.8L26 46.8L28.6 48.75L35.425 39H45.5C47.45 39 48.75 37.7 48.75 35.75V13C48.75 11.05 47.45 9.75 45.5 9.75Z" fill="white"/>
<path id="Vector_2" d="M6.5 29.25H3.25V8.125C3.25 5.3625 5.3625 3.25 8.125 3.25H29.25V6.5H8.125C7.15 6.5 6.5 7.15 6.5 8.125V29.25Z" fill="white"/>
</g>
</svg>
