<svg width="24" height="24" viewBox="0 0 24 24" fill="none" xmlns="http://www.w3.org/2000/svg">
<g id="noun-locked-4637113 1">
<path id="Vector" d="M12.0024 1.25977C6.0552 1.25977 1.2168 6.09817 1.2168 12.0454C1.2168 17.9926 6.0552 22.831 12.0024 22.831C17.9496 22.831 22.788 17.9926 22.788 12.0454C22.7879 6.09817 17.9496 1.25977 12.0024 1.25977ZM12.0024 21.3918C6.8496 21.3918 2.6568 17.199 2.6568 12.0462C2.6568 6.89337 6.8496 2.70057 12.0024 2.70057C17.1552 2.70057 21.348 6.89337 21.348 12.0462C21.3479 17.199 17.1576 21.3918 12.0024 21.3918ZM15.0888 9.81896V8.99335C15.0888 7.36617 13.764 6.04135 12.1368 6.04135C10.5096 6.04135 9.1848 7.36611 9.1848 8.99335V9.80937H9.11042C7.97518 9.80937 7.05122 10.7333 7.05122 11.8686V15.9966C7.05122 17.1318 7.9752 18.0558 9.11042 18.0558H14.904C16.0393 18.0558 16.9632 17.1318 16.9632 15.9966V11.8686C16.9585 10.7957 16.1353 9.91255 15.0888 9.81896H15.0888ZM10.6224 8.99093C10.6224 8.15569 11.3016 7.47889 12.1344 7.47889C12.9697 7.47889 13.6465 8.15811 13.6465 8.99093V9.80695H10.6225L10.6224 8.99093ZM15.5184 15.9941C15.5184 16.3349 15.24 16.6133 14.8992 16.6133H9.10558C8.7648 16.6133 8.48636 16.3349 8.48636 15.9941V11.8661C8.48636 11.5253 8.7648 11.2469 9.10558 11.2469H14.8992C15.24 11.2469 15.5184 11.5253 15.5184 11.8661V15.9941Z" fill="black"/>
</g>
</svg>
