<svg width="52" height="52" viewBox="0 0 52 52" fill="none" xmlns="http://www.w3.org/2000/svg">
<g id="carbon:map">
<path id="Vector" d="M25.9998 39L16.1036 25.025C14.4837 23.1125 13.4406 20.7791 13.0956 18.2967C12.7507 15.8142 13.1181 13.2848 14.1551 11.0031C15.192 8.72141 16.8559 6.78126 18.953 5.40863C21.05 4.03601 23.4938 3.2874 25.9998 3.25C29.4737 3.28433 32.7923 4.69396 35.2289 7.17017C37.6655 9.64638 39.0215 12.9873 38.9998 16.4613C39.0012 19.4918 37.9694 22.4322 36.0748 24.7975L25.9998 39ZM25.9998 6.5C23.3866 6.53001 20.8921 7.59586 19.064 9.46352C17.236 11.3312 16.2238 13.848 16.2498 16.4613C16.2621 18.8462 17.1201 21.1495 18.6711 22.9613L25.9998 33.345L33.5236 22.75C34.9537 20.9648 35.7383 18.7486 35.7498 16.4613C35.7758 13.848 34.7637 11.3312 32.9356 9.46352C31.1076 7.59586 28.6131 6.53001 25.9998 6.5Z" fill="white"/>
<path id="Vector_2" d="M26 17.875C27.7949 17.875 29.25 16.4199 29.25 14.625C29.25 12.8301 27.7949 11.375 26 11.375C24.2051 11.375 22.75 12.8301 22.75 14.625C22.75 16.4199 24.2051 17.875 26 17.875Z" fill="white"/>
<path id="Vector_3" d="M45.5 19.5H42.25V22.75H45.5V45.5H6.5V22.75H9.75V19.5H6.5C5.63805 19.5 4.8114 19.8424 4.2019 20.4519C3.59241 21.0614 3.25 21.888 3.25 22.75V45.5C3.25 46.362 3.59241 47.1886 4.2019 47.7981C4.8114 48.4076 5.63805 48.75 6.5 48.75H45.5C46.362 48.75 47.1886 48.4076 47.7981 47.7981C48.4076 47.1886 48.75 46.362 48.75 45.5V22.75C48.75 21.888 48.4076 21.0614 47.7981 20.4519C47.1886 19.8424 46.362 19.5 45.5 19.5Z" fill="white"/>
</g>
</svg>
