<svg width="52" height="52" viewBox="0 0 52 52" fill="none" xmlns="http://www.w3.org/2000/svg">
<g id="fluent:people-team-20-regular">
<path id="Vector" d="M26.0002 7.8002C24.9659 7.8002 23.9739 8.21109 23.2425 8.94248C22.5111 9.67387 22.1002 10.6659 22.1002 11.7002C22.1002 12.7345 22.5111 13.7265 23.2425 14.4579C23.9739 15.1893 24.9659 15.6002 26.0002 15.6002C27.0345 15.6002 28.0265 15.1893 28.7579 14.4579C29.4893 13.7265 29.9002 12.7345 29.9002 11.7002C29.9002 10.6659 29.4893 9.67387 28.7579 8.94248C28.0265 8.21109 27.0345 7.8002 26.0002 7.8002ZM19.5002 11.7002C19.5002 9.97629 20.185 8.32299 21.404 7.104C22.623 5.88501 24.2763 5.2002 26.0002 5.2002C27.7241 5.2002 29.3774 5.88501 30.5964 7.104C31.8154 8.32299 32.5002 9.97629 32.5002 11.7002C32.5002 13.4241 31.8154 15.0774 30.5964 16.2964C29.3774 17.5154 27.7241 18.2002 26.0002 18.2002C24.2763 18.2002 22.623 17.5154 21.404 16.2964C20.185 15.0774 19.5002 13.4241 19.5002 11.7002ZM40.3002 10.4002C39.6106 10.4002 38.9493 10.6741 38.4617 11.1617C37.9741 11.6493 37.7002 12.3106 37.7002 13.0002C37.7002 13.6898 37.9741 14.3511 38.4617 14.8387C38.9493 15.3263 39.6106 15.6002 40.3002 15.6002C40.9898 15.6002 41.6511 15.3263 42.1387 14.8387C42.6263 14.3511 42.9002 13.6898 42.9002 13.0002C42.9002 12.3106 42.6263 11.6493 42.1387 11.1617C41.6511 10.6741 40.9898 10.4002 40.3002 10.4002ZM35.1002 13.0002C35.1002 11.6211 35.6481 10.2984 36.6232 9.32324C37.5984 8.34805 38.9211 7.8002 40.3002 7.8002C41.6793 7.8002 43.002 8.34805 43.9771 9.32324C44.9523 10.2984 45.5002 11.6211 45.5002 13.0002C45.5002 14.3793 44.9523 15.702 43.9771 16.6772C43.002 17.6523 41.6793 18.2002 40.3002 18.2002C38.9211 18.2002 37.5984 17.6523 36.6232 16.6772C35.6481 15.702 35.1002 14.3793 35.1002 13.0002ZM9.1002 13.0002C9.1002 12.3106 9.37412 11.6493 9.86172 11.1617C10.3493 10.6741 11.0106 10.4002 11.7002 10.4002C12.3898 10.4002 13.0511 10.6741 13.5387 11.1617C14.0263 11.6493 14.3002 12.3106 14.3002 13.0002C14.3002 13.6898 14.0263 14.3511 13.5387 14.8387C13.0511 15.3263 12.3898 15.6002 11.7002 15.6002C11.0106 15.6002 10.3493 15.3263 9.86172 14.8387C9.37412 14.3511 9.1002 13.6898 9.1002 13.0002ZM11.7002 7.8002C10.3211 7.8002 8.99843 8.34805 8.02324 9.32324C7.04805 10.2984 6.5002 11.6211 6.5002 13.0002C6.5002 14.3793 7.04805 15.702 8.02324 16.6772C8.99843 17.6523 10.3211 18.2002 11.7002 18.2002C13.0793 18.2002 14.402 17.6523 15.3772 16.6772C16.3523 15.702 16.9002 14.3793 16.9002 13.0002C16.9002 11.6211 16.3523 10.2984 15.3772 9.32324C14.402 8.34805 13.0793 7.8002 11.7002 7.8002ZM13.2602 38.995L13.0002 39.0002C11.6211 39.0002 10.2984 38.4523 9.32324 37.4771C8.34805 36.502 7.8002 35.1793 7.8002 33.8002V24.0502C7.8002 23.8778 7.86868 23.7125 7.99058 23.5906C8.11247 23.4687 8.2778 23.4002 8.4502 23.4002H13.0366C13.1406 22.446 13.4786 21.5594 13.9856 20.8002H8.4502C6.6562 20.8002 5.2002 22.2562 5.2002 24.0502V33.8002C5.20007 34.9133 5.4382 36.0136 5.89856 37.027C6.35892 38.0405 7.03087 38.9436 7.86924 39.6758C8.70761 40.4081 9.69299 40.9524 10.7592 41.2722C11.8253 41.592 12.9476 41.6799 14.0506 41.53C13.7013 40.7142 13.4364 39.8648 13.2602 38.995ZM37.9498 41.53C38.293 41.5768 38.6431 41.6002 39.0002 41.6002C41.0689 41.6002 43.0528 40.7784 44.5156 39.3156C45.9784 37.8528 46.8002 35.8689 46.8002 33.8002V24.0502C46.8002 22.2562 45.3442 20.8002 43.5502 20.8002H38.0148C38.5244 21.5594 38.8598 22.446 38.9638 23.4002H43.5502C43.7226 23.4002 43.8879 23.4687 44.0098 23.5906C44.1317 23.7125 44.2002 23.8778 44.2002 24.0502V33.8002C44.2004 34.5051 44.0572 35.2026 43.7795 35.8505C43.5018 36.4983 43.0952 37.0829 42.5845 37.5688C42.0738 38.0547 41.4697 38.4316 40.8089 38.6768C40.148 38.922 39.4442 39.0302 38.7402 38.995C38.5639 39.8648 38.2991 40.7142 37.9498 41.53ZM18.8502 20.8002C17.0562 20.8002 15.6002 22.2562 15.6002 24.0502V36.4002C15.6002 39.1584 16.6959 41.8037 18.6463 43.7541C20.5967 45.7045 23.2419 46.8002 26.0002 46.8002C28.7584 46.8002 31.4037 45.7045 33.3541 43.7541C35.3045 41.8037 36.4002 39.1584 36.4002 36.4002V24.0502C36.4002 22.2562 34.9442 20.8002 33.1502 20.8002H18.8502ZM18.2002 24.0502C18.2002 23.8778 18.2687 23.7125 18.3906 23.5906C18.5125 23.4687 18.6778 23.4002 18.8502 23.4002H33.1502C33.3226 23.4002 33.4879 23.4687 33.6098 23.5906C33.7317 23.7125 33.8002 23.8778 33.8002 24.0502V36.4002C33.8002 38.4689 32.9784 40.4528 31.5156 41.9156C30.0528 43.3784 28.0689 44.2002 26.0002 44.2002C23.9315 44.2002 21.9475 43.3784 20.4848 41.9156C19.022 40.4528 18.2002 38.4689 18.2002 36.4002V24.0502Z" fill="white"/>
</g>
</svg>
