<svg width="52" height="52" viewBox="0 0 52 52" fill="none" xmlns="http://www.w3.org/2000/svg">
<g id="bitcoin-icons:podcast-outline">
<g id="Group">
<path id="Vector" d="M33.5832 15.1668C33.5832 10.9787 30.188 7.5835 25.9998 7.5835C21.8117 7.5835 18.4165 10.9787 18.4165 15.1668V26.0002C18.4165 30.1883 21.8117 33.5835 25.9998 33.5835C30.188 33.5835 33.5832 30.1883 33.5832 26.0002V15.1668Z" stroke="white" stroke-width="3" stroke-linejoin="round"/>
<path id="Vector_2" d="M18.4165 24.9167H22.7498M29.2498 24.9167H33.5832M18.4165 20.5833H22.7498M29.2498 20.5833H33.5832M18.4165 16.25H22.7498M29.2498 16.25H33.5832" stroke="white" stroke-width="3" stroke-linecap="round" stroke-linejoin="round"/>
<path id="Vector_3" d="M26 39V44.4167" stroke="white" stroke-width="3"/>
<path id="Vector_4" d="M18.4165 44.417H33.5832" stroke="white" stroke-width="3" stroke-linecap="round" stroke-linejoin="round"/>
<path id="Vector_5" d="M13.8838 30.7129C14.8158 33.1092 16.4375 35.1753 18.5438 36.6499C20.6501 38.1246 23.1464 38.9415 25.717 38.9974C28.2876 39.0533 30.817 38.3456 32.9854 36.9639C35.1538 35.5823 36.8638 33.5886 37.8991 31.2351" stroke="white" stroke-width="3" stroke-linecap="round"/>
</g>
</g>
</svg>
