<?xml version="1.0" ?><svg id="Layer_1" style="enable-background:new 0 0 512 512;" version="1.1" viewBox="0 0 512 512" xml:space="preserve" xmlns="http://www.w3.org/2000/svg" xmlns:xlink="http://www.w3.org/1999/xlink"><style type="text/css">
	.st0{fill:#E91E26;}
	.st1{fill:#FFFFFF;}
</style><g id="XMLID_1_"><rect class="st0" height="298.7" id="XMLID_6_" width="120.4" x="0" y="106.7"/><rect class="st0" height="298.7" id="XMLID_5_" width="120.4" x="391.6" y="106.7"/><rect class="st1" height="298.7" id="XMLID_4_" width="271.1" x="120.4" y="106.7"/><path class="st0" d="M256,145.4l-17.8,34.5c-2,3.8-5.6,3.4-9.2,1.3l-12.9-6.9l9.6,53c2,9.7-4.5,9.7-7.6,5.5   l-22.4-26.2l-3.6,13.3c-0.4,1.7-2.3,3.6-5,3.1l-28.4-6.2l7.5,28.2c1.6,6.3,2.8,8.9-1.6,10.5l-10.1,4.9l48.8,41.3   c1.9,1.6,2.9,4.4,2.2,6.9l-4.3,14.6c16.8-2,31.9-3.8,48.7-5.8c1.5,0,4,1.3,4,3.1l-2.2,53.5h8.2l-1.3-53.4c0-1.8,2.2-3.2,3.7-3.2   c16.8,2,31.9,3.8,48.7,5.8l-4.3-14.6c-0.7-2.5,0.3-5.4,2.2-6.9l48.8-41.3l-10.1-4.9c-4.4-1.7-3.2-4.3-1.6-10.5l7.4-28.2L325,223   c-2.8,0.4-4.6-1.4-5-3.1l-3.6-13.3l-22.4,26.2c-3.2,4.2-9.7,4.2-7.6-5.5l9.6-53l-12.9,6.9c-3.6,2.1-7.2,2.4-9.2-1.3L256,145.4z" id="XMLID_3_"/></g></svg>