<?xml version="1.0" ?><svg id="Layer_1" style="enable-background:new 0 0 512 512;" version="1.1" viewBox="0 0 512 512" xml:space="preserve" xmlns="http://www.w3.org/2000/svg" xmlns:xlink="http://www.w3.org/1999/xlink"><style type="text/css">
	.st0{fill:#FFFFFF;}
	.st1{fill:#313F99;}
	.st2{fill:#C22827;}
</style><g id="XMLID_1_"><rect class="st0" height="298.7" id="XMLID_14_" width="512" y="106.7"/><rect class="st1" height="298.7" id="XMLID_13_" width="149.3" y="106.7"/><rect class="st2" height="149.3" id="XMLID_12_" width="512" y="256"/><polygon class="st0" id="XMLID_11_" points="74.7,144 63.1,179.5 80.9,185.3  "/><polygon class="st0" id="XMLID_10_" points="74.7,144 86.2,179.5 68.5,185.3  "/><polygon class="st0" id="XMLID_9_" points="110.2,169.8 72.8,169.8 72.8,188.5  "/><polygon class="st0" id="XMLID_8_" points="110.2,169.8 80,191.7 69,176.6  "/><polygon class="st0" id="XMLID_7_" points="39.2,169.8 69.4,191.7 80.3,176.6  "/><polygon class="st0" id="XMLID_6_" points="39.2,169.8 76.5,169.8 76.5,188.5  "/><polygon class="st0" id="XMLID_5_" points="96.6,211.5 85.1,176 67.3,181.8  "/><polygon class="st0" id="XMLID_4_" points="96.6,211.5 66.4,189.6 77.4,174.5  "/><polygon class="st0" id="XMLID_3_" points="52.7,211.5 82.9,189.6 71.9,174.5  "/><polygon class="st0" id="XMLID_2_" points="52.7,211.5 64.3,176 82,181.8  "/></g></svg>