<?xml version="1.0" ?><svg id="Layer_1" style="enable-background:new 0 0 512 512;" version="1.1" viewBox="0 0 512 512" xml:space="preserve" xmlns="http://www.w3.org/2000/svg" xmlns:xlink="http://www.w3.org/1999/xlink"><style type="text/css">
	.st0{fill:#2E3D85;}
	.st1{fill:#FFFFFF;}
	.st2{fill:#D81E34;}
	.st3{fill-rule:evenodd;clip-rule:evenodd;fill:#FFFFFF;}
</style><g id="XMLID_1_"><rect class="st0" height="298.7" id="XMLID_17_" width="512" x="0" y="106.7"/><path class="st1" d="M0,345.7h512v-59.6H0V345.7z M0,225.9h512v-59.6H0V225.9z"/><polygon class="st2" id="XMLID_12_" points="0,106.7 0,405.3 258.2,256.2  "/><polygon class="st3" id="XMLID_11_" points="86.2,206.2 70.8,253.4 94.4,261.1  "/><polygon class="st3" id="XMLID_10_" points="86.2,206.2 101.2,253.4 77.6,261.1  "/><polygon class="st3" id="XMLID_9_" points="133.4,240.9 83.8,240.9 83.8,265.4  "/><polygon class="st3" id="XMLID_8_" points="133.4,240.9 93,269.7 78.5,250  "/><polygon class="st3" id="XMLID_7_" points="38.5,240.9 79,269.7 93.5,250  "/><polygon class="st3" id="XMLID_6_" points="38.5,240.9 88.6,240.9 88.6,265.4  "/><polygon class="st3" id="XMLID_5_" points="115.1,296.2 99.7,249 76.1,256.7  "/><polygon class="st3" id="XMLID_4_" points="115.1,296.2 75.1,266.8 89.6,247.1  "/><polygon class="st3" id="XMLID_3_" points="56.9,296.2 96.8,266.8 82.4,247.1  "/><polygon class="st3" id="XMLID_2_" points="56.9,296.2 72.3,249 95.9,256.7  "/></g></svg>