<?xml version="1.0" encoding="utf-8"?>
<!-- Generator: Adobe Illustrator 14.0.0, SVG Export Plug-In . SVG Version: 6.00 Build 43363)  -->
<!DOCTYPE svg PUBLIC "-//W3C//DTD SVG 1.1//EN" "http://www.w3.org/Graphics/SVG/1.1/DTD/svg11.dtd">
<svg version="1.1" id="Camada_1" xmlns="http://www.w3.org/2000/svg" xmlns:xlink="http://www.w3.org/1999/xlink" x="0px" y="0px"
	 width="34.063px" height="7.625px" viewBox="0 0 34.063 7.625" enable-background="new 0 0 34.063 7.625" xml:space="preserve">
<g>
	<g>
		<rect x="18.515" y="0.662" fill="#FFFFFF" width="0.104" height="6.301"/>
		<g>
			<path fill="#FFFFFF" d="M19.915,3.074V1.007h0.589c0.178,0,0.32,0.044,0.425,0.131c0.104,0.088,0.157,0.201,0.157,0.342
				c0,0.118-0.031,0.22-0.096,0.306c-0.063,0.087-0.15,0.148-0.262,0.185v0.006c0.139,0.017,0.25,0.069,0.334,0.158
				s0.126,0.205,0.126,0.347c0,0.177-0.063,0.32-0.19,0.43s-0.287,0.164-0.48,0.164H19.915z M20.157,1.226v0.668h0.248
				c0.133,0,0.237-0.031,0.313-0.096c0.075-0.064,0.113-0.154,0.113-0.271c0-0.201-0.132-0.302-0.396-0.302H20.157z M20.157,2.111
				v0.744h0.329c0.142,0,0.253-0.034,0.331-0.102c0.079-0.066,0.117-0.159,0.117-0.276c0-0.244-0.167-0.366-0.499-0.366H20.157z"/>
			<path fill="#FFFFFF" d="M22.442,3.109c-0.293,0-0.527-0.097-0.704-0.29s-0.266-0.444-0.266-0.754
				c0-0.333,0.091-0.598,0.271-0.796c0.179-0.198,0.424-0.297,0.733-0.297c0.286,0,0.516,0.096,0.69,0.288
				c0.174,0.192,0.261,0.443,0.261,0.754c0,0.337-0.089,0.604-0.268,0.801C22.981,3.011,22.741,3.109,22.442,3.109z M22.459,1.191
				c-0.218,0-0.394,0.078-0.53,0.235c-0.135,0.156-0.202,0.362-0.202,0.616c0,0.255,0.065,0.461,0.197,0.615
				c0.133,0.155,0.305,0.233,0.518,0.233c0.227,0,0.406-0.074,0.536-0.223c0.13-0.147,0.196-0.355,0.196-0.621
				c0-0.273-0.063-0.483-0.19-0.633C22.858,1.266,22.682,1.191,22.459,1.191z"/>
			<path fill="#FFFFFF" d="M25.396,3.074h-0.268l-0.22-0.579h-0.876l-0.207,0.579h-0.269l0.793-2.067h0.25L25.396,3.074z
				 M24.828,2.277l-0.323-0.881c-0.011-0.029-0.021-0.075-0.032-0.139h-0.006c-0.009,0.059-0.021,0.104-0.033,0.139l-0.32,0.881
				H24.828z"/>
			<path fill="#FFFFFF" d="M25.604,2.991V2.705c0.032,0.029,0.072,0.055,0.117,0.078c0.046,0.023,0.094,0.042,0.145,0.059
				c0.051,0.016,0.101,0.027,0.151,0.036c0.052,0.009,0.099,0.014,0.143,0.014c0.148,0,0.26-0.027,0.333-0.083
				s0.11-0.135,0.11-0.238c0-0.056-0.013-0.104-0.037-0.146c-0.023-0.042-0.059-0.08-0.101-0.113
				c-0.044-0.034-0.095-0.067-0.154-0.099s-0.123-0.063-0.191-0.099c-0.071-0.037-0.139-0.074-0.201-0.111
				c-0.063-0.037-0.117-0.078-0.163-0.124c-0.047-0.045-0.082-0.097-0.109-0.153c-0.026-0.057-0.039-0.124-0.039-0.201
				c0-0.095,0.021-0.176,0.062-0.246c0.041-0.069,0.097-0.127,0.163-0.172c0.067-0.046,0.145-0.079,0.23-0.101
				c0.086-0.023,0.174-0.033,0.263-0.033c0.204,0,0.353,0.024,0.446,0.073v0.272c-0.123-0.084-0.28-0.127-0.471-0.127
				c-0.053,0-0.106,0.006-0.158,0.017C26.088,1.219,26.041,1.237,26,1.262c-0.041,0.025-0.074,0.058-0.101,0.097
				c-0.026,0.04-0.04,0.088-0.04,0.145c0,0.053,0.011,0.099,0.03,0.137s0.049,0.074,0.087,0.105s0.086,0.063,0.141,0.093
				c0.056,0.029,0.119,0.063,0.191,0.098c0.074,0.036,0.145,0.075,0.21,0.115c0.066,0.04,0.125,0.085,0.175,0.134
				s0.09,0.104,0.119,0.163s0.044,0.128,0.044,0.205c0,0.102-0.021,0.188-0.061,0.259c-0.039,0.07-0.093,0.128-0.161,0.172
				c-0.067,0.044-0.146,0.076-0.234,0.096c-0.088,0.02-0.181,0.03-0.279,0.03c-0.033,0-0.073-0.003-0.121-0.009
				c-0.049-0.004-0.098-0.013-0.147-0.022s-0.097-0.022-0.142-0.037C25.666,3.025,25.63,3.009,25.604,2.991z"/>
			<path fill="#FFFFFF" d="M20.157,5.836v0.781h-0.242V4.551h0.568c0.221,0,0.393,0.055,0.514,0.162
				c0.122,0.105,0.183,0.258,0.183,0.455c0,0.195-0.067,0.355-0.203,0.482c-0.135,0.123-0.316,0.186-0.547,0.186H20.157z
				 M20.157,4.77v0.848h0.254c0.168,0,0.295-0.037,0.383-0.113s0.132-0.186,0.132-0.324c0-0.273-0.162-0.41-0.484-0.41H20.157z"/>
			<path fill="#FFFFFF" d="M23.051,6.617h-0.288l-0.346-0.578c-0.031-0.055-0.063-0.1-0.093-0.139
				c-0.029-0.037-0.061-0.068-0.092-0.092c-0.03-0.025-0.064-0.043-0.101-0.055c-0.036-0.01-0.076-0.016-0.122-0.016h-0.198v0.879
				H21.57V4.551h0.616c0.091,0,0.175,0.012,0.251,0.033c0.076,0.023,0.143,0.059,0.198,0.104c0.057,0.045,0.101,0.104,0.133,0.172
				c0.031,0.068,0.047,0.15,0.047,0.242c0,0.072-0.011,0.139-0.031,0.197c-0.022,0.061-0.054,0.115-0.093,0.162
				c-0.04,0.047-0.088,0.086-0.145,0.121c-0.057,0.031-0.12,0.059-0.189,0.076v0.006c0.034,0.014,0.064,0.033,0.09,0.053
				c0.024,0.02,0.05,0.043,0.073,0.07c0.023,0.025,0.046,0.057,0.068,0.092c0.022,0.033,0.047,0.072,0.075,0.117L23.051,6.617z
				 M21.812,4.77v0.75h0.329c0.06,0,0.116-0.01,0.168-0.027c0.051-0.018,0.095-0.045,0.133-0.078
				c0.037-0.035,0.067-0.076,0.088-0.127c0.021-0.049,0.031-0.104,0.031-0.166c0-0.109-0.035-0.197-0.106-0.258
				c-0.071-0.063-0.176-0.094-0.311-0.094H21.812z"/>
			<path fill="#FFFFFF" d="M24.936,6.617h-0.268l-0.22-0.578h-0.877l-0.206,0.578h-0.269l0.792-2.066h0.251L24.936,6.617z
				 M24.369,5.82l-0.325-0.881c-0.01-0.029-0.02-0.074-0.031-0.137h-0.006c-0.009,0.057-0.021,0.104-0.033,0.137L23.653,5.82H24.369
				z M24.315,3.887l-0.378,0.473h-0.184l0.322-0.473H24.315z"/>
			<path fill="#FFFFFF" d="M26.25,4.77h-0.596v1.848h-0.243V4.77h-0.595V4.551h1.434V4.77z"/>
			<path fill="#FFFFFF" d="M26.818,6.617h-0.242V4.551h0.242V6.617z"/>
			<path fill="#FFFFFF" d="M28.768,6.531c-0.152,0.082-0.342,0.121-0.57,0.121c-0.294,0-0.53-0.094-0.706-0.283
				c-0.177-0.189-0.266-0.438-0.266-0.746c0-0.33,0.1-0.598,0.298-0.801c0.2-0.205,0.451-0.307,0.758-0.307
				c0.195,0,0.358,0.029,0.486,0.086v0.258c-0.147-0.084-0.311-0.125-0.489-0.125c-0.237,0-0.43,0.08-0.578,0.238
				c-0.147,0.158-0.221,0.371-0.221,0.637c0,0.252,0.069,0.453,0.207,0.602c0.137,0.15,0.318,0.225,0.542,0.225
				c0.209,0,0.388-0.047,0.539-0.139V6.531z"/>
			<path fill="#FFFFFF" d="M30.79,6.617h-0.269l-0.219-0.578h-0.877L29.22,6.617h-0.27l0.793-2.066h0.251L30.79,6.617z M30.224,5.82
				l-0.325-0.881c-0.011-0.029-0.021-0.074-0.031-0.137h-0.006c-0.009,0.057-0.021,0.104-0.033,0.137L29.507,5.82H30.224z"/>
			<path fill="#FFFFFF" d="M30.997,6.535V6.248c0.033,0.029,0.072,0.055,0.117,0.078c0.046,0.023,0.094,0.043,0.146,0.059
				c0.05,0.016,0.1,0.029,0.152,0.037c0.051,0.01,0.097,0.014,0.141,0.014c0.149,0,0.261-0.027,0.334-0.084
				c0.073-0.055,0.109-0.133,0.109-0.238c0-0.055-0.012-0.104-0.036-0.145c-0.024-0.043-0.059-0.08-0.102-0.113
				c-0.043-0.035-0.095-0.068-0.153-0.1c-0.06-0.029-0.122-0.064-0.191-0.098c-0.072-0.037-0.14-0.074-0.202-0.111
				s-0.117-0.078-0.163-0.123c-0.045-0.047-0.082-0.098-0.108-0.154S31,5.145,31,5.068c0-0.096,0.021-0.176,0.063-0.246
				s0.096-0.127,0.163-0.172c0.066-0.045,0.144-0.08,0.229-0.102s0.174-0.033,0.264-0.033c0.203,0,0.352,0.025,0.445,0.074v0.271
				c-0.121-0.084-0.278-0.127-0.47-0.127c-0.053,0-0.106,0.006-0.159,0.018c-0.052,0.01-0.101,0.029-0.141,0.055
				c-0.042,0.023-0.075,0.057-0.102,0.096c-0.025,0.039-0.038,0.088-0.038,0.145c0,0.053,0.01,0.098,0.028,0.137
				c0.02,0.037,0.05,0.074,0.088,0.105s0.085,0.063,0.14,0.092c0.057,0.029,0.12,0.063,0.191,0.098
				c0.074,0.037,0.145,0.076,0.211,0.115c0.065,0.041,0.125,0.086,0.175,0.135c0.049,0.049,0.089,0.104,0.119,0.164
				c0.029,0.059,0.044,0.127,0.044,0.203c0,0.102-0.021,0.189-0.061,0.26s-0.094,0.127-0.161,0.172s-0.146,0.076-0.234,0.096
				s-0.182,0.029-0.28,0.029c-0.031,0-0.072-0.002-0.12-0.008c-0.049-0.004-0.098-0.014-0.147-0.023S31.15,6.6,31.106,6.584
				C31.061,6.568,31.025,6.553,30.997,6.535z"/>
		</g>
	</g>
	<g>
		<g>
			<path fill="#FFFFFF" d="M13.109,6.602h-0.122l-0.026,0.097h-0.088l0.128-0.434h0.1l0.124,0.434h-0.093 M13.051,6.349
				L13.051,6.349l-0.047,0.18h0.087L13.051,6.349z"/>
			<path fill="#FFFFFF" d="M13.573,6.499c0-0.036-0.014-0.051-0.033-0.051c-0.026,0-0.036,0.021-0.036,0.045v0.205h-0.088V6.499
				c0-0.04-0.016-0.051-0.03-0.051c-0.029,0-0.039,0.029-0.039,0.069v0.181H13.26V6.442c0-0.031,0-0.052-0.002-0.067h0.08
				C13.339,6.39,13.34,6.407,13.34,6.43h0.001c0.013-0.037,0.036-0.061,0.081-0.061c0.042,0,0.063,0.021,0.075,0.055
				c0.013-0.031,0.033-0.055,0.08-0.055c0.063,0,0.084,0.053,0.084,0.117v0.212h-0.087"/>
			<path fill="#FFFFFF" d="M13.969,6.563h-0.17c0,0.038,0.022,0.073,0.072,0.073c0.03,0,0.06-0.014,0.081-0.026l0.002,0.075
				c-0.028,0.011-0.062,0.019-0.091,0.019c-0.102,0-0.146-0.069-0.146-0.169c0-0.086,0.045-0.166,0.128-0.166
				c0.026,0,0.125,0,0.125,0.17 M13.888,6.51c0-0.042-0.009-0.08-0.045-0.08c-0.045,0-0.045,0.063-0.045,0.08H13.888z"/>
			<path fill="#FFFFFF" d="M14.02,6.442c0-0.031-0.001-0.052-0.002-0.067h0.08c0,0.02,0.002,0.038,0.002,0.059h0.001
				c0.017-0.035,0.03-0.064,0.08-0.064h0.013v0.092c-0.009-0.002-0.017-0.004-0.029-0.004c-0.051,0-0.057,0.049-0.057,0.097v0.145
				H14.02"/>
			<path fill="#FFFFFF" d="M14.239,6.231h0.088v0.088h-0.088 M14.239,6.375h0.088v0.323h-0.088V6.375z"/>
			<path fill="#FFFFFF" d="M14.594,6.689c-0.025,0.009-0.051,0.015-0.079,0.015c-0.112,0-0.136-0.104-0.136-0.163
				c0-0.101,0.051-0.172,0.143-0.172c0.029,0,0.044,0.009,0.07,0.017l-0.004,0.073c-0.017-0.006-0.033-0.013-0.051-0.013
				c-0.067,0-0.067,0.082-0.067,0.095c0,0.067,0.038,0.09,0.071,0.09c0.019,0,0.035-0.008,0.051-0.015"/>
			<path fill="#FFFFFF" d="M14.656,6.391c0.023-0.009,0.062-0.021,0.093-0.021c0.102,0,0.125,0.048,0.125,0.121v0.117
				c0,0.047,0,0.069,0.002,0.091h-0.08l-0.002-0.044h-0.001c-0.004,0.021-0.038,0.05-0.08,0.05c-0.053,0-0.089-0.038-0.089-0.099
				c0-0.108,0.112-0.108,0.143-0.108h0.026c0-0.063-0.041-0.063-0.054-0.063c-0.022,0-0.046,0.006-0.08,0.028 M14.794,6.543
				c-0.035,0-0.09,0.002-0.09,0.057c0,0.042,0.031,0.042,0.038,0.042c0.008,0,0.052-0.002,0.052-0.08V6.543z"/>
			<path fill="#FFFFFF" d="M15.106,6.457c-0.023-0.011-0.045-0.019-0.071-0.019c-0.022,0-0.032,0.013-0.032,0.024
				c0,0.02,0.013,0.027,0.06,0.047c0.03,0.011,0.061,0.033,0.061,0.094c0,0.073-0.048,0.101-0.106,0.101
				c-0.025,0-0.064-0.004-0.095-0.017l0.002-0.075c0.021,0.015,0.048,0.022,0.072,0.022c0.041,0,0.043-0.017,0.043-0.029
				c0-0.015-0.022-0.022-0.06-0.039c-0.031-0.015-0.061-0.042-0.061-0.101c0-0.034,0.022-0.097,0.108-0.097
				c0.036,0,0.066,0.009,0.08,0.015"/>
			<line fill="#FFFFFF" x1="16.972" y1="6.087" x2="12.306" y2="6.087"/>
			<rect x="12.306" y="6.067" fill="#FFFFFF" width="4.666" height="0.042"/>
			<path fill="#FFFFFF" d="M11.695,4.849c0.042,0.047,0.116,0.076,0.16,0.126c-0.031-0.145-0.147-0.262-0.283-0.291
				C11.637,4.733,11.652,4.799,11.695,4.849 M10.052,5.213c0.094-0.196,0.234-0.156,0.294-0.343
				c-0.033,0.057-0.187,0.081-0.258,0.229c0.037-0.088,0.018-0.221,0.08-0.294C9.983,4.937,10.061,5.146,10.052,5.213 M10.222,5.685
				c0.017,0.077-0.033,0.188,0.046,0.293c-0.082-0.088-0.255-0.11-0.326-0.243c0.088,0.327,0.318,0.26,0.421,0.331
				C10.279,5.946,10.349,5.869,10.222,5.685 M10.196,5.89c-0.051-0.182,0.039-0.245-0.029-0.421
				c-0.007,0.099-0.076,0.146-0.029,0.327c-0.082-0.151-0.208-0.21-0.245-0.314C9.895,5.769,10.135,5.811,10.196,5.89 M10.564,6.197
				c-0.07-0.094-0.022-0.146-0.221-0.318c0.042,0.062-0.001,0.141,0.132,0.264c-0.131-0.075-0.312-0.043-0.398-0.144
				C10.226,6.275,10.49,6.162,10.564,6.197 M11.525,6.143c0.134-0.123,0.09-0.202,0.132-0.264c-0.198,0.172-0.15,0.225-0.221,0.318
				c0.075-0.035,0.337,0.078,0.487-0.198C11.836,6.1,11.656,6.067,11.525,6.143 M11.732,5.978c0.079-0.104,0.029-0.216,0.046-0.293
				c-0.127,0.185-0.057,0.262-0.143,0.381c0.104-0.071,0.334-0.004,0.422-0.331C11.987,5.867,11.814,5.89,11.732,5.978 M11.415,6.21
				c-0.078-0.021-0.158-0.029-0.217-0.031C11.124,6.177,11.057,6.189,11,6.212c-0.058-0.022-0.124-0.035-0.198-0.033
				c-0.06,0.002-0.14,0.011-0.217,0.031c-0.12,0.031-0.223,0.055-0.313,0.011c0.086,0.073,0.187,0.099,0.332,0.084
				c0.121-0.013,0.219-0.069,0.333-0.069c0.001,0,0.002,0,0.004,0c-0.121,0.059-0.264,0.141-0.264,0.141l0.055,0.008
				c0,0,0.134-0.111,0.267-0.141c0.133,0.029,0.115,0.141,0.115,0.141l0.055-0.008c0,0,0.008-0.082-0.112-0.141
				c0.001,0,0.002,0,0.004,0c0.115-0.002,0.212,0.057,0.333,0.069c0.146,0.015,0.246-0.011,0.333-0.084
				C11.637,6.265,11.534,6.241,11.415,6.21 M10.175,5.271c-0.05,0.089-0.126,0.111-0.118,0.298c-0.042-0.167-0.14-0.229-0.139-0.335
				c-0.069,0.278,0.115,0.312,0.162,0.429C10.073,5.494,10.184,5.461,10.175,5.271 M10.243,5.057
				c-0.017,0.022-0.029,0.033-0.075,0.068c-0.063,0.049-0.112,0.115-0.133,0.21c0.004-0.103-0.061-0.249-0.018-0.354
				c-0.168,0.229,0.01,0.364,0.016,0.448C10.077,5.27,10.178,5.268,10.243,5.057 M11.965,5.335c-0.021-0.095-0.071-0.161-0.133-0.21
				c-0.045-0.035-0.058-0.046-0.075-0.068c0.065,0.211,0.166,0.213,0.209,0.372c0.006-0.084,0.184-0.22,0.016-0.448
				C12.026,5.086,11.961,5.232,11.965,5.335 M12.108,5.481c-0.037,0.104-0.163,0.163-0.244,0.314
				c0.046-0.181-0.022-0.229-0.03-0.327c-0.068,0.176,0.022,0.239-0.029,0.421C11.865,5.811,12.105,5.769,12.108,5.481
				 M11.825,5.271c-0.009,0.189,0.102,0.223,0.095,0.392c0.047-0.117,0.23-0.15,0.162-0.429c0.001,0.106-0.098,0.168-0.139,0.335
				C11.951,5.383,11.875,5.36,11.825,5.271 M10.306,4.849c0.042-0.05,0.057-0.115,0.124-0.165c-0.137,0.029-0.253,0.146-0.284,0.291
				C10.189,4.925,10.263,4.896,10.306,4.849 M11.655,4.87c0.06,0.187,0.2,0.146,0.294,0.343c-0.009-0.066,0.069-0.276-0.115-0.408
				c0.062,0.073,0.043,0.206,0.08,0.294C11.842,4.951,11.688,4.927,11.655,4.87 M11.177,4.977c-0.035-0.015-0.072-0.024-0.111-0.029
				c0,0.007,0,0.017,0,0.023c0.036,0.006,0.07,0.015,0.103,0.027C11.173,4.991,11.176,4.985,11.177,4.977 M11.149,4.744l0.008-0.006
				l-0.014-0.007h-0.038l-0.01,0.007l-0.022-0.002V4.74c0.014,0.002,0.028,0.004,0.039,0.006l0.018-0.002H11.149z M11.076,5.523
				c0-0.007-0.008-0.013-0.021-0.019h-0.002c0,0.006,0,0.029-0.001,0.041C11.068,5.54,11.076,5.533,11.076,5.523 M10.641,5.064
				c0.001-0.006,0.002-0.01,0.003-0.013c-0.004,0-0.01,0-0.015,0L10.641,5.064z M11.001,6.126c0.423,0,0.767-0.33,0.767-0.736
				c0-0.38-0.302-0.695-0.689-0.733c0,0.002,0,0.004,0,0.006c-0.002,0.005-0.003,0.013-0.004,0.018
				c0.173,0.017,0.328,0.09,0.446,0.201l-0.084,0.081l0.003-0.015l-0.011-0.004l-0.015-0.002l0.003-0.009l-0.011-0.033l-0.021-0.021
				l-0.066-0.033l-0.005,0.006l-0.012,0.003c0.022,0.031,0.035,0.07,0.035,0.106c0,0.006,0,0.009,0,0.015l0.032,0.038l-0.015,0.004
				l0.01,0.015l-0.029,0.029l-0.011-0.021c-0.006,0.015-0.014,0.029-0.022,0.042c0.002,0.002,0.004,0.003,0.006,0.005L11.218,5.17
				c-0.005-0.003-0.011-0.009-0.017-0.013c-0.009,0.004-0.017,0.008-0.026,0.01c0.002,0.003,0.004,0.003,0.007,0.007l-0.005,0.004
				l-0.01,0.006l-0.004,0.011l-0.006-0.008l-0.019,0.006l0.005,0.009l0.013-0.003h0.008l0.001-0.004l0.006-0.004l0.002-0.004
				l0.012-0.003h0.009c0.001,0.001,0.003,0.003,0.005,0.005l-0.035,0.033l-0.002-0.004l-0.037,0.008l-0.008,0.007h-0.008l0.023-0.02
				l-0.008-0.004l-0.021,0.027l0.006-0.002l0,0.011l0.008,0.002l0.002,0.011l-0.013-0.001l-0.013,0.001l-0.032-0.015
				c0,0-0.002,0.083-0.003,0.125c0.077,0.025,0.157,0.061,0.157,0.155c0,0.04-0.018,0.073-0.055,0.099h0c0,0-0.001,0-0.002,0l0,0
				c-0.001,0-0.002,0.002-0.002,0.002c-0.031,0.021-0.071,0.031-0.105,0.04L11.049,5.73c0.055,0.025,0.122,0.064,0.115,0.174
				c0,0.027-0.012,0.035-0.021,0.036c-0.032,0.008-0.065,0.014-0.099,0.015c0,0.01,0,0.017,0,0.024
				c0.148-0.01,0.281-0.069,0.382-0.161l0.089,0.084c-0.133,0.125-0.314,0.199-0.513,0.199c-0.198,0-0.378-0.074-0.512-0.195
				l0.089-0.086c0.1,0.09,0.231,0.149,0.377,0.159c0-0.008,0-0.015,0-0.024c-0.138-0.011-0.264-0.065-0.358-0.153L10.62,5.78
				l0.033,0.003l0.017-0.018l0.045,0.001l0.007-0.015L10.72,5.745c0.066,0.048,0.146,0.08,0.232,0.088c0-0.009,0-0.017,0-0.023
				c-0.095-0.01-0.182-0.05-0.249-0.11l0.089-0.084c0.021,0.019,0.045,0.033,0.072,0.046c0.002-0.008,0.005-0.015,0.009-0.022
				c-0.022-0.011-0.044-0.025-0.063-0.042l0.09-0.084c0.014,0.009,0.03,0.019,0.047,0.023c0-0.007,0-0.017,0-0.025
				c-0.011-0.004-0.021-0.009-0.03-0.017l0.025-0.023c-0.009-0.002-0.018-0.006-0.026-0.008l-0.017,0.015
				c-0.009-0.009-0.016-0.018-0.021-0.029c-0.015-0.007-0.03-0.015-0.044-0.023C10.778,5.39,10.75,5.343,10.75,5.28
				c0-0.048,0.014-0.082,0.036-0.111l-0.088-0.085c0.064-0.059,0.146-0.101,0.238-0.113c0-0.007,0-0.017-0.001-0.023
				c-0.098,0.013-0.186,0.057-0.255,0.121l-0.015-0.015c-0.003,0.005-0.008,0.013-0.012,0.021l0.009,0.009
				c-0.076,0.079-0.124,0.184-0.125,0.299H10.41c0.002-0.15,0.063-0.284,0.163-0.385l0.04,0.039c0.002,0,0.004,0,0.005,0
				c0.007,0,0.015-0.004,0.023-0.008l-0.051-0.048c0.027-0.025,0.056-0.047,0.087-0.067c0.003-0.009,0.005-0.015,0.006-0.019
				c0.001-0.001,0.01-0.013,0.02-0.023c-0.048,0.023-0.092,0.057-0.131,0.092L10.484,4.88c0.117-0.11,0.271-0.184,0.442-0.2
				l-0.001-0.005c-0.001-0.006-0.002-0.012-0.003-0.019c-0.385,0.038-0.687,0.354-0.687,0.733
				C10.234,5.796,10.578,6.126,11.001,6.126 M11.166,5.617L11.166,5.617L11.166,5.617C11.166,5.617,11.166,5.617,11.166,5.617
				 M11.537,4.897c0.125,0.127,0.203,0.297,0.206,0.485h-0.126c-0.001-0.094-0.025-0.182-0.066-0.26l0.001-0.002l0.009,0.006
				l0.001-0.008L11.54,5.081l-0.027-0.035l-0.031-0.025c-0.011-0.013-0.022-0.025-0.034-0.037L11.537,4.897z M11.377,5.054
				l0.03,0.001l0.007,0.008l-0.004,0.013l0.042,0.025l0.008-0.002l0.054,0.059l0.022-0.007c0.034,0.071,0.054,0.15,0.055,0.232
				h-0.126c0-0.033-0.005-0.063-0.012-0.094l0.006-0.007l0.008-0.039l-0.006-0.04l-0.015-0.046l-0.035-0.049l0.009,0.004
				l0.004-0.004L11.396,5.09l-0.001,0.006l0.028,0.038l0.016,0.033l0.011,0.031l0.003,0.02l0.006,0.037h-0.011
				c0,0-0.012-0.022-0.016-0.031l0.006-0.008l-0.011-0.015V5.187L11.42,5.178h-0.01c-0.003-0.006-0.007-0.011-0.011-0.019
				l0.007,0.004l0.002-0.002l-0.003-0.007l0.008-0.004l-0.004-0.006L11.397,5.15l0.004-0.019l-0.007-0.005l-0.006,0.015
				c-0.015-0.019-0.029-0.039-0.046-0.056L11.377,5.054z M11.352,5.337l0.022-0.013l0.023-0.002l0.005-0.011l0.013-0.008
				l0.004-0.011l0.004-0.019c0.002,0.008,0.004,0.013,0.005,0.021L11.417,5.33l0,0.011l0.018-0.022
				c0.004,0.021,0.006,0.042,0.006,0.064h-0.11l-0.002-0.009l0.013-0.012l0.003-0.005l0.005-0.004l0.015-0.002l0.001-0.006
				L11.352,5.337z M11.2,5.255l0.012-0.004l0-0.002L11.2,5.242l0.004-0.024l0.014-0.013c0.008,0.009,0.016,0.021,0.023,0.029
				l-0.005,0.015L11.223,5.24l-0.009,0.003l0.005,0.008h0.004l-0.005,0.013l-0.004-0.006L11.2,5.255z M11.249,5.655l-0.028-0.007
				l-0.008,0.003l-0.016-0.011l-0.014-0.006c0.007-0.005,0.014-0.011,0.021-0.016l0.022,0.016l0.017,0.008l0.008,0.009L11.249,5.655
				z M11.235,5.188l0.089-0.086c0.021,0.022,0.04,0.046,0.056,0.071l-0.012,0.004l0.001,0.019l0.033,0.02
				c0.008,0.019,0.015,0.037,0.021,0.056l-0.006,0.007l-0.012,0.008l-0.003,0.018l-0.008,0.004l-0.007,0.009L11.38,5.313h-0.013
				l0.007-0.01L11.38,5.28l0.008-0.006l-0.024-0.021l-0.018,0.005l-0.004,0.017L11.33,5.287l-0.011-0.011l-0.004-0.009l0.007-0.004
				l0.003,0.006l0.005-0.002l-0.002-0.011h-0.008l0,0.005h-0.005L11.287,5.23l-0.009-0.007l0.003-0.004l0.008-0.002l-0.008-0.004
				c0,0-0.01,0.002-0.011,0.002l0.005,0.008h-0.014C11.255,5.211,11.245,5.199,11.235,5.188 M11.281,5.645l-0.012-0.011l0.009-0.014
				l0.012-0.021l-0.004-0.007l0.008-0.017l-0.001-0.015l-0.005-0.017L11.276,5.54l-0.004,0.009l-0.007-0.001
				c0.01-0.015,0.02-0.028,0.027-0.044l0.011-0.006l0.006-0.008l0.003,0.004l0.008-0.009l-0.006-0.008l0.005-0.002l0.01,0.004h0.02
				l0.012-0.005l0.031-0.008l-0.006-0.009l-0.002-0.013l0.017,0.007l0.006-0.004l-0.003-0.013l-0.02,0.008l-0.022-0.004
				l-0.017-0.033h0.096c-0.004,0.106-0.049,0.203-0.121,0.274l-0.013-0.013l0.005-0.017l-0.01-0.036L11.281,5.645z M11.298,5.881
				l0.012-0.024l-0.004-0.011l0.018-0.015V5.822l-0.015-0.01l0.012-0.023l0.019-0.022l-0.019-0.02h-0.014l-0.009-0.013
				c0.008-0.006,0.015-0.013,0.022-0.019L11.408,5.8C11.374,5.831,11.338,5.858,11.298,5.881 M11.408,5.767l0.01-0.011L11.409,5.71
				l-0.007-0.002l0.004-0.009l-0.021-0.006L11.381,5.71L11.38,5.73l-0.005,0.006l-0.038-0.039c0.076-0.075,0.124-0.178,0.129-0.291
				h0.125c-0.004,0.146-0.066,0.278-0.166,0.377L11.408,5.767z M11.443,5.8c0.104-0.103,0.169-0.241,0.173-0.394h0.126
				c-0.004,0.187-0.084,0.355-0.21,0.479L11.443,5.8z M10.685,5.683c-0.009-0.009-0.018-0.019-0.026-0.027l0.003-0.031l-0.013-0.029
				l-0.002-0.046l-0.015-0.027l0.003-0.018l-0.018-0.033l-0.016-0.008l0.006-0.018L10.6,5.432l0.007-0.016h0.017l0.006-0.01h0.029
				l0.004,0.008l-0.005,0.029l-0.004,0.005l0.011,0.022l-0.007,0.004l-0.005-0.006l-0.002,0.002l0.005,0.015l0.008,0.017L10.669,5.5
				l0.002-0.013l-0.004-0.006l0-0.011L10.666,5.45l0.006-0.034l-0.006-0.01h0.021c0.004,0.073,0.037,0.142,0.086,0.192L10.685,5.683
				z M10.602,5.446L10.59,5.465h-0.021l-0.001-0.002c-0.003-0.018-0.006-0.038-0.006-0.057h0.038L10.59,5.436L10.602,5.446z
				 M10.643,5.364l0.002-0.023l0.015-0.01l0.027,0.004l0.003,0.006c-0.002,0.013-0.003,0.027-0.003,0.042h-0.03L10.643,5.364z
				 M10.771,5.454l0.007-0.004l0.016,0.013l-0.007,0.006l0.019,0.013l-0.001-0.013l0.01-0.017l0.01,0.011l0.011,0.015l-0.019,0.004
				l0.008,0.017l0.013-0.008l-0.001-0.005l0.01-0.006l0.006-0.027c0.007,0.017,0.017,0.031,0.029,0.044L10.792,5.58
				c-0.043-0.042-0.071-0.099-0.079-0.159l0.019,0.019h0.017L10.771,5.454z M10.68,5.101l0.089,0.086
				c-0.019,0.021-0.035,0.042-0.047,0.066l-0.006-0.002l-0.012,0.004h-0.004l-0.014,0.013l0.017-0.004l0.015-0.004
				c-0.001,0.002-0.002,0.004-0.002,0.006l-0.013,0.009h-0.006l-0.02,0.013h-0.019l-0.027,0.048l0.005,0.011L10.619,5.36
				l-0.002,0.022h-0.056C10.563,5.272,10.608,5.174,10.68,5.101 M10.565,5.747l0.028,0.017l0.006,0.003l-0.021,0.019
				c-0.01-0.009-0.019-0.019-0.028-0.029L10.565,5.747z M10.536,5.406c0,0.011,0.002,0.024,0.003,0.035l-0.016,0.004L10.521,5.46
				l-0.032,0.038l0.001,0.055l-0.033,0.011h-0.018c-0.016-0.049-0.026-0.103-0.028-0.157H10.536L10.536,5.406z M10.412,5.563h-0.008
				l-0.007-0.01l-0.035-0.002l0.011,0.015l-0.033-0.007l0.009-0.008l-0.008-0.007l-0.023,0.009l-0.009,0.017l0.003,0.033
				l0.027,0.063l0.013,0.019l0.008,0.004L10.34,5.649l-0.005-0.018l0.005-0.006l-0.003-0.009h0.013l0.019,0.029l0.005,0.002
				l-0.001-0.021l0.008,0.004l0.002,0.011l0.02,0.006l0.008-0.006l0.003,0.002l0,0.015l0.009,0.009l0.01,0.004l0.023,0.036
				l0.014,0.004l0.004-0.017c0.025,0.039,0.054,0.075,0.087,0.108l-0.089,0.084c-0.127-0.124-0.208-0.295-0.212-0.481h0.126
				C10.387,5.46,10.396,5.513,10.412,5.563 M10.466,4.896l0.089,0.086c-0.104,0.104-0.168,0.246-0.17,0.401h-0.126
				C10.261,5.194,10.34,5.022,10.466,4.896 M11.379,4.852l-0.008-0.011l-0.017-0.009l-0.013,0.009l0.016,0.01l0.019,0.013
				L11.379,4.852z M11.302,5.194l0.001,0.009l0.021-0.007l0.007-0.013l-0.015-0.019l0.008-0.011l0.02,0.013l0.004-0.002
				l-0.004-0.004l-0.005-0.009l0.009-0.004L11.34,5.138l-0.019,0.009l-0.007,0.011L11.31,5.169l0.008,0.013l-0.003,0.007
				L11.302,5.194z M10.391,5.736l0.001-0.006l-0.012-0.023l-0.013-0.004L10.391,5.736z M10.906,5.282
				c0,0.02,0.013,0.034,0.037,0.046c0,0,0-0.004,0-0.01l-0.015-0.013l0.008-0.015l0.006-0.002c0-0.023-0.001-0.049-0.001-0.053
				h-0.001C10.918,5.247,10.906,5.262,10.906,5.282"/>
			<path fill="#FFFFFF" d="M11.047,5.806c0.04,0.02,0.076,0.046,0.091,0.097c0.007-0.084-0.042-0.119-0.09-0.145
				C11.048,5.758,11.047,5.806,11.047,5.806"/>
			<path fill="#FFFFFF" d="M11.309,4.96c0-0.075-0.057-0.159-0.197-0.188c-0.01-0.004-0.026-0.004-0.042-0.006
				c0,0.012-0.001,0.037-0.001,0.037c0,0.009,0,0.04-0.001,0.046c0.013,0.002,0.022,0.003,0.027,0.003
				c0.082,0.019,0.111,0.064,0.111,0.108c0,0.071-0.064,0.099-0.143,0.119c-0.009,0.004-0.017,0.005-0.026,0.007
				c-0.024,0.006-0.048,0.012-0.073,0.017c-0.009,0.004-0.018,0.006-0.026,0.008c-0.087,0.025-0.162,0.065-0.162,0.17
				c0,0.103,0.085,0.141,0.168,0.165c0-0.029-0.001-0.059-0.001-0.088c-0.037-0.017-0.063-0.039-0.063-0.075
				c0-0.037,0.024-0.059,0.06-0.073c0.008-0.004,0.017-0.008,0.026-0.011c0.021-0.006,0.044-0.012,0.068-0.019
				c0.009-0.002,0.018-0.004,0.027-0.006C11.178,5.146,11.309,5.112,11.309,4.96"/>
			<path fill="#FFFFFF" d="M10.887,5.683c0,0.042,0.032,0.064,0.064,0.081c0-0.006-0.001-0.07-0.001-0.071
				c0-0.014,0.013-0.021,0.024-0.026c0.015-0.007,0.03-0.011,0.05-0.018c0.009-0.004,0.017-0.006,0.026-0.01
				c0.063-0.019,0.138-0.042,0.138-0.115c0-0.075-0.063-0.106-0.133-0.128c0,0.023-0.001,0.059-0.002,0.082
				c0.029,0.012,0.049,0.024,0.049,0.046c0,0.025-0.03,0.042-0.051,0.05c-0.009,0.004-0.022,0.007-0.026,0.009
				c-0.017,0.004-0.035,0.011-0.052,0.017c-0.009,0.004-0.018,0.006-0.026,0.011C10.918,5.624,10.887,5.646,10.887,5.683"/>
			<path fill="#FFFFFF" d="M10.93,4.777c-0.042,0.013-0.067,0.027-0.077,0.03c-0.027,0.01-0.066,0.012-0.106,0.052
				c-0.007,0.007-0.025,0.029-0.037,0.046s-0.013,0.044-0.021,0.059c-0.013,0.02-0.01,0.032-0.01,0.032h0
				c0,0.004-0.003,0.015-0.015,0.028c-0.013,0.013-0.031,0.021-0.052,0.018c0.019,0.01,0.043-0.003,0.043-0.003
				s-0.004,0.013-0.009,0.034c0.021-0.044,0.039-0.061,0.045-0.065c0.009,0.002,0.027,0.002,0.061-0.017
				c0.038-0.022,0.096-0.057,0.112-0.077c0.017-0.023,0.042-0.04,0.067-0.049C10.932,4.832,10.931,4.803,10.93,4.777 M10.769,4.916
				l-0.02,0.006l0.024-0.039l0.027,0.002L10.769,4.916z"/>
			<path fill="#FFFFFF" d="M11.01,5.678c-0.004,0.001-0.013,0.005-0.02,0.007s-0.014,0.006-0.014,0.008
				c0,0.001,0.006,0.321,0.006,0.329c0,0.065,0.035,0.065,0.035,0c0-0.006,0.007-0.348,0.007-0.348S11.015,5.676,11.01,5.678"/>
			<path fill="#FFFFFF" d="M10.973,5.573c0.011-0.004,0.022-0.008,0.032-0.011c0.008-0.002,0.015-0.004,0.021-0.006
				c0-0.021,0.006-0.3,0.008-0.35c-0.026,0.006-0.049,0.011-0.067,0.019C10.967,5.264,10.973,5.542,10.973,5.573"/>
			<path fill="#FFFFFF" d="M11.003,4.504c-0.099,0-0.057,0.14-0.049,0.186c0,0.002,0.008,0.316,0.01,0.39
				c0.015-0.006,0.03-0.01,0.044-0.011c0.01-0.004,0.021-0.006,0.03-0.008c0.002-0.069,0.009-0.369,0.009-0.371
				C11.052,4.64,11.103,4.504,11.003,4.504"/>
			<path fill="#FFFFFF" d="M12.443,4.677c0.094,0,0.179,0.078,0.179,0.26c0,0.181-0.085,0.26-0.179,0.26
				c-0.093,0-0.179-0.079-0.179-0.26C12.264,4.755,12.35,4.677,12.443,4.677 M12.443,5.125c0.053,0,0.094-0.05,0.094-0.188
				c0-0.14-0.042-0.188-0.094-0.188c-0.052,0-0.094,0.049-0.094,0.188C12.349,5.075,12.391,5.125,12.443,5.125"/>
			<path fill="#FFFFFF" d="M12.678,4.878c0-0.024,0-0.046-0.003-0.063h0.073c0,0.023,0.002,0.046,0.002,0.069h0.001
				c0.009-0.029,0.035-0.075,0.084-0.075c0.005,0,0.009,0.002,0.013,0.002v0.084c-0.007-0.001-0.014-0.003-0.022-0.003
				c-0.033,0-0.069,0.023-0.069,0.093v0.203h-0.08"/>
			<path fill="#FFFFFF" d="M12.891,5.247c0.019,0.011,0.057,0.031,0.099,0.031c0.075,0,0.087-0.059,0.087-0.117V5.127h-0.001
				c-0.013,0.027-0.036,0.062-0.088,0.062c-0.046,0-0.116-0.034-0.116-0.185c0-0.103,0.033-0.194,0.12-0.194
				c0.048,0,0.071,0.031,0.087,0.064h0.003c0-0.021,0.002-0.038,0.002-0.059h0.072c-0.001,0.021-0.002,0.04-0.002,0.061V5.15
				c0,0.115-0.032,0.199-0.154,0.199c-0.053,0-0.095-0.015-0.114-0.023 M13.007,5.123c0.05,0,0.07-0.04,0.07-0.125
				c0-0.078-0.026-0.12-0.064-0.12c-0.042,0.002-0.058,0.046-0.058,0.12C12.954,5.086,12.979,5.123,13.007,5.123"/>
			<path fill="#FFFFFF" d="M13.234,4.837c0.023-0.011,0.055-0.027,0.106-0.027c0.103,0,0.126,0.057,0.126,0.15v0.163
				c0,0.027,0.003,0.051,0.005,0.065h-0.072c-0.004-0.015-0.005-0.033-0.005-0.051h-0.001c-0.02,0.031-0.044,0.057-0.093,0.057
				c-0.052,0-0.099-0.04-0.099-0.108c0-0.103,0.074-0.128,0.175-0.128h0.017V4.945c0-0.036-0.017-0.071-0.063-0.071
				c-0.04,0-0.076,0.021-0.091,0.036 M13.392,5.006h-0.007c-0.068,0-0.109,0.017-0.109,0.071c0,0.033,0.02,0.057,0.051,0.057
				c0.048,0,0.065-0.04,0.065-0.106V5.006L13.392,5.006z"/>
			<path fill="#FFFFFF" d="M13.531,4.878c0-0.024,0-0.046-0.002-0.063h0.075c0,0.021,0.002,0.038,0.002,0.059h0.002h0
				c0.012-0.023,0.034-0.064,0.088-0.064c0.075,0,0.098,0.064,0.098,0.14v0.239h-0.08V4.966c0-0.057-0.013-0.081-0.046-0.081
				c-0.042,0-0.057,0.039-0.057,0.086v0.218h-0.08"/>
			<path fill="#FFFFFF" d="M13.86,4.658h0.083v0.088H13.86 M13.861,4.815h0.08v0.373h-0.08V4.815z"/>
			<polyline fill="#FFFFFF" points="13.999,5.112 14.141,4.885 14.004,4.885 14.004,4.815 14.221,4.815 14.221,4.893 14.082,5.121 
				14.226,5.121 14.226,5.188 13.999,5.188 			"/>
			<path fill="#FFFFFF" d="M14.293,4.837c0.022-0.011,0.054-0.027,0.105-0.027c0.104,0,0.127,0.057,0.127,0.15v0.163
				c0,0.027,0.002,0.051,0.005,0.065h-0.072c-0.004-0.015-0.005-0.033-0.005-0.051h-0.001c-0.021,0.031-0.045,0.057-0.093,0.057
				c-0.052,0-0.1-0.04-0.1-0.108c0-0.103,0.074-0.128,0.175-0.128h0.016V4.945c0-0.036-0.016-0.071-0.062-0.071
				c-0.04,0-0.076,0.021-0.091,0.036 M14.45,5.006h-0.007c-0.069,0-0.109,0.017-0.109,0.071c0,0.033,0.02,0.057,0.051,0.057
				c0.047,0,0.065-0.04,0.065-0.106V5.006L14.45,5.006z"/>
			<path fill="#FFFFFF" d="M14.8,5.18c-0.019,0.007-0.046,0.015-0.079,0.015h-0.004l-0.012,0.04
				c0.007-0.004,0.015-0.006,0.025-0.006c0.035,0,0.056,0.024,0.056,0.054c0,0.046-0.04,0.067-0.072,0.067
				c-0.027,0-0.055-0.007-0.068-0.015l0.011-0.029c0.013,0.006,0.025,0.011,0.045,0.011c0.021,0,0.033-0.013,0.033-0.029
				c0-0.018-0.012-0.027-0.029-0.027c-0.012,0-0.02,0.002-0.025,0.006L14.67,5.253l0.02-0.061c-0.087-0.017-0.125-0.095-0.125-0.19
				c0-0.106,0.049-0.192,0.161-0.192c0.025,0,0.055,0.01,0.07,0.017l-0.004,0.069c-0.014-0.007-0.035-0.018-0.056-0.018
				c-0.061,0-0.087,0.046-0.087,0.126c0,0.069,0.03,0.123,0.091,0.123c0.019,0,0.046-0.01,0.057-0.019"/>
			<path fill="#FFFFFF" d="M14.871,4.837c0.022-0.011,0.054-0.027,0.105-0.027c0.104,0,0.127,0.057,0.127,0.15v0.163
				c0,0.027,0.002,0.051,0.004,0.065h-0.072c-0.003-0.015-0.004-0.033-0.004-0.051H15.03c-0.02,0.031-0.045,0.057-0.093,0.057
				c-0.052,0-0.1-0.04-0.1-0.108c0-0.103,0.074-0.128,0.175-0.128h0.016V4.945c0-0.036-0.016-0.071-0.062-0.071
				c-0.041,0-0.076,0.021-0.091,0.036 M14.884,4.768c0-0.025,0.012-0.084,0.061-0.086c0.029,0,0.054,0.025,0.074,0.025
				c0.013,0,0.019-0.015,0.019-0.029h0.04c0,0.022-0.012,0.086-0.06,0.086c-0.025,0-0.049-0.025-0.072-0.025
				c-0.016,0-0.024,0.013-0.024,0.029H14.884z M15.029,5.006h-0.007c-0.069,0-0.109,0.017-0.109,0.071
				c0,0.033,0.02,0.057,0.051,0.057c0.047,0,0.065-0.04,0.065-0.106V5.006L15.029,5.006z"/>
			<path fill="#FFFFFF" d="M15.306,4.81c0.068,0,0.146,0.041,0.146,0.192c0,0.157-0.078,0.192-0.146,0.192s-0.147-0.035-0.147-0.192
				C15.159,4.851,15.238,4.81,15.306,4.81 M15.306,5.13c0.051,0,0.063-0.065,0.063-0.128s-0.012-0.128-0.063-0.128
				c-0.052,0-0.064,0.065-0.064,0.128S15.254,5.13,15.306,5.13"/>
			<polyline fill="#FFFFFF" points="12.658,5.463 12.657,5.463 12.544,5.884 12.485,5.884 12.377,5.463 12.376,5.463 12.376,5.884 
				12.302,5.884 12.302,5.379 12.425,5.379 12.517,5.756 12.519,5.756 12.614,5.379 12.733,5.379 12.733,5.884 12.658,5.884 			"/>
			<path fill="#FFFFFF" d="M13.06,5.822c0,0.023,0.001,0.045,0.003,0.062h-0.075c0-0.018-0.002-0.038-0.002-0.057l-0.002-0.002
				l0.001,0.002c-0.016,0.027-0.036,0.063-0.089,0.063c-0.076,0-0.098-0.063-0.098-0.138V5.511h0.08v0.226
				c0,0.057,0.014,0.08,0.048,0.08c0.042,0,0.054-0.044,0.054-0.092V5.511h0.08"/>
			<path fill="#FFFFFF" d="M13.129,5.573c0-0.024,0-0.046-0.002-0.063h0.075c0.001,0.021,0.002,0.038,0.002,0.059h0.002h0
				c0.012-0.023,0.034-0.064,0.088-0.064c0.076,0,0.098,0.064,0.098,0.14v0.239h-0.08V5.661c0-0.057-0.013-0.081-0.046-0.081
				c-0.042,0-0.057,0.039-0.057,0.086v0.218h-0.08"/>
			<path fill="#FFFFFF" d="M13.731,5.341V5.82c0,0.027,0.001,0.051,0.002,0.063h-0.075c-0.001-0.011-0.003-0.032-0.003-0.059h-0.002
				c-0.013,0.033-0.037,0.064-0.088,0.064c-0.083,0-0.117-0.088-0.117-0.192c0-0.12,0.043-0.192,0.115-0.192
				c0.047,0,0.074,0.031,0.085,0.061h0.001V5.341 M13.588,5.824c0.047,0,0.063-0.058,0.063-0.127c0-0.073-0.018-0.126-0.062-0.126
				c-0.044,0-0.06,0.049-0.06,0.122C13.529,5.78,13.541,5.824,13.588,5.824"/>
			<path fill="#FFFFFF" d="M13.795,5.354h0.083v0.088h-0.083 M13.796,5.511h0.08v0.373h-0.08V5.511z"/>
			<path fill="#FFFFFF" d="M13.966,5.533c0.022-0.012,0.054-0.028,0.105-0.028c0.103,0,0.126,0.058,0.126,0.15v0.163
				c0,0.027,0.003,0.051,0.005,0.065h-0.072c-0.004-0.015-0.005-0.032-0.005-0.051h-0.001c-0.02,0.031-0.045,0.057-0.093,0.057
				c-0.052,0-0.099-0.04-0.099-0.109c0-0.102,0.074-0.127,0.175-0.127h0.016V5.641c0-0.038-0.016-0.071-0.063-0.071
				c-0.04,0-0.075,0.022-0.091,0.036 M14.124,5.701h-0.007c-0.068,0-0.109,0.017-0.109,0.071c0,0.033,0.02,0.057,0.051,0.057
				c0.048,0,0.065-0.04,0.065-0.106V5.701L14.124,5.701z"/>
			<rect x="14.274" y="5.341" fill="#FFFFFF" width="0.08" height="0.543"/>
			<path fill="#FFFFFF" d="M14.881,5.341V5.82c0,0.027,0,0.051,0.002,0.063h-0.075c-0.001-0.011-0.002-0.032-0.002-0.059h-0.002
				c-0.013,0.033-0.037,0.064-0.088,0.064c-0.083,0-0.117-0.088-0.117-0.192c0-0.12,0.043-0.192,0.115-0.192
				c0.048,0,0.074,0.031,0.086,0.061H14.8V5.341 M14.737,5.824c0.047,0,0.063-0.058,0.063-0.127c0-0.073-0.018-0.126-0.062-0.126
				c-0.044,0-0.06,0.049-0.06,0.122C14.678,5.78,14.691,5.824,14.737,5.824"/>
			<path fill="#FFFFFF" d="M14.964,5.533c0.022-0.012,0.054-0.028,0.105-0.028c0.103,0,0.127,0.058,0.127,0.15v0.163
				c0,0.027,0.002,0.051,0.004,0.065h-0.072c-0.003-0.015-0.004-0.032-0.004-0.051h-0.001c-0.02,0.031-0.045,0.057-0.093,0.057
				c-0.051,0-0.099-0.04-0.099-0.109c0-0.102,0.073-0.127,0.175-0.127h0.016V5.641c0-0.038-0.016-0.071-0.062-0.071
				c-0.04,0-0.075,0.022-0.091,0.036 M15.121,5.701h-0.007c-0.068,0-0.109,0.017-0.109,0.071c0,0.033,0.02,0.057,0.051,0.057
				c0.048,0,0.065-0.04,0.065-0.106V5.701L15.121,5.701z"/>
			<path fill="#FFFFFF" d="M15.431,5.787c0.016,0.011,0.051,0.031,0.095,0.031c0.036,0,0.069-0.023,0.069-0.073
				c0-0.037-0.019-0.053-0.059-0.077l-0.042-0.025c-0.044-0.029-0.073-0.067-0.073-0.134c0-0.09,0.066-0.137,0.142-0.137
				c0.048,0,0.082,0.015,0.094,0.018l-0.003,0.077c-0.02-0.007-0.047-0.021-0.084-0.021c-0.042,0-0.063,0.025-0.063,0.06
				c0,0.037,0.022,0.052,0.048,0.068l0.048,0.031c0.053,0.032,0.078,0.063,0.078,0.135c0,0.103-0.065,0.152-0.151,0.152
				c-0.045,0-0.08-0.008-0.103-0.022"/>
			<path fill="#FFFFFF" d="M15.755,5.533c0.023-0.012,0.055-0.028,0.105-0.028c0.103,0,0.127,0.058,0.127,0.15v0.163
				c0,0.027,0.003,0.051,0.004,0.065h-0.072c-0.003-0.015-0.004-0.032-0.004-0.051h-0.001c-0.02,0.031-0.045,0.057-0.093,0.057
				c-0.052,0-0.099-0.04-0.099-0.109c0-0.102,0.074-0.127,0.175-0.127h0.016V5.641c0-0.038-0.016-0.071-0.062-0.071
				c-0.04,0-0.076,0.022-0.091,0.036 M15.912,5.701h-0.007c-0.068,0-0.109,0.017-0.109,0.071c0,0.033,0.021,0.057,0.051,0.057
				c0.048,0,0.065-0.04,0.065-0.106L15.912,5.701L15.912,5.701z"/>
			<path fill="#FFFFFF" d="M16.305,5.822c0,0.023,0.001,0.045,0.003,0.062h-0.075c-0.001-0.018-0.002-0.038-0.002-0.057
				l-0.002-0.002l0.001,0.002C16.214,5.854,16.193,5.89,16.14,5.89c-0.075,0-0.098-0.063-0.098-0.138V5.511h0.08v0.226
				c0,0.057,0.014,0.08,0.048,0.08c0.042,0,0.055-0.044,0.055-0.092V5.511h0.08 M16.177,5.366h0.075l-0.065,0.104h-0.051
				L16.177,5.366z"/>
			<path fill="#FFFFFF" d="M16.647,5.341V5.82c0,0.027,0,0.051,0.003,0.063h-0.075c-0.001-0.011-0.003-0.032-0.003-0.059h-0.001
				c-0.013,0.033-0.037,0.064-0.088,0.064c-0.083,0-0.117-0.088-0.117-0.192c0-0.12,0.043-0.192,0.115-0.192
				c0.048,0,0.075,0.031,0.086,0.061h0.001V5.341 M16.504,5.824c0.047,0,0.063-0.058,0.063-0.127c0-0.073-0.018-0.126-0.062-0.126
				c-0.045,0-0.061,0.049-0.061,0.122C16.445,5.78,16.457,5.824,16.504,5.824"/>
			<path fill="#FFFFFF" d="M16.955,5.866c-0.017,0.007-0.052,0.023-0.1,0.023c-0.107,0-0.153-0.086-0.153-0.187
				c0-0.111,0.052-0.198,0.137-0.198c0.072,0,0.133,0.048,0.133,0.2v0.017H16.78c0,0.063,0.023,0.103,0.084,0.103
				c0.049,0,0.072-0.017,0.087-0.029 M16.895,5.666c0-0.065-0.02-0.101-0.056-0.101c-0.042,0-0.06,0.052-0.06,0.101H16.895z"/>
			<polygon fill="#FFFFFF" points="9.877,6.503 9.961,6.503 9.961,6.53 9.906,6.53 9.906,6.581 9.958,6.581 9.958,6.61 9.906,6.61 
				9.906,6.667 9.964,6.667 9.964,6.695 9.877,6.695 			"/>
			<path fill="#FFFFFF" d="M9.984,6.658c0.005,0.004,0.018,0.011,0.034,0.011c0.013,0,0.024-0.007,0.024-0.027
				c0-0.015-0.007-0.02-0.021-0.029l-0.015-0.009C9.99,6.593,9.98,6.578,9.98,6.552c0-0.034,0.023-0.051,0.05-0.051
				c0.017,0,0.029,0.005,0.034,0.005l-0.001,0.031c-0.007-0.003-0.017-0.009-0.03-0.009c-0.015,0-0.022,0.009-0.022,0.021
				c0,0.015,0.008,0.021,0.017,0.026l0.017,0.013c0.019,0.013,0.028,0.023,0.028,0.051c0,0.039-0.023,0.059-0.054,0.059
				c-0.016,0-0.028-0.003-0.036-0.009L9.984,6.658z"/>
			<path fill="#FFFFFF" d="M10.197,6.691c-0.006,0.004-0.021,0.007-0.035,0.007c-0.049,0-0.074-0.044-0.074-0.099
				c0-0.057,0.025-0.099,0.073-0.099c0.016,0,0.029,0.005,0.036,0.007l-0.002,0.031c-0.006-0.004-0.015-0.009-0.03-0.009
				c-0.025,0-0.045,0.019-0.045,0.069c0,0.05,0.021,0.069,0.045,0.069c0.014,0,0.023-0.005,0.03-0.011L10.197,6.691z"/>
			<path fill="#FFFFFF" d="M10.215,6.503h0.049c0.028,0,0.048,0.017,0.048,0.051c0,0.024-0.013,0.042-0.031,0.044V6.6
				c0.006,0,0.012,0.004,0.017,0.022l0.021,0.073h-0.031l-0.016-0.063c-0.003-0.015-0.011-0.021-0.022-0.021h-0.007v0.083h-0.029
				V6.503z M10.256,6.587c0.016,0,0.026-0.009,0.026-0.029c0-0.022-0.01-0.027-0.026-0.027h-0.012v0.057H10.256z"/>
			<rect x="10.338" y="6.503" fill="#FFFFFF" width="0.029" height="0.192"/>
			<polygon fill="#FFFFFF" points="10.42,6.532 10.384,6.532 10.384,6.503 10.484,6.503 10.484,6.532 10.449,6.532 10.449,6.695 
				10.42,6.695 			"/>
			<path fill="#FFFFFF" d="M10.548,6.501c0.033,0,0.063,0.029,0.063,0.099c0,0.067-0.03,0.099-0.063,0.099S10.484,6.667,10.484,6.6
				C10.484,6.53,10.514,6.501,10.548,6.501 M10.548,6.671c0.019,0,0.034-0.02,0.034-0.071c0-0.053-0.015-0.073-0.034-0.073
				S10.514,6.547,10.514,6.6C10.514,6.651,10.529,6.671,10.548,6.671"/>
			<path fill="#FFFFFF" d="M10.632,6.503h0.05c0.028,0,0.047,0.017,0.047,0.051c0,0.024-0.013,0.042-0.031,0.044V6.6
				c0.006,0,0.013,0.004,0.018,0.022l0.021,0.073h-0.031L10.69,6.633c-0.004-0.015-0.012-0.021-0.022-0.021h-0.006v0.083h-0.029
				V6.503z M10.673,6.587c0.015,0,0.026-0.009,0.026-0.029c0-0.022-0.009-0.027-0.026-0.027h-0.012v0.057H10.673z"/>
			<rect x="10.755" y="6.503" fill="#FFFFFF" width="0.029" height="0.192"/>
			<path fill="#FFFFFF" d="M10.869,6.501c0.033,0,0.063,0.029,0.063,0.099c0,0.067-0.031,0.099-0.063,0.099
				c-0.034,0-0.063-0.031-0.063-0.099C10.806,6.53,10.836,6.501,10.869,6.501 M10.869,6.671c0.018,0,0.033-0.02,0.033-0.071
				c0-0.053-0.015-0.073-0.033-0.073c-0.019,0-0.034,0.021-0.034,0.073C10.836,6.651,10.85,6.671,10.869,6.671"/>
			<path fill="#FFFFFF" d="M11.007,6.503h0.049c0.029,0,0.048,0.017,0.048,0.051c0,0.024-0.013,0.042-0.031,0.044V6.6
				c0.006,0,0.012,0.004,0.017,0.022l0.021,0.073h-0.031l-0.016-0.063c-0.004-0.015-0.012-0.021-0.022-0.021h-0.007v0.083h-0.029
				V6.503z M11.048,6.587c0.016,0,0.027-0.009,0.027-0.029c0-0.022-0.01-0.027-0.027-0.027h-0.012v0.057H11.048z"/>
			<polygon fill="#FFFFFF" points="11.13,6.503 11.214,6.503 11.214,6.53 11.159,6.53 11.159,6.581 11.211,6.581 11.211,6.61 
				11.159,6.61 11.159,6.667 11.216,6.667 11.216,6.695 11.13,6.695 			"/>
			<path fill="#FFFFFF" d="M11.302,6.587h0.052v0.101c-0.008,0.006-0.022,0.011-0.043,0.011c-0.051,0-0.079-0.042-0.079-0.099
				s0.027-0.099,0.079-0.099c0.019,0,0.033,0.004,0.039,0.007l-0.002,0.031c-0.009-0.005-0.022-0.011-0.037-0.011
				c-0.031,0-0.048,0.031-0.048,0.071c0,0.042,0.016,0.069,0.046,0.069c0.007,0,0.014-0.002,0.017-0.003V6.614h-0.024V6.587
				L11.302,6.587z"/>
			<rect x="11.381" y="6.503" fill="#FFFFFF" width="0.029" height="0.192"/>
			<path fill="#FFFFFF" d="M11.496,6.501c0.033,0,0.063,0.029,0.063,0.099c0,0.067-0.03,0.099-0.063,0.099S11.432,6.667,11.432,6.6
				C11.432,6.53,11.463,6.501,11.496,6.501 M11.496,6.671c0.019,0,0.033-0.02,0.033-0.071c0-0.053-0.015-0.073-0.033-0.073
				S11.462,6.547,11.462,6.6C11.462,6.651,11.477,6.671,11.496,6.671"/>
			<polygon fill="#FFFFFF" points="11.581,6.503 11.615,6.503 11.669,6.652 11.669,6.652 11.669,6.503 11.696,6.503 11.696,6.695 
				11.661,6.695 11.608,6.545 11.607,6.545 11.607,6.695 11.581,6.695 			"/>
			<path fill="#FFFFFF" d="M11.804,6.649h-0.055l-0.012,0.046h-0.029l0.054-0.192h0.032l0.051,0.192h-0.03L11.804,6.649z
				 M11.798,6.622l-0.02-0.09h0l-0.022,0.09H11.798z"/>
			<polygon fill="#FFFFFF" points="11.857,6.503 11.886,6.503 11.886,6.667 11.939,6.667 11.939,6.695 11.857,6.695 			"/>
			<path fill="#FFFFFF" d="M12.007,6.503h0.045c0.033,0,0.05,0.021,0.05,0.059c0,0.036-0.018,0.059-0.05,0.059h-0.017v0.075h-0.029
				V6.503z M12.048,6.593c0.018,0,0.026-0.012,0.026-0.031c0-0.021-0.008-0.031-0.026-0.031h-0.011v0.063H12.048z"/>
			<path fill="#FFFFFF" d="M12.184,6.649h-0.055l-0.011,0.046h-0.029l0.054-0.192h0.031l0.052,0.192h-0.03L12.184,6.649z
				 M12.178,6.622l-0.021-0.09h0l-0.022,0.09H12.178z"/>
			<path fill="#FFFFFF" d="M12.237,6.503h0.05c0.028,0,0.047,0.017,0.047,0.051c0,0.024-0.013,0.042-0.031,0.044V6.6
				c0.006,0,0.013,0.004,0.018,0.022l0.021,0.073H12.31l-0.015-0.063c-0.004-0.015-0.012-0.021-0.022-0.021h-0.006v0.083h-0.029
				V6.503L12.237,6.503z M12.278,6.587c0.016,0,0.026-0.009,0.026-0.029c0-0.022-0.009-0.027-0.026-0.027h-0.012v0.057H12.278z"/>
			<path fill="#FFFFFF" d="M12.439,6.649h-0.055l-0.011,0.046h-0.029l0.053-0.192h0.032l0.052,0.192h-0.03L12.439,6.649z
				 M12.433,6.622l-0.021-0.09h0l-0.022,0.09H12.433z"/>
			<path fill="#FFFFFF" d="M12.615,6.649H12.56l-0.011,0.046h-0.029l0.053-0.192h0.032l0.051,0.192h-0.03L12.615,6.649z
				 M12.608,6.622l-0.02-0.09h0l-0.022,0.09H12.608z"/>
			<path fill="#FFFFFF" d="M12.667,6.658c0.006,0.004,0.018,0.011,0.034,0.011c0.013,0,0.024-0.007,0.024-0.027
				c0-0.015-0.006-0.02-0.021-0.029l-0.015-0.009c-0.016-0.011-0.026-0.025-0.026-0.052c0-0.034,0.024-0.051,0.05-0.051
				c0.017,0,0.029,0.005,0.033,0.005l-0.001,0.031c-0.007-0.003-0.017-0.009-0.03-0.009c-0.015,0-0.022,0.009-0.022,0.021
				c0,0.015,0.008,0.021,0.017,0.026l0.018,0.013c0.019,0.013,0.027,0.023,0.027,0.051c0,0.039-0.023,0.059-0.053,0.059
				c-0.016,0-0.029-0.003-0.037-0.009L12.667,6.658z"/>
			<polyline fill="#FFFFFF" points="13.789,6.342 13.838,6.225 13.911,6.225 13.838,6.342 			"/>
			<polyline fill="#FFFFFF" points="10.536,6.488 10.56,6.43 10.596,6.43 10.56,6.488 			"/>
			<path fill="#FFFFFF" d="M5.048,4.602c0.112,0,0.216,0.09,0.216,0.296c0,0.209-0.104,0.299-0.216,0.299
				c-0.113,0-0.217-0.09-0.217-0.299C4.831,4.691,4.935,4.602,5.048,4.602 M5.048,5.115c0.063,0,0.113-0.059,0.113-0.218
				c0-0.157-0.051-0.216-0.113-0.216c-0.063,0-0.114,0.059-0.114,0.216C4.934,5.057,4.985,5.115,5.048,5.115"/>
			<path fill="#FFFFFF" d="M5.334,4.832c0-0.027-0.001-0.052-0.002-0.071h0.087c0,0.025,0.002,0.053,0.002,0.078h0.002
				c0.011-0.032,0.042-0.084,0.102-0.084c0.006,0,0.011,0.002,0.017,0.002v0.097C5.533,4.851,5.524,4.849,5.514,4.849
				c-0.04,0-0.083,0.025-0.083,0.105v0.232H5.334"/>
			<path fill="#FFFFFF" d="M5.598,5.255c0.022,0.013,0.067,0.036,0.118,0.036c0.09,0,0.105-0.067,0.105-0.136v-0.04H5.82
				C5.804,5.148,5.778,5.187,5.715,5.187c-0.056,0-0.14-0.038-0.14-0.21c0-0.119,0.04-0.222,0.144-0.222
				c0.059,0,0.085,0.035,0.106,0.073h0.003c0-0.023,0.002-0.046,0.003-0.067h0.087C5.917,4.784,5.915,4.807,5.915,4.828v0.314
				c0,0.134-0.039,0.229-0.185,0.229c-0.064,0-0.114-0.019-0.137-0.027 M5.738,5.112c0.06,0,0.084-0.046,0.084-0.144
				c0-0.089-0.032-0.137-0.078-0.137c-0.051,0.002-0.07,0.051-0.07,0.137C5.674,5.069,5.704,5.112,5.738,5.112"/>
			<path fill="#FFFFFF" d="M6.01,4.786c0.027-0.013,0.065-0.031,0.127-0.031c0.124,0,0.153,0.064,0.153,0.17v0.188
				c0,0.03,0.003,0.058,0.005,0.074H6.209C6.204,5.17,6.203,5.15,6.203,5.13H6.202C6.178,5.165,6.147,5.194,6.09,5.194
				c-0.062,0-0.12-0.046-0.12-0.125c0-0.117,0.088-0.146,0.21-0.146H6.2V4.909c0-0.043-0.02-0.081-0.075-0.081
				c-0.048,0-0.091,0.023-0.11,0.04 M6.2,4.979H6.192c-0.083,0-0.131,0.018-0.131,0.08c0,0.04,0.024,0.066,0.062,0.066
				c0.058,0,0.079-0.046,0.079-0.123V4.979z"/>
			<path fill="#FFFFFF" d="M6.368,4.832c0-0.027-0.001-0.052-0.003-0.071h0.09c0.001,0.021,0.003,0.044,0.003,0.065h0.002H6.46
				c0.014-0.025,0.042-0.071,0.107-0.071c0.091,0,0.118,0.071,0.118,0.157v0.274H6.588V4.933c0-0.066-0.015-0.094-0.055-0.094
				c-0.051,0-0.068,0.046-0.068,0.101v0.247H6.368"/>
			<path fill="#FFFFFF" d="M6.768,4.579h0.099V4.68H6.768 M6.769,4.761h0.096v0.426H6.769V4.761z"/>
			<polyline fill="#FFFFFF" points="6.928,5.099 7.099,4.839 6.934,4.839 6.934,4.761 7.196,4.761 7.196,4.849 7.028,5.11 
				7.201,5.11 7.201,5.187 6.928,5.187 			"/>
			<path fill="#FFFFFF" d="M7.274,4.786C7.302,4.773,7.34,4.755,7.401,4.755c0.124,0,0.153,0.064,0.153,0.17v0.188
				c0,0.03,0.003,0.058,0.006,0.074H7.473C7.468,5.17,7.467,5.15,7.467,5.13H7.466C7.441,5.165,7.411,5.194,7.354,5.194
				c-0.062,0-0.12-0.046-0.12-0.125c0-0.117,0.088-0.146,0.21-0.146h0.02V4.909c0-0.043-0.02-0.081-0.075-0.081
				c-0.048,0-0.09,0.023-0.109,0.04 M7.464,4.979H7.455c-0.083,0-0.131,0.018-0.131,0.08c0,0.04,0.024,0.066,0.062,0.066
				c0.058,0,0.079-0.046,0.079-0.123V4.979z"/>
			<path fill="#FFFFFF" d="M7.904,5.176C7.881,5.185,7.848,5.194,7.809,5.194H7.804L7.79,5.238c0.008-0.002,0.018-0.004,0.03-0.004
				c0.043,0,0.067,0.025,0.067,0.061c0,0.053-0.048,0.077-0.086,0.077c-0.033,0-0.066-0.01-0.082-0.017l0.012-0.033
				c0.016,0.006,0.032,0.011,0.054,0.011c0.026,0,0.041-0.015,0.041-0.034c0-0.019-0.015-0.029-0.036-0.029
				c-0.014,0-0.023,0.002-0.031,0.005L7.748,5.26L7.771,5.19c-0.106-0.019-0.15-0.107-0.15-0.216c0-0.123,0.059-0.22,0.194-0.22
				c0.03,0,0.066,0.009,0.083,0.017L7.893,4.854C7.876,4.845,7.852,4.832,7.825,4.832c-0.073,0-0.105,0.053-0.105,0.145
				c0,0.078,0.036,0.139,0.109,0.139c0.023,0,0.056-0.011,0.068-0.02"/>
			<path fill="#FFFFFF" d="M7.97,4.786c0.027-0.013,0.065-0.031,0.127-0.031c0.125,0,0.153,0.064,0.153,0.17v0.188
				c0,0.03,0.002,0.058,0.005,0.074H8.169C8.164,5.17,8.163,5.15,8.163,5.13H8.162C8.137,5.165,8.107,5.194,8.05,5.194
				c-0.062,0-0.119-0.046-0.119-0.125c0-0.117,0.088-0.146,0.21-0.146h0.02V4.909c0-0.043-0.02-0.081-0.075-0.081
				c-0.048,0-0.09,0.023-0.109,0.04 M7.985,4.705c0-0.028,0.015-0.097,0.073-0.097c0.036,0,0.066,0.027,0.089,0.027
				c0.016,0,0.023-0.017,0.023-0.032h0.048c0,0.023-0.015,0.097-0.072,0.097c-0.03,0-0.059-0.027-0.087-0.027
				c-0.02,0-0.029,0.015-0.029,0.032H7.985z M8.16,4.979H8.152c-0.082,0-0.131,0.018-0.131,0.08c0,0.04,0.024,0.066,0.062,0.066
				c0.058,0,0.079-0.046,0.079-0.123V4.979z"/>
			<path fill="#FFFFFF" d="M8.493,4.755c0.082,0,0.176,0.046,0.176,0.22c0,0.178-0.094,0.22-0.176,0.22
				c-0.082,0-0.176-0.042-0.176-0.22C8.317,4.801,8.412,4.755,8.493,4.755 M8.493,5.121c0.063,0,0.077-0.075,0.077-0.146
				S8.556,4.826,8.493,4.826c-0.062,0-0.077,0.077-0.077,0.148S8.431,5.121,8.493,5.121"/>
			<path fill="#FFFFFF" d="M4.849,5.337h0.155c0.112,0,0.17,0.065,0.17,0.174c0,0.109-0.059,0.178-0.17,0.178H4.948v0.225H4.849
				 M4.986,5.607c0.063,0,0.089-0.032,0.089-0.097c0-0.063-0.027-0.094-0.089-0.094H4.948v0.19H4.986L4.986,5.607z"/>
			<path fill="#FFFFFF" d="M5.208,5.513C5.235,5.5,5.273,5.481,5.335,5.481c0.124,0,0.153,0.064,0.153,0.17v0.187
				c0,0.031,0.003,0.059,0.005,0.075H5.406C5.402,5.896,5.401,5.877,5.401,5.856H5.399C5.375,5.892,5.345,5.921,5.287,5.921
				c-0.063,0-0.12-0.046-0.12-0.125c0-0.117,0.089-0.145,0.211-0.145h0.02V5.635c0-0.042-0.02-0.08-0.075-0.08
				c-0.049,0-0.091,0.023-0.11,0.04 M5.398,5.705H5.389c-0.082,0-0.131,0.018-0.131,0.08c0,0.04,0.024,0.066,0.061,0.066
				c0.058,0,0.079-0.046,0.079-0.121V5.705z"/>
			<path fill="#FFFFFF" d="M5.565,5.559c0-0.027,0-0.052-0.003-0.071h0.09c0.001,0.021,0.003,0.044,0.003,0.065h0.002h0
				c0.014-0.025,0.041-0.071,0.106-0.071c0.091,0,0.118,0.071,0.118,0.157v0.274H5.785V5.659c0-0.066-0.015-0.094-0.055-0.094
				c-0.05,0-0.068,0.046-0.068,0.101v0.247H5.565"/>
			<rect x="5.946" y="5.637" fill="#FFFFFF" width="0.18" height="0.085"/>
			<path fill="#FFFFFF" d="M6.476,5.774H6.29L6.251,5.913H6.152l0.182-0.576h0.109l0.175,0.576H6.514 M6.455,5.693L6.386,5.423
				H6.385L6.311,5.693H6.455z"/>
			<path fill="#FFFFFF" d="M6.651,5.557c0-0.029-0.002-0.053-0.003-0.069h0.097c0,0.023,0.003,0.046,0.003,0.067h0.001
				C6.763,5.521,6.795,5.481,6.85,5.481c0.067,0,0.089,0.044,0.101,0.067C6.97,5.52,6.999,5.481,7.058,5.481
				c0.087,0,0.115,0.066,0.115,0.168v0.264H7.077V5.645c0-0.053-0.016-0.079-0.052-0.079c-0.042,0-0.065,0.042-0.065,0.09v0.258
				H6.864V5.645c0-0.053-0.016-0.079-0.051-0.079c-0.043,0-0.065,0.042-0.065,0.09v0.258H6.651"/>
			<path fill="#FFFFFF" d="M7.54,5.894C7.52,5.902,7.478,5.921,7.42,5.921c-0.129,0-0.185-0.099-0.185-0.214
				c0-0.127,0.063-0.226,0.165-0.226c0.086,0,0.16,0.053,0.16,0.227v0.021H7.329c0,0.073,0.027,0.117,0.102,0.117
				c0.059,0,0.087-0.019,0.105-0.033 M7.467,5.664c0-0.074-0.023-0.113-0.067-0.113c-0.051,0-0.071,0.057-0.071,0.113H7.467z"/>
			<path fill="#FFFFFF" d="M7.627,5.559c0-0.027-0.001-0.052-0.003-0.071H7.71C7.711,5.513,7.714,5.54,7.714,5.565h0.001
				c0.012-0.032,0.042-0.084,0.102-0.084c0.006,0,0.011,0.002,0.017,0.002V5.58C7.824,5.577,7.816,5.575,7.806,5.575
				c-0.04,0-0.083,0.025-0.083,0.105v0.232H7.627"/>
			<path fill="#FFFFFF" d="M7.893,5.306h0.099v0.101H7.893 M7.895,5.487H7.99v0.426H7.895V5.487z"/>
			<path fill="#FFFFFF" d="M8.347,5.904C8.324,5.913,8.291,5.921,8.252,5.921c-0.132,0-0.188-0.099-0.188-0.22
				s0.059-0.22,0.194-0.22c0.03,0,0.066,0.009,0.084,0.017L8.337,5.58C8.319,5.571,8.295,5.559,8.269,5.559
				c-0.073,0-0.105,0.053-0.105,0.145c0,0.078,0.036,0.141,0.109,0.141c0.023,0,0.056-0.013,0.069-0.021"/>
			<path fill="#FFFFFF" d="M8.414,5.513C8.441,5.5,8.479,5.481,8.541,5.481c0.124,0,0.153,0.064,0.153,0.17v0.187
				c0,0.031,0.003,0.059,0.005,0.075H8.613C8.608,5.896,8.607,5.877,8.607,5.856H8.606C8.581,5.892,8.551,5.921,8.493,5.921
				c-0.062,0-0.12-0.046-0.12-0.125c0-0.117,0.088-0.145,0.211-0.145h0.019V5.635c0-0.042-0.019-0.08-0.075-0.08
				c-0.048,0-0.091,0.023-0.109,0.04 M8.604,5.705H8.595c-0.083,0-0.132,0.018-0.132,0.08c0,0.04,0.024,0.066,0.062,0.066
				c0.057,0,0.078-0.046,0.078-0.121V5.705z"/>
			<path fill="#FFFFFF" d="M8.772,5.559c0-0.027-0.001-0.052-0.003-0.071h0.091c0,0.021,0.002,0.044,0.002,0.065h0.003H8.864
				C8.877,5.527,8.905,5.481,8.97,5.481c0.091,0,0.118,0.071,0.118,0.157v0.274H8.991V5.659c0-0.066-0.015-0.094-0.055-0.094
				c-0.05,0-0.068,0.046-0.068,0.101v0.247H8.772"/>
			<path fill="#FFFFFF" d="M9.183,5.513C9.21,5.5,9.248,5.481,9.309,5.481c0.125,0,0.153,0.064,0.153,0.17v0.187
				c0,0.031,0.003,0.059,0.005,0.075H9.381C9.376,5.896,9.376,5.877,9.376,5.856H9.374C9.35,5.892,9.32,5.921,9.262,5.921
				c-0.062,0-0.12-0.046-0.12-0.125c0-0.117,0.089-0.145,0.211-0.145h0.019V5.635c0-0.042-0.019-0.08-0.075-0.08
				c-0.048,0-0.091,0.023-0.11,0.04 M9.372,5.705H9.364c-0.082,0-0.131,0.018-0.131,0.08c0,0.04,0.024,0.066,0.062,0.066
				c0.058,0,0.079-0.046,0.079-0.121V5.705z"/>
			<path fill="#FFFFFF" d="M5.168,6.02v0.549c0,0.029,0.001,0.057,0.003,0.073H5.081C5.079,6.629,5.078,6.604,5.078,6.574H5.075
				C5.06,6.61,5.031,6.647,4.969,6.647c-0.1,0-0.141-0.101-0.141-0.22c0-0.14,0.052-0.22,0.139-0.22
				c0.057,0,0.089,0.035,0.104,0.067h0.001V6.02 M4.996,6.572c0.057,0,0.076-0.066,0.076-0.146c0-0.082-0.022-0.143-0.074-0.143
				c-0.054,0-0.072,0.055-0.072,0.141C4.925,6.522,4.94,6.572,4.996,6.572"/>
			<path fill="#FFFFFF" d="M5.265,6.239C5.292,6.227,5.33,6.208,5.391,6.208c0.125,0,0.153,0.064,0.153,0.172v0.185
				c0,0.031,0.003,0.061,0.006,0.077H5.463C5.458,6.623,5.457,6.604,5.457,6.583H5.456C5.432,6.618,5.401,6.647,5.344,6.647
				c-0.063,0-0.12-0.046-0.12-0.125c0-0.117,0.089-0.145,0.21-0.145h0.02V6.361c0-0.042-0.02-0.08-0.075-0.08
				c-0.048,0-0.091,0.023-0.11,0.04 M5.454,6.432H5.446c-0.083,0-0.131,0.018-0.131,0.08c0,0.04,0.024,0.066,0.062,0.066
				c0.058,0,0.079-0.046,0.079-0.121V6.432z"/>
			<path fill="#FFFFFF" d="M5.819,6.528c0.02,0.015,0.063,0.036,0.116,0.036c0.043,0,0.082-0.025,0.082-0.084
				c0-0.04-0.023-0.059-0.071-0.088l-0.05-0.029C5.842,6.332,5.807,6.287,5.807,6.212c0-0.104,0.08-0.157,0.171-0.157
				c0.058,0,0.098,0.016,0.113,0.02l-0.004,0.09C6.063,6.153,6.031,6.139,5.985,6.139c-0.05,0-0.075,0.029-0.075,0.067
				c0,0.044,0.027,0.061,0.057,0.079l0.058,0.034c0.064,0.039,0.094,0.075,0.094,0.156c0,0.117-0.078,0.174-0.182,0.174
				c-0.054,0-0.097-0.008-0.124-0.026"/>
			<path fill="#FFFFFF" d="M6.209,6.239c0.027-0.013,0.065-0.031,0.126-0.031c0.125,0,0.153,0.064,0.153,0.172v0.185
				c0,0.031,0.003,0.061,0.005,0.077H6.407C6.402,6.623,6.401,6.604,6.401,6.583H6.4C6.376,6.618,6.345,6.647,6.288,6.647
				c-0.062,0-0.12-0.046-0.12-0.125c0-0.117,0.089-0.145,0.21-0.145h0.02V6.361c0-0.042-0.02-0.08-0.075-0.08
				c-0.048,0-0.091,0.023-0.109,0.04 M6.399,6.432H6.39c-0.083,0-0.131,0.018-0.131,0.08c0,0.04,0.024,0.066,0.061,0.066
				c0.058,0,0.079-0.046,0.079-0.121V6.432z"/>
			<path fill="#FFFFFF" d="M6.883,6.57c0,0.027,0.001,0.052,0.003,0.071h-0.09C6.795,6.62,6.792,6.598,6.792,6.576L6.79,6.574
				l0,0.002C6.772,6.607,6.747,6.647,6.684,6.647c-0.091,0-0.118-0.071-0.118-0.157V6.214h0.096V6.47
				c0,0.065,0.017,0.094,0.058,0.094c0.051,0,0.066-0.05,0.066-0.104V6.214h0.097 M6.729,6.047h0.09L6.74,6.168H6.679L6.729,6.047z"
				/>
			<path fill="#FFFFFF" d="M7.286,6.02v0.549c0,0.029,0.001,0.057,0.003,0.073h-0.09C7.198,6.629,7.197,6.604,7.197,6.574H7.194
				C7.178,6.61,7.15,6.647,7.088,6.647c-0.1,0-0.141-0.101-0.141-0.22c0-0.14,0.052-0.22,0.138-0.22
				c0.058,0,0.089,0.035,0.104,0.067H7.19V6.02 M7.114,6.572c0.057,0,0.076-0.066,0.076-0.146c0-0.082-0.021-0.143-0.075-0.143
				c-0.054,0-0.072,0.055-0.072,0.141C7.043,6.522,7.058,6.572,7.114,6.572"/>
			<path fill="#FFFFFF" d="M7.657,6.62c-0.02,0.009-0.062,0.027-0.119,0.027c-0.129,0-0.185-0.099-0.185-0.214
				c0-0.127,0.063-0.226,0.165-0.226c0.086,0,0.16,0.053,0.16,0.227v0.021H7.446c0,0.073,0.028,0.117,0.102,0.117
				c0.059,0,0.087-0.019,0.105-0.033 M7.584,6.391c0-0.074-0.023-0.113-0.067-0.113c-0.05,0-0.072,0.057-0.072,0.113H7.584z"/>
			<path fill="#FFFFFF" d="M3.456,6.775c-0.647,0-1.174-0.518-1.174-1.155c0-0.635,0.526-1.152,1.174-1.152S4.63,4.985,4.63,5.62
				C4.63,6.258,4.103,6.775,3.456,6.775 M3.456,4.521c-0.618,0-1.121,0.494-1.121,1.1c0,0.608,0.503,1.103,1.121,1.103
				S4.576,6.229,4.576,5.62C4.576,5.015,4.073,4.521,3.456,4.521"/>
			<path fill="#FFFFFF" d="M3.456,6.457c-0.482,0-0.875-0.375-0.875-0.837c0-0.461,0.392-0.836,0.875-0.836S4.33,5.159,4.33,5.62
				C4.33,6.082,3.938,6.457,3.456,6.457 M3.456,4.843c-0.449,0-0.814,0.35-0.814,0.777c0,0.431,0.366,0.778,0.814,0.778
				S4.27,6.051,4.27,5.62C4.27,5.192,3.905,4.843,3.456,4.843"/>
			<polyline fill="#FFFFFF" points="2.529,5.22 2.544,5.276 2.6,5.276 2.559,5.308 2.574,5.357 2.526,5.318 2.479,5.36 2.498,5.308 
				2.449,5.276 2.506,5.276 			"/>
			<path fill="#FFFFFF" d="M2.58,5.366L2.526,5.322l-0.045,0.04L2.476,5.36L2.494,5.31L2.439,5.272l0.064,0.002l0.025-0.063
				l0.017,0.062h0.063L2.563,5.31 M2.46,5.28l0.042,0.025L2.486,5.35l0.04-0.034l0.043,0.032L2.555,5.306l0.036-0.027H2.542
				l-0.014-0.05L2.508,5.28H2.46z"/>
			<polyline fill="#FFFFFF" points="4.319,6.02 4.335,6.076 4.39,6.076 4.35,6.107 4.365,6.158 4.317,6.118 4.27,6.16 4.288,6.107 
				4.24,6.076 4.296,6.078 			"/>
			<path fill="#FFFFFF" d="M4.371,6.166L4.317,6.122L4.272,6.164L4.266,6.16l0.019-0.051L4.23,6.074h0.064L4.32,6.011l0.017,0.063
				h0.062L4.353,6.109 M4.25,6.08l0.042,0.027L4.277,6.151l0.04-0.037l0.043,0.035L4.346,6.107L4.382,6.08h-0.05L4.319,6.028
				l-0.02,0.054L4.25,6.08z"/>
			<polyline fill="#FFFFFF" points="2.588,6.007 2.604,6.063 2.66,6.063 2.619,6.097 2.634,6.146 2.586,6.105 2.538,6.147 
				2.558,6.097 2.509,6.063 2.566,6.065 			"/>
			<path fill="#FFFFFF" d="M2.64,6.153L2.586,6.109L2.541,6.151L2.536,6.147l0.018-0.051L2.499,6.062h0.064l0.025-0.063l0.018,0.063
				h0.062L2.623,6.097 M2.52,6.067l0.042,0.027L2.545,6.139l0.041-0.037l0.043,0.035L2.616,6.095l0.035-0.027h-0.05l-0.014-0.05
				l-0.02,0.052L2.52,6.067z"/>
			<polyline fill="#FFFFFF" points="4.388,5.18 4.409,5.236 4.461,5.236 4.419,5.268 4.435,5.316 4.388,5.274 4.339,5.32 
				4.359,5.268 4.31,5.236 4.366,5.236 			"/>
			<path fill="#FFFFFF" d="M4.441,5.326L4.388,5.278L4.341,5.322L4.337,5.318L4.355,5.27L4.3,5.232l0.064,0.002L4.389,5.17
				l0.022,0.063h0.058L4.423,5.268 M4.32,5.238l0.042,0.027L4.346,5.31l0.042-0.038l0.04,0.036L4.416,5.266l0.036-0.027H4.407
				L4.388,5.187L4.368,5.24L4.32,5.238z"/>
			<path fill="#FFFFFF" d="M3.525,5.62c0.005,0,0.01,0,0.014,0"/>
			<polyline fill="#FFFFFF" points="2.861,6.275 2.885,6.3 2.769,6.422 2.742,6.398 2.774,6.265 2.774,6.263 2.69,6.353 
				2.666,6.331 2.783,6.206 2.811,6.231 2.779,6.363 2.78,6.363 			"/>
			<path fill="#FFFFFF" d="M3.5,4.738L3.461,4.734l0.079-0.16l0.042,0.003l0.043,0.172L3.587,4.746L3.579,4.711L3.515,4.705
				 M3.528,4.677l0.044,0.005L3.557,4.612l0,0L3.528,4.677z"/>
			<polyline fill="#FFFFFF" points="3.734,4.746 3.816,4.771 3.806,4.801 3.689,4.764 3.744,4.604 3.779,4.616 			"/>
			<path fill="#FFFFFF" d="M3.998,4.849C3.974,4.885,3.94,4.887,3.904,4.863C3.89,4.855,3.873,4.839,3.869,4.817
				c-0.002-0.013,0.002-0.025,0.011-0.04l0.063-0.092l0.031,0.019L3.913,4.795C3.9,4.813,3.906,4.83,3.92,4.839
				C3.941,4.852,3.956,4.847,3.967,4.83L4.03,4.738L4.06,4.757"/>
			<polyline fill="#FFFFFF" points="4.077,4.98 4.049,4.958 4.141,4.854 4.101,4.821 4.12,4.799 4.229,4.885 4.21,4.907 4.17,4.876 
							"/>
			<path fill="#FFFFFF" d="M3.307,4.698c0.002,0.009,0.01,0.027,0.041,0.021C3.365,4.719,3.383,4.711,3.38,4.694
				C3.378,4.68,3.365,4.68,3.345,4.678L3.326,4.677C3.298,4.675,3.27,4.671,3.263,4.634c-0.002-0.018,0.002-0.051,0.058-0.06
				c0.053-0.008,0.073,0.023,0.076,0.044L3.363,4.623C3.361,4.616,3.355,4.6,3.323,4.604C3.31,4.604,3.294,4.612,3.297,4.627
				C3.299,4.64,3.311,4.642,3.318,4.644l0.043,0.004c0.024,0.001,0.047,0.007,0.052,0.036c0.009,0.051-0.043,0.063-0.058,0.065
				c-0.063,0.01-0.08-0.025-0.083-0.045"/>
			<path fill="#FFFFFF" d="M2.914,4.704c0.021-0.012,0.078-0.029,0.116,0.04c0.037,0.069-0.012,0.106-0.032,0.115
				C2.978,4.87,2.92,4.889,2.883,4.819C2.845,4.749,2.894,4.713,2.914,4.704 M2.985,4.834c0.017-0.01,0.036-0.031,0.014-0.073
				S2.946,4.72,2.928,4.729C2.911,4.738,2.892,4.761,2.914,4.803C2.937,4.845,2.967,4.843,2.985,4.834"/>
			<path fill="#FFFFFF" d="M2.664,4.905l0.061-0.061c0.032-0.033,0.062-0.017,0.073-0.008C2.81,4.851,2.815,4.868,2.808,4.885
				c0.014-0.007,0.023-0.009,0.046,0.013c0.018,0.017,0.022,0.021,0.03,0.017l0.003,0.004L2.86,4.945
				C2.852,4.941,2.845,4.938,2.832,4.925C2.815,4.91,2.808,4.905,2.789,4.924L2.763,4.951l0.048,0.044L2.787,5.019 M2.772,4.901
				c0.013-0.013,0.015-0.023,0.002-0.035C2.768,4.859,2.755,4.854,2.74,4.868L2.71,4.899l0.033,0.031L2.772,4.901z"/>
			<polyline fill="#FFFFFF" points="3.927,6.375 3.956,6.36 4.04,6.505 4.009,6.521 3.887,6.451 3.887,6.451 3.947,6.554 
				3.917,6.57 3.834,6.426 3.866,6.407 3.985,6.478 3.986,6.476 			"/>
			<path fill="#FFFFFF" d="M3.99,6.329l0.06-0.046C4.096,6.25,4.136,6.279,4.156,6.305C4.179,6.332,4.2,6.382,4.156,6.417
				L4.096,6.461 M4.106,6.417l0.028-0.021c0.023-0.019,0.013-0.046-0.005-0.067C4.098,6.29,4.076,6.302,4.064,6.311L4.036,6.331
				L4.106,6.417z"/>
			<polyline fill="#FFFFFF" points="4.28,6.305 4.255,6.331 4.125,6.221 4.149,6.195 			"/>
			<polyline fill="#FFFFFF" points="4.335,5.064 4.279,4.993 4.25,5.015 4.301,5.079 4.277,5.098 4.226,5.031 4.19,5.059 
				4.248,5.132 4.223,5.15 4.144,5.048 4.282,4.947 4.359,5.046 			"/>
			<path fill="#FFFFFF" d="M2.976,6.363C2.994,6.376,3.038,6.417,2.992,6.48C2.946,6.545,2.891,6.52,2.872,6.506
				C2.853,6.493,2.81,6.453,2.856,6.39C2.902,6.325,2.957,6.351,2.976,6.363 M2.889,6.482c0.016,0.011,0.046,0.017,0.073-0.021
				C2.99,6.422,2.974,6.398,2.958,6.388C2.943,6.376,2.913,6.371,2.885,6.409C2.858,6.448,2.874,6.472,2.889,6.482"/>
			<polyline fill="#FFFFFF" points="3.16,6.453 3.195,6.466 3.077,6.604 3.045,6.591 3.054,6.415 3.09,6.428 3.076,6.56 3.077,6.56 
							"/>
			<polyline fill="#FFFFFF" points="3.219,6.644 3.183,6.635 3.228,6.474 3.263,6.482 			"/>
			<polyline fill="#FFFFFF" points="3.629,6.656 3.595,6.658 3.585,6.52 3.584,6.52 3.562,6.66 3.527,6.662 3.485,6.524 
				3.485,6.524 3.494,6.666 3.461,6.667 3.449,6.501 3.502,6.497 3.542,6.625 3.543,6.625 3.565,6.493 3.617,6.49 			"/>
			<path fill="#FFFFFF" d="M3.829,6.552c0.012,0.044-0.01,0.068-0.052,0.079c-0.016,0.004-0.04,0.006-0.059-0.008
				c-0.012-0.007-0.019-0.02-0.023-0.036L3.666,6.479l0.036-0.007L3.73,6.576C3.736,6.6,3.752,6.605,3.769,6.602
				C3.793,6.596,3.8,6.581,3.794,6.563L3.765,6.455l0.036-0.009"/>
			<path fill="#FFFFFF" d="M2.682,5.15L2.661,5.18L2.518,5.084l0.044-0.063c0.019-0.027,0.048-0.031,0.076-0.013
				c0.013,0.009,0.041,0.036,0.015,0.075L2.63,5.115 M2.624,5.071c0.015-0.02,0-0.031-0.007-0.036
				c-0.014-0.01-0.024-0.004-0.037,0.013L2.563,5.071l0.042,0.027L2.624,5.071z"/>
			<path fill="#FFFFFF" d="M3.627,6.277C3.64,6.307,3.607,6.3,3.594,6.311H3.583C3.586,6.294,3.604,6.267,3.627,6.277"/>
			<path fill="#FFFFFF" d="M3.441,5.769V5.78H3.396C3.392,5.756,3.43,5.751,3.441,5.769"/>
			<polyline fill="#FFFFFF" points="3.518,5.478 3.539,5.45 3.597,5.446 3.623,5.441 3.611,5.465 3.58,5.478 3.585,5.465 
				3.549,5.463 3.53,5.478 			"/>
			<polyline fill="#FFFFFF" points="3.658,5.445 3.677,5.441 3.698,5.45 3.687,5.465 3.666,5.471 3.656,5.481 3.644,5.473 
				3.625,5.478 3.623,5.467 3.639,5.463 3.633,5.454 3.639,5.446 			"/>
			<polyline fill="#FFFFFF" points="3.718,5.467 3.729,5.458 3.75,5.46 3.746,5.471 3.715,5.478 			"/>
			<polyline fill="#FFFFFF" points="3.549,5.492 3.573,5.49 3.568,5.505 3.544,5.505 			"/>
			<polyline fill="#FFFFFF" points="3.711,5.49 3.725,5.479 3.733,5.487 3.723,5.494 			"/>
			<polyline fill="#FFFFFF" points="3.698,5.513 3.711,5.527 3.72,5.521 3.713,5.498 			"/>
			<polyline fill="#FFFFFF" points="3.742,5.521 3.749,5.513 3.728,5.5 			"/>
			<line fill="#FFFFFF" x1="3.742" y1="5.521" x2="3.749" y2="5.513"/>
			<polyline fill="#FFFFFF" points="3.766,5.511 3.774,5.515 3.771,5.549 3.76,5.519 			"/>
			<path fill="#FFFFFF" d="M3.385,4.983c0.008-0.009,0.002-0.047-0.012-0.053c-0.016,0.025,0.033,0.036,0,0.053 M3.462,5.112
				C3.46,5.094,3.455,5.054,3.473,5.027l0.011-0.011C3.48,5.019,3.476,5.022,3.473,5.027L3.451,5.006l0.01-0.011
				C3.446,5,3.441,4.981,3.429,4.975c-0.015,0.04,0.081,0.09-0.011,0.095C3.412,5.063,3.404,5.059,3.406,5.048H3.396v0.011h0.011
				C3.401,5.064,3.395,5.071,3.385,5.069C3.385,5.081,3.387,5.096,3.374,5.101h0.022c0.006,0.006,0.015,0.012,0.011,0.022
				c0.015,0.004,0.038-0.01,0.045,0.009C3.448,5.123,3.456,5.117,3.462,5.112 M3.579,5.62c0.023-0.015,0.037-0.023,0.07-0.03
				C3.646,5.599,3.655,5.604,3.66,5.609C3.684,5.584,3.698,5.605,3.717,5.62c0.009,0.008,0.019,0.014,0.031,0.012
				c0-0.004,0.002-0.008,0.004-0.012h0.012C3.78,5.661,3.842,5.683,3.847,5.727C3.885,5.745,3.938,5.73,3.968,5.769
				c0.078,0.084-0.093,0.115-0.066,0.203c-0.014,0.056-0.057,0.064-0.11,0.073C3.775,6.087,3.741,6.105,3.704,6.129
				c-0.055-0.001-0.063,0.039-0.11,0.054C3.577,6.237,3.531,6.254,3.517,6.311C3.525,6.327,3.555,6.317,3.55,6.342
				C3.511,6.344,3.463,6.319,3.462,6.279C3.477,6.16,3.565,6.07,3.572,5.95c-0.06-0.044-0.069-0.125-0.066-0.201
				c0.039-0.021,0.03-0.057,0.043-0.085L3.529,5.643c-0.022,0.031-0.037-0.017-0.067,0C3.46,5.634,3.456,5.628,3.451,5.62
				C3.438,5.605,3.42,5.593,3.407,5.578C3.364,5.563,3.315,5.563,3.276,5.536C3.226,5.533,3.255,5.476,3.21,5.461
				C3.204,5.467,3.195,5.473,3.198,5.483C3.127,5.465,3.156,5.388,3.122,5.345C3.13,5.315,3.131,5.287,3.124,5.26
				C3.12,5.242,3.112,5.224,3.1,5.207C3.03,5.132,2.952,5.262,2.869,5.218C2.9,5.216,2.925,5.201,2.945,5.176
				C2.939,5.165,2.92,5.159,2.924,5.143l0.011-0.011L2.924,5.123l0.011-0.011C2.928,5.106,2.92,5.101,2.924,5.09
				c0.042-0.031,0.098-0.077,0.165-0.073c0.051-0.019,0.12,0.04,0.165-0.021C3.23,4.993,3.205,4.96,3.231,4.941
				c0.016,0.004,0.033-0.023,0.044,0c0.014-0.005,0.01-0.02,0.01-0.031c0.036-0.02,0.075,0.041,0.088-0.011h0.022
				C3.393,4.91,3.402,4.914,3.407,4.922L3.418,4.91l0.011,0.012c0.029-0.029,0.048,0.029,0.087,0.009
				c0.03,0.019,0.048,0.061,0.055,0.097c-0.011,0-0.025-0.003-0.033,0.01l0.044,0.044c0.014-0.008,0.011-0.021,0.011-0.033
				c0.053,0.025,0.084,0.08,0.11,0.128C3.647,5.185,3.595,5.209,3.561,5.26c0.035,0.086-0.112,0.085-0.044,0.171L3.495,5.45
				C3.493,5.432,3.486,5.414,3.473,5.397C3.416,5.434,3.317,5.362,3.33,5.473c0.015,0.013,0.014,0.031,0.033,0.042
				c0.027,0.013,0.037-0.022,0.055-0.031V5.473h0.044c0.023,0.038-0.049,0.084,0.022,0.095c0,0.013,0.003,0.025-0.011,0.031
				C3.479,5.613,3.489,5.619,3.5,5.62c0.008,0.002,0.017,0,0.025,0h0.014c0.009,0,0.017,0.004,0.022,0.012
				C3.568,5.628,3.573,5.624,3.579,5.62"/>
			<path fill="#FFFFFF" d="M4.39,5.41c0.009,0,0.021-0.002,0.038-0.002c0.016,0,0.028,0.004,0.036,0.009
				c0.008,0.006,0.013,0.017,0.013,0.028c0,0.011-0.003,0.02-0.011,0.027C4.457,5.479,4.444,5.483,4.428,5.483
				c-0.003,0-0.006,0-0.008,0v0.038H4.39 M4.421,5.46c0.002,0,0.004,0.001,0.007,0.001c0.012,0,0.019-0.007,0.019-0.016
				c0-0.008-0.006-0.014-0.017-0.014c-0.005,0-0.007,0-0.009,0V5.46z"/>
			<path fill="#FFFFFF" d="M4.44,5.649L4.433,5.678H4.402l0.033-0.114h0.04L4.51,5.678H4.476L4.469,5.649 M4.465,5.628L4.46,5.607
				C4.458,5.603,4.456,5.593,4.454,5.586h0C4.452,5.593,4.45,5.603,4.449,5.607L4.444,5.628H4.465z"/>
			<polyline fill="#FFFFFF" points="4.416,5.725 4.416,5.766 4.452,5.766 4.452,5.725 4.483,5.725 4.483,5.837 4.452,5.837 
				4.452,5.791 4.416,5.791 4.416,5.837 4.385,5.837 4.385,5.725 			"/>
			<path fill="#FFFFFF" d="M4.456,5.938c0,0.036-0.022,0.059-0.057,0.059S4.344,5.97,4.344,5.939c0-0.033,0.021-0.059,0.056-0.059
				C4.437,5.881,4.456,5.908,4.456,5.938 M4.376,5.939c0,0.02,0.01,0.032,0.024,0.032c0.014,0,0.023-0.013,0.023-0.032
				c0-0.021-0.009-0.035-0.024-0.035C4.386,5.904,4.376,5.917,4.376,5.939"/>
			<path fill="#FFFFFF" d="M2.537,5.523c0,0.037-0.022,0.059-0.057,0.059S2.425,5.557,2.425,5.525c0-0.033,0.022-0.059,0.057-0.059
				C2.518,5.467,2.537,5.494,2.537,5.523 M2.457,5.525c0,0.021,0.01,0.033,0.024,0.033s0.023-0.013,0.023-0.033
				S2.495,5.49,2.481,5.49C2.467,5.49,2.457,5.505,2.457,5.525"/>
			<path fill="#FFFFFF" d="M2.425,5.648c0.008,0,0.021-0.002,0.038-0.002c0.016,0,0.028,0.003,0.036,0.009S2.511,5.67,2.511,5.683
				c0,0.011-0.004,0.021-0.011,0.027C2.491,5.718,2.478,5.722,2.463,5.722c-0.003,0-0.006,0-0.008,0V5.76h-0.03 M2.455,5.697
				c0.001,0.002,0.003,0.002,0.007,0.002c0.012,0,0.02-0.007,0.02-0.017c0-0.007-0.006-0.013-0.018-0.013c-0.004,0-0.007,0-0.009,0
				V5.697z"/>
			<path fill="#FFFFFF" d="M2.474,5.886c0.007,0.004,0.019,0.008,0.03,0.008c0.011,0,0.016-0.004,0.016-0.01
				c0-0.005-0.005-0.009-0.018-0.013C2.482,5.864,2.469,5.854,2.469,5.837c0-0.019,0.017-0.035,0.045-0.035
				c0.014,0,0.023,0.004,0.031,0.006L2.539,5.833C2.534,5.829,2.526,5.827,2.515,5.827c-0.01,0-0.015,0.002-0.015,0.008
				c0,0.005,0.006,0.009,0.021,0.013c0.02,0.007,0.03,0.019,0.03,0.034c0,0.019-0.016,0.035-0.049,0.035
				c-0.014,0-0.027-0.004-0.034-0.006"/>
		</g>
		<g>
			<path fill="#FFFFFF" d="M4.479,3.755c-1.1,0-1.744-0.495-1.744-1.453c0-0.941,0.645-1.453,1.744-1.453s1.757,0.511,1.757,1.453
				C6.236,3.26,5.578,3.755,4.479,3.755 M4.479,3.079c0.478,0,0.491-0.475,0.496-0.776C4.969,2.041,4.938,1.526,4.479,1.526
				c-0.446,0-0.482,0.515-0.482,0.777C3.996,2.604,4.046,3.079,4.479,3.079"/>
			<path fill="#FFFFFF" d="M6.547,0.898h2.078c0.491,0,1.153,0.21,1.153,0.966c0,0.732-0.527,1.035-1.158,1.035H7.755v0.809H6.547
				V0.898L6.547,0.898z M7.723,2.247H7.99c0.288,0,0.581-0.049,0.581-0.362c0-0.298-0.293-0.334-0.586-0.334H7.723V2.247z"/>
			<path fill="#FFFFFF" d="M10.612,0.898h1.663l1.122,2.809h-1.267l-0.207-0.608h-1.018l-0.194,0.608H9.508L10.612,0.898z
				 M11.072,2.423h0.699l-0.343-0.922h-0.009L11.072,2.423z"/>
			<path fill="#FFFFFF" d="M16.101,1.667c-0.27-0.085-0.59-0.141-0.933-0.141c-0.189,0-0.519,0.004-0.519,0.185
				c0,0.366,1.654,0.021,1.654,1.103c0,0.752-0.833,0.941-1.532,0.941c-0.464,0-0.847-0.041-1.298-0.133V2.894
				c0.324,0.121,0.721,0.185,1.082,0.185c0.284,0,0.541-0.052,0.541-0.193c0-0.378-1.654-0.036-1.654-1.127
				c0-0.772,0.901-0.909,1.618-0.909c0.338,0,0.712,0.036,1.041,0.097V1.667z"/>
		</g>
	</g>
</g>
</svg>
