<?xml version="1.0" encoding="utf-8"?>
<!-- Generator: Adobe Illustrator 14.0.0, SVG Export Plug-In . SVG Version: 6.00 Build 43363)  -->
<!DOCTYPE svg PUBLIC "-//W3C//DTD SVG 1.1//EN" "http://www.w3.org/Graphics/SVG/1.1/DTD/svg11.dtd">
<svg version="1.1" id="Camada_1" xmlns="http://www.w3.org/2000/svg" xmlns:xlink="http://www.w3.org/1999/xlink" x="0px" y="0px"
	 width="34.063px" height="7.625px" viewBox="0 0 34.063 7.625" enable-background="new 0 0 34.063 7.625" xml:space="preserve">
<g>
	<g>
		<rect x="17.515" y="0.643" fill="#FFFFFF" width="0.104" height="6.3"/>
		<g>
			<path fill="#FFFFFF" d="M20.219,2.189c0.066,0.099,0.1,0.207,0.1,0.329c0,0.115-0.024,0.218-0.08,0.309
				c-0.053,0.092-0.133,0.162-0.235,0.215c-0.105,0.051-0.234,0.078-0.387,0.078h-0.699V0.965h0.676c0.135,0,0.252,0.024,0.35,0.072
				c0.101,0.047,0.173,0.113,0.228,0.196c0.051,0.083,0.076,0.179,0.076,0.288c0,0.104-0.025,0.197-0.078,0.279
				c-0.056,0.082-0.138,0.144-0.25,0.186C20.051,2.024,20.153,2.092,20.219,2.189z M19.19,1.219v0.678h0.363
				c0.121,0,0.219-0.027,0.295-0.084s0.113-0.146,0.113-0.271c0-0.062-0.015-0.117-0.041-0.166c-0.027-0.049-0.07-0.088-0.125-0.115
				C19.74,1.234,19.674,1.22,19.598,1.22H19.19V1.219z M19.932,2.768c0.064-0.066,0.096-0.151,0.096-0.256
				c0-0.113-0.032-0.203-0.102-0.27c-0.069-0.067-0.168-0.1-0.303-0.1H19.19v0.725h0.433C19.764,2.868,19.867,2.834,19.932,2.768z"
				/>
			<path fill="#FFFFFF" d="M21.004,3.043c-0.121-0.076-0.209-0.184-0.269-0.319c-0.059-0.135-0.088-0.291-0.088-0.464V0.965h0.275
				v1.228c0,0.468,0.182,0.701,0.545,0.701c0.186,0,0.32-0.06,0.402-0.179c0.082-0.118,0.125-0.285,0.125-0.502V0.965h0.272v1.283
				c0,0.211-0.035,0.385-0.106,0.521c-0.07,0.136-0.168,0.235-0.291,0.297s-0.265,0.093-0.423,0.093
				C21.272,3.161,21.123,3.122,21.004,3.043z"/>
			<path fill="#FFFFFF" d="M22.989,2.861h0.951V3.12h-1.227V0.965h1.211v0.26h-0.938v0.671h0.82l-0.029,0.252h-0.791v0.713H22.989z"
				/>
			<path fill="#FFFFFF" d="M25.926,0.965V3.12h-0.305l-0.854-1.396l-0.039-0.063c-0.004-0.009-0.016-0.029-0.037-0.063
				c-0.021-0.034-0.039-0.064-0.055-0.094c-0.014-0.028-0.027-0.058-0.039-0.086v1.703h-0.264V0.965h0.289L25.5,2.392
				c0.008,0.014,0.022,0.041,0.051,0.082c0.025,0.041,0.049,0.079,0.064,0.112c0.02,0.035,0.032,0.067,0.047,0.099v-1.72H25.926z"/>
			<path fill="#FFFFFF" d="M27.285,0.965L28.014,3.1v0.02h-0.287l-0.203-0.615H26.7L26.498,3.12h-0.275V3.1l0.729-2.135H27.285z
				 M26.781,2.252h0.658l-0.328-0.998L26.781,2.252z"/>
			<path fill="#FFFFFF" d="M28.436,3.095c-0.117-0.044-0.221-0.104-0.311-0.181l0.131-0.22c0.08,0.068,0.17,0.12,0.271,0.154
				C28.628,2.882,28.722,2.9,28.812,2.9c0.146,0,0.252-0.029,0.328-0.086c0.074-0.059,0.111-0.145,0.111-0.264
				c0-0.068-0.015-0.125-0.041-0.168c-0.025-0.045-0.07-0.086-0.131-0.123c-0.063-0.035-0.148-0.076-0.263-0.12L28.766,2.12
				c-0.125-0.049-0.227-0.097-0.305-0.145c-0.078-0.047-0.142-0.11-0.188-0.188c-0.049-0.078-0.069-0.176-0.069-0.293
				c0-0.125,0.028-0.229,0.09-0.313c0.061-0.084,0.141-0.149,0.242-0.191c0.1-0.042,0.205-0.063,0.317-0.063
				c0.119,0,0.232,0.018,0.34,0.051c0.108,0.033,0.211,0.087,0.313,0.163L29.381,1.36c-0.088-0.062-0.172-0.106-0.254-0.134
				s-0.174-0.042-0.275-0.042c-0.104,0-0.192,0.024-0.264,0.073c-0.071,0.049-0.105,0.125-0.105,0.226
				c0,0.054,0.015,0.101,0.035,0.14c0.023,0.041,0.064,0.078,0.119,0.113c0.057,0.035,0.137,0.073,0.238,0.113l0.051,0.02
				c0.135,0.051,0.24,0.1,0.32,0.146c0.078,0.045,0.147,0.11,0.207,0.196c0.057,0.084,0.086,0.194,0.086,0.33
				c0,0.137-0.029,0.25-0.086,0.342c-0.06,0.092-0.144,0.162-0.248,0.209c-0.109,0.048-0.236,0.072-0.386,0.072
				C28.682,3.161,28.553,3.138,28.436,3.095z"/>
			<path fill="#FFFFFF" d="M19.953,4.547c0.104,0.055,0.188,0.131,0.239,0.23c0.056,0.098,0.082,0.213,0.082,0.344
				s-0.026,0.248-0.082,0.355c-0.057,0.104-0.139,0.188-0.25,0.254c-0.108,0.063-0.246,0.096-0.405,0.096H19.19v0.793h-0.274V4.465
				h0.646C19.715,4.465,19.846,4.492,19.953,4.547z M19.871,5.453c0.075-0.076,0.116-0.182,0.116-0.32
				c0-0.133-0.034-0.23-0.108-0.303c-0.072-0.07-0.183-0.104-0.324-0.104H19.19v0.842h0.326C19.674,5.566,19.791,5.529,19.871,5.453
				z"/>
			<path fill="#FFFFFF" d="M22.041,6.6V6.62h-0.316l-0.561-0.841h-0.287V6.62h-0.275V4.465h0.631c0.152,0,0.281,0.027,0.388,0.08
				c0.104,0.057,0.184,0.129,0.233,0.225c0.054,0.097,0.08,0.207,0.08,0.332c0,0.104-0.018,0.195-0.053,0.281
				c-0.035,0.088-0.088,0.162-0.156,0.227c-0.07,0.063-0.158,0.107-0.262,0.14L22.041,6.6z M20.877,5.525h0.313
				c0.148,0,0.265-0.035,0.338-0.107c0.078-0.07,0.115-0.174,0.115-0.305c0-0.125-0.035-0.223-0.104-0.289
				c-0.07-0.066-0.177-0.1-0.313-0.1h-0.35L20.877,5.525L20.877,5.525z"/>
			<path fill="#FFFFFF" d="M23.209,4.465L23.938,6.6V6.62h-0.287l-0.203-0.615h-0.823L22.423,6.62h-0.275V6.6l0.729-2.135H23.209z
				 M22.705,5.752h0.657l-0.327-0.998L22.705,5.752z"/>
			<path fill="#FFFFFF" d="M24.428,6.523c-0.135-0.092-0.232-0.219-0.299-0.385c-0.064-0.168-0.099-0.363-0.099-0.591
				c0-0.262,0.041-0.475,0.125-0.644c0.082-0.168,0.189-0.288,0.324-0.364c0.133-0.076,0.279-0.115,0.439-0.115
				c0.121,0,0.231,0.019,0.336,0.052c0.104,0.032,0.201,0.082,0.295,0.145l-0.119,0.234c-0.154-0.109-0.32-0.164-0.498-0.164
				c-0.209,0-0.361,0.076-0.459,0.227c-0.1,0.152-0.147,0.355-0.147,0.615c0,0.268,0.053,0.48,0.153,0.631
				c0.104,0.152,0.258,0.23,0.459,0.23c0.103,0,0.193-0.017,0.275-0.045c0.08-0.027,0.162-0.068,0.244-0.123l0.108,0.223
				C25.465,6.52,25.36,6.57,25.26,6.605c-0.102,0.037-0.213,0.055-0.334,0.055C24.727,6.66,24.561,6.613,24.428,6.523z"/>
			<path fill="#FFFFFF" d="M27.283,4.465v0.268h-0.671V6.62h-0.274V4.732h-0.672V4.465H27.283z"/>
			<path fill="#FFFFFF" d="M27.584,6.619V4.465h0.272v2.154H27.584z"/>
			<path fill="#FFFFFF" d="M28.633,6.523c-0.133-0.092-0.232-0.219-0.297-0.385c-0.064-0.168-0.099-0.363-0.099-0.591
				c0-0.262,0.041-0.475,0.123-0.644c0.084-0.168,0.191-0.288,0.324-0.364c0.135-0.076,0.281-0.115,0.441-0.115
				c0.121,0,0.231,0.019,0.336,0.052c0.102,0.032,0.201,0.082,0.295,0.145l-0.119,0.234c-0.156-0.109-0.322-0.164-0.5-0.164
				c-0.207,0-0.359,0.076-0.459,0.227c-0.098,0.152-0.148,0.355-0.148,0.615c0,0.268,0.054,0.48,0.156,0.631
				c0.104,0.152,0.256,0.23,0.457,0.23c0.104,0,0.193-0.017,0.275-0.045c0.082-0.027,0.164-0.068,0.246-0.123l0.108,0.223
				c-0.104,0.07-0.209,0.121-0.311,0.156c-0.103,0.037-0.211,0.055-0.332,0.055C28.934,6.66,28.768,6.613,28.633,6.523z"/>
			<path fill="#FFFFFF" d="M30.932,4.465l0.73,2.135V6.62h-0.287l-0.203-0.615h-0.826L30.145,6.62h-0.272V6.6L30.6,4.465H30.932z
				 M30.43,5.752h0.658l-0.33-0.998L30.43,5.752z"/>
			<path fill="#FFFFFF" d="M32.082,6.594c-0.117-0.043-0.224-0.104-0.313-0.18l0.133-0.221c0.078,0.07,0.17,0.121,0.271,0.156
				c0.1,0.03,0.195,0.051,0.285,0.051c0.143,0,0.252-0.029,0.328-0.086c0.071-0.062,0.11-0.146,0.11-0.267
				c0-0.065-0.014-0.125-0.041-0.17c-0.024-0.043-0.069-0.084-0.131-0.121c-0.063-0.032-0.147-0.073-0.262-0.118L32.41,5.617
				c-0.125-0.049-0.228-0.098-0.306-0.145c-0.078-0.048-0.141-0.109-0.188-0.188c-0.047-0.08-0.072-0.177-0.072-0.293
				c0-0.125,0.031-0.229,0.092-0.314C32,4.594,32.08,4.529,32.18,4.486c0.1-0.041,0.207-0.063,0.32-0.063
				c0.119,0,0.231,0.019,0.34,0.052c0.104,0.032,0.211,0.086,0.313,0.161l-0.127,0.22c-0.088-0.063-0.172-0.105-0.254-0.135
				C32.69,4.693,32.598,4.68,32.498,4.68c-0.105,0-0.193,0.025-0.265,0.072c-0.069,0.049-0.104,0.125-0.104,0.227
				c0,0.054,0.012,0.101,0.035,0.142c0.021,0.039,0.063,0.075,0.119,0.112c0.057,0.035,0.137,0.072,0.237,0.113l0.051,0.021
				c0.136,0.051,0.24,0.1,0.32,0.145c0.078,0.048,0.148,0.109,0.205,0.195c0.059,0.086,0.088,0.194,0.088,0.33
				c0,0.137-0.029,0.25-0.088,0.342c-0.057,0.095-0.141,0.162-0.248,0.209c-0.106,0.047-0.234,0.072-0.383,0.072
				C32.328,6.66,32.199,6.639,32.082,6.594z"/>
			<g>
				<path fill="#FFFFFF" d="M23.444,3.838l-0.365,0.429h-0.187l0.264-0.429H23.444z"/>
			</g>
		</g>
	</g>
	<g>
		<g>
			<path fill="#FFFFFF" d="M2.092,6.943c-0.669,0-1.214-0.529-1.214-1.18c0-0.652,0.544-1.183,1.214-1.183
				c0.668,0,1.213,0.528,1.213,1.183C3.304,6.414,2.76,6.943,2.092,6.943 M2.092,4.637c-0.639,0-1.158,0.506-1.158,1.127
				c0,0.619,0.521,1.125,1.158,1.125S3.25,6.383,3.25,5.764C3.25,5.143,2.729,4.637,2.092,4.637"/>
			<path fill="#FFFFFF" d="M2.092,6.619c-0.498,0-0.903-0.385-0.903-0.855c0-0.47,0.405-0.854,0.903-0.854s0.903,0.385,0.903,0.854
				C2.995,6.236,2.59,6.619,2.092,6.619 M2.092,4.969c-0.464,0-0.841,0.355-0.841,0.795c0,0.438,0.377,0.793,0.841,0.793
				s0.842-0.354,0.842-0.793C2.933,5.324,2.555,4.969,2.092,4.969"/>
			<polygon fill="#FFFFFF" points="1.133,5.354 1.148,5.412 1.207,5.412 1.165,5.443 1.18,5.494 1.13,5.453 1.082,5.498 
				1.101,5.443 1.052,5.412 1.108,5.412 			"/>
			<path fill="#FFFFFF" d="M1.186,5.502L1.131,5.457L1.085,5.498H1.08l0.019-0.053L1.042,5.408L1.107,5.41l0.026-0.066l0.018,0.064
				h0.064L1.168,5.445L1.186,5.502z M1.061,5.416l0.043,0.025L1.088,5.486L1.13,5.449l0.044,0.035L1.16,5.443l0.035-0.029H1.145
				L1.132,5.361L1.11,5.416H1.061z"/>
			<polygon fill="#FFFFFF" points="2.983,6.17 3,6.229 3.057,6.229 3.015,6.26 3.031,6.313 2.981,6.273 2.932,6.316 2.953,6.26 
				2.901,6.229 2.961,6.23 			"/>
			<path fill="#FFFFFF" d="M3.038,6.318L2.981,6.275L2.934,6.318L2.93,6.314l0.02-0.055L2.892,6.225l0.066,0.002l0.024-0.063
				l0.021,0.063h0.063L3.019,6.262L3.038,6.318z M2.913,6.232L2.957,6.26L2.939,6.305l0.042-0.037l0.044,0.035L3.011,6.26
				l0.037-0.027h-0.05L2.983,6.182l-0.02,0.053L2.913,6.232z"/>
			<polygon fill="#FFFFFF" points="1.194,6.158 1.211,6.217 1.269,6.217 1.226,6.248 1.241,6.297 1.192,6.258 1.143,6.301 
				1.164,6.248 1.113,6.217 1.172,6.217 			"/>
			<path fill="#FFFFFF" d="M1.249,6.307L1.192,6.264L1.145,6.303L1.14,6.301L1.16,6.248L1.102,6.213l0.066,0.002l0.024-0.066
				l0.019,0.064h0.063L1.229,6.248L1.249,6.307z M1.125,6.221l0.042,0.025L1.15,6.291l0.042-0.037l0.044,0.035L1.222,6.246
				L1.26,6.217H1.208L1.193,6.166l-0.02,0.055H1.125z"/>
			<polygon fill="#FFFFFF" points="3.055,5.313 3.077,5.369 3.13,5.369 3.088,5.4 3.103,5.451 3.055,5.41 3.005,5.455 3.023,5.4 
				2.973,5.369 3.031,5.371 			"/>
			<path fill="#FFFFFF" d="M3.109,5.461L3.055,5.412L3.007,5.457L3.002,5.455L3.02,5.402L2.964,5.365l0.064,0.002l0.026-0.064
				l0.022,0.063h0.061L3.091,5.402L3.109,5.461z M2.984,5.373L3.027,5.4L3.01,5.445l0.044-0.039l0.042,0.037L3.084,5.4l0.037-0.027
				H3.074L3.055,5.32l-0.02,0.053H2.984z"/>
			<path fill="#FFFFFF" d="M2.163,5.764c0.005,0,0.01,0,0.014,0H2.163z"/>
			<polygon fill="#FFFFFF" points="1.476,6.434 1.503,6.455 1.381,6.582 1.353,6.559 1.386,6.42 1.386,6.418 1.301,6.51 
				1.274,6.488 1.395,6.361 1.425,6.385 1.391,6.52 1.392,6.52 			"/>
			<path fill="#FFFFFF" d="M2.136,4.859L2.097,4.857l0.081-0.166l0.043,0.006l0.046,0.176L2.226,4.869L2.219,4.832L2.152,4.826
				L2.136,4.859z M2.166,4.799l0.045,0.002L2.195,4.732l0,0L2.166,4.799z"/>
			<polygon fill="#FFFFFF" points="2.379,4.869 2.464,4.896 2.454,4.924 2.333,4.885 2.39,4.727 2.426,4.736 			"/>
			<path fill="#FFFFFF" d="M2.651,4.975C2.627,5.01,2.592,5.012,2.553,4.99C2.54,4.98,2.521,4.965,2.517,4.941
				C2.515,4.928,2.52,4.918,2.529,4.9l0.065-0.096l0.031,0.02L2.562,4.918C2.549,4.939,2.554,4.955,2.569,4.963
				C2.59,4.979,2.606,4.975,2.619,4.955l0.063-0.096L2.715,4.88L2.651,4.975z"/>
			<polygon fill="#FFFFFF" points="2.733,5.109 2.705,5.086 2.8,4.979 2.758,4.945 2.777,4.922 2.891,5.01 2.871,5.033 2.829,5.002 
							"/>
			<path fill="#FFFFFF" d="M1.938,4.82c0.001,0.01,0.01,0.027,0.042,0.021C1.998,4.84,2.016,4.834,2.013,4.814
				C2.011,4.801,1.997,4.801,1.977,4.799l-0.02-0.002c-0.03-0.002-0.06-0.004-0.065-0.043c-0.003-0.02,0.001-0.053,0.062-0.061
				C2.007,4.686,2.027,4.717,2.03,4.736L1.995,4.742c-0.002-0.008-0.01-0.025-0.04-0.02C1.94,4.725,1.924,4.73,1.927,4.746
				C1.928,4.76,1.941,4.762,1.948,4.764l0.047,0.002c0.023,0.002,0.049,0.01,0.054,0.039c0.009,0.051-0.045,0.063-0.062,0.066
				C1.923,4.879,1.905,4.846,1.901,4.822L1.938,4.82z"/>
			<path fill="#FFFFFF" d="M1.531,4.824c0.021-0.01,0.081-0.029,0.12,0.043c0.039,0.07-0.012,0.107-0.031,0.119
				c-0.021,0.01-0.081,0.027-0.12-0.043C1.461,4.873,1.51,4.836,1.531,4.824 M1.604,4.957c0.02-0.008,0.037-0.031,0.016-0.072
				C1.595,4.842,1.564,4.842,1.547,4.852c-0.02,0.01-0.038,0.033-0.017,0.074C1.555,4.969,1.587,4.967,1.604,4.957"/>
			<path fill="#FFFFFF" d="M1.272,5.031l0.063-0.063C1.368,4.936,1.398,4.952,1.41,4.962c0.015,0.013,0.019,0.03,0.012,0.048
				C1.436,5.002,1.445,5,1.469,5.023C1.488,5.041,1.492,5.044,1.5,5.043l0.003,0.002L1.475,5.072C1.468,5.07,1.46,5.064,1.447,5.051
				c-0.018-0.016-0.024-0.02-0.044,0L1.377,5.076l0.05,0.047L1.401,5.146L1.272,5.031z M1.385,5.029
				C1.398,5.014,1.4,5.004,1.387,4.992C1.38,4.986,1.366,4.979,1.351,4.994L1.318,5.027l0.034,0.031L1.385,5.029z"/>
			<polygon fill="#FFFFFF" points="2.579,6.535 2.608,6.518 2.695,6.666 2.664,6.684 2.538,6.611 2.537,6.611 2.598,6.717 
				2.568,6.734 2.481,6.584 2.516,6.568 2.638,6.639 2.638,6.639 			"/>
			<path fill="#FFFFFF" d="M2.643,6.488l0.063-0.049C2.753,6.406,2.795,6.438,2.815,6.46c0.024,0.029,0.046,0.08,0,0.115
				L2.753,6.623L2.643,6.488z M2.763,6.576l0.029-0.02c0.021-0.021,0.013-0.05-0.005-0.068C2.756,6.447,2.732,6.457,2.72,6.467
				L2.692,6.488L2.763,6.576z"/>
			<polygon fill="#FFFFFF" points="2.941,6.461 2.918,6.49 2.783,6.375 2.807,6.35 			"/>
			<polygon fill="#FFFFFF" points="3,5.193 2.941,5.121 2.912,5.143 2.966,5.207 2.939,5.227 2.887,5.162 2.85,5.188 2.911,5.264 
				2.885,5.281 2.802,5.18 2.945,5.074 3.024,5.174 			"/>
			<path fill="#FFFFFF" d="M1.595,6.52c0.02,0.017,0.065,0.058,0.017,0.123C1.564,6.707,1.509,6.682,1.487,6.668
				C1.469,6.654,1.424,6.611,1.47,6.549C1.519,6.482,1.577,6.508,1.595,6.52 M1.506,6.645C1.522,6.656,1.552,6.66,1.582,6.623
				c0.026-0.041,0.013-0.064-0.004-0.076C1.56,6.535,1.53,6.529,1.503,6.568C1.473,6.607,1.489,6.631,1.506,6.645"/>
			<polygon fill="#FFFFFF" points="1.786,6.613 1.82,6.627 1.7,6.766 1.668,6.752 1.676,6.574 1.713,6.586 1.699,6.723 1.7,6.723 
							"/>
			<polygon fill="#FFFFFF" points="1.845,6.807 1.809,6.799 1.855,6.633 1.892,6.645 			"/>
			<polygon fill="#FFFFFF" points="2.269,6.82 2.234,6.822 2.224,6.68 2.224,6.68 2.202,6.824 2.165,6.826 2.122,6.688 2.122,6.688 
				2.132,6.83 2.096,6.832 2.085,6.662 2.138,6.658 2.181,6.791 2.181,6.791 2.204,6.654 2.259,6.65 			"/>
			<path fill="#FFFFFF" d="M2.477,6.715c0.012,0.043-0.011,0.068-0.055,0.08c-0.017,0.004-0.04,0.004-0.062-0.008
				C2.349,6.779,2.343,6.768,2.338,6.75l-0.03-0.107l0.037-0.012l0.029,0.107C2.381,6.76,2.396,6.768,2.415,6.764
				c0.022-0.006,0.03-0.021,0.024-0.039L2.412,6.613l0.035-0.008L2.477,6.715z"/>
			<path fill="#FFFFFF" d="M1.292,5.281L1.27,5.313L1.124,5.215l0.045-0.066c0.02-0.024,0.05-0.03,0.079-0.014
				c0.014,0.01,0.042,0.039,0.015,0.076L1.238,5.246L1.292,5.281z M1.231,5.203c0.018-0.021,0-0.033-0.007-0.039
				C1.211,5.156,1.198,5.16,1.185,5.18L1.169,5.201l0.043,0.027L1.231,5.203z"/>
			<path fill="#FFFFFF" d="M2.268,6.436c0.013,0.027-0.021,0.021-0.034,0.031H2.223C2.225,6.451,2.245,6.422,2.268,6.436"/>
			<path fill="#FFFFFF" d="M2.075,5.914v0.012H2.029C2.025,5.9,2.065,5.896,2.075,5.914"/>
			<polygon fill="#FFFFFF" points="2.155,5.615 2.177,5.588 2.237,5.584 2.263,5.578 2.252,5.604 2.219,5.615 2.224,5.604 
				2.187,5.602 2.169,5.615 			"/>
			<polygon fill="#FFFFFF" points="2.301,5.582 2.32,5.578 2.343,5.588 2.331,5.604 2.308,5.609 2.298,5.621 2.287,5.611 
				2.266,5.615 2.263,5.607 2.281,5.602 2.273,5.59 2.281,5.584 			"/>
			<polygon fill="#FFFFFF" points="2.361,5.605 2.374,5.596 2.396,5.598 2.39,5.609 2.358,5.615 			"/>
			<polygon fill="#FFFFFF" points="2.187,5.631 2.212,5.629 2.208,5.645 2.182,5.645 			"/>
			<polygon fill="#FFFFFF" points="2.354,5.627 2.37,5.617 2.378,5.627 2.368,5.633 			"/>
			<polygon fill="#FFFFFF" points="2.343,5.652 2.354,5.666 2.363,5.662 2.356,5.639 			"/>
			<polygon fill="#FFFFFF" points="2.387,5.662 2.394,5.65 2.373,5.641 			"/>
			<line fill="none" x1="2.387" y1="5.662" x2="2.394" y2="5.65"/>
			<polygon fill="#FFFFFF" points="2.412,5.65 2.421,5.654 2.418,5.689 2.404,5.658 			"/>
			<path fill="#FFFFFF" d="M2.018,5.111C2.027,5.104,2.02,5.063,2.007,5.059c-0.019,0.025,0.034,0.035,0,0.053H2.018L2.018,5.111z
				 M2.097,5.244C2.095,5.225,2.09,5.182,2.108,5.156l0.014-0.012c-0.005,0.004-0.01,0.008-0.014,0.012L2.087,5.135l0.011-0.012
				C2.081,5.127,2.075,5.109,2.063,5.102C2.047,5.143,2.146,5.195,2.052,5.202C2.047,5.193,2.038,5.188,2.041,5.178H2.029v0.012
				h0.013C2.033,5.195,2.028,5.205,2.018,5.201C2.017,5.213,2.02,5.227,2.007,5.232h0.021c0.008,0.006,0.017,0.012,0.013,0.021
				c0.016,0.004,0.038-0.01,0.046,0.013C2.084,5.254,2.092,5.248,2.097,5.244 M2.219,5.764c0.024-0.018,0.038-0.024,0.073-0.035
				C2.288,5.74,2.297,5.746,2.302,5.752c0.024-0.027,0.041-0.006,0.059,0.012c0.012,0.006,0.021,0.014,0.031,0.01
				c0-0.004,0.002-0.008,0.005-0.01H2.41C2.427,5.801,2.49,5.827,2.496,5.871c0.04,0.02,0.094,0.004,0.125,0.043
				C2.7,6,2.524,6.031,2.552,6.121C2.538,6.178,2.494,6.188,2.438,6.197C2.421,6.24,2.386,6.258,2.347,6.281
				C2.291,6.279,2.282,6.32,2.233,6.336c-0.018,0.057-0.063,0.072-0.08,0.131C2.163,6.486,2.192,6.475,2.187,6.5
				c-0.04,0-0.09-0.021-0.091-0.064C2.111,6.314,2.203,6.221,2.21,6.1C2.148,6.055,2.138,5.973,2.141,5.893
				c0.04-0.02,0.03-0.059,0.045-0.086L2.165,5.783c-0.023,0.035-0.038-0.016-0.068,0C2.094,5.777,2.091,5.77,2.085,5.764
				C2.071,5.746,2.053,5.734,2.04,5.719C1.995,5.705,1.944,5.701,1.903,5.674C1.851,5.67,1.883,5.615,1.836,5.6
				C1.83,5.605,1.82,5.611,1.823,5.621C1.75,5.604,1.779,5.523,1.745,5.48C1.753,5.449,1.754,5.42,1.748,5.393
				C1.743,5.375,1.734,5.355,1.721,5.338C1.649,5.262,1.569,5.396,1.483,5.35c0.032-0.002,0.06-0.018,0.078-0.043
				c-0.006-0.012-0.024-0.018-0.02-0.031l0.011-0.012L1.541,5.252l0.011-0.01C1.546,5.234,1.537,5.229,1.541,5.219
				c0.042-0.033,0.1-0.078,0.169-0.074c0.053-0.02,0.124,0.041,0.171-0.021c-0.024,0-0.049-0.037-0.023-0.056
				c0.018,0.002,0.034-0.024,0.046,0C1.92,5.063,1.916,5.048,1.916,5.036c0.037-0.021,0.076,0.043,0.091-0.011h0.021
				C2.025,5.036,2.033,5.042,2.04,5.047l0.012-0.012l0.012,0.012c0.031-0.029,0.05,0.029,0.09,0.01
				C2.185,5.077,2.204,5.12,2.212,5.154c-0.012,0-0.026-0.002-0.034,0.013L2.224,5.21c0.015-0.006,0.011-0.021,0.011-0.033
				C2.29,5.206,2.322,5.259,2.349,5.311c-0.06,0.008-0.113,0.032-0.146,0.086c0.032,0.086-0.118,0.084-0.05,0.172l-0.021,0.02
				c-0.003-0.02-0.009-0.037-0.023-0.053C2.05,5.57,1.946,5.498,1.961,5.611c0.016,0.014,0.015,0.029,0.034,0.041
				c0.027,0.014,0.038-0.021,0.057-0.031v-0.01h0.045C2.121,5.65,2.046,5.697,2.119,5.707c0,0.014,0.003,0.027-0.013,0.033
				c0.006,0.016,0.018,0.02,0.027,0.021c0.008,0.003,0.018,0,0.027,0h0.014c0.009,0,0.017,0.005,0.021,0.013
				C2.208,5.77,2.213,5.766,2.219,5.764"/>
			<path fill="#FFFFFF" d="M3.057,5.547c0.008,0,0.021-0.002,0.039-0.002c0.017,0,0.029,0.004,0.037,0.01S3.147,5.57,3.147,5.582
				S3.143,5.604,3.135,5.609c-0.01,0.01-0.023,0.014-0.039,0.014c-0.003,0-0.006,0-0.008,0V5.66H3.057V5.547L3.057,5.547z
				 M3.089,5.598c0.002,0,0.004,0,0.007,0c0.013,0,0.021-0.006,0.021-0.016s-0.008-0.014-0.02-0.014c-0.005,0-0.008,0-0.01,0
				L3.089,5.598L3.089,5.598z"/>
			<path fill="#FFFFFF" d="M3.108,5.793L3.102,5.82H3.069l0.034-0.115h0.042L3.18,5.82H3.146L3.138,5.793H3.108z M3.135,5.77
				L3.129,5.75C3.127,5.742,3.125,5.734,3.123,5.727l0,0C3.122,5.734,3.12,5.744,3.118,5.75L3.113,5.77H3.135L3.135,5.77z"/>
			<polygon fill="#FFFFFF" points="3.084,5.867 3.084,5.91 3.122,5.91 3.122,5.867 3.152,5.867 3.152,5.984 3.122,5.984 
				3.122,5.938 3.084,5.938 3.084,5.984 3.052,5.984 3.052,5.867 			"/>
			<path fill="#FFFFFF" d="M3.125,6.086c0,0.037-0.022,0.061-0.061,0.061c-0.036,0-0.057-0.024-0.057-0.059
				c0-0.033,0.021-0.059,0.059-0.059C3.106,6.029,3.125,6.055,3.125,6.086 M3.043,6.088c0,0.021,0.01,0.033,0.023,0.033
				c0.017,0,0.024-0.014,0.024-0.035c0-0.02-0.009-0.033-0.024-0.033C3.052,6.053,3.043,6.068,3.043,6.088"/>
			<path fill="#FFFFFF" d="M1.141,5.664c0,0.037-0.021,0.061-0.059,0.061S1.025,5.697,1.025,5.666c0-0.033,0.023-0.061,0.061-0.061
				C1.123,5.605,1.141,5.633,1.141,5.664 M1.059,5.666c0,0.021,0.01,0.035,0.025,0.035c0.015,0,0.022-0.016,0.022-0.035
				S1.099,5.631,1.085,5.631C1.069,5.631,1.059,5.645,1.059,5.666"/>
			<path fill="#FFFFFF" d="M1.025,5.791c0.011,0,0.021-0.002,0.039-0.002c0.019,0,0.029,0.004,0.037,0.01
				c0.008,0.004,0.014,0.016,0.014,0.027c0,0.01-0.004,0.021-0.011,0.029c-0.01,0.006-0.022,0.01-0.04,0.01
				c-0.003,0-0.006,0-0.007,0v0.039H1.025V5.791L1.025,5.791z M1.057,5.84c0.001,0,0.004,0,0.007,0c0.015,0,0.021-0.004,0.021-0.016
				c0-0.008-0.006-0.014-0.02-0.014c-0.005,0-0.008,0-0.01,0.002L1.057,5.84L1.057,5.84z"/>
			<path fill="#FFFFFF" d="M1.078,6.033c0.007,0.004,0.019,0.008,0.028,0.008c0.013,0,0.019-0.004,0.019-0.01
				S1.12,6.023,1.105,6.018C1.086,6.01,1.072,6,1.072,5.984c0-0.021,0.019-0.035,0.049-0.035c0.014,0,0.022,0.002,0.03,0.004
				L1.145,5.979C1.139,5.977,1.131,5.973,1.12,5.973c-0.012,0-0.017,0.004-0.017,0.01c0,0.007,0.006,0.011,0.021,0.015
				c0.021,0.008,0.029,0.019,0.029,0.035c0,0.02-0.016,0.034-0.05,0.034c-0.015,0-0.026-0.004-0.035-0.008L1.078,6.033z"/>
			<path fill="#FFFFFF" d="M3.708,4.732c0.114,0,0.224,0.09,0.224,0.305c0,0.211-0.106,0.305-0.224,0.305S3.484,5.248,3.484,5.037
				C3.484,4.822,3.592,4.732,3.708,4.732 M3.708,5.256c0.063,0,0.116-0.057,0.116-0.221c0-0.162-0.053-0.219-0.116-0.219
				c-0.064,0-0.117,0.057-0.117,0.219C3.591,5.201,3.643,5.256,3.708,5.256"/>
			<path fill="#FFFFFF" d="M4.011,4.969c0-0.029-0.001-0.053-0.003-0.07h0.09C4.099,4.922,4.101,4.95,4.101,4.975h0.002
				c0.012-0.033,0.043-0.084,0.105-0.084c0.007,0,0.011,0.002,0.018,0.002V4.99C4.218,4.988,4.208,4.986,4.197,4.986
				c-0.041,0-0.086,0.024-0.086,0.104v0.24H4.012L4.011,4.969L4.011,4.969z"/>
			<path fill="#FFFFFF" d="M4.292,5.398C4.313,5.414,4.36,5.438,4.414,5.438c0.094,0,0.107-0.067,0.107-0.139V5.258H4.52
				C4.505,5.291,4.476,5.332,4.412,5.332c-0.061,0-0.146-0.041-0.146-0.217c0-0.121,0.042-0.227,0.15-0.227
				c0.059,0,0.087,0.034,0.106,0.071h0.003c0-0.021,0.002-0.045,0.003-0.063H4.62C4.619,4.918,4.617,4.941,4.617,4.963v0.322
				c0,0.137-0.039,0.232-0.191,0.232c-0.065,0-0.118-0.021-0.143-0.025L4.292,5.398z M4.435,5.256c0.063,0,0.087-0.049,0.087-0.146
				c0-0.092-0.033-0.141-0.081-0.141C4.388,4.971,4.37,5.021,4.37,5.109C4.37,5.211,4.4,5.256,4.435,5.256"/>
			<path fill="#FFFFFF" d="M4.724,4.92c0.028-0.014,0.067-0.029,0.131-0.029c0.128,0,0.158,0.064,0.158,0.174v0.191
				c0,0.029,0.004,0.059,0.006,0.076h-0.09C4.926,5.314,4.925,5.293,4.925,5.273H4.923C4.897,5.307,4.866,5.338,4.806,5.338
				c-0.063,0-0.124-0.047-0.124-0.129c0-0.119,0.092-0.146,0.217-0.146H4.92V5.047c0-0.045-0.021-0.086-0.077-0.086
				c-0.05,0-0.094,0.027-0.113,0.043L4.724,4.92z M4.921,5.119H4.912c-0.085,0-0.138,0.018-0.138,0.082
				c0,0.041,0.025,0.066,0.063,0.066c0.059,0,0.081-0.047,0.081-0.125L4.921,5.119L4.921,5.119z"/>
			<path fill="#FFFFFF" d="M5.101,4.969c0-0.029-0.001-0.053-0.003-0.07h0.093c0.001,0.021,0.004,0.041,0.004,0.064h0.002H5.196
				c0.017-0.025,0.043-0.072,0.11-0.072c0.094,0,0.122,0.072,0.122,0.16v0.281h-0.1V5.068c0-0.066-0.018-0.094-0.059-0.094
				c-0.052,0-0.068,0.047-0.068,0.104v0.254H5.101V4.969z"/>
			<path fill="#FFFFFF" d="M5.521,4.709h0.104v0.105H5.521V4.709z M5.522,4.898h0.102v0.434H5.522V4.898z"/>
			<polygon fill="#FFFFFF" points="5.694,5.242 5.872,4.975 5.7,4.975 5.7,4.898 5.971,4.898 5.971,4.986 5.798,5.252 5.976,5.252 
				5.976,5.332 5.694,5.332 			"/>
			<path fill="#FFFFFF" d="M6.059,4.92C6.088,4.906,6.127,4.891,6.19,4.891c0.129,0,0.159,0.064,0.159,0.174v0.191
				c0,0.029,0.003,0.059,0.006,0.076H6.264C6.26,5.314,6.26,5.293,6.26,5.273H6.258C6.232,5.307,6.202,5.338,6.142,5.338
				c-0.063,0-0.124-0.047-0.124-0.129c0-0.119,0.092-0.146,0.218-0.146h0.021V5.047c0-0.045-0.021-0.086-0.077-0.086
				c-0.05,0-0.094,0.027-0.113,0.043L6.059,4.92z M6.256,5.119H6.247c-0.085,0-0.138,0.018-0.138,0.082
				c0,0.041,0.024,0.066,0.063,0.066c0.06,0,0.082-0.047,0.082-0.125L6.256,5.119L6.256,5.119z"/>
			<path fill="#FFFFFF" d="M6.717,5.322C6.693,5.332,6.66,5.34,6.619,5.34c-0.139,0-0.195-0.102-0.195-0.227
				c0-0.123,0.062-0.223,0.2-0.223c0.03,0,0.066,0.01,0.086,0.018L6.705,4.99c-0.02-0.01-0.043-0.02-0.07-0.02
				c-0.076,0-0.108,0.053-0.108,0.145c0,0.082,0.037,0.145,0.113,0.145c0.024,0,0.057-0.014,0.07-0.021L6.717,5.322z"/>
			<path fill="#FFFFFF" d="M6.78,4.709h0.104v0.105H6.78V4.709z M6.781,4.898h0.102v0.434H6.781V4.898z"/>
			<path fill="#FFFFFF" d="M7.147,4.891c0.084,0,0.183,0.045,0.183,0.224c0,0.182-0.099,0.227-0.183,0.227S6.966,5.295,6.966,5.113
				C6.966,4.936,7.063,4.891,7.147,4.891 M7.147,5.264c0.064,0,0.079-0.076,0.079-0.149c0-0.072-0.015-0.15-0.079-0.15
				c-0.063,0-0.08,0.078-0.08,0.15C7.067,5.188,7.085,5.264,7.147,5.264 M7.151,4.727h0.095L7.163,4.848H7.099L7.151,4.727z"/>
			<path fill="#FFFFFF" d="M7.402,4.969c0-0.029-0.001-0.053-0.003-0.07h0.095c0.001,0.021,0.003,0.041,0.003,0.064h0.002l0,0
				C7.511,4.938,7.54,4.891,7.606,4.891c0.095,0,0.122,0.072,0.122,0.16v0.281H7.63V5.068c0-0.066-0.019-0.094-0.059-0.094
				c-0.052,0-0.069,0.047-0.069,0.104v0.254H7.401L7.402,4.969L7.402,4.969z"/>
			<path fill="#FFFFFF" d="M3.503,5.482h0.16c0.114,0,0.176,0.067,0.176,0.182c0,0.113-0.063,0.18-0.176,0.18h-0.06v0.23H3.503
				V5.482L3.503,5.482z M3.643,5.762c0.064,0,0.092-0.035,0.092-0.1S3.708,5.566,3.643,5.566H3.604V5.76h0.039V5.762z"/>
			<path fill="#FFFFFF" d="M3.88,5.666C3.908,5.65,3.946,5.633,4.011,5.633c0.128,0,0.158,0.066,0.158,0.174v0.191
				c0,0.031,0.003,0.063,0.006,0.076h-0.09C4.081,6.059,4.081,6.035,4.081,6.014H4.079C4.053,6.051,4.021,6.08,3.963,6.08
				c-0.064,0-0.124-0.047-0.124-0.127c0-0.119,0.091-0.148,0.217-0.148h0.021V5.787c0-0.043-0.021-0.08-0.077-0.08
				c-0.051,0-0.096,0.023-0.113,0.041L3.88,5.666z M4.077,5.859H4.067c-0.085,0-0.136,0.02-0.136,0.084
				c0,0.041,0.024,0.065,0.063,0.065c0.06,0,0.082-0.047,0.082-0.125L4.077,5.859L4.077,5.859z"/>
			<path fill="#FFFFFF" d="M4.257,5.709c0-0.023-0.001-0.053-0.003-0.07h0.093c0,0.021,0.002,0.047,0.002,0.066h0.002H4.35
				C4.365,5.68,4.393,5.631,4.46,5.631c0.094,0,0.122,0.074,0.122,0.162v0.281H4.482V5.813c0-0.067-0.017-0.098-0.058-0.098
				c-0.052,0-0.07,0.049-0.07,0.105v0.254h-0.1L4.257,5.709L4.257,5.709z"/>
			<path fill="#FFFFFF" d="M4.688,5.666C4.717,5.65,4.756,5.633,4.819,5.633c0.128,0,0.158,0.066,0.158,0.174v0.191
				c0,0.031,0.003,0.063,0.006,0.076h-0.09C4.888,6.059,4.888,6.035,4.888,6.014H4.887C4.861,6.051,4.831,6.08,4.771,6.08
				c-0.063,0-0.124-0.047-0.124-0.127c0-0.119,0.091-0.148,0.217-0.148h0.021V5.787c0-0.043-0.021-0.08-0.077-0.08
				c-0.05,0-0.094,0.023-0.113,0.041L4.688,5.666z M4.885,5.859H4.876c-0.085,0-0.138,0.02-0.138,0.084
				c0,0.041,0.025,0.065,0.063,0.065c0.06,0,0.082-0.047,0.082-0.125L4.885,5.859L4.885,5.859z"/>
			<path fill="#FFFFFF" d="M5.063,5.709c0-0.029-0.002-0.057-0.003-0.07h0.102C5.162,5.66,5.164,5.686,5.164,5.707h0.002
				C5.18,5.672,5.213,5.631,5.269,5.631c0.07,0,0.092,0.045,0.104,0.07c0.021-0.031,0.05-0.07,0.109-0.07
				c0.09,0,0.119,0.068,0.119,0.174v0.271h-0.1V5.801c0-0.055-0.018-0.08-0.055-0.08c-0.044,0-0.065,0.043-0.065,0.09v0.267H5.285
				V5.801c0-0.055-0.019-0.08-0.056-0.08c-0.044,0-0.065,0.045-0.065,0.092v0.265H5.064L5.063,5.709L5.063,5.709z"/>
			<path fill="#FFFFFF" d="M5.988,6.053C5.968,6.063,5.925,6.08,5.864,6.08c-0.133,0-0.189-0.1-0.189-0.219
				c0-0.129,0.063-0.23,0.17-0.23c0.089,0,0.165,0.057,0.165,0.232v0.02h-0.24c0,0.074,0.028,0.119,0.105,0.119
				c0.061,0,0.09-0.018,0.106-0.031L5.988,6.053z M5.914,5.82c0-0.078-0.025-0.115-0.069-0.115c-0.053,0-0.074,0.059-0.074,0.115
				H5.914z"/>
			<path fill="#FFFFFF" d="M6.085,5.709c0-0.023,0-0.053-0.003-0.07h0.09c0,0.025,0.003,0.055,0.003,0.08h0.002
				C6.189,5.686,6.22,5.631,6.281,5.631c0.009,0,0.013,0.002,0.019,0.004v0.098C6.29,5.729,6.28,5.727,6.27,5.727
				c-0.041,0-0.086,0.027-0.086,0.109v0.238h-0.1L6.085,5.709L6.085,5.709z"/>
			<path fill="#FFFFFF" d="M6.368,5.453h0.104v0.105H6.368V5.453z M6.37,5.639h0.1v0.437h-0.1V5.639z"/>
			<path fill="#FFFFFF" d="M6.844,6.064C6.821,6.072,6.787,6.082,6.747,6.082c-0.138,0-0.194-0.1-0.194-0.225s0.061-0.228,0.2-0.228
				c0.03,0,0.066,0.013,0.086,0.019L6.834,5.732c-0.02-0.01-0.042-0.021-0.07-0.021c-0.076,0-0.108,0.055-0.108,0.146
				c0,0.082,0.037,0.146,0.113,0.146c0.024,0,0.058-0.012,0.07-0.022L6.844,6.064z"/>
			<path fill="#FFFFFF" d="M6.921,5.666C6.948,5.65,6.987,5.633,7.052,5.633c0.128,0,0.158,0.066,0.158,0.174v0.191
				c0,0.031,0.003,0.063,0.005,0.076h-0.09C7.121,6.059,7.12,6.035,7.12,6.014H7.118C7.094,6.051,7.061,6.08,7.002,6.08
				c-0.064,0-0.124-0.047-0.124-0.127c0-0.119,0.092-0.148,0.218-0.148h0.021V5.787c0-0.043-0.021-0.08-0.077-0.08
				c-0.051,0-0.095,0.023-0.113,0.041L6.921,5.666z M7.116,5.859h-0.01c-0.085,0-0.136,0.02-0.136,0.084
				c0,0.041,0.025,0.065,0.064,0.065c0.059,0,0.079-0.047,0.079-0.125V5.859H7.116z"/>
			<path fill="#FFFFFF" d="M7.297,5.709c0-0.023,0-0.053-0.003-0.07h0.093c0,0.021,0.003,0.047,0.003,0.066h0.002l0,0
				c0.014-0.025,0.042-0.074,0.11-0.074c0.094,0,0.122,0.074,0.122,0.162v0.281H7.524V5.813c0-0.067-0.017-0.098-0.057-0.098
				c-0.052,0-0.071,0.049-0.071,0.105v0.254h-0.1L7.297,5.709L7.297,5.709z"/>
			<path fill="#FFFFFF" d="M7.729,5.666C7.758,5.65,7.797,5.633,7.86,5.633c0.128,0,0.158,0.066,0.158,0.174v0.191
				c0,0.031,0.004,0.063,0.006,0.076h-0.09C7.93,6.059,7.929,6.035,7.929,6.014H7.927C7.902,6.051,7.872,6.08,7.812,6.08
				c-0.063,0-0.124-0.047-0.124-0.127c0-0.119,0.092-0.148,0.217-0.148h0.021V5.787c0-0.043-0.021-0.08-0.077-0.08
				c-0.05,0-0.094,0.023-0.113,0.041L7.729,5.666z M7.925,5.859H7.916c-0.085,0-0.137,0.02-0.137,0.084
				c0,0.041,0.024,0.065,0.063,0.065c0.06,0,0.081-0.047,0.081-0.125L7.925,5.859L7.925,5.859z"/>
			<path fill="#FFFFFF" d="M3.833,6.184v0.56c0,0.032,0.001,0.059,0.003,0.075H3.743C3.741,6.803,3.739,6.779,3.739,6.75H3.737
				C3.721,6.787,3.691,6.824,3.628,6.824c-0.104,0-0.146-0.104-0.146-0.225c0-0.144,0.056-0.226,0.145-0.226
				c0.059,0,0.092,0.035,0.104,0.065h0.001V6.18h0.102V6.184z M3.653,6.746c0.061,0,0.079-0.064,0.079-0.148
				S3.711,6.453,3.655,6.453c-0.056,0-0.073,0.057-0.073,0.143C3.582,6.695,3.596,6.746,3.653,6.746"/>
			<path fill="#FFFFFF" d="M4.222,6.797c-0.02,0.008-0.063,0.027-0.124,0.027c-0.133,0-0.189-0.102-0.189-0.219
				c0-0.131,0.064-0.23,0.171-0.23c0.089,0,0.166,0.055,0.166,0.232v0.02H4.006c0,0.074,0.027,0.117,0.104,0.117
				c0.063,0,0.091-0.018,0.108-0.031L4.222,6.797z M4.147,6.563c0-0.078-0.022-0.117-0.067-0.117c-0.055,0-0.074,0.062-0.074,0.117
				H4.147z"/>
			<rect x="4.529" y="6.184" fill="#FFFFFF" width="0.102" height="0.635"/>
			<path fill="#FFFFFF" d="M4.744,6.406c0.027-0.014,0.066-0.031,0.131-0.031c0.128,0,0.157,0.064,0.157,0.176V6.74
				c0,0.033,0.004,0.061,0.007,0.078H4.948C4.944,6.798,4.943,6.779,4.943,6.757H4.941C4.917,6.793,4.885,6.822,4.825,6.822
				c-0.063,0-0.123-0.045-0.123-0.127c0-0.117,0.091-0.146,0.218-0.146h0.02V6.531c0-0.043-0.02-0.084-0.078-0.084
				c-0.05,0-0.093,0.027-0.111,0.043L4.744,6.406z M4.94,6.605H4.931c-0.084,0-0.136,0.018-0.136,0.082
				c0,0.039,0.023,0.063,0.063,0.063c0.061,0,0.081-0.047,0.081-0.123L4.94,6.605L4.94,6.605z"/>
			<path fill="#FFFFFF" d="M5.332,6.703C5.352,6.717,5.395,6.74,5.45,6.74c0.046,0,0.086-0.027,0.086-0.086
				c0-0.043-0.024-0.063-0.073-0.09L5.41,6.535c-0.057-0.033-0.093-0.08-0.093-0.156c0-0.104,0.082-0.16,0.178-0.16
				c0.06,0,0.101,0.016,0.115,0.021L5.606,6.332C5.582,6.32,5.549,6.305,5.502,6.305c-0.052,0-0.078,0.029-0.078,0.07
				c0,0.043,0.029,0.063,0.059,0.08L5.544,6.49c0.064,0.039,0.098,0.076,0.098,0.16c0,0.119-0.082,0.178-0.188,0.178
				c-0.059,0-0.101-0.01-0.127-0.027L5.332,6.703z"/>
			<path fill="#FFFFFF" d="M5.74,6.406c0.028-0.014,0.067-0.031,0.132-0.031c0.129,0,0.157,0.064,0.157,0.176V6.74
				c0,0.033,0.004,0.061,0.008,0.078H5.944C5.94,6.799,5.939,6.779,5.939,6.758H5.937C5.914,6.793,5.882,6.822,5.822,6.822
				c-0.063,0-0.124-0.045-0.124-0.127c0-0.117,0.094-0.146,0.22-0.146h0.021V6.531c0-0.043-0.021-0.084-0.077-0.084
				c-0.05,0-0.094,0.027-0.111,0.043L5.74,6.406z M5.936,6.605H5.927c-0.085,0-0.136,0.018-0.136,0.082
				c0,0.039,0.023,0.063,0.063,0.063c0.061,0,0.081-0.047,0.081-0.123L5.936,6.605L5.936,6.605z"/>
			<rect x="6.127" y="6.184" fill="#FFFFFF" width="0.1" height="0.635"/>
			<path fill="#FFFFFF" d="M6.648,6.746c0,0.027,0.001,0.053,0.003,0.072H6.557c0-0.021-0.003-0.045-0.003-0.068H6.552h0.001
				C6.535,6.783,6.51,6.824,6.443,6.824c-0.094,0-0.122-0.074-0.122-0.162V6.383h0.102v0.262c0,0.064,0.018,0.095,0.06,0.095
				c0.055,0,0.068-0.052,0.068-0.105v-0.25h0.1L6.648,6.746L6.648,6.746z"/>
			<path fill="#FFFFFF" d="M7.073,6.184v0.56c0,0.032,0,0.059,0.003,0.075H6.982C6.98,6.803,6.979,6.779,6.979,6.75H6.977
				c-0.016,0.037-0.046,0.074-0.11,0.074c-0.104,0-0.146-0.104-0.146-0.225c0-0.144,0.054-0.226,0.143-0.226
				c0.061,0,0.094,0.035,0.106,0.065h0.002V6.18h0.101V6.184z M6.894,6.746c0.06,0,0.079-0.064,0.079-0.148S6.952,6.453,6.896,6.453
				c-0.055,0-0.075,0.057-0.075,0.143C6.821,6.695,6.837,6.746,6.894,6.746"/>
			<rect x="11.207" y="6.27" fill="#FFFFFF" width="5.239" height="0.025"/>
			<path fill="#FFFFFF" d="M12.479,5.209v-0.17c0-0.1-0.021-0.162-0.134-0.162c-0.054,0-0.087,0.018-0.11,0.029h-0.003l0.006,0.086
				l0.006-0.004c0.015-0.014,0.051-0.039,0.093-0.039c0.054,0,0.061,0.051,0.061,0.072v0.012h-0.014
				c-0.086,0-0.186,0.016-0.186,0.137c0,0.078,0.054,0.119,0.105,0.119c0.049,0,0.075-0.025,0.095-0.055
				c0,0.016,0.001,0.033,0.004,0.047l0.001,0.002h0.081V5.281C12.482,5.266,12.479,5.24,12.479,5.209 M12.396,5.109
				c0,0.074-0.02,0.106-0.063,0.106c-0.03,0-0.051-0.021-0.051-0.057c0-0.052,0.031-0.07,0.108-0.07h0.004L12.396,5.109
				L12.396,5.109z M12.065,4.879l-0.001,0.029c0,0-0.001,0.021-0.002,0.029c-0.016-0.031-0.041-0.063-0.09-0.063
				c-0.081,0-0.127,0.074-0.127,0.207c0,0.188,0.095,0.198,0.123,0.198c0.05,0,0.075-0.03,0.089-0.059v0.025
				c0,0.059-0.01,0.121-0.087,0.121c-0.03,0-0.064-0.012-0.1-0.031l-0.005-0.004L11.86,5.424h0.002
				c0.039,0.018,0.079,0.025,0.119,0.025c0.146,0,0.161-0.113,0.161-0.217V4.945l0.003-0.066l-0.003-0.002h-0.078L12.065,4.879
				L12.065,4.879z M11.987,5.207c-0.021,0-0.05-0.033-0.05-0.129c0-0.084,0.021-0.123,0.059-0.123c0.013,0,0.021,0.002,0.031,0.016
				c0.021,0.021,0.03,0.057,0.03,0.105C12.057,5.168,12.037,5.207,11.987,5.207 M12.727,4.877c-0.052,0-0.078,0.037-0.091,0.061
				c0-0.014,0-0.026,0-0.026l-0.002-0.029h-0.003H12.55v0.009c0.002,0.016,0.004,0.034,0.004,0.063v0.33h0.088V5.055
				c0-0.035,0.008-0.093,0.056-0.093c0.031,0,0.044,0.024,0.044,0.084v0.238h0.091V5.027C12.832,4.926,12.796,4.877,12.727,4.877
				 M14.389,4.727h-0.086l-0.045,0.117h0.06L14.389,4.727z M11.392,4.734c-0.091,0-0.188,0.072-0.188,0.276
				c0,0.205,0.098,0.277,0.188,0.277s0.188-0.072,0.188-0.277C11.58,4.807,11.483,4.734,11.392,4.734 M11.392,5.209
				c-0.062,0-0.095-0.068-0.095-0.195s0.033-0.195,0.095-0.195s0.093,0.068,0.093,0.195S11.453,5.209,11.392,5.209 M11.8,4.877
				c-0.051,0-0.075,0.041-0.085,0.066c-0.001-0.012-0.002-0.027-0.002-0.027l-0.001-0.035H11.71h-0.078v0.006
				c0.002,0.016,0.003,0.035,0.003,0.064v0.332h0.089V5.063c0-0.086,0.052-0.092,0.068-0.092c0.007,0,0.014,0,0.021,0.004h0.004
				V4.879L11.81,4.877H11.8z M13.987,4.814h0.093V4.711h-0.093V4.814z M13.923,5.193c-0.011,0.008-0.037,0.018-0.058,0.018
				c-0.058,0-0.091-0.049-0.091-0.127c0-0.088,0.028-0.129,0.085-0.129c0.021,0,0.041,0.008,0.059,0.02l0.005,0.002l0.005-0.082
				l-0.001-0.002c-0.015-0.006-0.046-0.016-0.074-0.016c-0.104,0-0.17,0.076-0.17,0.207c0,0.127,0.063,0.205,0.165,0.205
				c0.041,0,0.069-0.008,0.083-0.016h0.002l-0.005-0.084L13.923,5.193z M13.989,5.283h0.09v-0.4h-0.09V5.283z M14.302,4.877
				c-0.045,0-0.154,0.02-0.154,0.205c0,0.182,0.098,0.207,0.154,0.207s0.154-0.025,0.154-0.207
				C14.457,4.898,14.35,4.877,14.302,4.877 M14.302,5.215c-0.05,0-0.063-0.072-0.063-0.133s0.014-0.133,0.063-0.133
				c0.042,0,0.063,0.045,0.063,0.133S14.344,5.215,14.302,5.215 M12.912,5.283h0.089v-0.4h-0.089V5.283z M12.91,4.814h0.092V4.711
				H12.91V4.814z M13.619,5.209v-0.17c0-0.1-0.022-0.162-0.136-0.162c-0.055,0-0.088,0.018-0.108,0.029h-0.002l0.006,0.086
				l0.004-0.004c0.016-0.014,0.051-0.039,0.093-0.039c0.055,0,0.062,0.051,0.062,0.072v0.012h-0.015
				c-0.086,0-0.184,0.016-0.184,0.137c0,0.078,0.052,0.119,0.104,0.119c0.051,0,0.075-0.025,0.096-0.055
				c0,0.016,0.001,0.033,0.005,0.047v0.002h0.081V5.281C13.622,5.266,13.619,5.24,13.619,5.209 M13.535,5.109
				c0,0.074-0.021,0.106-0.063,0.106c-0.03,0-0.05-0.021-0.05-0.057c0-0.052,0.033-0.07,0.107-0.07h0.006V5.109z M13.298,4.967
				V4.879h-0.231v0.08h0.142c-0.008,0.012-0.146,0.238-0.146,0.238v0.084h0.241V5.205h-0.146
				C13.162,5.197,13.298,4.967,13.298,4.967 M14.692,4.877c-0.052,0-0.076,0.037-0.089,0.061c-0.001-0.014-0.002-0.026-0.002-0.026
				L14.6,4.883h-0.003h-0.082l0.002,0.006c0.002,0.016,0.002,0.035,0.002,0.064v0.33h0.089v-0.23c0-0.035,0.008-0.092,0.058-0.092
				c0.029,0,0.043,0.025,0.043,0.084v0.238h0.09V5.027C14.798,4.926,14.762,4.877,14.692,4.877"/>
			<path fill="#FFFFFF" d="M13.142,5.98V5.816c0-0.092-0.021-0.154-0.127-0.154c-0.051,0-0.083,0.018-0.104,0.027L12.91,5.691
				l0.005,0.08l0.005-0.004c0.014-0.015,0.047-0.035,0.086-0.035c0.052,0,0.058,0.049,0.058,0.065v0.015H13.05
				c-0.081,0-0.174,0.014-0.174,0.129c0,0.072,0.051,0.113,0.101,0.113c0.045,0,0.071-0.025,0.089-0.054
				c0,0.017,0.001,0.031,0.004,0.045h0.001h0.076l-0.001-0.002C13.143,6.031,13.142,6.008,13.142,5.98 M13.063,5.883
				c0,0.07-0.02,0.104-0.061,0.104c-0.028,0-0.047-0.021-0.047-0.055c0-0.049,0.028-0.065,0.104-0.065h0.004V5.883z M12.215,5.662
				c-0.05,0-0.073,0.037-0.085,0.059c-0.001-0.012-0.001-0.027-0.001-0.027L12.127,5.67h-0.002h-0.076v0.002
				c0.001,0.016,0.001,0.037,0.001,0.063v0.314h0.084V5.828c0-0.031,0.007-0.084,0.053-0.084c0.031,0,0.041,0.021,0.041,0.078v0.227
				h0.085V5.807C12.314,5.709,12.28,5.662,12.215,5.662 M11.441,5.906c-0.004-0.018-0.089-0.371-0.089-0.371h-0.126v0.514h0.081
				V5.643c0.009,0.035,0.102,0.406,0.102,0.406h0.063c0,0,0.098-0.373,0.107-0.406v0.406h0.076V5.535h-0.124
				C11.532,5.535,11.446,5.889,11.441,5.906 M11.981,5.984V5.668h-0.083v0.217c0,0.041-0.009,0.09-0.051,0.09
				c-0.031,0-0.043-0.021-0.043-0.076V5.669h-0.083v0.246c0,0.092,0.033,0.144,0.098,0.144c0.051,0,0.071-0.033,0.085-0.06
				c0.001,0.008,0.002,0.024,0.002,0.024l0.002,0.023h0.003h0.075V6.045C11.983,6.031,11.981,6.01,11.981,5.984 M12.731,5.604h0.087
				V5.508h-0.087V5.604z M12.655,5.982V5.498H12.57v0.217c-0.011-0.021-0.032-0.053-0.083-0.053c-0.07,0-0.113,0.072-0.113,0.197
				c0,0.123,0.044,0.195,0.117,0.195c0.039,0,0.065-0.021,0.085-0.062c0,0.022,0.002,0.043,0.003,0.053l0,0h0.079l-0.002-0.002
				C12.655,6.031,12.655,6.01,12.655,5.982 M12.512,5.982c-0.04,0-0.054-0.033-0.054-0.125c0-0.084,0.018-0.123,0.055-0.123
				c0.05,0,0.058,0.078,0.058,0.123C12.57,5.914,12.561,5.982,12.512,5.982 M13.219,6.047h0.085V5.496h-0.085V6.047z M12.732,6.047
				h0.083V5.668h-0.083V6.047z M15.601,5.98V5.816c0-0.092-0.021-0.154-0.128-0.154c-0.051,0-0.083,0.018-0.104,0.027l-0.002,0.002
				l0.006,0.08l0.004-0.004c0.013-0.015,0.047-0.035,0.086-0.035c0.053,0,0.058,0.049,0.058,0.065v0.015H15.51
				c-0.082,0-0.175,0.014-0.175,0.129c0,0.072,0.051,0.113,0.1,0.113c0.047,0,0.071-0.025,0.089-0.054
				c0,0.017,0.001,0.031,0.004,0.045l0,0h0.077V6.045C15.604,6.029,15.601,6.006,15.601,5.98 M15.522,5.883
				c0,0.07-0.02,0.104-0.061,0.104c-0.028,0-0.046-0.021-0.046-0.055c0-0.049,0.028-0.065,0.104-0.065h0.003V5.883L15.522,5.883z
				 M16.103,5.984V5.668h-0.085v0.217c0,0.041-0.009,0.09-0.051,0.09c-0.031,0-0.043-0.021-0.043-0.076V5.669H15.84v0.246
				c0,0.092,0.034,0.144,0.099,0.144c0.049,0,0.071-0.033,0.085-0.06c0.001,0.01,0.001,0.024,0.001,0.024l0.002,0.023h0.002h0.077
				l-0.001-0.002C16.103,6.031,16.103,6.01,16.103,5.984 M15.679,6.047h0.084V5.496h-0.084V6.047z M16.445,6.045
				c-0.002-0.014-0.002-0.035-0.002-0.063V5.498h-0.085v0.217c-0.01-0.021-0.033-0.053-0.081-0.053
				c-0.072,0-0.114,0.072-0.114,0.197c0,0.123,0.044,0.195,0.115,0.195c0.04,0,0.067-0.021,0.085-0.062
				c0,0.022,0.001,0.043,0.001,0.053l0,0L16.445,6.045L16.445,6.045z M16.301,5.982c-0.04,0-0.054-0.033-0.054-0.125
				c0-0.084,0.017-0.123,0.056-0.123c0.049,0,0.057,0.078,0.057,0.123C16.358,5.914,16.349,5.982,16.301,5.982 M14.019,5.662
				c-0.081,0-0.138,0.084-0.138,0.201c0,0.092,0.042,0.191,0.153,0.191c0.049,0,0.084-0.019,0.099-0.023l0.002-0.002l-0.004-0.078
				l-0.004,0.002c-0.019,0.016-0.04,0.029-0.083,0.029c-0.056,0-0.078-0.029-0.079-0.099h0.188V5.863
				C14.151,5.699,14.08,5.662,14.019,5.662 M13.964,5.822c0.001-0.043,0.015-0.094,0.055-0.094c0.041,0,0.051,0.051,0.051,0.094
				H13.964z M14.385,6.049h0.084V5.492h-0.084V6.049z M13.821,5.982V5.498h-0.084v0.217c-0.011-0.021-0.033-0.053-0.083-0.053
				c-0.071,0-0.114,0.072-0.114,0.197c0,0.123,0.044,0.195,0.116,0.195c0.041,0,0.067-0.021,0.088-0.062
				c0,0.022,0.001,0.043,0.002,0.053l0,0h0.077l-0.001-0.002C13.821,6.031,13.821,6.01,13.821,5.982 M13.678,5.982
				c-0.04,0-0.055-0.033-0.055-0.125c0-0.084,0.019-0.123,0.056-0.123c0.05,0,0.058,0.078,0.058,0.123
				C13.737,5.914,13.726,5.982,13.678,5.982 M15.211,5.762l-0.047-0.033c-0.024-0.016-0.045-0.024-0.045-0.063
				c0-0.035,0.021-0.057,0.058-0.057c0.034,0,0.058,0.01,0.077,0.02l0.009,0.004l0.004-0.084L15.26,5.545
				c-0.016-0.006-0.047-0.016-0.09-0.016c-0.07,0-0.144,0.043-0.144,0.139c0,0.063,0.023,0.105,0.074,0.137l0.04,0.027
				c0.039,0.023,0.056,0.037,0.056,0.072c0,0.053-0.031,0.072-0.063,0.072c-0.047,0-0.082-0.023-0.092-0.031L15.04,5.941
				l-0.005,0.09h0.002c0.021,0.018,0.056,0.023,0.101,0.023c0.095,0,0.152-0.06,0.152-0.156C15.289,5.826,15.261,5.793,15.211,5.762
				 M14.795,5.98V5.816c0-0.092-0.021-0.154-0.127-0.154c-0.052,0-0.083,0.018-0.104,0.027l-0.002,0.002l0.005,0.08l0.004-0.004
				c0.015-0.015,0.05-0.035,0.087-0.035c0.054,0,0.059,0.049,0.059,0.065v0.015h-0.012c-0.082,0-0.177,0.014-0.177,0.129
				c0,0.072,0.053,0.113,0.102,0.113c0.047,0,0.07-0.025,0.09-0.054c0,0.017,0,0.031,0.004,0.045l0,0H14.8V6.045
				C14.798,6.031,14.795,6.008,14.795,5.98 M14.716,5.883c0,0.07-0.021,0.104-0.062,0.104c-0.027,0-0.047-0.021-0.047-0.055
				c0-0.049,0.03-0.065,0.104-0.065h0.003L14.716,5.883L14.716,5.883z"/>
			<path fill="#FFFFFF" d="M8.857,6.746c0.034,0,0.065,0.033,0.065,0.107c0,0.071-0.031,0.104-0.065,0.104S8.793,6.926,8.793,6.854
				C8.793,6.779,8.823,6.746,8.857,6.746 M8.857,6.932c0.021,0,0.035-0.021,0.035-0.078c0-0.057-0.015-0.076-0.035-0.076
				c-0.02,0-0.035,0.02-0.035,0.076C8.822,6.909,8.839,6.932,8.857,6.932"/>
			<polygon fill="#FFFFFF" points="8.946,6.75 9.029,6.75 9.029,6.779 8.976,6.779 8.976,6.836 9.026,6.836 9.026,6.867 
				8.976,6.867 8.976,6.955 8.946,6.955 			"/>
			<rect x="9.05" y="6.75" fill="#FFFFFF" width="0.031" height="0.205"/>
			<path fill="#FFFFFF" d="M9.215,6.951C9.209,6.955,9.193,6.959,9.178,6.959c-0.05,0-0.076-0.045-0.076-0.104
				c0-0.063,0.026-0.109,0.075-0.109c0.017,0,0.031,0.008,0.037,0.01v0.035C9.207,6.785,9.196,6.779,9.181,6.779
				c-0.025,0-0.046,0.021-0.046,0.076c0,0.053,0.021,0.074,0.046,0.074c0.015,0,0.024-0.007,0.032-0.013L9.215,6.951z"/>
			<rect x="9.234" y="6.75" fill="#FFFFFF" width="0.03" height="0.205"/>
			<polygon fill="#FFFFFF" points="9.295,6.75 9.332,6.75 9.385,6.914 9.386,6.914 9.386,6.75 9.414,6.75 9.414,6.955 9.378,6.955 
				9.322,6.795 9.322,6.795 9.322,6.955 9.295,6.955 			"/>
			<path fill="#FFFFFF" d="M9.524,6.908H9.468L9.457,6.955h-0.03L9.482,6.75h0.033l0.053,0.205H9.538L9.524,6.908z M9.518,6.877
				l-0.02-0.096l0,0L9.475,6.877H9.518z"/>
			<path fill="#FFFFFF" d="M9.635,6.75h0.051c0.029,0,0.049,0.018,0.049,0.055c0,0.027-0.013,0.047-0.03,0.051l0,0
				c0.007,0.002,0.013,0.004,0.019,0.021l0.021,0.078H9.712L9.694,6.891C9.69,6.873,9.682,6.869,9.672,6.869H9.665v0.086h-0.03V6.75
				L9.635,6.75z M9.677,6.838c0.017,0,0.027-0.01,0.027-0.031c0-0.021-0.011-0.027-0.027-0.027H9.666V6.84h0.012L9.677,6.838
				L9.677,6.838z"/>
			<polygon fill="#FFFFFF" points="9.762,6.75 9.849,6.75 9.849,6.779 9.793,6.779 9.793,6.836 9.845,6.836 9.845,6.865 
				9.793,6.865 9.793,6.926 9.851,6.926 9.851,6.955 9.762,6.955 			"/>
			<path fill="#FFFFFF" d="M9.94,6.84h0.055v0.109c-0.01,0.004-0.023,0.01-0.045,0.01c-0.054,0-0.08-0.045-0.08-0.105
				c0-0.063,0.026-0.106,0.08-0.106c0.02,0,0.033,0.006,0.039,0.01L9.988,6.791C9.978,6.783,9.966,6.779,9.95,6.779
				c-0.032,0-0.05,0.031-0.05,0.074c0,0.045,0.018,0.076,0.049,0.076c0.007,0,0.014-0.005,0.018-0.007V6.869H9.941L9.94,6.84
				L9.94,6.84z"/>
			<rect x="10.022" y="6.75" fill="#FFFFFF" width="0.03" height="0.205"/>
			<path fill="#FFFFFF" d="M10.14,6.746c0.035,0,0.066,0.033,0.066,0.107c0,0.071-0.031,0.104-0.066,0.104
				c-0.034,0-0.064-0.033-0.064-0.104C10.075,6.779,10.106,6.746,10.14,6.746 M10.14,6.932c0.021,0,0.035-0.021,0.035-0.078
				c0-0.057-0.015-0.076-0.035-0.076c-0.019,0-0.034,0.021-0.034,0.076C10.106,6.91,10.123,6.932,10.14,6.932"/>
			<polygon fill="#FFFFFF" points="10.229,6.75 10.265,6.75 10.319,6.914 10.319,6.914 10.319,6.75 10.348,6.75 10.348,6.955 
				10.311,6.955 10.257,6.795 10.257,6.795 10.257,6.955 10.229,6.955 			"/>
			<path fill="#FFFFFF" d="M10.46,6.908h-0.06L10.39,6.955h-0.031l0.058-0.205h0.031l0.054,0.205H10.47L10.46,6.908z M10.454,6.877
				l-0.021-0.096l0,0l-0.021,0.096H10.454z"/>
			<polygon fill="#FFFFFF" points="10.514,6.75 10.544,6.75 10.544,6.926 10.598,6.926 10.598,6.955 10.514,6.955 			"/>
			<path fill="#FFFFFF" d="M10.669,6.75h0.048c0.034,0,0.052,0.025,0.052,0.063c0,0.039-0.018,0.063-0.052,0.063h-0.018v0.08h-0.03
				V6.75z M10.711,6.846c0.019,0,0.026-0.01,0.026-0.033c0-0.021-0.009-0.033-0.026-0.033h-0.012v0.066H10.711z"/>
			<path fill="#FFFFFF" d="M10.852,6.908h-0.056l-0.014,0.047h-0.029l0.055-0.205h0.033l0.053,0.205h-0.031L10.852,6.908z
				 M10.845,6.877l-0.021-0.096h-0.002l-0.021,0.096H10.845z"/>
			<path fill="#FFFFFF" d="M10.905,6.75h0.055c0.027,0,0.049,0.018,0.049,0.055c0,0.027-0.014,0.047-0.032,0.051l0,0
				c0.006,0.002,0.013,0.004,0.021,0.021l0.021,0.078h-0.033l-0.017-0.064c-0.004-0.018-0.011-0.021-0.023-0.021h-0.007v0.086
				h-0.031L10.905,6.75L10.905,6.75z M10.948,6.838c0.019,0,0.027-0.01,0.027-0.031c0-0.021-0.01-0.027-0.027-0.027h-0.012V6.84
				h0.012V6.838z"/>
			<path fill="#FFFFFF" d="M11.115,6.908h-0.057l-0.011,0.047h-0.031l0.055-0.205h0.034l0.054,0.205h-0.03L11.115,6.908z
				 M11.109,6.877l-0.021-0.096h-0.001l-0.022,0.096H11.109z"/>
			<polygon fill="#FFFFFF" points="11.226,6.75 11.256,6.75 11.256,6.926 11.311,6.926 11.311,6.955 11.226,6.955 			"/>
			<path fill="#FFFFFF" d="M11.41,6.908h-0.059L11.34,6.955h-0.031l0.056-0.205h0.034l0.054,0.205h-0.031L11.41,6.908z
				 M11.402,6.877l-0.021-0.096l0,0l-0.022,0.096H11.402z"/>
			<path fill="#FFFFFF" d="M11.464,6.916c0.006,0.006,0.018,0.014,0.035,0.014c0.013,0,0.023-0.01,0.023-0.031
				c0-0.014-0.007-0.021-0.021-0.028l-0.017-0.013c-0.017-0.01-0.026-0.024-0.026-0.057c0-0.035,0.022-0.055,0.052-0.055
				c0.018,0,0.03,0.008,0.035,0.01l-0.002,0.031c-0.006-0.004-0.019-0.008-0.032-0.008c-0.013,0-0.022,0.008-0.022,0.02
				c0,0.018,0.011,0.023,0.02,0.029l0.017,0.012c0.021,0.016,0.03,0.029,0.03,0.057c0,0.043-0.023,0.063-0.056,0.063
				c-0.019,0-0.03-0.004-0.038-0.01L11.464,6.916z"/>
			<path fill="#FFFFFF" d="M10.615,4.91c0.043,0.049,0.117,0.08,0.161,0.131c-0.03-0.15-0.146-0.273-0.284-0.303
				C10.559,4.787,10.573,4.859,10.615,4.91 M8.969,5.291c0.094-0.207,0.235-0.162,0.295-0.357C9.229,4.992,9.075,5.018,9.005,5.172
				c0.036-0.092,0.018-0.23,0.079-0.309C8.898,5,8.977,5.221,8.969,5.291 M9.138,5.783c0.018,0.078-0.032,0.195,0.047,0.305
				c-0.083-0.09-0.256-0.113-0.327-0.254c0.088,0.34,0.318,0.271,0.423,0.348C9.195,6.055,9.266,5.975,9.138,5.783 M9.112,5.998
				C9.061,5.807,9.152,5.74,9.084,5.559C9.077,5.66,9.008,5.711,9.053,5.9C8.972,5.742,8.845,5.682,8.808,5.57
				C8.811,5.869,9.052,5.914,9.112,5.998 M9.481,6.316C9.411,6.216,9.459,6.164,9.26,5.986c0.042,0.063,0,0.145,0.132,0.273
				C9.261,6.182,9.081,6.215,8.994,6.111C9.143,6.398,9.407,6.281,9.481,6.316 M10.445,6.26c0.135-0.129,0.092-0.211,0.135-0.273
				c-0.199,0.179-0.151,0.234-0.224,0.33c0.075-0.034,0.338,0.082,0.488-0.205C10.758,6.215,10.578,6.182,10.445,6.26 M10.654,6.088
				c0.078-0.109,0.029-0.227,0.046-0.307c-0.129,0.191-0.059,0.273-0.144,0.398c0.104-0.076,0.334-0.009,0.422-0.349
				C10.908,5.973,10.735,5.998,10.654,6.088 M10.336,6.33c-0.078-0.02-0.159-0.031-0.218-0.031
				c-0.075-0.002-0.143,0.014-0.199,0.033C9.861,6.311,9.795,6.297,9.72,6.299c-0.06,0-0.14,0.012-0.218,0.031
				c-0.12,0.031-0.226,0.059-0.313,0.01c0.086,0.078,0.188,0.105,0.333,0.092c0.122-0.014,0.22-0.074,0.333-0.074
				c0.002,0,0.003,0,0.005,0C9.739,6.418,9.672,6.504,9.672,6.504L9.727,6.51c0,0,0.06-0.113,0.191-0.145
				C10.052,6.396,10.11,6.51,10.11,6.51l0.057-0.006c0,0-0.068-0.086-0.188-0.146c0.001,0,0.003,0,0.005,0
				c0.114,0,0.212,0.06,0.333,0.074c0.146,0.014,0.247-0.014,0.333-0.092C10.559,6.387,10.455,6.361,10.336,6.33 M9.091,5.352
				C9.043,5.445,8.966,5.467,8.973,5.662c-0.042-0.174-0.141-0.238-0.14-0.35C8.764,5.602,8.948,5.637,8.997,5.758
				C8.989,5.584,9.1,5.549,9.091,5.352 M9.16,5.127C9.142,5.15,9.131,5.162,9.085,5.201C9.022,5.25,8.972,5.318,8.952,5.416
				C8.957,5.311,8.89,5.158,8.934,5.047C8.765,5.285,8.943,5.43,8.949,5.516C8.995,5.35,9.094,5.348,9.16,5.127 M10.886,5.416
				c-0.021-0.098-0.071-0.166-0.133-0.217c-0.045-0.037-0.06-0.049-0.075-0.072c0.065,0.221,0.167,0.223,0.21,0.389
				c0.006-0.09,0.185-0.229,0.016-0.469C10.947,5.158,10.882,5.311,10.886,5.416 M11.03,5.57c-0.035,0.111-0.161,0.17-0.243,0.328
				c0.046-0.188-0.023-0.238-0.03-0.342c-0.068,0.184,0.021,0.25-0.03,0.438C10.788,5.914,11.027,5.869,11.03,5.57 M10.748,5.352
				c-0.011,0.197,0.102,0.232,0.095,0.406c0.047-0.121,0.229-0.156,0.162-0.445c0.001,0.111-0.1,0.177-0.139,0.353
				C10.874,5.467,10.797,5.445,10.748,5.352 M9.223,4.91C9.265,4.859,9.28,4.787,9.346,4.738C9.21,4.768,9.094,4.891,9.062,5.041
				C9.106,4.99,9.18,4.959,9.223,4.91 M10.575,4.932c0.061,0.195,0.201,0.152,0.297,0.357c-0.013-0.068,0.066-0.291-0.116-0.428
				c0.062,0.078,0.043,0.219,0.079,0.309C10.763,5.018,10.608,4.992,10.575,4.932 M10.097,5.043
				c-0.036-0.016-0.073-0.025-0.112-0.031c0,0.01,0,0.021,0,0.023c0.036,0.008,0.071,0.016,0.104,0.031
				C10.093,5.061,10.095,5.051,10.097,5.043 M10.068,4.801l0.008-0.008L10.06,4.787l-0.038-0.002l-0.01,0.008L9.99,4.791v0.006
				c0.016,0.002,0.028,0.004,0.039,0.004h0.021H10.068z M9.996,5.613c0-0.006-0.01-0.014-0.021-0.018H9.972
				c0,0.004,0,0.028-0.001,0.04C9.987,5.631,9.996,5.623,9.996,5.613 M9.559,5.135C9.56,5.129,9.56,5.125,9.561,5.121
				C9.557,5.123,9.552,5.123,9.547,5.123L9.559,5.135z M9.92,6.242c0.425,0,0.769-0.346,0.769-0.768
				c0-0.398-0.303-0.729-0.689-0.769c0,0.002,0,0.004-0.001,0.004C9.996,4.723,9.995,4.729,9.994,4.732
				c0.173,0.018,0.328,0.096,0.445,0.211l-0.085,0.084l0.002-0.017l-0.01-0.004l-0.016-0.002l0.003-0.01L10.323,4.96l-0.021-0.021
				l-0.066-0.035L10.231,4.91l-0.012,0.004c0.021,0.033,0.035,0.072,0.035,0.111c0,0.006,0,0.01,0,0.014l0.033,0.043l-0.017,0.004
				l0.01,0.016l-0.027,0.027l-0.011-0.021c-0.007,0.017-0.015,0.029-0.022,0.041c0.002,0.004,0.004,0.006,0.006,0.009l-0.089,0.09
				c-0.005-0.006-0.011-0.011-0.017-0.017c-0.01,0.006-0.019,0.009-0.025,0.013c0.002,0.002,0.004,0.004,0.007,0.006l-0.004,0.006
				l-0.01,0.004L10.085,5.27l-0.006-0.006L10.059,5.27l0.004,0.01l0.015-0.004h0.009V5.27l0.006-0.002l0.002-0.004l0.011-0.006
				h0.009c0.003,0.002,0.006,0.006,0.007,0.006l-0.036,0.035l-0.002-0.004l-0.037,0.006l-0.008,0.01l-0.01,0.002l0.023-0.022
				l-0.009-0.004L10.02,5.313h0.006v0.013l0.01,0.004l0.001,0.01l-0.015-0.002L10.01,5.338L9.976,5.322c0,0-0.001,0.086-0.002,0.129
				c0.077,0.027,0.158,0.064,0.158,0.162c0,0.043-0.02,0.078-0.055,0.102v0.002c-0.001,0-0.001,0-0.003,0l0,0
				c-0.002,0-0.003,0.004-0.004,0.004c-0.029,0.021-0.069,0.029-0.104,0.043V5.83c0.055,0.027,0.122,0.066,0.116,0.182
				c-0.001,0.027-0.014,0.035-0.021,0.039l0,0C10.03,6.059,9.998,6.064,9.963,6.068c0,0.009,0,0.015,0,0.021
				c0.146-0.01,0.281-0.072,0.383-0.17l0.089,0.09C10.301,6.141,10.12,6.219,9.92,6.219c-0.198,0-0.379-0.078-0.515-0.207
				l0.091-0.09c0.1,0.098,0.23,0.158,0.378,0.168c0-0.008,0-0.016,0-0.023C9.734,6.055,9.609,5.997,9.515,5.907l0.023-0.023
				L9.57,5.887l0.02-0.02l0.045,0.002L9.64,5.854L9.638,5.846c0.066,0.053,0.146,0.086,0.233,0.092c0-0.008,0-0.02-0.001-0.022
				C9.773,5.902,9.686,5.861,9.62,5.8l0.089-0.09C9.73,5.73,9.755,5.745,9.78,5.761c0.003-0.01,0.007-0.018,0.011-0.024
				c-0.022-0.01-0.044-0.023-0.063-0.041l0.089-0.09c0.017,0.012,0.031,0.02,0.048,0.024c0-0.008,0-0.019,0-0.024
				C9.854,5.6,9.843,5.593,9.836,5.587L9.86,5.561c-0.009-0.002-0.018-0.006-0.024-0.01l-0.02,0.02
				c-0.008-0.012-0.014-0.021-0.02-0.033c-0.018-0.006-0.03-0.016-0.044-0.023C9.696,5.479,9.669,5.426,9.669,5.364
				c0-0.052,0.015-0.087,0.037-0.117l-0.092-0.09c0.063-0.063,0.146-0.105,0.238-0.119c0-0.009,0-0.017-0.001-0.022
				C9.755,5.027,9.666,5.072,9.597,5.137L9.583,5.123C9.58,5.129,9.575,5.137,9.57,5.145l0.012,0.013
				c-0.077,0.079-0.125,0.19-0.126,0.309H9.329C9.331,5.313,9.391,5.17,9.491,5.068l0.041,0.039c0.001,0,0.004,0,0.006,0
				c0.007,0,0.015-0.002,0.021-0.006L9.51,5.049c0.027-0.025,0.056-0.051,0.088-0.07C9.6,4.971,9.601,4.961,9.603,4.959
				c0.002-0.004,0.01-0.014,0.021-0.023C9.575,4.959,9.531,4.994,9.493,5.031l-0.091-0.09C9.52,4.828,9.675,4.752,9.845,4.734
				c0-0.004,0-0.006,0-0.006C9.844,4.723,9.842,4.716,9.841,4.708C9.455,4.75,9.153,5.076,9.153,5.475
				C9.151,5.896,9.497,6.242,9.92,6.242 M10.087,5.711V5.709V5.711L10.087,5.711 M10.459,4.961c0.126,0.131,0.204,0.311,0.206,0.506
				h-0.126c-0.001-0.098-0.025-0.188-0.065-0.271V5.193l0.009,0.006l0.002-0.008L10.462,5.15l-0.027-0.035l-0.032-0.027
				c-0.01-0.012-0.021-0.025-0.031-0.037L10.459,4.961z M10.298,5.123l0.03,0.002l0.007,0.008l-0.004,0.014l0.042,0.027l0.009-0.002
				l0.053,0.063l0.023-0.008c0.033,0.072,0.053,0.152,0.054,0.24h-0.126c0-0.031-0.005-0.064-0.012-0.096l0.006-0.01l0.007-0.037
				l-0.005-0.043L10.365,5.23l-0.033-0.049l0.009,0.002l0.004-0.002l-0.03-0.021l-0.001,0.006l0.028,0.041l0.015,0.033l0.015,0.033
				l0.003,0.02l0.005,0.037l-0.012,0.002c0,0-0.013-0.021-0.017-0.033l0.005-0.008l-0.01-0.014V5.26l-0.007-0.01l-0.011,0.002
				c-0.005-0.008-0.009-0.014-0.013-0.02l0.007,0.002h0.003l-0.004-0.008l0.01-0.006l-0.004-0.007l-0.014,0.007L10.317,5.2
				L10.31,5.195L10.303,5.21c-0.014-0.019-0.029-0.039-0.046-0.058L10.298,5.123z M10.272,5.42l0.023-0.014l0.021-0.004l0.005-0.012
				l0.014-0.009L10.34,5.37l0.004-0.019c0.001,0.004,0.003,0.013,0.005,0.021L10.338,5.41v0.012L10.354,5.4
				c0.003,0.02,0.005,0.043,0.006,0.063H10.25l-0.002-0.01l0.013-0.013l0.002-0.004l0.006-0.006l0.015-0.002l0.003-0.006
				L10.272,5.42z M10.121,5.332l0.012-0.002V5.328L10.121,5.32l0.004-0.025l0.013-0.014c0.009,0.012,0.017,0.021,0.023,0.031
				l-0.006,0.016l-0.013-0.01l-0.009,0.004l0.004,0.008h0.005l-0.006,0.014l-0.003-0.006L10.121,5.332z M10.17,5.752l-0.027-0.01
				l-0.008,0.004L10.12,5.734l-0.017-0.006c0.007-0.006,0.017-0.013,0.021-0.017l0.021,0.017l0.02,0.01l0.008,0.008L10.17,5.752z
				 M10.155,5.264l0.09-0.09c0.021,0.023,0.039,0.049,0.056,0.076l-0.012,0.002l0.001,0.021l0.031,0.02
				c0.01,0.02,0.017,0.037,0.021,0.059l-0.006,0.008l-0.014,0.007l-0.003,0.02l-0.008,0.007L10.305,5.4L10.3,5.396l-0.012-0.002
				l0.007-0.011L10.3,5.361l0.008-0.006l-0.023-0.023l-0.02,0.008L10.26,5.357l-0.01,0.012l-0.013-0.01l-0.005-0.01l0.007-0.004
				l0.005,0.008l0.006-0.002l-0.002-0.015H10.24v0.004h-0.006l-0.026-0.03l-0.011-0.009l0.006-0.004l0.008-0.004l-0.007-0.002
				c0,0-0.012,0.002-0.013,0.002l0.005,0.008h-0.014C10.175,5.289,10.166,5.277,10.155,5.264 M10.2,5.74l-0.014-0.014l0.01-0.013
				l0.013-0.021l-0.004-0.008l0.008-0.019V5.65l-0.005-0.019L10.196,5.63l-0.004,0.011l-0.007-0.002
				c0.009-0.017,0.021-0.029,0.027-0.048l0.011-0.006l0.006-0.01l0.003,0.004L10.24,5.57l-0.007-0.006l0.006-0.002l0.012,0.004h0.02
				l0.011-0.006l0.032-0.01l-0.007-0.012l-0.002-0.012l0.017,0.006l0.006-0.002L10.323,5.52l-0.02,0.008L10.28,5.523L10.263,5.49
				h0.097c-0.004,0.109-0.05,0.211-0.121,0.287l-0.014-0.017l0.006-0.02l-0.01-0.037L10.2,5.74z M10.218,5.988l0.012-0.027
				l-0.005-0.01l0.02-0.016V5.925l-0.017-0.012l0.014-0.022l0.019-0.025L10.24,5.848h-0.015l-0.009-0.016
				c0.007-0.006,0.015-0.012,0.021-0.02l0.091,0.09C10.295,5.936,10.258,5.961,10.218,5.988 M10.329,5.867l0.01-0.01l-0.01-0.049
				l-0.008-0.002l0.004-0.011l-0.021-0.008L10.3,5.809L10.299,5.83l-0.005,0.004l-0.039-0.039c0.077-0.08,0.125-0.188,0.13-0.303
				h0.126c-0.004,0.15-0.066,0.289-0.166,0.393L10.329,5.867z M10.363,5.902c0.104-0.105,0.17-0.252,0.175-0.41h0.127
				c-0.006,0.193-0.084,0.369-0.211,0.5L10.363,5.902z M9.603,5.781C9.594,5.771,9.585,5.761,9.578,5.75l0.004-0.029L9.567,5.691
				L9.564,5.643L9.551,5.611l0.003-0.019L9.535,5.559L9.518,5.551l0.006-0.02L9.518,5.518L9.524,5.5h0.02l0.006-0.008h0.029
				L9.582,5.5L9.577,5.529L9.572,5.535l0.013,0.023L9.577,5.563L9.571,5.557L9.57,5.559l0.005,0.015l0.01,0.016h0.004L9.59,5.574
				L9.586,5.568v-0.01L9.585,5.537L9.591,5.5L9.585,5.492h0.021C9.61,5.568,9.643,5.639,9.693,5.689L9.603,5.781z M9.519,5.533
				L9.508,5.555H9.486L9.485,5.551C9.482,5.531,9.48,5.512,9.479,5.492h0.038L9.509,5.521L9.519,5.533z M9.561,5.447l0.002-0.025
				L9.58,5.414l0.025,0.004L9.61,5.424C9.608,5.438,9.606,5.451,9.606,5.467h-0.03L9.561,5.447z M9.689,5.543l0.006-0.004
				l0.019,0.012L9.706,5.559L9.724,5.57L9.723,5.559l0.01-0.02l0.012,0.012l0.009,0.016L9.733,5.57l0.011,0.018L9.756,5.58
				L9.754,5.574l0.01-0.004L9.77,5.541c0.007,0.018,0.019,0.031,0.029,0.043L9.71,5.674C9.667,5.631,9.637,5.57,9.631,5.506
				l0.018,0.02h0.019L9.689,5.543z M9.598,5.172l0.089,0.092C9.669,5.283,9.653,5.307,9.64,5.33H9.635L9.623,5.334H9.619
				L9.604,5.348l0.019-0.006L9.636,5.34c-0.001,0-0.002,0.002-0.003,0.006L9.621,5.354H9.614L9.594,5.37l-0.02-0.002l-0.025,0.05
				L9.554,5.43L9.54,5.445L9.538,5.467H9.481C9.481,5.354,9.525,5.25,9.598,5.172 M9.482,5.848l0.029,0.014l0.005,0.007l-0.02,0.021
				C9.485,5.877,9.476,5.868,9.468,5.859L9.482,5.848z M9.455,5.492c0,0.012,0.001,0.023,0.003,0.037L9.442,5.531L9.439,5.549
				L9.407,5.588v0.057L9.374,5.656h-0.02C9.339,5.604,9.33,5.549,9.328,5.492H9.455z M9.33,5.654l-0.01-0.002L9.314,5.646
				L9.278,5.643L9.29,5.658L9.257,5.65l0.008-0.006L9.258,5.634L9.233,5.646L9.224,5.662l0.003,0.035l0.027,0.066l0.013,0.02
				l0.007,0.002l-0.02-0.039l-0.001-0.02l0.005-0.004L9.255,5.709l0.012,0.002l0.021,0.031h0.005v-0.02L9.3,5.725v0.014l0.02,0.004
				l0.01-0.006L9.331,5.74v0.014l0.008,0.012L9.35,5.768l0.023,0.041l0.014,0.004L9.39,5.791c0.024,0.043,0.054,0.08,0.087,0.115
				L9.388,5.994C9.26,5.863,9.18,5.688,9.177,5.492h0.125C9.304,5.547,9.313,5.602,9.33,5.654 M9.384,4.959l0.09,0.09
				C9.37,5.158,9.304,5.305,9.302,5.467H9.177C9.178,5.27,9.258,5.09,9.384,4.959 M10.299,4.914L10.291,4.9l-0.018-0.006
				l-0.013,0.008l0.017,0.01l0.02,0.012L10.299,4.914z M10.222,5.27v0.013l0.022-0.009l0.007-0.016l-0.017-0.02l0.01-0.012
				l0.021,0.014l0.004-0.002l-0.004-0.002l-0.004-0.01l0.008-0.006l-0.008-0.013l-0.019,0.013l-0.009,0.012l-0.003,0.01l0.008,0.014
				l-0.003,0.008L10.222,5.27z M9.308,5.836L9.31,5.83L9.3,5.805L9.286,5.801L9.308,5.836z M9.825,5.359
				c0,0.022,0.014,0.039,0.035,0.053c0,0,0-0.006,0-0.012L9.846,5.387l0.008-0.016L9.86,5.369C9.859,5.346,9.859,5.318,9.859,5.313
				H9.858C9.837,5.326,9.825,5.34,9.825,5.359"/>
			<path fill="#FFFFFF" d="M9.967,5.908c0.039,0.021,0.076,0.049,0.092,0.102c0.006-0.088-0.042-0.127-0.091-0.15L9.967,5.908"/>
			<path fill="#FFFFFF" d="M10.23,5.027c0-0.08-0.058-0.168-0.199-0.199c-0.009-0.002-0.024-0.004-0.042-0.006
				c0,0.014-0.001,0.039-0.001,0.039c0,0.01,0,0.041-0.001,0.049c0.015,0.002,0.023,0.004,0.027,0.004
				c0.082,0.021,0.111,0.064,0.111,0.113c0,0.074-0.064,0.102-0.145,0.123C9.974,5.152,9.965,5.156,9.957,5.158
				C9.932,5.162,9.908,5.17,9.884,5.176C9.876,5.18,9.866,5.182,9.858,5.186C9.771,5.209,9.695,5.252,9.695,5.361
				c0,0.106,0.085,0.146,0.169,0.172c0-0.031-0.001-0.061-0.002-0.094C9.825,5.422,9.8,5.4,9.8,5.361
				c0-0.037,0.021-0.062,0.06-0.076c0.01-0.002,0.019-0.006,0.026-0.008c0.02-0.008,0.043-0.016,0.069-0.021
				C9.964,5.254,9.972,5.252,9.98,5.25C10.097,5.221,10.23,5.184,10.23,5.027"/>
			<path fill="#FFFFFF" d="M9.806,5.781c0,0.043,0.032,0.066,0.063,0.082c0-0.006-0.001-0.072-0.001-0.074
				c0-0.012,0.014-0.021,0.021-0.025c0.016-0.008,0.031-0.014,0.051-0.02c0.011-0.004,0.019-0.006,0.026-0.01
				c0.063-0.021,0.138-0.043,0.138-0.119c0-0.08-0.063-0.111-0.133-0.135c0,0.021-0.001,0.061-0.001,0.086
				c0.029,0.01,0.048,0.022,0.048,0.049c0,0.025-0.029,0.043-0.05,0.051C9.961,5.668,9.947,5.674,9.943,5.674
				C9.927,5.68,9.908,5.688,9.89,5.691C9.882,5.695,9.873,5.699,9.865,5.705C9.837,5.719,9.806,5.742,9.806,5.781"/>
			<path fill="#FFFFFF" d="M9.849,4.836C9.807,4.848,9.782,4.861,9.772,4.865C9.745,4.875,9.706,4.877,9.667,4.92
				C9.66,4.93,9.641,4.951,9.629,4.969C9.618,4.986,9.616,5.014,9.607,5.031c-0.013,0.02-0.01,0.031-0.01,0.031v0.002
				C9.596,5.066,9.594,5.078,9.583,5.092C9.569,5.107,9.552,5.115,9.53,5.111c0.02,0.01,0.043-0.002,0.043-0.002
				s-0.004,0.014-0.01,0.035c0.021-0.047,0.04-0.064,0.045-0.068c0.011,0.002,0.027,0,0.063-0.018
				c0.039-0.021,0.096-0.062,0.11-0.082C9.8,4.953,9.823,4.938,9.849,4.926C9.85,4.893,9.85,4.861,9.849,4.836 M9.682,4.988
				l-0.02,0.004L9.69,4.945l0.027,0.002L9.682,4.988z"/>
			<path fill="#FFFFFF" d="M9.928,5.775C9.925,5.777,9.916,5.781,9.91,5.783C9.902,5.785,9.894,5.787,9.894,5.791
				c0,0,0.006,0.334,0.006,0.342c0,0.07,0.035,0.07,0.035,0c0-0.004,0.007-0.361,0.007-0.361S9.934,5.773,9.928,5.775"/>
			<path fill="#FFFFFF" d="M9.892,5.666c0.011-0.004,0.022-0.008,0.032-0.012c0.007-0.002,0.015-0.006,0.021-0.008
				c0-0.021,0.009-0.312,0.009-0.363c-0.026,0.006-0.05,0.012-0.067,0.02C9.886,5.34,9.891,5.633,9.892,5.666"/>
			<path fill="#FFFFFF" d="M9.922,4.551c-0.1,0-0.059,0.145-0.048,0.193c0,0.002,0.007,0.328,0.009,0.402
				c0.015-0.002,0.03-0.006,0.044-0.011c0.011-0.004,0.021-0.006,0.03-0.008c0.001-0.071,0.009-0.387,0.009-0.387
				C9.971,4.691,10.023,4.551,9.922,4.551"/>
			<path fill="#FFFFFF" d="M11.905,6.873h-0.124l-0.025,0.104h-0.09l0.132-0.459h0.102l0.125,0.459H11.93L11.905,6.873z
				 M11.846,6.605L11.846,6.605l-0.048,0.188h0.089L11.846,6.605z"/>
			<path fill="#FFFFFF" d="M12.377,6.764c0-0.037-0.016-0.053-0.034-0.053c-0.026,0-0.037,0.021-0.037,0.047v0.217h-0.089V6.764
				c0-0.041-0.017-0.053-0.031-0.053c-0.028,0-0.04,0.029-0.04,0.07v0.193h-0.089V6.703c0-0.033,0-0.053-0.001-0.072h0.08
				c0.002,0.018,0.003,0.035,0.003,0.059h0.001c0.014-0.037,0.036-0.063,0.082-0.063c0.042,0,0.064,0.024,0.077,0.06
				c0.012-0.031,0.034-0.06,0.08-0.06c0.063,0,0.086,0.058,0.086,0.125v0.226h-0.089L12.377,6.764L12.377,6.764z"/>
			<path fill="#FFFFFF" d="M12.775,6.832h-0.172c0,0.041,0.022,0.078,0.072,0.078c0.031,0,0.061-0.014,0.083-0.027l0.002,0.076
				c-0.03,0.016-0.063,0.021-0.093,0.021c-0.104,0-0.148-0.072-0.148-0.181c0-0.09,0.045-0.174,0.129-0.174
				c0.026,0,0.127,0,0.127,0.179V6.832L12.775,6.832z M12.695,6.775c0-0.043-0.01-0.086-0.046-0.086
				c-0.045,0-0.045,0.065-0.045,0.086H12.695z"/>
			<path fill="#FFFFFF" d="M12.829,6.705c0-0.033-0.001-0.053-0.004-0.072h0.082c0.001,0.021,0.001,0.041,0.003,0.063h0.001
				c0.018-0.036,0.028-0.067,0.08-0.067h0.014v0.099c-0.01-0.002-0.02-0.002-0.03-0.002c-0.052,0-0.058,0.051-0.058,0.1v0.154
				h-0.089L12.829,6.705L12.829,6.705z"/>
			<path fill="#FFFFFF" d="M13.05,6.484h0.089v0.092H13.05V6.484z M13.05,6.631h0.089v0.344H13.05V6.631z"/>
			<path fill="#FFFFFF" d="M13.41,6.967c-0.026,0.006-0.054,0.014-0.08,0.014c-0.112,0-0.141-0.108-0.141-0.174
				c0-0.104,0.055-0.18,0.146-0.18c0.029,0,0.045,0.008,0.069,0.018l-0.004,0.078c-0.016-0.008-0.031-0.016-0.052-0.016
				c-0.065,0-0.065,0.088-0.065,0.1c0,0.07,0.037,0.098,0.069,0.098c0.021,0,0.035-0.01,0.052-0.016L13.41,6.967z"/>
			<path fill="#FFFFFF" d="M13.473,6.65c0.022-0.008,0.063-0.023,0.095-0.023c0.104,0,0.125,0.053,0.125,0.127v0.125
				c0,0.053,0.001,0.074,0.003,0.098h-0.082L13.613,6.93h-0.002c-0.003,0.021-0.038,0.053-0.078,0.053
				c-0.056,0-0.091-0.043-0.091-0.104c0-0.112,0.114-0.112,0.146-0.112h0.025c0-0.066-0.042-0.066-0.054-0.066
				c-0.021,0-0.047,0.008-0.082,0.031L13.473,6.65z M13.612,6.811c-0.033,0-0.091,0.002-0.091,0.062
				c0,0.043,0.031,0.043,0.039,0.043c0.007,0,0.052,0,0.052-0.084V6.811z"/>
			<path fill="#FFFFFF" d="M13.928,6.721c-0.023-0.014-0.045-0.02-0.07-0.02c-0.022,0-0.033,0.014-0.033,0.023
				c0,0.02,0.014,0.026,0.063,0.049c0.03,0.014,0.061,0.037,0.061,0.1c0,0.078-0.049,0.107-0.106,0.107
				c-0.026,0-0.065-0.004-0.096-0.021l0.002-0.078c0.021,0.015,0.048,0.022,0.071,0.022c0.042,0,0.044-0.018,0.044-0.032
				s-0.021-0.021-0.06-0.039C13.77,6.818,13.74,6.791,13.74,6.729c0-0.035,0.021-0.102,0.108-0.102c0.037,0,0.067,0.008,0.082,0.014
				L13.928,6.721z"/>
			<polygon fill="#FFFFFF" points="12.594,6.6 12.643,6.475 12.719,6.475 12.643,6.6 			"/>
		</g>
		<g>
			<path fill="#FFFFFF" d="M4.643,3.84c-1.138,0-1.806-0.537-1.806-1.577c0-1.022,0.668-1.577,1.806-1.577
				c1.141,0,1.821,0.555,1.821,1.577C6.465,3.303,5.783,3.84,4.643,3.84 M4.643,3.106c0.495,0,0.509-0.516,0.515-0.843
				C5.152,1.979,5.121,1.42,4.643,1.42c-0.462,0-0.499,0.559-0.499,0.843C4.144,2.59,4.196,3.106,4.643,3.106"/>
			<path fill="#FFFFFF" d="M6.739,0.738h2.152c0.509,0,1.195,0.228,1.195,1.05c0,0.795-0.546,1.123-1.2,1.123H7.99v0.877H6.739
				V0.738z M7.959,2.202h0.273c0.3,0,0.604-0.052,0.604-0.393c0-0.324-0.304-0.363-0.607-0.363h-0.27V2.202L7.959,2.202z"/>
			<path fill="#FFFFFF" d="M13.046,1.572c-0.279-0.091-0.611-0.153-0.966-0.153c-0.196,0-0.537,0.006-0.537,0.201
				c0,0.397,1.713,0.021,1.713,1.197c0,0.816-0.864,1.021-1.587,1.021c-0.481,0-0.877-0.043-1.345-0.144v-0.79
				c0.337,0.132,0.746,0.201,1.119,0.201c0.294,0,0.562-0.056,0.562-0.209c0-0.411-1.713-0.039-1.713-1.224
				c0-0.84,0.934-0.987,1.676-0.987c0.35,0,0.736,0.04,1.078,0.104V1.572L13.046,1.572z"/>
		</g>
	</g>
</g>
</svg>
