<?xml version="1.0" encoding="utf-8"?>
<!-- Generator: Adobe Illustrator 14.0.0, SVG Export Plug-In . SVG Version: 6.00 Build 43363)  -->
<!DOCTYPE svg PUBLIC "-//W3C//DTD SVG 1.1//EN" "http://www.w3.org/Graphics/SVG/1.1/DTD/svg11.dtd">
<svg version="1.1" id="Camada_1" xmlns="http://www.w3.org/2000/svg" xmlns:xlink="http://www.w3.org/1999/xlink" x="0px" y="0px"
	 width="34.063px" height="7.625px" viewBox="0 0 34.063 7.625" enable-background="new 0 0 34.063 7.625" xml:space="preserve">
<g>
	<g>
		<rect x="17.515" y="0.662" fill="#FFFFFF" width="0.104" height="6.301"/>
		<g>
			<path fill="#FFFFFF" d="M18.926,3.092V1.073H19.5c0.175,0,0.313,0.043,0.415,0.128c0.104,0.085,0.153,0.196,0.153,0.333
				c0,0.115-0.03,0.214-0.093,0.298c-0.062,0.084-0.147,0.144-0.256,0.18v0.005c0.137,0.017,0.245,0.068,0.326,0.154
				c0.082,0.086,0.123,0.2,0.123,0.338c0,0.173-0.063,0.313-0.187,0.419c-0.123,0.107-0.279,0.161-0.468,0.161H18.926z
				 M19.162,1.287v0.652h0.242c0.13,0,0.23-0.031,0.306-0.094c0.074-0.063,0.111-0.15,0.111-0.264c0-0.196-0.13-0.294-0.388-0.294
				H19.162z M19.162,2.151v0.727h0.321c0.139,0,0.246-0.033,0.322-0.099c0.077-0.065,0.115-0.155,0.115-0.27
				c0-0.239-0.162-0.358-0.487-0.358H19.162z"/>
			<path fill="#FFFFFF" d="M21.649,3.092h-1.07V1.073h1.025v0.214h-0.789v0.671h0.729v0.213h-0.729v0.707h0.834V3.092z"/>
			<path fill="#FFFFFF" d="M21.943,3.01V2.731c0.032,0.028,0.07,0.054,0.115,0.076c0.044,0.022,0.09,0.042,0.141,0.057
				c0.048,0.015,0.099,0.027,0.148,0.036c0.049,0.008,0.096,0.013,0.138,0.013c0.145,0,0.255-0.027,0.325-0.081
				c0.073-0.054,0.108-0.131,0.108-0.233c0-0.054-0.013-0.102-0.035-0.142c-0.025-0.04-0.058-0.078-0.101-0.11
				c-0.042-0.033-0.091-0.065-0.15-0.096c-0.056-0.03-0.119-0.063-0.186-0.097c-0.07-0.036-0.137-0.072-0.197-0.108
				s-0.114-0.077-0.159-0.121s-0.08-0.094-0.105-0.15c-0.026-0.056-0.039-0.121-0.039-0.196c0-0.092,0.02-0.172,0.061-0.24
				c0.041-0.068,0.093-0.124,0.159-0.168c0.065-0.044,0.141-0.077,0.225-0.099c0.083-0.021,0.169-0.032,0.257-0.032
				c0.198,0,0.343,0.024,0.435,0.072v0.266c-0.12-0.083-0.271-0.124-0.459-0.124c-0.052,0-0.103,0.006-0.154,0.016
				c-0.053,0.011-0.098,0.028-0.139,0.053c-0.041,0.025-0.073,0.056-0.099,0.095c-0.025,0.039-0.038,0.085-0.038,0.141
				c0,0.051,0.011,0.096,0.028,0.134c0.02,0.037,0.048,0.072,0.086,0.103c0.038,0.031,0.083,0.062,0.137,0.09
				c0.055,0.029,0.117,0.061,0.188,0.096c0.071,0.036,0.141,0.073,0.205,0.112c0.064,0.04,0.121,0.083,0.171,0.131
				c0.049,0.048,0.087,0.101,0.115,0.159c0.029,0.059,0.043,0.125,0.043,0.2c0,0.099-0.02,0.184-0.058,0.252
				c-0.039,0.069-0.093,0.125-0.157,0.168c-0.067,0.043-0.144,0.075-0.229,0.094s-0.178,0.029-0.273,0.029
				c-0.032,0-0.071-0.002-0.118-0.008c-0.046-0.005-0.094-0.013-0.144-0.022c-0.049-0.01-0.094-0.021-0.139-0.037
				C22.004,3.044,21.969,3.028,21.943,3.01z"/>
			<path fill="#FFFFFF" d="M24.762,1.287h-0.583v1.805h-0.236V1.287h-0.581V1.073h1.4V1.287z"/>
			<path fill="#FFFFFF" d="M19.162,5.789v0.762h-0.236V4.533h0.555c0.215,0,0.383,0.053,0.502,0.156
				c0.119,0.105,0.178,0.254,0.178,0.445s-0.066,0.348-0.197,0.471c-0.132,0.121-0.311,0.184-0.534,0.184H19.162z M19.162,4.746
				v0.828h0.248c0.163,0,0.288-0.037,0.373-0.111c0.087-0.076,0.129-0.182,0.129-0.316c0-0.268-0.157-0.4-0.473-0.4H19.162z"/>
			<path fill="#FFFFFF" d="M21.988,6.551h-0.281l-0.338-0.564c-0.031-0.055-0.061-0.1-0.09-0.135
				c-0.03-0.039-0.06-0.068-0.091-0.092c-0.029-0.023-0.062-0.041-0.099-0.051c-0.033-0.012-0.074-0.016-0.118-0.016h-0.194v0.857
				H20.54V4.533h0.603c0.089,0,0.169,0.01,0.245,0.033c0.073,0.021,0.138,0.055,0.194,0.1c0.054,0.045,0.097,0.102,0.128,0.168
				s0.047,0.146,0.047,0.236c0,0.07-0.012,0.135-0.031,0.193c-0.022,0.059-0.052,0.111-0.09,0.156
				c-0.04,0.047-0.088,0.086-0.141,0.119c-0.057,0.031-0.117,0.057-0.187,0.074v0.006c0.034,0.016,0.063,0.033,0.088,0.051
				c0.025,0.02,0.049,0.043,0.071,0.068c0.022,0.027,0.045,0.057,0.066,0.09c0.022,0.033,0.048,0.07,0.074,0.115L21.988,6.551z
				 M20.777,4.746v0.732h0.321c0.06,0,0.114-0.01,0.163-0.027c0.051-0.018,0.095-0.043,0.131-0.076
				c0.037-0.033,0.065-0.074,0.086-0.123c0.021-0.049,0.031-0.102,0.031-0.162c0-0.107-0.035-0.191-0.104-0.252
				c-0.07-0.061-0.172-0.092-0.304-0.092H20.777z"/>
			<path fill="#FFFFFF" d="M23.827,6.551h-0.262l-0.214-0.564h-0.856l-0.201,0.564h-0.263l0.773-2.018h0.245L23.827,6.551z
				 M23.274,5.773l-0.316-0.861c-0.01-0.027-0.021-0.072-0.031-0.135h-0.005c-0.01,0.057-0.021,0.102-0.032,0.135l-0.314,0.861
				H23.274z"/>
			<path fill="#FFFFFF" d="M25.46,6.467c-0.149,0.08-0.335,0.119-0.558,0.119c-0.287,0-0.517-0.094-0.689-0.279
				s-0.259-0.428-0.259-0.727c0-0.324,0.097-0.584,0.291-0.783s0.44-0.299,0.739-0.299c0.191,0,0.351,0.027,0.476,0.084v0.252
				c-0.146-0.082-0.304-0.121-0.479-0.121c-0.232,0-0.42,0.078-0.564,0.232c-0.144,0.154-0.216,0.361-0.216,0.621
				c0,0.246,0.068,0.441,0.201,0.586c0.136,0.146,0.313,0.219,0.531,0.219c0.202,0,0.379-0.045,0.526-0.135V6.467z"/>
			<path fill="#FFFFFF" d="M27.065,4.746h-0.583v1.805h-0.236V4.746h-0.581V4.533h1.4V4.746z"/>
			<path fill="#FFFFFF" d="M27.618,6.551h-0.237V4.533h0.237V6.551z"/>
			<path fill="#FFFFFF" d="M29.523,6.467c-0.149,0.08-0.335,0.119-0.558,0.119c-0.287,0-0.517-0.094-0.689-0.279
				c-0.174-0.186-0.26-0.428-0.26-0.727c0-0.324,0.098-0.584,0.292-0.783s0.44-0.299,0.739-0.299c0.191,0,0.351,0.027,0.476,0.084
				v0.252c-0.146-0.082-0.305-0.121-0.479-0.121c-0.232,0-0.42,0.078-0.564,0.232c-0.144,0.154-0.216,0.361-0.216,0.621
				c0,0.246,0.067,0.441,0.201,0.586c0.136,0.146,0.313,0.219,0.531,0.219c0.202,0,0.378-0.045,0.526-0.135V6.467z"/>
			<path fill="#FFFFFF" d="M31.003,6.551h-1.069V4.533h1.024v0.213H30.17v0.672h0.729v0.213H30.17v0.707h0.833V6.551z"/>
			<path fill="#FFFFFF" d="M31.297,6.471V6.191c0.033,0.027,0.07,0.053,0.116,0.076c0.043,0.021,0.09,0.039,0.141,0.057
				c0.048,0.014,0.099,0.027,0.147,0.035c0.05,0.01,0.096,0.012,0.138,0.012c0.146,0,0.255-0.025,0.325-0.082
				c0.073-0.053,0.108-0.129,0.108-0.23c0-0.057-0.013-0.104-0.035-0.143c-0.025-0.039-0.058-0.076-0.1-0.109
				s-0.092-0.066-0.15-0.096c-0.057-0.031-0.12-0.064-0.187-0.098c-0.07-0.035-0.136-0.072-0.196-0.107
				c-0.061-0.037-0.114-0.078-0.159-0.121c-0.045-0.045-0.08-0.096-0.105-0.15c-0.027-0.057-0.04-0.121-0.04-0.197
				c0-0.092,0.02-0.172,0.061-0.238c0.041-0.068,0.093-0.125,0.159-0.17c0.066-0.043,0.141-0.076,0.226-0.098
				c0.083-0.021,0.169-0.033,0.256-0.033c0.198,0,0.344,0.025,0.435,0.072v0.266c-0.119-0.082-0.271-0.123-0.458-0.123
				c-0.053,0-0.104,0.006-0.155,0.016c-0.052,0.012-0.097,0.029-0.138,0.053c-0.041,0.025-0.073,0.057-0.099,0.096
				c-0.025,0.037-0.038,0.084-0.038,0.141c0,0.051,0.01,0.096,0.028,0.133c0.02,0.037,0.048,0.072,0.086,0.104
				s0.083,0.061,0.137,0.09c0.055,0.029,0.116,0.061,0.187,0.096c0.072,0.035,0.141,0.072,0.206,0.111
				c0.064,0.041,0.121,0.084,0.17,0.131c0.05,0.049,0.087,0.102,0.115,0.16c0.03,0.057,0.044,0.125,0.044,0.201
				c0,0.098-0.02,0.182-0.058,0.25c-0.04,0.07-0.093,0.127-0.158,0.168c-0.067,0.043-0.144,0.076-0.229,0.094
				c-0.085,0.02-0.177,0.031-0.272,0.031c-0.032,0-0.072-0.004-0.118-0.01c-0.047-0.004-0.095-0.014-0.144-0.021
				c-0.05-0.012-0.095-0.023-0.14-0.037C31.36,6.504,31.324,6.486,31.297,6.471z"/>
		</g>
	</g>
	<g>
		<path fill="#FFFFFF" d="M1.935,0.882h2.079c0.492,0,1.154,0.21,1.154,0.967c0,0.732-0.527,1.035-1.158,1.035H3.143v0.809H1.935
			V0.882L1.935,0.882z M3.112,2.23h0.267c0.289,0,0.582-0.048,0.582-0.362c0-0.298-0.293-0.334-0.586-0.334H3.112V2.23z"/>
		<path fill="#FFFFFF" d="M6.003,0.882h1.665L8.79,3.693H7.523L7.315,3.085h-1.02L6.102,3.692H4.898L6.003,0.882z M6.463,2.408
			h0.699L6.819,1.486H6.81L6.463,2.408z"/>
		<polygon fill="#FFFFFF" points="10.965,0.882 12.174,0.882 12.174,3.692 10.965,3.692 10.965,2.683 10.156,2.683 10.156,3.692 
			8.948,3.692 8.948,0.882 10.156,0.882 10.156,1.853 10.965,1.853 		"/>
		<path fill="#FFFFFF" d="M14.229,3.741c-1.1,0-1.744-0.495-1.744-1.453c0-0.943,0.645-1.454,1.744-1.454
			c1.101,0,1.76,0.511,1.76,1.454C15.989,3.246,15.329,3.741,14.229,3.741 M14.229,3.064c0.479,0,0.492-0.475,0.498-0.776
			c-0.005-0.263-0.036-0.777-0.498-0.777c-0.444,0-0.481,0.515-0.481,0.777C13.747,2.59,13.797,3.064,14.229,3.064"/>
		<g>
			<path fill="#FFFFFF" d="M12.255,6.568c0-0.036-0.014-0.051-0.031-0.051c-0.026,0-0.035,0.021-0.035,0.045v0.201h-0.084V6.568
				c0-0.039-0.016-0.051-0.029-0.051c-0.027,0-0.036,0.027-0.036,0.068v0.178h-0.085v-0.25c0-0.031,0-0.051-0.001-0.064h0.075
				c0.002,0.013,0.002,0.031,0.002,0.052h0.002c0.013-0.035,0.034-0.058,0.077-0.058c0.04,0,0.062,0.021,0.073,0.052
				c0.012-0.029,0.031-0.052,0.074-0.052c0.062,0,0.081,0.05,0.081,0.113v0.209h-0.083"/>
			<path fill="#FFFFFF" d="M12.631,6.631h-0.162c0,0.038,0.021,0.072,0.069,0.072c0.027,0,0.057-0.012,0.078-0.023l0.002,0.072
				c-0.028,0.014-0.06,0.02-0.089,0.02c-0.097,0-0.14-0.068-0.14-0.166c0-0.084,0.043-0.162,0.123-0.162
				c0.024,0,0.119,0,0.119,0.166 M12.555,6.579c0-0.04-0.009-0.077-0.043-0.077c-0.043,0-0.043,0.061-0.043,0.077H12.555z"/>
			<path fill="#FFFFFF" d="M12.681,6.514c0-0.031,0-0.051-0.001-0.064h0.076c0,0.017,0.002,0.037,0.002,0.057h0.001
				c0.016-0.033,0.027-0.063,0.076-0.063h0.012v0.089c-0.009-0.003-0.016-0.005-0.028-0.005c-0.048,0-0.055,0.05-0.055,0.096v0.143
				h-0.083"/>
			<path fill="#FFFFFF" d="M12.89,6.309h0.083v0.084H12.89 M12.89,6.448h0.083v0.315H12.89V6.448z"/>
			<path fill="#FFFFFF" d="M13.229,6.757c-0.023,0.009-0.048,0.015-0.076,0.015c-0.104,0-0.13-0.104-0.13-0.162
				c0-0.098,0.048-0.166,0.138-0.166c0.026,0,0.043,0.008,0.066,0.014l-0.005,0.075c-0.016-0.009-0.031-0.015-0.048-0.015
				c-0.064,0-0.064,0.08-0.064,0.092c0,0.068,0.037,0.09,0.069,0.09c0.017,0,0.033-0.008,0.048-0.014"/>
			<path fill="#FFFFFF" d="M13.289,6.461c0.021-0.007,0.059-0.02,0.088-0.02c0.096,0,0.119,0.048,0.119,0.117v0.116
				c0,0.048,0,0.067,0.001,0.089h-0.076L13.42,6.721h-0.001c-0.004,0.021-0.035,0.051-0.075,0.051c-0.052,0-0.086-0.039-0.086-0.098
				c0-0.107,0.107-0.107,0.136-0.107h0.026c0-0.061-0.039-0.061-0.052-0.061c-0.021,0-0.042,0.006-0.076,0.028 M13.42,6.611
				c-0.032,0-0.086,0.002-0.086,0.056c0,0.042,0.028,0.042,0.036,0.042c0.007,0,0.05,0,0.05-0.078V6.611z"/>
			<path fill="#FFFFFF" d="M13.718,6.527c-0.023-0.012-0.042-0.019-0.067-0.019c-0.021,0-0.03,0.013-0.03,0.022
				c0,0.021,0.012,0.027,0.059,0.047c0.028,0.012,0.057,0.031,0.057,0.093c0,0.071-0.044,0.099-0.102,0.099
				c-0.024,0-0.062-0.004-0.09-0.016l0.002-0.074c0.021,0.014,0.044,0.021,0.069,0.021c0.039,0,0.042-0.016,0.042-0.03
				c0-0.013-0.021-0.021-0.058-0.037c-0.029-0.015-0.059-0.04-0.059-0.098c0-0.034,0.021-0.095,0.104-0.095
				c0.035,0,0.064,0.008,0.078,0.012"/>
			<line fill="#FFFFFF" x1="15.498" y1="6.128" x2="11.586" y2="6.128"/>
			<rect x="11.586" y="6.109" fill="#FFFFFF" width="3.912" height="0.039"/>
			<path fill="#FFFFFF" d="M9.23,6.568h0.049c0.028,0,0.048,0.016,0.048,0.052c0,0.026-0.014,0.043-0.031,0.047l0,0
				c0.006,0.002,0.012,0.005,0.017,0.022l0.021,0.074H9.302L9.287,6.702C9.283,6.688,9.276,6.682,9.265,6.682H9.259v0.084H9.23
				 M9.27,6.652c0.017,0,0.026-0.008,0.026-0.028c0-0.022-0.01-0.026-0.026-0.026H9.259v0.057H9.27V6.652z"/>
			<polyline fill="#FFFFFF" points="9.344,6.568 9.427,6.568 9.427,6.598 9.374,6.598 9.374,6.648 9.425,6.648 9.425,6.678 
				9.374,6.678 9.374,6.736 9.43,6.736 9.43,6.766 9.344,6.766 			"/>
			<path fill="#FFFFFF" d="M9.509,6.654h0.05v0.103C9.552,6.764,9.538,6.768,9.517,6.768c-0.05,0-0.077-0.043-0.077-0.101
				c0-0.06,0.027-0.101,0.077-0.101c0.02,0,0.032,0.006,0.038,0.01L9.553,6.607C9.545,6.6,9.532,6.596,9.517,6.596
				c-0.03,0-0.047,0.03-0.047,0.071c0,0.044,0.016,0.071,0.045,0.071c0.007,0,0.013-0.002,0.018-0.004V6.684H9.509"/>
			<rect x="9.581" y="6.568" fill="#FFFFFF" width="0.028" height="0.195"/>
			<path fill="#FFFFFF" d="M9.688,6.566c0.033,0,0.063,0.029,0.063,0.101c0,0.069-0.029,0.101-0.063,0.101S9.626,6.736,9.626,6.667
				S9.656,6.566,9.688,6.566 M9.688,6.739c0.019,0,0.033-0.019,0.033-0.072c0-0.053-0.015-0.074-0.033-0.074
				S9.655,6.614,9.655,6.667C9.655,6.721,9.67,6.739,9.688,6.739"/>
			<polyline fill="#FFFFFF" points="9.766,6.568 9.8,6.568 9.852,6.723 9.854,6.723 9.854,6.568 9.88,6.568 9.88,6.766 9.845,6.766 
				9.794,6.611 9.792,6.611 9.792,6.766 9.766,6.766 			"/>
			<path fill="#FFFFFF" d="M9.98,6.717H9.927L9.915,6.766H9.887l0.052-0.197H9.97l0.052,0.197H9.99 M9.973,6.689L9.954,6.598l0,0
				L9.931,6.689H9.973z"/>
			<polyline fill="#FFFFFF" points="10.027,6.568 10.054,6.568 10.054,6.736 10.106,6.736 10.106,6.766 10.027,6.766 			"/>
			<path fill="#FFFFFF" d="M10.22,6.566c0.033,0,0.063,0.029,0.063,0.101c0,0.069-0.029,0.101-0.063,0.101s-0.062-0.031-0.062-0.101
				C10.156,6.598,10.187,6.566,10.22,6.566 M10.22,6.739c0.018,0,0.033-0.019,0.033-0.072c0-0.053-0.017-0.074-0.033-0.074
				c-0.019,0-0.033,0.021-0.033,0.074C10.187,6.721,10.201,6.739,10.22,6.739"/>
			<polyline fill="#FFFFFF" points="10.298,6.568 10.377,6.568 10.377,6.598 10.327,6.598 10.327,6.65 10.376,6.65 10.376,6.68 
				10.327,6.68 10.327,6.766 10.298,6.766 			"/>
			<polyline fill="#FFFFFF" points="10.391,6.568 10.47,6.568 10.47,6.598 10.419,6.598 10.419,6.65 10.467,6.65 10.467,6.68 
				10.419,6.68 10.419,6.766 10.391,6.766 			"/>
			<rect x="10.485" y="6.568" fill="#FFFFFF" width="0.027" height="0.195"/>
			<path fill="#FFFFFF" d="M10.635,6.761C10.63,6.766,10.616,6.768,10.6,6.768c-0.047,0-0.071-0.043-0.071-0.101
				s0.024-0.101,0.071-0.101c0.017,0,0.029,0.006,0.034,0.008l-0.002,0.033c-0.005-0.004-0.016-0.012-0.029-0.012
				c-0.023,0-0.045,0.02-0.045,0.07c0,0.05,0.021,0.07,0.045,0.07c0.014,0,0.022-0.004,0.029-0.01"/>
			<polyline fill="#FFFFFF" points="10.649,6.568 10.732,6.568 10.732,6.598 10.678,6.598 10.678,6.648 10.728,6.648 10.728,6.678 
				10.678,6.678 10.678,6.736 10.733,6.736 10.733,6.766 10.649,6.766 			"/>
			<polyline fill="#FFFFFF" points="10.797,6.568 10.876,6.568 10.876,6.598 10.826,6.598 10.826,6.65 10.875,6.65 10.875,6.68 
				10.826,6.68 10.826,6.766 10.797,6.766 			"/>
			<path fill="#FFFFFF" d="M10.946,6.566c0.033,0,0.064,0.029,0.064,0.101c0,0.069-0.031,0.101-0.064,0.101
				c-0.03,0-0.062-0.031-0.062-0.101S10.915,6.566,10.946,6.566 M10.946,6.739c0.02,0,0.033-0.019,0.033-0.072
				c0-0.053-0.014-0.074-0.033-0.074c-0.018,0-0.032,0.021-0.032,0.074C10.913,6.721,10.928,6.739,10.946,6.739"/>
			<path fill="#FFFFFF" d="M11.023,6.568h0.048c0.029,0,0.048,0.016,0.048,0.052c0,0.026-0.013,0.043-0.03,0.047l0,0
				c0.005,0.002,0.012,0.005,0.018,0.022l0.021,0.074h-0.031L11.08,6.702c-0.003-0.017-0.011-0.021-0.022-0.021h-0.005v0.084h-0.029
				 M11.063,6.652c0.017,0,0.026-0.008,0.026-0.028c0-0.022-0.008-0.026-0.026-0.026h-0.01v0.057h0.01V6.652z"/>
			<polyline fill="#FFFFFF" points="11.196,6.598 11.162,6.598 11.162,6.568 11.26,6.568 11.26,6.598 11.225,6.598 11.225,6.766 
				11.196,6.766 			"/>
			<polyline fill="#FFFFFF" points="11.27,6.568 11.3,6.568 11.3,6.648 11.346,6.648 11.346,6.568 11.374,6.568 11.374,6.766 
				11.346,6.766 11.346,6.678 11.3,6.678 11.3,6.766 11.27,6.766 			"/>
			<polyline fill="#FFFFFF" points="11.396,6.568 11.479,6.568 11.479,6.598 11.426,6.598 11.426,6.648 11.476,6.648 11.476,6.678 
				11.426,6.678 11.426,6.736 11.481,6.736 11.481,6.766 11.396,6.766 			"/>
			<path fill="#FFFFFF" d="M10.995,4.816c0.042,0.051,0.113,0.08,0.155,0.129c-0.028-0.146-0.144-0.264-0.275-0.291
				C10.939,4.702,10.952,4.77,10.995,4.816 M9.385,5.188c0.092-0.198,0.229-0.158,0.288-0.347C9.64,4.896,9.49,4.923,9.42,5.07
				c0.036-0.088,0.018-0.225,0.078-0.297C9.318,4.906,9.395,5.119,9.385,5.188 M9.552,5.662C9.569,5.739,9.52,5.852,9.596,5.958
				c-0.08-0.089-0.249-0.11-0.318-0.246c0.086,0.33,0.313,0.261,0.413,0.333C9.609,5.927,9.676,5.848,9.552,5.662 M9.527,5.869
				C9.476,5.686,9.565,5.622,9.498,5.443C9.49,5.545,9.423,5.593,9.469,5.773c-0.08-0.152-0.204-0.211-0.24-0.315
				C9.232,5.747,9.467,5.79,9.527,5.869 M9.887,6.178c-0.069-0.094-0.021-0.148-0.216-0.32C9.712,5.921,9.669,6,9.8,6.123
				C9.673,6.047,9.495,6.08,9.41,5.979C9.557,6.258,9.814,6.145,9.887,6.178 M10.828,6.123c0.131-0.123,0.09-0.202,0.13-0.266
				c-0.194,0.172-0.147,0.227-0.216,0.319c0.071-0.034,0.33,0.08,0.477-0.198C11.134,6.08,10.956,6.047,10.828,6.123 M11.032,5.958
				c0.077-0.104,0.028-0.219,0.045-0.296c-0.125,0.186-0.057,0.265-0.141,0.383c0.103-0.072,0.329-0.003,0.415-0.333
				C11.281,5.848,11.111,5.869,11.032,5.958 M10.721,6.191c-0.076-0.021-0.154-0.03-0.212-0.032
				c-0.073-0.002-0.138,0.012-0.193,0.032c-0.057-0.021-0.121-0.034-0.194-0.032c-0.058,0.002-0.138,0.012-0.212,0.032
				C9.791,6.221,9.69,6.246,9.602,6.202c0.084,0.073,0.184,0.101,0.327,0.085c0.117-0.014,0.214-0.07,0.325-0.07
				c0.001,0,0.003,0,0.005,0c-0.118,0.059-0.185,0.141-0.185,0.141l0.054,0.009c0,0,0.057-0.113,0.188-0.144
				c0.129,0.029,0.188,0.144,0.188,0.144l0.053-0.009c0,0-0.064-0.082-0.183-0.141c0.002,0,0.002,0,0.004,0
				c0.111,0,0.207,0.059,0.326,0.07c0.142,0.016,0.241-0.014,0.324-0.085C10.939,6.246,10.838,6.221,10.721,6.191 M9.506,5.245
				C9.457,5.338,9.383,5.357,9.39,5.546C9.35,5.379,9.254,5.316,9.255,5.209c-0.068,0.28,0.112,0.313,0.158,0.432
				C9.406,5.473,9.514,5.438,9.506,5.245 M9.573,5.027C9.556,5.052,9.545,5.063,9.5,5.1C9.438,5.148,9.39,5.213,9.369,5.311
				c0.004-0.104-0.061-0.252-0.018-0.357C9.187,5.182,9.361,5.32,9.368,5.402C9.41,5.242,9.509,5.242,9.573,5.027 M11.26,5.311
				c-0.021-0.098-0.069-0.16-0.129-0.211c-0.045-0.037-0.059-0.048-0.074-0.072c0.063,0.216,0.162,0.216,0.205,0.375
				c0.005-0.082,0.18-0.221,0.016-0.449C11.319,5.059,11.255,5.206,11.26,5.311 M11.4,5.458c-0.036,0.104-0.158,0.163-0.239,0.315
				c0.046-0.182-0.021-0.229-0.028-0.33c-0.067,0.179,0.021,0.24-0.029,0.426C11.163,5.79,11.398,5.747,11.4,5.458 M11.123,5.245
				c-0.009,0.192,0.101,0.226,0.093,0.396c0.045-0.119,0.225-0.15,0.157-0.432c0.002,0.107-0.096,0.17-0.135,0.337
				C11.246,5.357,11.172,5.338,11.123,5.245 M9.635,4.816C9.676,4.77,9.69,4.702,9.756,4.654C9.621,4.682,9.508,4.799,9.477,4.945
				C9.52,4.896,9.592,4.867,9.635,4.816 M10.956,4.841c0.059,0.188,0.194,0.147,0.289,0.347c-0.011-0.067,0.066-0.28-0.114-0.412
				c0.06,0.072,0.043,0.209,0.079,0.297C11.139,4.923,10.989,4.896,10.956,4.841 M10.488,4.948
				c-0.033-0.015-0.069-0.025-0.107-0.029c0,0.008,0,0.015,0,0.024c0.034,0.005,0.069,0.014,0.1,0.027
				C10.485,4.964,10.486,4.957,10.488,4.948 M10.46,4.714l0.007-0.006L10.453,4.7h-0.036l-0.01,0.008l-0.021-0.002v0.005
				c0.014,0,0.027,0.002,0.038,0.003l0.018-0.001L10.46,4.714z M10.389,5.499c0-0.006-0.008-0.013-0.021-0.019h-0.002
				c0,0.006,0,0.028-0.002,0.041C10.381,5.516,10.389,5.508,10.389,5.499 M9.963,5.036c0.002-0.005,0.002-0.009,0.004-0.013
				C9.961,5.025,9.956,5.025,9.951,5.025L9.963,5.036z M10.315,6.107c0.415,0,0.751-0.334,0.751-0.743
				c0-0.384-0.297-0.702-0.675-0.737c0,0,0,0.001,0,0.003c-0.002,0.007-0.004,0.015-0.005,0.019
				c0.171,0.019,0.323,0.093,0.438,0.203l-0.083,0.082l0.001-0.015l-0.011-0.004l-0.014-0.002l0.001-0.009L10.712,4.87l-0.021-0.022
				l-0.064-0.031L10.621,4.82l-0.013,0.004c0.022,0.033,0.035,0.07,0.035,0.107c0,0.004,0,0.01,0,0.017l0.031,0.038L10.66,4.99
				l0.009,0.014l-0.027,0.029L10.63,5.011c-0.005,0.015-0.013,0.029-0.021,0.041c0.002,0.005,0.003,0.005,0.008,0.007l-0.089,0.088
				c-0.005-0.006-0.01-0.012-0.016-0.017c-0.009,0.005-0.017,0.009-0.026,0.013c0.001,0.002,0.006,0.004,0.008,0.006L10.49,5.15
				l-0.01,0.007l-0.005,0.011L10.47,5.161l-0.02,0.005l0.005,0.009l0.012-0.003h0.008V5.168l0.007-0.004l0.002-0.003l0.013-0.004
				h0.009c0.002,0.002,0.003,0.004,0.005,0.005l-0.035,0.033l-0.001-0.004l-0.036,0.008l-0.009,0.007l-0.008,0.001l0.023-0.021
				l-0.009-0.004l-0.021,0.026h0.005v0.013l0.008,0.004v0.01L10.417,5.23l-0.015,0.002l-0.03-0.018c0,0-0.001,0.085-0.001,0.128
				c0.073,0.024,0.153,0.062,0.153,0.155c0,0.042-0.019,0.074-0.054,0.102l0,0H10.47l0,0c-0.002,0-0.002,0.002-0.002,0.002
				c-0.031,0.021-0.071,0.03-0.104,0.041l-0.002,0.064c0.055,0.025,0.119,0.066,0.114,0.175c-0.001,0.027-0.012,0.034-0.021,0.038
				l0,0c-0.031,0.007-0.063,0.014-0.098,0.014c-0.001,0.01-0.001,0.019-0.001,0.024c0.146-0.009,0.276-0.069,0.375-0.162
				l0.088,0.086c-0.131,0.125-0.309,0.201-0.504,0.201c-0.192,0-0.37-0.076-0.501-0.199l0.088-0.086
				c0.097,0.091,0.227,0.149,0.368,0.16c0-0.007,0-0.017,0-0.024c-0.135-0.01-0.257-0.066-0.351-0.154l0.021-0.021l0.033,0.003
				L9.99,5.743l0.046,0.002l0.007-0.017l-0.001-0.004c0.064,0.047,0.143,0.078,0.228,0.086c0-0.008,0-0.017-0.002-0.022
				c-0.093-0.011-0.178-0.05-0.243-0.111l0.088-0.086c0.021,0.021,0.046,0.034,0.071,0.048c0.002-0.008,0.004-0.017,0.009-0.022
				c-0.021-0.011-0.043-0.024-0.062-0.042l0.086-0.086c0.014,0.012,0.031,0.021,0.047,0.025c0-0.009,0-0.018,0-0.025
				c-0.01-0.004-0.021-0.012-0.029-0.018l0.026-0.025c-0.008,0-0.018-0.004-0.026-0.008l-0.018,0.019
				c-0.008-0.011-0.015-0.021-0.021-0.031c-0.016-0.008-0.028-0.014-0.043-0.022c-0.053-0.034-0.081-0.084-0.081-0.146
				c0-0.048,0.015-0.083,0.034-0.112l-0.086-0.086c0.063-0.06,0.144-0.1,0.233-0.113c0-0.01,0-0.016,0-0.023
				c-0.098,0.014-0.184,0.057-0.25,0.121L9.987,5.025C9.983,5.031,9.978,5.038,9.975,5.047l0.008,0.01
				C9.909,5.135,9.863,5.24,9.861,5.357H9.737C9.738,5.207,9.8,5.07,9.898,4.971l0.038,0.037c0.001,0,0.003,0,0.006,0
				c0.008,0,0.015-0.002,0.021-0.007L9.915,4.953C9.941,4.93,9.968,4.904,9.999,4.886c0.004-0.009,0.005-0.016,0.007-0.019
				c0.001-0.002,0.008-0.014,0.019-0.024C9.978,4.868,9.935,4.9,9.897,4.936L9.809,4.85c0.114-0.108,0.267-0.184,0.434-0.201
				C10.24,4.646,10.24,4.645,10.24,4.645c-0.001-0.006-0.001-0.013-0.003-0.018C9.859,4.664,9.565,4.98,9.565,5.364
				C9.564,5.773,9.901,6.107,10.315,6.107 M10.477,5.596V5.593V5.596L10.477,5.596 M10.842,4.868c0.123,0.129,0.199,0.3,0.2,0.489
				h-0.125c0-0.096-0.024-0.184-0.064-0.26l0.002-0.005l0.008,0.005l0.002-0.007l-0.021-0.038l-0.026-0.035l-0.03-0.023
				c-0.011-0.016-0.021-0.026-0.033-0.039L10.842,4.868z M10.685,5.025h0.029l0.007,0.01l-0.003,0.012l0.042,0.026l0.007-0.003
				l0.054,0.061l0.021-0.006c0.035,0.07,0.054,0.148,0.054,0.232h-0.123c-0.002-0.032-0.005-0.063-0.012-0.094l0.005-0.009
				l0.009-0.038L10.77,5.176L10.752,5.13l-0.035-0.051l0.009,0.006l0.003-0.006l-0.027-0.017L10.7,5.066l0.026,0.041l0.017,0.031
				l0.012,0.032l0.003,0.021l0.005,0.037h-0.01c0,0-0.012-0.021-0.017-0.031l0.006-0.008l-0.011-0.016V5.159L10.725,5.15
				l-0.01,0.002c-0.004-0.008-0.007-0.012-0.01-0.021l0.006,0.004l0.002-0.002L10.71,5.128l0.009-0.006l-0.003-0.005l-0.012,0.005
				l0.003-0.021H10.7l-0.008,0.014c-0.012-0.02-0.027-0.037-0.045-0.057L10.685,5.025z M10.659,5.313l0.021-0.014l0.022-0.003
				l0.005-0.01l0.012-0.009l0.005-0.01l0.003-0.02c0.002,0.007,0.005,0.014,0.005,0.02l-0.012,0.037v0.012l0.018-0.024
				c0.004,0.021,0.006,0.044,0.008,0.063h-0.109l-0.001-0.008l0.012-0.011l0.001-0.006l0.007-0.003l0.015-0.002l0.002-0.008
				L10.659,5.313z M10.51,5.229l0.012-0.004l0,0L10.51,5.214l0.003-0.021l0.014-0.012c0.01,0.008,0.017,0.019,0.022,0.027
				l-0.003,0.016l-0.012-0.011l-0.011,0.002l0.005,0.009h0.006l-0.006,0.012l-0.003-0.004L10.51,5.229z M10.559,5.633l-0.028-0.008
				l-0.007,0.004l-0.016-0.012l-0.014-0.006c0.007-0.006,0.014-0.01,0.021-0.016l0.021,0.016l0.017,0.01l0.009,0.008L10.559,5.633z
				 M10.545,5.162l0.088-0.085c0.02,0.021,0.038,0.044,0.054,0.069l-0.01,0.004v0.02l0.033,0.021
				c0.007,0.017,0.014,0.035,0.021,0.054l-0.007,0.009l-0.01,0.008l-0.003,0.018L10.7,5.282L10.694,5.29l-0.007-0.002l-0.012-0.001
				l0.007-0.01l0.005-0.022l0.009-0.006l-0.023-0.022l-0.018,0.006L10.65,5.249l-0.012,0.012l-0.01-0.01l-0.005-0.009l0.007-0.006
				l0.003,0.008l0.005-0.002l-0.001-0.01L10.63,5.23l-0.002,0.004l-0.005,0.002l-0.026-0.032l-0.01-0.007l0.004-0.004l0.008-0.002
				l-0.007-0.004l-0.01,0.002l0.005,0.008h-0.015C10.564,5.186,10.555,5.173,10.545,5.162 M10.59,5.622l-0.012-0.013l0.008-0.012
				l0.012-0.022l-0.005-0.007l0.009-0.019L10.6,5.536L10.595,5.52l-0.01-0.002l-0.004,0.008l-0.006-0.002
				c0.01-0.014,0.019-0.026,0.025-0.045l0.012-0.002l0.006-0.01l0.004,0.004l0.007-0.009l-0.005-0.009l0.005-0.002l0.01,0.005h0.02
				l0.012-0.005l0.029-0.01l-0.006-0.01L10.692,5.42l0.017,0.007l0.005-0.003l-0.001-0.012L10.69,5.418l-0.021-0.003l-0.018-0.034
				h0.096c-0.005,0.108-0.051,0.205-0.119,0.277l-0.015-0.012l0.006-0.019L10.611,5.59L10.59,5.622z M10.605,5.857l0.013-0.023
				l-0.004-0.01l0.017-0.016V5.801l-0.014-0.01l0.012-0.023l0.017-0.021l-0.017-0.021h-0.015l-0.009-0.013
				c0.007-0.007,0.015-0.012,0.022-0.019l0.086,0.086C10.681,5.811,10.645,5.836,10.605,5.857 M10.714,5.745l0.01-0.011
				l-0.008-0.047l-0.007-0.004l0.003-0.008L10.691,5.67l-0.003,0.018l-0.002,0.021l-0.005,0.004l-0.037-0.037
				c0.075-0.077,0.121-0.181,0.126-0.294h0.123c-0.004,0.146-0.065,0.281-0.162,0.381L10.714,5.745z M10.748,5.779
				c0.102-0.104,0.167-0.243,0.169-0.398h0.125c-0.005,0.188-0.083,0.358-0.205,0.484L10.748,5.779z M10.006,5.66
				C9.997,5.65,9.989,5.643,9.98,5.633l0.003-0.031L9.971,5.572L9.968,5.525L9.954,5.497L9.956,5.48L9.939,5.445L9.923,5.439
				L9.93,5.422L9.923,5.406L9.93,5.391h0.017l0.006-0.01h0.028l0.004,0.01L9.98,5.418L9.977,5.424l0.01,0.021L9.98,5.451
				L9.975,5.443L9.973,5.445L9.978,5.46l0.009,0.017H9.99l0.004-0.015L9.989,5.456V5.445L9.987,5.427l0.007-0.036l-0.007-0.01h0.021
				c0.005,0.075,0.037,0.143,0.086,0.192L10.006,5.66z M9.925,5.422l-0.012,0.02H9.892V5.439C9.889,5.42,9.885,5.4,9.885,5.381
				h0.036L9.913,5.41L9.925,5.422z M9.965,5.339l0.003-0.024l0.014-0.008l0.026,0.006l0.003,0.002
				c-0.002,0.016-0.003,0.027-0.003,0.045h-0.03L9.965,5.339z M10.091,5.432l0.005-0.005l0.017,0.013l-0.007,0.006l0.019,0.012
				l-0.002-0.012l0.01-0.019l0.01,0.011l0.01,0.017l-0.019,0.003l0.008,0.018l0.014-0.007l-0.001-0.005l0.009-0.007l0.007-0.026
				c0.007,0.016,0.016,0.029,0.027,0.043L10.11,5.561c-0.043-0.043-0.069-0.102-0.077-0.164l0.019,0.021h0.016L10.091,5.432z
				 M10.001,5.073l0.088,0.086c-0.02,0.021-0.034,0.044-0.046,0.067l-0.007-0.002L10.023,5.23L10.02,5.229L10.006,5.24l0.017-0.002
				l0.015-0.004c0,0.002-0.001,0.004-0.001,0.006l-0.015,0.007h-0.005l-0.02,0.017l-0.02-0.003l-0.026,0.05l0.005,0.01L9.942,5.336
				l-0.001,0.02H9.885C9.887,5.247,9.93,5.148,10.001,5.073 M9.889,5.725L9.916,5.74l0.005,0.006L9.901,5.764
				C9.892,5.755,9.884,5.745,9.875,5.734L9.889,5.725z M9.861,5.381c0,0.012,0.001,0.023,0.001,0.035L9.849,5.42L9.845,5.436
				L9.813,5.477l0.001,0.053l-0.033,0.01H9.764c-0.017-0.05-0.026-0.104-0.027-0.158H9.861z M9.738,5.539L9.732,5.538L9.724,5.529
				L9.69,5.527L9.7,5.541L9.669,5.536l0.007-0.009L9.669,5.52l-0.023,0.01L9.637,5.545l0.004,0.036l0.027,0.063L9.68,5.663
				l0.008,0.003l-0.02-0.038L9.662,5.607l0.005-0.006l-0.004-0.01l0.012,0.002l0.019,0.027L9.7,5.623V5.602l0.008,0.006l0.001,0.012
				l0.019,0.004l0.009-0.004l0.002,0.002L9.738,5.636l0.01,0.011l0.011,0.002L9.78,5.686l0.016,0.006l0.004-0.019
				c0.023,0.039,0.053,0.075,0.086,0.106L9.797,5.867C9.672,5.741,9.593,5.57,9.589,5.381h0.123
				C9.714,5.436,9.722,5.489,9.738,5.539 M9.792,4.867L9.88,4.953C9.777,5.059,9.714,5.201,9.712,5.355H9.589
				C9.591,5.168,9.668,4.995,9.792,4.867 M10.685,4.82l-0.007-0.01l-0.016-0.008l-0.015,0.01l0.018,0.008l0.017,0.015L10.685,4.82z
				 M10.611,5.166v0.011l0.022-0.007l0.005-0.013l-0.014-0.019l0.007-0.013l0.021,0.015l0.003-0.005l-0.003-0.002l-0.005-0.008
				l0.009-0.006l-0.009-0.011l-0.019,0.012l-0.005,0.01L10.62,5.143l0.007,0.014l-0.004,0.007L10.611,5.166z M9.718,5.714
				L9.72,5.708L9.708,5.686L9.695,5.68L9.718,5.714z M10.222,5.256c0,0.021,0.014,0.034,0.036,0.047c0,0,0-0.004,0-0.009
				l-0.014-0.015l0.007-0.014l0.007-0.002c-0.002-0.023-0.002-0.052-0.002-0.056h-0.001C10.234,5.223,10.222,5.234,10.222,5.256"/>
			<path fill="#FFFFFF" d="M10.36,5.784c0.04,0.021,0.074,0.047,0.09,0.098c0.007-0.085-0.041-0.122-0.089-0.146L10.36,5.784"/>
			<path fill="#FFFFFF" d="M10.617,4.932c0-0.076-0.056-0.162-0.193-0.19C10.416,4.74,10.4,4.738,10.383,4.736
				c0,0.012,0,0.037,0,0.037c0,0.01-0.001,0.041-0.001,0.045c0.012,0.002,0.021,0.004,0.026,0.006
				c0.078,0.018,0.107,0.064,0.107,0.107c0,0.072-0.062,0.101-0.14,0.12c-0.009,0.003-0.019,0.005-0.026,0.007
				c-0.021,0.006-0.047,0.012-0.071,0.02c-0.009,0-0.018,0.004-0.025,0.006c-0.085,0.025-0.157,0.068-0.157,0.172
				s0.083,0.141,0.164,0.165c0-0.028,0-0.06-0.002-0.088c-0.036-0.019-0.061-0.04-0.061-0.076s0.022-0.059,0.059-0.073
				c0.007-0.004,0.016-0.008,0.023-0.011c0.021-0.008,0.043-0.013,0.067-0.019c0.009-0.002,0.018-0.004,0.026-0.006
				C10.49,5.119,10.617,5.085,10.617,4.932"/>
			<path fill="#FFFFFF" d="M10.204,5.66c0,0.041,0.03,0.064,0.062,0.081c0-0.007-0.001-0.07-0.001-0.072
				c0.001-0.013,0.014-0.021,0.024-0.024c0.014-0.006,0.028-0.012,0.048-0.02c0.01-0.003,0.018-0.006,0.025-0.008
				c0.063-0.02,0.136-0.044,0.136-0.118c0-0.075-0.063-0.106-0.129-0.129c0,0.022-0.002,0.06-0.002,0.083
				c0.028,0.011,0.048,0.023,0.048,0.046c0,0.026-0.029,0.042-0.051,0.05c-0.009,0.004-0.021,0.008-0.025,0.01
				c-0.017,0.006-0.034,0.012-0.05,0.018c-0.01,0.004-0.019,0.007-0.026,0.011C10.234,5.602,10.204,5.622,10.204,5.66"/>
			<path fill="#FFFFFF" d="M10.246,4.747c-0.042,0.013-0.065,0.026-0.074,0.03c-0.027,0.01-0.065,0.012-0.104,0.053
				c-0.009,0.007-0.023,0.029-0.035,0.047c-0.013,0.016-0.015,0.044-0.023,0.059c-0.012,0.021-0.008,0.032-0.008,0.032v0.003
				c0,0.002-0.003,0.014-0.015,0.024c-0.014,0.014-0.03,0.022-0.052,0.021c0.02,0.008,0.043-0.005,0.043-0.005
				S9.973,5.025,9.969,5.046C9.989,5,10.008,4.984,10.013,4.979c0.008,0.004,0.026,0.002,0.06-0.018
				c0.037-0.021,0.094-0.057,0.109-0.078c0.019-0.021,0.042-0.037,0.068-0.048C10.248,4.803,10.248,4.773,10.246,4.747
				 M10.084,4.895l-0.021,0.004l0.03-0.043h0.027L10.084,4.895z"/>
			<path fill="#FFFFFF" d="M10.323,5.654c-0.003,0.002-0.012,0.006-0.019,0.008c-0.005,0.003-0.014,0.005-0.014,0.009
				c0,0,0.005,0.322,0.005,0.329c0,0.066,0.035,0.066,0.035,0c0-0.005,0.007-0.352,0.007-0.352S10.329,5.652,10.323,5.654"/>
			<path fill="#FFFFFF" d="M10.289,5.548c0.01-0.003,0.021-0.007,0.03-0.009c0.008-0.003,0.015-0.005,0.021-0.007
				c0-0.021,0.005-0.302,0.007-0.353c-0.026,0.004-0.048,0.012-0.065,0.02C10.282,5.236,10.287,5.52,10.289,5.548"/>
			<path fill="#FFFFFF" d="M10.317,4.471c-0.097,0-0.056,0.143-0.049,0.188c0.002,0.002,0.009,0.317,0.011,0.392
				c0.014-0.004,0.029-0.007,0.043-0.011c0.011-0.004,0.02-0.005,0.029-0.007c0.002-0.071,0.009-0.374,0.009-0.375
				C10.365,4.609,10.415,4.471,10.317,4.471"/>
			<polyline fill="#FFFFFF" points="11.89,4.739 11.889,4.739 11.807,5.182 11.695,5.182 11.59,4.643 11.68,4.643 11.752,5.057 
				11.754,5.057 11.832,4.643 11.948,4.643 12.023,5.057 12.025,5.057 12.101,4.643 12.187,4.643 12.08,5.182 11.967,5.182 			"/>
			<path fill="#FFFFFF" d="M12.344,4.775c0.078,0,0.167,0.041,0.167,0.205c0,0.166-0.09,0.203-0.167,0.203s-0.167-0.037-0.167-0.203
				C12.177,4.816,12.267,4.775,12.344,4.775 M12.344,5.118c0.061,0,0.073-0.071,0.073-0.138c0-0.065-0.013-0.137-0.073-0.137
				c-0.059,0-0.072,0.07-0.072,0.137S12.286,5.118,12.344,5.118"/>
			<path fill="#FFFFFF" d="M12.569,4.848c0-0.023,0-0.047-0.002-0.064h0.083c0,0.023,0.002,0.05,0.002,0.072h0.002
				c0.013-0.031,0.039-0.078,0.097-0.078c0.007,0,0.01,0.002,0.016,0.002v0.09c-0.007-0.001-0.016-0.003-0.025-0.003
				c-0.038,0-0.08,0.022-0.08,0.097v0.219h-0.092"/>
			<rect x="12.824" y="4.604" fill="#FFFFFF" width="0.092" height="0.578"/>
			<path fill="#FFFFFF" d="M13.3,4.604v0.506c0,0.031,0.002,0.055,0.004,0.07h-0.087c-0.001-0.013-0.003-0.035-0.003-0.063h-0.001
				c-0.017,0.033-0.042,0.066-0.103,0.066c-0.095,0-0.133-0.094-0.133-0.203c0-0.129,0.048-0.205,0.131-0.205
				c0.056,0,0.084,0.033,0.099,0.063h0.002V4.604 M13.135,5.116c0.054,0,0.073-0.063,0.073-0.138c0-0.076-0.021-0.133-0.071-0.133
				c-0.052,0-0.069,0.051-0.069,0.131C13.069,5.068,13.082,5.116,13.135,5.116"/>
			<polyline fill="#FFFFFF" points="13.602,4.643 13.697,4.643 13.697,4.859 13.85,4.859 13.85,4.643 13.946,4.643 13.946,5.182 
				13.85,5.182 13.85,4.941 13.697,4.941 13.697,5.182 13.602,5.182 			"/>
			<path fill="#FFFFFF" d="M14.298,5.159c-0.02,0.009-0.06,0.024-0.114,0.024c-0.123,0-0.177-0.091-0.177-0.197
				c0-0.118,0.059-0.211,0.157-0.211c0.082,0,0.151,0.051,0.151,0.213v0.019h-0.221c0,0.068,0.026,0.109,0.097,0.109
				c0.058,0,0.083-0.019,0.101-0.031 M14.229,4.947c0-0.07-0.021-0.106-0.063-0.106c-0.048,0-0.069,0.054-0.069,0.106H14.229z"/>
			<path fill="#FFFFFF" d="M14.4,4.807c0.026-0.013,0.063-0.029,0.121-0.029c0.118,0,0.146,0.061,0.146,0.158v0.174
				c0,0.029,0.003,0.056,0.005,0.072h-0.083c-0.004-0.018-0.005-0.037-0.005-0.057h-0.002c-0.022,0.032-0.053,0.061-0.107,0.061
				c-0.058,0-0.114-0.041-0.114-0.115c0-0.108,0.085-0.137,0.203-0.137h0.018V4.921c0-0.041-0.018-0.075-0.07-0.075
				c-0.045,0-0.087,0.021-0.104,0.036 M14.579,4.984h-0.007c-0.079,0-0.126,0.018-0.126,0.074c0,0.037,0.022,0.063,0.06,0.063
				c0.056,0,0.074-0.044,0.074-0.114L14.579,4.984L14.579,4.984z"/>
			<rect x="14.757" y="4.604" fill="#FFFFFF" width="0.092" height="0.578"/>
			<path fill="#FFFFFF" d="M14.963,4.7l0.092-0.029v0.111h0.078v0.069h-0.078v0.207c0,0.041,0.015,0.053,0.041,0.053
				c0.017,0,0.029-0.002,0.037-0.008v0.067c-0.016,0.007-0.035,0.013-0.063,0.013c-0.068,0-0.106-0.031-0.106-0.115V4.854h-0.062
				v-0.07h0.062"/>
			<path fill="#FFFFFF" d="M15.179,4.604h0.091v0.23h0.004c0.016-0.023,0.036-0.059,0.096-0.059c0.086,0,0.111,0.068,0.111,0.146
				V5.18h-0.093V4.941c0-0.063-0.014-0.088-0.052-0.088c-0.048,0-0.066,0.043-0.066,0.095V5.18h-0.091"/>
			<path fill="#FFFFFF" d="M11.794,5.32C11.901,5.32,12,5.404,12,5.598c0,0.192-0.1,0.275-0.206,0.275
				c-0.109,0-0.208-0.083-0.208-0.275C11.586,5.404,11.685,5.32,11.794,5.32 M11.794,5.799c0.059,0,0.106-0.052,0.106-0.201
				c0-0.146-0.048-0.199-0.106-0.199c-0.062,0-0.109,0.054-0.109,0.199C11.685,5.747,11.733,5.799,11.794,5.799"/>
			<path fill="#FFFFFF" d="M12.061,5.536c0-0.024-0.002-0.047-0.003-0.065h0.083c0,0.023,0.003,0.049,0.003,0.072h0.002
				c0.01-0.031,0.04-0.077,0.097-0.077c0.005,0,0.01,0.001,0.016,0.001v0.09c-0.008-0.004-0.017-0.004-0.026-0.004
				c-0.038,0-0.08,0.022-0.08,0.098v0.218h-0.091"/>
			<path fill="#FFFFFF" d="M12.315,5.928c0.021,0.012,0.064,0.034,0.112,0.034c0.086,0,0.1-0.062,0.1-0.124V5.801l0,0
				c-0.016,0.03-0.042,0.066-0.102,0.066c-0.053,0-0.133-0.037-0.133-0.196c0-0.11,0.038-0.205,0.138-0.205
				c0.055,0,0.081,0.031,0.1,0.066h0.005c0-0.021,0.001-0.041,0.001-0.063h0.084c-0.002,0.021-0.003,0.042-0.003,0.063v0.294
				c0,0.122-0.036,0.211-0.177,0.211c-0.06,0-0.108-0.018-0.131-0.025 M12.459,5.797c0.057,0,0.079-0.044,0.079-0.133
				c0-0.083-0.029-0.128-0.072-0.126c-0.048,0-0.067,0.046-0.067,0.127C12.398,5.757,12.427,5.797,12.459,5.797"/>
			<path fill="#FFFFFF" d="M12.716,5.494c0.026-0.014,0.062-0.028,0.121-0.028c0.119,0,0.146,0.058,0.146,0.157v0.174
				c0,0.029,0.003,0.057,0.005,0.07h-0.083c-0.005-0.016-0.005-0.035-0.005-0.057h-0.002c-0.022,0.033-0.052,0.063-0.106,0.063
				c-0.06,0-0.114-0.042-0.114-0.116c0-0.106,0.084-0.135,0.2-0.135h0.019V5.607c0-0.039-0.019-0.075-0.07-0.075
				c-0.047,0-0.086,0.022-0.105,0.038 M12.897,5.673h-0.009c-0.078,0-0.124,0.017-0.124,0.075c0,0.036,0.022,0.061,0.059,0.061
				c0.056,0,0.074-0.043,0.074-0.113V5.673z"/>
			<path fill="#FFFFFF" d="M13.077,5.536c0-0.024-0.002-0.047-0.003-0.065h0.086c0,0.021,0.001,0.041,0.001,0.061h0.003h-0.001
				c0.014-0.022,0.04-0.064,0.102-0.064c0.087,0,0.113,0.064,0.113,0.146v0.255h-0.092V5.629c0-0.061-0.017-0.086-0.053-0.086
				c-0.048,0-0.064,0.043-0.064,0.093v0.231h-0.092"/>
			<path fill="#FFFFFF" d="M13.46,5.303h0.095v0.094H13.46 M13.462,5.471h0.091v0.396h-0.091V5.471z"/>
			<polyline fill="#FFFFFF" points="13.64,5.784 13.802,5.543 13.645,5.543 13.645,5.471 13.894,5.471 13.894,5.553 13.735,5.795 
				13.899,5.795 13.899,5.867 13.64,5.867 			"/>
			<path fill="#FFFFFF" d="M13.987,5.494c0.026-0.014,0.063-0.028,0.121-0.028c0.117,0,0.146,0.058,0.146,0.157v0.174
				c0,0.029,0.003,0.057,0.005,0.07h-0.083c-0.003-0.016-0.005-0.035-0.005-0.057h-0.001c-0.022,0.033-0.052,0.063-0.107,0.063
				c-0.059,0-0.114-0.042-0.114-0.116c0-0.106,0.085-0.135,0.202-0.135h0.019V5.607c0-0.039-0.019-0.075-0.071-0.075
				c-0.045,0-0.086,0.022-0.104,0.038 M14.167,5.673H14.16c-0.08,0-0.126,0.017-0.126,0.075c0,0.036,0.022,0.061,0.059,0.061
				c0.055,0,0.074-0.043,0.074-0.113V5.673z"/>
			<path fill="#FFFFFF" d="M14.358,5.391l0.095-0.029v0.109h0.075v0.07h-0.075v0.206c0,0.041,0.014,0.054,0.042,0.054
				c0.016,0,0.026-0.004,0.033-0.01v0.068c-0.014,0.008-0.033,0.014-0.062,0.014c-0.067,0-0.107-0.033-0.107-0.116V5.541h-0.06
				v-0.07h0.06"/>
			<path fill="#FFFFFF" d="M14.59,5.303h0.095v0.094H14.59 M14.602,5.471h0.092v0.396h-0.092V5.471z"/>
			<path fill="#FFFFFF" d="M14.932,5.466c0.08,0,0.167,0.041,0.167,0.203c0,0.165-0.088,0.204-0.167,0.204
				c-0.078,0-0.167-0.039-0.167-0.204C14.764,5.507,14.854,5.466,14.932,5.466 M14.932,5.805c0.061,0,0.074-0.07,0.074-0.136
				c0-0.067-0.014-0.137-0.074-0.137c-0.059,0-0.072,0.069-0.072,0.137C14.86,5.734,14.873,5.805,14.932,5.805"/>
			<path fill="#FFFFFF" d="M15.181,5.536c0-0.024-0.002-0.047-0.004-0.065h0.086c0,0.021,0.003,0.041,0.003,0.061h0.002h-0.002
				c0.014-0.022,0.04-0.064,0.103-0.064c0.086,0,0.111,0.064,0.111,0.146v0.255h-0.09V5.629c0-0.061-0.014-0.086-0.052-0.086
				c-0.049,0-0.066,0.043-0.066,0.093v0.231h-0.091"/>
			<path fill="#FFFFFF" d="M4.449,4.588h0.152c0.111,0,0.169,0.066,0.169,0.176c0,0.107-0.058,0.176-0.169,0.176H4.547v0.224H4.449
				 M4.584,4.857c0.062,0,0.088-0.032,0.088-0.094c0-0.063-0.027-0.096-0.088-0.096H4.547v0.188h0.037V4.857z"/>
			<path fill="#FFFFFF" d="M4.823,4.766C4.85,4.751,4.888,4.73,4.948,4.73C5.072,4.73,5.1,4.796,5.1,4.902v0.186
				c0,0.031,0.003,0.061,0.005,0.076H5.02C5.015,5.146,5.014,5.127,5.014,5.105H5.012C4.989,5.141,4.958,5.17,4.902,5.17
				c-0.061,0-0.117-0.045-0.117-0.124c0-0.114,0.087-0.146,0.208-0.146H5.01V4.886c0-0.04-0.019-0.081-0.073-0.081
				c-0.047,0-0.09,0.025-0.108,0.041 M5.01,4.955H5.003c-0.082,0-0.13,0.02-0.13,0.081c0,0.039,0.022,0.063,0.06,0.063
				c0.057,0,0.078-0.045,0.078-0.121L5.01,4.955L5.01,4.955z"/>
			<path fill="#FFFFFF" d="M5.197,4.811c0-0.025-0.001-0.053-0.003-0.07h0.09c0,0.021,0.003,0.045,0.003,0.064h0.002l0,0
				c0.014-0.025,0.041-0.072,0.104-0.072c0.089,0,0.116,0.072,0.116,0.156v0.275H5.414V4.908c0-0.063-0.016-0.092-0.055-0.092
				c-0.05,0-0.067,0.045-0.067,0.101v0.247H5.197"/>
			<path fill="#FFFFFF" d="M6.052,5.025H5.867L5.828,5.164H5.73L5.91,4.588h0.107l0.173,0.576H6.089 M6.031,4.945L5.963,4.677H5.961
				L5.888,4.945H6.031z"/>
			<path fill="#FFFFFF" d="M6.243,4.809c0-0.029-0.001-0.055-0.002-0.068h0.095c0,0.021,0.003,0.045,0.003,0.066h0.002
				c0.014-0.033,0.045-0.074,0.1-0.074c0.067,0,0.088,0.045,0.101,0.066C6.56,4.77,6.588,4.73,6.646,4.73
				c0.087,0,0.114,0.067,0.114,0.17v0.264H6.665V4.896c0-0.055-0.017-0.08-0.052-0.08c-0.042,0-0.063,0.043-0.063,0.09v0.258H6.454
				V4.896c0-0.055-0.016-0.08-0.051-0.08c-0.042,0-0.064,0.043-0.064,0.09v0.258H6.243"/>
			<path fill="#FFFFFF" d="M7.143,5.145C7.122,5.152,7.081,5.17,7.024,5.17c-0.127,0-0.183-0.097-0.183-0.213
				c0-0.127,0.063-0.227,0.163-0.227c0.085,0,0.159,0.055,0.159,0.229V4.98h-0.23c0,0.071,0.027,0.115,0.102,0.115
				c0.058,0,0.086-0.019,0.104-0.033 M7.07,4.915c0-0.076-0.021-0.114-0.065-0.114c-0.05,0-0.071,0.057-0.071,0.114H7.07z"/>
			<path fill="#FFFFFF" d="M7.247,4.811c0-0.025-0.001-0.053-0.003-0.07h0.087c0,0.025,0.002,0.052,0.002,0.076h0.002
				c0.012-0.031,0.042-0.084,0.101-0.084c0.006,0,0.011,0.002,0.017,0.004V4.83c-0.01-0.002-0.018-0.004-0.027-0.004
				c-0.039,0-0.082,0.025-0.082,0.104v0.233H7.247"/>
			<path fill="#FFFFFF" d="M7.531,4.559h0.099V4.66H7.531 M7.531,4.739h0.097v0.423H7.531V4.739z"/>
			<path fill="#FFFFFF" d="M7.999,5.152C7.977,5.162,7.944,5.17,7.905,5.17c-0.131,0-0.186-0.097-0.186-0.218
				c0-0.122,0.058-0.222,0.191-0.222c0.029,0,0.064,0.012,0.083,0.019L7.989,4.83c-0.018-0.01-0.041-0.02-0.066-0.02
				c-0.072,0-0.104,0.051-0.104,0.143c0,0.079,0.035,0.14,0.108,0.14c0.023,0,0.055-0.011,0.068-0.019"/>
			<path fill="#FFFFFF" d="M8.085,4.766C8.112,4.751,8.149,4.73,8.21,4.73c0.123,0,0.151,0.065,0.151,0.172v0.186
				c0,0.031,0.002,0.061,0.006,0.076H8.28C8.276,5.146,8.275,5.127,8.275,5.105H8.274C8.25,5.141,8.22,5.17,8.163,5.17
				c-0.063,0-0.119-0.045-0.119-0.124c0-0.114,0.088-0.146,0.208-0.146h0.019V4.886c0-0.04-0.019-0.081-0.074-0.081
				c-0.048,0-0.09,0.025-0.107,0.041 M8.272,4.955H8.264c-0.082,0-0.13,0.02-0.13,0.081c0,0.039,0.024,0.063,0.061,0.063
				c0.058,0,0.078-0.045,0.078-0.121L8.272,4.955L8.272,4.955z"/>
			<path fill="#FFFFFF" d="M8.458,4.811c0-0.025-0.001-0.053-0.003-0.07h0.089c0.001,0.021,0.003,0.045,0.003,0.064h0.002H8.548
				c0.014-0.025,0.041-0.072,0.104-0.072c0.091,0,0.117,0.072,0.117,0.156v0.275H8.675V4.908c0-0.063-0.016-0.092-0.054-0.092
				c-0.051,0-0.068,0.045-0.068,0.101v0.247H8.458"/>
			<polyline fill="#FFFFFF" points="4.453,5.313 4.552,5.313 4.552,5.545 4.711,5.545 4.711,5.313 4.81,5.313 4.81,5.886 
				4.711,5.886 4.711,5.633 4.552,5.633 4.552,5.886 4.453,5.886 			"/>
			<path fill="#FFFFFF" d="M5.208,5.865C5.188,5.874,5.147,5.893,5.089,5.893c-0.127,0-0.184-0.099-0.184-0.213
				c0-0.128,0.063-0.226,0.164-0.226c0.085,0,0.159,0.053,0.159,0.226v0.021H4.999c0,0.072,0.026,0.115,0.101,0.115
				c0.059,0,0.085-0.019,0.104-0.032 M5.136,5.639c0-0.076-0.023-0.115-0.066-0.115c-0.05,0-0.07,0.059-0.07,0.115H5.136z"/>
			<path fill="#FFFFFF" d="M5.329,5.486c0.026-0.014,0.063-0.031,0.125-0.031c0.123,0,0.151,0.064,0.151,0.17v0.186
				c0,0.031,0.002,0.06,0.005,0.075H5.525C5.52,5.869,5.519,5.85,5.519,5.828H5.517C5.493,5.861,5.463,5.893,5.407,5.893
				c-0.062,0-0.119-0.047-0.119-0.123c0-0.117,0.088-0.146,0.208-0.146h0.019V5.607c0-0.041-0.019-0.08-0.074-0.08
				c-0.047,0-0.09,0.024-0.107,0.041 M5.516,5.68H5.508c-0.082,0-0.13,0.018-0.13,0.079c0,0.038,0.023,0.063,0.061,0.063
				c0.058,0,0.078-0.045,0.078-0.121L5.516,5.68L5.516,5.68z"/>
			<rect x="5.711" y="5.268" fill="#FFFFFF" width="0.096" height="0.618"/>
			<path fill="#FFFFFF" d="M5.944,5.375L6.04,5.344v0.118h0.079v0.076H6.04v0.219c0,0.045,0.016,0.06,0.043,0.06
				c0.017,0,0.028-0.006,0.036-0.01v0.071C6.105,5.886,6.084,5.895,6.055,5.895c-0.071,0-0.111-0.035-0.111-0.125V5.538H5.881V5.462
				h0.063"/>
			<path fill="#FFFFFF" d="M6.188,5.268h0.096v0.25h0.002c0.017-0.027,0.04-0.063,0.099-0.063c0.09,0,0.117,0.072,0.117,0.156v0.273
				H6.405V5.631c0-0.063-0.016-0.092-0.055-0.092c-0.05,0-0.066,0.045-0.066,0.102v0.245H6.188"/>
			<path fill="#FFFFFF" d="M4.646,6.023c0.111,0,0.213,0.092,0.213,0.299c0,0.205-0.102,0.295-0.213,0.295
				c-0.11,0-0.214-0.09-0.214-0.295C4.432,6.115,4.534,6.023,4.646,6.023 M4.646,6.535c0.063,0,0.112-0.057,0.112-0.213
				c0-0.159-0.05-0.217-0.112-0.217S4.534,6.163,4.534,6.322C4.533,6.479,4.583,6.535,4.646,6.535"/>
			<path fill="#FFFFFF" d="M4.948,6.254c0-0.025-0.001-0.052-0.003-0.07h0.086c0.002,0.025,0.004,0.055,0.004,0.078h0.001
				c0.012-0.033,0.042-0.084,0.101-0.084c0.006,0,0.011,0.002,0.016,0.002v0.096C5.145,6.271,5.136,6.271,5.126,6.271
				c-0.039,0-0.082,0.025-0.082,0.104v0.231H4.948"/>
			<path fill="#FFFFFF" d="M5.229,6.674c0.022,0.014,0.066,0.037,0.117,0.037c0.09,0,0.104-0.068,0.104-0.134v-0.04H5.449
				c-0.017,0.033-0.044,0.07-0.105,0.07c-0.056,0-0.139-0.039-0.139-0.209c0-0.119,0.04-0.222,0.144-0.222
				c0.059,0,0.084,0.035,0.104,0.073h0.003c0-0.021,0.002-0.045,0.003-0.066h0.086C5.544,6.206,5.542,6.229,5.542,6.251v0.313
				c0,0.133-0.038,0.228-0.183,0.228c-0.063,0-0.113-0.017-0.137-0.026 M5.366,6.534c0.06,0,0.084-0.048,0.084-0.144
				c0-0.089-0.032-0.138-0.078-0.138c-0.05,0.003-0.068,0.054-0.068,0.14C5.304,6.491,5.334,6.534,5.366,6.534"/>
			<path fill="#FFFFFF" d="M5.656,6.209C5.683,6.195,5.72,6.178,5.781,6.178c0.124,0,0.151,0.064,0.151,0.17v0.188
				c0,0.029,0.003,0.057,0.005,0.074H5.853C5.848,6.591,5.847,6.572,5.847,6.552H5.845c-0.023,0.034-0.054,0.063-0.11,0.063
				c-0.062,0-0.117-0.045-0.117-0.124c0-0.115,0.087-0.146,0.208-0.146h0.019V6.33c0-0.041-0.019-0.079-0.073-0.079
				c-0.047,0-0.09,0.022-0.108,0.04 M5.844,6.4H5.836c-0.082,0-0.13,0.019-0.13,0.08c0,0.039,0.022,0.064,0.06,0.064
				c0.057,0,0.078-0.044,0.078-0.12V6.4L5.844,6.4z"/>
			<path fill="#FFFFFF" d="M6.029,6.254c0-0.025-0.001-0.052-0.003-0.07h0.089c0,0.022,0.004,0.045,0.004,0.065H6.12l0,0
				c0.014-0.026,0.041-0.071,0.104-0.071c0.09,0,0.117,0.071,0.117,0.157v0.272H6.247V6.354c0-0.064-0.017-0.093-0.056-0.093
				c-0.05,0-0.066,0.044-0.066,0.101v0.246H6.029"/>
			<path fill="#FFFFFF" d="M6.444,6.004h0.099v0.102H6.444 M6.446,6.184h0.096v0.426H6.446V6.184z"/>
			<polyline fill="#FFFFFF" points="6.622,6.521 6.791,6.262 6.628,6.262 6.628,6.184 6.886,6.184 6.886,6.271 6.72,6.531 
				6.892,6.531 6.892,6.607 6.622,6.607 			"/>
			<path fill="#FFFFFF" d="M6.983,6.209C7.01,6.195,7.048,6.178,7.109,6.178c0.123,0,0.151,0.064,0.151,0.17v0.188
				c0,0.029,0.003,0.057,0.005,0.074H7.179C7.175,6.591,7.175,6.572,7.175,6.552H7.173C7.149,6.586,7.119,6.615,7.062,6.615
				c-0.061,0-0.118-0.045-0.118-0.124c0-0.115,0.089-0.146,0.208-0.146h0.02V6.33c0-0.041-0.02-0.079-0.074-0.079
				c-0.048,0-0.09,0.022-0.108,0.04 M7.171,6.4H7.163c-0.082,0-0.13,0.019-0.13,0.08c0,0.039,0.022,0.064,0.061,0.064
				c0.057,0,0.078-0.044,0.078-0.12L7.171,6.4L7.171,6.4z"/>
			<path fill="#FFFFFF" d="M7.392,6.098l0.096-0.031v0.117h0.079V6.26H7.488V6.48c0,0.043,0.016,0.058,0.042,0.058
				c0.018,0,0.029-0.005,0.037-0.009v0.072C7.552,6.607,7.531,6.615,7.502,6.615c-0.071,0-0.11-0.034-0.11-0.124V6.26H7.329V6.184
				h0.063"/>
			<path fill="#FFFFFF" d="M7.643,6.004H7.74v0.102H7.643 M7.644,6.184H7.74v0.426H7.644V6.184z"/>
			<path fill="#FFFFFF" d="M8.007,6.178c0.08,0,0.173,0.045,0.173,0.219c0,0.179-0.093,0.22-0.173,0.22
				c-0.081,0-0.175-0.041-0.175-0.22C7.831,6.223,7.926,6.178,8.007,6.178 M8.007,6.543c0.061,0,0.075-0.076,0.075-0.146
				c0-0.071-0.015-0.146-0.075-0.146c-0.063,0-0.077,0.073-0.077,0.146C7.93,6.467,7.945,6.543,8.007,6.543"/>
			<path fill="#FFFFFF" d="M8.263,6.254c0-0.025-0.001-0.052-0.003-0.07h0.089C8.35,6.206,8.352,6.229,8.352,6.249h0.002l0,0
				c0.015-0.026,0.041-0.071,0.105-0.071c0.09,0,0.117,0.071,0.117,0.157v0.272H8.481V6.354c0-0.064-0.016-0.093-0.055-0.093
				c-0.05,0-0.067,0.044-0.067,0.101v0.246H8.263"/>
			<path fill="#FFFFFF" d="M3.089,6.766c-0.64,0-1.162-0.515-1.162-1.146c0-0.633,0.521-1.148,1.162-1.148
				c0.641,0,1.162,0.516,1.162,1.148C4.251,6.251,3.729,6.766,3.089,6.766 M3.089,4.523c-0.611,0-1.108,0.492-1.108,1.096
				c0,0.602,0.498,1.094,1.108,1.094c0.611,0,1.108-0.492,1.108-1.094C4.198,5.016,3.7,4.523,3.089,4.523"/>
			<path fill="#FFFFFF" d="M3.089,6.451c-0.478,0-0.865-0.373-0.865-0.832c0-0.458,0.388-0.832,0.865-0.832
				c0.477,0,0.865,0.374,0.865,0.832C3.954,6.078,3.566,6.451,3.089,6.451 M3.089,4.846c-0.444,0-0.805,0.348-0.805,0.773
				s0.36,0.773,0.805,0.773s0.806-0.349,0.806-0.773C3.894,5.191,3.533,4.846,3.089,4.846"/>
			<polyline fill="#FFFFFF" points="2.171,5.221 2.186,5.275 2.242,5.275 2.202,5.309 2.217,5.355 2.169,5.318 2.122,5.359 
				2.141,5.309 2.093,5.275 2.149,5.275 			"/>
			<path fill="#FFFFFF" d="M2.222,5.364L2.169,5.32L2.124,5.363L2.119,5.359l0.018-0.049L2.083,5.273l0.063,0.002l0.025-0.064
				l0.017,0.063H2.25L2.205,5.309 M2.103,5.279l0.042,0.027L2.129,5.35l0.04-0.035l0.042,0.033L2.198,5.307l0.036-0.027h-0.05
				L2.171,5.23L2.151,5.279H2.103z"/>
			<polyline fill="#FFFFFF" points="3.944,6.016 3.958,6.07 4.014,6.07 3.973,6.104 3.989,6.152 3.941,6.113 3.894,6.156 
				3.913,6.104 3.865,6.07 3.921,6.073 			"/>
			<path fill="#FFFFFF" d="M3.994,6.161L3.941,6.117l-0.045,0.04L3.891,6.154l0.019-0.051L3.855,6.068h0.064l0.024-0.063
				l0.018,0.063h0.062L3.977,6.104 M3.875,6.074l0.042,0.027L3.901,6.146l0.041-0.037l0.042,0.035L3.97,6.104l0.035-0.028H3.957
				l-0.015-0.05l-0.02,0.051L3.875,6.074z"/>
			<polyline fill="#FFFFFF" points="2.231,6.004 2.245,6.061 2.302,6.061 2.26,6.09 2.276,6.141 2.228,6.102 2.181,6.145 2.2,6.09 
				2.153,6.061 2.208,6.063 			"/>
			<path fill="#FFFFFF" d="M2.281,6.148L2.228,6.105L2.183,6.145L2.179,6.143l0.018-0.051L2.142,6.057l0.064,0.002l0.024-0.064
				l0.018,0.063H2.31L2.264,6.092 M2.163,6.063L2.204,6.09L2.188,6.134l0.04-0.036L2.27,6.132L2.258,6.09l0.035-0.027H2.244
				L2.23,6.012L2.21,6.063H2.163z"/>
			<polyline fill="#FFFFFF" points="4.012,5.182 4.032,5.234 4.083,5.234 4.042,5.268 4.057,5.316 4.012,5.275 3.963,5.318 
				3.982,5.268 3.934,5.234 3.99,5.236 			"/>
			<path fill="#FFFFFF" d="M4.063,5.325L4.012,5.277L3.965,5.32L3.96,5.318l0.018-0.051L3.924,5.232h0.063l0.024-0.062l0.022,0.062
				h0.057L4.046,5.268 M3.945,5.238l0.041,0.027L3.97,5.311l0.042-0.039l0.04,0.035L4.039,5.268l0.036-0.028H4.031l-0.019-0.05
				L3.991,5.24L3.945,5.238z"/>
			<path fill="#FFFFFF" d="M3.157,5.619c0.005,0,0.009,0,0.014,0"/>
			<polyline fill="#FFFFFF" points="2.501,6.271 2.525,6.293 2.409,6.417 2.383,6.393 2.414,6.258 2.414,6.258 2.332,6.346 
				2.307,6.324 2.423,6.2 2.45,6.225 2.419,6.355 2.42,6.355 			"/>
			<path fill="#FFFFFF" d="M3.132,4.74L3.094,4.736l0.078-0.16l0.041,0.006l0.044,0.171L3.219,4.749L3.211,4.713L3.148,4.708
				 M3.16,4.68l0.043,0.004L3.189,4.616l0,0L3.16,4.68z"/>
			<polyline fill="#FFFFFF" points="3.364,4.749 3.445,4.773 3.435,4.803 3.32,4.766 3.374,4.609 3.408,4.619 			"/>
			<path fill="#FFFFFF" d="M3.626,4.852C3.601,4.889,3.569,4.889,3.532,4.867c-0.014-0.01-0.03-0.024-0.034-0.049
				C3.496,4.809,3.501,4.794,3.51,4.779l0.062-0.092l0.031,0.021L3.542,4.797c-0.014,0.02-0.008,0.035,0.006,0.044
				C3.569,4.855,3.583,4.85,3.595,4.832L3.656,4.74l0.03,0.02"/>
			<polyline fill="#FFFFFF" points="3.704,4.982 3.676,4.961 3.767,4.855 3.727,4.823 3.747,4.801 3.854,4.889 3.835,4.91 
				3.795,4.877 			"/>
			<path fill="#FFFFFF" d="M2.942,4.702c0.002,0.009,0.011,0.026,0.041,0.021c0.017,0,0.034-0.009,0.032-0.024
				C3.011,4.684,2.998,4.682,2.98,4.68H2.961C2.932,4.677,2.905,4.675,2.899,4.639C2.896,4.619,2.9,4.586,2.956,4.578
				c0.052-0.008,0.07,0.023,0.074,0.043L2.997,4.627c-0.003-0.008-0.01-0.023-0.04-0.02C2.945,4.609,2.929,4.616,2.932,4.632
				c0.002,0.013,0.014,0.015,0.021,0.015l0.043,0.002c0.022,0.004,0.046,0.011,0.052,0.039C3.056,4.738,3.005,4.75,2.99,4.751
				C2.927,4.762,2.911,4.727,2.907,4.706"/>
			<path fill="#FFFFFF" d="M2.553,4.706c0.02-0.011,0.078-0.026,0.115,0.041c0.037,0.069-0.011,0.104-0.032,0.114
				S2.558,4.891,2.521,4.82C2.485,4.753,2.532,4.716,2.553,4.706 M2.622,4.836c0.017-0.01,0.036-0.031,0.014-0.072
				S2.584,4.723,2.567,4.73C2.55,4.74,2.531,4.764,2.553,4.805S2.606,4.846,2.622,4.836"/>
			<path fill="#FFFFFF" d="M2.305,4.908l0.06-0.063C2.397,4.814,2.427,4.829,2.437,4.84C2.45,4.854,2.455,4.87,2.448,4.886
				C2.462,4.88,2.471,4.879,2.493,4.898C2.511,4.917,2.516,4.92,2.523,4.917l0.003,0.004L2.499,4.947
				C2.491,4.943,2.485,4.939,2.472,4.927C2.455,4.911,2.448,4.906,2.429,4.925L2.404,4.952l0.049,0.045L2.427,5.021 M2.412,4.902
				c0.013-0.014,0.015-0.023,0.002-0.034C2.408,4.861,2.396,4.855,2.382,4.871L2.35,4.902l0.033,0.029L2.412,4.902z"/>
			<polyline fill="#FFFFFF" points="3.555,6.368 3.584,6.354 3.668,6.496 3.636,6.514 3.516,6.443 3.516,6.443 3.575,6.546 
				3.546,6.563 3.463,6.419 3.496,6.4 3.613,6.469 3.613,6.469 			"/>
			<path fill="#FFFFFF" d="M3.617,6.324l0.06-0.047c0.046-0.033,0.086-0.006,0.105,0.021c0.021,0.027,0.044,0.078-0.002,0.11
				L3.723,6.453 M3.732,6.409L3.76,6.389c0.023-0.017,0.013-0.043-0.005-0.063C3.724,6.283,3.702,6.296,3.69,6.305l-0.026,0.02
				L3.732,6.409z"/>
			<polyline fill="#FFFFFF" points="3.904,6.299 3.88,6.324 3.751,6.215 3.775,6.188 			"/>
			<polyline fill="#FFFFFF" points="3.958,5.064 3.904,4.994 3.875,5.016 3.926,5.079 3.902,5.098 3.851,5.033 3.816,5.059 
				3.873,5.133 3.848,5.15 3.77,5.051 3.906,4.95 3.983,5.047 			"/>
			<path fill="#FFFFFF" d="M2.614,6.355c0.02,0.013,0.063,0.054,0.018,0.117C2.585,6.537,2.53,6.512,2.511,6.5
				C2.492,6.486,2.449,6.445,2.495,6.382S2.595,6.346,2.614,6.355 M2.529,6.477c0.017,0.01,0.046,0.017,0.072-0.021
				c0.027-0.04,0.012-0.064-0.005-0.075C2.581,6.37,2.552,6.365,2.525,6.402S2.513,6.465,2.529,6.477"/>
			<polyline fill="#FFFFFF" points="2.796,6.445 2.83,6.46 2.714,6.596 2.683,6.583 2.691,6.408 2.726,6.42 2.714,6.552 
				2.714,6.552 			"/>
			<polyline fill="#FFFFFF" points="2.854,6.635 2.819,6.626 2.864,6.467 2.898,6.477 			"/>
			<polyline fill="#FFFFFF" points="3.26,6.648 3.227,6.648 3.217,6.512 3.217,6.512 3.194,6.65 3.159,6.654 3.118,6.52 3.117,6.52 
				3.127,6.657 3.094,6.659 3.082,6.492 3.135,6.489 3.175,6.618 3.176,6.618 3.197,6.484 3.248,6.48 			"/>
			<path fill="#FFFFFF" d="M3.459,6.545c0.011,0.042-0.01,0.066-0.052,0.077c-0.017,0.004-0.04,0.006-0.06-0.007
				C3.337,6.607,3.33,6.598,3.325,6.579L3.297,6.473l0.036-0.01L3.36,6.568C3.366,6.59,3.382,6.598,3.399,6.594
				c0.024-0.008,0.03-0.021,0.025-0.039L3.396,6.448l0.035-0.009"/>
			<path fill="#FFFFFF" d="M2.323,5.15L2.303,5.18L2.161,5.085l0.044-0.062C2.223,4.995,2.253,4.99,2.281,5.009
				c0.014,0.009,0.041,0.037,0.016,0.074L2.272,5.116 M2.266,5.073c0.015-0.021-0.001-0.031-0.007-0.037
				C2.245,5.027,2.234,5.031,2.221,5.051L2.206,5.073L2.248,5.1L2.266,5.073z"/>
			<path fill="#FFFFFF" d="M3.258,6.271C3.271,6.3,3.238,6.293,3.226,6.303h-0.01C3.218,6.287,3.235,6.262,3.258,6.271"/>
			<path fill="#FFFFFF" d="M3.074,5.766v0.014H3.03C3.025,5.753,3.063,5.748,3.074,5.766"/>
			<polyline fill="#FFFFFF" points="3.151,5.477 3.172,5.449 3.228,5.445 3.254,5.441 3.242,5.464 3.212,5.477 3.217,5.464 
				3.181,5.462 3.162,5.477 			"/>
			<polyline fill="#FFFFFF" points="3.289,5.441 3.308,5.441 3.329,5.449 3.318,5.464 3.297,5.468 3.287,5.48 3.275,5.473 
				3.257,5.477 3.254,5.467 3.271,5.462 3.263,5.453 3.271,5.445 			"/>
			<polyline fill="#FFFFFF" points="3.348,5.466 3.36,5.456 3.381,5.458 3.376,5.471 3.345,5.477 			"/>
			<polyline fill="#FFFFFF" points="3.181,5.493 3.205,5.489 3.2,5.503 3.177,5.503 			"/>
			<polyline fill="#FFFFFF" points="3.341,5.489 3.355,5.477 3.363,5.486 3.354,5.493 			"/>
			<polyline fill="#FFFFFF" points="3.329,5.512 3.341,5.525 3.35,5.52 3.344,5.497 			"/>
			<polyline fill="#FFFFFF" points="3.372,5.52 3.379,5.51 3.358,5.499 			"/>
			<line fill="#FFFFFF" x1="3.372" y1="5.52" x2="3.379" y2="5.51"/>
			<polyline fill="#FFFFFF" points="3.396,5.51 3.404,5.514 3.401,5.548 3.389,5.518 			"/>
			<path fill="#FFFFFF" d="M3.019,4.986c0.008-0.012,0.002-0.049-0.011-0.055c-0.016,0.024,0.032,0.037,0,0.055 M3.095,5.111
				C3.093,5.094,3.088,5.055,3.106,5.027l0.012-0.01c-0.005,0.004-0.009,0.008-0.012,0.01L3.084,5.007l0.011-0.01
				C3.079,5.002,3.074,4.982,3.062,4.977c-0.015,0.039,0.08,0.09-0.011,0.094C3.046,5.064,3.037,5.059,3.04,5.049H3.03v0.012H3.04
				C3.034,5.066,3.029,5.073,3.019,5.068C3.018,5.083,3.022,5.096,3.008,5.104H3.03c0.007,0.004,0.016,0.01,0.011,0.021
				c0.015,0.004,0.037-0.009,0.044,0.01C3.081,5.125,3.089,5.119,3.095,5.111 M3.21,5.619C3.233,5.604,3.246,5.596,3.28,5.588
				C3.277,5.598,3.285,5.604,3.29,5.609C3.314,5.582,3.329,5.604,3.347,5.62c0.008,0.006,0.018,0.014,0.03,0.01
				c0-0.004,0.002-0.007,0.004-0.01h0.012C3.41,5.658,3.471,5.682,3.476,5.725c0.038,0.02,0.09,0.004,0.119,0.041
				C3.672,5.852,3.503,5.882,3.53,5.968C3.517,6.021,3.474,6.031,3.422,6.04C3.405,6.084,3.371,6.102,3.335,6.125
				C3.281,6.123,3.273,6.161,3.226,6.177C3.209,6.23,3.163,6.247,3.15,6.305c0.009,0.019,0.038,0.008,0.032,0.03
				C3.144,6.337,3.096,6.314,3.095,6.271c0.014-0.117,0.102-0.207,0.109-0.326c-0.06-0.043-0.068-0.125-0.065-0.2
				c0.038-0.019,0.029-0.056,0.043-0.083L3.161,5.641c-0.022,0.032-0.037-0.018-0.066,0C3.093,5.633,3.089,5.625,3.084,5.619
				C3.072,5.604,3.053,5.591,3.04,5.575C2.998,5.563,2.949,5.561,2.91,5.534C2.861,5.529,2.889,5.477,2.845,5.46
				C2.839,5.467,2.831,5.473,2.834,5.482c-0.07-0.02-0.042-0.096-0.076-0.14c0.008-0.028,0.009-0.057,0.003-0.085
				C2.757,5.242,2.748,5.225,2.737,5.207C2.667,5.131,2.591,5.264,2.508,5.218c0.031-0.002,0.056-0.017,0.076-0.041
				C2.577,5.166,2.558,5.159,2.563,5.145l0.01-0.012l-0.01-0.01l0.01-0.012c-0.006-0.004-0.015-0.01-0.01-0.021
				c0.041-0.032,0.097-0.077,0.163-0.073c0.05-0.02,0.118,0.039,0.163-0.021C2.865,4.995,2.842,4.962,2.867,4.945
				c0.015,0.002,0.031-0.026,0.043,0c0.014-0.008,0.01-0.022,0.01-0.034C2.957,4.893,2.995,4.952,3.008,4.9H3.03
				C3.027,4.911,3.035,4.917,3.04,4.923l0.011-0.012l0.011,0.012c0.03-0.028,0.049,0.029,0.088,0.011
				c0.029,0.02,0.047,0.06,0.055,0.094c-0.012,0-0.025-0.002-0.032,0.012l0.044,0.043c0.014-0.006,0.01-0.021,0.01-0.032
				c0.052,0.027,0.083,0.08,0.109,0.127C3.278,5.186,3.227,5.209,3.193,5.261C3.228,5.346,3.082,5.344,3.15,5.43L3.128,5.451
				c-0.003-0.02-0.009-0.038-0.022-0.055C3.05,5.434,2.951,5.361,2.965,5.473c0.014,0.012,0.013,0.03,0.033,0.041
				c0.026,0.012,0.037-0.021,0.054-0.031v-0.01h0.043C3.118,5.51,3.047,5.557,3.116,5.564c0,0.015,0.003,0.025-0.011,0.033
				c0.006,0.014,0.016,0.02,0.025,0.021c0.008,0.002,0.017,0,0.024,0H3.17c0.008,0,0.016,0.003,0.021,0.01
				C3.199,5.625,3.205,5.622,3.21,5.619"/>
			<path fill="#FFFFFF" d="M4.014,5.41c0.008-0.002,0.021-0.002,0.038-0.002c0.016,0,0.027,0.002,0.036,0.008
				C4.095,5.422,4.1,5.434,4.1,5.441c0,0.014-0.003,0.023-0.011,0.027c-0.01,0.01-0.022,0.014-0.037,0.014c-0.003,0-0.005,0-0.008,0
				V5.52h-0.03 M4.044,5.46c0.002,0,0.004,0,0.007,0c0.012,0,0.02-0.007,0.02-0.017c0-0.008-0.007-0.012-0.019-0.012
				c-0.004,0-0.007,0-0.009,0L4.044,5.46L4.044,5.46z"/>
			<path fill="#FFFFFF" d="M4.062,5.648L4.057,5.675H4.026l0.032-0.11h0.041l0.033,0.11H4.099L4.092,5.648 M4.088,5.625l-0.005-0.02
				C4.081,5.6,4.078,5.591,4.077,5.584l0,0C4.075,5.591,4.073,5.6,4.072,5.605l-0.005,0.02H4.088z"/>
			<polyline fill="#FFFFFF" points="4.038,5.721 4.038,5.762 4.075,5.762 4.075,5.721 4.105,5.721 4.105,5.832 4.075,5.832 
				4.075,5.788 4.038,5.788 4.038,5.832 4.009,5.832 4.009,5.721 			"/>
			<path fill="#FFFFFF" d="M4.078,5.934c0,0.035-0.021,0.059-0.057,0.059S3.968,5.967,3.968,5.936c0-0.033,0.021-0.06,0.056-0.06
				C4.06,5.878,4.078,5.904,4.078,5.934 M4,5.936c0,0.021,0.01,0.032,0.023,0.032c0.015,0,0.023-0.014,0.023-0.032
				c0-0.02-0.009-0.035-0.023-0.035C4.01,5.9,4,5.914,4,5.936"/>
			<path fill="#FFFFFF" d="M2.18,5.521c0,0.037-0.021,0.06-0.057,0.06S2.069,5.555,2.069,5.523c0-0.032,0.021-0.058,0.057-0.058
				C2.161,5.467,2.18,5.493,2.18,5.521 M2.101,5.523c0,0.021,0.009,0.033,0.023,0.033c0.014,0,0.022-0.015,0.022-0.033
				c0-0.02-0.008-0.034-0.022-0.034S2.101,5.503,2.101,5.523"/>
			<path fill="#FFFFFF" d="M2.069,5.646c0.009-0.002,0.021-0.002,0.037-0.002c0.018,0,0.028,0.002,0.036,0.008
				S2.155,5.669,2.155,5.68c0,0.012-0.004,0.021-0.011,0.026c-0.009,0.01-0.021,0.013-0.038,0.013c-0.003,0-0.005,0-0.007,0v0.038
				h-0.03 M2.099,5.695c0.002,0,0.003,0,0.007,0c0.013,0,0.02-0.006,0.02-0.016c0-0.008-0.006-0.014-0.018-0.014
				c-0.005,0-0.007,0-0.009,0V5.695z"/>
			<path fill="#FFFFFF" d="M2.117,5.883c0.007,0.003,0.018,0.008,0.029,0.008c0.011,0,0.016-0.005,0.016-0.011
				S2.157,5.871,2.144,5.867C2.125,5.859,2.113,5.852,2.113,5.834c0-0.021,0.017-0.033,0.046-0.033c0.013,0,0.022,0.001,0.029,0.004
				L2.182,5.83C2.177,5.826,2.169,5.824,2.157,5.824c-0.01,0-0.015,0.002-0.015,0.007c0,0.007,0.006,0.009,0.021,0.015
				c0.02,0.008,0.028,0.018,0.028,0.032c0,0.019-0.015,0.036-0.048,0.036c-0.013,0-0.025-0.004-0.033-0.007"/>
			<path fill="#FFFFFF" d="M11.812,6.671h-0.116l-0.023,0.095h-0.084l0.123-0.427h0.095l0.119,0.427h-0.088 M11.759,6.42
				L11.759,6.42l-0.046,0.178h0.085L11.759,6.42z"/>
		</g>
	</g>
</g>
</svg>
