<?xml version="1.0" encoding="utf-8"?>
<!-- Generator: Adobe Illustrator 14.0.0, SVG Export Plug-In . SVG Version: 6.00 Build 43363)  -->
<!DOCTYPE svg PUBLIC "-//W3C//DTD SVG 1.1//EN" "http://www.w3.org/Graphics/SVG/1.1/DTD/svg11.dtd">
<svg version="1.1" id="Camada_1" xmlns="http://www.w3.org/2000/svg" xmlns:xlink="http://www.w3.org/1999/xlink" x="0px" y="0px"
	 width="34.063px" height="7.625px" viewBox="0 0 34.063 7.625" enable-background="new 0 0 34.063 7.625" xml:space="preserve">
<g>
	<g>
		<rect x="17.515" y="0.662" fill="#3491CE" width="0.104" height="6.301"/>
		<g>
			<path fill="#3491CE" d="M18.915,3.074V1.007h0.589c0.178,0,0.32,0.044,0.425,0.131c0.104,0.088,0.157,0.201,0.157,0.342
				c0,0.118-0.031,0.22-0.096,0.306c-0.063,0.087-0.15,0.148-0.262,0.185v0.006c0.139,0.017,0.25,0.069,0.334,0.158
				s0.126,0.205,0.126,0.347c0,0.177-0.063,0.32-0.19,0.43s-0.287,0.164-0.48,0.164H18.915z M19.157,1.226v0.668h0.248
				c0.133,0,0.237-0.031,0.313-0.096c0.075-0.064,0.113-0.154,0.113-0.271c0-0.201-0.132-0.302-0.396-0.302H19.157z M19.157,2.111
				v0.744h0.329c0.142,0,0.253-0.034,0.331-0.102c0.079-0.066,0.117-0.159,0.117-0.276c0-0.244-0.167-0.366-0.499-0.366H19.157z"/>
			<path fill="#3491CE" d="M21.442,3.109c-0.293,0-0.527-0.097-0.704-0.29s-0.266-0.444-0.266-0.754
				c0-0.333,0.091-0.598,0.271-0.796c0.179-0.198,0.424-0.297,0.733-0.297c0.286,0,0.516,0.096,0.69,0.288
				c0.174,0.192,0.261,0.443,0.261,0.754c0,0.337-0.089,0.604-0.268,0.801C21.981,3.011,21.741,3.109,21.442,3.109z M21.459,1.191
				c-0.218,0-0.394,0.078-0.53,0.235c-0.135,0.156-0.202,0.362-0.202,0.616c0,0.255,0.065,0.461,0.197,0.615
				c0.133,0.155,0.305,0.233,0.518,0.233c0.227,0,0.406-0.074,0.536-0.223c0.13-0.147,0.196-0.355,0.196-0.621
				c0-0.273-0.063-0.483-0.19-0.633C21.858,1.266,21.682,1.191,21.459,1.191z"/>
			<path fill="#3491CE" d="M24.396,3.074h-0.268l-0.22-0.579h-0.876l-0.207,0.579h-0.269l0.793-2.067h0.25L24.396,3.074z
				 M23.828,2.277l-0.323-0.881c-0.011-0.029-0.021-0.075-0.032-0.139h-0.006c-0.009,0.059-0.021,0.104-0.033,0.139l-0.32,0.881
				H23.828z"/>
			<path fill="#3491CE" d="M24.604,2.991V2.705c0.032,0.029,0.072,0.055,0.117,0.078c0.046,0.023,0.094,0.042,0.145,0.059
				c0.051,0.016,0.101,0.027,0.151,0.036c0.052,0.009,0.099,0.014,0.143,0.014c0.148,0,0.26-0.027,0.333-0.083
				s0.11-0.135,0.11-0.238c0-0.056-0.013-0.104-0.037-0.146c-0.023-0.042-0.059-0.08-0.101-0.113
				c-0.044-0.034-0.095-0.067-0.154-0.099s-0.123-0.063-0.191-0.099c-0.071-0.037-0.139-0.074-0.201-0.111
				c-0.063-0.037-0.117-0.078-0.163-0.124c-0.047-0.045-0.082-0.097-0.109-0.153c-0.026-0.057-0.039-0.124-0.039-0.201
				c0-0.095,0.021-0.176,0.062-0.246c0.041-0.069,0.097-0.127,0.163-0.172c0.067-0.046,0.145-0.079,0.23-0.101
				c0.086-0.023,0.174-0.033,0.263-0.033c0.204,0,0.353,0.024,0.446,0.073v0.272c-0.123-0.084-0.28-0.127-0.471-0.127
				c-0.053,0-0.106,0.006-0.158,0.017C25.088,1.219,25.041,1.237,25,1.262c-0.041,0.025-0.074,0.058-0.101,0.097
				c-0.026,0.04-0.04,0.088-0.04,0.145c0,0.053,0.011,0.099,0.03,0.137s0.049,0.074,0.087,0.105s0.086,0.063,0.141,0.093
				c0.056,0.029,0.119,0.063,0.191,0.098c0.074,0.036,0.145,0.075,0.21,0.115c0.066,0.04,0.125,0.085,0.175,0.134
				s0.09,0.104,0.119,0.163s0.044,0.128,0.044,0.205c0,0.102-0.021,0.188-0.061,0.259c-0.039,0.07-0.093,0.128-0.161,0.172
				c-0.067,0.044-0.146,0.076-0.234,0.096c-0.088,0.02-0.181,0.03-0.279,0.03c-0.033,0-0.073-0.003-0.121-0.009
				c-0.049-0.004-0.098-0.013-0.147-0.022s-0.097-0.022-0.142-0.037C24.666,3.025,24.63,3.009,24.604,2.991z"/>
			<path fill="#3491CE" d="M19.157,5.836v0.781h-0.242V4.551h0.568c0.221,0,0.393,0.055,0.514,0.162
				c0.122,0.105,0.183,0.258,0.183,0.455c0,0.195-0.067,0.355-0.203,0.482c-0.135,0.123-0.316,0.186-0.547,0.186H19.157z
				 M19.157,4.77v0.848h0.254c0.168,0,0.295-0.037,0.383-0.113s0.132-0.186,0.132-0.324c0-0.273-0.162-0.41-0.484-0.41H19.157z"/>
			<path fill="#3491CE" d="M22.051,6.617h-0.288l-0.346-0.578c-0.031-0.055-0.063-0.1-0.093-0.139
				c-0.029-0.037-0.061-0.068-0.092-0.092c-0.03-0.025-0.064-0.043-0.101-0.055c-0.036-0.01-0.076-0.016-0.122-0.016h-0.198v0.879
				H20.57V4.551h0.616c0.091,0,0.175,0.012,0.251,0.033c0.076,0.023,0.143,0.059,0.198,0.104c0.057,0.045,0.101,0.104,0.133,0.172
				c0.031,0.068,0.047,0.15,0.047,0.242c0,0.072-0.011,0.139-0.031,0.197c-0.022,0.061-0.054,0.115-0.093,0.162
				c-0.04,0.047-0.088,0.086-0.145,0.121c-0.057,0.031-0.12,0.059-0.189,0.076v0.006c0.034,0.014,0.064,0.033,0.09,0.053
				c0.024,0.02,0.05,0.043,0.073,0.07c0.023,0.025,0.046,0.057,0.068,0.092c0.022,0.033,0.047,0.072,0.075,0.117L22.051,6.617z
				 M20.812,4.77v0.75h0.329c0.06,0,0.116-0.01,0.168-0.027c0.051-0.018,0.095-0.045,0.133-0.078
				c0.037-0.035,0.067-0.076,0.088-0.127c0.021-0.049,0.031-0.104,0.031-0.166c0-0.109-0.035-0.197-0.106-0.258
				c-0.071-0.063-0.176-0.094-0.311-0.094H20.812z"/>
			<path fill="#3491CE" d="M23.936,6.617h-0.268l-0.22-0.578h-0.877l-0.206,0.578h-0.269l0.792-2.066h0.251L23.936,6.617z
				 M23.369,5.82l-0.325-0.881c-0.01-0.029-0.02-0.074-0.031-0.137h-0.006c-0.009,0.057-0.021,0.104-0.033,0.137L22.653,5.82H23.369
				z M23.315,3.887l-0.378,0.473h-0.184l0.322-0.473H23.315z"/>
			<path fill="#3491CE" d="M25.25,4.77h-0.596v1.848h-0.243V4.77h-0.595V4.551h1.434V4.77z"/>
			<path fill="#3491CE" d="M25.818,6.617h-0.242V4.551h0.242V6.617z"/>
			<path fill="#3491CE" d="M27.768,6.531c-0.152,0.082-0.342,0.121-0.57,0.121c-0.294,0-0.53-0.094-0.706-0.283
				c-0.177-0.189-0.266-0.438-0.266-0.746c0-0.33,0.1-0.598,0.298-0.801c0.2-0.205,0.451-0.307,0.758-0.307
				c0.195,0,0.358,0.029,0.486,0.086v0.258c-0.147-0.084-0.311-0.125-0.489-0.125c-0.237,0-0.43,0.08-0.578,0.238
				c-0.147,0.158-0.221,0.371-0.221,0.637c0,0.252,0.069,0.453,0.207,0.602c0.137,0.15,0.318,0.225,0.542,0.225
				c0.209,0,0.388-0.047,0.539-0.139V6.531z"/>
			<path fill="#3491CE" d="M29.79,6.617h-0.269l-0.219-0.578h-0.877L28.22,6.617h-0.27l0.793-2.066h0.251L29.79,6.617z M29.224,5.82
				l-0.325-0.881c-0.011-0.029-0.021-0.074-0.031-0.137h-0.006c-0.009,0.057-0.021,0.104-0.033,0.137L28.507,5.82H29.224z"/>
			<path fill="#3491CE" d="M29.997,6.535V6.248c0.033,0.029,0.072,0.055,0.117,0.078c0.046,0.023,0.094,0.043,0.146,0.059
				c0.05,0.016,0.1,0.029,0.152,0.037c0.051,0.01,0.097,0.014,0.141,0.014c0.149,0,0.261-0.027,0.334-0.084
				c0.073-0.055,0.109-0.133,0.109-0.238c0-0.055-0.012-0.104-0.036-0.145c-0.024-0.043-0.059-0.08-0.102-0.113
				c-0.043-0.035-0.095-0.068-0.153-0.1c-0.06-0.029-0.122-0.064-0.191-0.098c-0.072-0.037-0.14-0.074-0.202-0.111
				s-0.117-0.078-0.163-0.123c-0.045-0.047-0.082-0.098-0.108-0.154S30,5.145,30,5.068c0-0.096,0.021-0.176,0.063-0.246
				s0.096-0.127,0.163-0.172c0.066-0.045,0.144-0.08,0.229-0.102s0.174-0.033,0.264-0.033c0.203,0,0.352,0.025,0.445,0.074v0.271
				c-0.121-0.084-0.278-0.127-0.47-0.127c-0.053,0-0.106,0.006-0.159,0.018c-0.052,0.01-0.101,0.029-0.141,0.055
				c-0.042,0.023-0.075,0.057-0.102,0.096c-0.025,0.039-0.038,0.088-0.038,0.145c0,0.053,0.01,0.098,0.028,0.137
				c0.02,0.037,0.05,0.074,0.088,0.105s0.085,0.063,0.14,0.092c0.057,0.029,0.12,0.063,0.191,0.098
				c0.074,0.037,0.145,0.076,0.211,0.115c0.065,0.041,0.125,0.086,0.175,0.135c0.049,0.049,0.089,0.104,0.119,0.164
				c0.029,0.059,0.044,0.127,0.044,0.203c0,0.102-0.021,0.189-0.061,0.26s-0.094,0.127-0.161,0.172s-0.146,0.076-0.234,0.096
				s-0.182,0.029-0.28,0.029c-0.031,0-0.072-0.002-0.12-0.008c-0.049-0.004-0.098-0.014-0.147-0.023S30.15,6.6,30.106,6.584
				C30.061,6.568,30.025,6.553,29.997,6.535z"/>
		</g>
	</g>
	<g>
		<g>
			<path fill="#3491CE" d="M12.109,6.602h-0.122l-0.026,0.097h-0.088l0.128-0.434h0.1l0.124,0.434h-0.093 M12.051,6.349
				L12.051,6.349l-0.047,0.18h0.087L12.051,6.349z"/>
			<path fill="#3491CE" d="M12.573,6.499c0-0.036-0.014-0.051-0.033-0.051c-0.026,0-0.036,0.021-0.036,0.045v0.205h-0.088V6.499
				c0-0.04-0.016-0.051-0.03-0.051c-0.029,0-0.039,0.029-0.039,0.069v0.181H12.26V6.442c0-0.031,0-0.052-0.002-0.067h0.08
				C12.339,6.39,12.34,6.407,12.34,6.43h0.001c0.013-0.037,0.036-0.061,0.081-0.061c0.042,0,0.063,0.021,0.075,0.055
				c0.013-0.031,0.033-0.055,0.08-0.055c0.063,0,0.084,0.053,0.084,0.117v0.212h-0.087"/>
			<path fill="#3491CE" d="M12.969,6.563h-0.17c0,0.038,0.022,0.073,0.072,0.073c0.03,0,0.06-0.014,0.081-0.026l0.002,0.075
				c-0.028,0.011-0.062,0.019-0.091,0.019c-0.102,0-0.146-0.069-0.146-0.169c0-0.086,0.045-0.166,0.128-0.166
				c0.026,0,0.125,0,0.125,0.17 M12.888,6.51c0-0.042-0.009-0.08-0.045-0.08c-0.045,0-0.045,0.063-0.045,0.08H12.888z"/>
			<path fill="#3491CE" d="M13.02,6.442c0-0.031-0.001-0.052-0.002-0.067h0.08c0,0.02,0.002,0.038,0.002,0.059h0.001
				c0.017-0.035,0.03-0.064,0.08-0.064h0.013v0.092c-0.009-0.002-0.017-0.004-0.029-0.004c-0.051,0-0.057,0.049-0.057,0.097v0.145
				H13.02"/>
			<path fill="#3491CE" d="M13.239,6.231h0.088v0.088h-0.088 M13.239,6.375h0.088v0.323h-0.088V6.375z"/>
			<path fill="#3491CE" d="M13.594,6.689c-0.025,0.009-0.051,0.015-0.079,0.015c-0.112,0-0.136-0.104-0.136-0.163
				c0-0.101,0.051-0.172,0.143-0.172c0.029,0,0.044,0.009,0.07,0.017l-0.004,0.073c-0.017-0.006-0.033-0.013-0.051-0.013
				c-0.067,0-0.067,0.082-0.067,0.095c0,0.067,0.038,0.09,0.071,0.09c0.019,0,0.035-0.008,0.051-0.015"/>
			<path fill="#3491CE" d="M13.656,6.391c0.023-0.009,0.062-0.021,0.093-0.021c0.102,0,0.125,0.048,0.125,0.121v0.117
				c0,0.047,0,0.069,0.002,0.091h-0.08l-0.002-0.044h-0.001c-0.004,0.021-0.038,0.05-0.08,0.05c-0.053,0-0.089-0.038-0.089-0.099
				c0-0.108,0.112-0.108,0.143-0.108h0.026c0-0.063-0.041-0.063-0.054-0.063c-0.022,0-0.046,0.006-0.08,0.028 M13.794,6.543
				c-0.035,0-0.09,0.002-0.09,0.057c0,0.042,0.031,0.042,0.038,0.042c0.008,0,0.052-0.002,0.052-0.08V6.543z"/>
			<path fill="#3491CE" d="M14.106,6.457c-0.023-0.011-0.045-0.019-0.071-0.019c-0.022,0-0.032,0.013-0.032,0.024
				c0,0.02,0.013,0.027,0.06,0.047c0.03,0.011,0.061,0.033,0.061,0.094c0,0.073-0.048,0.101-0.106,0.101
				c-0.025,0-0.064-0.004-0.095-0.017l0.002-0.075c0.021,0.015,0.048,0.022,0.072,0.022c0.041,0,0.043-0.017,0.043-0.029
				c0-0.015-0.022-0.022-0.06-0.039c-0.031-0.015-0.061-0.042-0.061-0.101c0-0.034,0.022-0.097,0.108-0.097
				c0.036,0,0.066,0.009,0.08,0.015"/>
			<line fill="#3491CE" x1="15.972" y1="6.087" x2="11.306" y2="6.087"/>
			<rect x="11.306" y="6.067" fill="#3491CE" width="4.666" height="0.042"/>
			<path fill="#3491CE" d="M10.695,4.849c0.042,0.047,0.116,0.076,0.16,0.126c-0.031-0.145-0.147-0.262-0.283-0.291
				C10.637,4.733,10.652,4.799,10.695,4.849 M9.052,5.213C9.146,5.017,9.286,5.057,9.345,4.87C9.312,4.927,9.158,4.951,9.087,5.099
				c0.037-0.088,0.018-0.221,0.08-0.294C8.983,4.937,9.061,5.146,9.052,5.213 M9.222,5.685c0.017,0.077-0.033,0.188,0.046,0.293
				C9.186,5.89,9.013,5.867,8.943,5.734c0.088,0.327,0.318,0.26,0.421,0.331C9.279,5.946,9.349,5.869,9.222,5.685 M9.196,5.89
				C9.145,5.708,9.235,5.645,9.166,5.469C9.159,5.567,9.091,5.615,9.137,5.796c-0.082-0.151-0.208-0.21-0.245-0.314
				C8.895,5.769,9.135,5.811,9.196,5.89 M9.564,6.197c-0.07-0.094-0.022-0.146-0.221-0.318C9.385,5.94,9.342,6.02,9.475,6.143
				C9.344,6.067,9.164,6.1,9.077,5.999C9.226,6.275,9.49,6.162,9.564,6.197 M10.525,6.143c0.134-0.123,0.09-0.202,0.132-0.264
				c-0.198,0.172-0.15,0.225-0.221,0.318c0.075-0.035,0.337,0.078,0.487-0.198C10.836,6.1,10.656,6.067,10.525,6.143 M10.732,5.978
				c0.079-0.104,0.029-0.216,0.046-0.293c-0.127,0.185-0.057,0.262-0.143,0.381c0.104-0.071,0.334-0.004,0.422-0.331
				C10.987,5.867,10.814,5.89,10.732,5.978 M10.415,6.21c-0.078-0.021-0.158-0.029-0.217-0.031C10.124,6.177,10.057,6.189,10,6.212
				C9.943,6.189,9.876,6.177,9.802,6.179c-0.06,0.002-0.14,0.011-0.217,0.031c-0.12,0.031-0.223,0.055-0.313,0.011
				c0.086,0.073,0.187,0.099,0.332,0.084c0.121-0.013,0.219-0.069,0.333-0.069c0.001,0,0.002,0,0.004,0
				C9.822,6.294,9.678,6.376,9.678,6.376l0.055,0.008c0,0,0.134-0.111,0.267-0.141c0.133,0.029,0.115,0.141,0.115,0.141l0.055-0.008
				c0,0,0.008-0.082-0.112-0.141c0.001,0,0.002,0,0.004,0c0.115-0.002,0.212,0.057,0.333,0.069c0.146,0.015,0.246-0.011,0.333-0.084
				C10.637,6.265,10.534,6.241,10.415,6.21 M9.175,5.271C9.125,5.36,9.049,5.383,9.057,5.569c-0.042-0.167-0.14-0.229-0.139-0.335
				C8.849,5.513,9.033,5.546,9.08,5.663C9.073,5.494,9.184,5.461,9.175,5.271 M9.243,5.057C9.226,5.079,9.214,5.09,9.168,5.125
				C9.106,5.174,9.056,5.24,9.035,5.335C9.04,5.232,8.974,5.086,9.018,4.98c-0.168,0.229,0.01,0.364,0.016,0.448
				C9.077,5.27,9.178,5.268,9.243,5.057 M10.965,5.335c-0.021-0.095-0.071-0.161-0.133-0.21c-0.045-0.035-0.058-0.046-0.075-0.068
				c0.065,0.211,0.166,0.213,0.209,0.372c0.006-0.084,0.184-0.22,0.016-0.448C11.026,5.086,10.961,5.232,10.965,5.335 M11.108,5.481
				c-0.037,0.104-0.163,0.163-0.244,0.314c0.046-0.181-0.022-0.229-0.03-0.327c-0.068,0.176,0.022,0.239-0.029,0.421
				C10.865,5.811,11.105,5.769,11.108,5.481 M10.825,5.271c-0.009,0.189,0.102,0.223,0.095,0.392c0.047-0.117,0.23-0.15,0.162-0.429
				c0.001,0.106-0.098,0.168-0.139,0.335C10.951,5.383,10.875,5.36,10.825,5.271 M9.306,4.849c0.042-0.05,0.057-0.115,0.124-0.165
				C9.292,4.713,9.177,4.83,9.146,4.975C9.189,4.925,9.263,4.896,9.306,4.849 M10.655,4.87c0.06,0.187,0.2,0.146,0.294,0.343
				c-0.009-0.066,0.069-0.276-0.115-0.408c0.062,0.073,0.043,0.206,0.08,0.294C10.842,4.951,10.688,4.927,10.655,4.87 M10.177,4.977
				c-0.035-0.015-0.072-0.024-0.111-0.029c0,0.007,0,0.017,0,0.023c0.036,0.006,0.07,0.015,0.103,0.027
				C10.173,4.991,10.176,4.985,10.177,4.977 M10.149,4.744l0.008-0.006l-0.014-0.007h-0.038l-0.01,0.007l-0.022-0.002V4.74
				c0.014,0.002,0.028,0.004,0.039,0.006l0.018-0.002H10.149z M10.076,5.523c0-0.007-0.008-0.013-0.021-0.019h-0.002
				c0,0.006,0,0.029-0.001,0.041C10.068,5.54,10.076,5.533,10.076,5.523 M9.641,5.064c0.001-0.006,0.002-0.01,0.003-0.013
				c-0.004,0-0.01,0-0.015,0L9.641,5.064z M10.001,6.126c0.423,0,0.767-0.33,0.767-0.736c0-0.38-0.302-0.695-0.689-0.733
				c0,0.002,0,0.004,0,0.006c-0.002,0.005-0.003,0.013-0.004,0.018c0.173,0.017,0.328,0.09,0.446,0.201l-0.084,0.081l0.003-0.015
				l-0.011-0.004l-0.015-0.002l0.003-0.009l-0.011-0.033l-0.021-0.021l-0.066-0.033l-0.005,0.006l-0.012,0.003
				c0.022,0.031,0.035,0.07,0.035,0.106c0,0.006,0,0.009,0,0.015l0.032,0.038l-0.015,0.004l0.01,0.015l-0.029,0.029l-0.011-0.021
				c-0.006,0.015-0.014,0.029-0.022,0.042c0.002,0.002,0.004,0.003,0.006,0.005L10.218,5.17c-0.005-0.003-0.011-0.009-0.017-0.013
				c-0.009,0.004-0.017,0.008-0.026,0.01c0.002,0.003,0.004,0.003,0.007,0.007l-0.005,0.004l-0.01,0.006l-0.004,0.011l-0.006-0.008
				l-0.019,0.006l0.005,0.009l0.013-0.003h0.008l0.001-0.004l0.006-0.004l0.002-0.004l0.012-0.003h0.009
				c0.001,0.001,0.003,0.003,0.005,0.005l-0.035,0.033l-0.002-0.004l-0.037,0.008l-0.008,0.007h-0.008l0.023-0.02l-0.008-0.004
				l-0.021,0.027l0.006-0.002l0,0.011l0.008,0.002l0.002,0.011l-0.013-0.001l-0.013,0.001l-0.032-0.015c0,0-0.002,0.083-0.003,0.125
				c0.077,0.025,0.157,0.061,0.157,0.155c0,0.04-0.018,0.073-0.055,0.099h0c0,0-0.001,0-0.002,0l0,0
				c-0.001,0-0.002,0.002-0.002,0.002c-0.031,0.021-0.071,0.031-0.105,0.04L10.049,5.73c0.055,0.025,0.122,0.064,0.115,0.174
				c0,0.027-0.012,0.035-0.021,0.036c-0.032,0.008-0.065,0.014-0.099,0.015c0,0.01,0,0.017,0,0.024
				c0.148-0.01,0.281-0.069,0.382-0.161l0.089,0.084c-0.133,0.125-0.314,0.199-0.513,0.199c-0.198,0-0.378-0.074-0.512-0.195
				L9.578,5.82c0.1,0.09,0.231,0.149,0.377,0.159c0-0.008,0-0.015,0-0.024C9.817,5.944,9.691,5.89,9.596,5.802L9.62,5.78
				l0.033,0.003L9.67,5.766l0.045,0.001l0.007-0.015L9.72,5.745c0.066,0.048,0.146,0.08,0.232,0.088c0-0.009,0-0.017,0-0.023
				C9.857,5.8,9.77,5.76,9.703,5.699l0.089-0.084c0.021,0.019,0.045,0.033,0.072,0.046c0.002-0.008,0.005-0.015,0.009-0.022
				C9.85,5.628,9.828,5.613,9.809,5.597l0.09-0.084c0.014,0.009,0.03,0.019,0.047,0.023c0-0.007,0-0.017,0-0.025
				c-0.011-0.004-0.021-0.009-0.03-0.017l0.025-0.023C9.933,5.469,9.924,5.465,9.915,5.463L9.898,5.478
				C9.889,5.469,9.883,5.46,9.877,5.448c-0.015-0.007-0.03-0.015-0.044-0.023C9.778,5.39,9.75,5.343,9.75,5.28
				c0-0.048,0.014-0.082,0.036-0.111L9.698,5.084c0.064-0.059,0.146-0.101,0.238-0.113c0-0.007,0-0.017-0.001-0.023
				C9.836,4.96,9.748,5.004,9.679,5.068L9.665,5.054C9.661,5.059,9.657,5.066,9.653,5.075l0.009,0.009
				C9.586,5.163,9.538,5.268,9.536,5.383H9.41c0.002-0.15,0.063-0.284,0.163-0.385l0.04,0.039c0.002,0,0.004,0,0.005,0
				c0.007,0,0.015-0.004,0.023-0.008L9.591,4.981c0.027-0.025,0.056-0.047,0.087-0.067c0.003-0.009,0.005-0.015,0.006-0.019
				c0.001-0.001,0.01-0.013,0.02-0.023C9.656,4.896,9.612,4.929,9.573,4.964L9.484,4.88C9.6,4.77,9.755,4.696,9.926,4.68
				L9.925,4.675C9.923,4.669,9.922,4.663,9.921,4.656C9.536,4.694,9.234,5.01,9.234,5.39C9.234,5.796,9.578,6.126,10.001,6.126
				 M10.166,5.617L10.166,5.617L10.166,5.617C10.166,5.617,10.166,5.617,10.166,5.617 M10.537,4.897
				c0.125,0.127,0.203,0.297,0.206,0.485h-0.126c-0.001-0.094-0.025-0.182-0.066-0.26l0.001-0.002l0.009,0.006l0.001-0.008
				L10.54,5.081l-0.027-0.035l-0.031-0.025c-0.011-0.013-0.022-0.025-0.034-0.037L10.537,4.897z M10.377,5.054l0.03,0.001
				l0.007,0.008l-0.004,0.013l0.042,0.025l0.008-0.002l0.054,0.059l0.022-0.007c0.034,0.071,0.054,0.15,0.055,0.232h-0.126
				c0-0.033-0.005-0.063-0.012-0.094l0.006-0.007l0.008-0.039l-0.006-0.04l-0.015-0.046l-0.035-0.049l0.009,0.004l0.004-0.004
				L10.396,5.09l-0.001,0.006l0.028,0.038l0.016,0.033l0.011,0.031l0.003,0.02l0.006,0.037h-0.011c0,0-0.012-0.022-0.016-0.031
				l0.006-0.008l-0.011-0.015V5.187L10.42,5.178h-0.01c-0.003-0.006-0.007-0.011-0.011-0.019l0.007,0.004l0.002-0.002l-0.003-0.007
				l0.008-0.004l-0.004-0.006L10.397,5.15l0.004-0.019l-0.007-0.005l-0.006,0.015c-0.015-0.019-0.029-0.039-0.046-0.056
				L10.377,5.054z M10.352,5.337l0.022-0.013l0.023-0.002l0.005-0.011l0.013-0.008l0.004-0.011l0.004-0.019
				c0.002,0.008,0.004,0.013,0.005,0.021L10.417,5.33l0,0.011l0.018-0.022c0.004,0.021,0.006,0.042,0.006,0.064h-0.11l-0.002-0.009
				l0.013-0.012l0.003-0.005l0.005-0.004l0.015-0.002l0.001-0.006L10.352,5.337z M10.2,5.255l0.012-0.004l0-0.002L10.2,5.242
				l0.004-0.024l0.014-0.013c0.008,0.009,0.016,0.021,0.023,0.029l-0.005,0.015L10.223,5.24l-0.009,0.003l0.005,0.008h0.004
				l-0.005,0.013l-0.004-0.006L10.2,5.255z M10.249,5.655l-0.028-0.007l-0.008,0.003l-0.016-0.011l-0.014-0.006
				c0.007-0.005,0.014-0.011,0.021-0.016l0.022,0.016l0.017,0.008l0.008,0.009L10.249,5.655z M10.235,5.188l0.089-0.086
				c0.021,0.022,0.04,0.046,0.056,0.071l-0.012,0.004l0.001,0.019l0.033,0.02c0.008,0.019,0.015,0.037,0.021,0.056l-0.006,0.007
				l-0.012,0.008l-0.003,0.018l-0.008,0.004l-0.007,0.009L10.38,5.313h-0.013l0.007-0.01L10.38,5.28l0.008-0.006l-0.024-0.021
				l-0.018,0.005l-0.004,0.017L10.33,5.287l-0.011-0.011l-0.004-0.009l0.007-0.004l0.003,0.006l0.005-0.002l-0.002-0.011h-0.008
				l0,0.005h-0.005L10.287,5.23l-0.009-0.007l0.003-0.004l0.008-0.002l-0.008-0.004c0,0-0.01,0.002-0.011,0.002l0.005,0.008h-0.014
				C10.255,5.211,10.245,5.199,10.235,5.188 M10.281,5.645l-0.012-0.011l0.009-0.014l0.012-0.021l-0.004-0.007l0.008-0.017
				l-0.001-0.015l-0.005-0.017L10.276,5.54l-0.004,0.009l-0.007-0.001c0.01-0.015,0.02-0.028,0.027-0.044l0.011-0.006l0.006-0.008
				l0.003,0.004l0.008-0.009l-0.006-0.008l0.005-0.002l0.01,0.004h0.02l0.012-0.005l0.031-0.008l-0.006-0.009l-0.002-0.013
				l0.017,0.007l0.006-0.004l-0.003-0.013l-0.02,0.008l-0.022-0.004l-0.017-0.033h0.096c-0.004,0.106-0.049,0.203-0.121,0.274
				l-0.013-0.013l0.005-0.017l-0.01-0.036L10.281,5.645z M10.298,5.881l0.012-0.024l-0.004-0.011l0.018-0.015V5.822l-0.015-0.01
				l0.012-0.023l0.019-0.022l-0.019-0.02h-0.014l-0.009-0.013c0.008-0.006,0.015-0.013,0.022-0.019L10.408,5.8
				C10.374,5.831,10.338,5.858,10.298,5.881 M10.408,5.767l0.01-0.011L10.409,5.71l-0.007-0.002l0.004-0.009l-0.021-0.006
				L10.381,5.71L10.38,5.73l-0.005,0.006l-0.038-0.039c0.076-0.075,0.124-0.178,0.129-0.291h0.125
				c-0.004,0.146-0.066,0.278-0.166,0.377L10.408,5.767z M10.443,5.8c0.104-0.103,0.169-0.241,0.173-0.394h0.126
				c-0.004,0.187-0.084,0.355-0.21,0.479L10.443,5.8z M9.685,5.683C9.676,5.674,9.667,5.664,9.659,5.655l0.003-0.031L9.649,5.595
				L9.647,5.549L9.632,5.521l0.003-0.018L9.616,5.471L9.601,5.463l0.006-0.018L9.6,5.432l0.007-0.016h0.017l0.006-0.01H9.66
				l0.004,0.008L9.659,5.443L9.655,5.448l0.011,0.022L9.659,5.475L9.654,5.469L9.652,5.471l0.005,0.015l0.008,0.017L9.669,5.5
				l0.002-0.013L9.668,5.481l0-0.011L9.666,5.45l0.006-0.034l-0.006-0.01h0.021c0.004,0.073,0.037,0.142,0.086,0.192L9.685,5.683z
				 M9.602,5.446L9.59,5.465H9.569L9.568,5.463C9.564,5.445,9.562,5.425,9.561,5.406h0.038L9.59,5.436L9.602,5.446z M9.643,5.364
				l0.002-0.023l0.015-0.01l0.027,0.004l0.003,0.006C9.689,5.354,9.687,5.368,9.687,5.383h-0.03L9.643,5.364z M9.771,5.454
				L9.778,5.45l0.016,0.013L9.786,5.469l0.019,0.013L9.804,5.469l0.01-0.017l0.01,0.011l0.011,0.015L9.816,5.481l0.008,0.017
				L9.837,5.49L9.836,5.485l0.01-0.006l0.006-0.027C9.859,5.469,9.868,5.483,9.88,5.496L9.792,5.58
				C9.749,5.538,9.72,5.481,9.713,5.421l0.019,0.019h0.017L9.771,5.454z M9.68,5.101l0.089,0.086
				C9.75,5.207,9.734,5.229,9.721,5.253L9.715,5.251L9.703,5.255H9.698L9.685,5.268l0.017-0.004L9.717,5.26
				C9.716,5.262,9.715,5.264,9.715,5.266L9.701,5.274H9.695l-0.02,0.013H9.656L9.629,5.335l0.005,0.011L9.619,5.36L9.617,5.383
				H9.561C9.563,5.272,9.608,5.174,9.68,5.101 M9.565,5.747l0.028,0.017l0.006,0.003L9.578,5.785
				C9.569,5.776,9.56,5.767,9.551,5.756L9.565,5.747z M9.536,5.406c0,0.011,0.002,0.024,0.003,0.035L9.524,5.445L9.521,5.46
				L9.489,5.498L9.49,5.553L9.456,5.563H9.438C9.422,5.515,9.412,5.461,9.41,5.406H9.536L9.536,5.406z M9.412,5.563H9.405
				l-0.007-0.01L9.363,5.551l0.011,0.015L9.341,5.559l0.009-0.008L9.341,5.544L9.318,5.553L9.309,5.569l0.003,0.033L9.34,5.666
				l0.013,0.019L9.36,5.688L9.34,5.649L9.335,5.632L9.34,5.626L9.337,5.617h0.013l0.019,0.029l0.005,0.002L9.372,5.628L9.38,5.632
				l0.002,0.011l0.02,0.006L9.41,5.643l0.003,0.002l0,0.015l0.009,0.009l0.01,0.004l0.023,0.036l0.014,0.004l0.004-0.017
				C9.498,5.734,9.528,5.771,9.56,5.804L9.471,5.888C9.344,5.764,9.263,5.593,9.259,5.406h0.126C9.387,5.46,9.396,5.513,9.412,5.563
				 M9.466,4.896l0.089,0.086c-0.104,0.104-0.168,0.246-0.17,0.401H9.259C9.261,5.194,9.34,5.022,9.466,4.896 M10.379,4.852
				l-0.008-0.011l-0.017-0.009l-0.013,0.009l0.016,0.01l0.019,0.013L10.379,4.852z M10.302,5.194l0.001,0.009l0.021-0.007
				l0.007-0.013l-0.015-0.019l0.008-0.011l0.02,0.013l0.004-0.002l-0.004-0.004l-0.005-0.009l0.009-0.004L10.34,5.138l-0.019,0.009
				l-0.007,0.011L10.31,5.169l0.008,0.013l-0.003,0.007L10.302,5.194z M9.391,5.736L9.393,5.73L9.381,5.707L9.368,5.703L9.391,5.736
				z M9.906,5.282c0,0.02,0.013,0.034,0.037,0.046c0,0,0-0.004,0-0.01L9.927,5.306l0.008-0.015l0.006-0.002
				c0-0.023-0.001-0.049-0.001-0.053H9.939C9.918,5.247,9.906,5.262,9.906,5.282"/>
			<path fill="#3491CE" d="M10.047,5.806c0.04,0.02,0.076,0.046,0.091,0.097c0.007-0.084-0.042-0.119-0.09-0.145
				C10.048,5.758,10.047,5.806,10.047,5.806"/>
			<path fill="#3491CE" d="M10.309,4.96c0-0.075-0.057-0.159-0.197-0.188c-0.01-0.004-0.026-0.004-0.042-0.006
				c0,0.012-0.001,0.037-0.001,0.037c0,0.009,0,0.04-0.001,0.046c0.013,0.002,0.022,0.003,0.027,0.003
				c0.082,0.019,0.111,0.064,0.111,0.108c0,0.071-0.064,0.099-0.143,0.119c-0.009,0.004-0.017,0.005-0.026,0.007
				c-0.024,0.006-0.048,0.012-0.073,0.017C9.955,5.106,9.946,5.108,9.938,5.11C9.85,5.136,9.776,5.176,9.776,5.28
				c0,0.103,0.085,0.141,0.168,0.165c0-0.029-0.001-0.059-0.001-0.088C9.906,5.341,9.88,5.318,9.88,5.282
				c0-0.037,0.024-0.059,0.06-0.073c0.008-0.004,0.017-0.008,0.026-0.011c0.021-0.006,0.044-0.012,0.068-0.019
				c0.009-0.002,0.018-0.004,0.027-0.006C10.178,5.146,10.309,5.112,10.309,4.96"/>
			<path fill="#3491CE" d="M9.887,5.683c0,0.042,0.032,0.064,0.064,0.081c0-0.006-0.001-0.07-0.001-0.071
				c0-0.014,0.013-0.021,0.024-0.026c0.015-0.007,0.03-0.011,0.05-0.018c0.009-0.004,0.017-0.006,0.026-0.01
				c0.063-0.019,0.138-0.042,0.138-0.115c0-0.075-0.063-0.106-0.133-0.128c0,0.023-0.001,0.059-0.002,0.082
				c0.029,0.012,0.049,0.024,0.049,0.046c0,0.025-0.03,0.042-0.051,0.05c-0.009,0.004-0.022,0.007-0.026,0.009
				c-0.017,0.004-0.035,0.011-0.052,0.017C9.965,5.603,9.956,5.604,9.948,5.609C9.918,5.624,9.887,5.646,9.887,5.683"/>
			<path fill="#3491CE" d="M9.93,4.777C9.888,4.79,9.863,4.805,9.854,4.808c-0.027,0.01-0.066,0.012-0.106,0.052
				C9.74,4.866,9.723,4.889,9.711,4.905S9.698,4.949,9.689,4.964c-0.013,0.02-0.01,0.032-0.01,0.032h0
				c0,0.004-0.003,0.015-0.015,0.028C9.652,5.037,9.634,5.046,9.613,5.042c0.019,0.01,0.043-0.003,0.043-0.003
				S9.652,5.052,9.647,5.073c0.021-0.044,0.039-0.061,0.045-0.065C9.701,5.01,9.719,5.01,9.753,4.991
				c0.038-0.022,0.096-0.057,0.112-0.077c0.017-0.023,0.042-0.04,0.067-0.049C9.932,4.832,9.931,4.803,9.93,4.777 M9.769,4.916
				l-0.02,0.006l0.024-0.039l0.027,0.002L9.769,4.916z"/>
			<path fill="#3491CE" d="M10.01,5.678c-0.004,0.001-0.013,0.005-0.02,0.007S9.976,5.69,9.976,5.692
				c0,0.001,0.006,0.321,0.006,0.329c0,0.065,0.035,0.065,0.035,0c0-0.006,0.007-0.348,0.007-0.348S10.015,5.676,10.01,5.678"/>
			<path fill="#3491CE" d="M9.973,5.573c0.011-0.004,0.022-0.008,0.032-0.011c0.008-0.002,0.015-0.004,0.021-0.006
				c0-0.021,0.006-0.3,0.008-0.35c-0.026,0.006-0.049,0.011-0.067,0.019C9.967,5.264,9.973,5.542,9.973,5.573"/>
			<path fill="#3491CE" d="M10.003,4.504c-0.099,0-0.057,0.14-0.049,0.186c0,0.002,0.008,0.316,0.01,0.39
				c0.015-0.006,0.03-0.01,0.044-0.011c0.01-0.004,0.021-0.006,0.03-0.008c0.002-0.069,0.009-0.369,0.009-0.371
				C10.052,4.64,10.103,4.504,10.003,4.504"/>
			<path fill="#3491CE" d="M11.443,4.677c0.094,0,0.179,0.078,0.179,0.26c0,0.181-0.085,0.26-0.179,0.26
				c-0.093,0-0.179-0.079-0.179-0.26C11.264,4.755,11.35,4.677,11.443,4.677 M11.443,5.125c0.053,0,0.094-0.05,0.094-0.188
				c0-0.14-0.042-0.188-0.094-0.188c-0.052,0-0.094,0.049-0.094,0.188C11.349,5.075,11.391,5.125,11.443,5.125"/>
			<path fill="#3491CE" d="M11.678,4.878c0-0.024,0-0.046-0.003-0.063h0.073c0,0.023,0.002,0.046,0.002,0.069h0.001
				c0.009-0.029,0.035-0.075,0.084-0.075c0.005,0,0.009,0.002,0.013,0.002v0.084c-0.007-0.001-0.014-0.003-0.022-0.003
				c-0.033,0-0.069,0.023-0.069,0.093v0.203h-0.08"/>
			<path fill="#3491CE" d="M11.891,5.247c0.019,0.011,0.057,0.031,0.099,0.031c0.075,0,0.087-0.059,0.087-0.117V5.127h-0.001
				c-0.013,0.027-0.036,0.062-0.088,0.062c-0.046,0-0.116-0.034-0.116-0.185c0-0.103,0.033-0.194,0.12-0.194
				c0.048,0,0.071,0.031,0.087,0.064h0.003c0-0.021,0.002-0.038,0.002-0.059h0.072c-0.001,0.021-0.002,0.04-0.002,0.061V5.15
				c0,0.115-0.032,0.199-0.154,0.199c-0.053,0-0.095-0.015-0.114-0.023 M12.007,5.123c0.05,0,0.07-0.04,0.07-0.125
				c0-0.078-0.026-0.12-0.064-0.12c-0.042,0.002-0.058,0.046-0.058,0.12C11.954,5.086,11.979,5.123,12.007,5.123"/>
			<path fill="#3491CE" d="M12.234,4.837c0.023-0.011,0.055-0.027,0.106-0.027c0.103,0,0.126,0.057,0.126,0.15v0.163
				c0,0.027,0.003,0.051,0.005,0.065h-0.072c-0.004-0.015-0.005-0.033-0.005-0.051h-0.001c-0.02,0.031-0.044,0.057-0.093,0.057
				c-0.052,0-0.099-0.04-0.099-0.108c0-0.103,0.074-0.128,0.175-0.128h0.017V4.945c0-0.036-0.017-0.071-0.063-0.071
				c-0.04,0-0.076,0.021-0.091,0.036 M12.392,5.006h-0.007c-0.068,0-0.109,0.017-0.109,0.071c0,0.033,0.02,0.057,0.051,0.057
				c0.048,0,0.065-0.04,0.065-0.106V5.006L12.392,5.006z"/>
			<path fill="#3491CE" d="M12.531,4.878c0-0.024,0-0.046-0.002-0.063h0.075c0,0.021,0.002,0.038,0.002,0.059h0.002h0
				c0.012-0.023,0.034-0.064,0.088-0.064c0.075,0,0.098,0.064,0.098,0.14v0.239h-0.08V4.966c0-0.057-0.013-0.081-0.046-0.081
				c-0.042,0-0.057,0.039-0.057,0.086v0.218h-0.08"/>
			<path fill="#3491CE" d="M12.86,4.658h0.083v0.088H12.86 M12.861,4.815h0.08v0.373h-0.08V4.815z"/>
			<polyline fill="#3491CE" points="12.999,5.112 13.141,4.885 13.004,4.885 13.004,4.815 13.221,4.815 13.221,4.893 13.082,5.121 
				13.226,5.121 13.226,5.188 12.999,5.188 			"/>
			<path fill="#3491CE" d="M13.293,4.837c0.022-0.011,0.054-0.027,0.105-0.027c0.104,0,0.127,0.057,0.127,0.15v0.163
				c0,0.027,0.002,0.051,0.005,0.065h-0.072c-0.004-0.015-0.005-0.033-0.005-0.051h-0.001c-0.021,0.031-0.045,0.057-0.093,0.057
				c-0.052,0-0.1-0.04-0.1-0.108c0-0.103,0.074-0.128,0.175-0.128h0.016V4.945c0-0.036-0.016-0.071-0.062-0.071
				c-0.04,0-0.076,0.021-0.091,0.036 M13.45,5.006h-0.007c-0.069,0-0.109,0.017-0.109,0.071c0,0.033,0.02,0.057,0.051,0.057
				c0.047,0,0.065-0.04,0.065-0.106V5.006L13.45,5.006z"/>
			<path fill="#3491CE" d="M13.8,5.18c-0.019,0.007-0.046,0.015-0.079,0.015h-0.004l-0.012,0.04
				c0.007-0.004,0.015-0.006,0.025-0.006c0.035,0,0.056,0.024,0.056,0.054c0,0.046-0.04,0.067-0.072,0.067
				c-0.027,0-0.055-0.007-0.068-0.015l0.011-0.029c0.013,0.006,0.025,0.011,0.045,0.011c0.021,0,0.033-0.013,0.033-0.029
				c0-0.018-0.012-0.027-0.029-0.027c-0.012,0-0.02,0.002-0.025,0.006L13.67,5.253l0.02-0.061c-0.087-0.017-0.125-0.095-0.125-0.19
				c0-0.106,0.049-0.192,0.161-0.192c0.025,0,0.055,0.01,0.07,0.017l-0.004,0.069c-0.014-0.007-0.035-0.018-0.056-0.018
				c-0.061,0-0.087,0.046-0.087,0.126c0,0.069,0.03,0.123,0.091,0.123c0.019,0,0.046-0.01,0.057-0.019"/>
			<path fill="#3491CE" d="M13.871,4.837c0.022-0.011,0.054-0.027,0.105-0.027c0.104,0,0.127,0.057,0.127,0.15v0.163
				c0,0.027,0.002,0.051,0.004,0.065h-0.072c-0.003-0.015-0.004-0.033-0.004-0.051H14.03c-0.02,0.031-0.045,0.057-0.093,0.057
				c-0.052,0-0.1-0.04-0.1-0.108c0-0.103,0.074-0.128,0.175-0.128h0.016V4.945c0-0.036-0.016-0.071-0.062-0.071
				c-0.041,0-0.076,0.021-0.091,0.036 M13.884,4.768c0-0.025,0.012-0.084,0.061-0.086c0.029,0,0.054,0.025,0.074,0.025
				c0.013,0,0.019-0.015,0.019-0.029h0.04c0,0.022-0.012,0.086-0.06,0.086c-0.025,0-0.049-0.025-0.072-0.025
				c-0.016,0-0.024,0.013-0.024,0.029H13.884z M14.029,5.006h-0.007c-0.069,0-0.109,0.017-0.109,0.071
				c0,0.033,0.02,0.057,0.051,0.057c0.047,0,0.065-0.04,0.065-0.106V5.006L14.029,5.006z"/>
			<path fill="#3491CE" d="M14.306,4.81c0.068,0,0.146,0.041,0.146,0.192c0,0.157-0.078,0.192-0.146,0.192s-0.147-0.035-0.147-0.192
				C14.159,4.851,14.238,4.81,14.306,4.81 M14.306,5.13c0.051,0,0.063-0.065,0.063-0.128s-0.012-0.128-0.063-0.128
				c-0.052,0-0.064,0.065-0.064,0.128S14.254,5.13,14.306,5.13"/>
			<polyline fill="#3491CE" points="11.658,5.463 11.657,5.463 11.544,5.884 11.485,5.884 11.377,5.463 11.376,5.463 11.376,5.884 
				11.302,5.884 11.302,5.379 11.425,5.379 11.517,5.756 11.519,5.756 11.614,5.379 11.733,5.379 11.733,5.884 11.658,5.884 			"/>
			<path fill="#3491CE" d="M12.06,5.822c0,0.023,0.001,0.045,0.003,0.062h-0.075c0-0.018-0.002-0.038-0.002-0.057l-0.002-0.002
				l0.001,0.002c-0.016,0.027-0.036,0.063-0.089,0.063c-0.076,0-0.098-0.063-0.098-0.138V5.511h0.08v0.226
				c0,0.057,0.014,0.08,0.048,0.08c0.042,0,0.054-0.044,0.054-0.092V5.511h0.08"/>
			<path fill="#3491CE" d="M12.129,5.573c0-0.024,0-0.046-0.002-0.063h0.075c0.001,0.021,0.002,0.038,0.002,0.059h0.002h0
				c0.012-0.023,0.034-0.064,0.088-0.064c0.076,0,0.098,0.064,0.098,0.14v0.239h-0.08V5.661c0-0.057-0.013-0.081-0.046-0.081
				c-0.042,0-0.057,0.039-0.057,0.086v0.218h-0.08"/>
			<path fill="#3491CE" d="M12.731,5.341V5.82c0,0.027,0.001,0.051,0.002,0.063h-0.075c-0.001-0.011-0.003-0.032-0.003-0.059h-0.002
				c-0.013,0.033-0.037,0.064-0.088,0.064c-0.083,0-0.117-0.088-0.117-0.192c0-0.12,0.043-0.192,0.115-0.192
				c0.047,0,0.074,0.031,0.085,0.061h0.001V5.341 M12.588,5.824c0.047,0,0.063-0.058,0.063-0.127c0-0.073-0.018-0.126-0.062-0.126
				c-0.044,0-0.06,0.049-0.06,0.122C12.529,5.78,12.541,5.824,12.588,5.824"/>
			<path fill="#3491CE" d="M12.795,5.354h0.083v0.088h-0.083 M12.796,5.511h0.08v0.373h-0.08V5.511z"/>
			<path fill="#3491CE" d="M12.966,5.533c0.022-0.012,0.054-0.028,0.105-0.028c0.103,0,0.126,0.058,0.126,0.15v0.163
				c0,0.027,0.003,0.051,0.005,0.065h-0.072c-0.004-0.015-0.005-0.032-0.005-0.051h-0.001c-0.02,0.031-0.045,0.057-0.093,0.057
				c-0.052,0-0.099-0.04-0.099-0.109c0-0.102,0.074-0.127,0.175-0.127h0.016V5.641c0-0.038-0.016-0.071-0.063-0.071
				c-0.04,0-0.075,0.022-0.091,0.036 M13.124,5.701h-0.007c-0.068,0-0.109,0.017-0.109,0.071c0,0.033,0.02,0.057,0.051,0.057
				c0.048,0,0.065-0.04,0.065-0.106V5.701L13.124,5.701z"/>
			<rect x="13.274" y="5.341" fill="#3491CE" width="0.08" height="0.543"/>
			<path fill="#3491CE" d="M13.881,5.341V5.82c0,0.027,0,0.051,0.002,0.063h-0.075c-0.001-0.011-0.002-0.032-0.002-0.059h-0.002
				c-0.013,0.033-0.037,0.064-0.088,0.064c-0.083,0-0.117-0.088-0.117-0.192c0-0.12,0.043-0.192,0.115-0.192
				c0.048,0,0.074,0.031,0.086,0.061H13.8V5.341 M13.737,5.824c0.047,0,0.063-0.058,0.063-0.127c0-0.073-0.018-0.126-0.062-0.126
				c-0.044,0-0.06,0.049-0.06,0.122C13.678,5.78,13.691,5.824,13.737,5.824"/>
			<path fill="#3491CE" d="M13.964,5.533c0.022-0.012,0.054-0.028,0.105-0.028c0.103,0,0.127,0.058,0.127,0.15v0.163
				c0,0.027,0.002,0.051,0.004,0.065h-0.072c-0.003-0.015-0.004-0.032-0.004-0.051h-0.001c-0.02,0.031-0.045,0.057-0.093,0.057
				c-0.051,0-0.099-0.04-0.099-0.109c0-0.102,0.073-0.127,0.175-0.127h0.016V5.641c0-0.038-0.016-0.071-0.062-0.071
				c-0.04,0-0.075,0.022-0.091,0.036 M14.121,5.701h-0.007c-0.068,0-0.109,0.017-0.109,0.071c0,0.033,0.02,0.057,0.051,0.057
				c0.048,0,0.065-0.04,0.065-0.106V5.701L14.121,5.701z"/>
			<path fill="#3491CE" d="M14.431,5.787c0.016,0.011,0.051,0.031,0.095,0.031c0.036,0,0.069-0.023,0.069-0.073
				c0-0.037-0.019-0.053-0.059-0.077l-0.042-0.025c-0.044-0.029-0.073-0.067-0.073-0.134c0-0.09,0.066-0.137,0.142-0.137
				c0.048,0,0.082,0.015,0.094,0.018l-0.003,0.077c-0.02-0.007-0.047-0.021-0.084-0.021c-0.042,0-0.063,0.025-0.063,0.06
				c0,0.037,0.022,0.052,0.048,0.068l0.048,0.031c0.053,0.032,0.078,0.063,0.078,0.135c0,0.103-0.065,0.152-0.151,0.152
				c-0.045,0-0.08-0.008-0.103-0.022"/>
			<path fill="#3491CE" d="M14.755,5.533c0.023-0.012,0.055-0.028,0.105-0.028c0.103,0,0.127,0.058,0.127,0.15v0.163
				c0,0.027,0.003,0.051,0.004,0.065h-0.072c-0.003-0.015-0.004-0.032-0.004-0.051h-0.001c-0.02,0.031-0.045,0.057-0.093,0.057
				c-0.052,0-0.099-0.04-0.099-0.109c0-0.102,0.074-0.127,0.175-0.127h0.016V5.641c0-0.038-0.016-0.071-0.062-0.071
				c-0.04,0-0.076,0.022-0.091,0.036 M14.912,5.701h-0.007c-0.068,0-0.109,0.017-0.109,0.071c0,0.033,0.021,0.057,0.051,0.057
				c0.048,0,0.065-0.04,0.065-0.106L14.912,5.701L14.912,5.701z"/>
			<path fill="#3491CE" d="M15.305,5.822c0,0.023,0.001,0.045,0.003,0.062h-0.075c-0.001-0.018-0.002-0.038-0.002-0.057
				l-0.002-0.002l0.001,0.002C15.214,5.854,15.193,5.89,15.14,5.89c-0.075,0-0.098-0.063-0.098-0.138V5.511h0.08v0.226
				c0,0.057,0.014,0.08,0.048,0.08c0.042,0,0.055-0.044,0.055-0.092V5.511h0.08 M15.177,5.366h0.075l-0.065,0.104h-0.051
				L15.177,5.366z"/>
			<path fill="#3491CE" d="M15.647,5.341V5.82c0,0.027,0,0.051,0.003,0.063h-0.075c-0.001-0.011-0.003-0.032-0.003-0.059h-0.001
				c-0.013,0.033-0.037,0.064-0.088,0.064c-0.083,0-0.117-0.088-0.117-0.192c0-0.12,0.043-0.192,0.115-0.192
				c0.048,0,0.075,0.031,0.086,0.061h0.001V5.341 M15.504,5.824c0.047,0,0.063-0.058,0.063-0.127c0-0.073-0.018-0.126-0.062-0.126
				c-0.045,0-0.061,0.049-0.061,0.122C15.445,5.78,15.457,5.824,15.504,5.824"/>
			<path fill="#3491CE" d="M15.955,5.866c-0.017,0.007-0.052,0.023-0.1,0.023c-0.107,0-0.153-0.086-0.153-0.187
				c0-0.111,0.052-0.198,0.137-0.198c0.072,0,0.133,0.048,0.133,0.2v0.017H15.78c0,0.063,0.023,0.103,0.084,0.103
				c0.049,0,0.072-0.017,0.087-0.029 M15.895,5.666c0-0.065-0.02-0.101-0.056-0.101c-0.042,0-0.06,0.052-0.06,0.101H15.895z"/>
			<polygon fill="#3491CE" points="8.877,6.503 8.961,6.503 8.961,6.53 8.906,6.53 8.906,6.581 8.958,6.581 8.958,6.61 8.906,6.61 
				8.906,6.667 8.964,6.667 8.964,6.695 8.877,6.695 			"/>
			<path fill="#3491CE" d="M8.984,6.658C8.99,6.662,9.002,6.669,9.018,6.669c0.013,0,0.024-0.007,0.024-0.027
				c0-0.015-0.007-0.02-0.021-0.029L9.007,6.604C8.99,6.593,8.98,6.578,8.98,6.552c0-0.034,0.023-0.051,0.05-0.051
				c0.017,0,0.029,0.005,0.034,0.005L9.063,6.537c-0.007-0.003-0.017-0.009-0.03-0.009c-0.015,0-0.022,0.009-0.022,0.021
				c0,0.015,0.008,0.021,0.017,0.026l0.017,0.013C9.063,6.602,9.073,6.612,9.073,6.64c0,0.039-0.023,0.059-0.054,0.059
				c-0.016,0-0.028-0.003-0.036-0.009L8.984,6.658z"/>
			<path fill="#3491CE" d="M9.197,6.691C9.19,6.695,9.176,6.698,9.162,6.698c-0.049,0-0.074-0.044-0.074-0.099
				c0-0.057,0.025-0.099,0.073-0.099c0.016,0,0.029,0.005,0.036,0.007L9.195,6.539C9.189,6.535,9.179,6.53,9.165,6.53
				C9.14,6.53,9.119,6.549,9.119,6.6c0,0.05,0.021,0.069,0.045,0.069c0.014,0,0.023-0.005,0.03-0.011L9.197,6.691z"/>
			<path fill="#3491CE" d="M9.215,6.503h0.049c0.028,0,0.048,0.017,0.048,0.051c0,0.024-0.013,0.042-0.031,0.044V6.6
				c0.006,0,0.012,0.004,0.017,0.022L9.32,6.695H9.289L9.273,6.633C9.269,6.618,9.261,6.612,9.251,6.612H9.244v0.083H9.215V6.503z
				 M9.256,6.587c0.016,0,0.026-0.009,0.026-0.029c0-0.022-0.01-0.027-0.026-0.027H9.244v0.057H9.256z"/>
			<rect x="9.338" y="6.503" fill="#3491CE" width="0.029" height="0.192"/>
			<polygon fill="#3491CE" points="9.42,6.532 9.384,6.532 9.384,6.503 9.484,6.503 9.484,6.532 9.449,6.532 9.449,6.695 
				9.42,6.695 			"/>
			<path fill="#3491CE" d="M9.548,6.501c0.033,0,0.063,0.029,0.063,0.099c0,0.067-0.03,0.099-0.063,0.099S9.484,6.667,9.484,6.6
				C9.484,6.53,9.514,6.501,9.548,6.501 M9.548,6.671c0.019,0,0.034-0.02,0.034-0.071c0-0.053-0.015-0.073-0.034-0.073
				S9.514,6.547,9.514,6.6C9.514,6.651,9.529,6.671,9.548,6.671"/>
			<path fill="#3491CE" d="M9.632,6.503h0.05c0.028,0,0.047,0.017,0.047,0.051c0,0.024-0.013,0.042-0.031,0.044V6.6
				c0.006,0,0.013,0.004,0.018,0.022l0.021,0.073H9.705L9.69,6.633C9.686,6.618,9.678,6.612,9.668,6.612H9.661v0.083H9.632V6.503z
				 M9.673,6.587c0.015,0,0.026-0.009,0.026-0.029c0-0.022-0.009-0.027-0.026-0.027H9.661v0.057H9.673z"/>
			<rect x="9.755" y="6.503" fill="#3491CE" width="0.029" height="0.192"/>
			<path fill="#3491CE" d="M9.869,6.501c0.033,0,0.063,0.029,0.063,0.099c0,0.067-0.031,0.099-0.063,0.099
				c-0.034,0-0.063-0.031-0.063-0.099C9.806,6.53,9.836,6.501,9.869,6.501 M9.869,6.671c0.018,0,0.033-0.02,0.033-0.071
				c0-0.053-0.015-0.073-0.033-0.073c-0.019,0-0.034,0.021-0.034,0.073C9.836,6.651,9.85,6.671,9.869,6.671"/>
			<path fill="#3491CE" d="M10.007,6.503h0.049c0.029,0,0.048,0.017,0.048,0.051c0,0.024-0.013,0.042-0.031,0.044V6.6
				c0.006,0,0.012,0.004,0.017,0.022l0.021,0.073h-0.031l-0.016-0.063c-0.004-0.015-0.012-0.021-0.022-0.021h-0.007v0.083h-0.029
				V6.503z M10.048,6.587c0.016,0,0.027-0.009,0.027-0.029c0-0.022-0.01-0.027-0.027-0.027h-0.012v0.057H10.048z"/>
			<polygon fill="#3491CE" points="10.13,6.503 10.214,6.503 10.214,6.53 10.159,6.53 10.159,6.581 10.211,6.581 10.211,6.61 
				10.159,6.61 10.159,6.667 10.216,6.667 10.216,6.695 10.13,6.695 			"/>
			<path fill="#3491CE" d="M10.302,6.587h0.052v0.101c-0.008,0.006-0.022,0.011-0.043,0.011c-0.051,0-0.079-0.042-0.079-0.099
				s0.027-0.099,0.079-0.099c0.019,0,0.033,0.004,0.039,0.007l-0.002,0.031c-0.009-0.005-0.022-0.011-0.037-0.011
				c-0.031,0-0.048,0.031-0.048,0.071c0,0.042,0.016,0.069,0.046,0.069c0.007,0,0.014-0.002,0.017-0.003V6.614h-0.024V6.587
				L10.302,6.587z"/>
			<rect x="10.381" y="6.503" fill="#3491CE" width="0.029" height="0.192"/>
			<path fill="#3491CE" d="M10.496,6.501c0.033,0,0.063,0.029,0.063,0.099c0,0.067-0.03,0.099-0.063,0.099S10.432,6.667,10.432,6.6
				C10.432,6.53,10.463,6.501,10.496,6.501 M10.496,6.671c0.019,0,0.033-0.02,0.033-0.071c0-0.053-0.015-0.073-0.033-0.073
				S10.462,6.547,10.462,6.6C10.462,6.651,10.477,6.671,10.496,6.671"/>
			<polygon fill="#3491CE" points="10.581,6.503 10.615,6.503 10.669,6.652 10.669,6.652 10.669,6.503 10.696,6.503 10.696,6.695 
				10.661,6.695 10.608,6.545 10.607,6.545 10.607,6.695 10.581,6.695 			"/>
			<path fill="#3491CE" d="M10.804,6.649h-0.055l-0.012,0.046h-0.029l0.054-0.192h0.032l0.051,0.192h-0.03L10.804,6.649z
				 M10.798,6.622l-0.02-0.09h0l-0.022,0.09H10.798z"/>
			<polygon fill="#3491CE" points="10.857,6.503 10.886,6.503 10.886,6.667 10.939,6.667 10.939,6.695 10.857,6.695 			"/>
			<path fill="#3491CE" d="M11.007,6.503h0.045c0.033,0,0.05,0.021,0.05,0.059c0,0.036-0.018,0.059-0.05,0.059h-0.017v0.075h-0.029
				V6.503z M11.048,6.593c0.018,0,0.026-0.012,0.026-0.031c0-0.021-0.008-0.031-0.026-0.031h-0.011v0.063H11.048z"/>
			<path fill="#3491CE" d="M11.184,6.649h-0.055l-0.011,0.046h-0.029l0.054-0.192h0.031l0.052,0.192h-0.03L11.184,6.649z
				 M11.178,6.622l-0.021-0.09h0l-0.022,0.09H11.178z"/>
			<path fill="#3491CE" d="M11.237,6.503h0.05c0.028,0,0.047,0.017,0.047,0.051c0,0.024-0.013,0.042-0.031,0.044V6.6
				c0.006,0,0.013,0.004,0.018,0.022l0.021,0.073H11.31l-0.015-0.063c-0.004-0.015-0.012-0.021-0.022-0.021h-0.006v0.083h-0.029
				V6.503L11.237,6.503z M11.278,6.587c0.016,0,0.026-0.009,0.026-0.029c0-0.022-0.009-0.027-0.026-0.027h-0.012v0.057H11.278z"/>
			<path fill="#3491CE" d="M11.439,6.649h-0.055l-0.011,0.046h-0.029l0.053-0.192h0.032l0.052,0.192h-0.03L11.439,6.649z
				 M11.433,6.622l-0.021-0.09h0l-0.022,0.09H11.433z"/>
			<path fill="#3491CE" d="M11.615,6.649H11.56l-0.011,0.046h-0.029l0.053-0.192h0.032l0.051,0.192h-0.03L11.615,6.649z
				 M11.608,6.622l-0.02-0.09h0l-0.022,0.09H11.608z"/>
			<path fill="#3491CE" d="M11.667,6.658c0.006,0.004,0.018,0.011,0.034,0.011c0.013,0,0.024-0.007,0.024-0.027
				c0-0.015-0.006-0.02-0.021-0.029l-0.015-0.009c-0.016-0.011-0.026-0.025-0.026-0.052c0-0.034,0.024-0.051,0.05-0.051
				c0.017,0,0.029,0.005,0.033,0.005l-0.001,0.031c-0.007-0.003-0.017-0.009-0.03-0.009c-0.015,0-0.022,0.009-0.022,0.021
				c0,0.015,0.008,0.021,0.017,0.026l0.018,0.013c0.019,0.013,0.027,0.023,0.027,0.051c0,0.039-0.023,0.059-0.053,0.059
				c-0.016,0-0.029-0.003-0.037-0.009L11.667,6.658z"/>
			<polyline fill="#3491CE" points="12.789,6.342 12.838,6.225 12.911,6.225 12.838,6.342 			"/>
			<polyline fill="#3491CE" points="9.536,6.488 9.56,6.43 9.596,6.43 9.56,6.488 			"/>
			<path fill="#3491CE" d="M4.048,4.602c0.112,0,0.216,0.09,0.216,0.296c0,0.209-0.104,0.299-0.216,0.299
				c-0.113,0-0.217-0.09-0.217-0.299C3.831,4.691,3.935,4.602,4.048,4.602 M4.048,5.115c0.063,0,0.113-0.059,0.113-0.218
				c0-0.157-0.051-0.216-0.113-0.216c-0.063,0-0.114,0.059-0.114,0.216C3.934,5.057,3.985,5.115,4.048,5.115"/>
			<path fill="#3491CE" d="M4.334,4.832c0-0.027-0.001-0.052-0.002-0.071h0.087c0,0.025,0.002,0.053,0.002,0.078h0.002
				c0.011-0.032,0.042-0.084,0.102-0.084c0.006,0,0.011,0.002,0.017,0.002v0.097C4.533,4.851,4.524,4.849,4.514,4.849
				c-0.04,0-0.083,0.025-0.083,0.105v0.232H4.334"/>
			<path fill="#3491CE" d="M4.598,5.255c0.022,0.013,0.067,0.036,0.118,0.036c0.09,0,0.105-0.067,0.105-0.136v-0.04H4.82
				C4.804,5.148,4.778,5.187,4.715,5.187c-0.056,0-0.14-0.038-0.14-0.21c0-0.119,0.04-0.222,0.144-0.222
				c0.059,0,0.085,0.035,0.106,0.073h0.003c0-0.023,0.002-0.046,0.003-0.067h0.087C4.917,4.784,4.915,4.807,4.915,4.828v0.314
				c0,0.134-0.039,0.229-0.185,0.229c-0.064,0-0.114-0.019-0.137-0.027 M4.738,5.112c0.06,0,0.084-0.046,0.084-0.144
				c0-0.089-0.032-0.137-0.078-0.137c-0.051,0.002-0.07,0.051-0.07,0.137C4.674,5.069,4.704,5.112,4.738,5.112"/>
			<path fill="#3491CE" d="M5.01,4.786c0.027-0.013,0.065-0.031,0.127-0.031c0.124,0,0.153,0.064,0.153,0.17v0.188
				c0,0.03,0.003,0.058,0.005,0.074H5.209C5.204,5.17,5.203,5.15,5.203,5.13H5.202C5.178,5.165,5.147,5.194,5.09,5.194
				c-0.062,0-0.12-0.046-0.12-0.125c0-0.117,0.088-0.146,0.21-0.146H5.2V4.909c0-0.043-0.02-0.081-0.075-0.081
				c-0.048,0-0.091,0.023-0.11,0.04 M5.2,4.979H5.192c-0.083,0-0.131,0.018-0.131,0.08c0,0.04,0.024,0.066,0.062,0.066
				c0.058,0,0.079-0.046,0.079-0.123V4.979z"/>
			<path fill="#3491CE" d="M5.368,4.832c0-0.027-0.001-0.052-0.003-0.071h0.09c0.001,0.021,0.003,0.044,0.003,0.065h0.002H5.46
				c0.014-0.025,0.042-0.071,0.107-0.071c0.091,0,0.118,0.071,0.118,0.157v0.274H5.588V4.933c0-0.066-0.015-0.094-0.055-0.094
				c-0.051,0-0.068,0.046-0.068,0.101v0.247H5.368"/>
			<path fill="#3491CE" d="M5.768,4.579h0.099V4.68H5.768 M5.769,4.761h0.096v0.426H5.769V4.761z"/>
			<polyline fill="#3491CE" points="5.928,5.099 6.099,4.839 5.934,4.839 5.934,4.761 6.196,4.761 6.196,4.849 6.028,5.11 
				6.201,5.11 6.201,5.187 5.928,5.187 			"/>
			<path fill="#3491CE" d="M6.274,4.786C6.302,4.773,6.34,4.755,6.401,4.755c0.124,0,0.153,0.064,0.153,0.17v0.188
				c0,0.03,0.003,0.058,0.006,0.074H6.473C6.468,5.17,6.467,5.15,6.467,5.13H6.466C6.441,5.165,6.411,5.194,6.354,5.194
				c-0.062,0-0.12-0.046-0.12-0.125c0-0.117,0.088-0.146,0.21-0.146h0.02V4.909c0-0.043-0.02-0.081-0.075-0.081
				c-0.048,0-0.09,0.023-0.109,0.04 M6.464,4.979H6.455c-0.083,0-0.131,0.018-0.131,0.08c0,0.04,0.024,0.066,0.062,0.066
				c0.058,0,0.079-0.046,0.079-0.123V4.979z"/>
			<path fill="#3491CE" d="M6.904,5.176C6.881,5.185,6.848,5.194,6.809,5.194H6.804L6.79,5.238c0.008-0.002,0.018-0.004,0.03-0.004
				c0.043,0,0.067,0.025,0.067,0.061c0,0.053-0.048,0.077-0.086,0.077c-0.033,0-0.066-0.01-0.082-0.017l0.012-0.033
				c0.016,0.006,0.032,0.011,0.054,0.011c0.026,0,0.041-0.015,0.041-0.034c0-0.019-0.015-0.029-0.036-0.029
				c-0.014,0-0.023,0.002-0.031,0.005L6.748,5.26L6.771,5.19c-0.106-0.019-0.15-0.107-0.15-0.216c0-0.123,0.059-0.22,0.194-0.22
				c0.03,0,0.066,0.009,0.083,0.017L6.893,4.854C6.876,4.845,6.852,4.832,6.825,4.832c-0.073,0-0.105,0.053-0.105,0.145
				c0,0.078,0.036,0.139,0.109,0.139c0.023,0,0.056-0.011,0.068-0.02"/>
			<path fill="#3491CE" d="M6.97,4.786c0.027-0.013,0.065-0.031,0.127-0.031c0.125,0,0.153,0.064,0.153,0.17v0.188
				c0,0.03,0.002,0.058,0.005,0.074H7.169C7.164,5.17,7.163,5.15,7.163,5.13H7.162C7.137,5.165,7.107,5.194,7.05,5.194
				c-0.062,0-0.119-0.046-0.119-0.125c0-0.117,0.088-0.146,0.21-0.146h0.02V4.909c0-0.043-0.02-0.081-0.075-0.081
				c-0.048,0-0.09,0.023-0.109,0.04 M6.985,4.705c0-0.028,0.015-0.097,0.073-0.097c0.036,0,0.066,0.027,0.089,0.027
				c0.016,0,0.023-0.017,0.023-0.032h0.048c0,0.023-0.015,0.097-0.072,0.097c-0.03,0-0.059-0.027-0.087-0.027
				c-0.02,0-0.029,0.015-0.029,0.032H6.985z M7.16,4.979H7.152c-0.082,0-0.131,0.018-0.131,0.08c0,0.04,0.024,0.066,0.062,0.066
				c0.058,0,0.079-0.046,0.079-0.123V4.979z"/>
			<path fill="#3491CE" d="M7.493,4.755c0.082,0,0.176,0.046,0.176,0.22c0,0.178-0.094,0.22-0.176,0.22
				c-0.082,0-0.176-0.042-0.176-0.22C7.317,4.801,7.412,4.755,7.493,4.755 M7.493,5.121c0.063,0,0.077-0.075,0.077-0.146
				S7.556,4.826,7.493,4.826c-0.062,0-0.077,0.077-0.077,0.148S7.431,5.121,7.493,5.121"/>
			<path fill="#3491CE" d="M3.849,5.337h0.155c0.112,0,0.17,0.065,0.17,0.174c0,0.109-0.059,0.178-0.17,0.178H3.948v0.225H3.849
				 M3.986,5.607c0.063,0,0.089-0.032,0.089-0.097c0-0.063-0.027-0.094-0.089-0.094H3.948v0.19H3.986L3.986,5.607z"/>
			<path fill="#3491CE" d="M4.208,5.513C4.235,5.5,4.273,5.481,4.335,5.481c0.124,0,0.153,0.064,0.153,0.17v0.187
				c0,0.031,0.003,0.059,0.005,0.075H4.406C4.402,5.896,4.401,5.877,4.401,5.856H4.399C4.375,5.892,4.345,5.921,4.287,5.921
				c-0.063,0-0.12-0.046-0.12-0.125c0-0.117,0.089-0.145,0.211-0.145h0.02V5.635c0-0.042-0.02-0.08-0.075-0.08
				c-0.049,0-0.091,0.023-0.11,0.04 M4.398,5.705H4.389c-0.082,0-0.131,0.018-0.131,0.08c0,0.04,0.024,0.066,0.061,0.066
				c0.058,0,0.079-0.046,0.079-0.121V5.705z"/>
			<path fill="#3491CE" d="M4.565,5.559c0-0.027,0-0.052-0.003-0.071h0.09c0.001,0.021,0.003,0.044,0.003,0.065h0.002h0
				c0.014-0.025,0.041-0.071,0.106-0.071c0.091,0,0.118,0.071,0.118,0.157v0.274H4.785V5.659c0-0.066-0.015-0.094-0.055-0.094
				c-0.05,0-0.068,0.046-0.068,0.101v0.247H4.565"/>
			<rect x="4.946" y="5.637" fill="#3491CE" width="0.18" height="0.085"/>
			<path fill="#3491CE" d="M5.476,5.774H5.29L5.251,5.913H5.152l0.182-0.576h0.109l0.175,0.576H5.514 M5.455,5.693L5.386,5.423
				H5.385L5.311,5.693H5.455z"/>
			<path fill="#3491CE" d="M5.651,5.557c0-0.029-0.002-0.053-0.003-0.069h0.097c0,0.023,0.003,0.046,0.003,0.067h0.001
				C5.763,5.521,5.795,5.481,5.85,5.481c0.067,0,0.089,0.044,0.101,0.067C5.97,5.52,5.999,5.481,6.058,5.481
				c0.087,0,0.115,0.066,0.115,0.168v0.264H6.077V5.645c0-0.053-0.016-0.079-0.052-0.079c-0.042,0-0.065,0.042-0.065,0.09v0.258
				H5.864V5.645c0-0.053-0.016-0.079-0.051-0.079c-0.043,0-0.065,0.042-0.065,0.09v0.258H5.651"/>
			<path fill="#3491CE" d="M6.54,5.894C6.52,5.902,6.478,5.921,6.42,5.921c-0.129,0-0.185-0.099-0.185-0.214
				c0-0.127,0.063-0.226,0.165-0.226c0.086,0,0.16,0.053,0.16,0.227v0.021H6.329c0,0.073,0.027,0.117,0.102,0.117
				c0.059,0,0.087-0.019,0.105-0.033 M6.467,5.664c0-0.074-0.023-0.113-0.067-0.113c-0.051,0-0.071,0.057-0.071,0.113H6.467z"/>
			<path fill="#3491CE" d="M6.627,5.559c0-0.027-0.001-0.052-0.003-0.071H6.71C6.711,5.513,6.714,5.54,6.714,5.565h0.001
				c0.012-0.032,0.042-0.084,0.102-0.084c0.006,0,0.011,0.002,0.017,0.002V5.58C6.824,5.577,6.816,5.575,6.806,5.575
				c-0.04,0-0.083,0.025-0.083,0.105v0.232H6.627"/>
			<path fill="#3491CE" d="M6.893,5.306h0.099v0.101H6.893 M6.895,5.487H6.99v0.426H6.895V5.487z"/>
			<path fill="#3491CE" d="M7.347,5.904C7.324,5.913,7.291,5.921,7.252,5.921c-0.132,0-0.188-0.099-0.188-0.22
				s0.059-0.22,0.194-0.22c0.03,0,0.066,0.009,0.084,0.017L7.337,5.58C7.319,5.571,7.295,5.559,7.269,5.559
				c-0.073,0-0.105,0.053-0.105,0.145c0,0.078,0.036,0.141,0.109,0.141c0.023,0,0.056-0.013,0.069-0.021"/>
			<path fill="#3491CE" d="M7.414,5.513C7.441,5.5,7.479,5.481,7.541,5.481c0.124,0,0.153,0.064,0.153,0.17v0.187
				c0,0.031,0.003,0.059,0.005,0.075H7.613C7.608,5.896,7.607,5.877,7.607,5.856H7.606C7.581,5.892,7.551,5.921,7.493,5.921
				c-0.062,0-0.12-0.046-0.12-0.125c0-0.117,0.088-0.145,0.211-0.145h0.019V5.635c0-0.042-0.019-0.08-0.075-0.08
				c-0.048,0-0.091,0.023-0.109,0.04 M7.604,5.705H7.595c-0.083,0-0.132,0.018-0.132,0.08c0,0.04,0.024,0.066,0.062,0.066
				c0.057,0,0.078-0.046,0.078-0.121V5.705z"/>
			<path fill="#3491CE" d="M7.772,5.559c0-0.027-0.001-0.052-0.003-0.071h0.091c0,0.021,0.002,0.044,0.002,0.065h0.003H7.864
				C7.877,5.527,7.905,5.481,7.97,5.481c0.091,0,0.118,0.071,0.118,0.157v0.274H7.991V5.659c0-0.066-0.015-0.094-0.055-0.094
				c-0.05,0-0.068,0.046-0.068,0.101v0.247H7.772"/>
			<path fill="#3491CE" d="M8.183,5.513C8.21,5.5,8.248,5.481,8.309,5.481c0.125,0,0.153,0.064,0.153,0.17v0.187
				c0,0.031,0.003,0.059,0.005,0.075H8.381C8.376,5.896,8.376,5.877,8.376,5.856H8.374C8.35,5.892,8.32,5.921,8.262,5.921
				c-0.062,0-0.12-0.046-0.12-0.125c0-0.117,0.089-0.145,0.211-0.145h0.019V5.635c0-0.042-0.019-0.08-0.075-0.08
				c-0.048,0-0.091,0.023-0.11,0.04 M8.372,5.705H8.364c-0.082,0-0.131,0.018-0.131,0.08c0,0.04,0.024,0.066,0.062,0.066
				c0.058,0,0.079-0.046,0.079-0.121V5.705z"/>
			<path fill="#3491CE" d="M4.168,6.02v0.549c0,0.029,0.001,0.057,0.003,0.073H4.081C4.079,6.629,4.078,6.604,4.078,6.574H4.075
				C4.06,6.61,4.031,6.647,3.969,6.647c-0.1,0-0.141-0.101-0.141-0.22c0-0.14,0.052-0.22,0.139-0.22
				c0.057,0,0.089,0.035,0.104,0.067h0.001V6.02 M3.996,6.572c0.057,0,0.076-0.066,0.076-0.146c0-0.082-0.022-0.143-0.074-0.143
				c-0.054,0-0.072,0.055-0.072,0.141C3.925,6.522,3.94,6.572,3.996,6.572"/>
			<path fill="#3491CE" d="M4.265,6.239C4.292,6.227,4.33,6.208,4.391,6.208c0.125,0,0.153,0.064,0.153,0.172v0.185
				c0,0.031,0.003,0.061,0.006,0.077H4.463C4.458,6.623,4.457,6.604,4.457,6.583H4.456C4.432,6.618,4.401,6.647,4.344,6.647
				c-0.063,0-0.12-0.046-0.12-0.125c0-0.117,0.089-0.145,0.21-0.145h0.02V6.361c0-0.042-0.02-0.08-0.075-0.08
				c-0.048,0-0.091,0.023-0.11,0.04 M4.454,6.432H4.446c-0.083,0-0.131,0.018-0.131,0.08c0,0.04,0.024,0.066,0.062,0.066
				c0.058,0,0.079-0.046,0.079-0.121V6.432z"/>
			<path fill="#3491CE" d="M4.819,6.528c0.02,0.015,0.063,0.036,0.116,0.036c0.043,0,0.082-0.025,0.082-0.084
				c0-0.04-0.023-0.059-0.071-0.088l-0.05-0.029C4.842,6.332,4.807,6.287,4.807,6.212c0-0.104,0.08-0.157,0.171-0.157
				c0.058,0,0.098,0.016,0.113,0.02l-0.004,0.09C5.063,6.153,5.031,6.139,4.985,6.139c-0.05,0-0.075,0.029-0.075,0.067
				c0,0.044,0.027,0.061,0.057,0.079l0.058,0.034c0.064,0.039,0.094,0.075,0.094,0.156c0,0.117-0.078,0.174-0.182,0.174
				c-0.054,0-0.097-0.008-0.124-0.026"/>
			<path fill="#3491CE" d="M5.209,6.239c0.027-0.013,0.065-0.031,0.126-0.031c0.125,0,0.153,0.064,0.153,0.172v0.185
				c0,0.031,0.003,0.061,0.005,0.077H5.407C5.402,6.623,5.401,6.604,5.401,6.583H5.4C5.376,6.618,5.345,6.647,5.288,6.647
				c-0.062,0-0.12-0.046-0.12-0.125c0-0.117,0.089-0.145,0.21-0.145h0.02V6.361c0-0.042-0.02-0.08-0.075-0.08
				c-0.048,0-0.091,0.023-0.109,0.04 M5.399,6.432H5.39c-0.083,0-0.131,0.018-0.131,0.08c0,0.04,0.024,0.066,0.061,0.066
				c0.058,0,0.079-0.046,0.079-0.121V6.432z"/>
			<path fill="#3491CE" d="M5.883,6.57c0,0.027,0.001,0.052,0.003,0.071h-0.09C5.795,6.62,5.792,6.598,5.792,6.576L5.79,6.574
				l0,0.002C5.772,6.607,5.747,6.647,5.684,6.647c-0.091,0-0.118-0.071-0.118-0.157V6.214h0.096V6.47
				c0,0.065,0.017,0.094,0.058,0.094c0.051,0,0.066-0.05,0.066-0.104V6.214h0.097 M5.729,6.047h0.09L5.74,6.168H5.679L5.729,6.047z"
				/>
			<path fill="#3491CE" d="M6.286,6.02v0.549c0,0.029,0.001,0.057,0.003,0.073h-0.09C6.198,6.629,6.197,6.604,6.197,6.574H6.194
				C6.178,6.61,6.15,6.647,6.088,6.647c-0.1,0-0.141-0.101-0.141-0.22c0-0.14,0.052-0.22,0.138-0.22
				c0.058,0,0.089,0.035,0.104,0.067H6.19V6.02 M6.114,6.572c0.057,0,0.076-0.066,0.076-0.146c0-0.082-0.021-0.143-0.075-0.143
				c-0.054,0-0.072,0.055-0.072,0.141C6.043,6.522,6.058,6.572,6.114,6.572"/>
			<path fill="#3491CE" d="M6.657,6.62c-0.02,0.009-0.062,0.027-0.119,0.027c-0.129,0-0.185-0.099-0.185-0.214
				c0-0.127,0.063-0.226,0.165-0.226c0.086,0,0.16,0.053,0.16,0.227v0.021H6.446c0,0.073,0.028,0.117,0.102,0.117
				c0.059,0,0.087-0.019,0.105-0.033 M6.584,6.391c0-0.074-0.023-0.113-0.067-0.113c-0.05,0-0.072,0.057-0.072,0.113H6.584z"/>
			<path fill="#3491CE" d="M2.456,6.775c-0.647,0-1.174-0.518-1.174-1.155c0-0.635,0.526-1.152,1.174-1.152S3.63,4.985,3.63,5.62
				C3.63,6.258,3.103,6.775,2.456,6.775 M2.456,4.521c-0.618,0-1.121,0.494-1.121,1.1c0,0.608,0.503,1.103,1.121,1.103
				S3.576,6.229,3.576,5.62C3.576,5.015,3.073,4.521,2.456,4.521"/>
			<path fill="#3491CE" d="M2.456,6.457c-0.482,0-0.875-0.375-0.875-0.837c0-0.461,0.392-0.836,0.875-0.836S3.33,5.159,3.33,5.62
				C3.33,6.082,2.938,6.457,2.456,6.457 M2.456,4.843c-0.449,0-0.814,0.35-0.814,0.777c0,0.431,0.366,0.778,0.814,0.778
				S3.27,6.051,3.27,5.62C3.27,5.192,2.905,4.843,2.456,4.843"/>
			<polyline fill="#3491CE" points="1.529,5.22 1.544,5.276 1.6,5.276 1.559,5.308 1.574,5.357 1.526,5.318 1.479,5.36 1.498,5.308 
				1.449,5.276 1.506,5.276 			"/>
			<path fill="#3491CE" d="M1.58,5.366L1.526,5.322l-0.045,0.04L1.476,5.36L1.494,5.31L1.439,5.272l0.064,0.002l0.025-0.063
				l0.017,0.062h0.063L1.563,5.31 M1.46,5.28l0.042,0.025L1.486,5.35l0.04-0.034l0.043,0.032L1.555,5.306l0.036-0.027H1.542
				l-0.014-0.05L1.508,5.28H1.46z"/>
			<polyline fill="#3491CE" points="3.319,6.02 3.335,6.076 3.39,6.076 3.35,6.107 3.365,6.158 3.317,6.118 3.27,6.16 3.288,6.107 
				3.24,6.076 3.296,6.078 			"/>
			<path fill="#3491CE" d="M3.371,6.166L3.317,6.122L3.272,6.164L3.266,6.16l0.019-0.051L3.23,6.074h0.064L3.32,6.011l0.017,0.063
				h0.062L3.353,6.109 M3.25,6.08l0.042,0.027L3.277,6.151l0.04-0.037l0.043,0.035L3.346,6.107L3.382,6.08h-0.05L3.319,6.028
				l-0.02,0.054L3.25,6.08z"/>
			<polyline fill="#3491CE" points="1.588,6.007 1.604,6.063 1.66,6.063 1.619,6.097 1.634,6.146 1.586,6.105 1.538,6.147 
				1.558,6.097 1.509,6.063 1.566,6.065 			"/>
			<path fill="#3491CE" d="M1.64,6.153L1.586,6.109L1.541,6.151L1.536,6.147l0.018-0.051L1.499,6.062h0.064l0.025-0.063l0.018,0.063
				h0.062L1.623,6.097 M1.52,6.067l0.042,0.027L1.545,6.139l0.041-0.037l0.043,0.035L1.616,6.095l0.035-0.027h-0.05l-0.014-0.05
				l-0.02,0.052L1.52,6.067z"/>
			<polyline fill="#3491CE" points="3.388,5.18 3.409,5.236 3.461,5.236 3.419,5.268 3.435,5.316 3.388,5.274 3.339,5.32 
				3.359,5.268 3.31,5.236 3.366,5.236 			"/>
			<path fill="#3491CE" d="M3.441,5.326L3.388,5.278L3.341,5.322L3.337,5.318L3.355,5.27L3.3,5.232l0.064,0.002L3.389,5.17
				l0.022,0.063h0.058L3.423,5.268 M3.32,5.238l0.042,0.027L3.346,5.31l0.042-0.038l0.04,0.036L3.416,5.266l0.036-0.027H3.407
				L3.388,5.187L3.368,5.24L3.32,5.238z"/>
			<path fill="#3491CE" d="M2.525,5.62c0.005,0,0.01,0,0.014,0"/>
			<polyline fill="#3491CE" points="1.861,6.275 1.885,6.3 1.769,6.422 1.742,6.398 1.774,6.265 1.774,6.263 1.69,6.353 
				1.666,6.331 1.783,6.206 1.811,6.231 1.779,6.363 1.78,6.363 			"/>
			<path fill="#3491CE" d="M2.5,4.738L2.461,4.734l0.079-0.16l0.042,0.003l0.043,0.172L2.587,4.746L2.579,4.711L2.515,4.705
				 M2.528,4.677l0.044,0.005L2.557,4.612l0,0L2.528,4.677z"/>
			<polyline fill="#3491CE" points="2.734,4.746 2.816,4.771 2.806,4.801 2.689,4.764 2.744,4.604 2.779,4.616 			"/>
			<path fill="#3491CE" d="M2.998,4.849C2.974,4.885,2.94,4.887,2.904,4.863C2.89,4.855,2.873,4.839,2.869,4.817
				c-0.002-0.013,0.002-0.025,0.011-0.04l0.063-0.092l0.031,0.019L2.913,4.795C2.9,4.813,2.906,4.83,2.92,4.839
				C2.941,4.852,2.956,4.847,2.967,4.83L3.03,4.738L3.06,4.757"/>
			<polyline fill="#3491CE" points="3.077,4.98 3.049,4.958 3.141,4.854 3.101,4.821 3.12,4.799 3.229,4.885 3.21,4.907 3.17,4.876 
							"/>
			<path fill="#3491CE" d="M2.307,4.698c0.002,0.009,0.01,0.027,0.041,0.021C2.365,4.719,2.383,4.711,2.38,4.694
				C2.378,4.68,2.365,4.68,2.345,4.678L2.326,4.677C2.298,4.675,2.27,4.671,2.263,4.634c-0.002-0.018,0.002-0.051,0.058-0.06
				c0.053-0.008,0.073,0.023,0.076,0.044L2.363,4.623C2.361,4.616,2.355,4.6,2.323,4.604C2.31,4.604,2.294,4.612,2.297,4.627
				C2.299,4.64,2.311,4.642,2.318,4.644l0.043,0.004c0.024,0.001,0.047,0.007,0.052,0.036c0.009,0.051-0.043,0.063-0.058,0.065
				c-0.063,0.01-0.08-0.025-0.083-0.045"/>
			<path fill="#3491CE" d="M1.914,4.704c0.021-0.012,0.078-0.029,0.116,0.04c0.037,0.069-0.012,0.106-0.032,0.115
				C1.978,4.87,1.92,4.889,1.883,4.819C1.845,4.749,1.894,4.713,1.914,4.704 M1.985,4.834c0.017-0.01,0.036-0.031,0.014-0.073
				S1.946,4.72,1.928,4.729C1.911,4.738,1.892,4.761,1.914,4.803C1.937,4.845,1.967,4.843,1.985,4.834"/>
			<path fill="#3491CE" d="M1.664,4.905l0.061-0.061c0.032-0.033,0.062-0.017,0.073-0.008C1.81,4.851,1.815,4.868,1.808,4.885
				c0.014-0.007,0.023-0.009,0.046,0.013c0.018,0.017,0.022,0.021,0.03,0.017l0.003,0.004L1.86,4.945
				C1.852,4.941,1.845,4.938,1.832,4.925C1.815,4.91,1.808,4.905,1.789,4.924L1.763,4.951l0.048,0.044L1.787,5.019 M1.772,4.901
				c0.013-0.013,0.015-0.023,0.002-0.035C1.768,4.859,1.755,4.854,1.74,4.868L1.71,4.899l0.033,0.031L1.772,4.901z"/>
			<polyline fill="#3491CE" points="2.927,6.375 2.956,6.36 3.04,6.505 3.009,6.521 2.887,6.451 2.887,6.451 2.947,6.554 
				2.917,6.57 2.834,6.426 2.866,6.407 2.985,6.478 2.986,6.476 			"/>
			<path fill="#3491CE" d="M2.99,6.329l0.06-0.046C3.096,6.25,3.136,6.279,3.156,6.305C3.179,6.332,3.2,6.382,3.156,6.417
				L3.096,6.461 M3.106,6.417l0.028-0.021c0.023-0.019,0.013-0.046-0.005-0.067C3.098,6.29,3.076,6.302,3.064,6.311L3.036,6.331
				L3.106,6.417z"/>
			<polyline fill="#3491CE" points="3.28,6.305 3.255,6.331 3.125,6.221 3.149,6.195 			"/>
			<polyline fill="#3491CE" points="3.335,5.064 3.279,4.993 3.25,5.015 3.301,5.079 3.277,5.098 3.226,5.031 3.19,5.059 
				3.248,5.132 3.223,5.15 3.144,5.048 3.282,4.947 3.359,5.046 			"/>
			<path fill="#3491CE" d="M1.976,6.363C1.994,6.376,2.038,6.417,1.992,6.48C1.946,6.545,1.891,6.52,1.872,6.506
				C1.853,6.493,1.81,6.453,1.856,6.39C1.902,6.325,1.957,6.351,1.976,6.363 M1.889,6.482c0.016,0.011,0.046,0.017,0.073-0.021
				C1.99,6.422,1.974,6.398,1.958,6.388C1.943,6.376,1.913,6.371,1.885,6.409C1.858,6.448,1.874,6.472,1.889,6.482"/>
			<polyline fill="#3491CE" points="2.16,6.453 2.195,6.466 2.077,6.604 2.045,6.591 2.054,6.415 2.09,6.428 2.076,6.56 2.077,6.56 
							"/>
			<polyline fill="#3491CE" points="2.219,6.644 2.183,6.635 2.228,6.474 2.263,6.482 			"/>
			<polyline fill="#3491CE" points="2.629,6.656 2.595,6.658 2.585,6.52 2.584,6.52 2.562,6.66 2.527,6.662 2.485,6.524 
				2.485,6.524 2.494,6.666 2.461,6.667 2.449,6.501 2.502,6.497 2.542,6.625 2.543,6.625 2.565,6.493 2.617,6.49 			"/>
			<path fill="#3491CE" d="M2.829,6.552c0.012,0.044-0.01,0.068-0.052,0.079c-0.016,0.004-0.04,0.006-0.059-0.008
				c-0.012-0.007-0.019-0.02-0.023-0.036L2.666,6.479l0.036-0.007L2.73,6.576C2.736,6.6,2.752,6.605,2.769,6.602
				C2.793,6.596,2.8,6.581,2.794,6.563L2.765,6.455l0.036-0.009"/>
			<path fill="#3491CE" d="M1.682,5.15L1.661,5.18L1.518,5.084l0.044-0.063c0.019-0.027,0.048-0.031,0.076-0.013
				c0.013,0.009,0.041,0.036,0.015,0.075L1.63,5.115 M1.624,5.071c0.015-0.02,0-0.031-0.007-0.036
				c-0.014-0.01-0.024-0.004-0.037,0.013L1.563,5.071l0.042,0.027L1.624,5.071z"/>
			<path fill="#3491CE" d="M2.627,6.277C2.64,6.307,2.607,6.3,2.594,6.311H2.583C2.586,6.294,2.604,6.267,2.627,6.277"/>
			<path fill="#3491CE" d="M2.441,5.769V5.78H2.396C2.392,5.756,2.43,5.751,2.441,5.769"/>
			<polyline fill="#3491CE" points="2.518,5.478 2.539,5.45 2.597,5.446 2.623,5.441 2.611,5.465 2.58,5.478 2.585,5.465 
				2.549,5.463 2.53,5.478 			"/>
			<polyline fill="#3491CE" points="2.658,5.445 2.677,5.441 2.698,5.45 2.687,5.465 2.666,5.471 2.656,5.481 2.644,5.473 
				2.625,5.478 2.623,5.467 2.639,5.463 2.633,5.454 2.639,5.446 			"/>
			<polyline fill="#3491CE" points="2.718,5.467 2.729,5.458 2.75,5.46 2.746,5.471 2.715,5.478 			"/>
			<polyline fill="#3491CE" points="2.549,5.492 2.573,5.49 2.568,5.505 2.544,5.505 			"/>
			<polyline fill="#3491CE" points="2.711,5.49 2.725,5.479 2.733,5.487 2.723,5.494 			"/>
			<polyline fill="#3491CE" points="2.698,5.513 2.711,5.527 2.72,5.521 2.713,5.498 			"/>
			<polyline fill="#3491CE" points="2.742,5.521 2.749,5.513 2.728,5.5 			"/>
			<line fill="#3491CE" x1="2.742" y1="5.521" x2="2.749" y2="5.513"/>
			<polyline fill="#3491CE" points="2.766,5.511 2.774,5.515 2.771,5.549 2.76,5.519 			"/>
			<path fill="#3491CE" d="M2.385,4.983c0.008-0.009,0.002-0.047-0.012-0.053c-0.016,0.025,0.033,0.036,0,0.053 M2.462,5.112
				C2.46,5.094,2.455,5.054,2.473,5.027l0.011-0.011C2.48,5.019,2.476,5.022,2.473,5.027L2.451,5.006l0.01-0.011
				C2.446,5,2.441,4.981,2.429,4.975c-0.015,0.04,0.081,0.09-0.011,0.095C2.412,5.063,2.404,5.059,2.406,5.048H2.396v0.011h0.011
				C2.401,5.064,2.395,5.071,2.385,5.069C2.385,5.081,2.387,5.096,2.374,5.101h0.022c0.006,0.006,0.015,0.012,0.011,0.022
				c0.015,0.004,0.038-0.01,0.045,0.009C2.448,5.123,2.456,5.117,2.462,5.112 M2.579,5.62c0.023-0.015,0.037-0.023,0.07-0.03
				C2.646,5.599,2.655,5.604,2.66,5.609C2.684,5.584,2.698,5.605,2.717,5.62c0.009,0.008,0.019,0.014,0.031,0.012
				c0-0.004,0.002-0.008,0.004-0.012h0.012C2.78,5.661,2.842,5.683,2.847,5.727C2.885,5.745,2.938,5.73,2.968,5.769
				c0.078,0.084-0.093,0.115-0.066,0.203c-0.014,0.056-0.057,0.064-0.11,0.073C2.775,6.087,2.741,6.105,2.704,6.129
				c-0.055-0.001-0.063,0.039-0.11,0.054C2.577,6.237,2.531,6.254,2.517,6.311C2.525,6.327,2.555,6.317,2.55,6.342
				C2.511,6.344,2.463,6.319,2.462,6.279C2.477,6.16,2.565,6.07,2.572,5.95c-0.06-0.044-0.069-0.125-0.066-0.201
				c0.039-0.021,0.03-0.057,0.043-0.085L2.529,5.643c-0.022,0.031-0.037-0.017-0.067,0C2.46,5.634,2.456,5.628,2.451,5.62
				C2.438,5.605,2.42,5.593,2.407,5.578C2.364,5.563,2.315,5.563,2.276,5.536C2.226,5.533,2.255,5.476,2.21,5.461
				C2.204,5.467,2.195,5.473,2.198,5.483C2.127,5.465,2.156,5.388,2.122,5.345C2.13,5.315,2.131,5.287,2.124,5.26
				C2.12,5.242,2.112,5.224,2.1,5.207C2.03,5.132,1.952,5.262,1.869,5.218C1.9,5.216,1.925,5.201,1.945,5.176
				C1.939,5.165,1.92,5.159,1.924,5.143l0.011-0.011L1.924,5.123l0.011-0.011C1.928,5.106,1.92,5.101,1.924,5.09
				c0.042-0.031,0.098-0.077,0.165-0.073c0.051-0.019,0.12,0.04,0.165-0.021C2.23,4.993,2.205,4.96,2.231,4.941
				c0.016,0.004,0.033-0.023,0.044,0c0.014-0.005,0.01-0.02,0.01-0.031c0.036-0.02,0.075,0.041,0.088-0.011h0.022
				C2.393,4.91,2.402,4.914,2.407,4.922L2.418,4.91l0.011,0.012c0.029-0.029,0.048,0.029,0.087,0.009
				c0.03,0.019,0.048,0.061,0.055,0.097c-0.011,0-0.025-0.003-0.033,0.01l0.044,0.044c0.014-0.008,0.011-0.021,0.011-0.033
				c0.053,0.025,0.084,0.08,0.11,0.128C2.647,5.185,2.595,5.209,2.561,5.26c0.035,0.086-0.112,0.085-0.044,0.171L2.495,5.45
				C2.493,5.432,2.486,5.414,2.473,5.397C2.416,5.434,2.317,5.362,2.33,5.473c0.015,0.013,0.014,0.031,0.033,0.042
				c0.027,0.013,0.037-0.022,0.055-0.031V5.473h0.044c0.023,0.038-0.049,0.084,0.022,0.095c0,0.013,0.003,0.025-0.011,0.031
				C2.479,5.613,2.489,5.619,2.5,5.62c0.008,0.002,0.017,0,0.025,0h0.014c0.009,0,0.017,0.004,0.022,0.012
				C2.568,5.628,2.573,5.624,2.579,5.62"/>
			<path fill="#3491CE" d="M3.39,5.41c0.009,0,0.021-0.002,0.038-0.002c0.016,0,0.028,0.004,0.036,0.009
				c0.008,0.006,0.013,0.017,0.013,0.028c0,0.011-0.003,0.02-0.011,0.027C3.457,5.479,3.444,5.483,3.428,5.483
				c-0.003,0-0.006,0-0.008,0v0.038H3.39 M3.421,5.46c0.002,0,0.004,0.001,0.007,0.001c0.012,0,0.019-0.007,0.019-0.016
				c0-0.008-0.006-0.014-0.017-0.014c-0.005,0-0.007,0-0.009,0V5.46z"/>
			<path fill="#3491CE" d="M3.44,5.649L3.433,5.678H3.402l0.033-0.114h0.04L3.51,5.678H3.476L3.469,5.649 M3.465,5.628L3.46,5.607
				C3.458,5.603,3.456,5.593,3.454,5.586h0C3.452,5.593,3.45,5.603,3.449,5.607L3.444,5.628H3.465z"/>
			<polyline fill="#3491CE" points="3.416,5.725 3.416,5.766 3.452,5.766 3.452,5.725 3.483,5.725 3.483,5.837 3.452,5.837 
				3.452,5.791 3.416,5.791 3.416,5.837 3.385,5.837 3.385,5.725 			"/>
			<path fill="#3491CE" d="M3.456,5.938c0,0.036-0.022,0.059-0.057,0.059S3.344,5.97,3.344,5.939c0-0.033,0.021-0.059,0.056-0.059
				C3.437,5.881,3.456,5.908,3.456,5.938 M3.376,5.939c0,0.02,0.01,0.032,0.024,0.032c0.014,0,0.023-0.013,0.023-0.032
				c0-0.021-0.009-0.035-0.024-0.035C3.386,5.904,3.376,5.917,3.376,5.939"/>
			<path fill="#3491CE" d="M1.537,5.523c0,0.037-0.022,0.059-0.057,0.059S1.425,5.557,1.425,5.525c0-0.033,0.022-0.059,0.057-0.059
				C1.518,5.467,1.537,5.494,1.537,5.523 M1.457,5.525c0,0.021,0.01,0.033,0.024,0.033s0.023-0.013,0.023-0.033
				S1.495,5.49,1.481,5.49C1.467,5.49,1.457,5.505,1.457,5.525"/>
			<path fill="#3491CE" d="M1.425,5.648c0.008,0,0.021-0.002,0.038-0.002c0.016,0,0.028,0.003,0.036,0.009S1.511,5.67,1.511,5.683
				c0,0.011-0.004,0.021-0.011,0.027C1.491,5.718,1.478,5.722,1.463,5.722c-0.003,0-0.006,0-0.008,0V5.76h-0.03 M1.455,5.697
				c0.001,0.002,0.003,0.002,0.007,0.002c0.012,0,0.02-0.007,0.02-0.017c0-0.007-0.006-0.013-0.018-0.013c-0.004,0-0.007,0-0.009,0
				V5.697z"/>
			<path fill="#3491CE" d="M1.474,5.886c0.007,0.004,0.019,0.008,0.03,0.008c0.011,0,0.016-0.004,0.016-0.01
				c0-0.005-0.005-0.009-0.018-0.013C1.482,5.864,1.469,5.854,1.469,5.837c0-0.019,0.017-0.035,0.045-0.035
				c0.014,0,0.023,0.004,0.031,0.006L1.539,5.833C1.534,5.829,1.526,5.827,1.515,5.827c-0.01,0-0.015,0.002-0.015,0.008
				c0,0.005,0.006,0.009,0.021,0.013c0.02,0.007,0.03,0.019,0.03,0.034c0,0.019-0.016,0.035-0.049,0.035
				c-0.014,0-0.027-0.004-0.034-0.006"/>
		</g>
		<g>
			<path fill="#3491CE" d="M3.479,3.755c-1.1,0-1.744-0.495-1.744-1.453c0-0.941,0.645-1.453,1.744-1.453s1.757,0.511,1.757,1.453
				C5.236,3.26,4.578,3.755,3.479,3.755 M3.479,3.079c0.478,0,0.491-0.475,0.496-0.776C3.969,2.041,3.938,1.526,3.479,1.526
				c-0.446,0-0.482,0.515-0.482,0.777C2.996,2.604,3.046,3.079,3.479,3.079"/>
			<path fill="#3491CE" d="M5.547,0.898h2.078c0.491,0,1.153,0.21,1.153,0.966c0,0.732-0.527,1.035-1.158,1.035H6.755v0.809H5.547
				V0.898L5.547,0.898z M6.723,2.247H6.99c0.288,0,0.581-0.049,0.581-0.362c0-0.298-0.293-0.334-0.586-0.334H6.723V2.247z"/>
			<path fill="#3491CE" d="M9.612,0.898h1.663l1.122,2.809h-1.267l-0.207-0.608H9.906L9.712,3.707H8.508L9.612,0.898z M10.072,2.423
				h0.699l-0.343-0.922h-0.009L10.072,2.423z"/>
			<path fill="#3491CE" d="M15.101,1.667c-0.27-0.085-0.59-0.141-0.933-0.141c-0.189,0-0.519,0.004-0.519,0.185
				c0,0.366,1.654,0.021,1.654,1.103c0,0.752-0.833,0.941-1.532,0.941c-0.464,0-0.847-0.041-1.298-0.133V2.894
				c0.324,0.121,0.721,0.185,1.082,0.185c0.284,0,0.541-0.052,0.541-0.193c0-0.378-1.654-0.036-1.654-1.127
				c0-0.772,0.901-0.909,1.618-0.909c0.338,0,0.712,0.036,1.041,0.097V1.667z"/>
		</g>
	</g>
</g>
</svg>
