<?xml version="1.0" encoding="utf-8"?>
<!-- Generator: Adobe Illustrator 14.0.0, SVG Export Plug-In . SVG Version: 6.00 Build 43363)  -->
<!DOCTYPE svg PUBLIC "-//W3C//DTD SVG 1.1//EN" "http://www.w3.org/Graphics/SVG/1.1/DTD/svg11.dtd">
<svg version="1.1" id="Camada_1" xmlns="http://www.w3.org/2000/svg" xmlns:xlink="http://www.w3.org/1999/xlink" x="0px" y="0px"
	 width="276.334px" height="300px" viewBox="0 0 276.334 300" enable-background="new 0 0 276.334 300" xml:space="preserve">
<g>
	<g>
		<polygon fill="#437639" points="0,0 134.229,300.305 275.279,220.68 252.531,0 		"/>
	</g>
	<g>
		<g>
			<path fill="#FFFFFF" d="M240.27,171.368l0.336-0.133l-15.809-39.294l-0.197,0.478l-0.086-0.316l-28.012,7.143
				c-4.066-7.896-12.296-13.317-21.775-13.317c-13.5,0-24.48,10.977-24.48,24.473l0.016,0.636l-23.854,6.084l0.016,0.06
				l-0.126-0.305l-16.428,39.432h-1.875c0,9.552,7.964,17.294,17.783,17.294c9.82,0,17.781-7.742,17.781-17.294h-1.788l0.336-0.136
				l-13.897-34.544l22.654-5.773c2.273,9.948,10.619,17.602,20.918,18.844v47.182h-16.394v11.533h38.626v-11.533h-16.09v-47.211
				c11.99-1.575,21.279-11.848,21.279-24.268c0-2.301-0.322-4.527-0.92-6.635l24.156-6.169l-14.071,33.771h-1.874
				c0,9.552,7.963,17.299,17.781,17.299c9.822,0,17.783-7.747,17.783-17.299H240.27z M114.557,196.307l11.669-28.024l11.273,28.024
				H114.557z M174.727,170.896c-11.299,0-20.492-9.194-20.492-20.495c0-11.294,9.193-20.485,20.492-20.485
				c11.297,0,20.488,9.191,20.488,20.485C195.215,161.701,186.023,170.896,174.727,170.896 M213.054,171.368l11.677-28.02
				l11.27,28.02H213.054z"/>
			<polygon fill="#FFFFFF" points="177.895,137.134 171.558,137.134 171.558,146.64 162.043,146.64 162.043,152.986 
				171.558,152.986 171.558,162.495 177.895,162.495 177.895,152.986 187.412,152.986 187.412,146.64 177.895,146.64 			"/>
		</g>
		<g>
			<path fill="#FFFFFF" d="M125.338,31.896c1.914,0,3.451-1.629,3.451-6.164c0-4.536-1.537-6.164-3.451-6.164
				c-1.909,0-3.447,1.628-3.447,6.164C121.891,30.268,123.429,31.896,125.338,31.896 M125.338,17.254
				c3.428,0,6.567,2.549,6.567,8.479s-3.14,8.48-6.567,8.48c-3.424,0-6.564-2.551-6.564-8.48S121.914,17.254,125.338,17.254"/>
			<path fill="#FFFFFF" d="M139.596,32.021c1.703,0,2.152-1.425,2.152-4.232c0-2.432-0.568-4.016-2.195-4.016
				c-1.606,0-2.269,1.722-2.269,4.084C137.284,30.147,137.873,32.021,139.596,32.021 M137.284,16.261v7.298h0.048
				c0.422-0.944,1.393-1.938,3.139-1.938c2.621,0,4.205,2.318,4.205,6.285c0,3.376-1.252,6.257-4.277,6.257
				c-1.887,0-2.76-1.036-3.232-2.077h-0.071c0,0.825-0.048,1.535-0.094,1.89h-2.739c0.069-0.445,0.091-1.205,0.091-2.079V16.261
				H137.284z"/>
			<path fill="#FFFFFF" d="M147.221,16.643h3.021v2.881h-3.021V16.643z M150.196,21.811v12.661c0,3.236-0.638,4.747-3.167,4.747
				c-0.683,0-1.323-0.095-1.793-0.138l0.094-2.223c0.259,0.07,0.521,0.14,0.875,0.14c0.663,0,1.061-0.185,1.061-2.053V21.811
				H150.196z"/>
			<path fill="#FFFFFF" d="M159.828,26.843c0-2.152-0.707-3.232-2.028-3.232c-1.538,0-2.177,1.625-2.177,3.232H159.828z
				 M162.05,33.387c-0.617,0.261-1.891,0.776-3.639,0.776c-3.923,0-5.62-2.806-5.62-6.09c0-3.639,1.912-6.452,5.009-6.452
				c2.621,0,4.863,1.538,4.863,6.495v0.571h-7.04c0,2.077,0.828,3.329,3.098,3.329c1.793,0,2.643-0.542,3.188-0.945L162.05,33.387z"
				/>
			<path fill="#FFFFFF" d="M166.012,19.307l2.931-0.895v3.398h2.429v2.149h-2.429v6.308c0,1.298,0.473,1.677,1.319,1.677
				c0.52,0,0.898-0.142,1.109-0.262v2.08c-0.445,0.213-1.084,0.403-1.956,0.403c-2.176,0-3.403-0.994-3.403-3.541V23.96h-1.936
				v-2.149h1.936V19.307z"/>
			<path fill="#FFFFFF" d="M173.516,21.811h2.931v12.162h-2.931V21.811z M173.47,16.64h3.022v2.884h-3.022V16.64z"/>
			<polygon fill="#FFFFFF" points="178.283,21.811 181.308,21.811 183.791,31.189 183.836,31.189 186.34,21.811 189.175,21.811 
				185.443,33.976 181.993,33.976 			"/>
			<path fill="#FFFFFF" d="M195.756,32.086c1.893,0,2.314-2.177,2.314-4.202c0-2.032-0.422-4.182-2.314-4.182
				c-1.891,0-2.338,2.149-2.338,4.182C193.418,29.909,193.865,32.086,195.756,32.086 M195.756,21.624
				c2.482,0,5.339,1.301,5.339,6.26c0,5.099-2.856,6.282-5.339,6.282c-2.48,0-5.361-1.184-5.361-6.282
				C190.395,22.925,193.275,21.624,195.756,21.624"/>
			<polygon fill="#FFFFFF" points="213.743,20.961 211.543,23.017 210.152,20.986 214.17,17.488 216.674,17.488 216.674,33.976 
				213.743,33.976 			"/>
			<polygon fill="#FFFFFF" points="226.018,20.961 223.82,23.017 222.43,20.986 226.445,17.488 228.949,17.488 228.949,33.976 
				226.018,33.976 			"/>
			<path fill="#FFFFFF" d="M121.313,57.03h1.262c2.465,0,3.668-1.212,4.51-5.256c0.899-4.338,0.139-6.01-2.289-6.01h-1.102
				L121.313,57.03z M122.523,44.524h2.496c3.446,0,4.512,2.655,3.537,7.286c-0.901,4.283-2.27,6.447-5.963,6.447h-2.996
				L122.523,44.524z"/>
			<path fill="#FFFFFF" d="M135.455,52.218c0.112-0.483,0.213-1.01,0.213-1.434c0-0.976-0.314-1.726-1.438-1.726
				c-1.281,0-2.086,1.427-2.513,3.159H135.455z M131.473,53.341c-0.133,0.687-0.214,1.312-0.214,1.837
				c0,1.273,0.405,2.031,1.45,2.031c1.188,0,1.673-0.934,1.932-1.531h1.389c-0.331,1.067-1.305,2.757-3.48,2.757
				c-2.972,0-2.93-3.056-2.419-5.495c0.67-3.094,2.058-5.099,4.273-5.099c2.517,0,3.05,2.143,2.405,4.747l-0.191,0.753H131.473z"/>
			<path fill="#FFFFFF" d="M138.971,55.441c-0.048,1.046,0.468,1.821,1.588,1.821c0.973,0,1.442-0.529,1.592-1.25
				c0.213-1.038-0.154-1.716-1.446-2.584c-1.723-1.149-2.165-2.039-1.851-3.486c0.283-1.301,1.301-2.102,2.75-2.102
				c2.219,0,2.801,1.595,2.662,2.855h-1.341c0.026-0.833-0.243-1.698-1.378-1.698c-0.598,0-1.15,0.279-1.324,1.06
				c-0.219,0.944,0.152,1.465,1.256,2.202c1.996,1.318,2.383,2.393,2.063,3.898c-0.304,1.409-1.412,2.264-3.097,2.264
				c-2.191,0-2.946-1.463-2.829-2.98H138.971z"/>
			<path fill="#FFFFFF" d="M147.957,43.859h1.434l-0.463,2.122h-1.434L147.957,43.859z M147.064,48.005h1.429l-2.176,10.256h-1.436
				L147.064,48.005z"/>
			<path fill="#FFFFFF" d="M150.875,53.165c-0.479,2.333-0.24,3.791,1.15,3.791c1.532,0,2.309-1.722,2.768-3.858
				c0.588-2.694,0.361-4.015-1.152-4.015C152.318,49.083,151.383,50.728,150.875,53.165 M155.207,57.584
				c-0.573,2.703-1.42,4.604-4.121,4.604c-2.691,0-2.945-1.853-2.832-2.952h1.379c-0.025,0.753,0.195,1.754,1.57,1.754
				c1.548,0,2.136-1.324,2.539-3.174l0.24-1.088c-0.553,0.965-1.361,1.461-2.461,1.461c-2.291,0-2.66-2.37-2.064-5.136
				c0.689-3.235,2.064-5.212,4.078-5.212c1.325,0,1.883,0.768,2.006,1.461c0.107-0.453,0.277-1.091,0.35-1.3h1.391
				c-0.119,0.486-0.371,1.58-0.667,2.961L155.207,57.584z"/>
			<path fill="#FFFFFF" d="M164.271,55.449c-0.271,1.29-0.494,2.315-0.553,2.809h-1.386c-0.009-0.246,0.134-0.979,0.2-1.329
				c-0.59,1.001-1.359,1.506-2.539,1.506c-1.116,0-2.469-0.593-1.938-3.095l1.551-7.335h1.439l-1.489,6.986
				c-0.283,1.308-0.129,2.186,1.049,2.186c1.098,0,2.028-0.758,2.504-2.991l1.309-6.181h1.436L164.271,55.449z"/>
			<path fill="#FFFFFF" d="M171.611,53.168c-0.595,0.054-1.185,0.094-1.713,0.194c-1.135,0.216-2.027,0.665-2.293,1.885
				c-0.201,0.932,0.031,1.976,1.206,1.976c1.386,0,2.171-1.084,2.624-3.229L171.611,53.168z M172.407,55.912
				c-0.136,0.663-0.396,1.805-0.462,2.346h-1.383c0.033-0.272,0.102-0.773,0.198-1.16c-0.511,0.902-1.306,1.337-2.457,1.337
				c-1.942,0-2.466-1.666-2.116-3.287c0.418-1.908,1.785-2.563,3.502-2.871c0.682-0.123,1.407-0.169,2.148-0.228l0.228-1.062
				c0.214-1.031,0.091-1.995-1.353-1.995c-1.031,0-1.496,0.596-1.771,1.69h-1.372c0.344-1.643,1.241-2.842,3.297-2.842
				c1.946,0,3.041,1.023,2.574,3.213L172.407,55.912z"/>
			<polygon fill="#FFFFFF" points="174.324,58.258 177.392,43.862 178.822,43.862 175.756,58.258 			"/>
			<path fill="#FFFFFF" d="M180.336,53.026c-0.51,2.402-0.387,4.186,1.153,4.186c1.567,0,2.269-1.74,2.838-4.41
				c0.536-2.533,0.27-3.711-1.204-3.711C181.826,49.091,180.867,50.586,180.336,53.026 M187.624,43.862l-2.504,11.761
				c-0.219,0.996-0.423,1.989-0.523,2.635h-1.404c0.026-0.249,0.094-0.683,0.214-1.272c-0.533,0.842-1.223,1.449-2.499,1.449
				c-2.128,0-2.715-2.216-1.981-5.571c0.62-2.841,2.006-5.02,4.12-5.02c1.316,0,1.857,0.71,2.034,1.273l1.121-5.255H187.624z"/>
			<path fill="#FFFFFF" d="M192.494,53.168c-0.597,0.054-1.186,0.094-1.712,0.194c-1.136,0.216-2.029,0.665-2.296,1.885
				c-0.199,0.932,0.035,1.976,1.209,1.976c1.383,0,2.171-1.084,2.621-3.229L192.494,53.168z M193.289,55.912
				c-0.137,0.663-0.395,1.805-0.463,2.346h-1.382c0.032-0.272,0.101-0.773,0.2-1.16c-0.513,0.902-1.309,1.337-2.459,1.337
				c-1.941,0-2.467-1.666-2.117-3.287c0.42-1.908,1.785-2.563,3.504-2.871c0.68-0.123,1.406-0.169,2.148-0.228l0.227-1.062
				c0.217-1.031,0.091-1.995-1.354-1.995c-1.027,0-1.495,0.596-1.77,1.69h-1.372c0.344-1.643,1.24-2.842,3.296-2.842
				c1.946,0,3.043,1.023,2.574,3.213L193.289,55.912z"/>
			<path fill="#FFFFFF" d="M197.293,53.026c-0.512,2.402-0.39,4.186,1.154,4.186c1.566,0,2.268-1.74,2.836-4.41
				c0.535-2.533,0.268-3.711-1.205-3.711C198.783,49.091,197.821,50.586,197.293,53.026 M204.581,43.862l-2.504,11.761
				c-0.219,0.996-0.422,1.989-0.523,2.635h-1.404c0.027-0.249,0.094-0.683,0.214-1.272c-0.533,0.842-1.223,1.449-2.496,1.449
				c-2.131,0-2.72-2.216-1.986-5.571c0.619-2.841,2.008-5.02,4.119-5.02c1.318,0,1.86,0.71,2.034,1.273l1.122-5.255H204.581z"/>
			<path fill="#FFFFFF" d="M209.977,52.218c0.111-0.483,0.213-1.01,0.213-1.434c0-0.976-0.314-1.726-1.436-1.726
				c-1.285,0-2.088,1.427-2.516,3.159H209.977z M205.994,53.341c-0.135,0.687-0.214,1.312-0.214,1.837
				c0,1.273,0.407,2.031,1.449,2.031c1.188,0,1.676-0.934,1.933-1.531h1.389c-0.332,1.067-1.306,2.757-3.479,2.757
				c-2.975,0-2.932-3.056-2.422-5.495c0.67-3.094,2.059-5.099,4.274-5.099c2.517,0,3.051,2.143,2.405,4.747l-0.192,0.753H205.994z"
				/>
			<path fill="#FFFFFF" d="M213.492,55.441c-0.045,1.046,0.467,1.821,1.588,1.821c0.975,0,1.444-0.529,1.592-1.25
				c0.213-1.038-0.152-1.716-1.447-2.584c-1.722-1.149-2.168-2.039-1.85-3.486c0.285-1.301,1.301-2.102,2.749-2.102
				c2.221,0,2.8,1.595,2.665,2.855h-1.343c0.026-0.833-0.24-1.698-1.375-1.698c-0.601,0-1.151,0.279-1.327,1.06
				c-0.219,0.944,0.152,1.465,1.255,2.202c1.999,1.318,2.384,2.393,2.063,3.898c-0.302,1.409-1.412,2.264-3.097,2.264
				c-2.191,0-2.946-1.463-2.829-2.98H213.492z"/>
			<path fill="#FFFFFF" d="M229.176,52.218c0.112-0.483,0.214-1.01,0.214-1.434c0-0.976-0.315-1.726-1.437-1.726
				c-1.284,0-2.088,1.427-2.515,3.159H229.176z M225.193,53.341c-0.134,0.687-0.214,1.312-0.214,1.837
				c0,1.273,0.408,2.031,1.452,2.031c1.188,0,1.676-0.934,1.93-1.531h1.392c-0.334,1.067-1.306,2.757-3.479,2.757
				c-2.975,0-2.935-3.056-2.425-5.495c0.67-3.094,2.062-5.099,4.275-5.099c2.517,0,3.051,2.143,2.404,4.747l-0.189,0.753H225.193z"
				/>
			<path fill="#FFFFFF" d="M106.65,68.142h1.434l-0.465,2.122h-1.43L106.65,68.142z M105.756,72.287h1.432l-2.176,10.256h-1.437
				L105.756,72.287z"/>
			<path fill="#FFFFFF" d="M108.971,75.459c0.453-2.101,0.588-2.844,0.643-3.172h1.396c-0.031,0.288-0.141,0.886-0.24,1.353
				c0.505-0.849,1.273-1.516,2.563-1.516c1.434,0,2.486,0.943,1.981,3.336l-1.511,7.08h-1.426l1.477-6.937
				c0.288-1.346,0.021-2.202-1.129-2.202c-1.267,0-2.074,0.92-2.529,3.042l-1.289,6.097h-1.446L108.971,75.459z"/>
			<path fill="#FFFFFF" d="M122.271,76.5c0.112-0.483,0.214-1.01,0.214-1.434c0-0.973-0.316-1.726-1.434-1.726
				c-1.287,0-2.092,1.427-2.516,3.159H122.271z M118.287,77.623c-0.134,0.687-0.213,1.314-0.213,1.837
				c0,1.273,0.407,2.028,1.449,2.028c1.19,0,1.679-0.931,1.933-1.528h1.388c-0.33,1.067-1.303,2.757-3.479,2.757
				c-2.971,0-2.931-3.056-2.418-5.495c0.668-3.093,2.059-5.098,4.271-5.098c2.517,0,3.051,2.142,2.404,4.746l-0.187,0.753H118.287z"
				/>
			<path fill="#FFFFFF" d="M126.611,77.284c-0.556,2.501-0.486,4.192,1.055,4.192c1.593,0,2.364-2.017,2.826-4.161
				c0.459-2.104,0.574-3.923-1.086-3.923C128.248,73.393,127.24,74.46,126.611,77.284 M129.662,81.271
				c-0.523,0.848-1.262,1.446-2.53,1.446c-1.954,0-2.79-1.801-1.963-5.501c0.87-3.869,2.526-5.092,4.037-5.092
				c1.354,0,1.9,0.727,2.065,1.362c0.102-0.469,0.262-0.979,0.342-1.199h1.398c-0.229,0.852-0.387,1.609-0.696,3.035l-2.33,10.986
				h-1.399L129.662,81.271z"/>
			<path fill="#FFFFFF" d="M139.999,79.732c-0.271,1.289-0.494,2.315-0.55,2.811h-1.389c-0.006-0.249,0.137-0.981,0.199-1.331
				c-0.589,1-1.355,1.502-2.535,1.502c-1.117,0-2.473-0.59-1.938-3.091l1.548-7.339h1.438l-1.489,6.992
				c-0.282,1.305-0.128,2.183,1.05,2.183c1.1,0,2.028-0.757,2.504-2.991l1.311-6.184h1.434L139.999,79.732z"/>
			<path fill="#FFFFFF" d="M144.911,68.142h1.433l-0.459,2.122h-1.433L144.911,68.142z M144.017,72.287h1.434l-2.179,10.256h-1.434
				L144.017,72.287z"/>
			<path fill="#FFFFFF" d="M147.871,77.31c-0.513,2.402-0.387,4.185,1.153,4.185c1.567,0,2.27-1.739,2.839-4.41
				c0.536-2.532,0.267-3.713-1.207-3.713C149.361,73.371,148.403,74.868,147.871,77.31 M155.16,68.145l-2.504,11.761
				c-0.22,0.997-0.423,1.99-0.524,2.635h-1.403c0.026-0.248,0.093-0.683,0.213-1.272c-0.534,0.842-1.223,1.446-2.498,1.446
				c-2.129,0-2.719-2.213-1.98-5.568c0.615-2.84,2.004-5.021,4.117-5.021c1.316,0,1.859,0.712,2.035,1.277l1.118-5.257H155.16z"/>
			<path fill="#FFFFFF" d="M160.025,77.447c-0.595,0.057-1.185,0.097-1.711,0.197c-1.135,0.216-2.029,0.665-2.293,1.885
				c-0.203,0.933,0.029,1.976,1.209,1.976c1.383,0,2.171-1.086,2.622-3.229L160.025,77.447z M160.822,80.195
				c-0.137,0.662-0.394,1.804-0.463,2.345h-1.383c0.033-0.271,0.102-0.773,0.203-1.16c-0.516,0.902-1.311,1.337-2.461,1.337
				c-1.941,0-2.465-1.666-2.114-3.287c0.416-1.908,1.782-2.56,3.499-2.87c0.681-0.124,1.41-0.17,2.148-0.229l0.229-1.062
				c0.215-1.031,0.09-1.995-1.354-1.995c-1.029,0-1.496,0.596-1.768,1.69h-1.373c0.346-1.643,1.242-2.841,3.297-2.841
				c1.947,0,3.039,1.022,2.572,3.212L160.822,80.195z"/>
			<path fill="#FFFFFF" d="M164.828,77.31c-0.515,2.402-0.389,4.185,1.154,4.185c1.566,0,2.269-1.739,2.838-4.41
				c0.533-2.532,0.267-3.713-1.207-3.713C166.318,73.371,165.357,74.868,164.828,77.31 M172.117,68.145l-2.504,11.761
				c-0.22,0.997-0.422,1.99-0.523,2.635h-1.404c0.025-0.248,0.094-0.683,0.213-1.272c-0.536,0.842-1.223,1.446-2.496,1.446
				c-2.13,0-2.721-2.213-1.986-5.568c0.622-2.84,2.008-5.021,4.119-5.021c1.318,0,1.861,0.712,2.035,1.277l1.121-5.257H172.117z"/>
			<path fill="#FFFFFF" d="M177.509,76.5c0.112-0.483,0.214-1.01,0.214-1.434c0-0.973-0.314-1.726-1.434-1.726
				c-1.287,0-2.09,1.427-2.518,3.159H177.509z M173.525,77.623c-0.133,0.687-0.213,1.314-0.213,1.837
				c0,1.273,0.408,2.028,1.449,2.028c1.191,0,1.68-0.931,1.934-1.528h1.389c-0.332,1.067-1.304,2.757-3.477,2.757
				c-2.975,0-2.935-3.056-2.424-5.495c0.67-3.093,2.061-5.098,4.273-5.098c2.518,0,3.052,2.142,2.405,4.746l-0.192,0.753H173.525z"
				/>
			<path fill="#FFFFFF" d="M181.025,79.725c-0.047,1.046,0.467,1.821,1.588,1.821c0.975,0,1.443-0.53,1.591-1.251
				c0.214-1.038-0.152-1.716-1.444-2.584c-1.725-1.149-2.165-2.039-1.853-3.486c0.286-1.301,1.304-2.101,2.75-2.101
				c2.221,0,2.8,1.594,2.664,2.854h-1.343c0.027-0.83-0.24-1.698-1.375-1.698c-0.598,0-1.15,0.279-1.326,1.06
				c-0.22,0.947,0.154,1.466,1.254,2.205c2,1.315,2.385,2.393,2.064,3.896c-0.303,1.408-1.412,2.263-3.097,2.263
				c-2.192,0-2.948-1.463-2.831-2.979H181.025z"/>
			<path fill="#FFFFFF" d="M196.711,76.5c0.112-0.483,0.211-1.01,0.211-1.434c0-0.973-0.313-1.726-1.434-1.726
				c-1.283,0-2.09,1.427-2.515,3.159H196.711z M192.729,77.623c-0.137,0.687-0.214,1.314-0.214,1.837
				c0,1.273,0.406,2.028,1.446,2.028c1.191,0,1.68-0.931,1.934-1.528h1.391c-0.33,1.067-1.305,2.757-3.479,2.757
				c-2.974,0-2.934-3.056-2.421-5.495c0.67-3.093,2.058-5.098,4.271-5.098c2.518,0,3.055,2.142,2.405,4.746l-0.188,0.753H192.729z"
				/>
			<path fill="#FFFFFF" d="M200.305,75.459c0.453-2.101,0.588-2.844,0.644-3.172h1.396c-0.032,0.288-0.139,0.886-0.237,1.353
				c0.505-0.849,1.271-1.516,2.563-1.516c1.431,0,2.483,0.943,1.979,3.336l-1.511,7.08h-1.426l1.477-6.937
				c0.291-1.346,0.021-2.202-1.13-2.202c-1.265,0-2.071,0.92-2.528,3.042l-1.286,6.097h-1.446L200.305,75.459z"/>
			<path fill="#FFFFFF" d="M212.131,72.287h1.465l0.591-2.723h1.414l-0.593,2.723h1.721l-0.254,1.206h-1.728l-1.417,6.678
				c-0.161,0.755-0.169,1.34,0.693,1.34c0.371,0,0.67-0.059,0.873-0.099l-0.235,1.107c-0.336,0.126-0.816,0.162-1.212,0.162
				c-1.315,0-1.965-0.595-1.612-2.249l1.497-6.939h-1.465L212.131,72.287z"/>
			<path fill="#FFFFFF" d="M218.135,77.295c-0.559,2.598-0.277,4.187,1.215,4.187c1.434,0,2.245-1.752,2.738-3.996
				c0.428-1.992,0.492-4.106-1.255-4.106C219.656,73.379,218.646,74.88,218.135,77.295 M223.529,77.547
				c-0.531,2.687-1.725,5.167-4.297,5.167c-2.605,0-3.223-2.359-2.533-5.555c0.73-3.4,2.348-5.035,4.23-5.035
				C223.703,72.124,224.099,74.685,223.529,77.547"/>
			<path fill="#FFFFFF" d="M225.885,75.756c0.349-1.639,0.565-2.703,0.701-3.472h1.354c-0.045,0.35-0.111,0.836-0.322,1.813
				c0.719-1.334,1.818-1.947,3.061-1.959l-0.357,1.593c-1.777,0.003-2.84,1.216-3.259,3.183l-1.196,5.627h-1.434L225.885,75.756z"/>
			<path fill="#FFFFFF" d="M231.447,75.459c0.454-2.101,0.588-2.844,0.642-3.172h1.396c-0.032,0.288-0.141,0.886-0.24,1.353
				c0.508-0.849,1.273-1.516,2.565-1.516c1.431,0,2.485,0.943,1.979,3.336l-1.511,7.08h-1.426l1.477-6.937
				c0.287-1.346,0.023-2.202-1.129-2.202c-1.267,0-2.075,0.92-2.529,3.042l-1.287,6.097h-1.446L231.447,75.459z"/>
			<path fill="#FFFFFF" d="M240.857,77.295c-0.557,2.598-0.277,4.187,1.215,4.187c1.434,0,2.246-1.752,2.736-3.996
				c0.43-1.992,0.494-4.106-1.254-4.106C242.379,73.379,241.371,74.88,240.857,77.295 M246.253,77.547
				c-0.534,2.687-1.724,5.167-4.298,5.167c-2.608,0-3.223-2.359-2.533-5.555c0.729-3.4,2.35-5.035,4.231-5.035
				C246.427,72.124,246.822,74.685,246.253,77.547"/>
			<path fill="#FFFFFF" d="M148.475,101.732c-0.596,0.054-1.186,0.094-1.711,0.194c-1.137,0.217-2.029,0.665-2.296,1.882
				c-0.2,0.936,0.032,1.977,1.212,1.977c1.383,0,2.171-1.081,2.621-3.231L148.475,101.732z M149.27,104.477
				c-0.135,0.663-0.391,1.805-0.461,2.347h-1.383c0.032-0.272,0.102-0.774,0.2-1.161c-0.513,0.902-1.309,1.338-2.458,1.338
				c-1.941,0-2.467-1.667-2.115-3.29c0.416-1.906,1.783-2.56,3.5-2.868c0.681-0.124,1.41-0.17,2.148-0.229l0.227-1.062
				c0.217-1.031,0.092-1.994-1.353-1.994c-1.028,0-1.495,0.596-1.768,1.689h-1.372c0.344-1.643,1.241-2.841,3.298-2.841
				c1.945,0,3.037,1.022,2.57,3.212L149.27,104.477z"/>
			<polygon fill="#FFFFFF" points="154.93,106.823 157.997,92.427 159.431,92.427 156.363,106.823 			"/>
			<path fill="#FFFFFF" d="M164.319,101.732c-0.597,0.054-1.187,0.094-1.715,0.194c-1.135,0.217-2.026,0.665-2.293,1.882
				c-0.2,0.936,0.032,1.977,1.206,1.977c1.386,0,2.172-1.081,2.625-3.231L164.319,101.732z M165.114,104.477
				c-0.136,0.663-0.396,1.805-0.462,2.347h-1.383c0.032-0.272,0.102-0.774,0.203-1.161c-0.516,0.902-1.312,1.338-2.461,1.338
				c-1.941,0-2.467-1.667-2.117-3.29c0.419-1.906,1.786-2.56,3.502-2.868c0.681-0.124,1.407-0.17,2.148-0.229l0.228-1.062
				c0.217-1.031,0.091-1.994-1.354-1.994c-1.03,0-1.495,0.596-1.767,1.689h-1.376c0.348-1.643,1.241-2.841,3.297-2.841
				c1.95,0,3.042,1.022,2.574,3.212L165.114,104.477z"/>
			<path fill="#FFFFFF" d="M172.266,104.007c-0.047,1.048,0.467,1.821,1.588,1.821c0.973,0,1.442-0.529,1.59-1.252
				c0.216-1.037-0.152-1.715-1.445-2.583c-1.722-1.148-2.167-2.039-1.85-3.485c0.283-1.302,1.3-2.102,2.75-2.102
				c2.219,0,2.8,1.595,2.661,2.854h-1.34c0.026-0.833-0.243-1.698-1.378-1.698c-0.598,0-1.15,0.28-1.324,1.06
				c-0.219,0.945,0.152,1.466,1.256,2.203c1.996,1.318,2.383,2.392,2.063,3.898c-0.304,1.408-1.412,2.263-3.096,2.263
				c-2.192,0-2.947-1.462-2.83-2.979H172.266z"/>
			<path fill="#FFFFFF" d="M183.844,101.732c-0.596,0.054-1.188,0.094-1.711,0.194c-1.138,0.217-2.029,0.665-2.293,1.882
				c-0.203,0.936,0.029,1.977,1.206,1.977c1.383,0,2.169-1.081,2.621-3.231L183.844,101.732z M184.639,104.477
				c-0.135,0.663-0.395,1.805-0.461,2.347h-1.383c0.032-0.272,0.099-0.774,0.197-1.161c-0.51,0.902-1.306,1.338-2.456,1.338
				c-1.94,0-2.466-1.667-2.117-3.29c0.419-1.906,1.786-2.56,3.503-2.868c0.681-0.124,1.406-0.17,2.148-0.229l0.227-1.062
				c0.218-1.031,0.092-1.994-1.353-1.994c-1.028,0-1.495,0.596-1.77,1.689h-1.373c0.345-1.643,1.241-2.841,3.297-2.841
				c1.946,0,3.04,1.022,2.574,3.212L184.639,104.477z"/>
			<polygon fill="#FFFFFF" points="186.557,106.823 189.623,92.427 191.055,92.427 187.987,106.823 			"/>
			<path fill="#FFFFFF" d="M197.181,104.015c-0.27,1.289-0.493,2.315-0.553,2.809h-1.386c-0.004-0.243,0.135-0.979,0.201-1.329
				c-0.591,1-1.355,1.506-2.536,1.506c-1.118,0-2.472-0.594-1.938-3.095l1.549-7.338h1.438l-1.489,6.992
				c-0.283,1.304-0.129,2.185,1.049,2.185c1.1,0,2.029-0.76,2.504-2.994l1.309-6.183h1.438L197.181,104.015z"/>
			<path fill="#FFFFFF" d="M201.148,101.592c-0.516,2.402-0.391,4.185,1.152,4.185c1.568,0,2.27-1.742,2.838-4.41
				c0.537-2.53,0.268-3.713-1.206-3.713C202.638,97.653,201.677,99.15,201.148,101.592 M208.436,92.427l-2.504,11.764
				c-0.219,0.994-0.422,1.987-0.523,2.633h-1.403c0.026-0.249,0.093-0.683,0.212-1.273c-0.533,0.842-1.222,1.446-2.498,1.446
				c-2.127,0-2.717-2.213-1.982-5.568c0.621-2.841,2.007-5.021,4.121-5.021c1.316,0,1.858,0.712,2.031,1.277l1.121-5.257H208.436z"
				/>
		</g>
	</g>
</g>
</svg>
