<?xml version="1.0" ?><svg id="Layer_1" style="enable-background:new 0 0 512 512;" version="1.1" viewBox="0 0 512 512" xml:space="preserve" xmlns="http://www.w3.org/2000/svg" xmlns:xlink="http://www.w3.org/1999/xlink"><style type="text/css">
	.st0{fill:#FFFFFF;}
	.st1{fill:#4165B0;}
	.st2{fill:#C01F3F;}
</style><g><rect class="st0" height="298.7" width="512" y="106.7"/><polygon class="st1" points="144,144 132.5,179.5 150.2,185.3  "/><polygon class="st1" points="144,144 155.5,179.5 137.8,185.3  "/><polygon class="st1" points="179.5,169.8 142.2,169.8 142.2,188.5  "/><polygon class="st1" points="179.5,169.8 149.3,191.7 138.3,176.6  "/><polygon class="st1" points="108.5,169.8 138.7,191.7 149.7,176.6  "/><polygon class="st1" points="108.5,169.8 145.8,169.8 145.8,188.5  "/><polygon class="st1" points="165.9,211.5 154.4,176 136.7,181.8  "/><polygon class="st1" points="165.9,211.5 135.7,189.6 146.7,174.5  "/><polygon class="st1" points="122.1,211.5 152.3,189.6 141.3,174.5  "/><polygon class="st1" points="122.1,211.5 133.6,176 151.3,181.8  "/><rect class="st1" height="149.4" width="256" y="256"/><rect class="st2" height="149.4" width="256" x="256" y="106.7"/><polygon class="st2" points="368,293.3 356.5,328.8 374.2,334.6  "/><polygon class="st2" points="368,293.3 379.5,328.8 361.8,334.6  "/><polygon class="st2" points="403.5,319.1 366.2,319.1 366.2,337.8  "/><polygon class="st2" points="403.5,319.1 373.3,341.1 362.3,326  "/><polygon class="st2" points="332.5,319.1 362.7,341.1 373.7,326  "/><polygon class="st2" points="332.5,319.1 369.8,319.1 369.8,337.8  "/><polygon class="st2" points="389.9,360.9 378.4,325.4 360.7,331.1  "/><polygon class="st2" points="389.9,360.9 359.7,338.9 370.7,323.8  "/><polygon class="st2" points="346.1,360.9 376.3,338.9 365.3,323.8  "/><polygon class="st2" points="346.1,360.9 357.6,325.4 375.3,331.1  "/></g></svg>