<?xml version="1.0" ?><svg id="Layer_1" style="enable-background:new 0 0 512 512;" version="1.1" viewBox="0 0 512 512" xml:space="preserve" xmlns="http://www.w3.org/2000/svg" xmlns:xlink="http://www.w3.org/1999/xlink"><style type="text/css">
	.st0{fill:#FFFFFF;}
	.st1{fill:#303E99;}
	.st2{fill:#BD1F34;}
	.st3{fill:#010101;}
	.st4{fill:#2E6A34;}
	.st5{fill:#4662AD;}
	.st6{fill:#F6CD2A;}
	.st7{fill:#F8E625;}
</style><g><rect class="st0" height="99.6" width="512" y="206.2"/><rect class="st1" height="99.6" width="512" y="305.8"/><rect class="st2" height="99.6" width="512" y="106.7"/><path class="st0" d="M293.9,256c0,21-17,37.9-37.9,37.9c-20.9,0-37.9-17-37.9-37.9s17-37.9,37.9-37.9   C276.9,218.1,293.9,235,293.9,256L293.9,256z"/><g><path class="st3" d="M256,294.6c-21.3,0-38.6-17.3-38.6-38.6s17.3-38.6,38.6-38.6c21.3,0,38.6,17.3,38.6,38.6    S277.3,294.6,256,294.6L256,294.6z M256,218.7c-20.6,0-37.3,16.7-37.3,37.3s16.7,37.3,37.3,37.3c20.6,0,37.3-16.7,37.3-37.3    S276.6,218.7,256,218.7L256,218.7z"/></g><path class="st2" d="M256,223.5c-17.9,0-32.5,14.6-32.5,32.5c0,18,14.6,32.5,32.5,32.5c18,0,32.5-14.6,32.5-32.5   C288.5,238,274,223.5,256,223.5L256,223.5z M256,280.4c-13.5,0-24.4-10.9-24.4-24.4c0-13.5,10.9-24.4,24.4-24.4   c13.5,0,24.4,10.9,24.4,24.4C280.4,269.5,269.5,280.4,256,280.4L256,280.4z"/><g><path class="st3" d="M256,288.6c-18,0-32.6-14.6-32.6-32.6c0-18,14.6-32.6,32.6-32.6c18,0,32.6,14.6,32.6,32.6    C288.6,274,274,288.6,256,288.6L256,288.6z M256,223.5c-17.9,0-32.5,14.6-32.5,32.5c0,17.9,14.6,32.5,32.5,32.5    c17.9,0,32.5-14.6,32.5-32.5C288.5,238.1,273.9,223.5,256,223.5L256,223.5z M256,280.4c-13.5,0-24.4-11-24.4-24.4    c0-13.5,11-24.4,24.4-24.4s24.4,11,24.4,24.4C280.4,269.5,269.5,280.4,256,280.4L256,280.4z M256,231.6    c-13.4,0-24.4,10.9-24.4,24.4c0,13.4,10.9,24.4,24.4,24.4c13.4,0,24.4-10.9,24.4-24.4C280.4,242.6,269.4,231.6,256,231.6    L256,231.6z"/></g><path class="st4" d="M261.1,238.3c0,0,14.6,6.3,12.1,19.3c-2.5,13-10.7,12.9-13.9,14.4c-3.2,1.4-5.4,3.5-6.7,3.2   c-1.3-0.3-2.9-1.3-2.9-1.3s-0.1,2.1,2.4,2.5c2.6,0.4,5.9-3.4,7.6-3.8c1.6-0.4,11.6-1.5,14-14.7   C276.5,243.8,261.2,238.7,261.1,238.3L261.1,238.3z"/><g><path class="st3" d="M252.5,276.5L252.5,276.5l-0.4,0c-2.6-0.4-2.5-2.5-2.5-2.6l0,0c0.1,0,1.7,0.9,3,1.2c1,0,2-0.6,3.2-1.3    c1-0.6,2.1-1.3,3.4-1.9c0.5-0.2,1.2-0.4,2-0.7c3.9-1.1,9.8-2.9,11.9-13.7c2-10.1-6.4-16.1-10.1-18.3l-1.2-0.6    c-0.6-0.3-0.8-0.4-0.8-0.5c0-0.1,0.8,0.3,2,1l0,0.1c8.5,4.4,12.2,10.8,10.7,18.6c-1.5,8.2-6,13.1-13.5,14.7    c-1.1,0.3-1.9,0.9-2.8,1.5C255.8,275.2,254.1,276.5,252.5,276.5L252.5,276.5z M249.7,273.9c0,0.1,0,2.1,2.5,2.5l0.4,0    c1.5,0,3.3-1.3,4.8-2.4c0.9-0.7,1.8-1.3,2.4-1.4c7.9-1.7,12.5-6.6,13.9-14.7c1.5-7.8-2.1-14.2-10.6-18.6    c3.7,2.1,12.2,8.2,10.2,18.3c-2.1,10.8-8,12.6-11.9,13.7c-0.8,0.2-1.4,0.4-2,0.7c-1.3,0.6-2.4,1.3-3.4,1.9c-1.3,0.8-2.3,1.4-3,1.4    C251.4,274.9,249.7,274,249.7,273.9L249.7,273.9z"/></g><path class="st4" d="M268.5,241c0.3,1.1,0.3,2,0,2c-0.3,0-0.7-0.8-1-1.9c-0.3-1.1-0.3-2,0-2C267.8,239.1,268.2,240,268.5,241   L268.5,241z"/><g><path class="st3" d="M268.5,243.1c-0.3,0-0.8-1-1-1.9c-0.2-0.9-0.3-1.7-0.1-2c0,0,0.1,0,0.1,0c-0.2,0.3-0.2,1.1,0,1.9    C267.9,242.3,268.3,243,268.5,243.1L268.5,243.1l0.1-0.1c0.2-0.2,0.1-1-0.1-1.9c-0.2-0.9-0.5-1.5-0.8-1.8c0.3,0.3,0.7,1,0.8,1.8    c0.2,0.9,0.3,1.7,0.1,2L268.5,243.1L268.5,243.1z"/></g><path class="st4" d="M268,241.2c0.5,1,0.7,1.9,0.5,2c-0.2,0.1-0.8-0.7-1.3-1.7c-0.5-1-0.7-1.9-0.5-2   C266.9,239.4,267.5,240.2,268,241.2L268,241.2z"/><g><path class="st3" d="M268.4,243.2c-0.3,0-0.9-0.9-1.3-1.7c-0.4-0.9-0.7-1.7-0.6-2c0,0,0.1,0,0.1,0c-0.1,0.3,0,1,0.5,1.9    C267.7,242.5,268.2,243.2,268.4,243.2L268.4,243.2L268.4,243.2c0.2-0.4-0.1-1.2-0.5-2c-0.4-0.8-0.8-1.3-1-1.6    c0.4,0.2,0.8,0.9,1.1,1.5c0.4,0.9,0.7,1.7,0.6,2L268.4,243.2L268.4,243.2z"/></g><path class="st4" d="M266.5,242.1c1,0.3,1.9,0.8,1.8,1c0,0.3-0.9,0.2-1.9-0.1c-1-0.3-1.9-0.8-1.8-1   C264.6,241.8,265.5,241.8,266.5,242.1L266.5,242.1z"/><g><path class="st3" d="M267.9,243.4c-0.4,0-0.9-0.1-1.4-0.2c-0.9-0.3-1.9-0.7-1.9-1.1c0.2,0,0.3-0.1,0.5-0.1    c-0.4,0.4,0.4,0.8,1.4,1.1C267,243.3,267.5,243.3,267.9,243.4L267.9,243.4l0.5-0.2c0-0.2-0.7-0.7-1.8-1c-0.4-0.1-0.8-0.2-1.1-0.2    c0.4,0,0.8,0.1,1.1,0.2c0.9,0.3,1.9,0.8,1.9,1.1L267.9,243.4L267.9,243.4z"/></g><path class="st4" d="M266.8,241.6c0.9,0.6,1.6,1.3,1.5,1.6c-0.1,0.2-1-0.1-1.9-0.7c-0.9-0.6-1.6-1.3-1.5-1.6   C265,240.7,265.8,241,266.8,241.6L266.8,241.6z"/><g><path class="st3" d="M268.1,243.3c-0.3,0-1-0.3-1.8-0.8c-0.9-0.6-1.7-1.3-1.5-1.6c0.1,0,0.1,0,0.2,0h0c-0.2,0.2,0.4,0.9,1.4,1.6    C267.1,242.9,267.8,243.2,268.1,243.3L268.1,243.3l0.1-0.1c0.1-0.2-0.5-0.9-1.5-1.5c-0.7-0.4-1.3-0.7-1.7-0.8    c0.5,0,1.1,0.3,1.7,0.7c0.8,0.6,1.7,1.3,1.5,1.6L268.1,243.3L268.1,243.3z"/></g><path class="st4" d="M267.4,241.4c0.8,0.8,1.3,1.7,1.1,1.8c-0.2,0.2-1-0.3-1.8-1.2c-0.8-0.8-1.3-1.7-1.1-1.8   C265.8,240,266.6,240.5,267.4,241.4L267.4,241.4z"/><g><path class="st3" d="M268.4,243.3c-0.3,0-1-0.5-1.7-1.2c-0.7-0.8-1.4-1.7-1.1-1.9c0.4-0.1,1.1,0.5,1.8,1.2    c0.7,0.7,1.4,1.7,1.1,1.9L268.4,243.3L268.4,243.3z M265.7,240.2c-0.2,0.2,0.2,0.9,1.1,1.8c0.8,0.8,1.4,1.2,1.6,1.2v0l0.1-0.1    c0.1-0.1-0.3-0.9-1.1-1.8C266.6,240.6,265.9,240.2,265.7,240.2L265.7,240.2z"/></g><path class="st4" d="M268.4,243.2c0,0-0.6,0.3-0.7,0.4c-0.1,0-0.3-0.2-0.7,0c-0.4,0.2-0.6,0.5-0.7,0.7c-0.1,0.2,0.1,0.3,0.6,0.1   c0.4-0.2,0.6-0.6,0.8-0.7C267.9,243.6,268.2,243.4,268.4,243.2c0.1-0.1,0.4-0.5,0.6-0.8c0.2-0.2,0.7-0.6,1-1.1   c0.2-0.4,0.1-0.7-0.1-0.6c-0.3,0.1-0.6,0.5-0.7,0.8c-0.1,0.3,0,0.6-0.2,0.9C268.7,242.6,268.4,243.2,268.4,243.2L268.4,243.2z"/><g><path class="st3" d="M266.5,244.6l-0.2-0.1c0.1-0.4,0.4-0.8,0.7-0.9l0.6,0c0.2,0,0.7-0.3,0.7-0.4l0.5-0.7l0,0l0.2-0.9    c0.2-0.3,0.5-0.7,0.7-0.8l0.2,0.6c-0.1,0.3-0.4,0.6-0.7,0.8l-0.5,0.6c-0.1,0.2-0.3,0.4-0.3,0.5c-0.2,0.1-0.6,0.3-0.8,0.4    c-0.3,0.4-0.5,0.6-0.8,0.7L266.5,244.6L266.5,244.6z"/></g><path class="st4" d="M272.9,244.7c0,1.7-0.3,2.9-0.6,2.8c-0.4-0.1-0.7-1.5-0.7-3.2c0-1.7,0.3-2.9,0.6-2.8   C272.6,241.6,272.9,243,272.9,244.7L272.9,244.7z"/><g><path class="st3" d="M272.3,247.6L272.3,247.6c-0.5-0.1-0.8-1.7-0.8-3.2c0-1.4,0.2-2.5,0.5-2.8c0,0,0.1,0,0.2,0    c-0.4,0.4-0.6,1.5-0.5,2.8C271.6,246.2,272,247.4,272.3,247.6L272.3,247.6l0.1-0.1c0.3-0.3,0.5-1.4,0.4-2.7c0-1.2-0.2-2.2-0.4-2.7    c0.3,0.6,0.5,1.7,0.5,2.7c0,1.4-0.2,2.5-0.5,2.8L272.3,247.6L272.3,247.6z"/></g><path class="st4" d="M272.2,244.7c0.4,1.7,0.4,3.1,0,3.1c-0.4,0-0.9-1.3-1.3-3c-0.4-1.7-0.4-3.1,0-3.1   C271.2,241.6,271.8,243,272.2,244.7L272.2,244.7z"/><g><path class="st3" d="M272.2,247.8c-0.4,0-1-1.6-1.3-3.1c-0.3-1.5-0.4-2.7-0.1-3.1c0,0,0.1,0,0.1,0c-0.3,0.4-0.3,1.6,0,3    C271.3,246.5,271.9,247.7,272.2,247.8L272.2,247.8l0.1-0.1c0.2-0.3,0.2-1.6-0.1-3c-0.3-1.3-0.7-2.3-1-2.8c0.4,0.5,0.8,1.6,1.1,2.8    c0.3,1.5,0.4,2.7,0.1,3.1L272.2,247.8L272.2,247.8z"/></g><path class="st4" d="M269.8,245.4c1.3,0.9,2.3,1.9,2.2,2.3c-0.1,0.4-1.3,0-2.6-0.9c-1.3-0.9-2.3-1.9-2.2-2.3   C267.3,244.1,268.5,244.5,269.8,245.4L269.8,245.4z"/><g><path class="st3" d="M271.7,247.9c-0.5,0-1.4-0.4-2.4-1.1c-1.4-0.9-2.3-1.9-2.2-2.4c0.1,0,0.2,0,0.3,0c-0.2,0.5,0.6,1.4,2,2.3    C270.4,247.4,271.3,247.8,271.7,247.9L271.7,247.9l0.2-0.2c0.1-0.3-0.7-1.3-2.2-2.3c-0.7-0.4-1.3-0.8-1.8-1    c0.6,0.1,1.2,0.5,1.8,0.9c1.4,0.9,2.3,2,2.2,2.4L271.7,247.9L271.7,247.9z"/></g><path class="st4" d="M270.3,244.7c1.1,1.3,1.8,2.6,1.6,2.9c-0.2,0.3-1.3-0.6-2.4-1.9c-1.1-1.3-1.8-2.6-1.6-2.9   C268.1,242.5,269.2,243.4,270.3,244.7L270.3,244.7z"/><g><path class="st3" d="M271.7,247.7c-0.4,0-1.4-0.8-2.3-2c-1-1.2-1.8-2.6-1.6-3c0.5-0.1,1.5,0.7,2.5,1.9c1,1.2,1.8,2.6,1.6,3    L271.7,247.7L271.7,247.7z M268,242.8c-0.3,0.3,0.3,1.5,1.5,2.9c0.9,1.1,1.9,1.9,2.3,1.9v0l0.1-0.1c0.2-0.2-0.4-1.4-1.6-2.9    C269.3,243.6,268.4,242.8,268,242.8L268,242.8z"/></g><path class="st4" d="M271.2,244.6c0.8,1.6,1.3,3,1,3.1c-0.3,0.2-1.2-0.9-2.1-2.5c-0.8-1.6-1.3-3-1-3.1   C269.5,242,270.4,243.1,271.2,244.6L271.2,244.6z"/><g><path class="st3" d="M272.1,247.8c-0.4,0-1.2-1.1-2-2.5c-0.8-1.4-1.3-3-0.9-3.2c0.4-0.1,1.3,1,2.1,2.5    C272,246,272.6,247.6,272.1,247.8L272.1,247.8L272.1,247.8z M269.3,242.2c-0.3,0.2,0,1.4,0.9,3.1c0.8,1.6,1.7,2.5,2,2.5v0l0.1-0.1    c0.2-0.1-0.1-1.4-1-3.1C270.4,243.2,269.6,242.2,269.3,242.2L269.3,242.2z"/></g><path class="st4" d="M272.1,247.7c0,0-0.9,0.2-1.1,0.2c-0.2,0-0.4-0.4-0.9-0.3c-0.6,0.1-1,0.5-1.2,0.8c-0.2,0.3,0,0.5,0.7,0.3   c0.7-0.1,1-0.6,1.3-0.7c0.3-0.1,0.9-0.2,1.2-0.2c0.2-0.2,0.7-0.7,1-1c0.3-0.3,1.2-0.6,1.7-1.1c0.4-0.5,0.4-1,0-0.9   c-0.4,0.1-1,0.5-1.3,0.8c-0.3,0.3-0.2,0.9-0.6,1.2C272.7,247.1,272.1,247.7,272.1,247.7L272.1,247.7z"/><g><path class="st3" d="M269.2,248.8l-0.5-0.2c0-0.1,0.1-0.2,0.1-0.2L269.2,248.8l0.3-0.1c0.4-0.1,0.7-0.3,0.9-0.4    c0.8-0.3,1.3-0.5,1.6-0.5c0.1-0.2,0.4-0.5,0.7-0.7c0.4-0.4,0.6-0.5,0.9-0.6c0.4-0.2,0.9-0.5,1.1-0.8c0.2-0.2,0.2-0.4,0.3-0.5    c0,0.2-0.1,0.4-0.2,0.6c-0.3,0.4-0.8,0.6-1.2,0.8c-0.2,0.1-0.4,0.2-0.5,0.3c-0.6,0.5-0.9,0.8-1,1c-0.3,0-0.9,0.1-1.2,0.2    c-0.6,0.4-0.9,0.6-1.3,0.7L269.2,248.8L269.2,248.8z M268.9,248.4c0.3-0.4,0.6-0.6,1.1-0.7l0.8,0.2c0.4,0.1,1.2-0.1,1.3-0.1    l0.9-0.9c0.2-0.1,0.2-0.4,0.3-0.6c0.1-0.2,0.1-0.4,0.3-0.6c0.3-0.3,0.9-0.7,1.3-0.8c0.1,0.1,0.1,0.1,0.2,0.2    c-0.6,0-1.1,0.4-1.4,0.7c-0.1,0.2-0.2,0.4-0.3,0.6c-0.1,0.2-0.1,0.5-0.3,0.6l-0.9,0.9c0,0-1,0.2-1.1,0.2l-0.8-0.3    C269.5,247.8,269.1,248.1,268.9,248.4L268.9,248.4z"/></g><path class="st4" d="M275.3,250.8c-0.3,1.6-0.8,2.8-1.1,2.7c-0.3-0.2-0.4-1.6-0.1-3.3s0.8-2.8,1.1-2.7   C275.5,247.7,275.6,249.1,275.3,250.8L275.3,250.8z"/><g><path class="st3" d="M274.2,253.5L274.2,253.5c-0.5-0.2-0.5-1.8-0.2-3.3c0.2-1.4,0.7-2.7,1.1-2.7c0.5,0.2,0.5,1.8,0.2,3.3    C275.1,252.3,274.6,253.5,274.2,253.5L274.2,253.5z M275.2,247.5c-0.3,0-0.8,1-1.1,2.7c-0.3,1.8-0.2,3.1,0.1,3.2l0,0    c0.3,0,0.8-1,1-2.7C275.5,249.1,275.5,247.7,275.2,247.5L275.2,247.5L275.2,247.5z"/></g><path class="st4" d="M274.6,250.6c0,1.7-0.2,3.1-0.6,3.1c-0.4-0.1-0.7-1.5-0.7-3.2c0-1.7,0.2-3.1,0.6-3.1   C274.2,247.4,274.5,248.8,274.6,250.6L274.6,250.6z"/><g><path class="st3" d="M274,253.7L274,253.7c-0.5-0.1-0.7-1.7-0.8-3.3c0-1.5,0.1-2.7,0.4-3h0c0,0,0.1,0,0.1,0    c-0.4,0.4-0.5,1.6-0.5,3C273.4,252.3,273.7,253.6,274,253.7l0.1-0.1c0.3-0.3,0.4-1.5,0.4-3c0-1.4-0.2-2.4-0.5-2.9    c0.3,0.6,0.5,1.8,0.5,2.9c0,1.5-0.1,2.7-0.4,3L274,253.7L274,253.7z"/></g><path class="st4" d="M272.2,250.9c1.1,1.1,1.9,2.4,1.7,2.7c-0.2,0.3-1.3-0.3-2.4-1.4c-1.1-1.1-1.9-2.4-1.7-2.7   C269.9,249.1,271,249.7,272.2,250.9L272.2,250.9z"/><g><path class="st3" d="M273.7,253.7c-0.4,0-1.3-0.6-2.2-1.5c-1.2-1.2-1.9-2.4-1.7-2.8c0.1,0,0.2,0,0.2,0c-0.3,0.4,0.4,1.5,1.6,2.7    C272.4,253,273.3,253.6,273.7,253.7L273.7,253.7l0.2-0.2c0.2-0.3-0.5-1.4-1.7-2.7c-0.7-0.7-1.4-1.2-1.8-1.4    c0.6,0.2,1.2,0.7,1.9,1.4c1.2,1.2,1.9,2.4,1.7,2.8L273.7,253.7L273.7,253.7z"/></g><path class="st4" d="M272.7,250.3c0.8,1.5,1.3,2.9,1,3.2c-0.3,0.2-1.2-0.8-2-2.3c-0.8-1.5-1.3-2.9-1-3.2   C271,247.7,271.9,248.8,272.7,250.3L272.7,250.3z"/><g><path class="st3" d="M273.6,253.5c-0.4,0-1.2-1-2-2.4c-0.8-1.4-1.3-2.9-1-3.2c0.6,0,1.3,1,2.1,2.4c0.8,1.4,1.3,2.9,1,3.2    L273.6,253.5L273.6,253.5z M270.8,247.9c-0.3,0.2,0,1.5,0.9,3.1c0.7,1.3,1.6,2.4,1.9,2.4v0l0.1-0.1c0.2-0.2-0.1-1.5-1-3.1    C272,249,271.2,247.9,270.8,247.9L270.8,247.9z"/></g><path class="st4" d="M273.7,250.4c0.5,1.7,0.7,3.2,0.4,3.3c-0.3,0.1-1-1.2-1.6-2.8c-0.5-1.7-0.7-3.2-0.4-3.3   C272.4,247.4,273.1,248.7,273.7,250.4L273.7,250.4z"/><g><path class="st3" d="M274,253.7c-0.4,0-1.1-1.5-1.6-2.9c-0.5-1.5-0.8-3.2-0.3-3.3c0,0,0,0,0,0c0.4,0,1.1,1.2,1.6,2.9    C274.2,251.9,274.5,253.5,274,253.7L274,253.7L274,253.7z M272.2,247.6c-0.3,0.1-0.2,1.4,0.4,3.2c0.6,1.7,1.2,2.8,1.5,2.8v0l0,0    c0.3-0.1,0.2-1.4-0.4-3.2C273.1,248.7,272.4,247.6,272.2,247.6L272.2,247.6z"/></g><path class="st4" d="M273.9,253.6c0,0-0.9,0-1.1,0c-0.2,0-0.3-0.5-0.9-0.5c-0.6,0-1.1,0.3-1.3,0.5c-0.2,0.2,0,0.5,0.7,0.5   c0.7,0,1-0.4,1.4-0.4c0.4,0,0.9,0,1.2,0c0.2-0.2,0.9-0.6,1.2-0.8c0.3-0.2,1.3-0.3,1.9-0.8c0.5-0.4,0.6-0.9,0.2-0.9   c-0.4,0-1,0.3-1.4,0.6c-0.4,0.3-0.4,0.8-0.8,1.1C274.7,253.1,274,253.6,273.9,253.6L273.9,253.6z"/><g><path class="st3" d="M272.7,253.8l0.6-0.1c0.1,0,0.2,0,0.3,0l-0.8,0c-0.3-0.3-0.5-0.5-0.9-0.5l0,0c-0.5,0-0.9,0.2-1.2,0.4    c0.6-0.6,1.6-0.4,1.9-0.1l0.7,0.1c0.6,0,0.9-0.2,1.1-0.4c0.7-0.4,0.8-0.6,0.9-0.8c0.1-0.2,0.2-0.4,0.4-0.6c0.4-0.3,1-0.6,1.4-0.6    c0.1,0.1,0.1,0.1,0.1,0.2c-0.6-0.1-1.2,0.2-1.5,0.5c-0.2,0.1-0.3,0.3-0.4,0.5c-0.1,0.2-0.2,0.4-0.4,0.6l-0.5,0.3    c-0.1,0.1-0.2,0.1-0.2,0.1c0.1-0.1,0.3-0.1,0.4-0.2c0.6-0.4,0.8-0.4,1.1-0.5c0.4-0.1,0.9-0.3,1.3-0.6c0.2-0.2,0.3-0.4,0.4-0.5    c0,0.2-0.1,0.4-0.3,0.6c-0.3,0.3-0.9,0.5-1.3,0.6c-0.3,0.1-0.5,0.1-0.6,0.2c-0.7,0.5-1,0.7-1.2,0.8L272.7,253.8L272.7,253.8z"/></g><path class="st4" d="M275.5,257.5c-0.9,1.4-1.8,2.3-2.1,2c-0.3-0.3,0.3-1.7,1.2-3.1c0.9-1.4,1.8-2.3,2.1-2   C276.9,254.7,276.4,256.1,275.5,257.5L275.5,257.5z"/><g><path class="st3" d="M273.5,259.6l-0.2-0.1c-0.3-0.3,0.4-1.9,1.2-3.1c0.8-1.2,1.6-2.1,2-2.1c0,0,0.1,0.1,0.1,0.1    c-0.4,0.1-1.3,0.8-2,2c-0.9,1.5-1.4,2.8-1.2,3L273.5,259.6c0.3-0.1,1.1-0.8,1.9-2.1c0.7-1.2,1.2-2.2,1.2-2.7    c0,0.6-0.5,1.7-1.1,2.8C274.7,258.8,273.9,259.6,273.5,259.6L273.5,259.6z"/></g><path class="st4" d="M274.9,257.1c-0.6,1.6-1.4,2.8-1.7,2.6c-0.3-0.2,0-1.7,0.6-3.3c0.6-1.6,1.4-2.8,1.7-2.6   C275.8,253.9,275.5,255.4,274.9,257.1L274.9,257.1z"/><g><path class="st3" d="M273.3,259.7L273.3,259.7c-0.5-0.3-0.1-1.9,0.5-3.4c0.6-1.5,1.3-2.7,1.7-2.7c0.5,0.3,0.1,1.9-0.5,3.4    C274.3,258.6,273.6,259.7,273.3,259.7L273.3,259.7z M275.5,253.8c-0.3,0-1,1-1.6,2.6c-0.7,1.8-0.9,3.1-0.6,3.3l0.1,0    c0.3,0,1-1,1.6-2.6C275.5,255.3,275.7,253.9,275.5,253.8C275.5,253.8,275.5,253.8,275.5,253.8L275.5,253.8z"/></g><path class="st4" d="M272.6,256.3c0.6,1.5,0.8,3,0.5,3.2c-0.3,0.2-1-0.8-1.6-2.3c-0.6-1.5-0.8-3-0.5-3.2   C271.3,253.7,272,254.8,272.6,256.3L272.6,256.3z"/><g><path class="st3" d="M273,259.6c-0.4,0-1-1-1.6-2.4c-0.6-1.6-0.8-3-0.5-3.3c0,0,0,0,0,0c0.5,0,1.1,1,1.7,2.4    c0.6,1.6,0.8,3,0.5,3.3L273,259.6L273,259.6z M271.1,254c-0.3,0.2-0.2,1.6,0.4,3.2c0.6,1.5,1.2,2.3,1.5,2.3v0l0.1-0.1    c0.3-0.2,0.1-1.5-0.5-3.2C272,254.9,271.4,254,271.1,254L271.1,254z"/></g><path class="st4" d="M273.3,256c0.2,1.8,0,3.3-0.3,3.4c-0.3,0.1-0.8-1.3-0.9-3c-0.2-1.8,0-3.3,0.3-3.4   C272.8,252.9,273.2,254.3,273.3,256L273.3,256z"/><g><path class="st3" d="M273,259.4c-0.4,0-0.8-1.5-0.9-3c-0.2-1.6-0.1-3.3,0.3-3.4c0,0,0,0,0,0c0.5,0,0.8,1.6,1,3    C273.5,257.6,273.4,259.3,273,259.4L273,259.4L273,259.4z M272.5,253.1c-0.3,0.1-0.5,1.4-0.3,3.3c0.2,1.8,0.6,3,0.8,3v0l0,0    c0.3-0.1,0.5-1.4,0.3-3.3C273.1,254.2,272.7,253.1,272.5,253.1L272.5,253.1z"/></g><path class="st4" d="M274.2,256.5c-0.2,1.8-0.6,3.2-0.9,3.2c-0.3,0-0.5-1.5-0.3-3.3c0.2-1.8,0.6-3.2,0.9-3.2   C274.2,253.2,274.3,254.7,274.2,256.5L274.2,256.5z"/><g><path class="st3" d="M273.2,259.7l-0.1-0.1c-0.3-0.3-0.4-1.7-0.2-3.3c0.2-1.6,0.5-3.2,1-3.2c0.4,0.4,0.5,1.7,0.4,3.3    C274,258.1,273.6,259.7,273.2,259.7L273.2,259.7z M273.9,253.3c-0.4,0-0.8,1.2-1,3.1c-0.1,1.5-0.1,2.9,0.2,3.2l0.1,0.1l0,0    c0.3,0,0.7-1.2,0.9-3.2C274.3,254.9,274.2,253.6,273.9,253.3C273.9,253.3,273.9,253.3,273.9,253.3L273.9,253.3z"/></g><path class="st4" d="M273.1,259.6c0,0-0.8-0.3-1-0.5c-0.2-0.1-0.1-0.5-0.6-0.8c-0.5-0.2-1.1-0.2-1.4-0.1c-0.3,0.1-0.2,0.4,0.4,0.7   c0.6,0.3,1.1,0.1,1.4,0.2c0.3,0.1,0.9,0.3,1.1,0.5c0.3-0.1,1-0.2,1.4-0.2c0.4-0.1,1.3,0.2,2,0c0.6-0.2,0.9-0.6,0.5-0.7   c-0.4-0.2-1-0.2-1.5-0.1c-0.4,0.1-0.7,0.6-1.1,0.7C274,259.4,273.1,259.6,273.1,259.6L273.1,259.6z"/><g><path class="st3" d="M273.1,259.8L273.1,259.8c-0.3-0.2-0.8-0.4-1.1-0.5C272.5,259.4,272.9,259.5,273.1,259.8    c0.2-0.1,0.6-0.2,1-0.3l1.1,0c0.2,0,0.5,0.1,0.8,0.1c0.7-0.1,1-0.3,1.1-0.4c-0.1,0.2-0.3,0.3-0.5,0.4c-0.9,0.1-1.1,0-1.4,0l-0.6,0    C273.7,259.6,273.3,259.7,273.1,259.8L273.1,259.8L273.1,259.8z M273.2,259.6c-0.1,0-0.9-0.4-1-0.5c-0.2-0.4-0.3-0.6-0.6-0.8    c-0.3-0.1-0.6-0.2-0.8-0.2l-0.7,0.2c0,0.1,0.2,0.3,0.6,0.5c0.3,0.2,0.6,0.2,0.8,0.2c0.2,0,0.4,0.1,0.5,0.1c-0.8,0-1.1-0.1-1.4-0.2    c-0.4-0.2-0.6-0.4-0.6-0.6l0.8-0.3c0.2,0,0.5,0,0.9,0.2c0.4,0.2,0.5,0.4,0.5,0.6C272.3,259.2,273.1,259.5,273.2,259.6    c0.1-0.1,0.3-0.1,0.6-0.2c0.8-0.1,0.9-0.3,1.1-0.4c0.2-0.1,0.3-0.3,0.5-0.3c0.5-0.1,1.2-0.1,1.5,0.1c0,0.1,0,0.1,0,0.2    c-0.5-0.4-1.1-0.3-1.5-0.2c-0.7,0.5-0.9,0.6-1.1,0.7C273.5,259.6,273.2,259.6,273.2,259.6L273.2,259.6z"/></g><path class="st4" d="M273.7,264.4c-1.4,1.2-2.8,1.9-2.9,1.5c-0.2-0.4,0.8-1.8,2.3-3c1.4-1.2,2.8-1.9,2.9-1.5   C276.1,261.8,275.1,263.1,273.7,264.4L273.7,264.4z"/><g><path class="st3" d="M271,266l-0.3-0.1c-0.2-0.4,0.8-1.8,2.3-3c1.1-1,2.2-1.6,2.7-1.6c0,0.1,0.1,0.1,0.1,0.2    c-0.6,0.1-1.7,0.6-2.8,1.5c-1.5,1.3-2.4,2.6-2.3,2.9L271,266c0.5-0.1,1.6-0.7,2.7-1.7c0.9-0.8,1.6-1.6,2-2.2    c-0.3,0.6-1.1,1.5-1.9,2.2C272.6,265.4,271.5,266,271,266L271,266z"/></g><path class="st4" d="M273.2,263.7c-1.2,1.6-2.4,2.6-2.7,2.3c-0.3-0.3,0.5-1.9,1.7-3.4c1.2-1.6,2.5-2.6,2.7-2.3   C275.2,260.5,274.4,262.1,273.2,263.7L273.2,263.7z"/><g><path class="st3" d="M270.6,266l-0.2-0.1c-0.3-0.4,0.6-2.1,1.7-3.5c1.1-1.4,2.2-2.3,2.6-2.3c0,0,0.1,0.1,0.1,0.1h0    c-0.6,0-1.6,1-2.6,2.3c-1.3,1.7-2,3.1-1.7,3.4L270.6,266c0.4-0.1,1.5-1,2.5-2.4c1-1.2,1.6-2.3,1.7-2.9c-0.1,0.7-0.9,1.9-1.7,3    C272.1,265.1,271.1,266,270.6,266L270.6,266z"/></g><path class="st4" d="M270.9,262c0.1,1.9-0.1,3.6-0.5,3.7c-0.4,0.2-0.9-1.3-1-3.2c-0.2-1.9,0.1-3.6,0.5-3.7   C270.3,258.7,270.7,260.1,270.9,262L270.9,262z"/><g><path class="st3" d="M270.3,265.8c-0.4,0-0.9-1.3-1-3.2c-0.2-1.9,0.1-3.6,0.5-3.8h0c0.6,0,0.9,1.6,1.1,3.2    C271.1,264,270.8,265.6,270.3,265.8L270.3,265.8L270.3,265.8z M269.9,258.9c-0.4,0.1-0.7,1.7-0.5,3.7c0.2,1.9,0.6,3.1,0.9,3.1v0    l0.1,0c0.4-0.1,0.6-1.7,0.5-3.7C270.7,260,270.3,258.9,269.9,258.9L269.9,258.9z"/></g><path class="st4" d="M271.8,262c-0.4,2-1.1,3.6-1.5,3.6c-0.4,0-0.4-1.7,0-3.7c0.4-2,1.1-3.6,1.5-3.6   C272.2,258.3,272.2,260,271.8,262L271.8,262z"/><g><path class="st3" d="M270.3,265.6l-0.2-0.1c-0.3-0.4-0.3-1.9,0.1-3.6c0.4-1.8,1-3.6,1.5-3.6c0,0,0.1,0.1,0.1,0.1    c-0.3,0.1-1.1,1.4-1.5,3.5c-0.3,1.7-0.4,3.2-0.1,3.5L270.3,265.6L270.3,265.6c0.3-0.1,1-1.5,1.4-3.6c0.3-1.4,0.4-2.7,0.2-3.3    c0.2,0.7,0.1,1.9-0.2,3.3C271.5,263.7,270.8,265.6,270.3,265.6L270.3,265.6z"/></g><path class="st4" d="M272.5,262.8c-0.8,1.9-1.7,3.3-2.1,3.2c-0.4-0.2,0-1.8,0.7-3.7c0.8-1.9,1.7-3.3,2.1-3.2   C273.6,259.2,273.3,260.9,272.5,262.8L272.5,262.8z"/><g><path class="st3" d="M270.5,266L270.5,266c-0.4-0.6,0-2.1,0.6-3.8c0.7-1.8,1.6-3.2,2.1-3.2c0.5,0.2,0.1,2.1-0.6,3.8    C271.8,264.6,270.9,266,270.5,266L270.5,266z M273.3,259.1c-0.4,0-1.2,1.2-2,3.2c-0.7,1.7-1,3.2-0.8,3.6l0.1,0.1    c0.3,0,1.2-1.2,2-3.2C273.3,260.7,273.6,259.2,273.3,259.1C273.3,259.1,273.3,259.1,273.3,259.1L273.3,259.1z"/></g><path class="st4" d="M270.4,265.8c0,0-0.8-0.7-0.9-0.9c-0.1-0.2,0.1-0.6-0.4-1.1c-0.5-0.5-1.2-0.6-1.5-0.6c-0.3,0-0.4,0.4,0.2,1   c0.6,0.6,1.2,0.5,1.5,0.8c0.3,0.3,0.8,0.7,1.1,1c0.3,0,1.1,0.2,1.6,0.2c0.4,0.1,1.4,0.7,2.2,0.7c0.7,0,1.1-0.3,0.8-0.6   c-0.3-0.3-1.1-0.6-1.6-0.6c-0.5,0-0.9,0.4-1.4,0.3C271.5,265.9,270.4,265.8,270.4,265.8L270.4,265.8z"/><g><path class="st3" d="M274.1,266.9L274.1,266.9c-0.6,0-1.1-0.3-1.6-0.5c-0.3-0.1-0.5-0.2-0.7-0.3c-0.9-0.1-1.3-0.2-1.6-0.2    c-0.2-0.3-0.7-0.7-1.1-1c0.6,0.4,0.9,0.7,1.1,0.9c0.3,0,0.7,0.1,1.1,0.1c0.6,0.1,0.9,0.2,1.2,0.3    C273,266.6,273.6,266.9,274.1,266.9L274.1,266.9L274.1,266.9c0.3-0.1,0.5-0.1,0.6-0.2C274.6,266.9,274.4,266.9,274.1,266.9    L274.1,266.9z M274.9,266.5c-0.4-0.5-1.2-0.7-1.6-0.8c-0.3-0.2-0.5,0.1-0.7,0.2c-0.2,0.1-0.4,0.2-0.6,0.2l-0.8-0.1    c-0.7-0.1-0.7-0.1-0.8-0.2c0,0-0.8-0.7-0.9-0.8c-0.1-0.5-0.1-0.8-0.4-1.1c-0.3-0.3-0.8-0.5-1.2-0.6c0.4,0,0.9,0.2,1.2,0.5    c0.3,0.3,0.4,0.6,0.4,0.8c0.2,0.4,0.9,1.1,1,1.1c0.1,0,0.4,0.1,0.7,0.1c0.3,0,0.5,0.1,0.7,0.1c0.3,0,0.5-0.1,0.7-0.2    c0.2-0.1,0.4-0.2,0.6-0.2c0.6,0,1.4,0.3,1.7,0.6C274.9,266.3,274.9,266.4,274.9,266.5L274.9,266.5z"/></g><path class="st4" d="M269,270.4c-2.1,0.3-3.7,0.2-3.7-0.3c0-0.5,1.8-1.2,3.8-1.5c2.1-0.3,3.7-0.2,3.6,0.3   C272.7,269.4,271,270,269,270.4L269,270.4z"/><g><path class="st3" d="M266.9,270.6c-0.8,0-1.4-0.1-1.5-0.3c0-0.1,0-0.1,0-0.2c0.4,0.5,1.8,0.5,3.6,0.2c1.5-0.2,2.8-0.7,3.4-1.1    c-0.6,0.5-1.9,0.9-3.4,1.1C268.2,270.6,267.5,270.6,266.9,270.6L266.9,270.6z M265.8,269.6c0.6-0.5,1.9-0.9,3.3-1.1    c1.8-0.3,3.3-0.2,3.6,0.1c0,0.1,0,0.1,0,0.2c-0.4-0.6-1.8-0.5-3.6-0.2C267.7,268.8,266.4,269.2,265.8,269.6L265.8,269.6z"/></g><path class="st4" d="M268.9,269.4c-2.1,0.8-3.8,1-3.9,0.6c-0.1-0.5,1.5-1.5,3.6-2.3c2-0.8,3.8-1,3.9-0.6   C272.5,267.6,270.9,268.6,268.9,269.4L268.9,269.4z"/><g><path class="st3" d="M265.6,270.3c-0.4,0-0.6-0.1-0.6-0.3c-0.1-0.5,1.5-1.5,3.6-2.3c2-0.8,3.8-1.1,3.9-0.6    c0.1,0.5-1.5,1.5-3.6,2.3C267.6,269.9,266.3,270.3,265.6,270.3L265.6,270.3z M271.6,267.1c-1,0-2,0.3-3,0.7    c-2.2,0.8-3.6,1.8-3.5,2.2l0.5,0.2c0.7,0,2-0.3,3.3-0.8c2.2-0.8,3.6-1.8,3.5-2.2C272.1,267.1,271.9,267.1,271.6,267.1L271.6,267.1    z"/></g><path class="st4" d="M267.6,266.5c-0.9,1.9-2,3.4-2.5,3.3c-0.5-0.1-0.2-1.7,0.7-3.6c0.9-1.9,2-3.4,2.5-3.3   C268.8,263,268.5,264.6,267.6,266.5L267.6,266.5z"/><g><path class="st3" d="M265.1,269.8L265.1,269.8c-0.1-0.1-0.1-0.1-0.1-0.2L265.1,269.8c0.5-0.1,1.6-1.5,2.4-3.3    c0.5-1.1,0.8-2.1,0.9-2.7c0,0.7-0.4,1.7-0.9,2.8C266.7,268.4,265.6,269.8,265.1,269.8L265.1,269.8z M264.9,269.1    c0-0.7,0.3-1.8,0.9-2.9c0.9-1.8,2-3.3,2.5-3.3c0,0.1,0.1,0.1,0.1,0.2h0c-0.7,0-1.7,1.4-2.5,3.1    C265.3,267.4,264.9,268.5,264.9,269.1L264.9,269.1z"/></g><path class="st4" d="M268.5,267c-1.5,1.7-3,2.8-3.4,2.6c-0.4-0.3,0.5-1.8,2-3.5c1.5-1.7,3-2.8,3.4-2.6S270,265.3,268.5,267   L268.5,267z"/><g><path class="st3" d="M265.3,269.6l-0.2,0c0-0.1,0-0.1,0-0.2L265.3,269.6c0.5-0.1,1.9-1.2,3.2-2.7c0.8-0.9,1.4-1.8,1.8-2.4    c-0.3,0.7-0.9,1.6-1.7,2.5C267.2,268.5,265.8,269.6,265.3,269.6L265.3,269.6z M265.1,269c0.2-0.8,0.9-1.8,1.9-2.9    c1.3-1.5,2.7-2.6,3.3-2.6c0,0.1,0.1,0.1,0.1,0.2c0,0,0,0,0,0c-0.7,0-2,1.1-3.3,2.4C266.1,267.2,265.4,268.3,265.1,269L265.1,269z"/></g><path class="st4" d="M268.8,268.2c-1.8,1.4-3.5,2.2-3.8,1.8c-0.3-0.4,1-1.8,2.8-3.1c1.8-1.4,3.5-2.2,3.8-1.8   C271.8,265.4,270.6,266.8,268.8,268.2L268.8,268.2z"/><g><path class="st3" d="M265.2,270.2l-0.3-0.1c0-0.1,0-0.1,0-0.2c0,0,0,0,0,0L265.2,270.2c0.6-0.1,2-0.9,3.5-2    c0.9-0.7,1.7-1.4,2.1-1.9c0.3-0.4,0.5-0.6,0.6-0.9c0,0.3-0.3,0.6-0.5,0.9c-0.5,0.6-1.3,1.3-2.2,2    C267.3,269.4,265.8,270.2,265.2,270.2L265.2,270.2z M265.1,269.6c0.3-0.7,1.3-1.8,2.7-2.8c1.5-1.1,3-1.9,3.5-1.9    c0.1,0,0.1,0.1,0.1,0.1c-0.6,0.1-2.2,0.8-3.6,1.8C266.4,268,265.4,269,265.1,269.6L265.1,269.6z"/></g><path class="st4" d="M265,269.8c0,0-0.4-1.1-0.4-1.4c0-0.3,0.4-0.5,0.2-1.3c-0.2-0.7-0.8-1.3-1.1-1.4c-0.3-0.2-0.6,0.2-0.3,1   c0.3,0.9,0.9,1.2,1,1.6c0.2,0.4,0.4,1.1,0.5,1.5c0.3,0.2,1,0.8,1.4,1.1c0.4,0.3,0.9,1.5,1.7,2c0.6,0.4,1.3,0.3,1.1-0.2   c-0.2-0.5-0.8-1.2-1.2-1.5c-0.5-0.3-1.1-0.1-1.6-0.5C266,270.6,265,269.9,265,269.8L265,269.8z"/><g><path class="st3" d="M268.7,273.3c-0.2,0-0.5-0.1-0.8-0.3c-0.5-0.3-0.9-0.9-1.2-1.3c-0.2-0.3-0.4-0.5-0.5-0.6    c-0.8-0.7-1.2-1-1.4-1.1c-0.1-0.4-0.3-1.1-0.5-1.5c0.3,0.6,0.5,1.2,0.5,1.5c0.2,0.1,0.6,0.5,1,0.8c0.6,0.5,0.7,0.7,0.9,1    c0.3,0.5,0.7,1,1.2,1.3C268.3,273.1,268.5,273.2,268.7,273.3L268.7,273.3L268.7,273.3L268.7,273.3L268.7,273.3z M269,273    c-0.2-0.7-0.7-1.3-1.2-1.6c-0.2-0.2-0.5-0.2-0.8-0.2c-0.3,0-0.6-0.1-0.8-0.3l-0.6-0.5c-0.6-0.5-0.7-0.6-0.7-0.6h0    c-0.1,0-0.4-1.3-0.4-1.3c0.2-0.5,0.3-0.8,0.2-1.3c-0.2-0.5-0.5-0.9-0.7-1.1c0.4,0.3,0.7,0.6,0.8,1.1c0.2,0.5,0,0.8-0.1,1    c0,0.5,0.3,1.6,0.3,1.6c0,0.1,0.4,0.3,0.7,0.6l0.6,0.5c0.2,0.2,0.5,0.2,0.8,0.3c0.3,0,0.6,0.1,0.8,0.2c0.5,0.3,1.1,1,1.3,1.5    L269,273L269,273z M264.3,268.4c-0.6-0.7-0.9-1-1-1.6c-0.1-0.5-0.2-0.9,0-1c0.1,0,0.2,0,0.3,0.1c-0.3,0.2-0.3,0.5-0.2,0.9    c0.2,0.5,0.4,0.9,0.7,1.1C264.2,268,264.2,268.2,264.3,268.4L264.3,268.4z"/></g><path class="st4" d="M262.8,273.7c-2.1,0-3.8-0.4-3.8-1c0-0.6,1.7-1.1,3.8-1.2c2.1,0,3.8,0.4,3.8,1   C266.6,273.2,264.9,273.7,262.8,273.7L262.8,273.7z"/><g><path class="st3" d="M262.6,273.8c-1.6,0-3-0.3-3.5-0.8c0-0.1,0-0.2,0-0.2C259.7,273.4,261,273.7,262.6,273.8L262.6,273.8l0.2-0.1    c2.1,0,3.8-0.5,3.8-1.1c0-0.6-1.6-1-3.6-1c-1.4,0-2.6,0.2-3.3,0.5c0.7-0.4,1.8-0.6,3.2-0.6c0,0,0,0,0,0c2.2,0,3.9,0.5,3.9,1.1    c0,0.6-1.7,1.2-3.9,1.2H262.6L262.6,273.8z"/></g><path class="st4" d="M262.3,270.3c-1.3,1.7-2.8,2.8-3.3,2.5c-0.5-0.4,0.3-2.1,1.6-3.8c1.3-1.7,2.8-2.8,3.3-2.5   C264.3,266.8,263.6,268.6,262.3,270.3L262.3,270.3z"/><g><path class="st3" d="M259.3,272.9l-0.3-0.1c-0.5-0.4,0.2-2.1,1.6-3.9c1.2-1.5,2.4-2.5,3.1-2.5c0.1,0,0.1,0.1,0.2,0.1    c-0.8-0.2-2,1-3.1,2.5c-1.3,1.7-2,3.4-1.6,3.8L259.3,272.9c0.6-0.1,1.9-1.1,3-2.6c0.9-1.1,1.5-2.3,1.7-3c-0.1,0.8-0.7,1.9-1.6,3.1    C261.2,271.8,259.9,272.9,259.3,272.9L259.3,272.9z"/></g><path class="st4" d="M262.8,272.1c-2,0.8-3.8,1.1-4,0.5c-0.2-0.6,1.2-1.7,3.2-2.6c2-0.9,3.8-1.1,4-0.5   C266.2,270.1,264.8,271.2,262.8,272.1L262.8,272.1z"/><g><path class="st3" d="M259.7,272.9c-0.5,0-0.8-0.1-0.8-0.3c-0.2-0.6,1.2-1.7,3.2-2.6c1.9-0.8,3.8-1.1,4-0.5    c0.2,0.6-1.2,1.7-3.2,2.6C261.6,272.6,260.4,272.9,259.7,272.9L259.7,272.9z M265.2,269.2c-0.8,0-1.9,0.3-3.1,0.8    c-1.9,0.8-3.4,2-3.2,2.5c0.2,0.5,2,0.3,3.9-0.5c1.9-0.8,3.4-2,3.2-2.5C265.9,269.3,265.6,269.2,265.2,269.2L265.2,269.2z"/></g><path class="st4" d="M263.9,238.6c1,0.9,1.6,1.7,1.3,1.8c-0.2,0.1-1.2-0.5-2.2-1.3c-1-0.9-1.6-1.7-1.3-1.8   C261.9,237.1,262.9,237.7,263.9,238.6L263.9,238.6z"/><g><path class="st3" d="M265.1,240.5c-0.4,0-1.3-0.6-2.1-1.4c-0.9-0.8-1.4-1.5-1.4-1.8c0.1,0,0.1,0,0.2,0c-0.1,0.3,0.4,1,1.3,1.7    C263.9,239.8,264.8,240.4,265.1,240.5L265.1,240.5L265.1,240.5c0.1-0.4-0.3-1-1.2-1.9c-0.6-0.6-1.3-1-1.7-1.2    c0.5,0.2,1.2,0.6,1.8,1.2c0.8,0.8,1.4,1.5,1.4,1.8L265.1,240.5L265.1,240.5z"/></g><path class="st4" d="M262.7,239.6c1.3,0.2,2.4,0.5,2.5,0.8c0.1,0.3-1,0.4-2.3,0.2c-1.3-0.2-2.4-0.5-2.5-0.8   C260.3,239.5,261.4,239.4,262.7,239.6L262.7,239.6z"/><g><path class="st3" d="M264.1,240.7c-0.4,0-0.8,0-1.3-0.1c-1.2-0.2-2.4-0.5-2.5-0.8c0.4-0.6,1.5-0.4,2.4-0.2    c1.2,0.2,2.4,0.5,2.5,0.8C265,240.7,264.5,240.7,264.1,240.7L264.1,240.7z M261.4,239.5c-0.5,0-0.9,0.1-1,0.2c0,0.3,1,0.7,2.4,0.8    c1.2,0.1,2.1,0.1,2.2-0.1c0-0.3-1-0.7-2.4-0.8C262.2,239.6,261.8,239.5,261.4,239.5L261.4,239.5z"/></g><path class="st4" d="M263.2,239c1.3,0.6,2.2,1.3,2,1.5c-0.1,0.2-1.3-0.1-2.5-0.8c-1.2-0.6-2.1-1.3-2-1.5   C260.8,238,261.9,238.3,263.2,239L263.2,239z"/><g><path class="st3" d="M265,240.6c-0.4,0-1.3-0.3-2.3-0.8c-1.1-0.6-1.9-1.2-2-1.5c0.1,0,0.2,0,0.2,0c0,0.4,0.8,0.9,1.8,1.5    C263.7,240.2,264.6,240.5,265,240.6L265,240.6l0.1-0.1L265,240.6L265,240.6z M265.1,240.5c-0.1-0.3-0.8-0.9-2-1.5    c-0.6-0.3-1.3-0.6-1.8-0.7c0.5,0.1,1.2,0.3,1.8,0.7C264.3,239.5,265.1,240.1,265.1,240.5L265.1,240.5L265.1,240.5z"/></g><path class="st4" d="M245.8,270c0,0,3.2,0.7,6,1.7c2.8,1,7.1,4.5,8.2,4.7c1.3,0.1,3.1-0.4,3.7-2.2c-2,0.5-3.2,1.3-5,0.3   c-0.7-0.2-2.8-2.2-5.2-3.3c-2.4-1.1-7.2-2.3-7.2-2.3L245.8,270z"/><g><path class="st3" d="M260.3,276.5l-0.2,0c-0.5-0.1-1.7-0.9-3-1.8c-1.6-1.1-3.6-2.4-5.2-3c-2.8-1-6-1.7-6-1.7l0.4-1.2l0,0    c0.1,0,4.9,1.2,7.3,2.3c1.5,0.7,2.9,1.7,3.9,2.4c0.6,0.4,1,0.8,1.3,0.9c1.3,0.7,2.5,0.5,3.9,0.1l1.1-0.3    C263.1,276.2,261.1,276.5,260.3,276.5L260.3,276.5z M245.9,270c0.2,0,3.3,0.7,6,1.7c1.5,0.6,3.6,1.9,5.2,3c1.3,0.9,2.5,1.7,3,1.7    l0.2,0c0.8,0,2.8-0.2,3.5-2.2l-1.1,0.4c-1.4,0.5-2.6,0.7-4-0.1c-0.2-0.1-0.7-0.4-1.3-0.9c-1-0.7-2.4-1.8-3.9-2.4    c-2.4-1-7.2-2.3-7.2-2.3L245.9,270C245.9,270,245.9,270,245.9,270L245.9,270z"/></g><path class="st4" d="M249.3,240.9c0,0,3.7-2,3.7-2l-4.1,1l-0.5,0.7L249.3,240.9z"/><g><path class="st3" d="M249.3,240.9l-0.9-0.2l0.4-0.8l4.1-1.1C253,239,249.4,240.8,249.3,240.9L249.3,240.9L249.3,240.9z M253,238.9    l-4.1,1.1l-0.5,0.7l0.8,0.1C249.4,240.7,250.1,240.4,253,238.9L253,238.9z"/></g><path class="st4" d="M252.8,241.8c-1.4-0.3-3.6-0.7-5-0.9c1-1.1,2.3-2.9,3.1-4c-0.5,1.1-1.4,2.5-1.7,3.5   C250.1,240.9,251.7,241.4,252.8,241.8L252.8,241.8z"/><g><path class="st3" d="M252.8,241.8l-1.1-0.2c-1.3-0.3-2.9-0.6-4-0.6c0.9-1.1,2.3-3,3.1-4.1l-0.5,1c-0.5,0.8-1,1.8-1.2,2.5    c0.6,0.3,1.5,0.6,2.4,0.9L252.8,241.8L252.8,241.8L252.8,241.8z M250.8,236.9c-0.8,1.2-2.1,3-3.1,4.1c1.1,0,2.6,0.3,3.9,0.6    l0.6,0.1l-0.8-0.3c-0.9-0.3-1.8-0.6-2.4-0.9c0.2-0.8,0.7-1.7,1.2-2.5L250.8,236.9L250.8,236.9z"/></g><path class="st4" d="M248.6,241.1c0,0,3.3-2.6,3.3-2.6l-3.8,1.7l-0.3,0.8L248.6,241.1z"/><g><path class="st3" d="M248.6,241.2l-0.9,0l0.3-0.8l3.8-1.7C251.9,238.6,248.7,241,248.6,241.2L248.6,241.2L248.6,241.2z     M251.9,238.5l-3.8,1.8l-0.3,0.8l0.8,0C248.7,241,249.3,240.5,251.9,238.5L251.9,238.5z"/></g><path class="st4" d="M252.1,241.8c-1.4-0.3-3.7-0.8-5.1-0.9c1-1.1,2.3-3,3.1-4.1c-0.5,1.1-1.4,2.5-1.7,3.6   C249.4,240.9,251,241.3,252.1,241.8L252.1,241.8z"/><g><path class="st3" d="M252.1,241.8l-1.1-0.2c-1.3-0.3-2.9-0.6-3.9-0.7c0.9-1.1,2.2-2.9,3-4.1l0,0c-0.8,1.3-2,3-2.9,4.1    c1.1,0,2.6,0.3,3.9,0.6l0.7,0.1l-0.8-0.3c-0.9-0.3-1.8-0.6-2.4-1c0.2-0.8,0.7-1.8,1.2-2.7l0.4-0.7l-0.3,0.8    c-0.5,0.9-0.9,1.8-1.2,2.6c0.6,0.3,1.6,0.6,2.4,0.9L252.1,241.8L252.1,241.8L252.1,241.8z"/></g><path class="st4" d="M248.1,241.3c0,0,3.9-1.6,3.9-1.6l-4.2,0.7l-0.5,0.7L248.1,241.3z"/><g><path class="st3" d="M248.1,241.4l-0.9-0.3l0.5-0.7l4.2-0.7C250.9,240.2,248.2,241.3,248.1,241.4L248.1,241.4L248.1,241.4z     M251.9,239.7l-4.2,0.8l-0.5,0.7l0.8,0.2C248.2,241.2,248.9,240.9,251.9,239.7L251.9,239.7z"/></g><path class="st4" d="M251.7,241.8c-1.5-0.1-3.7-0.4-5.1-0.4c0.8-1.2,1.9-3.3,2.5-4.5c-0.4,1.2-1,2.7-1.2,3.8   C248.9,241.2,250.5,241.5,251.7,241.8L251.7,241.8z"/><g><path class="st3" d="M251.7,241.8l-1.3-0.1c-1.2-0.1-2.6-0.2-3.6-0.2c0,0,0,0,0,0c1.2,0,2.5,0.1,3.6,0.2l0.8,0.1l-0.8-0.2    c-0.9-0.2-1.8-0.4-2.5-0.7c0.1-0.8,0.5-1.9,0.8-2.8l0.2-0.6l-0.2,0.7c-0.3,1-0.7,2-0.9,2.8c0.7,0.3,1.6,0.5,2.5,0.7L251.7,241.8    L251.7,241.8L251.7,241.8z M247.4,240c0.5-1,1.1-2.1,1.5-3l0,0C248.5,238,248,239.1,247.4,240L247.4,240z"/></g><path class="st4" d="M247.7,241.3c0,0,2.6-3.2,2.6-3.2l-3.3,2.5l-0.2,0.8L247.7,241.3z"/><g><path class="st3" d="M246.8,241.5l0.2-0.9l3.3-2.5c-0.7,0.9-2.5,3.1-2.6,3.2L246.8,241.5L246.8,241.5z M250.3,238.1l-3.3,2.5    l-0.1,0.8l0.8-0.1C247.7,241.3,247.9,241,250.3,238.1L250.3,238.1z"/></g><path class="st4" d="M251.7,242c-1.6,0-4-0.2-5.5,0c0.7-1.4,1.7-3.7,2.2-5.1c-0.3,1.3-0.8,3.1-0.9,4.3   C248.7,241.5,250.4,241.7,251.7,242L251.7,242z"/><g><path class="st3" d="M251.7,242l-1.3,0c-1.4,0-3.1-0.1-4.2,0c0.7-1.4,1.5-3.5,2.1-5l0,0c-0.6,1.6-1.4,3.6-2.1,4.9    c1-0.2,2.7-0.1,4.1-0.1l0.9,0c-0.3-0.1-0.6-0.1-1-0.2c-1-0.2-2-0.3-2.8-0.6c0-0.9,0.3-2,0.6-3l0.2-0.8l-0.1,0.8    c-0.3,1-0.5,2.1-0.6,2.9c0.8,0.2,1.8,0.4,2.7,0.6C250.8,241.8,251.2,241.9,251.7,242L251.7,242L251.7,242z"/></g><path class="st4" d="M247.1,242.1c0,0,3.2-3.1,3.2-3.1l-3.9,2.1l-0.3,0.9L247.1,242.1z"/><g><path class="st3" d="M247.1,242.1l-0.9,0l0.2-1l3.9-2.2C249.1,240.2,247.2,242,247.1,242.1L247.1,242.1L247.1,242.1z M250.3,239    l-3.8,2.2l-0.2,0.9l0.9,0C247.2,241.9,247.8,241.4,250.3,239L250.3,239z"/></g><path class="st4" d="M251,242.1c-1.7,0-4.3-0.1-5.9,0.1c1.1-1.6,2.6-4.1,3.5-5.7c-0.6,1.4-1.5,3.4-1.9,4.7   C247.8,241.7,249.7,241.8,251,242.1L251,242.1z"/><g><path class="st3" d="M245,242.2L245,242.2c1.1-1.6,2.6-4.2,3.5-5.7l0,0c-0.9,1.6-2.3,4.1-3.3,5.6c0.8-0.1,1.9-0.1,3-0.1l2.7,0    c-0.3,0-0.8-0.1-1.3-0.2c-1-0.2-2.1-0.3-2.9-0.6c0.2-1,0.8-2.2,1.3-3.4l0.5-1.2l-0.5,1.3c-0.5,1.2-1,2.4-1.3,3.3    c0.8,0.2,1.8,0.4,2.8,0.6c0.5,0.1,1,0.2,1.4,0.3l-1.4,0.1l-1.5,0C247,242.1,245.9,242.1,245,242.2L245,242.2L245,242.2z"/></g><path class="st4" d="M246.1,242.3c0,0,4.1-3.5,4.1-3.5l-4.6,2.5l-0.5,1L246.1,242.3z"/><g><path class="st3" d="M245,242.4l0.5-1.1l4.6-2.5c-1.3,1.2-3.9,3.4-4,3.5L245,242.4L245,242.4z M250.1,238.8l-4.6,2.5l-0.4,0.9    l0.9,0C246,242.3,246.4,241.9,250.1,238.8L250.1,238.8z"/></g><path class="st4" d="M250.4,242.2c-1.7,0.2-4.2,0.5-5.9,0.9c0.9-1.7,2-4.4,2.7-6.1c-0.4,1.5-1,3.5-1.2,4.9   C247.2,242.2,249,242.1,250.4,242.2L250.4,242.2z"/><g><path class="st3" d="M244.4,243.2L244.4,243.2c0.9-1.7,1.9-4.3,2.6-6l0,0c-0.7,1.8-1.7,4.3-2.5,5.8c1.2-0.3,2.9-0.5,4.4-0.7    l1.3-0.2c-0.5,0-1,0-1.5,0c-1,0-2.1,0-2.9-0.2c0.1-1,0.5-2.3,0.8-3.6l0.3-1l-0.2,1c-0.3,1.2-0.7,2.5-0.8,3.5    c0.8,0.1,1.9,0.1,2.9,0.2c0.5,0,1,0,1.5,0l-1.3,0.3C247.5,242.6,245.7,242.8,244.4,243.2L244.4,243.2L244.4,243.2z"/></g><path class="st4" d="M245.5,243c0,0,3.2-4.4,3.2-4.4l-3.9,3.5l-0.2,1.1L245.5,243z"/><g><path class="st3" d="M244.5,243.3l0.2-1.1l3.9-3.6c-0.8,1.2-3,4.3-3.1,4.4L244.5,243.3L244.5,243.3z M248.6,238.6l-3.9,3.6l-0.2,1    l0.9-0.3C245.5,242.9,245.8,242.5,248.6,238.6L248.6,238.6z"/></g><path class="st4" d="M249.4,242.7c-1.7,0.2-4.3,0.3-5.9,0.6c0.9-1.6,2.2-4.3,3-5.9c-0.5,1.5-1.2,3.5-1.5,4.8   C246.3,242.6,248.1,242.6,249.4,242.7L249.4,242.7z"/><g><path class="st3" d="M243.5,243.4L243.5,243.4c1-1.7,2.2-4.4,3-6l-0.4,1.5c-0.4,1.2-0.8,2.4-1,3.3c0.8,0.2,1.8,0.2,2.8,0.3    c0.5,0,1.1,0.1,1.5,0.1l-1.4,0.2C246.5,243,244.8,243.1,243.5,243.4L243.5,243.4L243.5,243.4z M246.5,237.4    c-0.7,1.6-1.9,4.2-2.9,5.9c1.2-0.2,2.9-0.4,4.4-0.5l1.4-0.1c-0.5,0-1,0-1.5-0.1c-1-0.1-2.1-0.1-2.9-0.3c0.1-1,0.6-2.2,1-3.4    L246.5,237.4L246.5,237.4z"/></g><path class="st4" d="M244.9,243.5c0,0,4-3.5,4-3.5l-4.5,2.4l-0.5,1L244.9,243.5z"/><g><path class="st3" d="M243.9,243.5l0.5-1.1l4.6-2.5c-1.3,1.2-3.9,3.4-4,3.5L243.9,243.5L243.9,243.5z M248.9,240l-4.5,2.5l-0.4,0.9    l0.9,0C244.9,243.4,245.3,243,248.9,240L248.9,240z"/></g><path class="st4" d="M248.9,242.9c-1.7,0.3-4.3,0.8-5.9,1.3c0.8-1.7,1.8-4.5,2.4-6.1c-0.3,1.5-0.9,3.5-1,4.9   C245.7,243.1,247.6,242.9,248.9,242.9L248.9,242.9z"/><g><path class="st3" d="M243,244.3L243,244.3c0.8-1.7,1.7-4.2,2.3-5.9l0,0.1c-0.6,2-1.5,4.2-2.1,5.7c1.2-0.4,3-0.7,4.5-1l1.3-0.3    c-0.5,0.1-1,0.1-1.5,0.1c-1,0.1-2.1,0.1-2.9,0c0-1,0.3-2.3,0.6-3.6l0.1-0.6l-0.1,0.6c-0.3,1.2-0.6,2.5-0.7,3.5c0.8,0,1.9,0,2.9,0    c0.5,0,1.1-0.1,1.5-0.1l-1.3,0.3C246.1,243.5,244.3,243.8,243,244.3L243,244.3L243,244.3z"/></g><path class="st4" d="M244.3,243.6c0,0,2.6-4.7,2.6-4.7l-3.5,4.1l0,1.1L244.3,243.6z"/><g><path class="st3" d="M243.3,244.1l0.1-1.1l3.5-4.1c-0.8,1.6-2.5,4.7-2.5,4.8L243.3,244.1L243.3,244.1z M246.8,238.9l-3.4,4.1l0,1    l0.9-0.4C244.2,243.6,244.5,243.1,246.8,238.9L246.8,238.9z"/></g><path class="st4" d="M248.9,243.2c-1.8,0.5-4.6,1.1-6.3,1.7c0.6-1.9,1.4-5.1,1.9-7c-0.2,1.7-0.5,4-0.5,5.5   C245.5,243.6,247.5,243.2,248.9,243.2L248.9,243.2z"/><g><path class="st3" d="M242.6,244.9L242.6,244.9c0.7-2,1.4-5.1,1.9-7l-0.1,1.6c-0.2,1.4-0.3,2.8-0.3,3.9c0.2,0,0.5,0,0.7,0    c0.8,0,1.6-0.1,2.5-0.2c0.6-0.1,1.2-0.1,1.7-0.1l-1.5,0.5C245.8,244,243.9,244.4,242.6,244.9L242.6,244.9L242.6,244.9z     M244.5,237.9c-0.4,1.9-1.1,5-1.8,6.9c1.3-0.5,3.1-0.9,4.7-1.3l1.5-0.4c-0.5,0.1-1.1,0.2-1.7,0.2c-1.1,0.1-2.3,0.2-3.2,0.1    c-0.1-1.1,0.1-2.6,0.3-4L244.5,237.9L244.5,237.9z"/></g><path class="st4" d="M243.8,244.7c0,0,3.2-4.8,3.2-4.8l-4.1,3.8l-0.2,1.2L243.8,244.7z"/><g><path class="st3" d="M242.7,245.1l0.2-1.3l4.1-3.9c-0.8,1.3-3.1,4.7-3.1,4.8L242.7,245.1L242.7,245.1z M247,240l-4.1,3.9l-0.2,1.1    l1-0.3C243.8,244.7,244.1,244.2,247,240L247,240z"/></g><path class="st4" d="M248.2,243.7c-1.8,0.6-4.5,1.3-6.2,2c0.6-2,1.2-5.1,1.5-7c-0.1,1.7-0.3,4-0.2,5.5   C244.8,244.3,246.8,243.8,248.2,243.7L248.2,243.7z"/><g><path class="st3" d="M242,245.8L242,245.8c0.6-2,1.2-5.1,1.5-7.1l0,1.6c-0.1,0.8-0.1,1.7-0.1,2.5c-0.1-0.8,0-1.6,0.1-2.5l0.1-1.6    c-0.3,1.9-0.9,5-1.4,6.9c1.2-0.5,3-1.1,4.6-1.5l1.5-0.5c-0.5,0.1-1,0.2-1.6,0.3c-1,0.1-2,0.3-2.9,0.3c0,0,0,0,0-0.1    c1,0,2-0.2,2.9-0.3c0.6-0.1,1.1-0.2,1.6-0.2l-1.5,0.5C245.1,244.7,243.3,245.2,242,245.8L242,245.8L242,245.8z"/></g><path class="st4" d="M243.1,245.4c0,0,2.4-5.2,2.4-5.2l-3.5,4.5l0,1.2L243.1,245.4z"/><g><path class="st3" d="M242.1,246l0-1.3l3.5-4.5c-0.6,1.4-2.3,5.1-2.4,5.3L242.1,246L242.1,246z M245.5,240.2l-3.4,4.6l0,1.1l1-0.5    C243.1,245.4,243.3,244.9,245.5,240.2L245.5,240.2z"/></g><path class="st4" d="M247.6,244.4c-1.8,0.4-4.6,0.9-6.3,1.5c0.7-1.9,1.6-5,2.1-6.8c-0.2,1.7-0.7,3.9-0.7,5.4   C244.1,244.7,246.1,244.4,247.6,244.4L247.6,244.4z"/><g><path class="st3" d="M241.2,246L241.2,246c0.7-2,1.6-5,2.2-6.8l0,0c-0.5,1.9-1.3,4.8-2,6.7c1.3-0.4,3.1-0.8,4.7-1.2l1.6-0.3    c-0.5,0.1-1.1,0.1-1.7,0.2c-1.1,0.1-2.3,0.2-3.2,0c0-1.1,0.2-2.6,0.4-3.9l0.2-1.3l-0.1,1.3c-0.2,1.4-0.5,2.8-0.5,3.9    c0.8,0,2,0,3.2-0.1c0.6,0,1.2-0.1,1.7-0.1l-1.6,0.4C244.4,245.1,242.5,245.5,241.2,246L241.2,246L241.2,246z"/></g><path class="st4" d="M242.6,245.9c0,0,4-4.1,4-4.1l-4.7,3l-0.4,1.2L242.6,245.9z"/><g><path class="st3" d="M241.4,246.1l0.4-1.2l4.7-3.1c-1,1.2-3.9,4-3.9,4.2L241.4,246.1L241.4,246.1z M246.5,241.8l-4.7,3.1l-0.3,1.1    l1-0.1C242.5,245.9,242.9,245.4,246.5,241.8L246.5,241.8z"/></g><path class="st4" d="M246.7,245.1c-1.8,0.2-4.6,0.5-6.3,0.9c0.8-1.9,1.9-4.9,2.5-6.8c-0.3,1.7-0.9,3.9-1,5.5   C243.3,245.1,245.3,245,246.7,245.1L246.7,245.1z"/><g><path class="st3" d="M240.4,246.1L240.4,246.1c0.8-1.8,1.8-4.6,2.4-6.5l0,0.1c-0.7,2.1-1.6,4.6-2.3,6.3c1.3-0.3,3.1-0.5,4.7-0.7    l1.5-0.2c-0.5,0-1,0-1.6,0c-1.1,0-2.3-0.1-3.2-0.3c0-1.2,0.4-2.7,0.7-4.1l0.1-0.7l-0.1,0.7c-0.3,1.4-0.6,2.9-0.7,4    c0.9,0.2,2,0.2,3.1,0.2c0.6,0,1.1,0,1.6,0.1l-1.5,0.3C243.6,245.5,241.8,245.8,240.4,246.1L240.4,246.1L240.4,246.1z"/></g><path class="st4" d="M241.8,245.5c0,0,2.7-5.1,2.7-5.1l-3.7,4.3l-0.1,1.2L241.8,245.5z"/><g><path class="st3" d="M240.7,246l0.1-1.3l3.7-4.3c-0.7,1.4-2.6,5-2.7,5.2L240.7,246L240.7,246z M244.4,240.4l-3.6,4.4l0,1.1l1-0.4    C241.7,245.5,242,244.9,244.4,240.4L244.4,240.4z"/></g><path class="st4" d="M247,244.5c-1.9,0.8-5,1.9-6.8,2.9c0.6-2.3,1.2-6,1.6-8.2c-0.1,1.9-0.3,4.6-0.2,6.3   C243.2,245.5,245.3,244.8,247,244.5L247,244.5z"/><g><path class="st3" d="M240.1,247.5L240.1,247.5c0.6-2.4,1.3-6.1,1.6-8.3l0,1.8c-0.1,1.6-0.2,3.3-0.1,4.5c1-0.1,2.3-0.4,3.5-0.6    c0.6-0.2,1.3-0.3,1.8-0.4l-1.7,0.7C243.6,245.9,241.5,246.7,240.1,247.5L240.1,247.5L240.1,247.5z M241.7,239.2    c-0.3,2.2-0.9,5.8-1.5,8.2c1.4-0.7,3.3-1.5,5.1-2.2l1.7-0.7c-0.5,0.2-1.2,0.3-1.8,0.5c-1.2,0.3-2.5,0.6-3.5,0.6    c-0.2-1.3-0.1-3,0-4.6L241.7,239.2L241.7,239.2z"/></g><path class="st4" d="M241.4,247.1c0,0,3.3-5.9,3.3-5.9l-4.3,5l-0.1,1.4L241.4,247.1z"/><g><path class="st3" d="M240.2,247.6l0.1-1.5l4.3-5c-1,2-3.1,5.8-3.2,5.9L240.2,247.6L240.2,247.6z M244.6,241.2l-4.2,5l-0.1,1.3    l1.1-0.5C241.4,247,241.6,246.5,244.6,241.2L244.6,241.2z"/></g><path class="st4" d="M246.2,245.2c-1.9,0.9-4.9,2.2-6.7,3.2c0.5-2.3,1-6,1.3-8.2c0,1.9-0.1,4.6,0.1,6.3   C242.5,246.4,244.6,245.6,246.2,245.2L246.2,245.2z"/><g><path class="st3" d="M239.5,248.6L239.5,248.6c0.5-2.4,1-6,1.3-8.2l0,0c-0.2,2.3-0.7,5.8-1.2,8c1.3-0.8,3.3-1.7,5-2.5l1.6-0.7    c-0.5,0.2-1.1,0.4-1.8,0.6c-1.2,0.4-2.5,0.7-3.5,0.8c-0.2-1.2-0.2-3-0.2-4.5l0-1.6l0.1,1.6c0,1.6,0,3.3,0.1,4.5    c1-0.1,2.2-0.5,3.5-0.8c0.6-0.2,1.3-0.4,1.8-0.5l-1.6,0.8C242.9,246.8,240.9,247.7,239.5,248.6L239.5,248.6L239.5,248.6z"/></g><path class="st4" d="M240.7,248c0,0,2.4-6.3,2.4-6.3l-3.6,5.7l0.1,1.4L240.7,248z"/><g><path class="st3" d="M239.6,248.7l-0.1-1.4l3.6-5.7c-0.7,2.2-2.3,6.2-2.3,6.4L239.6,248.7L239.6,248.7z M243.1,241.6l-3.5,5.7    l0.1,1.3l1-0.7C240.7,247.9,240.9,247.4,243.1,241.6L243.1,241.6z"/></g><path class="st4" d="M245.4,245.8c-1.9,0.9-4.9,2.2-6.6,3.3c0.5-2.3,0.9-6,1.2-8.2c0,1.9-0.1,4.6,0.2,6.3   C241.6,247,243.8,246.2,245.4,245.8L245.4,245.8z"/><g><path class="st3" d="M238.7,249.1L238.7,249.1c0.5-2.4,0.9-6,1.2-8.3l0.1,1.9c0,1.5,0,3.2,0.2,4.4c1-0.1,2.2-0.5,3.5-0.9    c0.6-0.2,1.3-0.4,1.8-0.5l-1.5,0.8C242.1,247.3,240.1,248.3,238.7,249.1L238.7,249.1L238.7,249.1z M239.9,240.9    c-0.2,2.2-0.6,5.8-1.1,8.1c1.3-0.8,3.3-1.7,5-2.5l1.5-0.7c-0.5,0.2-1.1,0.4-1.8,0.6c-1.2,0.4-2.5,0.7-3.5,0.8    c-0.2-1.2-0.2-2.9-0.2-4.4V240.9L239.9,240.9z"/></g><path class="st4" d="M240.2,248.7c0,0,3.7-5.6,3.7-5.6l-4.6,4.6l-0.2,1.4L240.2,248.7z"/><g><path class="st3" d="M238.9,249.2l0.2-1.4l4.7-4.6c-1.2,1.9-3.6,5.5-3.6,5.6L238.9,249.2L238.9,249.2z M243.8,243.1l-4.6,4.6    l-0.2,1.3l1.1-0.4C240.2,248.7,240.5,248.1,243.8,243.1L243.8,243.1z"/></g><path class="st4" d="M245.2,245.5c-1.7,1.4-4.4,3.3-5.9,4.8c0-2.3-0.3-5.9-0.5-8.2c0.4,1.8,0.8,4.4,1.4,6   C241.7,247.6,243.7,246.3,245.2,245.5L245.2,245.5z"/><g><path class="st3" d="M239.3,250.4L239.3,250.4c0-2.2-0.3-5.4-0.4-7.6l0,0.1c0.3,2.6,0.5,5.4,0.5,7.4c1.2-1.1,2.9-2.5,4.4-3.7    l1.4-1.1c-0.5,0.3-1.1,0.7-1.6,1c-1.1,0.7-2.3,1.3-3.3,1.7c-0.5-1.1-0.8-2.8-1.1-4.3l-0.1-0.6l0.2,0.5c0.3,1.5,0.6,3.2,1.1,4.3    c0.9-0.4,2.1-1.1,3.2-1.7c0.6-0.3,1.2-0.7,1.7-0.9l-1.4,1.2C242.3,247.8,240.5,249.2,239.3,250.4L239.3,250.4L239.3,250.4z"/></g><path class="st4" d="M240.4,249c0,0,0.4-6.7,0.4-6.7l-1.8,6.5l0.5,1.2L240.4,249z"/><g><path class="st3" d="M239.5,250.1l-0.5-1.3l1.8-6.5c-0.1,1.8-0.4,6.5-0.3,6.7L239.5,250.1L239.5,250.1z M240.8,242.3l-1.7,6.5    l0.5,1.1l0.8-1C240.3,249,240.3,248.5,240.8,242.3L240.8,242.3z"/></g><path class="st4" d="M244.7,246.1c-1.7,1.3-4.4,3.3-5.9,4.8c0-2.3-0.3-5.9-0.5-8.2c0.4,1.8,0.8,4.4,1.4,6   C241.2,248.2,243.2,246.9,244.7,246.1L244.7,246.1z"/><g><path class="st3" d="M238.8,251L238.8,251c0-2.3-0.3-5.8-0.5-8l0,0c0.3,2.4,0.5,5.6,0.5,7.8c1.1-1.1,2.9-2.4,4.4-3.6l1.5-1.2    c-0.5,0.3-1,0.7-1.6,1c-1.1,0.7-2.3,1.3-3.3,1.7c-0.5-1.1-0.8-2.7-1.1-4.2l-0.2-1.1l0.3,1.1c0.3,1.5,0.6,3.1,1,4.2    c0.9-0.4,2.1-1.1,3.3-1.7c0.6-0.3,1.2-0.7,1.7-0.9l-1.5,1.2C241.7,248.5,240,249.8,238.8,251L238.8,251L238.8,251z"/></g><path class="st4" d="M239.9,250.1c0,0,1.7-6.6,1.7-6.6l-3,6l0.2,1.3L239.9,250.1z"/><g><path class="st3" d="M238.9,251l-0.3-1.4l3-6.1c-0.5,2.2-1.6,6.4-1.6,6.6L238.9,251L238.9,251z M241.6,243.6l-2.9,6.1l0.2,1.3    l1-0.8C239.9,250.1,240,249.5,241.6,243.6L241.6,243.6z"/></g><path class="st4" d="M244.5,246.3c-1.6,1.6-4.2,3.9-5.6,5.6c-0.2-2.4-0.9-6.1-1.4-8.3c0.6,1.8,1.3,4.4,2.1,5.9   C241.2,248.8,243.1,247.2,244.5,246.3L244.5,246.3z"/><g><path class="st3" d="M238.9,252L238.9,252c-0.2-2.4-0.9-5.9-1.4-8.2l0,0c0.5,2.4,1.2,5.7,1.4,8c1.1-1.3,2.7-2.9,4.2-4.2l1.4-1.3    c-0.5,0.4-1,0.8-1.6,1.2c-1.1,0.8-2.2,1.6-3.2,2.1c-0.6-1.1-1.1-2.7-1.6-4.2l-0.4-1.2l0.5,1.2c0.5,1.5,1,3.1,1.6,4.2    c0.9-0.5,2-1.3,3.1-2.1c0.6-0.4,1.1-0.8,1.7-1.2l-1.3,1.4C241.7,249,240,250.7,238.9,252L238.9,252L238.9,252z"/></g><path class="st4" d="M239.9,251c0,0,0.3-7,0.3-7l-1.7,6.8l0.5,1.3L239.9,251z"/><g><path class="st3" d="M239.1,252.1l-0.6-1.3l1.7-6.8c-0.1,2.4-0.3,6.8-0.3,7L239.1,252.1L239.1,252.1z M240.2,244l-1.6,6.8l0.5,1.2    l0.8-1C239.9,250.9,239.9,250.3,240.2,244L240.2,244z"/></g><path class="st4" d="M244,247.4c-1.7,1.4-4.4,3.5-6,5.1c-0.1-2.4-0.5-6.2-0.7-8.5c0.5,1.9,1,4.6,1.6,6.2   C240.5,249.6,242.5,248.3,244,247.4L244,247.4z"/><g><path class="st3" d="M238,252.6L238,252.6c-0.1-2.5-0.5-6.2-0.7-8.6l0.5,1.8c0.4,1.6,0.7,3.2,1.2,4.4c1-0.4,2.2-1.1,3.3-1.8    c0.6-0.4,1.2-0.7,1.7-1l-1.4,1.3C241,249.9,239.2,251.4,238,252.6L238,252.6L238,252.6z M237.3,244c0.3,2.3,0.7,5.9,0.8,8.4    c1.2-1.2,2.9-2.6,4.5-3.8l1.5-1.2c-0.5,0.3-1,0.7-1.6,1c-1.2,0.7-2.4,1.4-3.4,1.8c-0.5-1.2-0.9-2.8-1.2-4.4L237.3,244L237.3,244z"/></g><path class="st5" d="M268.3,254.5c0,6.8-5.5,12.2-12.3,12.2c-6.8,0-12.2-5.5-12.2-12.2c0-6.8,5.5-12.3,12.2-12.3   C262.8,242.3,268.3,247.7,268.3,254.5L268.3,254.5z"/><path class="st4" d="M239.4,251.8c0,0,2.4-6.6,2.4-6.6l-3.6,5.8l0.1,1.4L239.4,251.8z"/><g><path class="st3" d="M238.3,252.5l-0.1-1.5l3.6-5.8c-0.8,2.2-2.3,6.4-2.4,6.6L238.3,252.5L238.3,252.5z M241.8,245.2l-3.6,5.8    l0.1,1.3l1.1-0.7C239.4,251.7,239.6,251.1,241.8,245.2L241.8,245.2z"/></g><path class="st4" d="M244,247.4c-1.5,1.6-4,4-5.3,5.7c-0.2-2.4-0.9-6.1-1.3-8.4c0.6,1.9,1.3,4.5,2,6   C240.8,250,242.6,248.4,244,247.4L244,247.4z"/><g><path class="st3" d="M238.7,253.3L238.7,253.3c-0.2-2.4-0.9-5.9-1.3-8.2l0,0.1c0.5,2.5,1.1,5.7,1.3,7.9c1-1.3,2.6-2.9,4-4.4    l1.3-1.3c-0.4,0.4-1,0.8-1.5,1.3c-1,0.8-2.1,1.7-3,2.1c-0.6-1.1-1.1-2.8-1.5-4.3l-0.3-0.9l0.3,0.9c0.5,1.5,1,3.2,1.5,4.3    c0.9-0.5,1.9-1.3,3-2.1c0.6-0.4,1.1-0.9,1.6-1.2l-1.2,1.4C241.4,250.2,239.8,251.9,238.7,253.3L238.7,253.3L238.7,253.3z"/></g><path class="st4" d="M239.5,252.1c0,0-0.3-6.9-0.3-6.9l-1.1,6.9l0.6,1.2L239.5,252.1z"/><g><path class="st3" d="M238.7,253.4l-0.7-1.3l1.1-6.9c0.2,2.3,0.3,6.8,0.4,6.9L238.7,253.4L238.7,253.4z M239.2,245.2l-1,6.9    l0.6,1.1l0.7-1.1C239.5,252.1,239.4,251.4,239.2,245.2L239.2,245.2z"/></g><path class="st4" d="M243.3,248c-1.5,1.6-3.8,4-5.1,5.8c-0.3-2.4-1.1-6.1-1.6-8.4c0.7,1.9,1.4,4.5,2.2,6   C240.1,250.6,241.9,249,243.3,248L243.3,248z"/><g><path class="st3" d="M238.1,253.8L238.1,253.8c-0.3-2.5-1.1-6.2-1.6-8.5l0,0c0.6,2.3,1.3,5.9,1.6,8.2c1-1.3,2.5-3,3.8-4.4l1.2-1.3    c-0.4,0.4-0.9,0.8-1.4,1.2c-1,0.8-2.1,1.7-3,2.2c-0.6-1.1-1.2-2.7-1.7-4.3l-0.5-1.6l0.6,1.6c0.5,1.5,1,3.1,1.6,4.2    c0.9-0.5,1.9-1.4,2.9-2.2c0.5-0.4,1-0.8,1.5-1.2l-1.2,1.4C240.7,250.8,239.1,252.5,238.1,253.8L238.1,253.8L238.1,253.8z"/></g><path class="st4" d="M239.1,252.8c0,0,0.8-7,0.8-7l-2.1,6.7l0.4,1.4L239.1,252.8z"/><g><path class="st3" d="M238.2,253.9l-0.4-1.4l2.1-6.7c-0.2,2.4-0.7,6.9-0.7,7L238.2,253.9L238.2,253.9z M239.9,245.8l-2,6.7l0.4,1.3    l0.8-0.9C239.1,252.8,239.1,252.2,239.9,245.8L239.9,245.8z"/></g><path class="st4" d="M242.9,248.2c-1.3,1.8-3.5,4.4-4.7,6.3c-0.5-2.4-1.6-6-2.2-8.2c0.8,1.8,1.8,4.3,2.6,5.8   C240,251.2,241.7,249.4,242.9,248.2L242.9,248.2z"/><g><path class="st3" d="M238.3,254.6L238.3,254.6c-0.5-2.4-1.5-5.9-2.2-8.1l0,0c0.8,2.3,1.7,5.6,2.2,7.9c0.9-1.4,2.3-3.2,3.5-4.7    l1.1-1.5c-0.4,0.4-0.8,0.9-1.3,1.4c-0.9,0.9-2,1.9-2.8,2.5c-0.7-1-1.4-2.7-2-4.1l-0.5-1.2l0.6,1.1c0.6,1.5,1.3,3.1,1.9,4.1    c0.8-0.6,1.8-1.6,2.8-2.5c0.5-0.5,1-0.9,1.4-1.3l-1.1,1.5C240.6,251.3,239.2,253.1,238.3,254.6L238.3,254.6L238.3,254.6z"/></g><path class="st4" d="M239.1,253.5c0,0-0.4-7-0.4-7l-0.9,7l0.6,1.2L239.1,253.5z"/><g><path class="st3" d="M238.4,254.7l-0.7-1.3l0.9-7c0.2,2.4,0.5,6.9,0.5,7L238.4,254.7L238.4,254.7z M238.6,246.4l-0.8,7l0.6,1.1    l0.7-1.1C239,253.4,239,252.8,238.6,246.4L238.6,246.4z"/></g><path class="st4" d="M242.8,248.6c-1.3,1.8-3.3,4.6-4.4,6.5c-0.6-2.4-1.9-6-2.6-8.2c0.9,1.8,2,4.3,2.9,5.7   C240,251.7,241.6,249.9,242.8,248.6L242.8,248.6z"/><g><path class="st3" d="M238.4,255.3L238.4,255.3c-0.6-2.3-1.7-5.4-2.4-7.6l-0.2-0.6l0.9,1.6c0.7,1.5,1.4,3,2.1,4    c0.8-0.6,1.7-1.7,2.7-2.6c0.5-0.5,0.9-1,1.4-1.4l-1,1.6C240.6,251.8,239.3,253.7,238.4,255.3L238.4,255.3L238.4,255.3z M235.8,247    l0.3,0.6c0.8,2.2,1.8,5.3,2.4,7.4c0.8-1.4,2.1-3.3,3.3-4.9l1.1-1.5c-0.4,0.5-0.8,1-1.3,1.5c-0.9,1-1.9,2-2.7,2.6    c-0.8-1-1.5-2.6-2.2-4L235.8,247L235.8,247z"/></g><path class="st4" d="M239.5,254.1c0,0,0.7-7.1,0.7-7.1l-2,6.7l0.4,1.4L239.5,254.1z"/><g><path class="st3" d="M238.7,255.2l-0.4-1.5l2-6.7c-0.2,2.4-0.7,6.9-0.6,7.1L238.7,255.2L238.7,255.2z M240.2,247l-1.9,6.7l0.4,1.3    l0.8-0.9C239.5,254.1,239.5,253.5,240.2,247L240.2,247z"/></g><path class="st4" d="M242.5,249.3c-1.1,2-2.9,5-3.8,7.1c-0.8-2.3-2.4-5.7-3.4-7.7c1,1.6,2.3,4,3.4,5.2   C240.1,252.8,241.4,250.7,242.5,249.3L242.5,249.3z"/><g><path class="st3" d="M238.8,256.5L238.8,256.5c-0.9-2.3-2.4-5.7-3.4-7.8l0,0c1,2.1,2.5,5.3,3.3,7.6c0.7-1.5,1.8-3.5,2.7-5.3l1-1.8    c-0.3,0.5-0.7,1.1-1.1,1.6c-0.8,1.1-1.7,2.3-2.5,3c-0.8-0.9-1.7-2.3-2.5-3.7l-0.8-1.4l0.9,1.3c0.8,1.3,1.7,2.8,2.5,3.6    c0.7-0.8,1.6-1.9,2.4-3c0.4-0.6,0.8-1.1,1.2-1.6l-0.9,1.8C240.6,252.9,239.5,254.9,238.8,256.5L238.8,256.5L238.8,256.5z"/></g><path class="st4" d="M239.3,254.7c0,0-2-6.7-2-6.7l0.7,7.1l0.9,1L239.3,254.7z"/><g><path class="st3" d="M238.9,256.1l-0.9-1l-0.7-7.1c0.7,2.3,2,6.6,2,6.7L238.9,256.1L238.9,256.1z M237.3,248l0.7,7.1l0.8,0.9    l0.4-1.3C239.2,254.7,239.1,254.2,237.3,248L237.3,248z"/></g><path class="st4" d="M242.5,250.1c-1.1,2-3,5-3.9,7.1c-0.8-2.3-2.4-5.6-3.4-7.7c1.1,1.6,2.4,3.9,3.5,5.2   C239.9,253.5,241.3,251.5,242.5,250.1L242.5,250.1z"/><g><path class="st3" d="M238.6,257.3L238.6,257.3c-0.9-2.4-2.4-5.7-3.4-7.8l1,1.5c0.8,1.3,1.7,2.8,2.5,3.7c0.7-0.7,1.6-1.9,2.4-2.9    c0.4-0.6,0.9-1.2,1.3-1.6l-0.9,1.8C240.5,253.6,239.3,255.7,238.6,257.3L238.6,257.3L238.6,257.3z M235.2,249.5    c1,2,2.6,5.3,3.4,7.6c0.7-1.5,1.9-3.5,2.9-5.3l1-1.7c-0.3,0.5-0.8,1.1-1.2,1.7c-0.8,1.1-1.7,2.2-2.5,2.9c-0.9-0.9-1.8-2.4-2.6-3.7    L235.2,249.5L235.2,249.5z"/></g><path class="st4" d="M239.4,256c0,0-0.7-7.1-0.7-7.1L238,256l0.7,1.2L239.4,256z"/><g><path class="st3" d="M238.7,257.2L238,256l0.6-7.1c0.3,2.4,0.8,6.9,0.8,7.1L238.7,257.2L238.7,257.2z M238.6,248.9L238,256    l0.7,1.1l0.6-1.1C239.3,255.9,239.2,255.3,238.6,248.9L238.6,248.9z"/></g><path class="st4" d="M242.6,250.7c-1.2,2-3.1,5-4,7c-0.8-2.3-2.3-5.7-3.3-7.8c1,1.6,2.3,4,3.4,5.3C240,254.1,241.4,252,242.6,250.7   L242.6,250.7z"/><g><path class="st3" d="M238.6,257.8L238.6,257.8c-0.8-2.4-2.3-5.8-3.3-7.9v0c1,2.1,2.5,5.4,3.3,7.7c0.8-1.6,2-3.7,3.1-5.5l0.9-1.5    c-0.4,0.5-0.8,1.1-1.3,1.6c-0.9,1.1-1.7,2.2-2.6,2.9c-0.8-0.9-1.7-2.4-2.5-3.7l-0.9-1.5l1,1.5c0.8,1.3,1.7,2.8,2.5,3.7    c0.8-0.7,1.6-1.8,2.5-2.9c0.5-0.6,0.9-1.1,1.3-1.6l-0.8,1.5C240.7,254,239.4,256.1,238.6,257.8L238.6,257.8L238.6,257.8z"/></g><path class="st4" d="M239.3,256.5c0,0-1.3-6.9-1.3-6.9l-0.1,7.1l0.8,1.1L239.3,256.5z"/><g><path class="st3" d="M238.8,257.9l-0.8-1.2l0.1-7.1c0.5,2.3,1.3,6.8,1.4,6.9L238.8,257.9L238.8,257.9z M238,249.6l0,7.1l0.8,1    l0.5-1.2C239.3,256.5,239.1,255.9,238,249.6L238,249.6z"/></g><path class="st4" d="M242.1,251.7c-1.3,1.9-3.3,4.7-4.4,6.7c-0.7-2.3-2-5.9-2.9-8c0.9,1.7,2.1,4.2,3.1,5.5   C239.3,254.9,240.9,253,242.1,251.7L242.1,251.7z"/><g><path class="st3" d="M237.7,258.5L237.7,258.5c-0.7-2.3-1.9-5.6-2.8-7.8l0,0c1,2.4,2.1,5.4,2.8,7.5c0.8-1.5,2.1-3.4,3.2-5l1.1-1.6    c-0.4,0.5-0.8,1-1.3,1.5c-0.9,1-1.9,2.1-2.7,2.7c-0.8-1-1.6-2.5-2.4-3.9l-0.4-0.8l0.5,0.7c0.7,1.4,1.6,2.9,2.3,3.9    c0.8-0.7,1.8-1.7,2.7-2.7c0.5-0.5,0.9-1,1.4-1.5l-1,1.6C239.9,255,238.6,256.9,237.7,258.5L237.7,258.5L237.7,258.5z"/></g><path class="st4" d="M238.7,257.3c0,0,0.6-7.1,0.6-7.1l-1.9,6.7l0.5,1.4L238.7,257.3z"/><g><path class="st3" d="M237.8,258.4l-0.5-1.4l1.9-6.7c-0.1,2.4-0.5,6.9-0.5,7.1L237.8,258.4L237.8,258.4z M239.3,250.2l-1.9,6.7    l0.4,1.3l0.8-0.9C238.7,257.3,238.7,256.6,239.3,250.2L239.3,250.2z"/></g><path class="st4" d="M242.2,251.9c-1.1,2-2.8,5.1-3.7,7.2c-0.9-2.2-2.6-5.5-3.6-7.6c1.1,1.6,2.5,3.8,3.6,5.1   C239.7,255.4,241.1,253.3,242.2,251.9L242.2,251.9z"/><g><path class="st3" d="M238.5,259.2L238.5,259.2c-0.9-2.2-2.4-5.1-3.4-7.2l0,0c1.2,2.3,2.6,5,3.4,6.9c0.6-1.5,1.7-3.6,2.7-5.3l1-1.8    c-0.3,0.5-0.7,1.1-1.1,1.7c-0.8,1.1-1.7,2.3-2.5,3.1c-0.9-0.9-1.8-2.2-2.7-3.5l-0.4-0.6l0.5,0.5c0.9,1.3,1.8,2.7,2.6,3.5    c0.7-0.8,1.6-2,2.4-3.1c0.4-0.6,0.8-1.1,1.2-1.6l-0.9,1.9C240.3,255.5,239.2,257.6,238.5,259.2L238.5,259.2L238.5,259.2z"/></g><path class="st4" d="M238.5,257.9c0,0-2.2-6.6-2.2-6.6l0.8,7l0.9,1L238.5,257.9z"/><g><path class="st3" d="M238.1,259.3l-1-1l-0.8-7c0.8,2.2,2.2,6.4,2.2,6.6L238.1,259.3L238.1,259.3z M236.3,251.3l0.9,7l0.9,0.9    l0.4-1.3C238.4,257.9,238.2,257.4,236.3,251.3L236.3,251.3z"/></g><path class="st4" d="M241.9,252.4c-0.8,2.2-2,5.7-2.6,7.9c-1.2-2-3.4-4.9-4.7-6.7c1.3,1.3,3,3.2,4.3,4.2   C240,256.4,241,254.1,241.9,252.4L241.9,252.4z"/><g><path class="st3" d="M239.4,260.4L239.4,260.4c-1.2-1.9-3-4.4-4.3-6.2l-0.4-0.5l1.3,1.2c1.1,1.1,2.2,2.3,3.1,2.9    c0.6-0.9,1.2-2.2,1.9-3.5c0.3-0.7,0.7-1.4,1-1.9l-0.5,1.8C240.6,256.2,239.8,258.6,239.4,260.4L239.4,260.4L239.4,260.4z     M234.6,253.7l0.5,0.5c1.3,1.8,3.1,4.2,4.2,6c0.4-1.7,1.2-4.1,1.9-6.1l0.6-1.8c-0.2,0.6-0.6,1.3-0.9,2c-0.6,1.3-1.3,2.6-1.9,3.5    c-1-0.7-2.1-1.8-3.2-2.9L234.6,253.7L234.6,253.7z"/></g><path class="st4" d="M240.4,258.4c0,0-2.4-6.5-2.4-6.5l1,7l1,0.9L240.4,258.4z"/><g><path class="st3" d="M240.1,259.9l-1-1l-1-7c0.8,2.2,2.3,6.4,2.4,6.5L240.1,259.9L240.1,259.9z M238,251.9l1.1,7l0.9,0.9l0.3-1.3    C240.4,258.4,240.1,257.9,238,251.9L238,251.9z"/></g><path class="st4" d="M241.9,253.1c-0.7,2.3-2,5.7-2.5,8c-1.2-2-3.4-4.8-4.7-6.6c1.3,1.3,3.1,3.2,4.4,4.1   C240,257.1,241,254.7,241.9,253.1L241.9,253.1z"/><g><path class="st3" d="M239.4,261.1L239.4,261.1c-1.3-2.1-3.5-4.9-4.8-6.7l1.3,1.2c1,1.1,2.2,2.2,3.1,2.9c0.6-0.9,1.3-2.3,1.9-3.6    c0.3-0.7,0.6-1.3,0.9-1.9l-0.6,2C240.6,257,239.8,259.4,239.4,261.1L239.4,261.1L239.4,261.1z M234.6,254.5    c1.4,1.7,3.5,4.5,4.7,6.5c0.4-1.7,1.2-4,1.8-6l0.6-1.9c-0.2,0.6-0.5,1.2-0.9,1.9c-0.6,1.3-1.3,2.7-1.9,3.6c-1-0.6-2.1-1.8-3.2-2.9    L234.6,254.5L234.6,254.5z"/></g><path class="st4" d="M240.4,259.5c0,0-3-6.1-3-6.1l1.8,6.8l1.1,0.8L240.4,259.5z"/><g><path class="st3" d="M240.3,261l-1.1-0.8l-1.8-6.8c1.1,2,3,5.9,3.1,6.1L240.3,261L240.3,261z M237.4,253.5l1.8,6.7l1,0.7l0.2-1.4    C240.4,259.5,240.1,259.1,237.4,253.5L237.4,253.5z"/></g><path class="st4" d="M241.7,253.7c-0.5,2.3-1.3,5.9-1.6,8.3c-1.5-1.8-3.9-4.3-5.5-5.9c1.5,1.1,3.4,2.7,4.8,3.5   C240.3,257.9,241,255.4,241.7,253.7L241.7,253.7z"/><g><path class="st3" d="M240.1,262L240.1,262c-1.4-1.7-3.5-3.9-5-5.4l-0.5-0.5l1.4,1c1.2,0.9,2.4,1.9,3.5,2.4c0.5-1,1-2.4,1.4-3.8    c0.2-0.7,0.5-1.4,0.7-2l-0.3,2C240.8,257.7,240.3,260.2,240.1,262L240.1,262L240.1,262z M234.6,256.1l0.5,0.4    c1.5,1.5,3.6,3.7,4.9,5.3c0.2-1.7,0.7-4.1,1.1-6.2l0.4-2c-0.2,0.6-0.4,1.3-0.6,2.1c-0.5,1.4-0.9,2.8-1.5,3.8    c-1.1-0.5-2.3-1.5-3.5-2.4L234.6,256.1L234.6,256.1z"/></g><path class="st4" d="M240.6,260.5c0,0-1.6-6.8-1.6-6.8l0.3,7.1l0.9,1.1L240.6,260.5z"/><g><path class="st3" d="M240.1,261.9l-0.9-1.1l-0.3-7.1c0.6,2.3,1.6,6.7,1.7,6.8L240.1,261.9L240.1,261.9z M239,253.7l0.3,7.1l0.8,1    l0.5-1.3C240.6,260.5,240.4,259.9,239,253.7L239,253.7z"/></g><path class="st4" d="M241.7,254.4c-0.3,2.4-0.7,6.1-0.8,8.4c-1.6-1.6-4.3-3.8-6-5.1c1.6,0.9,3.6,2.3,5.1,2.8   C240.7,258.8,241.1,256.2,241.7,254.4L241.7,254.4z"/><g><path class="st3" d="M240.9,262.9L240.9,262.9c-1.6-1.6-4.1-3.6-5.8-5l0,0c1.9,1.4,4.2,3.3,5.6,4.8c0-1.8,0.3-4.3,0.6-6.4l0.2-1.9    c-0.1,0.7-0.3,1.4-0.5,2.2c-0.3,1.4-0.7,2.9-1.1,4c-1.1-0.4-2.5-1.2-3.8-1.9l-0.7-0.4l0.7,0.3c1.2,0.7,2.6,1.6,3.7,2    c0.4-1.1,0.7-2.5,1.1-3.9c0.2-0.8,0.4-1.5,0.5-2.1l-0.1,1.9C241.2,258.5,240.9,261,240.9,262.9L240.9,262.9L240.9,262.9z"/></g><path class="st4" d="M240.7,261c0,0-4.3-4.9-4.3-4.9l3.3,6l1.2,0.4L240.7,261z"/><g><path class="st3" d="M240.9,262.5l-1.2-0.4l-3.3-6c1.5,1.6,4.3,4.8,4.4,4.9L240.9,262.5L240.9,262.5z M236.4,256.1l3.3,5.9    l1.1,0.4l-0.1-1.4l0,0C240.6,261,240.3,260.7,236.4,256.1L236.4,256.1z"/></g><path class="st4" d="M241.7,255.2c-0.3,2.4-0.8,6.1-0.8,8.4c-1.6-1.6-4.3-3.8-5.9-5.1c1.6,0.9,3.6,2.3,5.1,2.8   C240.8,259.7,241.2,257.1,241.7,255.2L241.7,255.2z"/><g><path class="st3" d="M241,263.7L241,263.7c-1.6-1.6-4.1-3.6-5.7-5l0,0c1.9,1.5,4.2,3.4,5.6,4.8c0-1.7,0.3-4.1,0.6-6.2l0.2-2.1    c-0.1,0.6-0.3,1.4-0.5,2.1c-0.3,1.4-0.7,2.9-1.1,4c-1.1-0.4-2.5-1.2-3.7-2l-0.7-0.4l0.7,0.3c1.3,0.8,2.6,1.6,3.7,2    c0.4-1.1,0.8-2.6,1.1-4c0.2-0.7,0.3-1.5,0.5-2.1l-0.2,2.1C241.3,259.5,241,261.9,241,263.7L241,263.7L241,263.7z"/></g><path class="st4" d="M241.2,262.1c0,0-3.3-5.9-3.3-5.9l2.1,6.7l1.1,0.7L241.2,262.1z"/><g><path class="st3" d="M241.1,263.6l-1.1-0.8l-2.1-6.7c0.9,1.6,3.3,5.8,3.4,5.9L241.1,263.6L241.1,263.6z M237.8,256.2l2.1,6.6    l1,0.7l0.1-1.4C241.1,262.1,240.9,261.7,237.8,256.2L237.8,256.2z"/></g><path class="st4" d="M242,256.2c-0.2,2.4-0.5,6.1-0.5,8.5c-1.7-1.5-4.4-3.5-6.1-4.8c1.6,0.8,3.7,2.1,5.2,2.5   C241.1,260.7,241.5,258.1,242,256.2L242,256.2z"/><g><path class="st3" d="M241.5,264.8L241.5,264.8c-1.6-1.5-4.2-3.4-5.9-4.6l0,0c1.9,1.4,4.3,3.1,5.8,4.4c0-1.7,0.2-4.2,0.3-6.3    l0.2-2.1c-0.1,0.7-0.2,1.4-0.4,2.2c-0.3,1.4-0.6,2.9-1,4c-1.1-0.3-2.5-1-3.8-1.7l-0.7-0.4l0.7,0.3c1.3,0.7,2.7,1.4,3.7,1.7    c0.4-1.1,0.6-2.6,0.9-4c0.1-0.8,0.3-1.5,0.4-2.2l-0.1,2.1C241.7,260.4,241.5,262.9,241.5,264.8L241.5,264.8L241.5,264.8z"/></g><path class="st4" d="M241.6,263.2c0,0-4.1-5.2-4.1-5.2l3,6.2l1.2,0.5L241.6,263.2z"/><g><path class="st3" d="M241.7,264.7l-1.2-0.5l-3-6.2c1.4,1.7,4,5.1,4.2,5.1L241.7,264.7L241.7,264.7z M237.5,258.1l3,6.1l1.1,0.4    l0-1.4l0,0C241.6,263.2,241.2,262.9,237.5,258.1L237.5,258.1z"/></g><path class="st4" d="M242,257.3c-0.1,2.4-0.5,6.1-0.4,8.5c-1.7-1.5-4.5-3.5-6.2-4.7c1.6,0.8,3.7,2,5.2,2.5   C241.2,261.8,241.6,259.2,242,257.3L242,257.3z"/><g><path class="st3" d="M241.6,265.9L241.6,265.9c-1.7-1.5-4.5-3.5-6.2-4.8l1.5,0.7c1.3,0.7,2.7,1.4,3.7,1.7c0.4-1.1,0.6-2.7,0.9-4.1    c0.1-0.7,0.3-1.4,0.4-2.1l-0.1,1.9C241.7,261.4,241.6,264,241.6,265.9L241.6,265.9L241.6,265.9z M235.4,261.1    c1.7,1.2,4.5,3.1,6.2,4.6c0-1.8,0.1-4.3,0.3-6.5l0.1-1.9c-0.1,0.6-0.2,1.3-0.3,2.1c-0.3,1.5-0.6,3-1,4.2c-1.1-0.3-2.5-1-3.8-1.7    L235.4,261.1L235.4,261.1z"/></g><path class="st4" d="M242,264.1c0,0-2.9-6.3-2.9-6.3l1.6,6.9l1,0.8L242,264.1z"/><g><path class="st3" d="M241.8,265.6l-1.1-0.9l-1.6-6.9c1,2.1,2.8,6.1,2.9,6.2L241.8,265.6L241.8,265.6z M239.1,257.9l1.7,6.8l1,0.8    l0.2-1.3C241.9,264.1,241.7,263.6,239.1,257.9L239.1,257.9z"/></g><path class="st4" d="M242.1,258c0.1,2.4,0.1,6.2,0.4,8.5c-1.8-1.3-4.7-2.9-6.6-3.9c1.6,0.6,3.9,1.5,5.4,1.8   C241.7,262.6,241.8,260,242.1,258L242.1,258z"/><g><path class="st3" d="M242.5,266.6L242.5,266.6c-1.8-1.2-4.5-2.8-6.4-3.8l0,0c2,1.1,4.6,2.5,6.2,3.6c-0.2-1.7-0.3-4.2-0.3-6.3    l-0.1-2.1c0,0.7-0.1,1.4-0.2,2.2c-0.1,1.5-0.3,3-0.6,4.2c-1.1-0.1-2.5-0.7-3.9-1.2l-0.8-0.3l0.8,0.2c1.4,0.5,2.8,1,3.9,1.2    c0.2-1.1,0.4-2.7,0.5-4.1c0.1-0.8,0.1-1.5,0.2-2.2l0.1,2.1C242.2,262.3,242.3,264.8,242.5,266.6L242.5,266.6L242.5,266.6z"/></g><path class="st4" d="M242.5,263.9c0,0-5.2-3.6-5.2-3.6l4.4,4.9l1.2,0.1L242.5,263.9z"/><g><path class="st3" d="M243,265.3l-1.3-0.1l-4.5-4.9c1.5,0.9,5.1,3.5,5.3,3.5L243,265.3L243,265.3z M237.2,260.3l4.5,4.9l1.2,0    l-0.4-1.3l0,0C242.4,263.9,239.1,261.6,237.2,260.3L237.2,260.3z"/></g><path class="st4" d="M242.3,258.3c0.2,2.4,0.4,6.1,0.8,8.4c-1.9-1.2-4.9-2.7-6.8-3.6c1.7,0.5,4,1.4,5.5,1.6   C242.2,262.9,242.1,260.2,242.3,258.3L242.3,258.3z"/><g><path class="st3" d="M243.1,266.8L243.1,266.8c-1.8-1.2-4.6-2.5-6.5-3.5l0,0c2.2,1,4.7,2.3,6.3,3.3c-0.3-1.8-0.5-4.3-0.6-6.5    l-0.2-1.9c0,0.6,0,1.4,0,2.1c-0.1,1.5-0.1,3.1-0.4,4.3c-1.1-0.1-2.6-0.6-4-1l-0.6-0.2l0.7,0.1c1.4,0.4,2.8,0.9,3.9,1.1    c0.2-1.2,0.3-2.7,0.3-4.2c0-0.7,0.1-1.5,0.1-2.1l0.2,1.9C242.6,262.4,242.8,265,243.1,266.8L243.1,266.8L243.1,266.8z"/></g><path class="st4" d="M243,265.2c0,0-4.4-5-4.4-5l3.3,6l1.2,0.4L243,265.2z"/><g><path class="st3" d="M243.2,266.7l-1.3-0.5l-3.3-6.1c1.5,1.7,4.3,4.9,4.4,5L243.2,266.7L243.2,266.7z M238.6,260.2l3.4,6l1.1,0.4    l-0.1-1.4l0,0C243,265.2,242.6,264.9,238.6,260.2L238.6,260.2z"/></g><path class="st4" d="M242.6,259.2c0.3,2.4,0.7,6.1,1.2,8.4c-1.9-1.1-5-2.4-6.9-3.2c1.7,0.4,4,1.1,5.5,1.2   C242.7,263.8,242.6,261.2,242.6,259.2L242.6,259.2z"/><g><path class="st3" d="M243.9,267.7L243.9,267.7c-1.9-1.1-4.8-2.3-6.7-3.1l0,0c2.1,0.9,4.8,2,6.5,3c-0.4-1.8-0.7-4.4-0.9-6.5    l-0.2-1.8c0,0.7,0.1,1.4,0.1,2.2c0,1.5,0,3-0.2,4.2c-1.1,0-2.6-0.4-3.9-0.8l-0.8-0.2l0.9,0.1c1.4,0.4,2.8,0.7,3.9,0.8    c0.1-1.2,0.1-2.7,0.1-4.2c0-0.8,0-1.5,0-2.2l0.3,1.8C243.2,263.2,243.5,265.8,243.9,267.7L243.9,267.7L243.9,267.7z"/></g><path class="st4" d="M243.9,266.1c0,0-5.2-3.7-5.2-3.7l4.4,5l1.2,0.1L243.9,266.1z"/><g><path class="st3" d="M244.4,267.5l-1.3-0.1l-4.4-5c1.8,1.2,5.1,3.6,5.2,3.6L244.4,267.5L244.4,267.5z M238.7,262.4l4.4,4.9    l1.2,0.1l-0.4-1.3l0,0C243.8,266.1,241,264.1,238.7,262.4L238.7,262.4z"/></g><path class="st4" d="M242.8,260.2c0.5,2.4,1.1,6.1,1.7,8.3c-2-0.9-5.1-1.9-7.1-2.5c1.7,0.2,4.1,0.8,5.6,0.7   C243.2,264.8,242.9,262.2,242.8,260.2L242.8,260.2z"/><g><path class="st3" d="M244.6,268.6L244.6,268.6c-2-0.9-4.9-1.8-6.9-2.5h0c2.2,0.7,4.9,1.6,6.7,2.4c-0.5-1.7-0.9-4.1-1.3-6.2l-0.4-2    c0.1,0.7,0.2,1.4,0.2,2.2c0.1,1.5,0.2,3,0.1,4.2c-1.4,0-2.7-0.2-4-0.4l-0.8-0.1l0.8,0.1c1.3,0.2,2.6,0.4,3.7,0.4    c0.3-1.2,0.2-2.7,0.1-4.2c-0.1-0.8-0.1-1.6-0.1-2.2l0.5,2C243.6,264.4,244.1,266.8,244.6,268.6L244.6,268.6L244.6,268.6z"/></g><path class="st4" d="M244.5,266.8c0,0-4.3-5.1-4.3-5.1l3.2,6.1l1.2,0.5L244.5,266.8z"/><g><path class="st3" d="M244.7,268.3l-1.2-0.5l-3.3-6.1c1.5,1.7,4.3,5,4.4,5.1L244.7,268.3L244.7,268.3z M240.2,261.7l3.3,6.1    l1.1,0.4l-0.1-1.4l0,0C244.4,266.8,244.1,266.4,240.2,261.7L240.2,261.7z"/></g><path class="st4" d="M243.1,260.9c0.7,2.3,1.6,5.9,2.5,8.1c-2-0.6-5.2-1.2-7.2-1.6c1.7,0,4.1,0.2,5.6-0.1   C243.9,265.4,243.3,262.8,243.1,260.9L243.1,260.9z"/><g><path class="st3" d="M245.6,269L245.6,269c-2.1-0.6-5.2-1.2-7.2-1.6h0c2.1,0.3,5.1,0.9,7,1.5c-0.6-1.6-1.3-3.9-1.9-6l-0.6-2    c0.2,0.7,0.3,1.4,0.4,2.2c0.2,1.5,0.5,3,0.5,4.2c-1.1,0.3-2.6,0.2-4,0.1l-1.1,0l1.1,0c1.4,0,2.9,0.1,4-0.1c0-1.2-0.3-2.7-0.5-4.1    c-0.1-0.8-0.3-1.5-0.3-2.2l0.7,2C244.3,265,245,267.3,245.6,269L245.6,269L245.6,269z"/></g><path class="st4" d="M244.7,266.8c0,0-6-1.3-6-1.3l5.7,2.8l1.2-0.4L244.7,266.8z"/><g><path class="st3" d="M244.4,268.4l-5.7-2.9c2,0.4,5.9,1.2,6,1.2l0.9,1.1L244.4,268.4L244.4,268.4z M238.7,265.5l5.7,2.8l1.2-0.4    l-0.9-1.1C244.6,266.8,238.9,265.6,238.7,265.5L238.7,265.5z"/></g><path class="st4" d="M243.5,261.6c0.7,2.3,1.6,5.9,2.5,8.1c-2-0.6-5.3-1.3-7.2-1.6c1.7,0,4.1,0.2,5.6,0   C244.3,266.1,243.7,263.6,243.5,261.6L243.5,261.6z"/><g><path class="st3" d="M246,269.7L246,269.7c-2-0.6-4.9-1.2-6.9-1.6l0,0c2.3,0.4,4.9,0.9,6.7,1.5c-0.6-1.6-1.3-4.1-1.9-6.1l-0.5-1.9    c0.2,0.6,0.3,1.4,0.4,2.1c0.2,1.5,0.5,3,0.5,4.3c-1.1,0.3-2.6,0.2-4,0.1l-0.6,0l0.6-0.1c0.7,0,1.4,0.1,2,0.1l0,0    c0.7,0,1.4,0,1.9-0.1c0-1.2-0.3-2.7-0.5-4.2c-0.1-0.8-0.2-1.5-0.3-2.1l0.6,1.9C244.7,265.6,245.3,268,246,269.7L246,269.7    L246,269.7z"/></g><path class="st4" d="M245.7,267.4c0,0-5.8-2.8-5.8-2.8l5.2,4.2l1.2-0.1L245.7,267.4z"/><g><path class="st3" d="M245.1,268.9l-5.2-4.2c1.6,0.7,5.6,2.7,5.8,2.7l0.7,1.3L245.1,268.9L245.1,268.9z M239.9,264.7l5.2,4.1    l1.2-0.1l-0.7-1.2l0,0C245.6,267.4,241.3,265.3,239.9,264.7L239.9,264.7z"/></g><path class="st4" d="M243.2,262c1.1,2.1,2.8,5.4,4.1,7.3c-2.1-0.2-5.4,0-7.4,0c1.7-0.4,4-0.7,5.4-1.3   C244.9,266.3,243.8,263.9,243.2,262L243.2,262z"/><g><path class="st3" d="M239.9,269.4L239.9,269.4L239.9,269.4L239.9,269.4L239.9,269.4l1.6-0.4c1.4-0.3,2.9-0.6,3.9-1    c-0.3-1.1-0.9-2.6-1.4-4c-0.3-0.7-0.6-1.4-0.8-2.1l1,1.7c1,1.9,2.2,4.2,3.2,5.6c-2.1,0-5.1,0-7.1,0.1l-0.1,0L239.9,269.4    L239.9,269.4z M243.2,262c0.3,0.6,0.6,1.3,0.8,2c0.5,1.4,1.1,2.8,1.4,4c-1,0.5-2.5,0.7-3.9,1l-1.1,0.2c2-0.1,5-0.2,6.9,0    c-1-1.4-2.2-3.6-3.2-5.5L243.2,262L243.2,262z"/></g><path class="st4" d="M246.6,268.1c0,0-6-1.7-6-1.7l5.6,3.2l1.2-0.4L246.6,268.1z"/><g><path class="st3" d="M246.3,269.6L246.3,269.6l-5.6-3.2c1.6,0.4,5.8,1.6,6,1.6l0.9,1.2L246.3,269.6L246.3,269.6z M240.6,266.4    l5.6,3.1l1.2-0.4l-0.8-1.1C246.5,268.1,241.2,266.6,240.6,266.4L240.6,266.4z"/></g><path class="st4" d="M243.8,262.9c1.2,2.1,2.8,5.4,4.1,7.3c-2.1-0.1-5.4,0-7.4,0.1c1.7-0.4,4-0.7,5.4-1.3   C245.6,267.2,244.5,264.7,243.8,262.9L243.8,262.9z"/><g><path class="st3" d="M240.6,270.3L240.6,270.3L240.6,270.3L240.6,270.3L240.6,270.3L240.6,270.3l1.6-0.4c1.4-0.3,2.8-0.6,3.8-1    c-0.3-1.2-0.9-2.6-1.4-4c-0.3-0.7-0.5-1.4-0.8-2l1.1,1.9c1,1.9,2.2,4,3.1,5.4c-0.7,0-1.4,0-2.2,0c-1.7,0-3.6,0.1-5,0.1l0,0    L240.6,270.3L240.6,270.3z M243.8,262.9c0.3,0.6,0.6,1.3,0.8,1.9c0.6,1.4,1.1,2.9,1.4,4.1c-1,0.5-2.5,0.8-3.9,1l-1.2,0.2    c2-0.1,5-0.2,6.9-0.1c-1-1.3-2.1-3.5-3.1-5.3L243.8,262.9L243.8,262.9z"/></g><path class="st4" d="M247.4,268.6c0,0-5.6-3.3-5.6-3.3l4.9,4.7l1.3,0L247.4,268.6z"/><g><path class="st3" d="M248,269.9l-1.3,0l-4.9-4.7c1.9,1.1,5.5,3.2,5.6,3.3L248,269.9L248,269.9z M241.8,265.2l4.9,4.6h1.2l-0.5-1.3    l0,0C247.3,268.6,243.8,266.5,241.8,265.2L241.8,265.2z"/></g><path class="st4" d="M244.3,263.4c1.3,2,3.3,5.1,4.8,6.8c-2.1,0.1-5.3,0.7-7.2,1c1.6-0.6,3.9-1.3,5.2-2   C246.4,267.5,245.1,265.2,244.3,263.4L244.3,263.4z"/><g><path class="st3" d="M241.8,271.3L241.8,271.3L241.8,271.3L241.8,271.3L241.8,271.3L241.8,271.3l1.5-0.6c1.4-0.5,2.8-1,3.7-1.5    c-0.4-1.1-1.1-2.5-1.8-3.8c-0.3-0.7-0.7-1.4-1-2l1.1,1.6c1.2,1.8,2.6,3.9,3.7,5.2c-2,0.2-5.1,0.7-7.1,1.1l-0.1,0L241.8,271.3    L241.8,271.3z M244.2,263.5c0.3,0.6,0.7,1.2,1,1.9c0.7,1.3,1.4,2.7,1.8,3.8c-1,0.6-2.4,1.1-3.7,1.6l-1.1,0.4c2-0.3,4.9-0.9,6.8-1    c-1.1-1.3-2.5-3.4-3.7-5.1L244.2,263.5L244.2,263.5z"/></g><path class="st4" d="M247.8,269c0,0-6-0.1-6-0.1l6,1.8l1.1-0.7L247.8,269z"/><g><path class="st3" d="M247.7,270.7l-6-1.8c0-0.1,4.8,0.1,5.8,0.1l0.1,0.1c-1.3,0-5.9-0.1-5.9-0.1L247.7,270.7l1-0.7l-0.3-0.2    l0.3,0.2L247.7,270.7L247.7,270.7z"/></g><path class="st4" d="M251.3,239.9c0,0,4.3-0.7,4.3-0.7l-4.3,0.1l-0.7,0.4L251.3,239.9z"/><g><path class="st3" d="M251.3,239.9l-0.7-0.2l0.7-0.5l4.3-0.1C255.6,239.2,251.4,239.9,251.3,239.9L251.3,239.9L251.3,239.9z     M255.6,239.1l-4.3,0.2l-0.7,0.4l0.7,0.2C251.4,239.8,252.2,239.7,255.6,239.1L255.6,239.1z"/></g><path class="st4" d="M253.6,240.8c-1.3-0.4-3.1-1-4.4-1.3c1.4-0.5,3.4-1.5,4.6-2.1c-1,0.6-2.4,1.4-3.1,2   C251.5,239.9,252.8,240.4,253.6,240.8L253.6,240.8z"/><g><path class="st3" d="M253.6,240.8l-1.2-0.4c-1.1-0.3-2.3-0.7-3.3-0.9c1.4-0.6,3.4-1.6,4.6-2.2l0,0c-1.2,0.7-3.2,1.6-4.6,2.2    c0.9,0.1,2.2,0.5,3.3,0.9l0.6,0.2l-0.5-0.2c-0.7-0.3-1.4-0.6-1.9-1c0.5-0.5,1.4-1,2.2-1.5l0.9-0.5L253,238c-0.8,0.5-1.7,1-2.2,1.4    c0.5,0.3,1.2,0.6,1.9,0.9L253.6,240.8L253.6,240.8L253.6,240.8z"/></g><path class="st4" d="M251.1,240c0,0,4.2-1.1,4.2-1.1l-4.3,0.6l-0.6,0.5L251.1,240z"/><g><path class="st3" d="M251.1,240.1l-0.8-0.1l0.6-0.5l4.4-0.6C255.3,238.9,251.2,240,251.1,240.1L251.1,240.1L251.1,240.1z     M255.3,238.8l-4.3,0.6l-0.6,0.4l0.8,0.1C251.2,239.9,251.9,239.7,255.3,238.8L255.3,238.8z"/></g><path class="st4" d="M253.9,241.1c-1.5-0.1-3.7-0.4-5.2-0.4c1.1-1,2.6-2.6,3.6-3.6c-0.6,0.9-1.6,2.2-2.1,3.1   C251.2,240.5,252.7,240.8,253.9,241.1L253.9,241.1z"/><g><path class="st3" d="M253.8,241.1l-1.3-0.1c-1.3-0.1-2.8-0.3-3.9-0.3c1.1-1,2.6-2.6,3.5-3.6l0,0c-0.9,1.1-2.4,2.6-3.5,3.6    c1.1,0,2.6,0.1,3.9,0.2l0.7,0.1l-0.7-0.2c-0.9-0.2-1.7-0.4-2.4-0.6c0.3-0.7,0.8-1.4,1.4-2.2l0.6-0.8l-0.5,0.9    c-0.5,0.7-1.1,1.5-1.4,2.1c0.6,0.2,1.5,0.4,2.4,0.6L253.8,241.1L253.8,241.1L253.8,241.1z"/></g><path class="st4" d="M249.5,240.3c0,0,4.4-0.5,4.4-0.5l-4.2-0.1l-0.8,0.3L249.5,240.3z"/><g><path class="st3" d="M249.5,240.4l-0.7-0.3l0.8-0.4l4.3,0.1C253.9,239.9,249.7,240.3,249.5,240.4L249.5,240.4L249.5,240.4z"/></g><path class="st4" d="M252.8,241.3c-1.3-0.3-3.4-0.7-4.7-0.9c1.3-0.6,3.2-1.7,4.3-2.4c-0.9,0.6-2.1,1.5-2.8,2.1   C250.4,240.6,251.8,240.9,252.8,241.3L252.8,241.3z"/><g><path class="st3" d="M252.8,241.3l-1.2-0.2c-1.2-0.2-2.5-0.5-3.5-0.6c1.3-0.7,3.1-1.7,4.2-2.4l0,0c-1.2,0.8-3,1.8-4.2,2.4    c1,0,2.3,0.3,3.5,0.5l0.6,0.1l-0.5-0.2c-0.8-0.2-1.6-0.5-2.1-0.8c0.4-0.5,1.2-1,1.9-1.6l0.7-0.5l-0.7,0.6    c-0.7,0.5-1.5,1.1-1.9,1.5c0.5,0.2,1.3,0.5,2.1,0.7L252.8,241.3L252.8,241.3L252.8,241.3z"/></g><path class="st4" d="M249.2,240.3c0,0,3.8-1.6,3.8-1.6l-4.2,1.1l-0.5,0.5L249.2,240.3z"/><g><path class="st3" d="M249.2,240.3l-0.9,0l0.5-0.6l4.2-1.1C253,238.7,249.3,240.2,249.2,240.3L249.2,240.3L249.2,240.3z M253,238.6    l-4.2,1.2l-0.5,0.5l0.8,0C249.3,240.2,249.9,239.9,253,238.6L253,238.6z"/></g><path class="st4" d="M252.6,241.8c-1.1-0.5-2.8-1.2-3.9-1.6c0.8-0.8,2-2.2,2.8-3c-0.5,0.9-1.3,1.9-1.6,2.8   C250.6,240.6,251.8,241.2,252.6,241.8L252.6,241.8z"/><g><path class="st3" d="M252.6,241.8l-0.8-0.4c-1-0.4-2.2-1-3.1-1.2c0.8-0.8,2-2.2,2.7-3l0,0c-0.8,1-1.9,2.2-2.7,3    c0.8,0.2,2.1,0.7,3.1,1.2l0.4,0.2l-0.5-0.3c-0.7-0.4-1.3-0.8-1.8-1.2c0.2-0.7,0.7-1.4,1.1-2.1l0.4-0.6L251,238    c-0.4,0.7-0.9,1.4-1.1,2c0.5,0.4,1.2,0.8,1.8,1.2L252.6,241.8L252.6,241.8L252.6,241.8z"/></g><path class="st4" d="M249.4,240.6c0,0,3-1.3,3-1.3l-3.2,0.4l-0.4,0.6L249.4,240.6z"/><g><path class="st3" d="M249.4,240.6l-0.7-0.3l0.4-0.6l3.3-0.5C251.2,239.8,249.5,240.5,249.4,240.6L249.4,240.6L249.4,240.6z     M252.3,239.2l-3.2,0.5l-0.4,0.6l0.6,0.2C249.5,240.5,250,240.2,252.3,239.2L252.3,239.2z"/></g><path class="st4" d="M246.9,268.5c0,0-6.2,0-6.2,0l6.3,1.5l1-0.7L246.9,268.5z"/><g><path class="st3" d="M247,270.1l-6.3-1.5c1.7-0.1,6-0.1,6.2-0.1l1.1,0.9L247,270.1L247,270.1z M246.9,268.5c0,0-0.6,0.1-6.2,0.1    l6.3,1.5l1-0.7L246.9,268.5L246.9,268.5z"/></g><path class="st4" d="M248,268.9c0,0-6.3-1.5-6.3-1.5l6,3l1.2-0.4L248,268.9z"/><g><path class="st3" d="M247.7,270.4L247.7,270.4l-6-3c2.1,0.4,6.1,1.4,6.3,1.4l1,1.1L247.7,270.4L247.7,270.4z M241.7,267.5l6,2.9    l1.2-0.4l-0.9-1.1l0,0C247.7,268.9,242,267.5,241.7,267.5L241.7,267.5z"/></g><path class="st4" d="M249,269.3c0,0-6.2-0.3-6.2-0.3l6.2,1.9l1.1-0.6L249,269.3z"/><g><path class="st3" d="M249,270.9l-6.3-1.9c0-0.1,5.5,0.2,6.2,0.2l1.2,1L249,270.9L249,270.9z M242.8,269l6.2,1.8l1-0.6l-1.1-0.9    C248,269.2,242.8,269,242.8,269L242.8,269z"/></g><path class="st4" d="M245.1,264.9c1.6,1.8,4,4.6,5.7,6.2c-2.1,0.3-5.2,1.2-7.2,1.7c1.6-0.7,3.8-1.6,5-2.5   C247.8,268.7,246.1,266.6,245.1,264.9L245.1,264.9z"/><g><path class="st3" d="M243.6,272.8L243.6,272.8L243.6,272.8L243.6,272.8L243.6,272.8L243.6,272.8l1.4-0.7c1.3-0.6,2.7-1.2,3.5-1.8    c-0.6-1.1-1.5-2.3-2.3-3.6c-0.4-0.6-0.9-1.2-1.2-1.8l1.3,1.4c1.5,1.6,3.2,3.6,4.5,4.8c-2,0.4-5,1.2-7,1.7l-0.1,0L243.6,272.8    L243.6,272.8z M245,264.9c0.4,0.5,0.9,1.1,1.3,1.8c0.9,1.2,1.8,2.5,2.3,3.6c-0.9,0.7-2.3,1.3-3.6,1.9l-1,0.5    c2-0.5,4.8-1.3,6.8-1.6c-1.3-1.1-3.1-3.1-4.5-4.7L245,264.9L245,264.9z"/></g><path class="st4" d="M249.9,269.6c0,0-6.2-2-6.2-2l5.9,3.5l1.2-0.3L249.9,269.6z"/><g><path class="st3" d="M249.5,271.1L249.5,271.1l-5.9-3.5c2.1,0.6,6.1,2,6.2,2l0.9,1.2L249.5,271.1L249.5,271.1z M243.6,267.6    l5.9,3.4l1.2-0.3l-0.9-1.1l0,0C249.7,269.6,244.3,267.8,243.6,267.6L243.6,267.6z"/></g><path class="st4" d="M245.6,265.3c1.8,1.6,4.4,4.2,6.3,5.6c-2,0.6-5,1.8-6.8,2.6c1.4-0.9,3.5-2.1,4.6-3.1   C248.7,268.8,246.9,266.9,245.6,265.3L245.6,265.3z"/><g><path class="st3" d="M245.1,273.5L245.1,273.5L245.1,273.5L245.1,273.5l1.3-0.9c1.2-0.8,2.5-1.5,3.3-2.3c-0.6-1-1.7-2.2-2.6-3.3    c-0.5-0.6-1-1.2-1.4-1.7l1.6,1.3c1.6,1.5,3.4,3.2,4.7,4.2c-2,0.6-4.9,1.8-6.7,2.6L245.1,273.5L245.1,273.5L245.1,273.5z     M245.6,265.3c0.5,0.5,1,1.1,1.5,1.7c1,1.1,2,2.3,2.6,3.3c-0.8,0.8-2.1,1.6-3.3,2.3l-0.9,0.6c1.8-0.8,4.6-1.9,6.4-2.4    c-1.4-1-3.2-2.7-4.8-4.1L245.6,265.3L245.6,265.3z"/></g><path class="st4" d="M250.4,270c0,0-5.9,1.2-5.9,1.2l6.2,0.4l0.9-0.9L250.4,270z"/><g><path class="st3" d="M250.7,271.6L250.7,271.6l-6.2-0.4c1.6-0.4,5.7-1.2,5.9-1.2l1.2,0.7L250.7,271.6L250.7,271.6z M250.4,270    c0,0-0.5,0.1-5.9,1.2l6.2,0.3l0.9-0.9L250.4,270L250.4,270z"/></g><path class="st4" d="M249.2,269.6c0,0-6.2,0.5-6.2,0.5l6.4,1.1l1-0.7L249.2,269.6z"/><g><path class="st3" d="M249.4,271.2l-6.4-1.1c1.7-0.2,6-0.5,6.2-0.5l1.2,0.8L249.4,271.2L249.4,271.2z M249.1,269.7    c0,0-0.6,0.1-6.2,0.5l6.3,1l1-0.7L249.1,269.7L249.1,269.7z"/></g><path class="st4" d="M250.3,270c0,0-6.4-1-6.4-1l6.2,2.5l1.2-0.5L250.3,270z"/><g><path class="st3" d="M250.2,271.5L250.2,271.5l-6.3-2.5c0.1-0.1,6.1,1,6.4,0.9l1.1,1.1L250.2,271.5L250.2,271.5z M243.9,269    l6.2,2.5l1.1-0.5l-1-1c0,0,0,0,0,0C249.9,270,244.2,269,243.9,269L243.9,269z"/></g><path class="st4" d="M251.4,270.3c0,0-6.3,0.1-6.3,0.1l6.4,1.4l1-0.7L251.4,270.3z"/><g><path class="st3" d="M251.5,271.9l-6.4-1.4c1.7-0.1,6.1-0.2,6.2-0.2l1.2,0.9L251.5,271.9L251.5,271.9z M251.3,270.3    c0,0-0.6,0.1-6.2,0.1l6.4,1.4l1-0.7L251.3,270.3L251.3,270.3z"/></g><path class="st4" d="M247.1,266.2c1.8,1.7,4.4,4.3,6.2,5.8c-2.1,0.5-5.1,1.5-7,2.2c1.5-0.8,3.6-1.8,4.8-2.8   C250.1,269.7,248.3,267.8,247.1,266.2L247.1,266.2z"/><g><path class="st3" d="M246.3,274.2L246.3,274.2L246.3,274.2L246.3,274.2L246.3,274.2l1.4-0.8c1.3-0.7,2.5-1.3,3.4-2    c-0.6-1-1.6-2.2-2.6-3.4c-0.5-0.6-1-1.2-1.4-1.7l1.5,1.4c1.6,1.5,3.4,3.3,4.7,4.4c-2,0.5-5,1.5-6.9,2.2L246.3,274.2L246.3,274.2    L246.3,274.2z M247,266.2c0.5,0.5,0.9,1.1,1.4,1.7c0.9,1.2,1.9,2.4,2.6,3.4c-0.8,0.7-2.1,1.4-3.4,2.1l-1,0.6    c1.9-0.7,4.7-1.6,6.6-2c-1.4-1-3.2-2.8-4.7-4.3L247,266.2L247,266.2z"/></g><path class="st4" d="M252.2,270.6c0,0-6.4-1.6-6.4-1.6l6.1,3.1l1.2-0.3L252.2,270.6z"/><g><path class="st3" d="M252,272.1l-6.1-3.1c2.1,0.5,6.2,1.5,6.4,1.5l1,1.1L252,272.1L252,272.1z M245.8,269l6.1,3l1.2-0.3l-1-1.1    l0,0C252,270.6,246.1,269.1,245.8,269L245.8,269z"/></g><path class="st4" d="M247.7,266.6c1.9,1.5,4.7,3.9,6.7,5.1c-2,0.7-4.8,2.2-6.6,3c1.3-1,3.3-2.3,4.4-3.4   C251,269.8,249,268,247.7,266.6L247.7,266.6z"/><g><path class="st3" d="M247.7,274.8L247.7,274.8L247.7,274.8L247.7,274.8l1.3-1c1.1-0.8,2.3-1.7,3-2.5c-0.7-1-1.8-2.1-2.9-3.2    c-0.5-0.5-1.1-1.1-1.5-1.6l1.7,1.3c1.7,1.3,3.6,2.9,5,3.8c-1.9,0.7-4.5,2.1-6.3,3L247.7,274.8L247.7,274.8z M247.7,266.6    c0.5,0.4,1,1,1.6,1.5c1.1,1.1,2.2,2.2,2.9,3.2c-0.7,0.8-1.9,1.7-3.1,2.5l-1,0.7c1.8-0.9,4.4-2.2,6.2-2.8c-1.4-0.9-3.4-2.4-5-3.8    L247.7,266.6L247.7,266.6z"/></g><path class="st4" d="M252.8,270.9c0,0-5.8,1.6-5.8,1.6l6.3,0l0.8-0.9L252.8,270.9z"/><g><path class="st3" d="M247,272.5L247,272.5c1.6-0.5,5.7-1.6,5.8-1.6l1.3,0.6l-0.8,1L247,272.5L247,272.5z M252.8,270.9    c0,0-0.6,0.2-5.5,1.5l6,0l0.8-0.9L252.8,270.9L252.8,270.9z"/></g><polygon class="st6" points="262.7,262.9 256,258.3 249.4,262.9 251.9,255.6 246,251 253.5,251 256,243.7 258.5,251 266,251    260.2,255.6  "/><g><path class="st3" d="M262.7,263l-6.7-4.7l-6.6,4.6l2.4-7.4L246,251l7.5-0.1l2.5-7.3l2.6,7.3l7.4,0l-5.8,4.7L262.7,263L262.7,263z     M256,243.7l-2.4,7.3l-7.5,0l5.8,4.5l-2.5,7.4l6.6-4.6l6.6,4.5l-2.5-7.2l5.8-4.6l-7.4,0.1L256,243.7L256,243.7z"/></g><path class="st7" d="M280.8,261.8l2.1,0.8l3.6-0.6l-0.3,0.7l-1.9,0.3c-0.3,0.1-0.7,0.1-1,0.1c0.2,0.2,0.5,0.5,0.7,0.8l1.2,1.4   l-0.3,0.7l-2.2-2.9l-2.1-0.8L280.8,261.8z"/><path class="st7" d="M286.8,253.6l0.1,0.6l-3.1,0.3c-0.5,0.1-1,0.1-1.3,0c-0.3-0.1-0.6-0.2-0.8-0.5c-0.2-0.3-0.4-0.6-0.4-1.1   c0-0.4,0-0.8,0.1-1.1c0.1-0.3,0.4-0.5,0.7-0.7c0.3-0.2,0.8-0.3,1.3-0.3l3.1-0.3l0.1,0.6l-3.1,0.3c-0.5,0-0.8,0.1-1,0.2   c-0.2,0.1-0.4,0.2-0.5,0.4c-0.1,0.2-0.1,0.4-0.1,0.7c0,0.5,0.2,0.8,0.5,0.9c0.3,0.2,0.7,0.2,1.4,0.1L286.8,253.6z"/><path class="st7" d="M282.5,247.3l0.6-0.1l0.4,2l-2,0.4c-0.3-0.3-0.6-0.5-0.8-0.8c-0.2-0.3-0.3-0.6-0.4-1c-0.1-0.5-0.1-0.9,0.1-1.3   c0.1-0.4,0.4-0.8,0.8-1c0.4-0.3,0.8-0.5,1.4-0.6c0.5-0.1,1-0.1,1.5,0c0.5,0.1,0.9,0.3,1.2,0.6c0.3,0.3,0.5,0.7,0.6,1.2   c0.1,0.3,0.1,0.7,0,1c-0.1,0.3-0.2,0.5-0.4,0.7c-0.2,0.2-0.4,0.4-0.8,0.5l-0.3-0.5c0.3-0.1,0.4-0.3,0.6-0.4   c0.1-0.1,0.2-0.3,0.3-0.5c0-0.2,0.1-0.4,0-0.7c-0.1-0.3-0.2-0.5-0.3-0.7c-0.1-0.2-0.3-0.3-0.5-0.4c-0.2-0.1-0.4-0.2-0.6-0.2   c-0.3,0-0.7,0-1.1,0c-0.5,0.1-0.9,0.3-1.1,0.5c-0.3,0.2-0.5,0.5-0.6,0.8c-0.1,0.3-0.1,0.6,0,0.9c0,0.3,0.2,0.5,0.3,0.8   c0.2,0.2,0.3,0.4,0.5,0.5l1-0.2L282.5,247.3z"/><polygon class="st7" points="259.9,230.3 260.8,225 261.4,225.1 260.6,229.8 262.9,230.2 262.8,230.8  "/><polygon class="st7" points="254.6,229.9 254.6,224.5 258.1,224.5 258.1,225.2 255.3,225.2 255.3,226.8 257.9,226.8 257.9,227.5    255.3,227.5 255.3,229.3 258.2,229.3 258.2,229.9  "/><path class="st7" d="M239.7,233.3l0.6-0.3c0.3,0.5,0.4,1,0.3,1.5c-0.1,0.5-0.3,0.8-0.7,1.2c-0.4,0.3-0.8,0.5-1.2,0.6   c-0.4,0-0.8-0.1-1.2-0.3c-0.4-0.2-0.8-0.5-1.1-0.9c-0.4-0.4-0.6-0.9-0.7-1.3c-0.1-0.4-0.1-0.9,0-1.3c0.1-0.4,0.3-0.7,0.7-1   c0.4-0.3,0.8-0.5,1.2-0.5c0.4,0,0.9,0.1,1.3,0.4l-0.4,0.5c-0.3-0.2-0.6-0.3-0.9-0.3c-0.3,0-0.5,0.1-0.8,0.3   c-0.3,0.2-0.4,0.5-0.5,0.8c-0.1,0.3,0,0.6,0.1,0.9c0.1,0.3,0.3,0.6,0.6,0.9c0.3,0.3,0.6,0.6,0.9,0.8c0.3,0.2,0.6,0.3,0.9,0.2   c0.3,0,0.6-0.1,0.8-0.3c0.3-0.2,0.4-0.5,0.5-0.8C240,234.1,239.9,233.7,239.7,233.3L239.7,233.3z"/><polygon class="st7" points="237.4,238.1 233.4,234.5 233.9,234 237.9,237.6  "/><polygon class="st7" points="234.8,241.1 230.6,237.8 231,237.3 234.7,240.2 236.2,238.4 236.7,238.8  "/><path class="st7" d="M226.8,244.3l0.2-0.6l2.9,1.1c0.5,0.2,0.9,0.4,1.1,0.6c0.3,0.2,0.4,0.5,0.5,0.8c0.1,0.3,0,0.7-0.1,1.1   c-0.2,0.4-0.4,0.7-0.6,0.9c-0.3,0.2-0.6,0.3-0.9,0.3c-0.4,0-0.8-0.1-1.3-0.3l-2.9-1.1l0.2-0.6l2.9,1.1c0.4,0.2,0.8,0.3,1,0.3   c0.2,0,0.4,0,0.6-0.2c0.2-0.1,0.3-0.3,0.4-0.6c0.2-0.4,0.2-0.8,0-1.1c-0.1-0.3-0.5-0.5-1.2-0.8L226.8,244.3z"/><polygon class="st7" points="230,257.4 224.6,257.4 224.6,253.9 225.2,253.9 225.2,256.8 226.9,256.8 226.9,254.1 227.5,254.1    227.5,256.7 229.3,256.7 229.3,253.8 230,253.8  "/><path class="st7" d="M250.1,230.7l-1.1-5.3l1.6-0.3c0.4-0.1,0.6-0.1,0.9-0.1c0.3,0,0.5,0.1,0.8,0.2c0.3,0.2,0.5,0.5,0.7,0.8   c0.2,0.3,0.3,0.7,0.4,1.2c0.1,0.4,0.1,0.8,0.1,1.1c0,0.3-0.1,0.6-0.2,0.8c-0.1,0.2-0.2,0.4-0.3,0.6c-0.1,0.2-0.3,0.3-0.5,0.4   c-0.2,0.1-0.5,0.2-0.7,0.2L250.1,230.7z M250.6,230l1-0.2c0.3-0.1,0.5-0.1,0.7-0.2c0.2-0.1,0.3-0.2,0.4-0.4   c0.1-0.2,0.2-0.4,0.2-0.7c0-0.3,0-0.6-0.1-1c-0.1-0.6-0.3-1-0.5-1.2c-0.2-0.3-0.4-0.4-0.7-0.5c-0.2,0-0.5,0-0.8,0l-1,0.2L250.6,230   z"/><path class="st7" d="M267.5,232.9l2.5-4.8l1.6,0.8c0.3,0.2,0.5,0.3,0.6,0.4c0.2,0.1,0.3,0.3,0.4,0.5c0.1,0.2,0.1,0.4,0.1,0.6   c0,0.2-0.1,0.5-0.2,0.7c-0.2,0.4-0.5,0.7-0.9,0.9c-0.4,0.2-0.9,0.1-1.5-0.2l-1.1-0.6l-1,1.9L267.5,232.9z M269.4,230.6l1.1,0.6   c0.4,0.2,0.7,0.3,0.9,0.2c0.2-0.1,0.4-0.2,0.6-0.5c0.1-0.2,0.1-0.4,0.1-0.6c0-0.2-0.1-0.3-0.2-0.5c-0.1-0.1-0.3-0.2-0.5-0.3   l-1.1-0.6L269.4,230.6z"/><path class="st7" d="M270.3,234.3l5-2.8l0.5,0.5l-2.2,5.3l-0.5-0.5l0.7-1.6l-1.5-1.3l-1.5,0.9L270.3,234.3z M272.8,233.5l1.2,1.1   l0.6-1.4c0.2-0.4,0.4-0.8,0.5-1.1c-0.3,0.2-0.6,0.4-0.9,0.6L272.8,233.5z"/><path class="st7" d="M274.1,237.9l4.3-3.3l1.3,1.7c0.3,0.3,0.4,0.6,0.5,0.9c0,0.2,0,0.5-0.1,0.7c-0.1,0.3-0.3,0.5-0.5,0.6   c-0.3,0.2-0.6,0.3-1,0.3c-0.3,0-0.7-0.2-1-0.5c0,0.2,0,0.3,0,0.5c0,0.3-0.1,0.6-0.3,0.9l-0.7,1.6l-0.5-0.6l0.5-1.2   c0.1-0.3,0.3-0.6,0.3-0.8c0.1-0.2,0.1-0.4,0.1-0.5c0-0.1,0-0.2-0.1-0.3c0-0.1-0.1-0.2-0.2-0.3l-0.4-0.6l-1.9,1.5L274.1,237.9z    M276.9,236.6l0.8,1.1c0.2,0.2,0.3,0.4,0.5,0.5c0.2,0.1,0.3,0.1,0.5,0.1c0.2,0,0.3-0.1,0.5-0.2c0.2-0.2,0.3-0.3,0.3-0.6   c0-0.2-0.1-0.5-0.3-0.8l-0.9-1.2L276.9,236.6z"/><path class="st7" d="M277,241.6l5.6-1l0.3,0.6l-3.8,4.3l-0.3-0.6l1.2-1.3l-1-1.7l-1.7,0.3L277,241.6z M279.6,241.7l0.8,1.4l1.1-1.2   c0.3-0.4,0.6-0.6,0.8-0.8c-0.3,0.1-0.7,0.2-1,0.3L279.6,241.7z"/><path class="st7" d="M281.8,255.5l5.2,2.4l-0.1,0.7l-5.6,1.4l0.1-0.7l1.7-0.4l0.2-2l-1.6-0.7L281.8,255.5z M283.8,257.1l-0.2,1.6   l1.5-0.3c0.5-0.1,0.9-0.2,1.2-0.2c-0.3-0.1-0.7-0.2-1-0.4L283.8,257.1z"/><path class="st7" d="M230.8,262.3l-5.3,1.2l-0.5-2.1c-0.1-0.4-0.1-0.7-0.1-1c0-0.2,0.2-0.4,0.4-0.6c0.2-0.2,0.5-0.3,0.7-0.4   c0.4-0.1,0.7,0,1,0.1c0.3,0.2,0.5,0.5,0.7,0.9c0.1-0.2,0.1-0.3,0.2-0.4c0.2-0.2,0.3-0.4,0.6-0.7l1.3-1.1l0.2,0.8l-1,0.9   c-0.3,0.3-0.5,0.5-0.6,0.6c-0.1,0.2-0.2,0.3-0.3,0.4c0,0.1-0.1,0.2-0.1,0.3c0,0.1,0,0.2,0,0.3l0.2,0.7l2.3-0.5L230.8,262.3z    M227.8,262.3l-0.3-1.3c-0.1-0.3-0.1-0.5-0.3-0.6c-0.1-0.1-0.2-0.2-0.4-0.3c-0.2,0-0.3-0.1-0.5,0c-0.3,0.1-0.4,0.2-0.6,0.4   c-0.1,0.2-0.1,0.5-0.1,0.8l0.3,1.5L227.8,262.3z"/><path class="st7" d="M230.2,252.6l-5.4-0.5l0.2-1.8c0-0.3,0.1-0.6,0.1-0.7c0.1-0.2,0.2-0.4,0.3-0.6c0.1-0.2,0.3-0.3,0.6-0.3   c0.2-0.1,0.5-0.1,0.7-0.1c0.5,0,0.8,0.2,1.1,0.5c0.3,0.3,0.4,0.8,0.3,1.4l-0.1,1.2l2.2,0.2L230.2,252.6z M227.4,251.7l0.1-1.2   c0-0.4,0-0.7-0.2-0.9c-0.2-0.2-0.4-0.3-0.7-0.3c-0.2,0-0.4,0-0.6,0.1c-0.2,0.1-0.3,0.2-0.3,0.4c0,0.1-0.1,0.3-0.1,0.6l-0.1,1.2   L227.4,251.7z"/><path class="st7" d="M232.4,244.6l-4.5-3l1-1.5c0.2-0.3,0.4-0.5,0.6-0.6c0.2-0.1,0.5-0.2,0.7-0.2c0.3,0,0.5,0.1,0.7,0.2   c0.2,0.1,0.3,0.3,0.4,0.5c0.1,0.2,0.2,0.4,0.1,0.7c0.2-0.2,0.5-0.3,0.8-0.3c0.3,0,0.5,0.1,0.8,0.3c0.2,0.1,0.4,0.3,0.5,0.5   c0.1,0.2,0.2,0.4,0.2,0.6c0,0.2,0,0.4-0.1,0.6c-0.1,0.2-0.2,0.4-0.3,0.7L232.4,244.6z M230.2,242.4l0.6-0.9   c0.2-0.2,0.3-0.4,0.3-0.5c0-0.2,0-0.3,0-0.5c-0.1-0.1-0.2-0.3-0.3-0.4c-0.1-0.1-0.3-0.2-0.5-0.2c-0.2,0-0.3,0-0.4,0.1   c-0.1,0.1-0.3,0.3-0.5,0.6l-0.5,0.8L230.2,242.4z M232.3,243.7l0.7-1c0.1-0.2,0.2-0.3,0.2-0.4c0-0.1,0.1-0.3,0.1-0.4   c0-0.1,0-0.2-0.1-0.4c-0.1-0.1-0.2-0.2-0.3-0.3c-0.2-0.1-0.3-0.2-0.5-0.2c-0.2,0-0.3,0-0.5,0.1c-0.1,0.1-0.3,0.3-0.5,0.5l-0.6,0.9   L232.3,243.7z"/><path class="st7" d="M241.3,234.3l-1.3-5.5l0.6-0.4l4.5,3.5l-0.6,0.4l-1.3-1.1l-1.7,1.1l0.4,1.7L241.3,234.3z M241.3,231.7l1.4-0.9   l-1.2-1c-0.4-0.3-0.7-0.6-0.9-0.8c0.1,0.3,0.2,0.7,0.3,1L241.3,231.7z"/></g></svg>