<?xml version="1.0" ?><svg id="Layer_1" style="enable-background:new 0 0 512 512;" version="1.1" viewBox="0 0 512 512" xml:space="preserve" xmlns="http://www.w3.org/2000/svg" xmlns:xlink="http://www.w3.org/1999/xlink"><style type="text/css">
	.st0{fill:#FFFFFF;}
	.st1{fill:#3E73B7;}
	.st2{fill-rule:evenodd;clip-rule:evenodd;fill:#EAC126;}
	.st3{fill:#292C2F;}
	.st4{fill-rule:evenodd;clip-rule:evenodd;fill:#292C2F;}
</style><g><rect class="st0" height="298.7" width="512" y="106.7"/><path class="st1" d="M0,372.2h512V339H0V372.2z M0,305.8h512v-33.2H0V305.8z M166,239.4h346v-33.2H166V239.4z M166,173h346v-33.2   H166V173z"/><path class="st2" d="M83.2,189.9l1.4,24.5c-22.6,16.4-8.7,26-25,31.3c11.1-11.1-3.4-11.1,9.1-36.1"/><path class="st3" d="M83.7,189.9l1.4,24.5h-1l-1.9-24.5H83.7z M85.2,214.4L85.2,214.4v0.5l-0.5-0.5H85.2z M85.2,214.9   c-12,8.7-13.5,15.4-14.9,20.2h-1.4c1.4-5.3,3.4-12.5,15.4-21.2L85.2,214.9z M70.2,235.1c-1.4,5.3-2.4,8.7-10.1,11.1l-0.5-1   c7.2-2.4,8.2-5.8,9.1-10.1H70.2z M60.1,246.1l-2.4,1l1.4-1.4h0.5L60.1,246.1z M59.2,245.7c4.8-5.3,4.8-8.2,3.9-12h1.4   c0.5,3.8,1,7.2-4.3,12.5L59.2,245.7z M63,233.6c-0.5-4.8-1.4-11.1,5.3-24.1l1,0.5c-6.3,13-5.8,18.8-4.8,23.6H63z"/><path class="st3" d="M75.5,208.6c-5.8,10.1-7.2,17.8-7.7,24.1l-1.4-0.5c1-5.8,2.4-13.9,8.2-24.1L75.5,208.6z M67.8,232.7   c-1,6.3-1.9,11.1-7.7,13.5l-0.5-1c5.3-2.4,5.8-6.7,6.7-13L67.8,232.7z"/><path class="st2" d="M83.2,189.9l-1.9-25c22.6-16.4,8.7-26,25-31.3c-10.6,11.6,3.4,11.6-9.1,36.1"/><path class="st3" d="M82.3,189.9l-1.4-24.5l1-0.5l1.9,25H82.3z M80.8,165.3v-0.5h0.5L80.8,165.3z M80.8,164.9   c12-8.7,14-15.4,14.9-20.7l1.4,0.5c-1.4,5.3-3.4,12-15.4,20.7L80.8,164.9z M95.7,144.2c1.4-4.8,2.4-8.7,10.1-11.1l0.5,1   c-7.2,2.4-8.2,5.8-9.1,10.6L95.7,144.2z M105.8,133.1l2.4-0.5l-1.4,1.4l-0.5-0.5L105.8,133.1z M106.8,134.1   c-4.8,5.3-4.8,7.7-3.8,11.6l-1.4,0.5c-0.5-4.3-1-7.2,4.3-13L106.8,134.1z M103,145.6c0.5,4.8,1.4,11.1-5.3,24.5l-1-0.5   c6.3-13,5.8-19.2,4.8-23.6L103,145.6z"/><path class="st3" d="M90.4,170.6c5.8-10.1,7.2-17.8,8.2-23.6h1c-1,6.3-2.4,13.9-8.2,24L90.4,170.6z M98.6,147.1   c1-6.7,1.4-11.1,7.2-14l0.5,1c-5.3,2.4-5.8,6.7-6.7,13H98.6z"/><path class="st2" d="M83.2,189.9l-25,1.4c-16.4-22.6-26-8.7-31.3-25c11.5,11.1,11.1-2.9,36.1,9.1"/><path class="st3" d="M83.2,190.3l-25,1.9v-1.4l24.5-1.4L83.2,190.3z M58.2,192.3L58.2,192.3l-0.5-0.5l0.5-0.5V192.3z M57.7,191.8   c-8.2-12-14.9-13.5-20.2-14.9v-1c5.8,1.4,12.5,2.9,21.2,15.4L57.7,191.8z M37.5,176.9c-4.8-1.4-8.7-2.4-11.1-10.1l1-0.5   c2.4,7.2,5.8,8.2,10.1,9.6V176.9z M26.5,166.8l-1-1.9l1.9,1.4h-0.5L26.5,166.8z M27.4,166.3c5.3,4.8,7.7,4.3,11.5,3.8l0.5,1   c-4.3,0.5-7.2,1-13-4.3L27.4,166.3z M39,170.1c4.8-1,11.1-1.9,24.5,4.8l-1,1c-13-6.3-18.8-5.3-23.1-4.8L39,170.1z"/><path class="st3" d="M64,182.6c-10.1-6.3-17.8-7.2-23.6-8.2V173c6.3,1,14,2.4,24.1,8.7L64,182.6z M40.4,174.5   c-6.7-1-11.1-1.9-14-7.7l1-0.5c2.4,5.3,6.7,6.3,13,6.7V174.5z"/><path class="st2" d="M83.2,189.9l24.5-1.9c16.4,22.6,26,9.1,31.3,25c-11.5-10.6-11.1,3.4-36.1-9.1"/><path class="st3" d="M82.7,189.4l25-1.9v1l-24.5,1.9L82.7,189.4z M107.8,187.5L107.8,187.5h0.5l-0.5,0.5V187.5z M108.2,187.5   c8.2,12,14.9,13.9,20.2,15.4v1c-5.8-1.4-12.5-3.4-21.2-15.4L108.2,187.5z M128.5,202.8c4.8,1,8.7,1.9,11.1,10.1h-1   c-2.4-7.2-5.8-8.2-10.1-9.1V202.8z M139.5,213l1,1.9l-1.9-1.4l0.5-0.5H139.5z M138.6,213.4c-4.8-4.8-7.7-4.3-11.5-3.9l-0.5-1   c4.3-1,7.2-1.4,13,3.8L138.6,213.4z M127,209.6c-4.8,0.5-11.1,1.4-24.1-5.3l0.5-1c13,6.7,18.8,5.8,23.1,5.3L127,209.6z"/><path class="st3" d="M102,197.1c10.1,5.8,17.8,7.2,24.1,8.2l-0.5,1c-5.8-1-14-1.9-24.1-8.2L102,197.1z M126,205.3   c6.3,1,10.6,1.4,13.5,7.7l-1,0.5c-2.4-5.8-6.7-6.3-13-7.2L126,205.3z"/><path class="st2" d="M83.2,189.9l-16.4,18.8c-27.9-4.8-25,12-39.9,4.3c15.9-0.5,5.8-10.1,31.7-19.2"/><path class="st3" d="M83.2,189.9l-15.9,18.8l-1-0.5l16.3-18.8L83.2,189.9z M67.4,208.6l-0.5,0.5v-0.5H67.4z M66.9,209.1   c-14.4-2.4-20.7,1-25,3.9l-1-1c4.8-2.9,11.1-6.7,26-4.3V209.1z M41.9,213c-4.3,2.4-7.7,4.3-15.4,0.5l0.5-1c7.2,3.4,10.1,1.9,14-0.5   L41.9,213z M26.5,213.4l-1.9-1h2.4v0.5L26.5,213.4z M26.9,212.5c7.2-0.5,8.7-2.4,11.1-5.8l1,1c-2.4,3.4-4.3,5.8-12,5.8V212.5z    M38,206.7c2.9-3.8,6.7-8.7,20.7-13.5l0.5,1c-14,4.8-17.8,9.6-20.2,13.5L38,206.7z"/><path class="st3" d="M64.5,198c-11.5,2.9-17.8,7.7-22.6,11.1l-0.5-1c4.8-3.4,11.1-8.2,22.6-11.1L64.5,198z M41.9,209.1   c-5.3,3.9-8.7,6.7-14.9,4.3v-1c5.8,1.9,9.1-0.5,14.4-4.3L41.9,209.1z"/><path class="st2" d="M83.2,189.9l15.9-18.8c27.9,4.3,25-12.5,39.9-4.8c-15.9,0.5-5.8,10.6-31.8,19.2"/><path class="st3" d="M82.7,189.4l15.9-18.8l1,1l-16.4,18.3L82.7,189.4z M98.6,170.6h0.5v0.5L98.6,170.6z M99.1,170.6   c14.4,2.4,20.7-1.4,25-3.8l1,1c-4.8,2.9-11.1,6.3-26,3.8V170.6z M124.1,166.8c4.8-2.9,7.7-4.3,15.4-1l-0.5,1   c-7.2-3.4-10.1-1.4-14,1L124.1,166.8z M139.5,165.8l1.9,1l-2.4,0.5v-1L139.5,165.8z M139,167.3c-7.2,0-8.7,2.4-11.1,5.3l-1-0.5   c2.9-3.4,4.3-5.8,12-6.3V167.3z M128,172.5c-2.9,3.8-6.7,8.7-20.7,13.5l-0.5-1c14-4.3,17.8-9.6,20.2-13L128,172.5z"/><path class="st3" d="M101.5,181.2c11.5-2.4,17.8-7.2,22.6-11.1l0.5,1c-4.8,3.8-11.1,8.7-22.6,11.5L101.5,181.2z M124.1,170.1   c5.3-3.8,9.1-6.3,14.9-4.3v1c-5.8-1.9-9.1,1-14.4,4.3L124.1,170.1z"/><path class="st2" d="M83.2,189.9l-18.8-16.4c4.3-27.9-12.5-25-4.8-39.9c0.5,15.9,10.6,5.8,19.2,31.8"/><path class="st3" d="M82.7,190.3L64,174l1-1l18.3,16.4L82.7,190.3z M64,174L64,174v-0.5h0.5L64,174z M64,173.5   c1.9-14.4-1.4-20.7-3.8-25l1-0.5c2.4,4.8,6.3,10.6,3.8,25.5H64z M60.1,148.5c-2.9-4.3-4.8-7.7-1-14.9l1,0.5c-3.4,6.7-1.4,9.6,1,14   L60.1,148.5z M59.2,133.6l1-1.9v1.9h-0.5H59.2z M60.1,133.6c0.5,7.2,2.4,8.7,5.8,11.1l-0.5,1c-3.4-2.4-5.8-4.3-6.3-12H60.1z    M65.9,144.7c3.8,2.9,8.7,6.7,13.5,20.7l-1,0.5c-4.8-13.9-9.6-17.3-13-20.2L65.9,144.7z"/><path class="st3" d="M74.6,171.1c-2.4-11.5-7.2-17.8-11.1-22.6l1-0.5c3.8,4.8,8.7,11.1,11.5,23.1H74.6z M63.5,148.5   c-3.9-5.3-6.3-8.7-4.3-14.9h1c-1.9,5.8,0.5,9.1,4.3,14.4L63.5,148.5z"/><path class="st2" d="M83.2,189.9l18.3,15.9c-4.3,27.9,12.5,25,4.8,39.9c-0.5-15.4-10.6-5.3-19.2-31.8"/><path class="st3" d="M83.2,189.4l18.8,15.9l-0.5,1l-18.8-15.9L83.2,189.4z M102,205.3l0.5,0.5l-0.5,0.5l-0.5-0.5L102,205.3z    M102,206.2c-1.9,14.4,1.4,20.2,3.8,25l-1,0.5c-2.4-4.8-6.3-11.1-3.8-26L102,206.2z M105.8,231.2c2.9,4.3,4.8,7.7,1,14.9l-1-0.5   c3.4-6.7,1.4-10.1-1-13.9L105.8,231.2z M106.8,246.1l-1,1.9v-2.4h0.5L106.8,246.1z M105.8,245.7c-0.5-6.7-2.4-8.7-5.8-11.1l0.5-0.5   c3.4,2.4,5.8,3.8,6.3,11.5H105.8z M100.1,234.6c-3.8-2.4-8.7-6.3-13.5-20.7h1c4.8,13.5,9.6,17.3,13,20.2L100.1,234.6z"/><path class="st3" d="M91.4,208.1c2.9,11.6,7.2,17.8,11.1,22.6l-1,1c-3.8-5.3-8.7-11.5-11.1-23.1L91.4,208.1z M102.5,230.8   c3.8,5.3,6.3,9.1,4.3,15.4l-1-0.5c1.9-5.8-0.5-9.1-4.3-13.9L102.5,230.8z"/><polyline class="st2" points="83.2,189.9 93.8,189.9 83.2,250.5 72.2,189.9 83.2,189.9 83.2,250.5  "/><path class="st3" d="M83.2,189.4h10.6v1H83.2V189.4z M93.8,189.4h1v0.5h-1V189.4z M94.8,189.9l-11.1,60.6h-1.4l11.1-60.6H94.8z    M83.7,250.5l-0.5,2.9l-1-2.9h1H83.7z M82.3,250.5l-11.1-60.6h1.4l11.1,60.6H82.3z M71.2,189.4h1v0.5h-1V189.4z M72.2,189.4h11.1v1   H72.2V189.4z M83.2,189.4h0.5v0.5h-0.5V189.4z M83.7,250.5h-1.4v-60.6h1.4V250.5z"/><polyline class="st2" points="83.2,189.9 72.2,189.9 83.2,128.8 93.8,189.9 83.2,189.9 83.2,128.8  "/><path class="st3" d="M83.2,190.3H72.2v-1h11.1V190.3z M72.2,190.3h-1v-0.5h1V190.3z M71.2,189.9l11.1-61.1l1.4,0.5l-11.1,60.6H71.2   z M82.3,128.8l1-2.9l0.5,2.9h-0.5H82.3z M83.7,128.8l11.1,61.1h-1.4l-11.1-60.6L83.7,128.8z M94.8,190.3h-1v-0.5h1V190.3z    M93.8,190.3H83.2v-1h10.6V190.3z M83.2,190.3h-1v-0.5h1V190.3z M82.3,128.8h1.4v61.1h-1.4V128.8z"/><polyline class="st2" points="83.2,189.9 83.2,200.9 22.1,189.9 83.2,178.8 83.2,189.9 22.1,189.9  "/><path class="st3" d="M83.7,200.9h-1.4v-11.1h1.4V200.9z M83.7,200.9v0.5h-1l0.5-0.5H83.7z M82.7,201.4l-60.6-11.1l0.5-1l60.6,11.1   L82.7,201.4z M22.1,190.3l-2.9-0.5l2.9-0.5v0.5V190.3z M22.1,189.4l60.6-11.1l0.5,1l-60.6,11.1L22.1,189.4z M82.7,178.3l1-0.5v1   h-0.5L82.7,178.3z M83.7,189.9h-1.4v-11.1h1.4V189.9z M83.7,190.3h-0.5v-0.5h0.5V190.3z M83.2,190.3H22.1v-1h61.1V190.3z"/><polyline class="st2" points="83.2,189.9 83.2,178.8 143.8,189.9 83.2,200.9 83.2,189.9 143.8,189.9  "/><path class="st3" d="M82.3,178.8h1.4v11.1h-1.4V178.8z M82.3,178.8v-1l1,0.5v0.5H82.3z M83.2,178.3l60.6,11.1l-0.5,1l-60.6-11.1   L83.2,178.3z M143.8,189.4l2.9,0.5l-2.9,0.5v-0.5V189.4z M143.8,190.3l-60.6,11.1l-0.5-1l60.6-11.1L143.8,190.3z M83.2,201.4h-1   v-0.5h1V201.4z M82.3,189.9h1.4v11.1h-1.4V189.9z M82.3,189.4h1v0.5h-1V189.4z M83.2,189.4h60.6v1H83.2V189.4z"/><polyline class="st2" points="83.2,189.9 90.9,197.6 39.9,232.7 75.1,181.7 83.2,189.9 39.9,232.7  "/><path class="st3" d="M83.2,189.4l8.2,7.7l-1,1l-7.7-7.7L83.2,189.4z M91.4,197.1l0.5,0.5l-1,0.5v-0.5L91.4,197.1z M90.9,198   l-50.5,35.1l-0.5-1l50.5-35.1L90.9,198z M40.4,233.2l-2.4,1.9l1.4-2.9l0.5,0.5L40.4,233.2z M39.4,232.2l35.1-50.5l1,0.5l-35.1,51   L39.4,232.2z M74.6,181.7l0.5-0.5l0.5,0.5h-0.5H74.6z M75.5,181.7l7.7,7.7l-0.5,1l-8.2-8.2L75.5,181.7z M83.2,189.4l0.5,0.5   l-0.5,0.5v-0.5V189.4z M83.2,190.3l-42.8,42.8l-0.5-1l42.8-42.8L83.2,190.3z"/><polyline class="st2" points="83.2,189.9 75.1,181.7 126,146.6 90.9,197.6 83.2,189.9 126,146.6  "/><path class="st3" d="M82.7,190.3l-8.2-8.2l1-0.5l7.7,7.7L82.7,190.3z M74.6,182.2v-0.5h0.5L74.6,182.2z M75.1,181.7l50.5-35.6   l0.5,1l-50.5,35.1L75.1,181.7z M125.6,146.1l2.4-1.4l-1.4,2.4l-0.5-0.5L125.6,146.1z M126.5,147.1l-35.1,51l-1-1l35.1-50.5   L126.5,147.1z M91.4,198l-0.5,0.5l-0.5-0.5l0.5-0.5L91.4,198z M90.4,198l-7.7-7.7l0.5-1l8.2,7.7L90.4,198z M82.7,190.3l-0.5-0.5   l0.5-0.5l0.5,0.5L82.7,190.3z M82.7,189.4l42.8-42.8l1,0.5l-43.3,43.3L82.7,189.4z"/><polyline class="st2" points="83.2,189.9 75.1,197.6 39.9,146.6 90.9,181.7 83.2,189.9 39.9,146.6  "/><path class="st3" d="M83.2,190.3l-7.7,7.7l-1-1l8.2-7.7L83.2,190.3z M75.5,198l-0.5,0.5l-0.5-0.5l0.5-0.5L75.5,198z M74.6,198   l-35.1-51l1-0.5l35.1,50.5L74.6,198z M39.4,147.1l-1.4-2.4l2.4,1.4l-0.5,0.5L39.4,147.1z M40.4,146.1l50.5,35.6l-0.5,0.5   l-50.5-35.1L40.4,146.1z M90.9,181.7h1l-0.5,0.5L90.9,181.7z M91.4,182.2l-8.2,8.2l-0.5-1l7.7-7.7L91.4,182.2z M83.2,190.3   L83.2,190.3h-0.5l0.5-0.5V190.3z M82.7,190.3l-42.8-43.3l0.5-0.5l42.8,42.8L82.7,190.3z"/><polyline class="st2" points="83.2,189.9 90.9,181.7 126,232.7 75.1,197.6 83.2,189.9 126,232.7  "/><path class="st3" d="M82.7,189.4l7.7-7.7l1,0.5l-8.2,8.2L82.7,189.4z M90.4,181.7l0.5-0.5l0.5,0.5h-0.5H90.4z M91.4,181.7   l35.1,50.5l-1,1l-35.1-51L91.4,181.7z M126.5,232.2l1.4,2.9l-2.4-1.9l0.5-0.5L126.5,232.2z M125.6,233.2L75.1,198l0.5-1l50.5,35.1   L125.6,233.2z M75.1,198l-0.5-0.5v-0.5l0.5,0.5V198z M74.6,197.1l8.2-7.7l0.5,1l-7.7,7.7L74.6,197.1z M82.7,189.4l0.5-0.5v0.5v0.5   L82.7,189.4z M83.2,189.4l43.3,42.8l-1,1l-42.8-42.8L83.2,189.4z"/><path class="st2" d="M103.4,189.9c0-11.5-9.1-20.2-20.2-20.2c-11.5,0-20.7,8.7-20.7,20.2c0,11.1,9.1,20.2,20.7,20.2   C94.3,210.1,103.4,200.9,103.4,189.9"/><path class="st3" d="M102.5,189.9c0-5.8-1.9-10.6-5.8-13.9l1-1c3.8,3.8,6.3,9.1,6.3,14.9H102.5z M96.7,175.9   c-3.4-3.8-8.2-5.8-13.5-5.8v-1.4c5.3,0,10.6,2.4,14.4,6.3L96.7,175.9z M83.2,170.1c-5.8,0-10.6,1.9-14,5.8l-1-1   c3.9-3.8,9.1-6.3,14.9-6.3V170.1z M69.3,175.9c-3.8,3.4-5.8,8.2-5.8,13.9h-1.4c0-5.8,2.4-11.1,6.3-14.9L69.3,175.9z M63.5,189.9   c0,5.3,1.9,10.1,5.8,13.9l-1,0.5c-3.8-3.8-6.3-8.7-6.3-14.4H63.5z M69.3,203.8c3.4,3.4,8.2,5.8,14,5.8v1c-5.8,0-11.1-2.4-14.9-6.3   L69.3,203.8z M83.2,209.6c5.3,0,10.1-2.4,13.5-5.8l1,0.5c-3.9,3.8-9.1,6.3-14.4,6.3V209.6z M96.7,203.8c3.8-3.8,5.8-8.7,5.8-13.9   h1.4c0,5.8-2.4,10.6-6.3,14.4L96.7,203.8z"/><path class="st4" d="M97.7,181.7c-1,1.4-1.9-1-6.3-1c-4.8,0-5.3,2.4-6.3,1.9c-0.5-0.5,3.9-3.8,5.3-3.8   C91.9,178.3,96.2,179.8,97.7,181.7"/><path class="st4" d="M92.4,183.1c1.4,1.4,0.5,3.8-1,3.8c-1.4,0-3.8-2.4-2.4-3.8"/><path class="st4" d="M86.6,185.1c0-2.4,1.9-2.9,4.8-2.9c2.9,0,4.3,2.4,5.3,2.9c-1,0-2.4-1.9-5.3-1.9   C88.5,183.1,88.5,183.1,86.6,185.1"/><path class="st4" d="M87.1,185.5c0.5-1,1.4,1,3.8,1c1.9,0,2.9-0.5,4.3-1.4c1-1-1.9,2.4-3.8,2.4S86.6,186,87.1,185.5"/><path class="st4" d="M93.3,186.5c2.4-1,1-2.9,0-3.4C93.8,183.6,95.3,185.5,93.3,186.5"/><path class="st4" d="M83.2,197.6c1,0,1.4-0.5,2.9-0.5c1.4,0,4.8,2.4,6.7,1.4c-4.3,1.9-2.4,0.5-9.6,0.5h-1"/><path class="st4" d="M93.8,200.4c-1-1.4-0.5-1-2.4-3.4C93.3,198.5,93.3,199,93.8,200.4"/><path class="st4" d="M83.2,201.9c4.3,0,3.9-1,9.6-3.4c-4.3,0.5-5.3,1.9-9.6,1.9h-1"/><path class="st4" d="M83.2,195.2c1,0,1.4-1,2.9-1c1.4,0,3.4,0.5,4.3,1.4c0.5,0-0.5-1.4-1.9-1.4c-1.4-0.5-1-2.9-2.4-3.4   c0,1,0.5,1,0.5,1.9c0,1-1.4,1-1.9,0c0.5,1.4-1,1.4-1.4,1.4"/><path class="st4" d="M68.3,181.7c1,1.4,1.9-1,6.3-1c4.8,0,5.3,2.4,6.3,1.9c0.5-0.5-3.8-3.8-5.3-3.8   C74.1,178.3,69.8,179.8,68.3,181.7"/><path class="st4" d="M73.6,183.1c-1.4,1.4-0.5,3.8,1,3.8c1.4,0,3.8-2.4,2.4-3.8"/><path class="st4" d="M79.4,185.1c0-2.4-1.9-2.9-4.8-2.9c-2.9,0-4.3,2.4-5.3,2.9c1.4,0,2.4-1.9,5.3-1.9   C77.5,183.1,77.5,183.1,79.4,185.1"/><path class="st4" d="M78.9,185.5c-0.5-1-1.4,1-3.8,1c-1.9,0-2.9-0.5-4.3-1.4c-1-1,1.9,2.4,3.9,2.4C77,187.5,79.4,186,78.9,185.5"/><path class="st4" d="M72.6,186.5c-2.4-1-1-2.9,0-3.4C72.2,183.6,70.7,185.5,72.6,186.5"/><path class="st4" d="M83.2,197.6c-1.4,0-1.9-0.5-3.4-0.5c-1.4,0-4.8,2.4-6.7,1.4c4.3,1.9,2.4,0.5,10.1,0.5h0.5"/><path class="st4" d="M72.2,200.4c1-1.4,1-1,2.4-3.4C73.1,198.5,72.6,199,72.2,200.4"/><path class="st4" d="M83.2,201.9c-4.8,0-3.8-1-10.1-3.4c4.3,0.5,5.3,1.9,10.1,1.9h0.5"/><path class="st4" d="M83.2,195.2c-1.4,0-1.9-1-3.4-1c-1.4,0-3.4,0.5-4.3,1.4c-0.5,0,0.5-1.4,1.9-1.4c1.4-0.5,1-2.9,2.4-3.4   c0,1-0.5,1-0.5,1.9c0,1,1.4,1,1.9,0c-0.5,1.4,1,1.4,1.9,1.4"/><path class="st4" d="M83.2,203.8c-1,0-3.4,0.5,0,0.5C86.1,204.3,83.7,203.8,83.2,203.8"/></g></svg>