<?xml version="1.0" encoding="utf-8"?>
<!-- Generator: Adobe Illustrator 14.0.0, SVG Export Plug-In . SVG Version: 6.00 Build 43363)  -->
<!DOCTYPE svg PUBLIC "-//W3C//DTD SVG 1.1//EN" "http://www.w3.org/Graphics/SVG/1.1/DTD/svg11.dtd">
<svg version="1.1" id="Camada_1" xmlns="http://www.w3.org/2000/svg" xmlns:xlink="http://www.w3.org/1999/xlink" x="0px" y="0px"
	 width="569px" height="595px" viewBox="0 0 569 595" enable-background="new 0 0 569 595" xml:space="preserve">
<g>
	<g>
		<rect x="9.726" y="4.271" fill="#31286B" width="549.549" height="408.955"/>
	</g>
	<g opacity="0.85">
		<path fill="#FFFFFF" d="M375.163,351.703l-145.657-62.716l2.315,3.107l-18.518-157.504l-1.534,3.557l127.147-94.783l-3.846,0.454
			l145.652,62.721l-2.313-3.103l18.516,157.494l1.533-3.557l-127.145,94.78L375.163,351.703z M504.621,260.025L486.1,102.529
			l-0.257-2.22l-2.057-0.882L338.133,36.704l-2.051-0.886l-1.795,1.336l-127.145,94.783l-1.792,1.338l0.259,2.221l18.523,157.501
			l0.259,2.22l2.054,0.885l145.657,62.715l2.059,0.882l1.79-1.338l127.144-94.78l1.789-1.336L504.621,260.025z"/>
	</g>
	<g>
		<path fill="#FFFFFF" d="M484.896,350.422l-165.294,42.527l5.01,1.396L205.132,272.459l1.297,5.038l45.82-164.413l-3.713,3.643
			l165.28-42.518l-5.01-1.398l119.481,121.877l-1.293-5.035l-45.814,164.408L484.896,350.422z M535.724,187.409L416.234,65.531
			l-2.104-2.144l-2.904,0.746l-165.285,42.518l-2.908,0.749l-0.808,2.893l-45.82,164.414L195.6,277.6l2.103,2.145L317.182,401.63
			l2.104,2.144l2.906-0.748L487.49,360.5l2.907-0.749l0.804-2.896l45.814-164.408l0.807-2.895L535.724,187.409z"/>
	</g>
	<g opacity="0.7">
		<path fill="#FFFFFF" d="M459.071,364.527l-180.177,15.979l5,2.324L179.969,234.774l0.486,5.489l76.259-164.021l-4.513,3.166
			l180.161-15.963l-4.999-2.324l103.936,148.043l-0.487-5.489l-76.25,164.021L459.071,364.527z M540.318,202.832L436.387,54.786
			l-1.823-2.603l-3.176,0.28L251.229,68.428l-3.168,0.279l-1.345,2.886l-76.258,164.023l-1.34,2.887l1.828,2.604L274.87,389.162
			l1.828,2.604l3.172-0.278l180.177-15.979l3.169-0.282l1.338-2.886l76.252-164.022l1.345-2.886L540.318,202.832z"/>
	</g>
	<g>
		<path fill="#FFFFFF" d="M61.725,297.364v-20.563l58.508-25.65l-58.508-25.015V206l97.088,41.972v6.358L61.725,297.364z"/>
		<path fill="#FFFFFF" d="M74.232,160.64v-0.425c-9.116-7.207-14.416-17.806-14.416-28.407c0-18.654,12.72-32.432,38.793-32.432
			h58.293v18.864H97.974c-13.99,0-23.105,7.21-23.105,18.657c0,8.266,3.815,14.839,13.778,23.743h68.256v18.864H12.332V160.64
			H74.232z"/>
		<path fill="#FFFFFF" d="M156.902,41.08v18.866H12.332V41.08H156.902z"/>
	</g>
	<g>
		<path fill="#FFFFFF" d="M20.058,496.094H29.9v71.04h-9.842V496.094z"/>
		<path fill="#FFFFFF" d="M96.486,496.094c1.731,0,3.079,0.609,4.046,1.834c0.964,1.222,1.448,2.761,1.448,4.627
			c0,1.934-0.502,3.483-1.5,4.655c-0.999,1.17-2.278,1.754-3.84,1.754c-1.667,0-2.979-0.628-3.943-1.88
			c-0.964-1.257-1.445-2.767-1.443-4.529c-0.002-1.932,0.522-3.494,1.571-4.683C93.874,496.688,95.097,496.094,96.486,496.094z
			 M91.759,518.555h9.843v48.579h-9.843V518.555z"/>
		<path fill="#FFFFFF" d="M163.202,496.094h9.839v28.854c1.654-2.484,3.481-4.338,5.486-5.563c2.006-1.229,4.188-1.841,6.548-1.841
			c5.093,0,9.194,2.468,12.314,7.39c3.115,4.929,4.674,10.733,4.674,17.428c0,7.779-1.877,14.022-5.628,18.729
			c-3.753,4.704-8.075,7.056-12.962,7.056c-1.868,0-3.694-0.448-5.477-1.344c-1.783-0.896-3.505-2.226-5.17-3.98l-2.547,4.316
			h-7.078L163.202,496.094L163.202,496.094z M173.041,553.548c1.246,1.904,2.581,3.342,4.015,4.311
			c1.429,0.97,2.934,1.451,4.516,1.451c2.994,0,5.521-1.604,7.57-4.813c2.052-3.213,3.079-7.283,3.079-12.212
			c0-4.388-0.882-8.13-2.648-11.241c-1.767-3.108-4.114-4.663-7.04-4.663c-2.693,0-4.947,1.401-6.766,4.206
			c-1.817,2.803-2.726,6.396-2.726,10.78V553.548z"/>
		<path fill="#FFFFFF" d="M271.111,525.62c1.439-2.691,3.007-4.713,4.716-6.06c1.701-1.345,3.558-2.021,5.565-2.021
			c1.371,0,2.976,0.344,4.813,1.021v9.866c-1.676-0.78-3.271-1.171-4.778-1.171c-3.02,0-5.502,1.307-7.445,3.923
			c-1.945,2.61-2.918,5.771-2.918,9.47v26.481h-9.842v-48.579h9.084L271.111,525.62z"/>
		<path fill="#FFFFFF" d="M343.839,521.511c4.913-2.646,9.728-3.968,14.445-3.968c3.016,0,5.64,0.556,7.875,1.663
			c2.241,1.107,4.104,2.813,5.595,5.112c1.493,2.304,2.241,5.021,2.241,8.159v24.091c0,2.081,0.831,3.12,2.497,3.12
			c0.984,0,1.918-0.326,2.8-0.979v8.401c-2.169,0.436-4.256,0.652-6.257,0.652c-5.275,0-8.069-2.06-8.377-6.18
			c-1.545,2.169-3.227,3.805-5.041,4.907c-1.815,1.098-3.784,1.647-5.902,1.647c-4.271,0-7.701-1.494-10.285-4.486
			c-2.59-2.994-3.882-6.636-3.882-10.926c0-10.065,8.204-15.698,24.603-16.89v-1.421c0-2.502-0.736-4.532-2.215-6.086
			c-1.478-1.557-3.498-2.336-6.052-2.336c-3.526,0-7.542,1.843-12.045,5.53V521.511z M364.15,543.284
			c-6.01,0.646-9.976,1.761-11.894,3.343c-1.912,1.579-2.871,3.597-2.871,6.045c0,2.073,0.646,3.824,1.942,5.253
			c1.293,1.429,2.93,2.145,4.913,2.145c2.349,0,4.256-0.987,5.717-2.959c1.462-1.972,2.188-4.677,2.188-8.112v-5.713L364.15,543.284
			L364.15,543.284z"/>
		<path fill="#FFFFFF" d="M446.483,525.62c1.437-2.691,3.01-4.713,4.713-6.06c1.707-1.345,3.563-2.021,5.566-2.021
			c1.368,0,2.975,0.344,4.814,1.021v9.866c-1.677-0.78-3.271-1.171-4.779-1.171c-3.015,0-5.502,1.307-7.443,3.923
			c-1.942,2.61-2.918,5.771-2.918,9.47v26.481h-9.841v-48.579h9.086L446.483,525.62z"/>
		<path fill="#FFFFFF" d="M516.019,518.555h10.752l9.97,34.717l8.835-34.717h10.152l-16.179,55.385
			c-1.94,6.406-4.023,10.806-6.229,13.199c-2.2,2.393-5.251,3.59-9.147,3.59c-1.949,0-3.795-0.336-5.539-1.011v-8.577
			c1.319,0.669,2.688,1.008,4.113,1.008c1.994,0,3.521-0.872,4.589-2.617c1.067-1.748,2.549-5.906,4.446-12.48L516.019,518.555z"/>
	</g>
	<g>
		<path fill="#FFFFFF" d="M14.048,441.277h9.17l8.205,31.804l8.199-31.804h8.854l-12.954,42.27h-8.581L14.048,441.277z"/>
		<path fill="#FFFFFF" d="M66.229,421.721c1.505,0,2.68,0.533,3.521,1.599c0.838,1.065,1.262,2.412,1.262,4.038
			c0,1.688-0.437,3.043-1.306,4.063c-0.872,1.021-1.984,1.529-3.349,1.529c-1.448,0-2.591-0.546-3.43-1.642
			c-0.841-1.098-1.259-2.412-1.254-3.952c-0.002-1.686,0.453-3.045,1.366-4.082C63.957,422.238,65.019,421.721,66.229,421.721z
			 M62.178,441.277h8.453v42.27h-8.453V441.277z"/>
		<path fill="#FFFFFF" d="M98.548,447.423c1.256-2.344,2.628-4.101,4.117-5.271c1.487-1.174,3.11-1.758,4.858-1.758
			c1.197,0,2.6,0.299,4.205,0.889v8.586c-1.456-0.677-2.836-1.021-4.143-1.021c-2.616,0-4.77,1.14-6.454,3.413
			c-1.684,2.275-2.525,5.024-2.525,8.245v23.04h-8.455v-42.27h7.696L98.548,447.423z"/>
		<path fill="#FFFFFF" d="M133.513,427.776h7.447v13.501h8.074v7.067h-8.074v25.218c0,1.126,0.311,1.979,0.937,2.557
			c0.623,0.579,1.562,0.869,2.813,0.869c1.276,0,2.721-0.44,4.325-1.33v7.392c-2.431,0.921-4.846,1.382-7.248,1.382
			c-2.848,0-5.063-0.771-6.647-2.313c-1.587-1.544-2.38-3.69-2.38-6.453v-27.318h-5.679v-7.067h5.679L133.513,427.776z"/>
		<path fill="#FFFFFF" d="M163.538,441.277h8.326v28.57c0,1.947,0.493,3.538,1.478,4.775c0.982,1.238,2.368,1.858,4.157,1.858
			c2.465,0,4.497-1.254,6.1-3.76c1.601-2.508,2.4-5.676,2.4-9.511v-21.938h8.453v42.27h-7.95l-0.441-5.534
			c-1.533,2.125-3.192,3.728-4.978,4.806c-1.786,1.075-3.708,1.613-5.775,1.613c-3.717,0-6.606-1.218-8.674-3.656
			c-2.065-2.438-3.096-5.804-3.096-10.093V441.277L163.538,441.277z"/>
		<path fill="#FFFFFF" d="M214.35,443.859c4.258-2.311,8.427-3.465,12.512-3.465c2.609,0,4.887,0.482,6.824,1.449
			c1.938,0.965,3.553,2.449,4.846,4.456c1.292,2.004,1.938,4.373,1.938,7.105v20.985c0,1.815,0.732,2.722,2.198,2.722
			c0.868,0,1.69-0.282,2.47-0.852v7.349c-1.871,0.379-3.672,0.567-5.395,0.567c-4.548,0-6.955-1.822-7.225-5.469
			c-1.351,1.893-2.822,3.32-4.41,4.278c-1.586,0.959-3.305,1.439-5.154,1.439c-3.733,0-6.733-1.297-8.994-3.896
			c-2.265-2.594-3.396-5.753-3.396-9.471c0-8.729,7.148-13.613,21.451-14.646v-1.254c0-2.214-0.646-4.012-1.93-5.389
			c-1.287-1.377-3.038-2.064-5.258-2.064c-3.072,0-6.564,1.632-10.479,4.894v-8.742h0.002V443.859z M232.016,462.854
			c-5.242,0.56-8.699,1.523-10.367,2.894c-1.669,1.368-2.506,3.105-2.506,5.225c0,1.792,0.567,3.312,1.693,4.544
			c1.128,1.231,2.556,1.852,4.281,1.852c2.052,0,3.714-0.852,4.989-2.558c1.271-1.707,1.909-4.044,1.909-7.015L232.016,462.854
			L232.016,462.854z"/>
		<path fill="#FFFFFF" d="M260.561,421.721h8.457v61.825h-8.457V421.721z"/>
		<path fill="#FFFFFF" d="M319.35,421.721h8.455v25.084c1.473-2.135,3.113-3.737,4.92-4.808c1.811-1.068,3.789-1.604,5.938-1.604
			c3.65,0,6.49,1.24,8.538,3.727c2.045,2.484,3.065,5.841,3.065,10.066v29.357h-8.451v-28.818c0-1.891-0.491-3.426-1.467-4.606
			c-0.979-1.186-2.313-1.773-4.005-1.773c-2.395,0-4.415,1.144-6.065,3.437c-1.646,2.289-2.473,5.105-2.473,8.444v23.319h-8.455
			V421.721L319.35,421.721z"/>
		<path fill="#FFFFFF" d="M399.438,479.512c-5.477,3.278-10.155,4.919-14.045,4.919c-5.922,0-10.483-2.122-13.694-6.361
			c-3.212-4.243-4.814-9.353-4.814-15.321c0-6.445,1.765-11.783,5.286-16.009c3.528-4.229,7.889-6.343,13.076-6.343
			c4.747,0,8.553,1.743,11.413,5.229c2.86,3.484,4.293,8.063,4.293,13.733v3.113h-25.484v1.507c0,3.746,1.03,6.832,3.099,9.249
			c2.064,2.423,4.521,3.631,7.369,3.631c4.073,0,8.576-2.351,13.506-7.043v9.694L399.438,479.512L399.438,479.512z M376.098,455.788
			h16.022c-0.204-2.776-0.901-4.857-2.091-6.245s-2.889-2.081-5.088-2.081c-1.877,0-3.56,0.693-5.041,2.081
			C378.42,450.931,377.154,453.012,376.098,455.788z"/>
		<path fill="#FFFFFF" d="M418.404,443.859c4.262-2.311,8.43-3.465,12.512-3.465c2.609,0,4.887,0.482,6.824,1.449
			c1.938,0.965,3.555,2.449,4.846,4.456c1.293,2.004,1.938,4.373,1.938,7.105v20.985c0,1.815,0.732,2.722,2.198,2.722
			c0.866,0,1.691-0.282,2.473-0.852v7.349c-1.871,0.379-3.67,0.567-5.396,0.567c-4.549,0-6.959-1.822-7.225-5.469
			c-1.354,1.893-2.826,3.32-4.409,4.278c-1.59,0.959-3.308,1.439-5.153,1.439c-3.736,0-6.731-1.297-8.999-3.896
			c-2.262-2.594-3.395-5.753-3.395-9.471c0-8.729,7.146-13.613,21.454-14.646v-1.254c0-2.214-0.646-4.012-1.936-5.389
			s-3.035-2.064-5.256-2.064c-3.07,0-6.563,1.632-10.481,4.894v-8.742h0.004V443.859z M436.075,462.854
			c-5.246,0.56-8.702,1.523-10.368,2.894c-1.673,1.368-2.502,3.105-2.502,5.225c0,1.792,0.559,3.312,1.686,4.544
			c1.13,1.231,2.561,1.852,4.287,1.852c2.046,0,3.713-0.852,4.984-2.558c1.271-1.707,1.913-4.044,1.913-7.015V462.854
			L436.075,462.854z"/>
		<path fill="#FFFFFF" d="M464.62,421.721h8.449v61.825h-8.449V421.721z"/>
		<path fill="#FFFFFF" d="M494.739,427.776h7.443v13.501h8.076v7.067h-8.076v25.218c0,1.126,0.313,1.979,0.938,2.557
			c0.627,0.579,1.563,0.869,2.812,0.869c1.281,0,2.724-0.44,4.327-1.33v7.392c-2.431,0.921-4.846,1.382-7.245,1.382
			c-2.851,0-5.064-0.771-6.648-2.313c-1.585-1.544-2.38-3.69-2.38-6.453v-27.318h-5.678v-7.067h5.678L494.739,427.776z"/>
		<path fill="#FFFFFF" d="M525.271,421.721h8.454v25.084c1.474-2.135,3.107-3.737,4.917-4.808c1.812-1.068,3.789-1.604,5.938-1.604
			c3.645,0,6.491,1.24,8.537,3.727c2.04,2.484,3.064,5.841,3.064,10.066v29.357h-8.456v-28.818c0-1.891-0.484-3.426-1.461-4.606
			c-0.979-1.186-2.315-1.773-4.01-1.773c-2.39,0-4.409,1.144-6.062,3.437c-1.646,2.289-2.473,5.105-2.473,8.444v23.319h-8.455
			v-61.825H525.271z"/>
	</g>
</g>
</svg>
