<?xml version="1.0" encoding="utf-8"?>
<!-- Generator: Adobe Illustrator 14.0.0, SVG Export Plug-In . SVG Version: 6.00 Build 43363)  -->
<!DOCTYPE svg PUBLIC "-//W3C//DTD SVG 1.1//EN" "http://www.w3.org/Graphics/SVG/1.1/DTD/svg11.dtd">
<svg version="1.1" id="Camada_1" xmlns="http://www.w3.org/2000/svg" xmlns:xlink="http://www.w3.org/1999/xlink" x="0px" y="0px"
	 width="569px" height="595px" viewBox="0 0 569 595" enable-background="new 0 0 569 595" xml:space="preserve">
<g>
	<rect x="13.333" y="11.538" fill="#31286B" width="544.41" height="405.13"/>
</g>
<g opacity="0.85">
	<path fill="#FFFFFF" d="M375.355,355.721L231.06,293.594l2.292,3.075L215.006,140.64l-1.517,3.523l125.958-93.896l-3.813,0.448
		l144.291,62.135l-2.292-3.075l18.348,156.022l1.518-3.523l-125.952,93.896L375.355,355.721z M503.602,264.901l-18.347-156.022
		l-0.259-2.2l-2.033-0.875L338.672,43.668l-2.033-0.876l-1.777,1.324l-125.957,93.896l-1.776,1.324l0.259,2.199l18.347,156.028
		l0.259,2.199l2.034,0.876l144.297,62.128l2.034,0.875l1.773-1.322l125.952-93.896l1.775-1.324L503.602,264.901z"/>
</g>
<g>
	<path fill="#FFFFFF" d="M484.06,354.45l-163.747,42.129l4.965,1.384L206.912,277.22l1.284,4.99l45.393-162.876l-3.68,3.606
		l163.737-42.119l-4.963-1.383L527.05,200.177l-1.283-4.99L480.38,358.059L484.06,354.45z M534.41,192.963L416.043,72.225
		l-2.083-2.124l-2.88,0.741L247.342,112.96l-2.881,0.741l-0.799,2.865L198.27,279.443l-0.799,2.866l2.083,2.125l118.364,120.744
		l2.083,2.124l2.881-0.741l163.747-42.129l2.881-0.74l0.798-2.866l45.389-162.87l0.799-2.866L534.41,192.963z"/>
</g>
<g opacity="0.7">
	<path fill="#FFFFFF" d="M458.477,368.426l-178.49,15.828l4.952,2.303L181.986,239.886l0.482,5.439l75.543-162.489l-4.47,3.137
		l178.476-15.813l-4.95-2.303l102.961,146.66l-0.482-5.438l-75.538,162.485L458.477,368.426z M538.965,208.241l-102.96-146.66
		l-1.811-2.58l-3.143,0.277L252.579,75.094l-3.141,0.278l-1.329,2.858L172.566,240.72l-1.329,2.859l1.812,2.581L276,392.829
		l1.811,2.581l3.141-0.277l178.49-15.828l3.141-0.277l1.328-2.859l75.537-162.485l1.33-2.859L538.965,208.241z"/>
</g>
<path fill="#FFFFFF" d="M71.566,271.44c-5.88-8.189-8.61-16.59-8.61-26.04c0-23.52,19.95-40.739,47.04-40.739
	c31.92,0,51.03,18.899,51.03,50.398c0,12.391-2.73,25.83-7.14,35.07H15.917v-18.69L71.566,271.44L71.566,271.44z M140.446,271.44
	c1.68-5.46,2.94-13.439,2.94-18.899c0-16.801-12.81-28.771-30.66-28.771c-19.95,0-32.97,10.5-32.97,26.25
	c0,7.771,2.52,13.44,9.66,21.42H140.446z"/>
<path fill="#FFFFFF" d="M64.847,186.39v-20.37l57.959-25.41L64.847,115.83V95.88l96.18,41.58v6.3L64.847,186.39z"/>
<path fill="#FFFFFF" d="M89.207,16.503c-6.93,10.5-9.87,20.37-9.87,27.3c0,7.56,3.57,12.39,8.61,12.39c4.2,0,9.24-6.3,18.9-22.89
	c10.29-15.54,16.8-21.21,26.459-21.21c16.59,0,27.72,13.229,27.72,31.08c0,11.55-2.31,20.58-8.61,32.76h-20.16
	c8.4-12.18,12.39-23.31,12.39-30.87c-0.42-7.56-3.99-13.859-10.71-13.859c-13.02,0-19.95,44.1-45.36,44.1
	c-15.96,0-25.62-12.18-25.62-31.08c0-8.82,2.52-17.85,7.77-27.72H89.207z"/>
<path fill="#FFFFFF" d="M16.91,430.689h9.75v28.584c1.637-2.461,3.447-4.298,5.434-5.513c1.987-1.215,4.148-1.821,6.486-1.821
	c5.043,0,9.107,2.44,12.197,7.319c3.088,4.879,4.633,10.633,4.633,17.263c0,7.707-1.859,13.893-5.576,18.553
	c-3.719,4.66-7.998,6.99-12.842,6.99c-1.852,0-3.658-0.445-5.424-1.332c-1.766-0.888-3.473-2.203-5.121-3.945l-2.523,4.277H16.91
	V430.689z M26.66,487.607c1.232,1.887,2.557,3.309,3.975,4.269c1.416,0.961,2.908,1.438,4.475,1.438c2.967,0,5.467-1.591,7.5-4.771
	c2.033-3.182,3.051-7.214,3.051-12.097c0-4.345-0.875-8.056-2.625-11.138c-1.75-3.079-4.076-4.62-6.975-4.62
	c-2.668,0-4.9,1.391-6.701,4.168c-1.801,2.776-2.699,6.338-2.699,10.68L26.66,487.607L26.66,487.607z"/>
<path fill="#FFFFFF" d="M89.878,430.689c1.713,0,3.049,0.604,4.006,1.813c0.957,1.211,1.436,2.737,1.436,4.586
	c0,1.916-0.496,3.452-1.486,4.61c-0.99,1.16-2.258,1.737-3.805,1.737c-1.648,0-2.951-0.62-3.906-1.862s-1.432-2.737-1.428-4.485
	c-0.002-1.914,0.518-3.461,1.557-4.638C87.291,431.275,88.5,430.689,89.878,430.689z M85.195,452.939h9.75v48.125h-9.75V452.939z"/>
<path fill="#FFFFFF" d="M127.144,430.689h9.75v28.584c1.637-2.461,3.447-4.298,5.434-5.513c1.987-1.215,4.148-1.821,6.486-1.821
	c5.043,0,9.107,2.44,12.197,7.319c3.088,4.879,4.633,10.633,4.633,17.263c0,7.707-1.859,13.893-5.576,18.553
	c-3.719,4.66-7.998,6.99-12.842,6.99c-1.852,0-3.658-0.445-5.424-1.332c-1.766-0.888-3.473-2.203-5.121-3.945l-2.523,4.277h-7.014
	V430.689L127.144,430.689z M136.894,487.607c1.232,1.887,2.557,3.309,3.975,4.269c1.416,0.961,2.908,1.438,4.475,1.438
	c2.967,0,5.467-1.591,7.5-4.771c2.033-3.182,3.051-7.214,3.051-12.097c0-4.345-0.875-8.056-2.625-11.138
	c-1.75-3.079-4.076-4.62-6.975-4.62c-2.668,0-4.9,1.391-6.701,4.168c-1.801,2.776-2.699,6.338-2.699,10.68L136.894,487.607
	L136.894,487.607z"/>
<path fill="#FFFFFF" d="M194.416,430.689h9.75v70.375h-9.75V430.689z"/>
<path fill="#FFFFFF" d="M241.306,430.689c1.713,0,3.049,0.604,4.006,1.813c0.957,1.211,1.436,2.737,1.436,4.586
	c0,1.916-0.496,3.452-1.486,4.61c-0.99,1.16-2.258,1.737-3.805,1.737c-1.648,0-2.951-0.62-3.906-1.862
	c-0.955-1.242-1.432-2.737-1.428-4.485c-0.002-1.914,0.518-3.461,1.557-4.638C238.719,431.275,239.927,430.689,241.306,430.689z
	 M236.623,452.939h9.75v48.125h-9.75V452.939z"/>
<path fill="#FFFFFF" d="M296.255,451.939c6.351,0,11.406,2.297,15.17,6.891c3.765,4.595,5.646,10.66,5.646,18.197
	c0,7.235-1.813,13.219-5.442,17.944c-3.629,4.729-8.619,7.093-14.971,7.093c-6.387,0-11.352-2.396-14.895-7.193
	c-3.545-4.795-5.316-10.692-5.316-17.692c0-7.199,1.83-13.207,5.494-18.021C285.604,454.346,290.374,451.939,296.255,451.939z
	 M297.239,459.939c-3.58,0-6.316,1.592-8.207,4.771c-1.892,3.179-2.837,7.479-2.837,12.897c0,4.778,0.979,8.676,2.938,11.688
	c1.959,3.012,4.459,4.519,7.498,4.519c3.104,0,5.664-1.507,7.676-4.519c2.01-3.013,3.016-7.244,3.016-12.697
	c0-4.914-0.963-8.918-2.889-12.017C302.507,461.488,300.109,459.939,297.239,459.939z"/>
<path fill="#FFFFFF" d="M349.339,437.564h8.515v15.375h9.125v8h-9.125v28.834c0,1.289,0.353,2.266,1.06,2.926
	c0.705,0.66,1.764,0.99,3.176,0.99c1.445,0,3.074-0.505,4.892-1.515v8.334c-2.765,1.035-5.511,1.556-8.237,1.556
	c-3.236,0-5.757-0.88-7.56-2.638c-1.804-1.758-2.703-4.209-2.703-7.354v-31.136h-6.375v-8h6.375L349.339,437.564z"/>
<path fill="#FFFFFF" d="M429.027,496.439c-6.229,3.75-11.547,5.625-15.965,5.625c-6.729,0-11.914-2.414-15.563-7.242
	s-5.474-10.644-5.474-17.44c0-7.336,2.005-13.41,6.015-18.224c4.008-4.813,8.965-7.219,14.871-7.219
	c5.399,0,9.729,1.983,12.982,5.952c3.252,3.97,4.883,9.179,4.883,15.627v3.546h-29.001v1.713c0,4.267,1.175,7.776,3.524,10.53
	c2.351,2.755,5.142,4.132,8.375,4.132c4.634,0,9.748-2.675,15.352-8.025L429.027,496.439L429.027,496.439z M402.527,469.439h18.25
	c-0.234-3.166-1.029-5.541-2.383-7.125c-1.354-1.582-3.283-2.375-5.789-2.375c-2.143,0-4.057,0.793-5.742,2.375
	C405.176,463.898,403.73,466.273,402.527,469.439z"/>
<path fill="#FFFFFF" d="M489.889,498.941c-3.77,2.082-7.568,3.123-11.404,3.123c-6.125,0-11.092-2.271-14.893-6.813
	c-3.803-4.544-5.703-10.382-5.703-17.517c0-7.472,2.02-13.638,6.059-18.5c4.037-4.863,9.084-7.295,15.143-7.295
	c3.23,0,6.83,0.944,10.801,2.832v10.313c-3.564-2.931-6.678-4.396-9.334-4.396c-3.768,0-6.859,1.573-9.281,4.723
	c-2.424,3.148-3.635,7.045-3.635,11.69s1.178,8.511,3.531,11.591c2.355,3.082,5.215,4.621,8.578,4.621
	c3.195,0,6.574-1.479,10.141-4.443L489.889,498.941L489.889,498.941z"/>
<path fill="#FFFFFF" d="M519.234,455.868c4.867-2.618,9.639-3.93,14.309-3.93c2.988,0,5.59,0.549,7.807,1.646
	c2.219,1.097,4.064,2.786,5.544,5.065c1.478,2.28,2.218,4.976,2.218,8.082V490.6c0,2.062,0.822,3.091,2.473,3.091
	c0.978,0,1.902-0.322,2.777-0.97v8.324c-2.152,0.43-4.221,0.646-6.199,0.646c-5.228,0-7.994-2.039-8.301-6.119
	c-1.531,2.147-3.197,3.771-4.994,4.858c-1.799,1.088-3.748,1.636-5.847,1.636c-4.229,0-7.628-1.481-10.188-4.447
	c-2.564-2.965-3.846-6.571-3.846-10.819c0-9.976,8.125-15.554,24.375-16.731v-1.406c0-2.479-0.732-4.489-2.197-6.03
	s-3.463-2.313-5.992-2.313c-3.496,0-7.475,1.825-11.936,5.479L519.234,455.868L519.234,455.868z M539.359,477.439
	c-5.957,0.641-9.887,1.743-11.781,3.312c-1.896,1.566-2.844,3.563-2.844,5.987c0,2.056,0.641,3.791,1.922,5.205
	c1.28,1.414,2.9,2.121,4.867,2.121c2.326,0,4.217-0.978,5.663-2.931s2.173-4.633,2.173-8.035V477.439z"/>
<path fill="#FFFFFF" d="M16.334,541.281h8.689l7.75,30.094l7.75-30.094h8.383l-12.195,40h-8.125L16.334,541.281z"/>
<path fill="#FFFFFF" d="M59.013,522.656c1.43,0,2.545,0.504,3.346,1.513c0.799,1.008,1.199,2.282,1.199,3.821
	c0,1.597-0.414,2.877-1.242,3.842c-0.828,0.968-1.887,1.449-3.18,1.449c-1.377,0-2.465-0.519-3.262-1.554
	c-0.797-1.034-1.195-2.28-1.191-3.737c-0.002-1.597,0.432-2.883,1.301-3.862C56.851,523.146,57.861,522.656,59.013,522.656z
	 M55.058,541.281h8.125v40h-8.125V541.281z"/>
<path fill="#FFFFFF" d="M82.867,547.19c1.188-2.22,2.484-3.886,3.893-4.994c1.406-1.108,2.939-1.664,4.596-1.664
	c1.131,0,2.455,0.28,3.975,0.842v8.121c-1.385-0.642-2.699-0.963-3.945-0.963c-2.492,0-4.541,1.073-6.146,3.221
	c-1.605,2.148-2.408,4.74-2.408,7.779v21.75h-8.125v-39.875h7.5L82.867,547.19z"/>
<path fill="#FFFFFF" d="M108.999,528.406h7.037v12.875h7.625v6.625h-7.625v23.881c0,1.067,0.295,1.877,0.885,2.425
	c0.59,0.547,1.475,0.819,2.654,0.819c1.207,0,2.568-0.42,4.086-1.261v6.962c-2.297,0.864-4.58,1.299-6.848,1.299
	c-2.689,0-4.783-0.729-6.281-2.188c-1.498-1.459-2.246-3.492-2.246-6.103v-25.836h-5.375v-6.625h5.375L108.999,528.406z"/>
<path fill="#FFFFFF" d="M130.513,541.281h7.875v26.983c0,1.838,0.461,3.343,1.383,4.513s2.221,1.754,3.9,1.754
	c2.311,0,4.217-1.185,5.717-3.551c1.5-2.367,2.25-5.359,2.25-8.98v-20.719h8.125v40h-7.75l-0.414-5.289
	c-1.438,2-2.99,3.506-4.66,4.521c-1.672,1.013-3.473,1.521-5.406,1.521c-3.48,0-6.188-1.149-8.121-3.455
	c-1.934-2.303-2.898-5.479-2.898-9.526L130.513,541.281L130.513,541.281z"/>
<path fill="#FFFFFF" d="M171.74,543.791c4.074-2.172,8.066-3.26,11.973-3.26c2.5,0,4.68,0.455,6.535,1.364
	c1.855,0.91,3.4,2.313,4.637,4.203c1.237,1.891,1.855,4.125,1.855,6.701v19.793c0,1.709,0.686,2.563,2.061,2.563
	c0.813,0,1.584-0.269,2.314-0.806v6.896c-1.781,0.354-3.492,0.533-5.131,0.533c-4.326,0-6.615-1.705-6.869-5.117
	c-1.285,1.775-2.684,3.113-4.191,4.017c-1.51,0.899-3.145,1.353-4.904,1.353c-3.551,0-6.4-1.228-8.553-3.685
	c-2.152-2.455-3.227-5.44-3.227-8.959c0-8.262,6.791-12.881,20.375-13.856v-1.153c0-2.035-0.615-3.685-1.844-4.949
	c-1.229-1.264-2.902-1.896-5.023-1.896c-2.932,0-6.268,1.498-10.008,4.494V543.791L171.74,543.791z M188.615,561.656
	c-4.99,0.53-8.279,1.442-9.867,2.737c-1.59,1.298-2.383,2.947-2.383,4.951c0,1.701,0.535,3.138,1.609,4.308
	c1.072,1.17,2.432,1.754,4.076,1.754c1.951,0,3.533-0.808,4.746-2.424c1.211-1.615,1.818-3.83,1.818-6.646L188.615,561.656
	L188.615,561.656z"/>
<path fill="#FFFFFF" d="M208.779,522.656h8.125v58.625h-8.125V522.656z"/>
<path fill="#FFFFFF" d="M279.643,577.406c-5.195,3.084-9.637,4.625-13.322,4.625c-5.613,0-9.943-1.998-12.986-5.996
	c-3.045-3.998-4.566-8.813-4.566-14.44c0-6.071,1.668-11.103,5.004-15.086s7.463-5.978,12.377-5.978
	c4.496,0,8.098,1.64,10.807,4.916c2.707,3.276,4.063,7.58,4.063,12.906v2.928h-24.125v1.412c0,3.519,0.98,6.412,2.943,8.683
	c1.961,2.271,4.293,3.405,6.992,3.405c3.867,0,8.139-2.226,12.814-6.678L279.643,577.406L279.643,577.406z M257.518,555.031h15.125
	c-0.195-2.625-0.854-4.595-1.975-5.906c-1.121-1.311-2.721-1.969-4.799-1.969c-1.773,0-3.359,0.655-4.758,1.969
	C259.712,550.44,258.514,552.406,257.518,555.031z"/>
<path fill="#FFFFFF" d="M316.047,546.403c1.148-1.957,2.523-3.425,4.123-4.401c1.598-0.979,3.422-1.47,5.471-1.47
	c2.974,0,5.379,1.033,7.217,3.101c1.836,2.065,2.758,4.748,2.758,8.041v29.608h-8.125v-28.028c0-1.642-0.375-2.923-1.125-3.843
	c-0.75-0.918-1.725-1.379-2.916-1.379c-1.809,0-3.355,0.927-4.646,2.776c-1.294,1.853-1.938,3.92-1.938,6.203v24.271h-8.125v-27.205
	c0-2.014-0.352-3.524-1.049-4.532c-0.695-1.009-1.74-1.513-3.137-1.513c-1.785,0-3.324,0.875-4.621,2.625s-1.943,3.826-1.943,6.231
	v24.394h-7.75v-40h7.125l0.674,4.489c1.205-1.76,2.545-3.071,4.02-3.938c1.473-0.866,3.092-1.301,4.859-1.301
	c2.047,0,3.826,0.489,5.343,1.469C313.775,542.979,315.035,544.446,316.047,546.403z"/>
<path fill="#FFFFFF" d="M366.803,570.024c4.313,3.256,8.328,4.883,12.051,4.883c2.313,0,4.213-0.521,5.707-1.567
	c1.494-1.048,2.242-2.353,2.242-3.914c0-1.396-0.621-2.524-1.863-3.392c-1.271-0.836-3.473-1.651-6.604-2.448
	c-7.688-1.949-11.529-5.541-11.529-10.775c0-3.59,1.414-6.534,4.246-8.831c2.832-2.298,6.379-3.445,10.635-3.445
	c3.238,0,6.945,1.043,11.117,3.125v8.633c-4.064-3.254-7.648-4.883-10.75-4.883c-1.879,0-3.533,0.422-4.971,1.265
	c-1.438,0.844-2.154,1.995-2.154,3.459c0,1.188,0.586,2.146,1.756,2.877c1.168,0.731,3.367,1.541,6.604,2.424
	c3.779,1.063,6.672,2.42,8.678,4.063c1.977,1.675,2.965,4.029,2.965,7.068c0,3.987-1.488,7.229-4.463,9.725
	c-2.977,2.496-6.652,3.744-11.031,3.744c-4.127,0-8.338-1.207-12.631-3.625v-8.384L366.803,570.024L366.803,570.024z"/>
<path fill="#FFFFFF" d="M404.154,543.791c4.074-2.172,8.065-3.26,11.973-3.26c2.5,0,4.68,0.455,6.535,1.364
	c1.854,0.91,3.398,2.313,4.637,4.203c1.237,1.891,1.855,4.125,1.855,6.701v19.793c0,1.709,0.686,2.563,2.061,2.563
	c0.813,0,1.584-0.269,2.314-0.806v6.896c-1.781,0.354-3.492,0.533-5.132,0.533c-4.325,0-6.614-1.705-6.868-5.117
	c-1.285,1.775-2.685,3.113-4.191,4.017c-1.51,0.899-3.145,1.353-4.904,1.353c-3.551,0-6.398-1.228-8.553-3.685
	c-2.152-2.455-3.227-5.44-3.227-8.959c0-8.262,6.791-12.881,20.375-13.856v-1.153c0-2.035-0.615-3.685-1.844-4.949
	c-1.229-1.264-2.902-1.896-5.023-1.896c-2.932,0-6.268,1.498-10.008,4.494V543.791z M421.029,561.656
	c-4.99,0.53-8.279,1.442-9.867,2.737c-1.59,1.298-2.383,2.947-2.383,4.951c0,1.701,0.535,3.138,1.609,4.308
	c1.07,1.17,2.432,1.754,4.074,1.754c1.951,0,3.533-0.808,4.746-2.424c1.211-1.615,1.816-3.83,1.816-6.646v-4.682L421.029,561.656
	L421.029,561.656z"/>
<path fill="#FFFFFF" d="M440.694,541.281h7.875v26.983c0,1.838,0.461,3.343,1.383,4.513s2.221,1.754,3.898,1.754
	c2.313,0,4.219-1.185,5.719-3.551c1.5-2.367,2.25-5.359,2.25-8.98v-20.719h8.125v40h-7.75l-0.414-5.289
	c-1.438,2-2.99,3.506-4.66,4.521c-1.672,1.013-3.473,1.521-5.406,1.521c-3.479,0-6.188-1.149-8.121-3.455
	c-1.934-2.303-2.896-5.479-2.896-9.526L440.694,541.281L440.694,541.281z M457.231,524.031h8.088l-9.096,12.375h-5.279
	L457.231,524.031z"/>
<path fill="#FFFFFF" d="M502.921,522.656h8.125v58.625h-7.75l-0.535-5.433c-1.234,2.047-2.67,3.591-4.303,4.627
	c-1.633,1.035-3.451,1.556-5.455,1.556c-4.172,0-7.521-1.983-10.045-5.955c-2.525-3.969-3.787-8.698-3.787-14.188
	c0-5.767,1.408-10.769,4.227-15.002c2.819-4.233,6.453-6.354,10.902-6.354c1.574,0,3.08,0.321,4.52,0.965
	c1.438,0.644,2.805,1.604,4.104,2.892L502.921,522.656L502.921,522.656z M502.921,551.99c-1.152-1.416-2.303-2.472-3.455-3.166
	c-1.15-0.694-2.314-1.043-3.494-1.043c-2.633,0-4.734,1.334-6.313,4c-1.576,2.668-2.363,5.903-2.363,9.709
	c0,3.694,0.711,6.834,2.137,9.416c1.428,2.584,3.305,3.875,5.637,3.875c2.385,0,4.289-1.242,5.715-3.729s2.139-5.438,2.139-8.854
	L502.921,551.99L502.921,551.99z"/>
<path fill="#FFFFFF" d="M551.446,577.406c-5.195,3.084-9.639,4.625-13.322,4.625c-5.613,0-9.943-1.998-12.986-5.996
	c-3.045-3.998-4.564-8.813-4.564-14.44c0-6.071,1.668-11.103,5.004-15.086s7.463-5.978,12.377-5.978
	c4.496,0,8.098,1.64,10.807,4.916c2.707,3.276,4.063,7.58,4.063,12.906v2.928h-24.125v1.412c0,3.519,0.979,6.412,2.941,8.683
	c1.961,2.271,4.293,3.405,6.992,3.405c3.867,0,8.141-2.226,12.814-6.678L551.446,577.406L551.446,577.406z M529.321,555.031h15.125
	c-0.195-2.625-0.854-4.595-1.977-5.906c-1.122-1.311-2.721-1.969-4.799-1.969c-1.771,0-3.357,0.655-4.758,1.969
	C531.513,550.44,530.317,552.406,529.321,555.031z"/>
</svg>
