<?xml version="1.0" ?><svg viewBox="0 0 32 32" xmlns="http://www.w3.org/2000/svg"><defs><style>.cls-1{fill:#004e85;}.cls-2{fill:#0068a5;}.cls-3{fill:#a6c1e5;}.cls-4{fill:#002b55;}</style></defs><title/><g data-name="Layer 8" id="Layer_8"><path class="cls-1" d="M22.5,23.5a1,1,0,0,1-.71-.29l-3.43-3.43a1,1,0,0,1,1.42-1.42l3.43,3.43a1,1,0,0,1,0,1.42A1,1,0,0,1,22.5,23.5Z"/><path class="cls-2" d="M12,1A11,11,0,1,0,23,12,11,11,0,0,0,12,1Z"/><path class="cls-3" d="M12,5a7,7,0,0,0,0,14,7,7,0,0,0,7-7A7,7,0,0,0,12,5Z"/><path class="cls-4" d="M30.52,27.48,24,21a1,1,0,0,0-1.42,0l-1.81,1.81a1,1,0,0,0,0,1.42l6.5,6.5a1,1,0,0,0,1.42,0l1.81-1.81A1,1,0,0,0,30.52,27.48Z"/></g></svg>