<?xml version="1.0" encoding="utf-8"?>
<!-- Generator: Adobe Illustrator 14.0.0, SVG Export Plug-In . SVG Version: 6.00 Build 43363)  -->
<!DOCTYPE svg PUBLIC "-//W3C//DTD SVG 1.1//EN" "http://www.w3.org/Graphics/SVG/1.1/DTD/svg11.dtd">
<svg version="1.1" id="Layer_1" xmlns="http://www.w3.org/2000/svg" xmlns:xlink="http://www.w3.org/1999/xlink" x="0px" y="0px"
	 width="79.5px" height="79.5px" viewBox="1168.156 2934.88 79.5 79.5" enable-background="new 1168.156 2934.88 79.5 79.5"
	 xml:space="preserve">
<path fill="#A3A3A3" d="M1192.353,2982.466l-4.184-4.184c-0.188-0.188-0.442-0.295-0.714-0.295h-0.685
	c1.157-1.481,1.846-3.347,1.846-5.374c0-4.823-3.909-8.732-8.732-8.732c-4.824,0-8.729,3.909-8.729,8.732
	c0,4.825,3.909,8.733,8.732,8.733c2.026,0,3.893-0.689,5.373-1.846v0.686c0,0.266,0.106,0.523,0.296,0.713l4.184,4.184
	c0.394,0.395,1.033,0.395,1.423,0l1.189-1.189C1192.743,2983.499,1192.743,2982.86,1192.353,2982.466z M1179.888,2979.337
	c-3.716,0-6.723-3.002-6.723-6.724c0-3.715,3.002-6.722,6.723-6.722c3.715,0,6.723,3.002,6.723,6.722
	C1186.611,2976.324,1183.604,2979.337,1179.888,2979.337z"/>
<path fill="#A3A3A3" d="M1175.884,2973.988c0-3.06,2.481-5.541,5.542-5.541c0.726,0,1.417,0.143,2.052,0.397
	c-1.006-1.029-2.407-1.669-3.96-1.669c-3.06,0-5.541,2.48-5.541,5.541c0,2.335,1.445,4.328,3.489,5.144
	C1176.488,2976.861,1175.884,2975.497,1175.884,2973.988z"/>
</svg>
