<svg width="80" height="82" viewBox="0 0 80 82" fill="none" xmlns="http://www.w3.org/2000/svg">
<g id="bvs_color 1">
<g id="Group" opacity="0.85">
<path id="Vector" d="M52.8012 49.7309L32.0843 40.8896L32.4134 41.3272L29.7794 19.1229L29.5616 19.6243L47.6458 6.262L47.0985 6.32576L67.8148 15.1681L67.4857 14.7305L70.12 36.9339L70.3378 36.4325L52.2545 49.7946L52.8012 49.7309ZM71.214 36.8064L68.5799 14.6029L68.5427 14.2898L68.2508 14.1653L47.5345 5.3229L47.2426 5.19824L46.9875 5.38666L28.9034 18.7489L28.6484 18.9373L28.6856 19.2503L31.3198 41.4546L31.3569 41.7676L31.649 41.8922L52.3662 50.7336L52.6582 50.8581L52.9129 50.67L70.9962 37.3077L71.2511 37.1193L71.214 36.8064Z" fill="white"/>
</g>
<g id="Group_2">
<path id="Vector_2" d="M68.4082 49.5501L44.8985 55.5454L45.6114 55.7422L28.6172 38.5594L28.8015 39.2695L35.3188 16.0908L34.7904 16.6041L58.2987 10.6102L57.5861 10.4134L74.5804 27.5955L74.3962 26.8853L67.8799 50.0635L68.4082 49.5501ZM75.6371 26.5689L58.6428 9.38674L58.3437 9.08447L57.9303 9.18992L34.4219 15.1837L34.0082 15.2891L33.8935 15.697L27.3764 38.8757L27.2617 39.2836L27.5608 39.586L44.5547 56.769L44.8538 57.0712L45.2674 56.9658L68.7771 50.9705L69.1907 50.8651L69.3053 50.4573L75.8218 27.2793L75.9365 26.8714L75.6371 26.5689Z" fill="white"/>
</g>
<g id="Group_3" opacity="0.7">
<path id="Vector_3" d="M64.7351 51.5389L39.1087 53.7913L39.8197 54.1191L25.0384 33.2465L25.1076 34.0205L35.9535 10.8968L35.3118 11.3432L60.9361 9.09277L60.2253 8.76517L75.0078 29.6362L74.9386 28.8622L64.0933 51.9854L64.7351 51.5389ZM76.291 28.7431L61.5087 7.87204L61.2487 7.50488L60.7976 7.54444L35.1737 9.79506L34.7227 9.83463L34.5319 10.2415L23.6859 33.3651L23.4951 33.772L23.7553 34.1393L38.5363 55.0118L38.7963 55.3791L39.2473 55.3395L64.8736 53.0871L65.3246 53.0476L65.5153 52.6408L76.3604 29.5175L76.5513 29.1107L76.291 28.7431Z" fill="white"/>
</g>
<path id="Vector_4" d="M9.18502 37.7373C8.34081 36.5718 7.94885 35.3764 7.94885 34.0316C7.94885 30.6844 10.8131 28.2339 14.7025 28.2339C19.2854 28.2339 22.0291 30.9235 22.0291 35.4061C22.0291 37.1693 21.6371 39.082 21.004 40.3969H1.19531V37.7371L9.18502 37.7373ZM19.0743 37.7373C19.3155 36.9603 19.4965 35.8247 19.4965 35.0476C19.4965 32.6569 17.6573 30.9534 15.0945 30.9534C12.2302 30.9534 10.3609 32.4477 10.3609 34.689C10.3609 35.7948 10.7227 36.6017 11.7478 37.7373H19.0743Z" fill="white"/>
<path id="Vector_5" d="M8.22021 25.6338V22.735L16.5416 19.1189L8.22021 15.5925V12.7534L22.0291 18.6706V19.5672L8.22021 25.6338Z" fill="white"/>
<path id="Vector_6" d="M11.7177 1.45717C10.7227 2.95142 10.3006 4.35601 10.3006 5.34221C10.3006 6.41807 10.8132 7.10542 11.5368 7.10542C12.1398 7.10542 12.8634 6.20887 14.2503 3.84797C15.7277 1.63648 16.6623 0.82959 18.0491 0.82959C20.431 0.82959 22.029 2.71234 22.029 5.25256C22.029 6.89623 21.6973 8.18128 20.7928 9.9146H17.8984C19.1044 8.18128 19.6772 6.59738 19.6772 5.52152C19.6169 4.44566 19.1044 3.54912 18.1396 3.54912C16.2702 3.54912 15.2753 9.82495 11.6271 9.82495C9.33565 9.82495 7.94873 8.09162 7.94873 5.40198C7.94873 4.14681 8.31053 2.86176 9.06429 1.45717H11.7177Z" fill="white"/>
<path id="Vector_7" d="M1.33789 60.3994H2.73773V64.4672C2.97276 64.117 3.23263 63.8555 3.51791 63.6826C3.80319 63.5097 4.11345 63.4235 4.44912 63.4235C5.17316 63.4235 5.75664 63.7707 6.20029 64.465C6.64364 65.1594 6.86546 65.9782 6.86546 66.9217C6.86546 68.0185 6.59856 68.8988 6.0649 69.562C5.53095 70.2251 4.9166 70.5567 4.22113 70.5567C3.95523 70.5567 3.69594 70.4934 3.44239 70.3672C3.18884 70.2408 2.94376 70.0537 2.70715 69.8058L2.34491 70.4144H1.33789V60.3994ZM2.73773 68.4994C2.91461 68.7679 3.10485 68.9703 3.30843 69.1067C3.51173 69.2435 3.72594 69.3115 3.95092 69.3115C4.37691 69.3115 4.73584 69.0851 5.02772 68.6326C5.31961 68.1799 5.46576 67.6061 5.46576 66.9112C5.46576 66.2929 5.34014 65.7648 5.08889 65.3262C4.83763 64.888 4.50368 64.6687 4.08746 64.6687C3.70441 64.6687 3.38395 64.8666 3.12538 65.2618C2.8668 65.6569 2.73787 66.1638 2.73787 66.7817L2.73773 68.4994Z" fill="white"/>
<path id="Vector_8" d="M11.814 60.3994C12.0599 60.3994 12.2517 60.4854 12.3891 60.6574C12.5265 60.8298 12.5953 61.0471 12.5953 61.3101C12.5953 61.5827 12.5241 61.8014 12.3819 61.9662C12.2398 62.1313 12.0578 62.2134 11.8356 62.2134C11.599 62.2134 11.412 62.1252 11.2749 61.9484C11.1377 61.7717 11.0693 61.5588 11.0698 61.3101C11.0695 61.0377 11.1442 60.8175 11.2934 60.6502C11.4425 60.4828 11.6161 60.3994 11.814 60.3994ZM11.1416 63.5658H12.5415V70.4144H11.1416V63.5658Z" fill="white"/>
<path id="Vector_9" d="M17.1646 60.3994H18.5644V64.4672C18.7994 64.117 19.0593 63.8555 19.3446 63.6826C19.6298 63.5097 19.9401 63.4235 20.2758 63.4235C20.9998 63.4235 21.5833 63.7707 22.0269 64.465C22.4703 65.1594 22.6921 65.9782 22.6921 66.9217C22.6921 68.0185 22.4252 68.8988 21.8916 69.562C21.3576 70.2251 20.7433 70.5567 20.0478 70.5567C19.7819 70.5567 19.5226 70.4934 19.269 70.3672C19.0155 70.2408 18.7704 70.0537 18.5338 69.8058L18.1716 70.4144H17.1646V60.3994ZM18.5644 68.4994C18.7413 68.7679 18.9315 68.9703 19.1351 69.1067C19.3384 69.2435 19.5526 69.3115 19.7776 69.3115C20.2036 69.3115 20.5625 69.0851 20.8544 68.6326C21.1463 68.1799 21.2924 67.6061 21.2924 66.9112C21.2924 66.2929 21.1668 65.7648 20.9155 65.3262C20.6643 64.888 20.3303 64.6687 19.9141 64.6687C19.5311 64.6687 19.2106 64.8666 18.952 65.2618C18.6935 65.6569 18.5645 66.1638 18.5645 66.7817L18.5644 68.4994Z" fill="white"/>
<path id="Vector_10" d="M26.8232 60.3994H28.2231V70.4144H26.8232V60.3994Z" fill="white"/>
<path id="Vector_11" d="M33.5552 60.3994C33.8011 60.3994 33.9929 60.4854 34.1303 60.6574C34.2677 60.8298 34.3365 61.0471 34.3365 61.3101C34.3365 61.5827 34.2653 61.8014 34.1232 61.9662C33.981 62.1313 33.799 62.2134 33.5769 62.2134C33.3402 62.2134 33.1532 62.1252 33.0161 61.9484C32.8789 61.7717 32.8105 61.5588 32.811 61.3101C32.8108 61.0377 32.8854 60.8175 33.0346 60.6502C33.1838 60.4828 33.3572 60.3994 33.5552 60.3994ZM32.8828 63.5658H34.2827V70.4144H32.8828V63.5658Z" fill="white"/>
<path id="Vector_12" d="M41.4445 63.4238C42.3563 63.4238 43.0821 63.7507 43.6225 64.4045C44.163 65.0582 44.4331 65.9215 44.4331 66.9941C44.4331 68.0237 44.1728 68.8753 43.6518 69.5477C43.1308 70.2207 42.4143 70.5571 41.5023 70.5571C40.5855 70.5571 39.8726 70.2161 39.3638 69.5334C38.8549 68.8511 38.6006 68.0117 38.6006 67.0156C38.6006 65.9911 38.8633 65.1361 39.3894 64.4512C39.9153 63.7664 40.6001 63.4238 41.4445 63.4238ZM41.5858 64.5623C41.0718 64.5623 40.679 64.7889 40.4075 65.2413C40.1358 65.6937 40.0001 66.3057 40.0001 67.0768C40.0001 67.7567 40.1407 68.3114 40.422 68.7401C40.7032 69.1687 41.0622 69.3832 41.4985 69.3832C41.9441 69.3832 42.3117 69.1687 42.6004 68.7401C42.889 68.3114 43.0334 67.7092 43.0334 66.9332C43.0334 66.2339 42.8952 65.6641 42.6186 65.2232C42.3421 64.7827 41.9978 64.5623 41.5858 64.5623Z" fill="white"/>
<path id="Vector_13" d="M49.0659 61.3779H50.2885V63.5659H51.5986V64.7044H50.2885V68.8077C50.2885 68.9912 50.339 69.1302 50.4405 69.2241C50.5417 69.3181 50.6938 69.365 50.8965 69.365C51.104 69.365 51.3379 69.2932 51.5987 69.1494V70.3354C51.2019 70.4827 50.8076 70.5569 50.4161 70.5569C49.9515 70.5569 49.5896 70.4316 49.3307 70.1815C49.0718 69.9313 48.9426 69.5825 48.9426 69.1349V64.704H48.0273V63.5655H48.9426L49.0659 61.3779Z" fill="white"/>
<path id="Vector_14" d="M60.5068 69.7566C59.6127 70.2902 58.849 70.5571 58.2147 70.5571C57.2487 70.5571 56.5042 70.2135 55.9803 69.5265C55.4564 68.8394 55.1943 68.0117 55.1943 67.0445C55.1943 66.0005 55.4822 65.1361 56.0579 64.4512C56.6334 63.7662 57.3451 63.4238 58.193 63.4238C58.9682 63.4238 59.5898 63.706 60.0569 64.2709C60.5238 64.8358 60.7579 65.5771 60.7579 66.4947V66.9993H56.5942V67.2431C56.5942 67.8502 56.7629 68.3497 57.1003 68.7416C57.4377 69.1337 57.8384 69.3297 58.3027 69.3297C58.9679 69.3297 59.7023 68.949 60.5067 68.1876L60.5068 69.7566ZM56.7021 65.9142H59.3224C59.2888 65.4637 59.1746 65.1257 58.9802 64.9003C58.7858 64.6752 58.5089 64.5623 58.1491 64.5623C57.8415 64.5623 57.5667 64.6752 57.3247 64.9003C57.0825 65.1257 56.8749 65.4637 56.7021 65.9142Z" fill="white"/>
<path id="Vector_15" d="M69.2452 70.1126C68.704 70.4089 68.1585 70.5571 67.6078 70.5571C66.7284 70.5571 66.0154 70.2339 65.4697 69.5874C64.9237 68.9409 64.6509 68.1101 64.6509 67.0947C64.6509 66.0314 64.9408 65.1539 65.5206 64.462C66.1002 63.7699 66.8249 63.4238 67.6948 63.4238C68.1585 63.4238 68.6754 63.5582 69.2455 63.8268V65.2945C68.7337 64.8775 68.2867 64.669 67.9054 64.669C67.3644 64.669 66.9205 64.8929 66.5727 65.3412C66.2249 65.7891 66.051 66.3437 66.051 67.0048C66.051 67.6659 66.22 68.2159 66.558 68.6543C66.8961 69.0929 67.3067 69.3119 67.7895 69.3119C68.2482 69.3119 68.7334 69.1013 69.2455 68.6796L69.2452 70.1126Z" fill="white"/>
<path id="Vector_16" d="M73.458 63.9831C74.157 63.6104 74.8419 63.4238 75.5124 63.4238C75.9414 63.4238 76.315 63.502 76.6333 63.6581C76.9517 63.8142 77.2168 64.0547 77.4293 64.379C77.6413 64.7035 77.7476 65.087 77.7476 65.5291V68.9256C77.7476 69.2191 77.8657 69.3655 78.1026 69.3655C78.2429 69.3655 78.3757 69.3197 78.5013 69.2275V70.4121C78.1924 70.4733 77.8955 70.504 77.6113 70.504C76.8609 70.504 76.4636 70.2138 76.4195 69.6332C76.1997 69.9387 75.9605 70.1697 75.7025 70.3245C75.4442 70.4794 75.1644 70.5574 74.8632 70.5574C74.2559 70.5574 73.768 70.3465 73.4003 69.9245C73.0322 69.5026 72.8481 68.9893 72.8481 68.3847C72.8481 66.9652 74.0147 66.1714 76.3477 66.0037V65.8037C76.3477 65.4507 76.2426 65.1647 76.0323 64.9454C75.822 64.7261 75.5351 64.6162 75.172 64.6162C74.6701 64.6162 74.0988 64.876 73.4583 65.3959L73.458 63.9831ZM76.3475 67.0527C75.4922 67.1439 74.9281 67.3008 74.656 67.5239C74.3838 67.7469 74.2477 68.0309 74.2477 68.376C74.2477 68.6685 74.3397 68.9155 74.5236 69.1168C74.7074 69.318 74.9401 69.4186 75.2224 69.4186C75.5565 69.4186 75.8279 69.2794 76.0355 69.0015C76.2432 68.7236 76.3475 68.3422 76.3475 67.858V67.0527Z" fill="white"/>
<path id="Vector_17" d="M1.25537 76.1382H2.50288L3.61557 80.4208L4.72826 76.1382H5.93184L4.18096 81.8305H3.01443L1.25537 76.1382Z" fill="white"/>
<path id="Vector_18" d="M7.38291 73.4873C7.58822 73.4873 7.7483 73.559 7.8633 73.7025C7.97802 73.8459 8.03545 74.0274 8.03545 74.2464C8.03545 74.4735 7.97601 74.6558 7.85713 74.7931C7.73825 74.9307 7.58621 74.9993 7.40057 74.9993C7.20287 74.9993 7.04666 74.9255 6.93223 74.7782C6.8178 74.631 6.76066 74.4537 6.76123 74.2464C6.76095 74.0191 6.82326 73.8361 6.94802 73.6966C7.0725 73.5569 7.21751 73.4873 7.38291 73.4873ZM6.81507 76.1378H7.98161V81.8302H6.81507V76.1378Z" fill="white"/>
<path id="Vector_19" d="M10.8078 76.9787C10.9784 76.6628 11.1644 76.4257 11.3667 76.2681C11.5686 76.1102 11.7887 76.0312 12.0266 76.0312C12.189 76.0312 12.3791 76.0711 12.5973 76.1511V77.3068C12.3984 77.2154 12.2098 77.1697 12.0309 77.1697C11.6731 77.1697 11.3789 77.3224 11.1485 77.6281C10.9181 77.9338 10.8028 78.3026 10.8028 78.7351V81.8303H9.63623V76.1558H10.713L10.8078 76.9787Z" fill="white"/>
<path id="Vector_20" d="M14.5596 74.3057H15.5699V76.1379H16.6647V77.0807H15.5699V80.4792C15.5699 80.631 15.6123 80.7463 15.697 80.8241C15.7817 80.902 15.9088 80.9408 16.0781 80.9408C16.2513 80.9408 16.4467 80.8811 16.6647 80.7614V81.7521C16.3349 81.8751 16.0071 81.937 15.6815 81.937C15.2954 81.937 14.9948 81.8331 14.7797 81.6256C14.5646 81.418 14.4573 81.1287 14.4573 80.7573V77.0806H13.6855V76.1378H14.4573L14.5596 74.3057Z" fill="white"/>
<path id="Vector_21" d="M17.6484 76.1382H18.7791V79.9781C18.7791 80.2397 18.8453 80.4539 18.9776 80.6204C19.11 80.7869 19.2965 80.87 19.5376 80.87C19.8694 80.87 20.143 80.7013 20.3584 80.3646C20.5737 80.0278 20.6814 79.602 20.6814 79.0867V76.1382H21.848V81.8305H20.7353L20.6758 81.0779C20.4694 81.3625 20.2465 81.5768 20.0068 81.7211C19.7667 81.8653 19.5081 81.9376 19.2306 81.9376C18.731 81.9376 18.3422 81.7739 18.0647 81.4459C17.787 81.1181 17.6486 80.6662 17.6486 80.0901L17.6484 76.1382Z" fill="white"/>
<path id="Vector_22" d="M23.5674 76.4952C24.1524 76.1861 24.7255 76.0312 25.2864 76.0312C25.6454 76.0312 25.9584 76.096 26.2247 76.2254C26.491 76.3549 26.7128 76.5545 26.8904 76.8235C27.068 77.0926 27.1568 77.4105 27.1568 77.7771V80.5938C27.1568 80.837 27.2553 80.9586 27.4527 80.9586C27.5694 80.9586 27.6801 80.9203 27.7849 80.8439V81.8252C27.5292 81.8756 27.2836 81.9011 27.0482 81.9011C26.4271 81.9011 26.0985 81.6584 26.062 81.1729C25.8775 81.4255 25.6767 81.6159 25.4603 81.7444C25.2435 81.8725 25.0088 81.9369 24.7562 81.9369C24.2464 81.9369 23.8374 81.7622 23.5283 81.4125C23.2193 81.0632 23.0649 80.6384 23.0649 80.1376C23.0649 78.9618 24.0399 78.3045 25.9902 78.1657V78.0015C25.9902 77.7119 25.9019 77.4773 25.7255 77.2972C25.549 77.1174 25.3088 77.0274 25.0043 77.0274C24.5834 77.0274 24.1044 77.2406 23.5674 77.667V76.4952ZM25.9902 79.0375C25.2738 79.113 24.8016 79.2427 24.5736 79.427C24.3453 79.6117 24.2315 79.8464 24.2315 80.1316C24.2315 80.3737 24.3083 80.5782 24.4625 80.7447C24.6164 80.9112 24.8117 80.9943 25.0477 80.9943C25.3278 80.9943 25.5549 80.8793 25.7291 80.6493C25.903 80.4195 25.9901 80.1043 25.9901 79.7035L25.9902 79.0375Z" fill="white"/>
<path id="Vector_23" d="M28.8853 73.4873H30.0518V81.8302H28.8853V73.4873Z" fill="white"/>
<path id="Vector_24" d="M39.0591 81.2789C38.3133 81.7178 37.6755 81.9371 37.1465 81.9371C36.3406 81.9371 35.7189 81.6527 35.282 81.0838C34.8448 80.5148 34.6265 79.8296 34.6265 79.0287C34.6265 78.1647 34.8659 77.4488 35.3449 76.8818C35.8239 76.315 36.4164 76.0312 37.1219 76.0312C37.7674 76.0312 38.2846 76.2645 38.6735 76.7308C39.0622 77.197 39.2568 77.8095 39.2568 78.5675V78.9842H35.7931V79.1851C35.7931 79.6857 35.9338 80.0976 36.2157 80.4206C36.4972 80.7438 36.832 80.9053 37.2195 80.9053C37.7747 80.9053 38.3881 80.5886 39.0593 79.955L39.0591 81.2789ZM35.8826 78.0947H38.0541C38.0261 77.7212 37.9315 77.4408 37.7706 77.2543C37.6096 77.0677 37.3799 76.974 37.0816 76.974C36.827 76.974 36.5993 77.0673 36.3984 77.2543C36.1976 77.4412 36.0256 77.7212 35.8826 78.0947Z" fill="white"/>
<path id="Vector_25" d="M44.2863 76.8668C44.4511 76.5883 44.6485 76.3793 44.8782 76.2403C45.1076 76.101 45.3695 76.0312 45.6637 76.0312C46.0905 76.0312 46.436 76.1783 46.6999 76.4724C46.9635 76.7664 47.0957 77.1481 47.0957 77.6167V81.8303H45.9292V77.8416C45.9292 77.608 45.8753 77.4257 45.7676 77.2948C45.66 77.1642 45.5201 77.0986 45.349 77.0986C45.0894 77.0986 44.8673 77.2303 44.6819 77.4936C44.4962 77.7573 44.4037 78.0515 44.4037 78.3764V81.8303H43.2372V77.9588C43.2372 77.6722 43.1868 77.4572 43.0867 77.3137C42.9868 77.1703 42.8367 77.0986 42.6363 77.0986C42.38 77.0986 42.1591 77.2231 41.9729 77.4721C41.7866 77.7212 41.6937 78.0166 41.6937 78.3589V81.8303H40.5811V76.138H41.604L41.7008 76.7768C41.8738 76.5263 42.0662 76.3398 42.2778 76.2164C42.4893 76.093 42.7217 76.0312 42.9756 76.0312C43.2695 76.0312 43.5249 76.1008 43.7427 76.2403C43.9601 76.3795 44.141 76.5883 44.2863 76.8668Z" fill="white"/>
<path id="Vector_26" d="M51.5732 80.2284C52.1925 80.6918 52.7689 80.9233 53.3034 80.9233C53.6354 80.9233 53.9083 80.8492 54.1228 80.7002C54.3373 80.5512 54.4447 80.3655 54.4447 80.1432C54.4447 79.9447 54.3555 79.784 54.1772 79.6606C53.9947 79.5417 53.6786 79.4255 53.2291 79.3121C52.1253 79.0347 51.5737 78.5236 51.5737 77.7787C51.5737 77.2678 51.7768 76.8489 52.1834 76.522C52.59 76.195 53.0991 76.0317 53.7102 76.0317C54.1752 76.0317 54.7074 76.1802 55.3064 76.4765V77.705C54.7228 77.2419 54.2082 77.0101 53.763 77.0101C53.4932 77.0101 53.2556 77.0702 53.0493 77.19C52.8429 77.3101 52.7401 77.474 52.7401 77.6822C52.7401 77.8513 52.8241 77.9876 52.992 78.0917C53.1597 78.1958 53.4756 78.311 53.9402 78.4366C54.4828 78.588 54.8981 78.781 55.1861 79.015C55.47 79.2532 55.6118 79.5883 55.6118 80.0208C55.6118 80.5882 55.3982 81.0496 54.971 81.4048C54.5436 81.76 54.016 81.9376 53.3873 81.9376C52.7948 81.9376 52.1902 81.7658 51.5738 81.4217V80.2286H51.5732V80.2284Z" fill="white"/>
<path id="Vector_27" d="M56.9356 76.4952C57.5205 76.1861 58.0937 76.0312 58.6546 76.0312C59.0136 76.0312 59.3265 76.096 59.5929 76.2254C59.859 76.3549 60.0809 76.5545 60.2586 76.8235C60.4362 77.0926 60.5249 77.4105 60.5249 77.7771V80.5938C60.5249 80.837 60.6234 80.9586 60.8208 80.9586C60.9376 80.9586 61.0483 80.9203 61.1531 80.8439V81.8252C60.8974 81.8756 60.6517 81.9011 60.4163 81.9011C59.7953 81.9011 59.4667 81.6584 59.4302 81.1729C59.2457 81.4255 59.0448 81.6159 58.8285 81.7444C58.6117 81.8725 58.3769 81.9369 58.1244 81.9369C57.6146 81.9369 57.2057 81.7622 56.8964 81.4125C56.5874 81.0632 56.4331 80.6384 56.4331 80.1376C56.4331 78.9618 57.4081 78.3045 59.3584 78.1657V78.0015C59.3584 77.7119 59.2701 77.4773 59.0937 77.2972C58.9172 77.1174 58.677 77.0274 58.3725 77.0274C57.9515 77.0274 57.4726 77.2406 56.9356 77.667V76.4952ZM59.3584 79.0375C58.642 79.113 58.1698 79.2427 57.9418 79.427C57.7135 79.6117 57.5996 79.8464 57.5996 80.1316C57.5996 80.3737 57.6765 80.5782 57.8306 80.7447C57.9844 80.9112 58.1798 80.9943 58.4157 80.9943C58.6958 80.9943 58.923 80.8793 59.0971 80.6493C59.271 80.4195 59.358 80.1043 59.358 79.7035V79.0374L59.3584 79.0375Z" fill="white"/>
<path id="Vector_28" d="M62.1821 76.1379H63.3128V79.9779C63.3128 80.2394 63.379 80.4536 63.5113 80.6201C63.6437 80.7866 63.8302 80.8697 64.0711 80.8697C64.4031 80.8697 64.6767 80.7011 64.8921 80.3644C65.1074 80.0275 65.2151 79.6017 65.2151 79.0864V76.1379H66.3816V81.8303H65.269L65.2095 81.0776C65.0031 81.3622 64.7802 81.5766 64.5405 81.7209C64.3004 81.865 64.0418 81.9373 63.7643 81.9373C63.2648 81.9373 62.8759 81.7737 62.5983 81.4456C62.3207 81.1179 62.1824 80.6659 62.1824 80.0899L62.1821 76.1379ZM64.5564 73.6831H65.7176L64.4118 75.4442H63.6538L64.5564 73.6831Z" fill="white"/>
<path id="Vector_29" d="M71.1159 73.4873H72.2825V81.8302H71.1698L71.0929 81.057C70.9156 81.3483 70.7096 81.568 70.4752 81.7155C70.2407 81.8628 69.9797 81.9369 69.692 81.9369C69.093 81.9369 68.6121 81.6546 68.2498 81.0895C67.8872 80.5246 67.7061 79.8515 67.7061 79.0702C67.7061 78.2497 67.9082 77.5378 68.3129 76.9353C68.7177 76.3329 69.2394 76.0311 69.8782 76.0311C70.1042 76.0311 70.3204 76.0768 70.527 76.1684C70.7334 76.2599 70.9297 76.3967 71.1162 76.5798L71.1159 73.4873ZM71.1159 77.6618C70.9505 77.4603 70.7853 77.31 70.6199 77.2113C70.4546 77.1123 70.2875 77.0628 70.1182 77.0628C69.7402 77.0628 69.4384 77.2527 69.2119 77.6321C68.9856 78.0117 68.8726 78.4721 68.8726 79.0137C68.8726 79.5394 68.9747 79.9863 69.1794 80.3537C69.3843 80.7214 69.6538 80.9052 69.9886 80.9052C70.331 80.9052 70.6044 80.7284 70.8091 80.3745C71.0138 80.0207 71.1162 79.6006 71.1162 79.1145L71.1159 77.6618Z" fill="white"/>
<path id="Vector_30" d="M78.0829 81.2789C77.3371 81.7178 76.6992 81.9371 76.1702 81.9371C75.3644 81.9371 74.7427 81.6527 74.3058 81.0838C73.8686 80.5148 73.6504 79.8296 73.6504 79.0287C73.6504 78.1647 73.8899 77.4488 74.3688 76.8818C74.8478 76.315 75.4403 76.0312 76.1458 76.0312C76.7913 76.0312 77.3085 76.2645 77.6974 76.7308C78.0861 77.197 78.2808 77.8095 78.2808 78.5675V78.9842H74.8171V79.1851C74.8171 79.6857 74.9576 80.0976 75.2395 80.4206C75.521 80.7438 75.8558 80.9053 76.2433 80.9053C76.7985 80.9053 77.412 80.5886 78.0831 79.955L78.0829 81.2789ZM74.9064 78.0947H77.0779C77.0499 77.7212 76.9553 77.4408 76.7942 77.2543C76.6331 77.0677 76.4036 76.974 76.1052 76.974C75.8508 76.974 75.6231 77.0673 75.4221 77.2543C75.2211 77.4412 75.0494 77.7212 74.9064 78.0947Z" fill="white"/>
</g>
</svg>
