<svg width="130" height="60" viewBox="0 0 130 60" fill="none" xmlns="http://www.w3.org/2000/svg">
<g id="Group 19">
<g id="Group 15">
<path id="Vector" d="M56.526 58.4507C57.9542 58.0544 58.7908 56.5766 58.3945 55.1484C57.9982 53.7201 56.5205 52.8849 55.0922 53.2798C53.547 53.7077 51.9426 53.9251 50.3231 53.9251C40.5097 53.9251 32.5263 45.9418 32.5263 36.1284C32.5263 26.315 40.5097 18.3316 50.3231 18.3316C51.944 18.3316 53.5484 18.549 55.0922 18.9769C56.5205 19.3732 57.9982 18.5366 58.3945 17.1084C58.7908 15.6801 57.9542 14.2023 56.526 13.806C54.5143 13.2474 52.427 12.9653 50.3217 12.9653C37.5486 12.9653 27.1587 23.3566 27.1587 36.1284C27.1587 48.9001 37.55 59.2914 50.3217 59.2914C52.427 59.2914 54.5143 59.0079 56.526 58.4507Z" fill="white"/>
<path id="Vector_2" d="M100.645 35.7846C100.645 23.0115 90.2536 12.6216 77.4819 12.6216C64.7101 12.6216 54.3188 23.0129 54.3188 35.7846C54.3188 48.5563 64.7101 58.9476 77.4819 58.9476C90.2536 58.9476 100.645 48.5563 100.645 35.7846ZM95.2786 35.7846C95.2786 36.4189 95.2442 37.0436 95.1796 37.6614C94.1049 38.1348 92.7647 38.6645 91.192 39.1681C91.3392 37.8045 91.3668 36.4121 91.2691 34.9962C91.2594 34.8558 91.2443 34.7155 91.2333 34.5751C91.4947 34.2408 91.7809 33.9257 92.0602 33.6037C93.2959 34.0289 94.3691 34.4609 95.2552 34.8545C95.2718 35.1627 95.28 35.4723 95.28 35.7832L95.2786 35.7846ZM90.6237 39.3456C90.3155 39.4392 89.9977 39.5327 89.6729 39.6236C89.6798 39.6002 89.6881 39.5768 89.695 39.5534C89.75 39.3456 89.772 39.1296 89.8092 38.9177C89.7459 38.9301 89.6826 38.9425 89.6179 38.9548C89.6275 39.1144 89.6041 39.2631 89.5615 39.4048C89.6041 39.2617 89.6275 39.1131 89.6179 38.9548C89.6812 38.9425 89.7459 38.9301 89.8092 38.9177C89.8587 38.6535 89.9069 38.3879 89.9564 38.1238C89.9564 37.8747 89.9564 37.6257 89.9564 37.3766C89.9385 37.2528 89.9192 37.1276 89.9014 37.0037C89.9399 36.6597 89.8394 36.302 89.9963 35.9676C90.0912 35.9236 90.1862 35.8796 90.2811 35.8369C90.3224 35.8231 90.3637 35.8094 90.4063 35.7956C90.4903 35.6897 90.5962 35.5947 90.654 35.4764C90.6802 35.4227 90.7104 35.3718 90.7379 35.3195C90.8095 36.5703 90.7902 37.9229 90.6251 39.3456H90.6237ZM85.8299 43.8533C85.7803 43.8629 85.7225 43.8533 85.6675 43.8505C85.7225 43.8533 85.7803 43.8615 85.8299 43.8533ZM82.3844 46.0947C82.3693 46.0947 82.3555 46.0947 82.3404 46.0934C82.3487 46.081 82.3556 46.0672 82.3624 46.0535C82.3556 46.0672 82.3487 46.0823 82.3404 46.0934C82.3555 46.0934 82.3693 46.0934 82.3844 46.0947ZM77.4599 48.211C77.4929 48.1821 77.5273 48.1435 77.5603 48.1711C77.5287 48.1435 77.4943 48.1821 77.4599 48.211ZM80.8021 25.0493C80.8296 25.0631 80.8571 25.0768 80.8846 25.092C80.9246 25.092 80.9631 25.092 81.003 25.092C81.0071 25.0645 81.0126 25.0369 81.0167 25.0094C81.0209 25.0025 81.0236 24.997 81.0277 24.9901C81.0498 25.0768 81.0704 25.1649 81.0924 25.253C81.08 25.2406 81.0676 25.2282 81.0553 25.2158C81.0388 25.1745 81.0209 25.1333 81.0044 25.092C80.9645 25.092 80.9259 25.092 80.886 25.092C80.8585 25.0782 80.831 25.0645 80.8035 25.0493H80.8021ZM81.153 25.502C81.1323 25.4896 81.1117 25.4772 81.091 25.4649C81.1103 25.4772 81.1323 25.4896 81.153 25.502ZM82.961 26.3482C82.9637 26.3331 82.9651 26.3152 82.9637 26.2946C82.9857 26.2863 83.0091 26.2794 83.0312 26.2739C83.0091 26.2794 82.9871 26.2863 82.9637 26.2946C82.9637 26.3166 82.9637 26.3331 82.961 26.3482ZM86.976 28.4039C86.976 28.4039 86.9802 28.4177 86.9816 28.4232C86.9816 28.4232 86.9774 28.4108 86.976 28.4039ZM73.3182 38.1238C73.3182 37.9339 73.3127 37.7467 73.2962 37.5596C73.3127 37.7467 73.3182 37.9352 73.3182 38.1238ZM72.688 36.4203C72.999 36.4809 73.0059 36.4864 73.0265 36.7973C73.0292 36.8386 73.0292 36.8785 73.0306 36.9198C72.9605 37.0395 72.8738 37.1647 73.1022 37.2115C73.1022 37.2528 73.1035 37.294 73.1049 37.3353C72.9948 37.3904 72.9948 37.4454 73.1049 37.5018C73.1214 37.6009 73.1352 37.7013 73.1545 37.799C73.1806 37.9352 73.2122 38.0715 73.2411 38.2077C73.237 38.2214 73.2315 38.2352 73.2274 38.249C73.204 38.2669 73.182 38.2847 73.1586 38.304C73.182 38.3274 73.2068 38.3508 73.2301 38.3742C73.2673 38.4155 73.3017 38.4884 73.343 38.4925C73.5425 38.5159 73.7434 38.5214 73.9429 38.5324C74.0254 38.5365 74.1094 38.5421 74.1919 38.5462C74.2057 38.5462 74.2195 38.5462 74.2332 38.5462C74.3268 38.7787 74.3667 38.787 74.5428 38.6122C74.5511 38.604 74.58 38.6177 74.6006 38.6219C74.5868 38.7333 74.5731 38.8434 74.5593 38.9548C74.5332 38.9548 74.5084 38.9548 74.4823 38.9548C74.5112 39.0099 74.5401 39.0649 74.569 39.12C74.6584 39.2149 74.7368 39.3236 74.8386 39.4048C75.3505 39.8134 75.3629 40.1423 75.1138 40.7367C75.0574 40.8716 75.001 41.0023 74.9652 41.1399C74.2112 41.0903 73.442 41.0229 72.655 40.9321C72.4651 39.336 72.3688 37.8032 72.3426 36.3419C72.4568 36.3694 72.5711 36.3997 72.688 36.4217V36.4203ZM88.7937 36.6033C88.6465 36.6845 88.7235 36.8386 88.7015 36.9611C88.7332 36.9624 88.7565 36.9597 88.7744 36.9528C88.7565 36.9597 88.7318 36.9638 88.6988 36.9624C88.6905 37.0808 88.685 37.1991 88.6781 37.3408C88.685 37.1991 88.6919 37.0808 88.6974 36.9638C88.6974 36.9638 88.6974 36.9638 88.6988 36.9638C88.7222 36.8414 88.6451 36.6859 88.7923 36.6047L88.7937 36.6033ZM88.7442 27.8645C88.5956 27.8425 88.4483 27.8026 88.2997 27.8054C88.1153 27.8068 87.931 27.8439 87.7466 27.8659C87.5801 27.8233 87.4136 27.7806 87.2471 27.738C87.0971 27.6857 86.9499 27.621 86.7958 27.5838C86.4133 27.4944 86.0349 27.515 85.6689 27.6678C85.6414 27.6829 85.6125 27.6967 85.5849 27.7118C85.5561 27.6967 85.5272 27.6802 85.4983 27.665C85.5079 27.654 85.5189 27.6444 85.5285 27.6334C85.545 27.6155 85.5629 27.5976 85.5794 27.5797C85.5794 27.566 85.5767 27.5522 85.5767 27.5384C85.6565 27.138 85.3882 26.8119 85.0029 26.8436C84.9754 26.8394 84.9479 26.8339 84.9217 26.8298C84.8364 26.7541 84.7621 26.6509 84.6617 26.6097C84.2654 26.4418 83.8622 26.2932 83.4605 26.1363C83.3917 26.1171 83.3242 26.0992 83.2554 26.0799C83.1165 26.1226 82.9775 26.1652 82.8385 26.2079C82.8248 26.212 82.811 26.2161 82.7972 26.2189C82.7835 26.2299 82.7697 26.2409 82.756 26.2519C82.6074 26.417 82.4601 26.5808 82.3115 26.7459C82.2524 26.8051 82.1932 26.8642 82.1326 26.9234C82.1313 26.8656 82.1299 26.8078 82.1285 26.7514C82.1464 26.6963 82.1629 26.6427 82.1808 26.5876C82.1918 26.5835 82.2014 26.5794 82.2125 26.5766C82.3019 26.3482 82.3913 26.1198 82.4821 25.89C82.4904 25.8735 82.4973 25.8584 82.5055 25.8419C82.3679 25.824 82.229 25.8061 82.0914 25.7882C82.0501 25.7882 82.0088 25.7882 81.9662 25.7882C81.9029 25.7745 81.8382 25.7607 81.7749 25.7469C81.5699 24.8429 81.3442 23.9857 81.1089 23.1808C83.6462 23.6321 86.0253 24.4494 88.1676 25.5048C88.5447 26.2863 88.8886 27.0981 89.1955 27.9375C89.0551 27.8783 88.9079 27.8425 88.7428 27.8645H88.7442ZM80.5035 23.3569C80.4829 23.2674 80.4774 23.1725 80.4677 23.0776C80.4801 23.0789 80.4939 23.0817 80.5063 23.0831C80.5847 23.3459 80.6617 23.6142 80.7374 23.888C80.615 23.7421 80.5517 23.5605 80.5021 23.3555L80.5035 23.3569ZM79.2761 23.4958C79.2211 23.5867 79.1551 23.6706 79.0945 23.7573C78.9005 23.7848 78.7079 23.8123 78.5139 23.8385C78.4162 23.8385 78.3198 23.8385 78.2221 23.8385C78.2098 23.844 78.196 23.8467 78.1822 23.8495C78.1809 23.8605 78.1795 23.8715 78.1795 23.8825C78.0832 23.8949 77.9869 23.9073 77.8892 23.921C77.6387 23.8564 77.3883 23.7917 77.1379 23.7284H76.4334C76.4994 23.8605 76.5476 23.9568 76.5958 24.0545C76.5558 24.0971 76.5146 24.1412 76.4747 24.1838C76.2394 24.1536 76.0041 24.1095 75.7688 24.0985C75.6312 24.093 75.4909 24.1426 75.3533 24.1673C75.1826 24.2485 75.0148 24.3366 74.84 24.4081C74.6061 24.5058 74.3791 24.6448 74.1053 24.5815C74.0612 24.5581 74.0158 24.5347 73.9718 24.5113C73.9044 24.4769 73.8411 24.4288 73.7819 24.3737C73.914 23.877 74.0488 23.3968 74.1892 22.9345C75.6904 22.7652 77.1145 22.757 78.4189 22.8464C78.8124 22.8739 79.2018 22.9111 79.5899 22.9578C79.4853 23.1367 79.3807 23.3156 79.2734 23.4931L79.2761 23.4958ZM73.4063 23.6775C73.3567 23.4601 73.354 23.2344 73.4145 23.0404C73.4751 23.0308 73.5356 23.0211 73.5961 23.0129C73.5315 23.2303 73.4682 23.4518 73.4063 23.6775ZM70.5002 23.6775C70.5952 23.7201 70.6901 23.7614 70.785 23.8041C70.5828 23.9458 70.3805 24.0889 70.1769 24.2292C69.7971 24.4893 69.4146 24.7466 69.0334 25.0039C68.9784 24.9778 68.9247 24.9324 68.8669 24.9282C68.7294 24.9172 68.5918 24.9282 68.4528 24.9241C68.2037 24.9172 67.9987 24.8388 67.8735 24.6338C68.7569 24.2458 69.6347 23.9293 70.5002 23.6775ZM65.9086 26.9523C65.8095 27.5935 65.6637 28.2292 65.5385 28.8662C65.4807 28.8938 65.4243 28.9406 65.3624 28.9474C65.2784 28.9571 65.1945 28.9584 65.1106 28.9598C65.3541 28.2003 65.6279 27.4614 65.9293 26.7445C65.9251 26.8133 65.9196 26.8835 65.9086 26.9523ZM63.9355 35.0333C63.9726 34.4843 64.0304 33.9408 64.1034 33.4042C64.3882 33.3381 64.6744 33.2804 64.9592 33.2184C64.9716 33.2239 64.984 33.2267 64.9977 33.2267V34.2325C65.156 34.2449 65.2908 34.26 65.4257 34.2628C65.6885 34.2669 65.9527 34.2463 66.2141 34.2683C66.6241 34.3041 66.9585 34.1458 67.2846 33.9229C67.6616 33.6642 68.0262 33.3698 68.4941 33.2941C68.6991 33.2611 68.9124 33.29 69.1229 33.2914C69.1353 33.4537 69.1518 33.6147 69.16 33.7771C69.1655 33.9009 69.1683 34.0261 69.16 34.15C69.1435 34.3756 69.1931 34.5779 69.3141 34.7719C69.5508 35.1517 69.8494 35.4434 70.3241 35.464C70.5938 35.4764 70.8222 35.5672 71.0341 35.7241C71.1992 35.8135 71.363 35.9029 71.5281 35.9924C71.5859 36.024 71.6436 36.0571 71.7028 36.0887C71.729 36.0983 71.7551 36.1093 71.7812 36.119C71.7964 37.6325 71.8886 39.1488 72.0578 40.6624C72.0647 40.7285 72.0743 40.7931 72.0826 40.8592C69.5343 40.5303 66.8291 39.962 64.007 39.0746C63.8584 37.6422 63.8543 36.2827 63.941 35.0333H63.9355ZM72.1486 41.4385C72.4981 44.145 73.0953 46.8433 73.9333 49.5181C71.5845 49.2264 69.0555 48.5329 66.5072 47.1941C65.1133 44.6197 64.3854 42.0604 64.0731 39.68C66.7466 40.5097 69.4435 41.0972 72.1486 41.4398V41.4385ZM72.7279 41.51C72.7499 41.5128 72.7719 41.5155 72.794 41.5183C73.504 41.5981 74.2153 41.6586 74.9267 41.704C74.9184 41.7701 74.9074 41.8347 74.9019 41.9008C74.8799 41.9173 74.8579 41.9338 74.8359 41.9517C74.8703 41.9627 74.9033 41.9737 74.9377 41.9847C74.9694 42.2338 74.9996 42.4828 75.0313 42.7319C75.0175 42.8296 75.0038 42.9259 74.99 43.0236C74.9914 43.1323 74.9928 43.241 74.9941 43.3497C75.0588 43.3676 75.1248 43.3855 75.1895 43.4033C75.2721 43.4033 75.356 43.4033 75.4386 43.4033C75.4936 43.4033 75.55 43.4033 75.6051 43.4047C75.744 43.4047 75.8816 43.4047 76.0206 43.4047C76.0454 43.4391 76.0701 43.4735 76.0949 43.5079C76.1252 43.4735 76.1568 43.4377 76.1871 43.4033C76.388 43.3868 76.5834 43.3827 76.6907 43.6015C76.7058 43.629 76.7196 43.6565 76.7347 43.684C76.7856 43.8973 76.8365 44.112 76.8875 44.3252C76.8503 44.3775 76.7581 44.4339 76.8985 44.4738C76.9136 44.5289 76.937 44.5825 76.9439 44.639C76.9741 44.8866 77.0705 44.9513 77.3085 44.8921C77.4034 44.8687 77.5039 44.8674 77.603 44.855C77.6002 45.0187 77.7351 45.0449 77.8451 45.0972L77.863 45.2224C77.8534 45.276 77.8465 45.3297 77.8341 45.382C77.7722 45.6599 77.7103 45.9379 77.647 46.2172C77.625 46.2351 77.6043 46.253 77.5823 46.2709C77.6181 46.2805 77.6539 46.2901 77.6896 46.2998C77.8135 46.3163 77.9359 46.3328 78.0598 46.3493C78.24 46.3589 78.2565 46.5089 78.3033 46.6327C78.3171 46.7566 78.3308 46.8818 78.3446 47.0056C78.3336 47.0758 78.3226 47.146 78.3116 47.2148C78.2442 47.3675 78.1767 47.5189 78.1107 47.6716L77.9497 47.8257C77.9043 47.8587 77.8589 47.8917 77.8135 47.9248C77.7172 47.9509 77.6222 47.9757 77.5259 48.0018C77.4681 48.0555 77.4103 48.1078 77.3539 48.1614C77.3002 48.2055 77.2452 48.2509 77.1915 48.2949C76.9728 48.5164 76.7526 48.7366 76.5338 48.9581C76.4912 49.0159 76.4472 49.0737 76.4045 49.1315C76.3068 49.2333 76.2105 49.3365 76.1128 49.4383C76.0371 49.5154 75.9614 49.5924 75.8844 49.6695C75.4441 49.653 74.9969 49.6241 74.5414 49.5801C73.6457 46.7593 73.0705 44.0555 72.7334 41.5059L72.7279 41.51ZM82.3335 47.8367C82.3473 47.3799 82.3597 46.9231 82.3734 46.4676C82.3776 46.3438 82.3817 46.2199 82.3858 46.0947C82.5399 46.1167 82.6596 46.0658 82.7615 45.9461C82.8454 45.8484 82.9445 45.7645 83.038 45.6751C83.0958 45.62 83.1536 45.5636 83.2114 45.5086C83.4439 45.3421 83.6779 45.177 83.9104 45.0105C83.9971 44.9582 84.0824 44.9059 84.1691 44.855C84.3892 44.7367 84.6108 44.6995 84.8364 44.8426C84.8626 44.8426 84.8873 44.8454 84.9135 44.8467C84.9011 44.7559 84.8873 44.6651 84.875 44.5757C84.8983 44.566 84.9093 44.5605 84.9204 44.555C85.1171 44.4683 85.3441 44.4298 85.4694 44.2248C85.4941 44.1863 85.5189 44.1464 85.5437 44.1078L85.5382 44.0927C85.5533 44.0927 85.5684 44.0927 85.5822 44.0927C85.6647 44.0982 85.7487 44.1037 85.8326 44.1092C85.9496 43.9771 86.1023 44.0211 86.2482 44.0253C86.3459 44.0253 86.4422 44.0253 86.5399 44.0253C86.7862 44.0239 87.0338 44.0253 87.2801 44.017C87.3517 44.0156 87.4232 43.9909 87.4962 43.9771C87.5292 43.8808 87.5622 43.7831 87.5939 43.6868C87.6585 43.6056 87.7232 43.5244 87.7879 43.4419C87.814 43.4391 87.8415 43.4364 87.8677 43.4336C87.9076 43.4143 87.9461 43.391 87.9874 43.3772C88.2062 43.3015 88.3107 43.1681 88.2942 42.9176C88.2846 42.7731 88.3272 42.6039 88.4015 42.4787C88.6024 42.1361 88.8529 41.8224 89.0455 41.4756C89.1625 41.2637 89.2189 41.016 89.2822 40.778C89.3262 40.617 89.3248 40.445 89.3578 40.2813C89.7651 40.1726 90.1614 40.0597 90.5453 39.9455C90.2261 42.1636 89.5436 44.5316 88.2956 46.9162C86.339 47.8931 84.1815 48.6705 81.885 49.1521C82.2014 48.7586 82.3624 48.3431 82.3322 47.8395L82.3335 47.8367ZM94.1572 29.5666C94.709 31.0417 95.0695 32.6089 95.2112 34.2366C94.4173 33.8913 93.4871 33.5211 92.44 33.1551C92.4964 33.0932 92.5515 33.0313 92.6079 32.9694L92.7317 32.8043H92.7303C92.8267 32.6405 92.923 32.4754 93.0193 32.3103C93.0633 32.1177 93.1087 31.925 93.1528 31.7324C93.1528 31.5659 93.1528 31.3994 93.1528 31.2343C93.1473 31.1118 93.1624 30.9839 93.1321 30.8683C93.073 30.6412 92.9725 30.4252 92.9175 30.1982C92.8212 29.8074 92.6478 29.6464 92.2364 29.6106C92.1951 29.6106 92.1538 29.6106 92.1112 29.6106C91.8951 29.5694 91.6571 29.5721 91.47 29.4758C91.1714 29.3231 90.9031 29.1112 90.6279 28.9158C90.3995 28.7534 90.1724 28.5883 89.9454 28.4218C89.6551 27.5605 89.3262 26.7239 88.9629 25.9176C90.9388 26.9729 92.6918 28.2278 94.1572 29.5694V29.5666ZM93.6894 28.4342C92.2075 27.2 90.4875 26.0593 88.5818 25.103C87.5856 23.0721 86.3803 21.2475 85.0717 19.6899C88.8763 21.4911 91.9447 24.6007 93.6908 28.4342H93.6894ZM83.8994 19.1849C85.3304 20.726 86.6651 22.596 87.7714 24.7108C85.6744 23.7421 83.3738 23.0005 80.9328 22.5918C80.381 20.7962 79.7866 19.2758 79.2583 18.0745C80.8778 18.2355 82.4354 18.6167 83.898 19.1836L83.8994 19.1849ZM77.4819 17.9879C77.8699 17.9879 78.2538 18.0016 78.6363 18.0264C79.1606 19.1918 79.7632 20.6985 80.3288 22.4997C80.3026 22.4955 80.2778 22.4928 80.2517 22.4886C80.2104 22.4157 80.1678 22.3428 80.1265 22.2699C80.1155 22.2437 80.1058 22.2176 80.0948 22.1901C80.0687 22.1901 80.0439 22.1887 80.0178 22.1873C80.0054 22.2148 79.9916 22.241 79.9793 22.2685C79.9627 22.3098 79.9462 22.351 79.9297 22.3923C79.9201 22.4088 79.9105 22.424 79.9008 22.4405C79.4261 22.3799 78.9459 22.3332 78.4616 22.3001C77.0718 22.2052 75.7069 22.23 74.3694 22.3689C74.9184 20.6366 75.5019 19.1822 76.011 18.0484C76.4967 18.0085 76.9879 17.9865 77.4833 17.9865L77.4819 17.9879ZM75.3808 18.1117C74.8717 19.2716 74.3034 20.726 73.7709 22.4377C73.7269 22.4432 73.6828 22.4501 73.6388 22.457C73.6484 22.3731 73.6292 22.2946 73.5494 22.2423C73.3375 22.1034 73.3072 21.9259 73.3127 21.7057C73.3141 21.6466 73.2549 21.5502 73.204 21.5351C73.1407 21.5158 73.054 21.5557 72.9838 21.586C72.9439 21.6039 72.9123 21.6493 72.8834 21.6878C72.5449 22.1378 72.0633 22.3153 71.5308 22.3909C71.3409 22.4185 71.1882 22.4763 71.1414 22.684C71.1318 22.6937 71.1222 22.7047 71.1125 22.7143C70.7795 22.6317 70.4466 22.5478 70.1136 22.4653C70.0971 22.4556 70.0819 22.446 70.0654 22.4364C70.053 22.4377 70.0406 22.435 70.031 22.4253C69.9622 22.4116 69.892 22.3965 69.8232 22.3827C69.8109 22.3896 69.7971 22.3923 69.7833 22.3923C69.8384 22.5574 69.8934 22.7212 69.9485 22.8863C70.0021 23.0019 70.0558 23.1188 70.1081 23.2344C69.2797 23.4903 68.4638 23.7944 67.663 24.1481C67.6588 24.1371 67.6547 24.1274 67.6506 24.1178C67.5997 23.9871 67.5323 23.9045 67.4029 24.038C67.3272 24.1164 67.2474 24.1659 67.1649 24.1921C68.1652 22.3772 69.3293 20.7549 70.5732 19.3817C72.0812 18.7446 73.6938 18.3112 75.378 18.1117H75.3808ZM69.3747 19.9445C68.351 21.1952 67.396 22.6111 66.5608 24.1604C66.3008 24.1935 66.0407 24.2251 65.782 24.2636C65.7284 24.2719 65.6513 24.298 65.632 24.3379C65.5509 24.5127 65.6458 24.7095 65.8316 24.7783C65.899 24.803 65.9719 24.8168 66.0407 24.836L66.0806 24.9241C65.9802 24.9778 65.8797 25.0342 65.7793 25.0892C65.7765 25.0892 65.7738 25.0892 65.771 25.0906C65.5811 25.1099 65.5055 25.1456 65.4738 25.2612C64.0332 26.0923 62.66 27.0899 61.361 28.2484C63.0384 24.6737 65.8701 21.7442 69.3747 19.9431V19.9445ZM60.8464 29.462C62.3972 27.9416 63.9891 26.7431 65.5798 25.8089C65.5894 25.8199 65.5977 25.8336 65.6087 25.8446C65.6376 25.8721 65.6623 25.9024 65.6857 25.9327C65.2385 26.9275 64.8422 27.9664 64.5079 29.0437C64.4542 29.0548 64.3992 29.063 64.3455 29.0754C63.6837 29.2323 62.9324 29.7551 62.9984 30.5876C63.0026 30.6344 62.9613 30.7073 62.92 30.7307C62.4742 30.9756 62.3449 31.4778 62.6022 31.8975C62.7989 32.2167 62.9613 32.5566 63.1484 32.8827C63.1746 32.9281 63.242 32.9611 63.297 32.9776C63.3397 32.99 63.3837 33.0024 63.4264 33.0134C62.1921 33.4152 60.9634 33.8693 59.7415 34.3742C59.8764 32.6584 60.2575 31.01 60.8464 29.4634V29.462ZM63.1292 30.7348C63.037 30.827 62.9393 30.9137 62.8498 31.0086C62.9393 30.9151 63.037 30.827 63.1292 30.7348ZM59.6837 35.7846C59.6837 35.5163 59.6906 35.2494 59.703 34.9824C60.9978 34.4417 62.2733 33.9683 63.5254 33.561C63.4663 34.0344 63.4181 34.5132 63.3851 34.9962C63.2943 36.3171 63.3108 37.6174 63.4319 38.8929C62.2307 38.4994 61.0074 38.0453 59.7677 37.5293C59.7113 36.9556 59.6824 36.3735 59.6824 35.786L59.6837 35.7846ZM59.842 38.154C61.0542 38.6521 62.2733 39.1007 63.4993 39.497C63.8048 41.9999 64.5216 44.4023 65.6472 46.6809C65.6554 46.6974 65.6651 46.7139 65.6733 46.7318C64.2836 45.9241 62.8939 44.9155 61.5303 43.6689C60.6854 41.9668 60.1048 40.1107 59.8434 38.154H59.842ZM62.2678 45.0105C63.4924 46.0067 64.7776 46.8666 66.1219 47.5849C66.8085 48.8315 67.6189 50.0286 68.5477 51.1721C65.9774 49.6736 63.813 47.5505 62.2678 45.0105ZM69.8343 51.8532C68.6894 50.59 67.7469 49.3062 66.9791 48.0197C69.244 49.1095 71.6299 49.8016 74.1135 50.0892C74.4823 51.2161 74.8937 52.3375 75.3491 53.4534C73.3966 53.2195 71.5418 52.6677 69.8343 51.8532ZM75.9711 53.5181C75.5019 52.3802 75.0849 51.256 74.7203 50.1511C74.9281 50.169 75.1359 50.1841 75.3436 50.1965C75.3037 50.2584 75.2624 50.3231 75.2088 50.4056C75.3574 50.3946 75.4812 50.385 75.6037 50.3754C75.6725 50.3754 75.7427 50.3754 75.8114 50.3754C75.8665 50.4001 75.9229 50.4263 75.9779 50.451C75.9779 50.4359 75.9779 50.4221 75.9779 50.407C76.0467 50.4483 76.1169 50.4909 76.1857 50.5322C76.2807 50.6712 76.3742 50.8102 76.4692 50.9491C76.4857 50.989 76.5022 51.0289 76.5187 51.0689C76.5737 51.084 76.6274 51.0991 76.6824 51.1129C76.7072 51.0867 76.7333 51.0592 76.7581 51.0331C76.7746 51.0207 76.7925 51.0083 76.809 50.9959L76.8035 50.9767C76.8035 50.9547 76.8063 50.9326 76.8063 50.9106C76.8338 50.9134 76.8627 50.9134 76.8916 50.9134C76.8627 50.9134 76.8324 50.9134 76.8063 50.9106C76.8063 50.9326 76.8035 50.9547 76.8035 50.9767L77.6814 51.6935C77.8754 51.8724 78.0694 52.0513 78.2648 52.2302C78.3487 52.3003 78.4327 52.3705 78.518 52.4407C78.5304 52.4421 78.5414 52.4434 78.5538 52.4462C78.5827 52.4586 78.6102 52.471 78.6377 52.4833C78.6377 52.4558 78.6377 52.4283 78.6377 52.4008C78.6115 52.3705 78.5882 52.3389 78.5634 52.3072C78.5882 52.3389 78.6129 52.3705 78.6377 52.4008C78.6377 52.4283 78.6377 52.4558 78.6377 52.4833C78.6515 52.5109 78.6652 52.5398 78.679 52.5673C78.6817 52.5948 78.6845 52.6223 78.6872 52.6512C78.6033 52.9512 78.5207 53.2525 78.4368 53.5525C78.1189 53.5704 77.8011 53.5814 77.4791 53.5814C76.97 53.5814 76.4664 53.5594 75.9683 53.5167L75.9711 53.5181ZM78.668 53.5415C78.668 53.5415 78.6748 53.536 78.6776 53.5318C78.6776 53.5346 78.6748 53.5373 78.6735 53.5401C78.6707 53.5401 78.6693 53.5401 78.6666 53.5401L78.668 53.5415ZM79.2927 53.4906C79.7082 52.4696 80.0866 51.4445 80.4319 50.4139C80.5283 50.4428 80.6246 50.4717 80.7209 50.5006C80.7319 50.5116 80.7429 50.5226 80.7539 50.5322C80.7223 50.6175 80.703 50.7111 80.6576 50.7882C80.5255 51.0124 80.381 51.2312 80.2297 51.4734C80.293 51.4816 80.315 51.4913 80.3315 51.4858C80.3563 51.4775 80.3852 51.4651 80.3989 51.4459C80.5916 51.1459 80.7801 50.8432 80.9713 50.5419C81.1241 50.3011 81.2644 50.0493 81.4158 49.8057C83.7054 49.3792 85.867 48.6595 87.8457 47.739C87.0008 49.2003 85.9344 50.6629 84.6039 52.0953C82.95 52.8205 81.1653 53.302 79.2954 53.4919L79.2927 53.4906ZM85.8436 51.4913C86.9472 50.1772 87.8924 48.7916 88.6699 47.3372C90.2068 46.5584 91.6199 45.6613 92.8844 44.6926C91.2195 47.5615 88.7744 49.924 85.8436 51.4913ZM89.0964 46.4965C90.1298 44.3555 90.8054 42.1058 91.1205 39.768C92.6698 39.2809 94.0072 38.7663 95.1011 38.2958C94.8424 40.123 94.3058 41.8623 93.5339 43.468C92.2378 44.5715 90.7462 45.6035 89.0964 46.4965Z" fill="white"/>
<path id="Vector_3" d="M125.777 36.8249C123.031 34.3358 119.045 33.0203 114.249 33.0203C114.244 33.0203 114.238 33.0203 114.234 33.0203C107.8 32.5277 106.801 28.2017 106.801 25.5695C106.801 21.4361 110.639 18.0718 115.356 18.0718C117.854 18.0718 120.185 19.0102 121.816 20.6573C121.891 20.7715 121.973 20.8843 122.069 20.9903C123.274 22.325 123.911 23.9321 123.911 25.6369C123.911 27.1188 125.208 28.32 126.808 28.32C128.408 28.32 129.704 27.1188 129.704 25.6369C129.704 22.8602 128.69 20.1427 126.842 17.9287C126.751 17.7719 126.641 17.6205 126.513 17.4788C123.774 14.4448 119.708 12.7056 115.357 12.7056C107.445 12.7056 101.01 18.4764 101.01 25.5695C101.01 33.3313 106.635 38.3797 115.339 38.4334H115.358C115.402 38.4334 115.446 38.4293 115.49 38.4279C120.862 38.7829 123.913 41.4977 123.913 45.9998C123.913 50.1332 120.075 53.4975 115.358 53.4975C110.642 53.4975 106.804 50.1346 106.804 45.9998C106.804 44.5179 105.508 43.3167 103.908 43.3167C102.307 43.3167 101.011 44.5179 101.011 45.9998C101.011 53.0929 107.448 58.8638 115.358 58.8638C123.269 58.8638 129.706 53.0929 129.706 45.9998C129.706 42.3783 128.312 39.12 125.78 36.8263L125.777 36.8249Z" fill="white"/>
<path id="Vector_4" d="M23.163 59.1209C25.2683 59.1209 27.3556 58.8374 29.3673 58.2802C30.7955 57.8839 31.6321 56.4061 31.2358 54.9779C30.8395 53.5496 29.3618 52.713 27.9335 53.1093C26.3897 53.5372 24.7853 53.7546 23.1644 53.7546C14.2027 53.7546 6.76976 47.0977 5.54515 38.469H16.9079C18.3898 38.469 19.591 37.2678 19.591 35.7859C19.591 34.3039 18.3898 33.1027 16.9079 33.1027H5.59606C6.96652 24.6419 14.3211 18.1597 23.163 18.1597C24.7825 18.1597 26.3883 18.3771 27.9321 18.8051C29.3604 19.2 30.8382 18.3647 31.2344 16.9365C31.6307 15.5082 30.7941 14.0305 29.3659 13.6342C27.3542 13.0769 25.2669 12.7935 23.1617 12.7935C10.4684 12.7935 0.126589 23.0595 0.00275193 35.7267C0.00275193 35.746 0 35.7652 0 35.7845C0 35.7955 0.00137597 35.8079 0.00137597 35.8189C0.00137597 35.8643 0 35.9097 0 35.9565C0 48.7296 10.3913 59.1195 23.163 59.1195V59.1209Z" fill="white"/>
</g>
<g id="Group 16">
<path id="Vector_5" d="M15.3242 7.16879H18.3678C18.7325 7.16879 19.0682 7.13852 19.4026 7.09311L21.944 10.6555H22.8274L20.1635 6.92662C21.7458 6.45466 22.6595 5.28234 22.6595 3.59265C22.6595 1.34019 21.0455 0 18.3665 0H14.5454V10.6555H15.3215V7.17016L15.3242 7.16879ZM15.3242 0.700367H18.3678C20.6506 0.700367 21.8683 1.75023 21.8683 3.59265C21.8683 5.43507 20.6506 6.48493 18.3678 6.48493H15.3242V0.700367Z" fill="white"/>
<path id="Vector_6" d="M32.8596 9.95512H26.2839V5.58643H31.9611V4.90119H26.2839V0.700367H32.6312V0H25.5078V10.6555H32.8596V9.95512Z" fill="white"/>
<path id="Vector_7" d="M45.569 5.32774C45.569 2.22219 43.2863 0 39.9069 0H35.6909V10.6555H39.9069C43.2863 10.6555 45.569 8.4333 45.569 5.32774ZM36.467 9.95512V0.700367H39.8463C42.8597 0.700367 44.7929 2.61847 44.7929 5.32774C44.7929 8.03702 42.8597 9.95512 39.8463 9.95512H36.467Z" fill="white"/>
<path id="Vector_8" d="M55.6155 9.95512H49.0397V5.58643H54.7183V4.90119H49.0397V0.700367H55.3871V0H48.2637V10.6555H55.6155V9.95512Z" fill="white"/>
</g>
</g>
</svg>
