<svg width="746" height="474" viewBox="0 0 746 474" fill="none" xmlns="http://www.w3.org/2000/svg">
<path d="M325.264 335.67C333.466 333.394 338.27 324.907 335.995 316.705C333.719 308.503 325.232 303.707 317.03 305.975C308.157 308.432 298.943 309.681 289.643 309.681C233.287 309.681 187.44 263.834 187.44 207.478C187.44 151.123 233.287 105.276 289.643 105.276C298.951 105.276 308.164 106.525 317.03 108.982C325.232 111.258 333.719 106.453 335.995 98.2514C338.27 90.0493 333.466 81.5627 325.264 79.287C313.712 76.0789 301.724 74.459 289.635 74.459C216.282 74.459 156.615 134.134 156.615 207.478C156.615 280.823 216.29 340.498 289.635 340.498C301.724 340.498 313.712 338.87 325.264 335.67Z" fill="#554294"/>
<path d="M578.627 205.503C578.627 132.15 518.952 72.4834 445.607 72.4834C372.263 72.4834 312.588 132.158 312.588 205.503C312.588 278.848 372.263 338.522 445.607 338.522C518.952 338.522 578.627 278.848 578.627 205.503ZM547.81 205.503C547.81 209.146 547.612 212.733 547.241 216.281C541.069 218.999 533.373 222.041 524.341 224.933C525.187 217.103 525.345 209.106 524.784 200.975C524.728 200.169 524.641 199.363 524.578 198.557C526.08 196.637 527.723 194.827 529.327 192.978C536.423 195.42 542.586 197.901 547.675 200.161C547.77 201.931 547.817 203.709 547.817 205.495L547.81 205.503ZM521.078 225.953C519.308 226.49 517.482 227.027 515.618 227.549C515.657 227.415 515.704 227.28 515.744 227.146C516.06 225.953 516.186 224.712 516.4 223.495C516.036 223.566 515.673 223.637 515.301 223.709C515.357 224.625 515.222 225.479 514.977 226.293C515.222 225.471 515.357 224.617 515.301 223.709C515.665 223.637 516.036 223.566 516.4 223.495C516.684 221.978 516.961 220.453 517.245 218.936C517.245 217.506 517.245 216.075 517.245 214.645C517.143 213.934 517.032 213.215 516.929 212.504C517.15 210.528 516.574 208.474 517.474 206.554C518.02 206.301 518.565 206.048 519.11 205.803C519.347 205.724 519.584 205.645 519.829 205.566C520.311 204.958 520.92 204.412 521.252 203.733C521.402 203.425 521.576 203.132 521.734 202.832C522.144 210.015 522.034 217.782 521.086 225.953H521.078ZM493.548 251.839C493.263 251.894 492.931 251.839 492.615 251.823C492.931 251.839 493.263 251.887 493.548 251.839ZM473.762 264.711C473.675 264.711 473.596 264.711 473.509 264.703C473.556 264.632 473.596 264.553 473.635 264.474C473.596 264.553 473.556 264.64 473.509 264.703C473.596 264.703 473.675 264.703 473.762 264.711ZM445.481 276.864C445.671 276.698 445.868 276.477 446.058 276.635C445.876 276.477 445.678 276.698 445.481 276.864ZM464.674 143.853C464.832 143.932 464.991 144.011 465.149 144.098C465.378 144.098 465.599 144.098 465.828 144.098C465.852 143.94 465.883 143.782 465.907 143.624C465.931 143.584 465.947 143.552 465.97 143.513C466.097 144.011 466.215 144.516 466.342 145.022C466.271 144.951 466.199 144.88 466.128 144.809C466.034 144.572 465.931 144.335 465.836 144.098C465.607 144.098 465.386 144.098 465.156 144.098C464.998 144.019 464.84 143.94 464.682 143.853H464.674ZM466.689 146.452C466.571 146.381 466.452 146.31 466.334 146.239C466.444 146.31 466.571 146.381 466.689 146.452ZM477.072 151.312C477.088 151.225 477.096 151.122 477.088 151.004C477.215 150.956 477.349 150.917 477.475 150.885C477.349 150.917 477.223 150.956 477.088 151.004C477.088 151.13 477.088 151.225 477.072 151.312ZM500.13 163.117C500.13 163.117 500.154 163.196 500.162 163.228C500.162 163.228 500.138 163.157 500.13 163.117ZM421.696 218.936C421.696 217.845 421.665 216.771 421.57 215.696C421.665 216.771 421.696 217.853 421.696 218.936ZM418.077 209.153C419.863 209.501 419.903 209.533 420.021 211.319C420.037 211.556 420.037 211.785 420.045 212.022C419.642 212.709 419.144 213.428 420.456 213.697C420.456 213.934 420.464 214.171 420.472 214.408C419.839 214.724 419.839 215.04 420.472 215.364C420.566 215.933 420.645 216.51 420.756 217.071C420.906 217.853 421.088 218.636 421.254 219.418C421.23 219.497 421.199 219.576 421.175 219.655C421.041 219.758 420.914 219.86 420.78 219.971C420.914 220.105 421.056 220.24 421.191 220.374C421.404 220.611 421.602 221.03 421.839 221.054C422.984 221.188 424.138 221.22 425.284 221.283C425.758 221.306 426.24 221.338 426.714 221.362C426.793 221.362 426.872 221.362 426.951 221.362C427.488 222.697 427.718 222.745 428.729 221.741C428.776 221.694 428.942 221.773 429.061 221.796C428.982 222.436 428.903 223.069 428.824 223.709C428.674 223.709 428.531 223.709 428.381 223.709C428.547 224.025 428.713 224.341 428.879 224.657C429.393 225.202 429.843 225.826 430.428 226.293C433.367 228.639 433.438 230.528 432.008 233.941C431.684 234.716 431.36 235.467 431.155 236.257C426.825 235.972 422.408 235.585 417.888 235.064C416.797 225.897 416.244 217.095 416.094 208.703C416.75 208.861 417.406 209.035 418.077 209.161V209.153ZM510.568 210.204C509.723 210.671 510.165 211.556 510.039 212.259C510.221 212.267 510.355 212.251 510.458 212.211C510.355 212.251 510.213 212.275 510.023 212.267C509.976 212.946 509.944 213.626 509.904 214.44C509.944 213.626 509.984 212.946 510.015 212.275C510.015 212.275 510.015 212.275 510.023 212.275C510.157 211.571 509.715 210.678 510.56 210.212L510.568 210.204ZM510.284 160.02C509.43 159.893 508.585 159.664 507.731 159.68C506.673 159.688 505.614 159.901 504.555 160.028C503.599 159.783 502.643 159.538 501.687 159.293C500.825 158.993 499.98 158.621 499.095 158.408C496.898 157.894 494.725 158.013 492.623 158.89C492.465 158.977 492.299 159.056 492.141 159.143C491.975 159.056 491.809 158.961 491.643 158.874C491.699 158.811 491.762 158.756 491.817 158.692C491.912 158.59 492.015 158.487 492.11 158.384C492.11 158.305 492.094 158.226 492.094 158.147C492.552 155.848 491.011 153.975 488.799 154.157C488.641 154.133 488.483 154.101 488.332 154.078C487.843 153.643 487.416 153.05 486.839 152.813C484.563 151.849 482.248 150.996 479.941 150.095C479.546 149.985 479.158 149.882 478.763 149.771C477.965 150.016 477.167 150.261 476.369 150.506C476.29 150.53 476.211 150.553 476.132 150.569C476.053 150.632 475.974 150.696 475.895 150.759C475.042 151.707 474.196 152.647 473.343 153.596C473.003 153.935 472.663 154.275 472.315 154.615C472.308 154.283 472.3 153.951 472.292 153.627C472.395 153.311 472.489 153.003 472.592 152.687C472.655 152.663 472.711 152.64 472.774 152.624C473.287 151.312 473.801 150 474.323 148.681C474.37 148.586 474.409 148.499 474.457 148.404C473.667 148.301 472.869 148.199 472.078 148.096C471.841 148.096 471.604 148.096 471.359 148.096C470.996 148.017 470.624 147.938 470.261 147.859C469.084 142.667 467.788 137.745 466.436 133.122C481.007 135.714 494.67 140.408 506.973 146.468C509.138 150.956 511.113 155.619 512.876 160.439C512.07 160.099 511.224 159.893 510.276 160.02H510.284ZM462.96 134.133C462.841 133.62 462.81 133.075 462.754 132.529C462.825 132.537 462.904 132.553 462.976 132.561C463.426 134.07 463.868 135.611 464.303 137.184C463.6 136.346 463.236 135.303 462.952 134.126L462.96 134.133ZM455.911 134.932C455.595 135.453 455.216 135.935 454.868 136.433C453.754 136.591 452.648 136.749 451.534 136.899C450.973 136.899 450.42 136.899 449.858 136.899C449.787 136.931 449.708 136.947 449.629 136.962C449.621 137.026 449.614 137.089 449.614 137.152C449.06 137.223 448.507 137.294 447.946 137.373C446.508 137.002 445.07 136.63 443.632 136.267H439.586C439.965 137.026 440.242 137.579 440.519 138.14C440.289 138.385 440.052 138.638 439.823 138.882C438.472 138.709 437.121 138.456 435.77 138.393C434.979 138.361 434.173 138.645 433.383 138.788C432.403 139.254 431.439 139.76 430.436 140.17C429.092 140.731 427.789 141.53 426.216 141.166C425.963 141.032 425.703 140.897 425.45 140.763C425.063 140.566 424.699 140.289 424.359 139.973C425.118 137.12 425.892 134.363 426.698 131.708C435.319 130.736 443.497 130.688 450.988 131.202C453.248 131.36 455.485 131.573 457.713 131.842C457.112 132.869 456.512 133.896 455.895 134.916L455.911 134.932ZM422.202 135.975C421.918 134.726 421.902 133.43 422.249 132.316C422.597 132.261 422.945 132.205 423.293 132.158C422.921 133.407 422.558 134.679 422.202 135.975ZM405.513 135.975C406.059 136.22 406.604 136.457 407.149 136.702C405.988 137.515 404.826 138.337 403.656 139.143C401.476 140.637 399.279 142.114 397.09 143.592C396.774 143.442 396.466 143.181 396.134 143.157C395.344 143.094 394.554 143.157 393.755 143.134C392.325 143.094 391.148 142.644 390.429 141.466C395.502 139.238 400.543 137.421 405.513 135.975ZM379.145 154.781C378.576 158.463 377.738 162.114 377.019 165.772C376.688 165.93 376.364 166.199 376.008 166.239C375.526 166.294 375.044 166.302 374.562 166.31C375.961 161.948 377.533 157.705 379.264 153.588C379.24 153.983 379.208 154.386 379.145 154.781ZM367.814 201.188C368.027 198.036 368.359 194.914 368.778 191.833C370.413 191.453 372.057 191.121 373.693 190.766C373.764 190.797 373.835 190.813 373.914 190.813V196.59C374.823 196.661 375.597 196.748 376.371 196.763C377.881 196.787 379.398 196.669 380.899 196.795C383.254 197 385.174 196.092 387.047 194.812C389.212 193.326 391.306 191.635 393.993 191.2C395.17 191.011 396.395 191.177 397.604 191.185C397.675 192.117 397.77 193.042 397.817 193.974C397.849 194.685 397.864 195.404 397.817 196.115C397.722 197.411 398.007 198.573 398.702 199.687C400.061 201.868 401.776 203.543 404.502 203.662C406.051 203.733 407.362 204.254 408.579 205.155C409.528 205.669 410.468 206.182 411.416 206.696C411.748 206.878 412.08 207.067 412.42 207.249C412.57 207.304 412.72 207.368 412.87 207.423C412.957 216.115 413.486 224.823 414.458 233.515C414.498 233.894 414.553 234.265 414.601 234.645C399.966 232.756 384.431 229.493 368.225 224.396C367.371 216.17 367.348 208.363 367.845 201.188H367.814ZM414.98 237.971C416.987 253.514 420.416 269.01 425.228 284.371C411.74 282.696 397.216 278.713 382.582 271.025C374.578 256.24 370.398 241.543 368.604 227.873C383.957 232.638 399.445 236.012 414.98 237.979V237.971ZM418.306 238.382C418.433 238.398 418.559 238.414 418.686 238.43C422.763 238.888 426.848 239.236 430.934 239.496C430.886 239.876 430.823 240.247 430.791 240.626C430.665 240.721 430.539 240.816 430.412 240.919C430.61 240.982 430.799 241.045 430.997 241.108C431.179 242.539 431.352 243.969 431.534 245.399C431.455 245.96 431.376 246.513 431.297 247.074C431.305 247.699 431.313 248.323 431.321 248.947C431.692 249.05 432.071 249.152 432.443 249.255C432.917 249.255 433.399 249.255 433.873 249.255C434.189 249.255 434.513 249.255 434.829 249.263C435.627 249.263 436.417 249.263 437.216 249.263C437.358 249.461 437.5 249.658 437.642 249.856C437.816 249.658 437.998 249.453 438.172 249.255C439.325 249.16 440.447 249.137 441.064 250.393C441.151 250.551 441.23 250.709 441.317 250.867C441.609 252.092 441.901 253.325 442.194 254.549C441.98 254.85 441.451 255.174 442.257 255.403C442.344 255.719 442.478 256.027 442.518 256.351C442.692 257.773 443.245 258.145 444.612 257.805C445.157 257.671 445.734 257.663 446.303 257.592C446.287 258.532 447.061 258.682 447.693 258.982L447.796 259.701C447.741 260.01 447.701 260.318 447.63 260.618C447.275 262.214 446.919 263.81 446.556 265.414C446.429 265.517 446.311 265.62 446.184 265.723C446.39 265.778 446.595 265.833 446.8 265.889C447.512 265.983 448.215 266.078 448.926 266.173C449.961 266.228 450.056 267.09 450.325 267.801C450.404 268.512 450.483 269.231 450.562 269.942C450.499 270.345 450.435 270.748 450.372 271.143C449.985 272.02 449.598 272.89 449.218 273.767L448.294 274.652C448.033 274.841 447.772 275.031 447.512 275.221C446.959 275.371 446.413 275.513 445.86 275.663C445.528 275.971 445.196 276.272 444.872 276.58C444.564 276.833 444.248 277.093 443.94 277.346C442.684 278.618 441.419 279.883 440.163 281.155C439.918 281.487 439.665 281.819 439.42 282.151C438.859 282.735 438.306 283.328 437.745 283.913C437.31 284.355 436.876 284.798 436.433 285.24C433.905 285.145 431.337 284.979 428.721 284.727C423.577 268.528 420.274 253.001 418.338 238.359L418.306 238.382ZM473.469 274.715C473.548 272.092 473.619 269.468 473.698 266.853C473.722 266.141 473.746 265.43 473.769 264.711C474.654 264.838 475.342 264.545 475.927 263.858C476.409 263.297 476.978 262.815 477.515 262.301C477.847 261.985 478.179 261.661 478.511 261.345C479.846 260.389 481.189 259.441 482.525 258.485C483.022 258.184 483.512 257.884 484.01 257.592C485.275 256.912 486.547 256.699 487.843 257.521C487.993 257.521 488.135 257.536 488.285 257.544C488.214 257.023 488.135 256.501 488.064 255.988C488.198 255.932 488.261 255.901 488.325 255.869C489.455 255.371 490.758 255.15 491.477 253.973C491.62 253.751 491.762 253.522 491.904 253.301L491.872 253.214C491.959 253.214 492.046 253.214 492.125 253.214C492.599 253.246 493.081 253.277 493.563 253.309C494.235 252.55 495.112 252.803 495.95 252.827C496.511 252.827 497.064 252.827 497.625 252.827C499.039 252.819 500.462 252.827 501.876 252.779C502.287 252.772 502.698 252.629 503.117 252.55C503.306 251.997 503.496 251.436 503.678 250.883C504.049 250.417 504.421 249.951 504.792 249.476C504.942 249.461 505.1 249.445 505.25 249.429C505.479 249.318 505.701 249.184 505.938 249.105C507.194 248.67 507.795 247.904 507.7 246.466C507.645 245.636 507.889 244.664 508.316 243.945C509.47 241.978 510.908 240.176 512.014 238.185C512.686 236.968 513.01 235.546 513.373 234.179C513.626 233.254 513.618 232.266 513.808 231.326C516.147 230.702 518.423 230.054 520.627 229.398C518.794 242.136 514.875 255.735 507.708 269.429C496.471 275.039 484.081 279.503 470.893 282.269C472.711 280.009 473.635 277.623 473.461 274.731L473.469 274.715ZM541.37 169.794C544.538 178.265 546.609 187.265 547.422 196.613C542.863 194.63 537.521 192.504 531.508 190.402C531.832 190.047 532.148 189.691 532.472 189.336L533.183 188.387H533.175C533.729 187.447 534.282 186.499 534.835 185.551C535.088 184.444 535.348 183.338 535.601 182.232C535.601 181.276 535.601 180.32 535.601 179.371C535.57 178.668 535.657 177.933 535.483 177.27C535.143 175.966 534.566 174.725 534.25 173.421C533.697 171.177 532.701 170.253 530.339 170.047C530.102 170.047 529.865 170.047 529.62 170.047C528.379 169.81 527.012 169.826 525.937 169.273C524.223 168.396 522.682 167.179 521.101 166.057C519.79 165.124 518.486 164.176 517.182 163.22C515.515 158.274 513.626 153.469 511.54 148.839C522.887 154.899 532.954 162.106 541.37 169.81V169.794ZM538.683 163.291C530.173 156.203 520.295 149.653 509.351 144.161C503.63 132.498 496.708 122.02 489.194 113.075C511.042 123.419 528.663 141.277 538.691 163.291H538.683ZM482.461 110.175C490.679 119.025 498.344 129.764 504.697 141.909C492.655 136.346 479.443 132.087 465.425 129.74C462.256 119.428 458.843 110.697 455.809 103.798C465.109 104.723 474.054 106.912 482.454 110.167L482.461 110.175ZM445.607 103.301C447.836 103.301 450.04 103.38 452.237 103.522C455.248 110.215 458.709 118.867 461.956 129.211C461.806 129.187 461.664 129.171 461.514 129.147C461.277 128.729 461.032 128.31 460.795 127.891C460.731 127.741 460.676 127.591 460.613 127.433C460.463 127.433 460.32 127.425 460.17 127.417C460.099 127.575 460.02 127.725 459.949 127.883C459.854 128.12 459.759 128.357 459.665 128.594C459.609 128.689 459.554 128.776 459.499 128.871C456.773 128.523 454.015 128.255 451.233 128.065C443.253 127.52 435.414 127.662 427.733 128.46C430.886 118.512 434.237 110.159 437.16 103.648C439.95 103.419 442.771 103.293 445.615 103.293L445.607 103.301ZM433.541 104.012C430.618 110.673 427.354 119.025 424.296 128.855C424.043 128.887 423.79 128.926 423.537 128.966C423.593 128.484 423.482 128.033 423.024 127.733C421.807 126.935 421.633 125.916 421.665 124.651C421.673 124.311 421.333 123.758 421.041 123.671C420.677 123.561 420.179 123.79 419.776 123.964C419.547 124.067 419.365 124.327 419.199 124.549C417.256 127.132 414.49 128.152 411.432 128.586C410.341 128.744 409.464 129.076 409.196 130.269C409.14 130.325 409.085 130.388 409.03 130.443C407.117 129.969 405.205 129.487 403.293 129.013C403.198 128.958 403.111 128.902 403.016 128.847C402.945 128.855 402.874 128.839 402.819 128.784C402.424 128.705 402.021 128.618 401.626 128.539C401.555 128.578 401.476 128.594 401.397 128.594C401.713 129.543 402.029 130.483 402.345 131.431C402.653 132.095 402.961 132.766 403.261 133.43C398.504 134.9 393.819 136.646 389.22 138.677C389.196 138.614 389.172 138.558 389.149 138.503C388.856 137.753 388.469 137.278 387.726 138.045C387.292 138.495 386.833 138.78 386.359 138.93C392.104 128.507 398.789 119.191 405.932 111.305C414.593 107.647 423.854 105.157 433.525 104.012H433.541ZM399.05 114.537C393.171 121.72 387.687 129.851 382.89 138.748C381.397 138.938 379.904 139.12 378.418 139.341C378.11 139.388 377.667 139.538 377.557 139.767C377.091 140.771 377.636 141.901 378.703 142.296C379.09 142.438 379.508 142.517 379.904 142.628L380.133 143.134C379.556 143.442 378.979 143.766 378.402 144.082C378.386 144.082 378.371 144.082 378.355 144.09C377.264 144.2 376.83 144.406 376.648 145.07C368.375 149.842 360.489 155.571 353.029 162.224C362.662 141.696 378.924 124.873 399.05 114.529V114.537ZM350.074 169.194C358.98 160.462 368.122 153.58 377.256 148.215C377.312 148.278 377.359 148.357 377.422 148.42C377.588 148.578 377.731 148.752 377.865 148.926C375.297 154.639 373.021 160.605 371.101 166.792C370.793 166.855 370.477 166.902 370.169 166.973C366.368 167.874 362.053 170.877 362.433 175.658C362.456 175.926 362.219 176.345 361.982 176.479C359.422 177.886 358.679 180.77 360.157 183.18C361.287 185.013 362.219 186.965 363.294 188.838C363.444 189.099 363.831 189.288 364.147 189.383C364.392 189.454 364.645 189.525 364.89 189.588C357.802 191.896 350.746 194.503 343.729 197.403C344.503 187.55 346.692 178.083 350.074 169.202V169.194ZM363.183 176.503C362.654 177.032 362.093 177.53 361.579 178.076C362.093 177.538 362.654 177.032 363.183 176.503ZM343.397 205.503C343.397 203.962 343.437 202.429 343.508 200.896C350.943 197.791 358.268 195.072 365.459 192.733C365.119 195.452 364.843 198.201 364.653 200.975C364.132 208.561 364.226 216.028 364.922 223.353C358.023 221.093 350.999 218.485 343.879 215.522C343.555 212.227 343.389 208.885 343.389 205.511L343.397 205.503ZM344.306 219.11C351.267 221.97 358.268 224.546 365.309 226.822C367.063 241.195 371.18 254.992 377.644 268.077C377.691 268.172 377.746 268.267 377.794 268.37C369.813 263.731 361.832 257.939 354.001 250.78C349.15 241.006 345.815 230.346 344.314 219.11H344.306ZM358.237 258.485C365.269 264.205 372.65 269.144 380.37 273.269C384.313 280.428 388.967 287.303 394.301 293.869C379.54 285.264 367.111 273.071 358.237 258.485ZM401.689 297.78C395.115 290.526 389.702 283.154 385.293 275.766C398.299 282.024 412.001 285.999 426.264 287.65C428.381 294.122 430.744 300.562 433.359 306.97C422.147 305.627 411.495 302.458 401.689 297.78ZM436.931 307.342C434.237 300.807 431.842 294.351 429.748 288.006C430.941 288.109 432.135 288.195 433.328 288.267C433.099 288.622 432.862 288.993 432.553 289.468C433.407 289.404 434.118 289.349 434.821 289.294C435.216 289.294 435.619 289.294 436.014 289.294C436.331 289.436 436.655 289.586 436.971 289.728C436.971 289.641 436.971 289.562 436.971 289.476C437.366 289.713 437.769 289.958 438.164 290.195C438.709 290.993 439.246 291.791 439.792 292.589C439.886 292.818 439.981 293.047 440.076 293.276C440.392 293.363 440.7 293.45 441.016 293.529C441.159 293.379 441.309 293.221 441.451 293.071C441.546 293 441.648 292.929 441.743 292.858L441.712 292.747C441.712 292.62 441.728 292.494 441.728 292.368C441.886 292.383 442.051 292.383 442.217 292.383C442.051 292.383 441.878 292.383 441.728 292.368C441.728 292.494 441.712 292.62 441.712 292.747L446.753 296.864C447.867 297.891 448.981 298.918 450.103 299.945C450.585 300.348 451.067 300.751 451.557 301.154C451.629 301.162 451.692 301.17 451.763 301.186C451.929 301.257 452.087 301.328 452.245 301.399C452.245 301.241 452.245 301.083 452.245 300.925C452.095 300.751 451.96 300.57 451.818 300.388C451.96 300.57 452.103 300.751 452.245 300.925C452.245 301.083 452.245 301.241 452.245 301.399C452.324 301.557 452.403 301.723 452.482 301.881C452.498 302.039 452.513 302.197 452.529 302.363C452.047 304.086 451.573 305.817 451.091 307.539C449.266 307.642 447.441 307.705 445.592 307.705C442.668 307.705 439.776 307.579 436.915 307.334L436.931 307.342ZM452.419 307.476C452.419 307.476 452.458 307.444 452.474 307.421C452.474 307.436 452.458 307.452 452.45 307.468C452.434 307.468 452.427 307.468 452.411 307.468L452.419 307.476ZM456.006 307.184C458.392 301.32 460.565 295.434 462.549 289.515C463.102 289.681 463.655 289.847 464.208 290.013C464.271 290.076 464.335 290.139 464.398 290.195C464.216 290.685 464.105 291.222 463.845 291.664C463.086 292.952 462.256 294.209 461.387 295.599C461.751 295.647 461.877 295.702 461.972 295.671C462.114 295.623 462.28 295.552 462.359 295.441C463.465 293.719 464.548 291.98 465.646 290.25C466.523 288.867 467.329 287.421 468.199 286.022C481.347 283.573 493.761 279.44 505.124 274.154C500.272 282.546 494.148 290.945 486.507 299.171C477.009 303.335 466.76 306.101 456.022 307.191L456.006 307.184ZM493.627 295.702C499.964 288.156 505.393 280.199 509.857 271.847C518.683 267.374 526.799 262.222 534.06 256.659C524.499 273.135 510.458 286.702 493.627 295.702ZM512.307 267.019C518.241 254.723 522.121 241.804 523.93 228.379C532.828 225.581 540.508 222.626 546.79 219.924C545.305 230.417 542.223 240.405 537.79 249.627C530.347 255.964 521.781 261.89 512.307 267.019Z" fill="#554294"/>
<path d="M722.955 211.477C707.183 197.182 684.291 189.628 656.753 189.628C656.722 189.628 656.69 189.628 656.666 189.628C619.717 186.799 613.981 161.956 613.981 146.84C613.981 123.102 636.019 103.782 663.106 103.782C677.456 103.782 690.842 109.172 700.205 118.63C700.64 119.286 701.106 119.934 701.659 120.542C708.581 128.207 712.24 137.436 712.24 147.227C712.24 155.737 719.683 162.635 728.873 162.635C738.063 162.635 745.506 155.737 745.506 147.227C745.506 131.281 739.683 115.675 729.071 102.961C728.549 102.06 727.917 101.191 727.182 100.377C711.45 82.9532 688.1 72.9653 663.114 72.9653C617.679 72.9653 580.722 106.106 580.722 146.84C580.722 191.414 613.024 220.406 663.011 220.714H663.122C663.375 220.714 663.628 220.69 663.881 220.682C694.729 222.721 712.248 238.311 712.248 264.166C712.248 287.903 690.209 307.223 663.122 307.223C636.035 307.223 613.996 287.911 613.996 264.166C613.996 255.656 606.553 248.757 597.363 248.757C588.173 248.757 580.73 255.656 580.73 264.166C580.73 304.9 617.694 338.04 663.122 338.04C708.55 338.04 745.514 304.9 745.514 264.166C745.514 243.368 737.51 224.657 722.97 211.484L722.955 211.477Z" fill="#554294"/>
<path d="M133.668 339.518C145.758 339.518 157.745 337.89 169.297 334.69C177.499 332.414 182.304 323.928 180.028 315.725C177.752 307.523 169.266 302.719 161.063 304.995C152.198 307.452 142.984 308.701 133.676 308.701C82.2111 308.701 39.5254 270.472 32.4928 220.919H97.7461C106.256 220.919 113.155 214.021 113.155 205.511C113.155 197 106.256 190.102 97.7461 190.102H32.7852C40.6554 141.514 82.8907 104.288 133.668 104.288C142.968 104.288 152.19 105.537 161.056 107.994C169.258 110.262 177.744 105.466 180.02 97.2636C182.296 89.0615 177.491 80.5749 169.289 78.2992C157.737 75.099 145.75 73.4712 133.66 73.4712C60.7656 73.4712 1.37541 132.427 0.664241 205.171C0.664241 205.282 0.648438 205.392 0.648438 205.503C0.648438 205.566 0.656339 205.637 0.656339 205.7C0.656339 205.961 0.648438 206.222 0.648438 206.491C0.648438 279.843 60.3231 339.51 133.668 339.51V339.518Z" fill="#554294"/>
<path d="M88.6511 41.1685H106.13C108.224 41.1685 110.152 40.9947 112.072 40.7339L126.667 61.1918H131.74L116.442 39.7778C125.529 37.0675 130.776 30.3351 130.776 20.6317C130.776 7.69638 121.507 0 106.122 0H84.1787V61.1918H88.6353V41.1764L88.6511 41.1685ZM88.6511 4.02203H106.13C119.239 4.02203 126.232 10.0511 126.232 20.6317C126.232 31.2122 119.239 37.2413 106.13 37.2413H88.6511V4.02203Z" fill="#554294"/>
<path d="M189.351 57.1697H151.588V32.0814H184.191V28.1463H151.588V4.02203H188.04V0H147.132V61.1918H189.351V57.1697Z" fill="#554294"/>
<path d="M262.341 30.5959C262.341 12.7615 249.232 0 229.825 0H205.614V61.1918H229.825C249.232 61.1918 262.341 48.4303 262.341 30.5959ZM210.071 57.1697V4.02203H229.478C246.783 4.02203 257.885 15.0372 257.885 30.5959C257.885 46.1546 246.783 57.1697 229.478 57.1697H210.071Z" fill="#554294"/>
<path d="M320.032 57.1697H282.269V32.0814H314.88V28.1463H282.269V4.02203H318.72V0H277.812V61.1918H320.032V57.1697Z" fill="#554294"/>
<path d="M701.941 456.651H718.418V458.608H701.941V456.651ZM702.202 471.085H720.983V473.085H699.984V442.652H720.331V444.652H702.202V471.085Z" fill="#554294"/>
<path d="M664.066 473.085V442.652H676.109C679.326 442.652 682.152 443.304 684.586 444.609C687.021 445.913 688.905 447.71 690.238 450C691.6 452.289 692.282 454.912 692.282 457.869C692.282 460.825 691.6 463.448 690.238 465.737C688.905 468.027 687.021 469.824 684.586 471.128C682.152 472.433 679.326 473.085 676.109 473.085H664.066ZM666.284 471.085H675.935C678.804 471.085 681.297 470.52 683.413 469.389C685.528 468.259 687.166 466.708 688.325 464.738C689.485 462.738 690.064 460.448 690.064 457.869C690.064 455.289 689.485 453.014 688.325 451.043C687.166 449.043 685.528 447.478 683.413 446.348C681.297 445.217 678.804 444.652 675.935 444.652H666.284V471.085Z" fill="#554294"/>
<path d="M641.504 473.302C637.736 473.302 634.765 472.2 632.592 469.998C630.418 467.795 629.331 464.52 629.331 460.172V442.652H631.548V460.085C631.548 463.882 632.418 466.694 634.157 468.52C635.896 470.345 638.359 471.258 641.547 471.258C644.707 471.258 647.156 470.345 648.895 468.52C650.634 466.694 651.503 463.882 651.503 460.085V442.652H653.72V460.172C653.72 464.52 652.634 467.795 650.46 469.998C648.286 472.2 645.301 473.302 641.504 473.302ZM639.069 440.174L645.112 435.044H648.243L641.417 440.174H639.069Z" fill="#554294"/>
<path d="M594.489 473.085L608.488 442.652H610.705L624.704 473.085H622.313L609.097 444.044H610.053L596.88 473.085H594.489ZM599.619 464.52L600.358 462.651H618.574L619.313 464.52H599.619Z" fill="#554294"/>
<path d="M581.083 473.302C578.822 473.302 576.678 472.925 574.649 472.171C572.649 471.389 571.098 470.389 569.997 469.172L570.997 467.52C572.04 468.592 573.461 469.505 575.258 470.258C577.083 470.983 579.011 471.345 581.04 471.345C583.069 471.345 584.721 471.084 585.996 470.563C587.3 470.012 588.256 469.287 588.865 468.389C589.503 467.491 589.822 466.491 589.822 465.389C589.822 464.085 589.474 463.042 588.778 462.259C588.083 461.477 587.17 460.853 586.039 460.39C584.909 459.926 583.677 459.535 582.344 459.216C581.011 458.897 579.663 458.564 578.301 458.216C576.939 457.839 575.692 457.361 574.562 456.781C573.432 456.202 572.519 455.419 571.823 454.434C571.156 453.419 570.823 452.115 570.823 450.521C570.823 449.072 571.2 447.738 571.953 446.521C572.707 445.304 573.881 444.318 575.475 443.565C577.069 442.811 579.112 442.435 581.605 442.435C583.286 442.435 584.938 442.681 586.561 443.174C588.213 443.666 589.619 444.333 590.778 445.173L589.952 446.956C588.677 446.086 587.3 445.449 585.822 445.043C584.373 444.608 582.967 444.391 581.605 444.391C579.663 444.391 578.054 444.666 576.779 445.217C575.504 445.768 574.562 446.507 573.953 447.434C573.345 448.333 573.04 449.347 573.04 450.477C573.04 451.782 573.374 452.825 574.04 453.608C574.736 454.39 575.649 455.013 576.779 455.477C577.909 455.941 579.156 456.332 580.518 456.651C581.88 456.97 583.228 457.317 584.561 457.694C585.894 458.042 587.126 458.506 588.256 459.085C589.387 459.665 590.3 460.448 590.995 461.433C591.691 462.418 592.039 463.694 592.039 465.259C592.039 466.679 591.648 468.012 590.865 469.258C590.082 470.476 588.88 471.461 587.257 472.215C585.662 472.939 583.605 473.302 581.083 473.302Z" fill="#554294"/>
<path d="M520.354 473.085V442.652H522.223L536.352 467.042H535.352L549.438 442.652H551.264L551.308 473.085H549.134L549.09 446H549.699L536.352 469.042H535.265L521.875 446H522.527V473.085H520.354Z" fill="#554294"/>
<path d="M493.228 456.651H509.705V458.608H493.228V456.651ZM493.489 471.085H512.27V473.085H491.271V442.652H511.618V444.652H493.489V471.085Z" fill="#554294"/>
<path d="M456.59 473.302C454.33 473.302 452.228 472.925 450.287 472.171C448.374 471.389 446.693 470.302 445.244 468.911C443.823 467.491 442.722 465.853 441.939 463.998C441.157 462.114 440.766 460.071 440.766 457.868C440.766 455.665 441.157 453.637 441.939 451.782C442.722 449.898 443.823 448.26 445.244 446.869C446.693 445.449 448.374 444.362 450.287 443.608C452.228 442.826 454.33 442.435 456.59 442.435C458.851 442.435 460.938 442.826 462.851 443.608C464.793 444.362 466.474 445.434 467.894 446.826C469.314 448.217 470.415 449.854 471.198 451.738C472.009 453.593 472.415 455.636 472.415 457.868C472.415 460.1 472.009 462.158 471.198 464.042C470.415 465.896 469.314 467.52 467.894 468.911C466.474 470.302 464.793 471.389 462.851 472.171C460.938 472.925 458.851 473.302 456.59 473.302ZM456.59 471.258C458.532 471.258 460.329 470.925 461.981 470.258C463.633 469.592 465.068 468.65 466.285 467.433C467.503 466.215 468.445 464.795 469.111 463.172C469.807 461.549 470.155 459.781 470.155 457.868C470.155 455.926 469.807 454.158 469.111 452.564C468.445 450.941 467.503 449.521 466.285 448.304C465.068 447.086 463.633 446.144 461.981 445.478C460.329 444.811 458.532 444.478 456.59 444.478C454.649 444.478 452.852 444.811 451.2 445.478C449.547 446.144 448.098 447.086 446.852 448.304C445.635 449.521 444.678 450.941 443.983 452.564C443.316 454.158 442.983 455.926 442.983 457.868C442.983 459.781 443.316 461.549 443.983 463.172C444.678 464.795 445.635 466.215 446.852 467.433C448.098 468.65 449.547 469.592 451.2 470.258C452.852 470.925 454.649 471.258 456.59 471.258Z" fill="#554294"/>
<path d="M425.431 473.085V444.652H414.476V442.652H438.604V444.652H427.648V473.085H425.431Z" fill="#554294"/>
<path d="M384.197 473.085V442.652H386.067L407.761 470.346H406.761V442.652H408.978V473.085H407.152L385.415 445.391H386.414V473.085H384.197Z" fill="#554294"/>
<path d="M357.072 456.651H373.549V458.608H357.072V456.651ZM357.332 471.085H376.114V473.085H355.115V442.652H375.461V444.652H357.332V471.085Z" fill="#554294"/>
<path d="M313.551 473.085V442.652H315.42L329.55 467.042H328.55L342.635 442.652H344.461L344.505 473.085H342.331L342.288 446H342.896L329.55 469.042H328.463L315.072 446H315.725V473.085H313.551Z" fill="#554294"/>
<path d="M300.729 473.085V442.652H302.947V473.085H300.729Z" fill="#554294"/>
<path d="M280.041 473.085L266.477 442.652H268.911L281.867 471.737H280.519L293.518 442.652H295.822L282.258 473.085H280.041Z" fill="#554294"/>
<path d="M248.424 473.085V442.652H250.641V471.085H268.161V473.085H248.424Z" fill="#554294"/>
<path d="M224.909 473.302C222.648 473.302 220.547 472.925 218.605 472.171C216.692 471.389 215.011 470.302 213.562 468.911C212.142 467.491 211.04 465.853 210.258 463.998C209.475 462.114 209.084 460.071 209.084 457.868C209.084 455.665 209.475 453.637 210.258 451.782C211.04 449.898 212.142 448.26 213.562 446.869C215.011 445.449 216.692 444.362 218.605 443.608C220.547 442.826 222.648 442.435 224.909 442.435C227.17 442.435 229.256 442.826 231.169 443.608C233.111 444.362 234.792 445.434 236.212 446.826C237.632 448.217 238.734 449.854 239.516 451.738C240.328 453.593 240.734 455.636 240.734 457.868C240.734 460.1 240.328 462.158 239.516 464.042C238.734 465.896 237.632 467.52 236.212 468.911C234.792 470.302 233.111 471.389 231.169 472.171C229.256 472.925 227.17 473.302 224.909 473.302ZM224.909 471.258C226.851 471.258 228.648 470.925 230.3 470.258C231.952 469.592 233.386 468.65 234.604 467.433C235.821 466.215 236.763 464.795 237.43 463.172C238.125 461.549 238.473 459.781 238.473 457.868C238.473 455.926 238.125 454.158 237.43 452.564C236.763 450.941 235.821 449.521 234.604 448.304C233.386 447.086 231.952 446.144 230.3 445.478C228.648 444.811 226.851 444.478 224.909 444.478C222.967 444.478 221.17 444.811 219.518 445.478C217.866 446.144 216.417 447.086 215.17 448.304C213.953 449.521 212.997 450.941 212.301 452.564C211.635 454.158 211.301 455.926 211.301 457.868C211.301 459.781 211.635 461.549 212.301 463.172C212.997 464.795 213.953 466.215 215.17 467.433C216.417 468.65 217.866 469.592 219.518 470.258C221.17 470.925 222.967 471.258 224.909 471.258Z" fill="#554294"/>
<path d="M191.563 473.085L177.999 442.652H180.434L193.389 471.737H192.041L205.04 442.652H207.344L193.78 473.085H191.563Z" fill="#554294"/>
<path d="M148.016 473.085V442.652H149.885L171.579 470.346H170.579V442.652H172.796V473.085H170.97L149.233 445.391H150.233V473.085H148.016Z" fill="#554294"/>
<path d="M120.89 456.651H137.367V458.608H120.89V456.651ZM121.151 471.085H139.932V473.085H118.934V442.652H139.28V444.652H121.151V471.085Z" fill="#554294"/>
<path d="M100.441 473.302C98.1799 473.302 96.0351 472.925 94.0063 472.171C92.0065 471.389 90.4559 470.389 89.3545 469.172L90.3544 467.52C91.3978 468.592 92.818 469.505 94.6149 470.258C96.4409 470.983 98.3683 471.345 100.397 471.345C102.426 471.345 104.078 471.084 105.353 470.563C106.657 470.012 107.614 469.287 108.223 468.389C108.86 467.491 109.179 466.491 109.179 465.389C109.179 464.085 108.831 463.042 108.136 462.259C107.44 461.477 106.527 460.853 105.397 460.39C104.266 459.926 103.035 459.535 101.701 459.216C100.368 458.897 99.0204 458.564 97.6582 458.216C96.296 457.839 95.0497 457.361 93.9193 456.781C92.789 456.202 91.876 455.419 91.1804 454.434C90.5138 453.419 90.1805 452.115 90.1805 450.521C90.1805 449.072 90.5573 447.738 91.3109 446.521C92.0644 445.304 93.2382 444.318 94.8323 443.565C96.4264 442.811 98.4697 442.435 100.962 442.435C102.643 442.435 104.295 442.681 105.918 443.174C107.57 443.666 108.976 444.333 110.135 445.173L109.309 446.956C108.034 446.086 106.657 445.449 105.179 445.043C103.73 444.608 102.324 444.391 100.962 444.391C99.0204 444.391 97.4118 444.666 96.1366 445.217C94.8613 445.768 93.9193 446.507 93.3107 447.434C92.702 448.333 92.3977 449.347 92.3977 450.477C92.3977 451.782 92.731 452.825 93.3976 453.608C94.0932 454.39 95.0062 455.013 96.1366 455.477C97.2669 455.941 98.5132 456.332 99.8754 456.651C101.238 456.97 102.585 457.317 103.919 457.694C105.252 458.042 106.484 458.506 107.614 459.085C108.744 459.665 109.657 460.448 110.353 461.433C111.048 462.418 111.396 463.694 111.396 465.259C111.396 466.679 111.005 468.012 110.222 469.258C109.44 470.476 108.237 471.461 106.614 472.215C105.02 472.939 102.962 473.302 100.441 473.302Z" fill="#554294"/>
<path d="M65.3157 456.651H81.7927V458.608H65.3157V456.651ZM65.5766 471.085H84.3577V473.085H63.3594V442.652H83.7056V444.652H65.5766V471.085Z" fill="#554294"/>
<path d="M27.4414 473.085V442.652H39.4839C42.701 442.652 45.5269 443.304 47.9615 444.609C50.3961 445.913 52.28 447.71 53.6132 450C54.9754 452.289 55.6565 454.912 55.6565 457.869C55.6565 460.825 54.9754 463.448 53.6132 465.737C52.28 468.027 50.3961 469.824 47.9615 471.128C45.5269 472.433 42.701 473.085 39.4839 473.085H27.4414ZM29.6586 471.085H39.31C42.1794 471.085 44.6719 470.52 46.7877 469.389C48.9034 468.259 50.541 466.708 51.7003 464.738C52.8597 462.738 53.4393 460.448 53.4393 457.869C53.4393 455.289 52.8597 453.014 51.7003 451.043C50.541 449.043 48.9034 447.478 46.7877 446.348C44.6719 445.217 42.1794 444.652 39.31 444.652H29.6586V471.085Z" fill="#554294"/>
<path d="M603.974 403.691H620.451V405.647H603.974V403.691ZM604.235 418.124H623.016V420.124H602.018V389.692H622.364V391.692H604.235V418.124Z" fill="#554294"/>
<path d="M555.111 420.124L569.11 389.692H571.327L585.326 420.124H582.935L569.719 391.083H570.675L557.502 420.124H555.111ZM560.241 411.56L560.98 409.69H579.196L579.935 411.56H560.241Z" fill="#554294"/>
<path d="M547.377 420.124V389.692H549.594V420.124H547.377Z" fill="#554294"/>
<path d="M505.812 420.124V389.692H507.682L521.811 414.081H520.811L534.897 389.692H536.723L536.767 420.124H534.593L534.549 393.039H535.158L521.811 416.081H520.724L507.334 393.039H507.986V420.124H505.812Z" fill="#554294"/>
<path d="M482.297 420.342C480.037 420.342 477.935 419.965 475.994 419.211C474.081 418.429 472.4 417.342 470.951 415.951C469.53 414.531 468.429 412.893 467.646 411.038C466.864 409.154 466.473 407.111 466.473 404.908C466.473 402.705 466.864 400.677 467.646 398.822C468.429 396.938 469.53 395.3 470.951 393.909C472.4 392.489 474.081 391.402 475.994 390.648C477.935 389.866 480.037 389.475 482.297 389.475C484.558 389.475 486.645 389.866 488.558 390.648C490.5 391.402 492.181 392.474 493.601 393.866C495.021 395.257 496.122 396.894 496.905 398.778C497.717 400.633 498.122 402.676 498.122 404.908C498.122 407.14 497.717 409.198 496.905 411.082C496.122 412.936 495.021 414.56 493.601 415.951C492.181 417.342 490.5 418.429 488.558 419.211C486.645 419.965 484.558 420.342 482.297 420.342ZM482.297 418.298C484.239 418.298 486.036 417.965 487.688 417.298C489.34 416.632 490.775 415.69 491.992 414.473C493.21 413.255 494.152 411.835 494.818 410.212C495.514 408.589 495.862 406.821 495.862 404.908C495.862 402.966 495.514 401.198 494.818 399.604C494.152 397.981 493.21 396.561 491.992 395.344C490.775 394.126 489.34 393.184 487.688 392.518C486.036 391.851 484.239 391.518 482.297 391.518C480.356 391.518 478.559 391.851 476.907 392.518C475.255 393.184 473.805 394.126 472.559 395.344C471.342 396.561 470.385 397.981 469.69 399.604C469.023 401.198 468.69 402.966 468.69 404.908C468.69 406.821 469.023 408.589 469.69 410.212C470.385 411.835 471.342 413.255 472.559 414.473C473.805 415.69 475.255 416.632 476.907 417.298C478.559 417.965 480.356 418.298 482.297 418.298Z" fill="#554294"/>
<path d="M433.978 420.124V389.692H435.847L457.541 417.385H456.541V389.692H458.758V420.124H456.932L435.195 392.431H436.195V420.124H433.978Z" fill="#554294"/>
<path d="M410.462 420.342C408.201 420.342 406.1 419.965 404.158 419.211C402.245 418.429 400.564 417.342 399.115 415.951C397.694 414.531 396.593 412.893 395.811 411.038C395.028 409.154 394.637 407.111 394.637 404.908C394.637 402.705 395.028 400.677 395.811 398.822C396.593 396.938 397.694 395.3 399.115 393.909C400.564 392.489 402.245 391.402 404.158 390.648C406.1 389.866 408.201 389.475 410.462 389.475C412.722 389.475 414.809 389.866 416.722 390.648C418.664 391.402 420.345 392.474 421.765 393.866C423.185 395.257 424.287 396.894 425.069 398.778C425.881 400.633 426.286 402.676 426.286 404.908C426.286 407.14 425.881 409.198 425.069 411.082C424.287 412.936 423.185 414.56 421.765 415.951C420.345 417.342 418.664 418.429 416.722 419.211C414.809 419.965 412.722 420.342 410.462 420.342ZM410.462 418.298C412.403 418.298 414.2 417.965 415.852 417.298C417.504 416.632 418.939 415.69 420.156 414.473C421.374 413.255 422.316 411.835 422.982 410.212C423.678 408.589 424.026 406.821 424.026 404.908C424.026 402.966 423.678 401.198 422.982 399.604C422.316 397.981 421.374 396.561 420.156 395.344C418.939 394.126 417.504 393.184 415.852 392.518C414.2 391.851 412.403 391.518 410.462 391.518C408.52 391.518 406.723 391.851 405.071 392.518C403.419 393.184 401.969 394.126 400.723 395.344C399.506 396.561 398.549 397.981 397.854 399.604C397.187 401.198 396.854 402.966 396.854 404.908C396.854 406.821 397.187 408.589 397.854 410.212C398.549 411.835 399.506 413.255 400.723 414.473C401.969 415.69 403.419 416.632 405.071 417.298C406.723 417.965 408.52 418.298 410.462 418.298Z" fill="#554294"/>
<path d="M379.936 420.342C377.675 420.342 375.574 419.965 373.632 419.211C371.719 418.429 370.052 417.342 368.632 415.951C367.212 414.56 366.111 412.936 365.328 411.082C364.546 409.198 364.154 407.14 364.154 404.908C364.154 402.676 364.546 400.633 365.328 398.778C366.111 396.894 367.212 395.257 368.632 393.866C370.081 392.474 371.762 391.402 373.675 390.648C375.588 389.866 377.675 389.475 379.936 389.475C382.08 389.475 384.08 389.822 385.935 390.518C387.819 391.214 389.428 392.271 390.761 393.692L389.37 395.126C388.065 393.851 386.616 392.938 385.022 392.387C383.457 391.808 381.791 391.518 380.023 391.518C378.081 391.518 376.269 391.851 374.588 392.518C372.936 393.184 371.487 394.126 370.241 395.344C369.023 396.561 368.067 397.981 367.371 399.604C366.705 401.227 366.372 402.995 366.372 404.908C366.372 406.821 366.705 408.589 367.371 410.212C368.067 411.835 369.023 413.255 370.241 414.473C371.487 415.69 372.936 416.632 374.588 417.298C376.269 417.965 378.081 418.298 380.023 418.298C381.791 418.298 383.457 418.023 385.022 417.472C386.616 416.893 388.065 415.951 389.37 414.646L390.761 416.081C389.428 417.501 387.819 418.574 385.935 419.298C384.08 419.994 382.08 420.342 379.936 420.342Z" fill="#554294"/>
<path d="M340.069 403.691H356.546V405.647H340.069V403.691ZM340.33 418.124H359.111V420.124H338.112V389.692H358.459V391.692H340.33V418.124Z" fill="#554294"/>
<path d="M299.82 403.691H316.297V405.647H299.82V403.691ZM300.081 418.124H318.862V420.124H297.863V389.692H318.209V391.692H300.081V418.124Z" fill="#554294"/>
<path d="M261.946 420.124V389.692H273.989C277.206 389.692 280.032 390.344 282.466 391.648C284.901 392.953 286.785 394.749 288.118 397.039C289.48 399.329 290.161 401.952 290.161 404.908C290.161 407.864 289.48 410.487 288.118 412.777C286.785 415.067 284.901 416.864 282.466 418.168C280.032 419.472 277.206 420.124 273.989 420.124H261.946ZM264.164 418.124H273.815C276.684 418.124 279.177 417.559 281.293 416.429C283.408 415.299 285.046 413.748 286.205 411.777C287.365 409.777 287.944 407.488 287.944 404.908C287.944 402.329 287.365 400.053 286.205 398.083C285.046 396.083 283.408 394.518 281.293 393.387C279.177 392.257 276.684 391.692 273.815 391.692H264.164V418.124Z" fill="#554294"/>
<path d="M223.655 403.691H240.132V405.647H223.655V403.691ZM223.915 418.124H242.697V420.124H221.698V389.692H242.044V391.692H223.915V418.124Z" fill="#554294"/>
<path d="M185.78 420.124V389.692H197.823C201.04 389.692 203.866 390.344 206.3 391.648C208.735 392.953 210.619 394.749 211.952 397.039C213.314 399.329 213.995 401.952 213.995 404.908C213.995 407.864 213.314 410.487 211.952 412.777C210.619 415.067 208.735 416.864 206.3 418.168C203.866 419.472 201.04 420.124 197.823 420.124H185.78ZM187.997 418.124H197.649C200.518 418.124 203.011 417.559 205.127 416.429C207.242 415.299 208.88 413.748 210.039 411.777C211.199 409.777 211.778 407.488 211.778 404.908C211.778 402.329 211.199 400.053 210.039 398.083C208.88 396.083 207.242 394.518 205.127 393.387C203.011 392.257 200.518 391.692 197.649 391.692H187.997V418.124Z" fill="#554294"/>
<path d="M158.655 403.691H175.132V405.647H158.655V403.691ZM158.915 418.124H177.697V420.124H156.698V389.692H177.044V391.692H158.915V418.124Z" fill="#554294"/>
<path d="M125.408 420.124V389.692H136.32C138.871 389.692 141.059 390.098 142.885 390.909C144.711 391.721 146.117 392.895 147.102 394.431C148.088 395.938 148.58 397.778 148.58 399.952C148.58 402.068 148.088 403.894 147.102 405.43C146.117 406.937 144.711 408.111 142.885 408.951C141.059 409.763 138.871 410.169 136.32 410.169H126.625L127.625 409.125V420.124H125.408ZM146.537 420.124L138.625 409.082H141.146L149.058 420.124H146.537ZM127.625 409.256L126.625 408.212H136.32C139.595 408.212 142.074 407.488 143.755 406.038C145.465 404.589 146.32 402.56 146.32 399.952C146.32 397.314 145.465 395.286 143.755 393.865C142.074 392.416 139.595 391.692 136.32 391.692H126.625L127.625 390.605V409.256Z" fill="#554294"/>
</svg>
