<?xml version="1.0" encoding="utf-8"?>
<!-- Generator: Adobe Illustrator 14.0.0, SVG Export Plug-In . SVG Version: 6.00 Build 43363)  -->
<!DOCTYPE svg PUBLIC "-//W3C//DTD SVG 1.1//EN" "http://www.w3.org/Graphics/SVG/1.1/DTD/svg11.dtd">
<svg version="1.1" id="Camada_1" xmlns="http://www.w3.org/2000/svg" xmlns:xlink="http://www.w3.org/1999/xlink" x="0px" y="0px"
	 width="570px" height="65px" viewBox="0 0 570 65" enable-background="new 0 0 570 65" xml:space="preserve">
<g>
	<g>
		<rect x="437.971" y="12.831" fill="#FFFFFF" width="0.592" height="39.159"/>
		<g>
			<path fill="#FFFFFF" d="M452.069,26.063v-8.766h2.597c1.781,0,2.671,0.72,2.671,2.16c0,0.989-0.492,1.662-1.477,2.023v0.024
				c1.122,0.243,1.68,0.942,1.68,2.097c0,0.788-0.266,1.403-0.803,1.847c-0.492,0.41-1.144,0.615-1.957,0.615L452.069,26.063
				L452.069,26.063z M453.647,18.479v2.486h0.84c0.381,0,0.69-0.124,0.922-0.371c0.235-0.247,0.352-0.559,0.352-0.935
				c0-0.376-0.122-0.668-0.363-0.873c-0.243-0.205-0.559-0.308-0.948-0.308H453.647z M453.647,22.146v2.688h0.898
				c0.422,0,0.753-0.119,0.993-0.358c0.241-0.238,0.36-0.568,0.36-0.985c0-0.896-0.467-1.345-1.404-1.345H453.647z"/>
			<path fill="#FFFFFF" d="M459.157,26.063v-8.766h1.642v8.766H459.157z"/>
			<path fill="#FFFFFF" d="M462.606,26.063v-8.766h2.774c1.764,0,2.646,0.77,2.646,2.31c0,0.535-0.151,0.994-0.459,1.375
				c-0.304,0.38-0.725,0.609-1.26,0.685v0.037c0.441,0.068,0.768,0.407,0.98,1.018l1.159,3.34h-1.728l-0.874-2.852
				c-0.186-0.611-0.597-0.917-1.23-0.917h-0.368v3.767h-1.642V26.063z M464.248,21.117h0.657c0.961,0,1.442-0.445,1.442-1.332
				c0-0.468-0.127-0.804-0.38-1.005c-0.22-0.167-0.573-0.251-1.063-0.251h-0.657V21.117z"/>
			<path fill="#FFFFFF" d="M469.758,26.063v-8.766h4.67v1.269h-3.029v2.348h2.864v1.268h-2.864v2.613h3.157v1.268H469.758z"/>
			<path fill="#FFFFFF" d="M483.143,26.063v-7.309l-2.25,7.309h-1.159l-2.151-7.309v7.309h-1.477v-8.766h2.412l1.846,6.543
				l0.029-0.001l1.895-6.542h2.332v8.766H483.143z"/>
			<path fill="#FFFFFF" d="M486.49,26.063v-8.766h4.671v1.269h-3.029v2.348h2.863v1.268h-2.863v2.613h3.157v1.268H486.49z"/>
		</g>
		<g>
			<path fill="#FFFFFF" d="M452.6,31.583v4.731h1.955v0.652h-2.616v-5.383H452.6z"/>
			<path fill="#FFFFFF" d="M455.343,33.316c0.183-0.127,0.368-0.218,0.551-0.275c0.181-0.059,0.377-0.087,0.583-0.087
				c0.318,0,0.587,0.069,0.803,0.211c0.216,0.139,0.365,0.338,0.45,0.598c0.068,0.214,0.104,0.578,0.104,1.094v0.771
				c0,0.297,0.004,0.558,0.01,0.778c0.005,0.221,0.014,0.409,0.024,0.563h-0.576c-0.005-0.093-0.007-0.195-0.007-0.308
				c0-0.141,0.002-0.263,0.007-0.371c-0.132,0.257-0.286,0.44-0.467,0.558c-0.182,0.117-0.406,0.176-0.672,0.176
				c-0.235,0-0.442-0.049-0.622-0.145c-0.178-0.097-0.317-0.235-0.413-0.416c-0.098-0.181-0.145-0.389-0.145-0.625
				c0-0.207,0.039-0.391,0.117-0.55s0.192-0.295,0.344-0.407c0.151-0.11,0.337-0.193,0.557-0.25c0.22-0.055,0.472-0.082,0.759-0.082
				c0.173,0,0.33,0.006,0.476,0.016c-0.007-0.338-0.077-0.588-0.215-0.747c-0.138-0.158-0.349-0.239-0.633-0.239
				c-0.187,0-0.355,0.029-0.51,0.091c-0.154,0.058-0.317,0.154-0.49,0.289L455.343,33.316z M457.236,35.102
				c-0.139-0.016-0.254-0.022-0.341-0.022c-0.838,0-1.254,0.25-1.254,0.75c0,0.12,0.026,0.227,0.08,0.316
				c0.055,0.094,0.133,0.166,0.229,0.218c0.1,0.054,0.212,0.079,0.34,0.079c0.232,0,0.419-0.06,0.559-0.177
				c0.14-0.12,0.24-0.277,0.298-0.478C457.206,35.589,457.236,35.36,457.236,35.102z"/>
			<path fill="#FFFFFF" d="M459.733,31.883v1.154h0.9v0.571h-0.9v1.549c0,0.353,0.015,0.612,0.04,0.772
				c0.02,0.142,0.078,0.255,0.168,0.339c0.093,0.08,0.209,0.122,0.352,0.122c0.132,0,0.267-0.04,0.412-0.122v0.635
				c-0.2,0.074-0.396,0.109-0.587,0.109c-0.294,0-0.516-0.067-0.663-0.209c-0.15-0.139-0.248-0.321-0.288-0.547
				c-0.041-0.227-0.063-0.521-0.063-0.879v-1.771h-0.779v-0.57h0.779v-0.907L459.733,31.883z"/>
			<path fill="#FFFFFF" d="M462.019,31.266v0.808h-0.689v-0.808H462.019z M462.005,33.021v3.947h-0.633v-3.947H462.005z"/>
			<path fill="#FFFFFF" d="M463.55,33.021l0.031,0.628c0.256-0.463,0.646-0.694,1.165-0.694c0.286,0,0.513,0.059,0.685,0.181
				c0.172,0.121,0.299,0.281,0.379,0.48c0.082,0.196,0.136,0.414,0.161,0.652c0.022,0.237,0.035,0.527,0.035,0.865v1.834h-0.621
				v-1.779c0-0.283-0.005-0.489-0.014-0.62c-0.008-0.131-0.022-0.245-0.042-0.343c-0.048-0.213-0.134-0.372-0.257-0.484
				c-0.123-0.108-0.279-0.164-0.465-0.164c-0.207,0-0.393,0.071-0.555,0.216c-0.164,0.146-0.277,0.342-0.343,0.592
				c-0.021,0.071-0.037,0.153-0.05,0.25c-0.014,0.094-0.02,0.196-0.021,0.307c-0.002,0.108-0.004,0.302-0.004,0.579v1.445h-0.629
				v-1.948c-0.007-0.222-0.01-0.429-0.012-0.615c-0.001-0.187-0.006-0.411-0.011-0.667c-0.007-0.255-0.015-0.493-0.022-0.715H463.55
				L463.55,33.021z"/>
			<path fill="#FFFFFF" d="M471.076,31.583l2.004,5.383h-0.744l-0.484-1.364h-2.249l-0.477,1.364h-0.716l1.971-5.383H471.076z
				 M471.62,34.949l-0.53-1.502c-0.106-0.287-0.186-0.513-0.237-0.677s-0.1-0.338-0.138-0.526c-0.035,0.144-0.074,0.289-0.123,0.432
				c-0.045,0.143-0.135,0.405-0.267,0.786l-0.513,1.485h1.808V34.949z"/>
			<path fill="#FFFFFF" d="M474.176,33.021l0.037,0.635c0.06-0.143,0.144-0.268,0.249-0.374c0.103-0.104,0.223-0.186,0.363-0.243
				c0.137-0.057,0.291-0.084,0.456-0.084c0.255,0,0.467,0.066,0.638,0.203c0.171,0.135,0.29,0.332,0.361,0.588
				c0.226-0.528,0.6-0.791,1.118-0.791c0.241,0,0.44,0.054,0.595,0.162c0.153,0.105,0.269,0.25,0.347,0.426
				c0.077,0.179,0.132,0.377,0.156,0.6c0.025,0.222,0.039,0.474,0.039,0.751v2.073h-0.631v-1.927c0-0.257-0.002-0.453-0.012-0.592
				c-0.008-0.138-0.022-0.25-0.043-0.331c-0.088-0.36-0.283-0.54-0.583-0.54c-0.09,0-0.177,0.02-0.261,0.057
				c-0.086,0.037-0.163,0.091-0.233,0.164c-0.07,0.074-0.132,0.16-0.183,0.261c-0.052,0.1-0.092,0.213-0.122,0.335
				c-0.023,0.094-0.043,0.201-0.049,0.329c-0.009,0.125-0.014,0.317-0.014,0.573v1.673h-0.638v-2.026
				c0-0.274-0.001-0.46-0.006-0.561c-0.006-0.101-0.02-0.191-0.039-0.271c-0.045-0.17-0.114-0.298-0.212-0.394
				c-0.099-0.093-0.216-0.139-0.352-0.139c-0.168,0-0.32,0.059-0.458,0.176c-0.136,0.118-0.242,0.279-0.318,0.488
				c-0.078,0.206-0.116,0.441-0.116,0.701v0.283v1.742h-0.629v-2.221c0-0.699-0.017-1.275-0.046-1.726L474.176,33.021
				L474.176,33.021z"/>
			<path fill="#FFFFFF" d="M479.877,35.183c0.045,0.39,0.168,0.699,0.37,0.926c0.204,0.228,0.455,0.341,0.761,0.341
				c0.181,0,0.357-0.029,0.531-0.091c0.172-0.062,0.349-0.154,0.532-0.28v0.703c-0.206,0.103-0.394,0.179-0.561,0.224
				s-0.342,0.066-0.528,0.066c-0.263,0-0.5-0.051-0.716-0.148c-0.215-0.1-0.397-0.245-0.548-0.431s-0.267-0.412-0.35-0.675
				c-0.082-0.265-0.122-0.555-0.122-0.87c0-0.403,0.063-0.758,0.195-1.063c0.132-0.31,0.319-0.548,0.564-0.717
				c0.248-0.169,0.524-0.255,0.837-0.255c0.366,0,0.657,0.104,0.877,0.313c0.216,0.21,0.373,0.484,0.463,0.826
				c0.093,0.341,0.138,0.718,0.138,1.128h-2.444V35.183z M479.884,34.61h1.807c-0.023-0.216-0.066-0.406-0.13-0.57
				c-0.063-0.163-0.157-0.297-0.281-0.395c-0.126-0.103-0.277-0.152-0.459-0.152c-0.247,0-0.453,0.101-0.622,0.299
				C480.035,33.99,479.929,34.264,479.884,34.61z"/>
			<path fill="#FFFFFF" d="M483.084,33.021h0.582l0.03,0.702c0.102-0.247,0.235-0.434,0.397-0.562s0.353-0.191,0.572-0.191
				c0.113,0,0.226,0.017,0.341,0.051v0.672c-0.109-0.047-0.207-0.068-0.296-0.068c-0.22,0-0.402,0.076-0.548,0.223
				c-0.142,0.148-0.247,0.337-0.314,0.568c-0.065,0.23-0.098,0.47-0.098,0.719v0.284v1.55h-0.624v-2.404
				C483.125,34.174,483.111,33.661,483.084,33.021z"/>
			<path fill="#FFFFFF" d="M486.222,31.266v0.808h-0.688v-0.808H486.222z M486.207,33.021v3.947h-0.633v-3.947H486.207z"/>
			<path fill="#FFFFFF" d="M489.427,33.132l-0.04,0.646c-0.173-0.117-0.377-0.179-0.619-0.179c-0.219,0-0.415,0.059-0.592,0.175
				c-0.175,0.116-0.312,0.277-0.41,0.483c-0.096,0.204-0.145,0.441-0.145,0.706c0,0.273,0.049,0.521,0.143,0.739
				c0.095,0.217,0.227,0.387,0.397,0.508c0.172,0.12,0.368,0.18,0.592,0.18c0.134,0,0.255-0.02,0.359-0.06
				c0.106-0.04,0.222-0.103,0.349-0.191l0.053,0.672c-0.132,0.069-0.263,0.121-0.394,0.152c-0.132,0.033-0.278,0.049-0.443,0.049
				c-0.337,0-0.637-0.084-0.901-0.251c-0.265-0.169-0.466-0.404-0.608-0.709c-0.143-0.303-0.215-0.654-0.215-1.058
				c0-0.384,0.072-0.729,0.221-1.039c0.146-0.308,0.351-0.549,0.611-0.725c0.26-0.176,0.549-0.262,0.872-0.262
				C488.923,32.97,489.178,33.023,489.427,33.132z"/>
			<path fill="#FFFFFF" d="M490.314,33.316c0.185-0.127,0.37-0.218,0.552-0.275c0.181-0.059,0.376-0.087,0.584-0.087
				c0.318,0,0.587,0.069,0.803,0.211c0.216,0.139,0.365,0.338,0.448,0.598c0.07,0.214,0.105,0.578,0.105,1.094v0.771
				c0,0.297,0.003,0.558,0.01,0.778c0.005,0.221,0.013,0.409,0.022,0.563h-0.574c-0.005-0.093-0.007-0.195-0.007-0.308
				c0-0.141,0.002-0.263,0.007-0.371c-0.132,0.257-0.286,0.44-0.468,0.558c-0.181,0.117-0.405,0.176-0.671,0.176
				c-0.235,0-0.443-0.049-0.622-0.145c-0.18-0.097-0.317-0.235-0.415-0.416c-0.096-0.181-0.143-0.389-0.143-0.625
				c0-0.207,0.039-0.391,0.116-0.55c0.079-0.159,0.193-0.295,0.345-0.407c0.151-0.11,0.337-0.193,0.557-0.25
				c0.218-0.055,0.472-0.082,0.758-0.082c0.173,0,0.331,0.006,0.476,0.016c-0.007-0.338-0.077-0.588-0.214-0.747
				c-0.138-0.158-0.351-0.239-0.633-0.239c-0.188,0-0.355,0.029-0.51,0.091c-0.155,0.058-0.317,0.154-0.492,0.289L490.314,33.316z
				 M492.21,35.102c-0.14-0.016-0.255-0.022-0.343-0.022c-0.837,0-1.252,0.25-1.252,0.75c0,0.12,0.025,0.227,0.08,0.316
				c0.055,0.094,0.133,0.166,0.229,0.218c0.1,0.054,0.212,0.079,0.338,0.079c0.233,0,0.421-0.06,0.561-0.177
				c0.139-0.12,0.239-0.277,0.297-0.478C492.181,35.589,492.21,35.36,492.21,35.102z"/>
			<path fill="#FFFFFF" d="M494.386,33.021l0.033,0.628c0.256-0.463,0.644-0.694,1.162-0.694c0.285,0,0.512,0.059,0.687,0.181
				c0.171,0.121,0.297,0.281,0.379,0.48c0.082,0.196,0.136,0.414,0.16,0.652c0.023,0.237,0.036,0.527,0.036,0.865v1.834h-0.623
				v-1.779c0-0.283-0.005-0.489-0.014-0.62c-0.007-0.131-0.021-0.245-0.041-0.343c-0.048-0.213-0.133-0.372-0.259-0.484
				c-0.122-0.108-0.276-0.164-0.462-0.164c-0.21,0-0.396,0.071-0.556,0.216c-0.164,0.146-0.277,0.342-0.343,0.592
				c-0.02,0.071-0.038,0.153-0.051,0.25c-0.011,0.094-0.02,0.196-0.021,0.307c-0.002,0.108-0.004,0.302-0.004,0.579v1.445h-0.63
				v-1.948c-0.005-0.222-0.009-0.429-0.009-0.615c-0.004-0.187-0.009-0.411-0.014-0.667c-0.006-0.255-0.013-0.493-0.021-0.715
				H494.386L494.386,33.021z"/>
			<path fill="#FFFFFF" d="M499.877,33.316c0.185-0.127,0.37-0.218,0.552-0.275c0.181-0.059,0.377-0.087,0.583-0.087
				c0.319,0,0.587,0.069,0.803,0.211c0.216,0.139,0.365,0.338,0.449,0.598c0.07,0.214,0.105,0.578,0.105,1.094v0.771
				c0,0.297,0.002,0.558,0.01,0.778c0.005,0.221,0.012,0.409,0.023,0.563h-0.575c-0.005-0.093-0.007-0.195-0.007-0.308
				c0-0.141,0.002-0.263,0.007-0.371c-0.133,0.257-0.286,0.44-0.468,0.558c-0.181,0.117-0.406,0.176-0.671,0.176
				c-0.235,0-0.444-0.049-0.622-0.145c-0.18-0.097-0.318-0.235-0.415-0.416c-0.096-0.181-0.144-0.389-0.144-0.625
				c0-0.207,0.04-0.391,0.118-0.55c0.077-0.159,0.191-0.295,0.343-0.407c0.151-0.11,0.337-0.193,0.557-0.25
				c0.219-0.055,0.472-0.082,0.76-0.082c0.172,0,0.329,0.006,0.474,0.016c-0.004-0.338-0.075-0.588-0.214-0.747
				c-0.137-0.158-0.35-0.239-0.633-0.239c-0.186,0-0.355,0.029-0.509,0.091c-0.154,0.058-0.316,0.154-0.49,0.289L499.877,33.316z
				 M501.772,35.102c-0.141-0.016-0.255-0.022-0.342-0.022c-0.839,0-1.253,0.25-1.253,0.75c0,0.12,0.025,0.227,0.08,0.316
				c0.055,0.094,0.132,0.166,0.23,0.218c0.098,0.054,0.212,0.079,0.338,0.079c0.234,0,0.42-0.06,0.56-0.177
				c0.138-0.12,0.239-0.277,0.298-0.478C501.743,35.589,501.772,35.36,501.772,35.102z"/>
			<path fill="#FFFFFF" d="M503.947,33.021l0.031,0.628c0.256-0.463,0.646-0.694,1.165-0.694c0.285,0,0.512,0.059,0.685,0.181
				c0.173,0.121,0.298,0.281,0.379,0.48c0.082,0.196,0.136,0.414,0.161,0.652c0.021,0.237,0.035,0.527,0.035,0.865v1.834h-0.622
				v-1.779c0-0.283-0.005-0.489-0.014-0.62c-0.007-0.131-0.021-0.245-0.041-0.343c-0.049-0.213-0.133-0.372-0.258-0.484
				c-0.124-0.108-0.279-0.164-0.464-0.164c-0.21,0-0.394,0.071-0.557,0.216c-0.162,0.146-0.276,0.342-0.341,0.592
				c-0.021,0.071-0.037,0.153-0.051,0.25c-0.012,0.094-0.02,0.196-0.021,0.307c0,0.108-0.004,0.302-0.004,0.579v1.445h-0.628v-1.948
				c-0.006-0.222-0.01-0.429-0.011-0.615c-0.003-0.187-0.008-0.411-0.013-0.667c-0.006-0.255-0.015-0.493-0.021-0.715H503.947
				L503.947,33.021z"/>
			<path fill="#FFFFFF" d="M510.334,31.152v3.974c0,0.205,0.005,0.514,0.016,0.927c0.013,0.412,0.022,0.717,0.03,0.913h-0.611
				v-0.665c-0.14,0.245-0.302,0.427-0.492,0.545c-0.19,0.117-0.417,0.177-0.682,0.177c-0.296,0-0.558-0.082-0.783-0.245
				c-0.226-0.164-0.399-0.396-0.521-0.702c-0.119-0.303-0.181-0.659-0.181-1.063c0-0.308,0.035-0.585,0.103-0.832
				c0.069-0.248,0.173-0.466,0.308-0.654c0.137-0.189,0.294-0.332,0.475-0.427c0.18-0.096,0.381-0.144,0.601-0.144
				c0.48,0,0.856,0.228,1.125,0.686c0-0.039-0.003-0.096-0.007-0.166c-0.003-0.071-0.006-0.141-0.01-0.21
				c-0.003-0.07-0.006-0.126-0.006-0.164v-1.948H510.334z M508.747,33.577c-0.142,0-0.271,0.034-0.388,0.102
				c-0.117,0.069-0.22,0.166-0.31,0.295c-0.087,0.131-0.155,0.284-0.201,0.461c-0.048,0.177-0.071,0.367-0.071,0.567
				c0,0.409,0.09,0.744,0.267,1.006c0.179,0.261,0.407,0.393,0.685,0.393c0.188,0,0.354-0.062,0.504-0.184
				c0.149-0.123,0.267-0.29,0.352-0.506c0.085-0.218,0.129-0.456,0.129-0.716c0-0.262-0.041-0.502-0.128-0.722
				c-0.084-0.216-0.201-0.387-0.348-0.511C509.088,33.639,508.927,33.577,508.747,33.577z"/>
			<path fill="#FFFFFF" d="M516.613,31.783l-0.055,0.737c-0.174-0.119-0.334-0.201-0.479-0.247
				c-0.143-0.046-0.306-0.069-0.487-0.069c-0.255,0-0.49,0.048-0.703,0.144c-0.213,0.096-0.399,0.235-0.557,0.416
				c-0.159,0.181-0.281,0.396-0.366,0.646c-0.088,0.246-0.131,0.521-0.131,0.82c0,0.395,0.077,0.751,0.233,1.071
				c0.153,0.319,0.368,0.568,0.641,0.748c0.271,0.181,0.576,0.27,0.913,0.27c0.314,0,0.644-0.08,0.989-0.241l0.051,0.741
				c-0.179,0.068-0.344,0.116-0.492,0.145c-0.147,0.026-0.323,0.041-0.528,0.041c-0.485,0-0.918-0.107-1.299-0.327
				c-0.381-0.219-0.681-0.535-0.893-0.952c-0.215-0.417-0.322-0.911-0.322-1.48c0-0.52,0.102-0.985,0.306-1.396
				c0.205-0.41,0.493-0.729,0.864-0.958c0.374-0.229,0.792-0.343,1.26-0.343C515.964,31.551,516.314,31.628,516.613,31.783z"/>
			<path fill="#FFFFFF" d="M517.498,33.316c0.185-0.127,0.369-0.218,0.551-0.275c0.182-0.059,0.376-0.087,0.584-0.087
				c0.318,0,0.586,0.069,0.802,0.211c0.216,0.139,0.365,0.338,0.45,0.598c0.07,0.214,0.104,0.578,0.104,1.094v0.771
				c0,0.297,0.003,0.558,0.01,0.778c0.005,0.221,0.013,0.409,0.023,0.563h-0.574c-0.005-0.093-0.009-0.195-0.009-0.308
				c0-0.141,0.004-0.263,0.009-0.371c-0.132,0.257-0.287,0.44-0.47,0.558c-0.181,0.117-0.404,0.176-0.67,0.176
				c-0.235,0-0.441-0.049-0.622-0.145c-0.179-0.097-0.318-0.235-0.414-0.416s-0.145-0.389-0.145-0.625
				c0-0.207,0.039-0.391,0.117-0.55s0.192-0.295,0.344-0.407c0.151-0.11,0.337-0.193,0.557-0.25c0.22-0.055,0.472-0.082,0.76-0.082
				c0.172,0,0.331,0.006,0.475,0.016c-0.005-0.338-0.076-0.588-0.214-0.747c-0.139-0.158-0.35-0.239-0.634-0.239
				c-0.186,0-0.354,0.029-0.508,0.091c-0.154,0.058-0.319,0.154-0.492,0.289L517.498,33.316z M519.393,35.102
				c-0.14-0.016-0.255-0.022-0.341-0.022c-0.837,0-1.254,0.25-1.254,0.75c0,0.12,0.025,0.227,0.08,0.316
				c0.055,0.094,0.132,0.166,0.23,0.218c0.098,0.054,0.213,0.079,0.338,0.079c0.233,0,0.42-0.06,0.56-0.177
				c0.141-0.12,0.24-0.277,0.298-0.478C519.362,35.589,519.393,35.36,519.393,35.102z"/>
			<path fill="#FFFFFF" d="M520.985,33.021h0.583l0.029,0.702c0.103-0.247,0.235-0.434,0.399-0.562s0.354-0.191,0.571-0.191
				c0.112,0,0.228,0.017,0.342,0.051v0.672c-0.107-0.047-0.207-0.068-0.298-0.068c-0.218,0-0.401,0.076-0.545,0.223
				c-0.146,0.148-0.25,0.337-0.315,0.568c-0.065,0.23-0.098,0.47-0.098,0.719v0.284v1.55h-0.625v-2.404
				C521.029,34.174,521.015,33.661,520.985,33.021z"/>
			<path fill="#FFFFFF" d="M524.124,31.266v0.808h-0.688v-0.808H524.124z M524.109,33.021v3.947h-0.634v-3.947H524.109z"/>
			<path fill="#FFFFFF" d="M525.713,31.152v2.094c0,0.152-0.008,0.306-0.02,0.46c0.084-0.226,0.234-0.409,0.446-0.545
				c0.215-0.138,0.452-0.207,0.721-0.207c0.221,0,0.422,0.046,0.603,0.138c0.178,0.093,0.334,0.226,0.464,0.405
				c0.13,0.177,0.229,0.387,0.295,0.632c0.069,0.244,0.101,0.521,0.101,0.828c0,0.309-0.031,0.591-0.101,0.846
				c-0.066,0.255-0.167,0.472-0.298,0.656c-0.131,0.184-0.288,0.323-0.47,0.419s-0.382,0.145-0.601,0.145
				c-0.263,0-0.494-0.064-0.698-0.193c-0.205-0.129-0.358-0.307-0.467-0.536v0.675h-0.604v-5.814h0.628V31.152z M526.728,33.577
				c-0.187,0-0.358,0.062-0.513,0.184c-0.152,0.125-0.271,0.296-0.359,0.51c-0.084,0.218-0.128,0.458-0.128,0.724
				c0,0.257,0.044,0.494,0.127,0.71c0.085,0.216,0.203,0.387,0.353,0.51c0.149,0.125,0.318,0.186,0.5,0.186
				c0.177,0,0.34-0.061,0.486-0.181c0.146-0.121,0.259-0.29,0.34-0.508c0.082-0.218,0.122-0.458,0.122-0.726
				c0-0.415-0.085-0.755-0.256-1.017C527.229,33.706,527.006,33.577,526.728,33.577z"/>
			<path fill="#FFFFFF" d="M529.72,31.152v2.094c0,0.152-0.007,0.306-0.019,0.46c0.084-0.226,0.231-0.409,0.446-0.545
				c0.214-0.138,0.452-0.207,0.721-0.207c0.221,0,0.419,0.046,0.6,0.138c0.18,0.093,0.336,0.226,0.465,0.405
				c0.131,0.177,0.229,0.387,0.296,0.632c0.068,0.244,0.102,0.521,0.102,0.828c0,0.309-0.033,0.591-0.102,0.846
				c-0.066,0.255-0.167,0.472-0.297,0.656c-0.131,0.184-0.289,0.323-0.47,0.419c-0.182,0.096-0.382,0.145-0.603,0.145
				c-0.261,0-0.495-0.064-0.697-0.193c-0.204-0.129-0.36-0.307-0.468-0.536v0.675h-0.603v-5.814h0.628V31.152z M530.733,33.577
				c-0.187,0-0.359,0.062-0.512,0.184c-0.153,0.125-0.273,0.296-0.36,0.51c-0.085,0.218-0.129,0.458-0.129,0.724
				c0,0.257,0.044,0.494,0.128,0.71c0.085,0.216,0.203,0.387,0.353,0.51c0.15,0.125,0.317,0.186,0.5,0.186
				c0.177,0,0.339-0.061,0.486-0.181c0.146-0.121,0.258-0.29,0.341-0.508c0.081-0.218,0.122-0.458,0.122-0.726
				c0-0.415-0.086-0.755-0.257-1.017C531.236,33.706,531.011,33.577,530.733,33.577z"/>
			<path fill="#FFFFFF" d="M533.503,35.183c0.046,0.39,0.17,0.699,0.371,0.926c0.204,0.228,0.456,0.341,0.761,0.341
				c0.181,0,0.357-0.029,0.529-0.091c0.174-0.062,0.351-0.154,0.532-0.28v0.703c-0.206,0.103-0.392,0.179-0.559,0.224
				s-0.343,0.066-0.528,0.066c-0.264,0-0.501-0.051-0.716-0.148c-0.215-0.1-0.397-0.245-0.548-0.431
				c-0.152-0.186-0.27-0.412-0.35-0.675c-0.082-0.265-0.122-0.555-0.122-0.87c0-0.403,0.063-0.758,0.196-1.063
				c0.131-0.31,0.318-0.548,0.563-0.717c0.246-0.169,0.524-0.255,0.837-0.255c0.365,0,0.657,0.104,0.877,0.313
				c0.217,0.21,0.373,0.484,0.463,0.826c0.093,0.341,0.137,0.718,0.137,1.128h-2.444V35.183z M533.51,34.61h1.807
				c-0.022-0.216-0.066-0.406-0.129-0.57c-0.063-0.163-0.158-0.297-0.282-0.395c-0.124-0.103-0.277-0.152-0.456-0.152
				c-0.25,0-0.456,0.101-0.624,0.299C533.662,33.99,533.554,34.264,533.51,34.61z"/>
			<path fill="#FFFFFF" d="M536.893,33.316c0.183-0.127,0.368-0.218,0.551-0.275c0.181-0.059,0.376-0.087,0.583-0.087
				c0.319,0,0.587,0.069,0.803,0.211c0.216,0.139,0.366,0.338,0.45,0.598c0.068,0.214,0.104,0.578,0.104,1.094v0.771
				c0,0.297,0.004,0.558,0.009,0.778c0.006,0.221,0.015,0.409,0.025,0.563h-0.574c-0.005-0.093-0.009-0.195-0.009-0.308
				c0-0.141,0.004-0.263,0.009-0.371c-0.133,0.257-0.289,0.44-0.47,0.558s-0.405,0.176-0.671,0.176
				c-0.235,0-0.442-0.049-0.622-0.145c-0.178-0.097-0.316-0.235-0.413-0.416s-0.144-0.389-0.144-0.625
				c0-0.207,0.038-0.391,0.115-0.55c0.079-0.159,0.194-0.295,0.346-0.407c0.151-0.11,0.335-0.193,0.556-0.25
				c0.22-0.055,0.472-0.082,0.759-0.082c0.173,0,0.33,0.006,0.476,0.016c-0.005-0.338-0.077-0.588-0.215-0.747
				c-0.138-0.158-0.349-0.239-0.633-0.239c-0.187,0-0.356,0.029-0.509,0.091c-0.153,0.058-0.318,0.154-0.491,0.289L536.893,33.316z
				 M538.788,35.102c-0.141-0.016-0.255-0.022-0.345-0.022c-0.836,0-1.253,0.25-1.253,0.75c0,0.12,0.027,0.227,0.081,0.316
				c0.054,0.094,0.132,0.166,0.229,0.218c0.101,0.054,0.215,0.079,0.341,0.079c0.231,0,0.419-0.06,0.56-0.177
				c0.138-0.12,0.239-0.277,0.296-0.478C538.756,35.589,538.788,35.36,538.788,35.102z"/>
			<path fill="#FFFFFF" d="M540.962,33.021l0.032,0.628c0.256-0.463,0.645-0.694,1.164-0.694c0.286,0,0.513,0.059,0.685,0.181
				c0.173,0.121,0.299,0.281,0.379,0.48c0.082,0.196,0.136,0.414,0.16,0.652c0.023,0.237,0.036,0.527,0.036,0.865v1.834h-0.623
				v-1.779c0-0.283-0.003-0.489-0.012-0.62c-0.008-0.131-0.022-0.245-0.043-0.343c-0.048-0.213-0.133-0.372-0.256-0.484
				c-0.125-0.108-0.279-0.164-0.465-0.164c-0.21,0-0.393,0.071-0.556,0.216c-0.163,0.146-0.277,0.342-0.343,0.592
				c-0.02,0.071-0.036,0.153-0.049,0.25c-0.013,0.094-0.02,0.196-0.022,0.307c-0.002,0.108-0.004,0.302-0.004,0.579v1.445h-0.63
				v-1.948c-0.004-0.222-0.008-0.429-0.01-0.615c-0.003-0.187-0.006-0.411-0.013-0.667c-0.005-0.255-0.013-0.493-0.021-0.715
				H540.962L540.962,33.021z"/>
			<path fill="#FFFFFF" d="M549.602,31.783l-0.055,0.737c-0.176-0.119-0.334-0.201-0.479-0.247
				c-0.143-0.046-0.306-0.069-0.487-0.069c-0.255,0-0.49,0.048-0.703,0.144c-0.212,0.096-0.399,0.235-0.558,0.416
				c-0.158,0.181-0.28,0.396-0.368,0.646c-0.085,0.246-0.128,0.521-0.128,0.82c0,0.395,0.077,0.751,0.232,1.071
				c0.154,0.319,0.369,0.568,0.641,0.748c0.272,0.181,0.577,0.27,0.914,0.27c0.314,0,0.644-0.08,0.989-0.241l0.052,0.741
				c-0.181,0.068-0.345,0.116-0.493,0.145c-0.148,0.026-0.326,0.041-0.528,0.041c-0.485,0-0.919-0.107-1.299-0.327
				c-0.381-0.219-0.681-0.535-0.893-0.952c-0.215-0.417-0.322-0.911-0.322-1.48c0-0.52,0.102-0.985,0.306-1.396
				c0.205-0.41,0.493-0.729,0.864-0.958c0.371-0.229,0.791-0.343,1.258-0.343C548.951,31.551,549.303,31.628,549.602,31.783z"/>
			<path fill="#FFFFFF" d="M550.721,35.183c0.046,0.39,0.17,0.699,0.371,0.926c0.203,0.228,0.456,0.341,0.76,0.341
				c0.181,0,0.358-0.029,0.53-0.091c0.174-0.062,0.351-0.154,0.532-0.28v0.703c-0.206,0.103-0.392,0.179-0.559,0.224
				c-0.168,0.045-0.344,0.066-0.529,0.066c-0.263,0-0.5-0.051-0.715-0.148c-0.215-0.1-0.398-0.245-0.549-0.431
				c-0.151-0.186-0.269-0.412-0.349-0.675c-0.083-0.265-0.123-0.555-0.123-0.87c0-0.403,0.064-0.758,0.196-1.063
				c0.132-0.31,0.319-0.548,0.564-0.717c0.246-0.169,0.523-0.255,0.837-0.255c0.365,0,0.657,0.104,0.877,0.313
				c0.217,0.21,0.373,0.484,0.463,0.826c0.092,0.341,0.137,0.718,0.137,1.128h-2.444V35.183z M550.728,34.61h1.806
				c-0.021-0.216-0.065-0.406-0.128-0.57c-0.063-0.163-0.158-0.297-0.281-0.395c-0.125-0.103-0.278-0.152-0.458-0.152
				c-0.248,0-0.455,0.101-0.623,0.299C550.879,33.99,550.772,34.264,550.728,34.61z"/>
			<path fill="#FFFFFF" d="M554.509,33.021l0.031,0.628c0.258-0.463,0.646-0.694,1.165-0.694c0.286,0,0.513,0.059,0.685,0.181
				c0.173,0.121,0.299,0.281,0.381,0.48c0.08,0.196,0.135,0.414,0.159,0.652c0.022,0.237,0.037,0.527,0.037,0.865v1.834h-0.623
				v-1.779c0-0.283-0.005-0.489-0.014-0.62c-0.008-0.131-0.021-0.245-0.042-0.343c-0.048-0.213-0.134-0.372-0.257-0.484
				c-0.125-0.108-0.279-0.164-0.465-0.164c-0.207,0-0.393,0.071-0.556,0.216c-0.162,0.146-0.277,0.342-0.342,0.592
				c-0.021,0.071-0.037,0.153-0.05,0.25c-0.011,0.094-0.02,0.196-0.021,0.307c-0.002,0.108-0.005,0.302-0.005,0.579v1.445h-0.631
				v-1.948c-0.003-0.222-0.008-0.429-0.01-0.615c-0.001-0.187-0.006-0.411-0.013-0.667c-0.005-0.255-0.013-0.493-0.021-0.715
				H554.509L554.509,33.021z"/>
			<path fill="#FFFFFF" d="M558.792,31.883v1.154h0.902v0.571h-0.902v1.549c0,0.353,0.015,0.612,0.041,0.772
				c0.021,0.142,0.077,0.255,0.169,0.339c0.092,0.08,0.21,0.122,0.352,0.122c0.13,0,0.267-0.04,0.411-0.122v0.635
				c-0.2,0.074-0.396,0.109-0.586,0.109c-0.294,0-0.517-0.067-0.665-0.209c-0.149-0.139-0.247-0.321-0.287-0.547
				c-0.042-0.227-0.063-0.521-0.063-0.879v-1.771h-0.78v-0.57h0.78v-0.907L558.792,31.883z"/>
			<path fill="#FFFFFF" d="M560.854,35.183c0.045,0.39,0.169,0.699,0.372,0.926c0.203,0.228,0.455,0.341,0.761,0.341
				c0.181,0,0.357-0.029,0.53-0.091c0.172-0.062,0.348-0.154,0.532-0.28v0.703c-0.206,0.103-0.392,0.179-0.56,0.224
				s-0.343,0.066-0.528,0.066c-0.264,0-0.502-0.051-0.716-0.148c-0.215-0.1-0.397-0.245-0.549-0.431s-0.269-0.412-0.349-0.675
				c-0.082-0.265-0.122-0.555-0.122-0.87c0-0.403,0.064-0.758,0.194-1.063c0.132-0.31,0.321-0.548,0.566-0.717
				c0.244-0.169,0.523-0.255,0.835-0.255c0.366,0,0.658,0.104,0.876,0.313c0.217,0.21,0.373,0.484,0.465,0.826
				c0.093,0.341,0.138,0.718,0.138,1.128h-2.446V35.183z M560.859,34.61h1.809c-0.023-0.216-0.065-0.406-0.129-0.57
				c-0.064-0.163-0.157-0.297-0.282-0.395c-0.125-0.103-0.276-0.152-0.457-0.152c-0.249,0-0.456,0.101-0.622,0.299
				S560.904,34.264,560.859,34.61z"/>
			<path fill="#FFFFFF" d="M564.06,33.021h0.584l0.03,0.702c0.102-0.247,0.233-0.434,0.398-0.562
				c0.163-0.128,0.354-0.191,0.57-0.191c0.112,0,0.227,0.017,0.343,0.051v0.672c-0.108-0.047-0.207-0.068-0.298-0.068
				c-0.219,0-0.401,0.076-0.546,0.223c-0.145,0.148-0.25,0.337-0.314,0.568c-0.066,0.23-0.098,0.47-0.098,0.719v0.284v1.55h-0.625
				v-2.404C564.104,34.174,564.089,33.661,564.06,33.021z"/>
			<path fill="#FFFFFF" d="M455.09,46.069c0,0.397-0.073,0.755-0.222,1.07c-0.147,0.315-0.356,0.561-0.623,0.733
				c-0.269,0.178-0.571,0.264-0.904,0.264c-0.331,0-0.625-0.089-0.89-0.267c-0.261-0.178-0.468-0.425-0.615-0.743
				c-0.149-0.32-0.225-0.674-0.225-1.058c0-0.307,0.042-0.585,0.127-0.838c0.085-0.255,0.208-0.477,0.365-0.665
				c0.156-0.187,0.341-0.333,0.554-0.434c0.216-0.103,0.445-0.155,0.69-0.155c0.251,0,0.482,0.052,0.696,0.151
				c0.216,0.098,0.402,0.245,0.56,0.433c0.158,0.189,0.28,0.414,0.363,0.67C455.049,45.49,455.09,45.768,455.09,46.069z
				 M454.424,46.085c0-0.216-0.027-0.419-0.08-0.61c-0.055-0.192-0.128-0.356-0.224-0.492c-0.096-0.137-0.209-0.241-0.338-0.315
				c-0.13-0.072-0.272-0.11-0.425-0.11c-0.311,0-0.567,0.143-0.771,0.426c-0.206,0.287-0.307,0.646-0.307,1.081
				c0,0.286,0.046,0.544,0.137,0.772c0.094,0.229,0.219,0.406,0.384,0.532c0.163,0.125,0.349,0.19,0.558,0.19
				c0.201,0,0.383-0.065,0.545-0.189c0.163-0.124,0.291-0.301,0.383-0.526C454.375,46.617,454.424,46.363,454.424,46.085z"/>
			<path fill="#FFFFFF" d="M456.431,44.084l0.03,0.628c0.257-0.464,0.646-0.692,1.165-0.692c0.285,0,0.512,0.057,0.684,0.18
				c0.173,0.12,0.299,0.281,0.381,0.479c0.08,0.199,0.135,0.416,0.158,0.652c0.025,0.239,0.038,0.529,0.038,0.867v1.834h-0.623
				v-1.779c0-0.283-0.005-0.491-0.013-0.619c-0.009-0.131-0.021-0.245-0.044-0.346c-0.045-0.211-0.133-0.37-0.256-0.481
				c-0.124-0.109-0.279-0.164-0.462-0.164c-0.21,0-0.396,0.07-0.559,0.216c-0.161,0.144-0.277,0.341-0.342,0.591
				c-0.02,0.071-0.036,0.154-0.05,0.25c-0.011,0.093-0.019,0.196-0.021,0.307c-0.003,0.109-0.003,0.303-0.003,0.579v1.446h-0.632
				v-1.949c-0.004-0.222-0.009-0.428-0.01-0.614c-0.002-0.189-0.007-0.413-0.014-0.667c-0.005-0.258-0.012-0.495-0.021-0.716
				H456.431L456.431,44.084z"/>
			<path fill="#FFFFFF" d="M465.41,42.646v5.385h-0.661V45.56h-2.239v2.472h-0.661v-5.385h0.661v2.259h2.239v-2.259H465.41z"/>
			<path fill="#FFFFFF" d="M466.909,46.245c0.045,0.392,0.168,0.701,0.372,0.928c0.201,0.227,0.453,0.339,0.761,0.339
				c0.181,0,0.354-0.027,0.529-0.089c0.171-0.062,0.349-0.155,0.531-0.28v0.7c-0.206,0.104-0.393,0.181-0.56,0.226
				c-0.168,0.044-0.343,0.065-0.529,0.065c-0.261,0-0.5-0.049-0.716-0.147c-0.212-0.1-0.396-0.245-0.548-0.431
				c-0.151-0.187-0.267-0.412-0.348-0.677c-0.081-0.262-0.123-0.554-0.123-0.868c0-0.402,0.065-0.758,0.195-1.064
				c0.133-0.309,0.321-0.547,0.566-0.716c0.245-0.17,0.522-0.255,0.835-0.255c0.367,0,0.657,0.104,0.876,0.313
				c0.218,0.211,0.374,0.484,0.464,0.825c0.093,0.343,0.14,0.719,0.14,1.128h-2.446V46.245z M466.915,45.673h1.809
				c-0.023-0.215-0.067-0.405-0.13-0.57c-0.064-0.164-0.158-0.296-0.283-0.395c-0.125-0.101-0.277-0.151-0.456-0.151
				c-0.248,0-0.456,0.101-0.622,0.299S466.96,45.328,466.915,45.673z"/>
			<path fill="#FFFFFF" d="M470.299,44.38c0.184-0.125,0.367-0.217,0.549-0.274c0.184-0.06,0.376-0.086,0.586-0.086
				c0.318,0,0.584,0.069,0.803,0.209c0.216,0.141,0.363,0.341,0.447,0.598c0.07,0.216,0.106,0.581,0.106,1.096v0.77
				c0,0.296,0.003,0.558,0.008,0.779c0.005,0.221,0.015,0.409,0.024,0.561h-0.574c-0.006-0.094-0.01-0.194-0.01-0.306
				c0-0.141,0.004-0.265,0.01-0.372c-0.132,0.256-0.288,0.44-0.47,0.559c-0.181,0.116-0.403,0.174-0.671,0.174
				c-0.235,0-0.441-0.048-0.622-0.145c-0.177-0.097-0.315-0.235-0.412-0.416c-0.096-0.178-0.145-0.387-0.145-0.624
				c0-0.208,0.039-0.391,0.115-0.549c0.081-0.16,0.194-0.297,0.346-0.407c0.151-0.111,0.336-0.195,0.558-0.25
				c0.217-0.056,0.471-0.085,0.757-0.085c0.172,0,0.332,0.008,0.476,0.018c-0.005-0.339-0.075-0.587-0.215-0.748
				c-0.139-0.158-0.349-0.237-0.633-0.237c-0.186,0-0.354,0.029-0.507,0.089c-0.155,0.06-0.32,0.156-0.494,0.29L470.299,44.38z
				 M472.192,46.166c-0.141-0.017-0.253-0.023-0.343-0.023c-0.836,0-1.253,0.25-1.253,0.749c0,0.122,0.028,0.228,0.083,0.318
				c0.053,0.094,0.131,0.164,0.229,0.218c0.1,0.053,0.213,0.078,0.339,0.078c0.231,0,0.418-0.061,0.56-0.177
				c0.139-0.119,0.239-0.277,0.298-0.477C472.163,46.652,472.192,46.423,472.192,46.166z"/>
			<path fill="#FFFFFF" d="M474.413,42.218v5.813h-0.637v-5.813H474.413z"/>
			<path fill="#FFFFFF" d="M476.28,42.946V44.1h0.902v0.572h-0.902v1.549c0,0.353,0.015,0.61,0.042,0.773
				c0.019,0.142,0.076,0.255,0.168,0.336c0.091,0.083,0.209,0.125,0.351,0.125c0.132,0,0.268-0.041,0.41-0.122v0.634
				c-0.199,0.074-0.395,0.11-0.584,0.11c-0.293,0-0.517-0.067-0.665-0.21c-0.15-0.14-0.246-0.321-0.289-0.548
				c-0.04-0.226-0.061-0.519-0.061-0.881V44.67h-0.781V44.1h0.781v-0.906L476.28,42.946z"/>
			<path fill="#FFFFFF" d="M478.56,42.218v1.892c0,0.205-0.009,0.41-0.02,0.611c0.115-0.238,0.271-0.414,0.457-0.527
				c0.189-0.118,0.412-0.174,0.671-0.174c0.328,0,0.588,0.086,0.775,0.257c0.189,0.175,0.319,0.403,0.39,0.687
				c0.069,0.284,0.104,0.62,0.104,1.003v2.065h-0.632V46.32c0-0.506-0.02-0.848-0.056-1.025c-0.049-0.216-0.135-0.377-0.255-0.489
				c-0.125-0.109-0.276-0.164-0.461-0.164c-0.135,0-0.262,0.031-0.382,0.096c-0.123,0.067-0.229,0.161-0.319,0.284
				c-0.092,0.122-0.158,0.265-0.2,0.427c-0.018,0.057-0.03,0.131-0.045,0.223c-0.013,0.092-0.022,0.192-0.026,0.295
				c-0.002,0.102-0.002,0.267-0.002,0.5v1.564h-0.639v-5.813H478.56z"/>
			<path fill="#FFFFFF" d="M486.073,42.743l-0.083,0.68c-0.33-0.147-0.618-0.221-0.867-0.221c-0.167,0-0.313,0.03-0.438,0.094
				c-0.126,0.063-0.223,0.146-0.293,0.26c-0.068,0.111-0.104,0.241-0.104,0.393c0,0.232,0.07,0.412,0.212,0.534
				c0.143,0.123,0.391,0.294,0.745,0.508c0.357,0.213,0.625,0.432,0.803,0.649c0.178,0.22,0.267,0.51,0.267,0.874
				c0,0.315-0.064,0.599-0.196,0.848c-0.13,0.249-0.315,0.441-0.557,0.575c-0.24,0.134-0.517,0.2-0.828,0.2
				c-0.368,0-0.72-0.071-1.054-0.214l0.066-0.725c0.342,0.189,0.646,0.283,0.909,0.283c0.187,0,0.354-0.036,0.5-0.11
				c0.145-0.072,0.257-0.178,0.335-0.316c0.077-0.138,0.116-0.299,0.116-0.486c0-0.269-0.078-0.473-0.233-0.611
				c-0.157-0.138-0.403-0.3-0.743-0.49c-0.338-0.19-0.593-0.386-0.768-0.59c-0.173-0.204-0.261-0.49-0.261-0.861
				c0-0.289,0.06-0.544,0.181-0.768c0.12-0.222,0.292-0.395,0.516-0.518c0.222-0.122,0.476-0.185,0.761-0.185
				C485.421,42.546,485.755,42.614,486.073,42.743z"/>
			<path fill="#FFFFFF" d="M489.336,44.194l-0.042,0.646c-0.171-0.118-0.377-0.178-0.618-0.178c-0.217,0-0.415,0.059-0.591,0.175
				c-0.178,0.115-0.312,0.275-0.41,0.481s-0.146,0.441-0.146,0.707c0,0.274,0.047,0.522,0.142,0.738
				c0.095,0.22,0.228,0.388,0.398,0.51c0.171,0.12,0.367,0.181,0.592,0.181c0.133,0,0.252-0.02,0.358-0.061
				c0.106-0.04,0.224-0.104,0.35-0.192l0.051,0.671c-0.13,0.072-0.259,0.122-0.391,0.155c-0.133,0.032-0.28,0.049-0.445,0.049
				c-0.334,0-0.638-0.085-0.898-0.252c-0.264-0.169-0.467-0.404-0.611-0.708c-0.143-0.304-0.213-0.655-0.213-1.058
				c0-0.384,0.074-0.73,0.221-1.039s0.349-0.55,0.609-0.726s0.552-0.263,0.873-0.263C488.829,44.032,489.088,44.086,489.336,44.194z
				"/>
			<path fill="#FFFFFF" d="M490.681,42.33v0.81h-0.688v-0.81H490.681z M490.668,44.084v3.947h-0.633v-3.947H490.668z"/>
			<path fill="#FFFFFF" d="M492.048,46.245c0.045,0.392,0.169,0.701,0.372,0.928c0.201,0.227,0.455,0.339,0.761,0.339
				c0.181,0,0.357-0.027,0.528-0.089c0.172-0.062,0.35-0.155,0.531-0.28v0.7c-0.206,0.104-0.392,0.181-0.559,0.226
				c-0.167,0.044-0.344,0.065-0.529,0.065c-0.262,0-0.501-0.049-0.715-0.147c-0.214-0.1-0.398-0.245-0.548-0.431
				c-0.151-0.187-0.269-0.412-0.35-0.677c-0.08-0.262-0.123-0.554-0.123-0.868c0-0.402,0.064-0.758,0.196-1.064
				c0.133-0.309,0.32-0.547,0.565-0.716c0.246-0.17,0.525-0.255,0.836-0.255c0.366,0,0.657,0.104,0.876,0.313
				c0.218,0.211,0.374,0.484,0.465,0.825c0.091,0.343,0.137,0.719,0.137,1.128h-2.444V46.245z M492.054,45.673h1.807
				c-0.022-0.215-0.063-0.405-0.128-0.57c-0.063-0.164-0.159-0.296-0.281-0.395c-0.125-0.101-0.277-0.151-0.458-0.151
				c-0.248,0-0.455,0.101-0.622,0.299C492.205,45.054,492.099,45.328,492.054,45.673z"/>
			<path fill="#FFFFFF" d="M495.836,44.084l0.03,0.628c0.259-0.464,0.646-0.692,1.166-0.692c0.284,0,0.512,0.057,0.686,0.18
				c0.172,0.12,0.296,0.281,0.379,0.479c0.081,0.199,0.133,0.416,0.16,0.652c0.021,0.239,0.036,0.529,0.036,0.867v1.834h-0.623
				v-1.779c0-0.283-0.005-0.491-0.014-0.619c-0.007-0.131-0.021-0.245-0.041-0.346c-0.049-0.211-0.134-0.37-0.259-0.481
				c-0.122-0.109-0.278-0.164-0.463-0.164c-0.209,0-0.395,0.07-0.556,0.216c-0.163,0.144-0.276,0.341-0.343,0.591
				c-0.021,0.071-0.036,0.154-0.05,0.25c-0.011,0.093-0.02,0.196-0.021,0.307c-0.001,0.109-0.005,0.303-0.005,0.579v1.446h-0.628
				v-1.949c-0.008-0.222-0.01-0.428-0.013-0.614c-0.001-0.189-0.006-0.413-0.011-0.667c-0.006-0.258-0.012-0.495-0.021-0.716
				H495.836L495.836,44.084z"/>
			<path fill="#FFFFFF" d="M501.473,44.194l-0.042,0.646c-0.17-0.118-0.378-0.178-0.619-0.178c-0.216,0-0.413,0.059-0.589,0.175
				c-0.178,0.115-0.313,0.275-0.411,0.481c-0.099,0.206-0.146,0.441-0.146,0.707c0,0.274,0.047,0.522,0.142,0.738
				c0.096,0.22,0.228,0.388,0.399,0.51c0.169,0.12,0.368,0.181,0.593,0.181c0.131,0,0.251-0.02,0.356-0.061
				c0.106-0.04,0.223-0.104,0.351-0.192l0.05,0.671c-0.129,0.072-0.259,0.122-0.391,0.155c-0.134,0.032-0.28,0.049-0.444,0.049
				c-0.336,0-0.638-0.085-0.899-0.252c-0.265-0.169-0.467-0.404-0.61-0.708c-0.142-0.304-0.214-0.655-0.214-1.058
				c0-0.384,0.073-0.73,0.221-1.039c0.146-0.309,0.349-0.55,0.61-0.726c0.261-0.176,0.551-0.263,0.873-0.263
				C500.967,44.032,501.224,44.086,501.473,44.194z"/>
			<path fill="#FFFFFF" d="M502.595,46.245c0.046,0.392,0.171,0.701,0.373,0.928c0.201,0.227,0.455,0.339,0.761,0.339
				c0.181,0,0.356-0.027,0.528-0.089s0.349-0.155,0.532-0.28v0.7c-0.206,0.104-0.392,0.181-0.56,0.226
				c-0.168,0.044-0.344,0.065-0.528,0.065c-0.263,0-0.502-0.049-0.715-0.147c-0.215-0.1-0.399-0.245-0.55-0.431
				c-0.15-0.187-0.268-0.412-0.348-0.677c-0.081-0.262-0.123-0.554-0.123-0.868c0-0.402,0.064-0.758,0.197-1.064
				c0.132-0.309,0.318-0.547,0.563-0.716c0.246-0.17,0.525-0.255,0.836-0.255c0.366,0,0.658,0.104,0.875,0.313
				c0.22,0.211,0.374,0.484,0.466,0.825c0.092,0.343,0.137,0.719,0.137,1.128h-2.445V46.245z M502.602,45.673h1.807
				c-0.022-0.215-0.064-0.405-0.128-0.57c-0.063-0.164-0.159-0.296-0.283-0.395c-0.123-0.101-0.276-0.151-0.456-0.151
				c-0.248,0-0.455,0.101-0.622,0.299S502.647,45.328,502.602,45.673z"/>
			<path fill="#FFFFFF" d="M507.53,44.179l-0.048,0.611c-0.222-0.13-0.451-0.194-0.688-0.194c-0.175,0-0.313,0.047-0.416,0.137
				c-0.101,0.093-0.153,0.211-0.153,0.358c0,0.153,0.052,0.269,0.153,0.352c0.101,0.082,0.284,0.197,0.543,0.349
				c0.261,0.152,0.459,0.308,0.595,0.469c0.137,0.158,0.202,0.373,0.202,0.639c0,0.177-0.026,0.344-0.085,0.491
				c-0.058,0.149-0.142,0.277-0.253,0.382c-0.113,0.106-0.245,0.189-0.399,0.247c-0.155,0.055-0.322,0.084-0.499,0.084
				c-0.313,0-0.606-0.076-0.884-0.226V47.22c0.163,0.094,0.306,0.158,0.433,0.199c0.123,0.042,0.246,0.062,0.367,0.062
				c0.124,0,0.235-0.022,0.335-0.067c0.099-0.045,0.177-0.107,0.234-0.184c0.055-0.08,0.084-0.169,0.084-0.265
				c0-0.15-0.055-0.267-0.161-0.352c-0.108-0.083-0.29-0.202-0.547-0.357c-0.255-0.155-0.453-0.313-0.587-0.475
				c-0.132-0.161-0.2-0.367-0.2-0.614c0-0.229,0.049-0.43,0.146-0.603c0.099-0.175,0.235-0.308,0.416-0.403
				c0.179-0.093,0.385-0.142,0.619-0.142C506.99,44.02,507.255,44.072,507.53,44.179z"/>
			<path fill="#FFFFFF" d="M511.167,42.646v5.385h-0.661v-5.385H511.167z"/>
			<path fill="#FFFFFF" d="M512.878,44.084l0.03,0.628c0.258-0.464,0.646-0.692,1.165-0.692c0.285,0,0.514,0.057,0.686,0.18
				c0.172,0.12,0.298,0.281,0.38,0.479c0.081,0.199,0.136,0.416,0.16,0.652c0.021,0.239,0.036,0.529,0.036,0.867v1.834h-0.624
				v-1.779c0-0.283-0.004-0.491-0.012-0.619c-0.009-0.131-0.021-0.245-0.042-0.346c-0.049-0.211-0.134-0.37-0.259-0.481
				c-0.124-0.109-0.277-0.164-0.463-0.164c-0.209,0-0.394,0.07-0.557,0.216c-0.163,0.144-0.276,0.341-0.341,0.591
				c-0.022,0.071-0.038,0.154-0.051,0.25c-0.011,0.093-0.02,0.196-0.021,0.307c-0.002,0.109-0.005,0.303-0.005,0.579v1.446h-0.63
				v-1.949c-0.004-0.222-0.009-0.428-0.01-0.614c-0.002-0.189-0.007-0.413-0.014-0.667c-0.004-0.258-0.013-0.495-0.021-0.716
				H512.878L512.878,44.084z"/>
			<path fill="#FFFFFF" d="M518.146,42.253v0.609c-0.117-0.031-0.226-0.047-0.326-0.047c-0.253,0-0.415,0.095-0.487,0.282
				c-0.073,0.188-0.11,0.454-0.11,0.8v0.203h0.924v0.572h-0.924v3.358h-0.63v-3.358h-0.799v-0.572h0.799
				c0-0.362,0.026-0.684,0.075-0.963c0.054-0.28,0.159-0.509,0.319-0.688c0.164-0.177,0.396-0.265,0.701-0.265
				C517.829,42.184,517.983,42.208,518.146,42.253z"/>
			<path fill="#FFFFFF" d="M521.971,46.069c0,0.397-0.074,0.755-0.223,1.07c-0.146,0.315-0.354,0.561-0.623,0.733
				c-0.268,0.178-0.571,0.264-0.904,0.264c-0.33,0-0.625-0.089-0.888-0.267c-0.262-0.178-0.47-0.425-0.617-0.743
				c-0.148-0.32-0.224-0.674-0.224-1.058c0-0.307,0.043-0.585,0.127-0.838c0.086-0.255,0.207-0.477,0.364-0.665
				c0.156-0.187,0.342-0.333,0.556-0.434c0.215-0.103,0.443-0.155,0.69-0.155c0.249,0,0.481,0.052,0.694,0.151
				c0.216,0.098,0.402,0.245,0.561,0.433c0.157,0.189,0.28,0.414,0.362,0.67C521.93,45.49,521.971,45.768,521.971,46.069z
				 M521.304,46.085c0-0.216-0.027-0.419-0.08-0.61c-0.054-0.192-0.128-0.356-0.224-0.492c-0.096-0.137-0.208-0.241-0.338-0.315
				c-0.13-0.072-0.271-0.11-0.425-0.11c-0.311,0-0.567,0.143-0.771,0.426c-0.207,0.287-0.306,0.646-0.306,1.081
				c0,0.286,0.044,0.544,0.137,0.772c0.092,0.229,0.22,0.406,0.382,0.532c0.164,0.125,0.35,0.19,0.558,0.19
				c0.201,0,0.384-0.065,0.546-0.189s0.29-0.301,0.383-0.526C521.258,46.617,521.304,46.363,521.304,46.085z"/>
			<path fill="#FFFFFF" d="M522.729,44.084h0.582l0.03,0.702c0.102-0.246,0.235-0.436,0.397-0.561
				c0.165-0.13,0.354-0.193,0.572-0.193c0.113,0,0.228,0.019,0.341,0.052v0.671c-0.107-0.047-0.207-0.067-0.296-0.067
				c-0.219,0-0.401,0.077-0.547,0.223c-0.143,0.148-0.248,0.337-0.315,0.569c-0.063,0.23-0.098,0.469-0.098,0.718v0.284v1.55h-0.623
				v-2.403C522.772,45.237,522.756,44.723,522.729,44.084z"/>
			<path fill="#FFFFFF" d="M525.802,44.084l0.038,0.634c0.06-0.143,0.143-0.267,0.246-0.373s0.226-0.186,0.364-0.244
				c0.14-0.056,0.292-0.083,0.456-0.083c0.255,0,0.468,0.066,0.64,0.203c0.169,0.135,0.29,0.331,0.359,0.589
				c0.228-0.529,0.601-0.792,1.12-0.792c0.242,0,0.44,0.053,0.594,0.161c0.152,0.107,0.269,0.25,0.348,0.427
				c0.078,0.18,0.13,0.377,0.156,0.601c0.024,0.222,0.039,0.473,0.039,0.75v2.074h-0.632v-1.93c0-0.255-0.004-0.451-0.012-0.59
				c-0.008-0.138-0.021-0.251-0.042-0.332c-0.091-0.36-0.283-0.539-0.583-0.539c-0.091,0-0.177,0.02-0.263,0.057
				c-0.084,0.035-0.163,0.09-0.232,0.164c-0.068,0.073-0.132,0.161-0.182,0.262c-0.052,0.1-0.093,0.212-0.122,0.335
				c-0.024,0.092-0.043,0.2-0.05,0.328c-0.009,0.126-0.013,0.315-0.013,0.573v1.673h-0.638v-2.026c0-0.274-0.004-0.46-0.008-0.562
				c-0.007-0.1-0.02-0.19-0.038-0.271c-0.044-0.169-0.115-0.3-0.214-0.393c-0.098-0.094-0.216-0.139-0.349-0.139
				c-0.17,0-0.321,0.058-0.459,0.175c-0.134,0.117-0.242,0.279-0.318,0.487c-0.076,0.207-0.115,0.441-0.115,0.701v0.285v1.741
				h-0.631v-2.221c0-0.698-0.015-1.275-0.045-1.726L525.802,44.084L525.802,44.084z"/>
			<path fill="#FFFFFF" d="M531.268,44.38c0.186-0.125,0.37-0.217,0.553-0.274c0.18-0.06,0.375-0.086,0.583-0.086
				c0.318,0,0.587,0.069,0.803,0.209c0.216,0.141,0.365,0.341,0.448,0.598c0.069,0.216,0.105,0.581,0.105,1.096v0.77
				c0,0.296,0.003,0.558,0.01,0.779c0.005,0.221,0.013,0.409,0.024,0.561h-0.576c-0.005-0.094-0.007-0.194-0.007-0.306
				c0-0.141,0.002-0.265,0.007-0.372c-0.132,0.256-0.288,0.44-0.468,0.559c-0.181,0.116-0.405,0.174-0.671,0.174
				c-0.235,0-0.443-0.048-0.622-0.145c-0.18-0.097-0.317-0.235-0.414-0.416c-0.097-0.178-0.144-0.387-0.144-0.624
				c0-0.208,0.039-0.391,0.116-0.549c0.079-0.16,0.193-0.297,0.345-0.407c0.151-0.111,0.336-0.195,0.557-0.25
				c0.218-0.056,0.472-0.085,0.758-0.085c0.173,0,0.331,0.008,0.476,0.018c-0.005-0.339-0.075-0.587-0.214-0.748
				c-0.14-0.158-0.351-0.237-0.633-0.237c-0.186,0-0.355,0.029-0.51,0.089c-0.153,0.06-0.317,0.156-0.492,0.29L531.268,44.38z
				 M533.163,46.166c-0.141-0.017-0.254-0.023-0.343-0.023c-0.837,0-1.252,0.25-1.252,0.749c0,0.122,0.025,0.228,0.08,0.318
				c0.054,0.094,0.133,0.164,0.23,0.218c0.099,0.053,0.213,0.078,0.339,0.078c0.231,0,0.419-0.061,0.559-0.177
				c0.141-0.119,0.24-0.277,0.299-0.477C533.135,46.652,533.163,46.423,533.163,46.166z"/>
			<path fill="#FFFFFF" d="M535.661,42.946V44.1h0.9v0.572h-0.9v1.549c0,0.353,0.013,0.61,0.04,0.773
				c0.02,0.142,0.075,0.255,0.168,0.336c0.092,0.083,0.21,0.125,0.352,0.125c0.132,0,0.267-0.041,0.411-0.122v0.634
				c-0.2,0.074-0.396,0.11-0.586,0.11c-0.293,0-0.516-0.067-0.666-0.21c-0.147-0.14-0.245-0.321-0.286-0.548
				c-0.042-0.226-0.063-0.519-0.063-0.881V44.67h-0.779V44.1h0.779v-0.906L535.661,42.946z"/>
			<path fill="#FFFFFF" d="M537.946,42.33v0.81h-0.69v-0.81H537.946z M537.932,44.084v3.947h-0.633v-3.947H537.932z"/>
			<path fill="#FFFFFF" d="M542.158,46.069c0,0.397-0.074,0.755-0.223,1.07c-0.147,0.315-0.356,0.561-0.623,0.733
				c-0.268,0.178-0.571,0.264-0.904,0.264c-0.331,0-0.627-0.089-0.888-0.267c-0.262-0.178-0.47-0.425-0.619-0.743
				c-0.147-0.32-0.223-0.674-0.223-1.058c0-0.307,0.042-0.585,0.127-0.838c0.085-0.255,0.205-0.477,0.363-0.665
				c0.158-0.187,0.342-0.333,0.558-0.434c0.213-0.103,0.443-0.155,0.689-0.155c0.25,0,0.48,0.052,0.695,0.151
				c0.216,0.098,0.4,0.245,0.561,0.433c0.157,0.189,0.278,0.414,0.362,0.67C542.116,45.49,542.158,45.768,542.158,46.069z
				 M541.489,46.085c0-0.216-0.025-0.419-0.078-0.61c-0.054-0.192-0.128-0.356-0.224-0.492c-0.096-0.137-0.208-0.241-0.34-0.315
				c-0.128-0.072-0.27-0.11-0.425-0.11c-0.31,0-0.565,0.143-0.771,0.426c-0.205,0.287-0.306,0.646-0.306,1.081
				c0,0.286,0.045,0.544,0.138,0.772c0.091,0.229,0.221,0.406,0.383,0.532c0.164,0.125,0.35,0.19,0.558,0.19
				c0.201,0,0.384-0.065,0.546-0.189s0.29-0.301,0.382-0.526S541.489,46.363,541.489,46.085z"/>
			<path fill="#FFFFFF" d="M543.498,44.084l0.03,0.628c0.257-0.464,0.646-0.692,1.165-0.692c0.285,0,0.512,0.057,0.685,0.18
				c0.172,0.12,0.298,0.281,0.378,0.479c0.082,0.199,0.136,0.416,0.161,0.652c0.023,0.239,0.038,0.529,0.038,0.867v1.834h-0.624
				v-1.779c0-0.283-0.005-0.491-0.013-0.619c-0.009-0.131-0.021-0.245-0.041-0.346c-0.049-0.211-0.135-0.37-0.259-0.481
				c-0.124-0.109-0.279-0.164-0.465-0.164c-0.207,0-0.393,0.07-0.555,0.216c-0.163,0.144-0.278,0.341-0.343,0.591
				c-0.021,0.071-0.036,0.154-0.049,0.25c-0.012,0.093-0.02,0.196-0.021,0.307c-0.003,0.109-0.004,0.303-0.004,0.579v1.446h-0.631
				v-1.949c-0.005-0.222-0.009-0.428-0.01-0.614c-0.001-0.189-0.006-0.413-0.014-0.667c-0.005-0.258-0.012-0.495-0.021-0.716
				H543.498L543.498,44.084z"/>
		</g>
	</g>
	<g>
		<path fill="#FFFFFF" d="M363.468,49.106h-1.92l-0.422,1.575h-1.384l2.034-7.053h1.576l1.962,7.053h-1.473 M362.556,44.982h-0.019
			l-0.726,2.934h1.374L362.556,44.982z"/>
		<path fill="#FFFFFF" d="M370.899,47.465c0-0.61-0.22-0.831-0.526-0.831c-0.41,0-0.567,0.344-0.567,0.739v3.333h-1.384v-3.241
			c0-0.668-0.255-0.831-0.484-0.831c-0.454,0-0.612,0.456-0.612,1.122v2.95h-1.382v-4.163c0-0.503-0.012-0.828-0.035-1.1h1.26
			c0.017,0.232,0.035,0.523,0.035,0.88h0.016c0.211-0.578,0.562-0.96,1.289-0.96c0.657,0,0.989,0.352,1.184,0.878
			c0.202-0.496,0.525-0.878,1.253-0.878c1.004,0,1.34,0.848,1.34,1.897v3.445h-1.385"/>
		<path fill="#FFFFFF" d="M377.136,48.494h-2.688c0,0.627,0.349,1.201,1.132,1.201c0.472,0,0.944-0.2,1.285-0.414l0.026,1.203
			c-0.444,0.192-0.97,0.303-1.444,0.303c-1.602,0-2.313-1.121-2.313-2.729c0-1.412,0.716-2.695,2.023-2.695
			c0.412,0,1.979,0,1.979,2.747 M375.874,47.625c0-0.667-0.147-1.292-0.717-1.292c-0.71,0-0.71,1.012-0.71,1.292H375.874z"/>
		<path fill="#FFFFFF" d="M377.951,46.546c0-0.506-0.01-0.83-0.035-1.103h1.262c0.008,0.313,0.023,0.637,0.033,0.949h0.02
			c0.278-0.563,0.474-1.029,1.269-1.029h0.201v1.475c-0.148-0.041-0.271-0.062-0.464-0.062c-0.806,0-0.903,0.809-0.903,1.576v2.354
			h-1.382"/>
		<path fill="#FFFFFF" d="M381.401,43.13h1.386v1.415h-1.386 M381.401,45.443h1.386v5.263h-1.386V45.443z"/>
		<path fill="#FFFFFF" d="M387.017,50.564c-0.405,0.122-0.813,0.223-1.251,0.223c-1.764,0-2.159-1.695-2.159-2.655
			c0-1.618,0.81-2.769,2.264-2.769c0.453,0,0.698,0.132,1.101,0.251l-0.066,1.204c-0.257-0.111-0.52-0.225-0.808-0.225
			c-1.053,0-1.053,1.334-1.053,1.538c0,1.109,0.598,1.465,1.125,1.465c0.286,0,0.551-0.121,0.802-0.234"/>
		<path fill="#FFFFFF" d="M387.997,45.695c0.358-0.131,0.976-0.332,1.472-0.332c1.603,0,1.971,0.767,1.971,1.94v1.917
			c0,0.778,0.009,1.132,0.035,1.485h-1.261l-0.035-0.727h-0.019c-0.061,0.323-0.595,0.808-1.252,0.808
			c-0.851,0-1.411-0.636-1.411-1.596c0-1.76,1.781-1.769,2.262-1.769h0.42c0-1.01-0.648-1.01-0.848-1.01
			c-0.355,0-0.729,0.092-1.273,0.465 M390.179,48.171c-0.552,0-1.419,0.04-1.419,0.919c0,0.687,0.482,0.687,0.597,0.687
			c0.122,0,0.822-0.021,0.822-1.304V48.171L390.179,48.171z"/>
		<path fill="#FFFFFF" d="M395.101,46.767c-0.369-0.173-0.711-0.281-1.113-0.281c-0.357,0-0.516,0.202-0.516,0.383
			c0,0.324,0.201,0.436,0.953,0.757c0.475,0.204,0.958,0.547,0.958,1.537c0,1.171-0.764,1.625-1.683,1.625
			c-0.403,0-1.018-0.051-1.498-0.252l0.035-1.23c0.332,0.231,0.755,0.361,1.142,0.361c0.644,0,0.688-0.264,0.688-0.494
			c0-0.233-0.359-0.334-0.957-0.618c-0.479-0.229-0.952-0.676-0.952-1.615c0-0.566,0.35-1.575,1.707-1.575
			c0.569,0,1.044,0.121,1.27,0.212"/>
		<line fill="none" x1="424.547" y1="40.178" x2="359.855" y2="40.178"/>
		<rect x="359.855" y="39.85" fill="#FFFFFF" width="64.691" height="0.66"/>
		<path fill="#FFFFFF" d="M320.889,47.465h0.809c0.463,0,0.775,0.257,0.775,0.85c0,0.421-0.215,0.701-0.504,0.756v0.015
			c0.096,0.02,0.206,0.074,0.286,0.375l0.339,1.227h-0.506l-0.257-1.047c-0.061-0.255-0.186-0.339-0.362-0.339h-0.106v1.386h-0.474
			 M321.556,48.868c0.255,0,0.424-0.163,0.424-0.489c0-0.369-0.156-0.461-0.424-0.461h-0.193v0.95H321.556z"/>
		<polyline fill="#FFFFFF" points="322.794,47.465 324.156,47.465 324.156,47.937 323.269,47.937 323.269,48.794 324.108,48.794 
			324.108,49.266 323.269,49.266 323.269,50.217 324.191,50.217 324.191,50.687 322.794,50.687 		"/>
		<path fill="#FFFFFF" d="M325.5,48.883h0.84v1.686c-0.134,0.087-0.365,0.166-0.702,0.166c-0.833,0-1.276-0.701-1.276-1.659
			c0-0.955,0.443-1.656,1.276-1.656c0.298,0,0.529,0.083,0.63,0.14l-0.025,0.531c-0.152-0.118-0.361-0.2-0.598-0.2
			c-0.507,0-0.779,0.517-0.779,1.186c0,0.726,0.265,1.187,0.753,1.187c0.111,0,0.213-0.026,0.275-0.058v-0.869H325.5"/>
		<rect x="326.693" y="47.465" fill="#FFFFFF" width="0.477" height="3.222"/>
		<path fill="#FFFFFF" d="M328.469,47.419c0.538,0,1.034,0.498,1.034,1.656c0,1.16-0.496,1.659-1.034,1.659
			c-0.54,0-1.035-0.499-1.035-1.659C327.434,47.917,327.929,47.419,328.469,47.419 M328.469,50.28c0.3,0,0.541-0.316,0.541-1.205
			c0-0.885-0.241-1.205-0.541-1.205c-0.302,0-0.543,0.32-0.543,1.205C327.926,49.964,328.167,50.28,328.469,50.28"/>
		<polyline fill="#FFFFFF" points="329.758,47.465 330.325,47.465 331.188,49.994 331.195,49.994 331.195,47.465 331.627,47.465 
			331.627,50.687 331.057,50.687 330.199,48.177 330.188,48.177 330.188,50.687 329.758,50.687 		"/>
		<path fill="#FFFFFF" d="M333.287,49.912h-0.892l-0.186,0.774h-0.477l0.87-3.222h0.522l0.834,3.222h-0.49 M333.187,49.46
			l-0.327-1.505h-0.008l-0.354,1.505H333.187z"/>
		<polyline fill="#FFFFFF" points="334.051,47.465 334.527,47.465 334.527,50.217 335.381,50.217 335.381,50.687 334.051,50.687 		
			"/>
		<path fill="#FFFFFF" d="M337.249,47.419c0.538,0,1.035,0.498,1.035,1.656c0,1.16-0.497,1.659-1.035,1.659
			s-1.035-0.499-1.035-1.659C336.214,47.917,336.711,47.419,337.249,47.419 M337.249,50.28c0.301,0,0.543-0.316,0.543-1.205
			c0-0.885-0.242-1.205-0.543-1.205s-0.543,0.32-0.543,1.205C336.706,49.964,336.948,50.28,337.249,50.28"/>
		<polyline fill="#FFFFFF" points="338.543,47.465 339.857,47.465 339.857,47.937 339.02,47.937 339.02,48.813 339.82,48.813 
			339.82,49.285 339.02,49.285 339.02,50.687 338.543,50.687 		"/>
		<polyline fill="#FFFFFF" points="340.078,47.465 341.392,47.465 341.392,47.937 340.556,47.937 340.556,48.813 341.356,48.813 
			341.356,49.285 340.556,49.285 340.556,50.687 340.078,50.687 		"/>
		<rect x="341.619" y="47.465" fill="#FFFFFF" width="0.476" height="3.222"/>
		<path fill="#FFFFFF" d="M344.115,50.619c-0.097,0.064-0.327,0.116-0.564,0.116c-0.786,0-1.19-0.717-1.19-1.656
			c0-0.945,0.404-1.66,1.178-1.66c0.266,0,0.48,0.087,0.577,0.135l-0.025,0.529c-0.099-0.06-0.25-0.175-0.49-0.175
			c-0.396,0-0.733,0.333-0.733,1.171c0,0.833,0.337,1.166,0.733,1.166c0.229,0,0.38-0.068,0.49-0.167"/>
		<polyline fill="#FFFFFF" points="344.347,47.465 345.71,47.465 345.71,47.937 344.82,47.937 344.82,48.794 345.663,48.794 
			345.663,49.266 344.82,49.266 344.82,50.217 345.747,50.217 345.747,50.687 344.347,50.687 		"/>
		<polyline fill="#FFFFFF" points="346.8,47.465 348.114,47.465 348.114,47.937 347.276,47.937 347.276,48.813 348.077,48.813 
			348.077,49.285 347.276,49.285 347.276,50.687 346.8,50.687 		"/>
		<path fill="#FFFFFF" d="M349.267,47.419c0.538,0,1.035,0.498,1.035,1.656c0,1.16-0.497,1.659-1.035,1.659
			c-0.54,0-1.036-0.499-1.036-1.659C348.23,47.917,348.727,47.419,349.267,47.419 M349.267,50.28c0.3,0,0.542-0.316,0.542-1.205
			c0-0.885-0.242-1.205-0.542-1.205s-0.543,0.32-0.543,1.205C348.724,49.964,348.967,50.28,349.267,50.28"/>
		<path fill="#FFFFFF" d="M350.538,47.465h0.811c0.463,0,0.774,0.257,0.774,0.85c0,0.421-0.212,0.701-0.502,0.756v0.015
			c0.095,0.02,0.205,0.074,0.285,0.375l0.34,1.227h-0.506l-0.258-1.047c-0.062-0.255-0.184-0.339-0.361-0.339h-0.106v1.386h-0.477
			 M351.208,48.868c0.255,0,0.424-0.163,0.424-0.489c0-0.369-0.156-0.461-0.424-0.461h-0.193v0.95H351.208z"/>
		<polyline fill="#FFFFFF" points="353.403,47.936 352.823,47.936 352.823,47.465 354.454,47.465 354.454,47.936 353.88,47.936 
			353.88,50.687 353.403,50.687 		"/>
		<polyline fill="#FFFFFF" points="354.621,47.465 355.098,47.465 355.098,48.775 355.868,48.775 355.868,47.465 356.344,47.465 
			356.344,50.687 355.868,50.687 355.868,49.266 355.098,49.266 355.098,50.687 354.621,50.687 		"/>
		<polyline fill="#FFFFFF" points="356.709,47.465 358.072,47.465 358.072,47.937 357.187,47.937 357.187,48.794 358.028,48.794 
			358.028,49.266 357.187,49.266 357.187,50.217 358.111,50.217 358.111,50.687 356.709,50.687 		"/>
		<path fill="#FFFFFF" d="M350.071,18.52c0.688,0.809,1.885,1.286,2.589,2.098c-0.501-2.399-2.373-4.358-4.588-4.825
			C349.149,16.597,349.381,17.709,350.071,18.52 M323.452,24.6c1.526-3.282,3.805-2.587,4.766-5.714
			c-0.544,0.959-3.029,1.364-4.184,3.822c0.59-1.461,0.294-3.695,1.291-4.901C322.342,19.981,323.613,23.497,323.452,24.6
			 M326.216,32.469c0.274,1.279-0.528,3.123,0.746,4.884c-1.322-1.465-4.123-1.838-5.272-4.07c1.433,5.451,5.153,4.328,6.837,5.514
			C327.143,36.834,328.271,35.529,326.216,32.469 M325.784,35.892c-0.821-3.047,0.642-4.098-0.471-7.021
			c-0.115,1.645-1.226,2.449-0.478,5.459c-1.32-2.551-3.367-3.5-3.96-5.25C320.918,33.863,324.805,34.571,325.784,35.892
			 M331.758,41c-1.145-1.566-0.362-2.449-3.579-5.296c0.682,1.038-0.02,2.346,2.148,4.377c-2.122-1.237-5.049-0.71-6.459-2.362
			C326.289,42.302,330.549,40.429,331.758,41 M347.318,40.081c2.169-2.031,1.467-3.339,2.146-4.377
			c-3.215,2.847-2.437,3.729-3.581,5.296c1.209-0.571,5.47,1.302,7.894-3.281C352.367,39.371,349.438,38.844,347.318,40.081
			 M350.68,37.353c1.276-1.761,0.475-3.604,0.748-4.884c-2.057,3.061-0.927,4.365-2.312,6.327c1.683-1.186,5.404-0.063,6.836-5.514
			C354.807,35.515,352.005,35.888,350.68,37.353 M345.545,41.216c-1.257-0.332-2.551-0.497-3.519-0.519
			c-1.198-0.029-2.274,0.193-3.206,0.536c-0.929-0.343-2.003-0.565-3.204-0.536c-0.965,0.021-2.26,0.187-3.516,0.519
			c-1.934,0.508-3.609,0.903-5.063,0.174c1.396,1.229,3.025,1.662,5.382,1.412c1.959-0.207,3.54-1.176,5.389-1.164
			c0.024,0,0.05,0.003,0.07,0.003c-1.943,0.973-3.045,2.342-3.045,2.342l0.893,0.117c0,0,0.938-1.862,3.094-2.348
			c2.159,0.485,3.097,2.348,3.097,2.348l0.892-0.117c0,0-1.099-1.369-3.046-2.342c0.024,0,0.045-0.003,0.072-0.003
			c1.847-0.012,3.43,0.957,5.39,1.164c2.354,0.25,3.986-0.184,5.381-1.412C349.149,42.119,347.479,41.724,345.545,41.216
			 M325.445,25.567c-0.798,1.512-2.036,1.859-1.904,4.983c-0.67-2.776-2.266-3.808-2.246-5.581c-1.113,4.626,1.859,5.176,2.62,7.115
			C323.802,29.306,325.598,28.746,325.445,25.567 M326.561,21.993c-0.276,0.386-0.474,0.549-1.215,1.151
			c-1.009,0.823-1.816,1.902-2.154,3.48c0.076-1.697-0.984-4.134-0.279-5.911c-2.73,3.809,0.155,6.092,0.258,7.472
			C323.878,25.529,325.5,25.509,326.561,21.993 M354.454,26.625c-0.344-1.578-1.147-2.657-2.158-3.48
			c-0.739-0.603-0.936-0.765-1.213-1.151c1.057,3.516,2.685,3.536,3.388,6.192c0.105-1.38,2.988-3.663,0.26-7.472
			C355.437,22.49,354.377,24.927,354.454,26.625 M356.768,29.08c-0.593,1.75-2.64,2.699-3.961,5.25
			c0.751-3.01-0.36-3.814-0.477-5.459c-1.112,2.922,0.352,3.974-0.474,7.021C352.839,34.571,356.726,33.863,356.768,29.08
			 M352.198,25.567c-0.151,3.179,1.642,3.739,1.53,6.517c0.762-1.938,3.73-2.489,2.62-7.115c0.021,1.773-1.575,2.805-2.244,5.581
			C354.234,27.427,352.997,27.08,352.198,25.567 M327.573,18.52c0.686-0.811,0.918-1.923,1.997-2.727
			c-2.213,0.466-4.085,2.426-4.587,4.825C325.688,19.806,326.885,19.329,327.573,18.52 M349.423,18.886
			c0.965,3.126,3.242,2.432,4.765,5.714c-0.158-1.103,1.11-4.619-1.867-6.793c0.996,1.207,0.699,3.44,1.289,4.901
			C352.454,20.25,349.968,19.846,349.423,18.886 M341.695,20.662c-0.574-0.234-1.182-0.4-1.815-0.49
			c-0.003,0.133-0.005,0.27-0.008,0.402c0.585,0.085,1.146,0.24,1.673,0.456C341.615,20.92,341.666,20.797,341.695,20.662
			 M341.234,16.792l0.12-0.108l-0.23-0.095l-0.61-0.014l-0.159,0.109l-0.357-0.028l-0.004,0.086c0.229,0.013,0.45,0.035,0.627,0.065
			l0.295-0.027L341.234,16.792z M340.061,29.768c0-0.103-0.139-0.204-0.341-0.298l-0.036-0.001
			c-0.002,0.084-0.008,0.491-0.013,0.691C339.921,30.047,340.061,29.928,340.061,29.768 M333.008,22.121
			c0.015-0.083,0.03-0.148,0.054-0.221c-0.078,0.018-0.165,0.027-0.25,0.025L333.008,22.121z M338.833,39.822
			c6.849,0,12.42-5.507,12.42-12.276c0-6.348-4.903-11.587-11.16-12.213c-0.007,0.024-0.01,0.048-0.015,0.071
			c-0.027,0.12-0.046,0.228-0.065,0.322c2.802,0.271,5.325,1.499,7.231,3.346l-1.373,1.354l0.055-0.239l-0.18-0.078l-0.245-0.015
			l0.052-0.156l-0.164-0.555l-0.344-0.369l-1.07-0.56l-0.092,0.097l-0.193,0.057c0.368,0.536,0.567,1.154,0.567,1.779
			c0,0.083-0.003,0.163-0.006,0.241l0.528,0.66l-0.247,0.057l0.163,0.245l-0.471,0.462l-0.187-0.354
			c-0.091,0.248-0.21,0.478-0.354,0.691c0.034,0.032,0.069,0.063,0.105,0.097l-1.44,1.424c-0.091-0.081-0.183-0.161-0.274-0.237
			c-0.139,0.063-0.279,0.122-0.422,0.177c0.042,0.031,0.08,0.06,0.122,0.092l-0.074,0.075l-0.167,0.093l-0.064,0.167l-0.104-0.104
			l-0.305,0.101l0.082,0.131l0.21-0.056l0.139,0.011l0.008-0.073l0.107-0.052l0.032-0.063l0.188-0.051l0.148-0.006
			c0.03,0.024,0.059,0.05,0.087,0.077l-0.57,0.565l-0.044-0.061l-0.598,0.099l-0.134,0.132l-0.132,0.015l0.372-0.351l-0.132-0.068
			l-0.349,0.46l0.104-0.01l-0.007,0.168l0.127,0.048l0.024,0.181l-0.21-0.042l-0.216,0.04l-0.524-0.268c0,0-0.029,1.394-0.044,2.095
			c1.239,0.412,2.554,1.006,2.554,2.57c0,0.685-0.3,1.239-0.891,1.648l0.005,0.001c-0.01,0.007-0.019,0.014-0.026,0.019
			l-0.003-0.001c-0.015,0.009-0.027,0.017-0.04,0.026c-0.501,0.328-1.146,0.502-1.705,0.676c-0.003,0.001-0.018,1.094-0.018,1.094
			c0.891,0.437,1.969,1.071,1.869,2.889c-0.013,0.448-0.187,0.57-0.339,0.61v0.002c-0.52,0.128-1.059,0.211-1.607,0.25
			c-0.003,0.14-0.003,0.275-0.007,0.4c2.392-0.162,4.558-1.161,6.191-2.701l1.441,1.424c-2.16,2.055-5.093,3.318-8.322,3.318
			c-3.208,0-6.126-1.251-8.285-3.284l1.443-1.426c1.621,1.512,3.75,2.495,6.103,2.665c-0.002-0.124-0.005-0.257-0.007-0.398
			c-2.24-0.174-4.267-1.112-5.812-2.549l0.386-0.384l0.528,0.062l0.279-0.298l0.738,0.023l0.109-0.251l-0.027-0.108
			c1.069,0.803,2.358,1.329,3.761,1.474c-0.003-0.157-0.006-0.29-0.01-0.401c-1.549-0.172-2.947-0.832-4.034-1.826l1.443-1.426
			c0.348,0.309,0.741,0.571,1.166,0.774c0.034-0.136,0.083-0.261,0.149-0.373c-0.378-0.183-0.721-0.414-1.03-0.684l1.447-1.43
			c0.228,0.181,0.489,0.325,0.771,0.424c-0.003-0.142-0.007-0.289-0.008-0.43c-0.171-0.074-0.334-0.167-0.479-0.278l0.409-0.404
			c-0.146-0.043-0.287-0.088-0.435-0.137l-0.271,0.27c-0.137-0.152-0.255-0.323-0.348-0.506c-0.248-0.11-0.488-0.234-0.712-0.379
			c-0.89-0.578-1.342-1.395-1.342-2.424c0-0.786,0.227-1.382,0.585-1.844l-1.438-1.422c1.038-0.979,2.369-1.654,3.852-1.875
			c-0.004-0.139-0.007-0.272-0.009-0.401c-1.587,0.226-3.018,0.945-4.127,1.994l-0.244-0.24c-0.053,0.096-0.119,0.218-0.193,0.37
			l0.151,0.152c-1.237,1.305-2.008,3.049-2.039,4.967h-2.041c0.032-2.475,1.031-4.724,2.64-6.392l0.647,0.64
			c0.03,0,0.06,0,0.09-0.003c0.116-0.009,0.245-0.044,0.371-0.105l-0.825-0.815c0.436-0.417,0.912-0.792,1.422-1.123
			c0.038-0.135,0.077-0.253,0.098-0.296c0.026-0.051,0.153-0.22,0.312-0.414c-0.772,0.424-1.484,0.946-2.114,1.55l-1.444-1.425
			c1.892-1.821,4.384-3.032,7.155-3.308c-0.01-0.049-0.018-0.087-0.018-0.087c-0.019-0.093-0.041-0.199-0.061-0.306
			c-6.242,0.642-11.12,5.873-11.12,12.208C326.417,34.315,331.988,39.822,338.833,39.822 M341.515,31.341V31.33l0.003,0.01
			C341.518,31.34,341.516,31.341,341.515,31.341 M347.528,19.355c2.03,2.104,3.286,4.942,3.319,8.066h-2.04
			c-0.02-1.547-0.403-3.009-1.065-4.307l0.021-0.036l0.139,0.073l0.032-0.106l-0.366-0.631l-0.431-0.592l-0.507-0.418
			c-0.173-0.215-0.356-0.423-0.547-0.624L347.528,19.355z M344.928,21.94l0.492,0.021l0.115,0.14l-0.057,0.206l0.68,0.419
			l0.132-0.017l0.873,0.985l0.355-0.123c0.554,1.174,0.87,2.478,0.886,3.851h-2.043c-0.008-0.527-0.074-1.04-0.187-1.534
			l0.092-0.125l0.126-0.63L346.3,24.45l-0.248-0.78l-0.57-0.824l0.139,0.074l0.07-0.07l-0.456-0.306l-0.033,0.101l0.459,0.645
			l0.26,0.529l0.184,0.525l0.059,0.353l0.096,0.593l-0.174,0.013c0,0-0.196-0.364-0.256-0.514l0.092-0.135l-0.174-0.247v-0.246
			l-0.126-0.155l-0.155,0.018c-0.055-0.101-0.112-0.202-0.174-0.301l0.108,0.057l0.033-0.029l-0.061-0.126l0.134-0.075l-0.06-0.074
			l-0.198,0.074l0.072-0.307l-0.117-0.065l-0.104,0.245c-0.223-0.33-0.471-0.642-0.742-0.933L344.928,21.94z M344.521,26.669
			l0.365-0.197l0.372-0.058l0.084-0.18l0.207-0.124l0.08-0.172l0.064-0.298c0.029,0.104,0.06,0.212,0.084,0.32l-0.2,0.582
			l-0.006,0.198l0.286-0.38c0.059,0.346,0.094,0.701,0.102,1.062h-1.789l-0.04-0.153l0.207-0.164l0.04-0.098l0.092-0.067
			l0.242-0.023l0.023-0.108L344.521,26.669z M342.072,25.281l0.18-0.041l-0.006-0.044l-0.184-0.121l0.063-0.38l0.218-0.215
			c0.137,0.153,0.263,0.315,0.38,0.486l-0.077,0.234l-0.2-0.141l-0.151,0.042l0.074,0.14h0.074l-0.08,0.205l-0.06-0.082
			L342.072,25.281z M342.852,31.981l-0.441-0.125l-0.132,0.049l-0.248-0.189l-0.235-0.083c0.114-0.083,0.227-0.168,0.335-0.26
			l0.362,0.254l0.277,0.144l0.14,0.135L342.852,31.981z M342.628,24.198l1.442-1.428c0.34,0.362,0.638,0.76,0.896,1.186
			l-0.183,0.049l0.012,0.319l0.54,0.337c0.134,0.292,0.247,0.592,0.34,0.903l-0.097,0.136l-0.194,0.123l-0.05,0.296l-0.133,0.074
			l-0.112,0.13l-0.113-0.042l-0.198-0.008l0.116-0.156l0.082-0.402l0.136-0.082l-0.39-0.369l-0.294,0.098l-0.064,0.271l-0.184,0.198
			l-0.19-0.157l-0.067-0.166l0.106-0.066l0.064,0.108l0.087-0.031l-0.039-0.183l-0.125-0.007l-0.01,0.074l-0.083,0.017l-0.449-0.517
			l-0.153-0.115l0.06-0.062l0.136-0.048l-0.127-0.047c0,0-0.156,0.035-0.174,0.035l0.09,0.112l-0.23-0.005
			C342.942,24.571,342.791,24.378,342.628,24.198 M343.361,31.792l-0.195-0.193l0.149-0.194l0.19-0.379l-0.073-0.106l0.125-0.28
			l-0.013-0.253l-0.077-0.263l-0.178-0.063l-0.064,0.149l-0.108-0.029c0.153-0.241,0.315-0.469,0.429-0.736l0.183-0.079l0.102-0.137
			l0.05,0.058l0.126-0.149l-0.102-0.124l0.092-0.023l0.167,0.066l0.316,0.008l0.19-0.099l0.496-0.132l-0.092-0.164l-0.033-0.197
			l0.27,0.116l0.097-0.059l-0.048-0.206l-0.328,0.123l-0.361-0.072l-0.274-0.556h1.56c-0.069,1.776-0.802,3.384-1.969,4.587
			l-0.215-0.21l0.093-0.285l-0.165-0.622L343.361,31.792z M343.639,35.727l0.193-0.405l-0.076-0.181l0.282-0.246v-0.147
			l-0.242-0.151l0.2-0.392l0.3-0.385l-0.3-0.321h-0.223l-0.142-0.224c0.119-0.097,0.238-0.198,0.353-0.303l1.445,1.428
			C344.887,34.907,344.289,35.355,343.639,35.727 M345.438,33.844l0.158-0.176l-0.149-0.78l-0.104-0.042l0.062-0.132l-0.339-0.107
			l-0.067,0.281l-0.032,0.354l-0.074,0.065l-0.621-0.617c1.236-1.274,2.02-2.984,2.088-4.869h2.043
			c-0.07,2.441-1.079,4.655-2.688,6.297L345.438,33.844z M345.997,34.399c1.683-1.715,2.738-4.027,2.808-6.579h2.039
			c-0.07,3.107-1.354,5.925-3.402,8.004L345.997,34.399z M333.717,32.443c-0.147-0.15-0.29-0.309-0.422-0.472l0.062-0.51
			l-0.215-0.49l-0.052-0.766l-0.241-0.464l0.052-0.291l-0.294-0.551l-0.253-0.125l0.104-0.294l-0.108-0.233l0.106-0.266h0.279
			l0.098-0.161h0.474l0.076,0.138l-0.089,0.479l-0.059,0.083l0.181,0.385l-0.118,0.064l-0.081-0.102l-0.035,0.038l0.08,0.229
			l0.142,0.269l0.064-0.007l0.039-0.24l-0.068-0.087l-0.01-0.162l-0.018-0.333l0.099-0.593l-0.097-0.16h0.342
			c0.067,1.237,0.59,2.355,1.405,3.198L333.717,32.443z M332.366,28.5l-0.191,0.298h-0.332l-0.025-0.019
			c-0.055-0.313-0.094-0.633-0.104-0.959h0.614l-0.147,0.486L332.366,28.5z M333.038,27.116l0.039-0.403l0.24-0.138l0.434,0.075
			l0.064,0.078c-0.039,0.228-0.06,0.458-0.066,0.694h-0.488L333.038,27.116z M335.11,28.623l0.101-0.05l0.268,0.198l-0.117,0.093
			l0.304,0.198l-0.021-0.211l0.159-0.263l0.167,0.177l0.172,0.243l-0.311,0.068l0.143,0.276l0.216-0.113l-0.027-0.088l0.159-0.107
			l0.094-0.44c0.118,0.261,0.275,0.5,0.471,0.708l-1.444,1.425c-0.687-0.715-1.147-1.644-1.263-2.677l0.296,0.311l0.277-0.004
			L335.11,28.623z M333.631,22.737l1.441,1.424c-0.3,0.327-0.557,0.693-0.765,1.091l-0.101-0.007l-0.201,0.063l-0.071-0.006
			l-0.216,0.198l0.274-0.043l0.244-0.062c-0.016,0.03-0.03,0.062-0.043,0.092l-0.215,0.132h-0.102l-0.317,0.24l-0.305-0.027
			l-0.446,0.817l0.091,0.164l-0.242,0.265l-0.037,0.343h-0.912C331.739,25.612,332.467,23.969,333.631,22.737 M331.768,33.497
			l0.459,0.264l0.094,0.062l-0.331,0.329c-0.156-0.158-0.305-0.322-0.449-0.49L331.768,33.497z M331.311,27.82
			c0.007,0.196,0.023,0.39,0.047,0.583l-0.251,0.056l-0.05,0.251l-0.522,0.652l0.014,0.9l-0.534,0.175l-0.291,0.003
			c-0.271-0.831-0.429-1.71-0.454-2.622H331.311z M329.295,30.428l-0.121-0.022l-0.112-0.125l-0.572-0.049l0.176,0.239l-0.528-0.101
			l0.139-0.125l-0.129-0.126l-0.384,0.164l-0.137,0.252l0.053,0.573l0.44,1.043l0.213,0.326l0.12,0.044l-0.333-0.625l-0.073-0.318
			l0.074-0.079l-0.047-0.175l0.202,0.027l0.307,0.46l0.077,0.03l-0.009-0.334l0.124,0.071l0.029,0.183l0.322,0.085l0.136-0.096
			l0.048,0.032l-0.006,0.246l0.142,0.174l0.174,0.038l0.377,0.633l0.229,0.063l0.074-0.296c0.398,0.651,0.871,1.255,1.405,1.796
			l-1.44,1.425c-2.068-2.085-3.369-4.914-3.44-8.039h2.042C328.888,28.726,329.039,29.6,329.295,30.428 M330.177,19.32l1.44,1.426
			c-1.679,1.742-2.724,4.09-2.755,6.675h-2.041C326.854,24.28,328.127,21.429,330.177,19.32 M344.947,18.585l-0.125-0.197
			l-0.266-0.132l-0.208,0.156l0.266,0.14l0.3,0.213L344.947,18.585z M343.712,24.276l0.007,0.157l0.354-0.105l0.106-0.214
			l-0.242-0.315l0.128-0.193l0.331,0.233l0.061-0.048l-0.064-0.047l-0.076-0.14l0.137-0.078l-0.133-0.17l-0.309,0.155l-0.109,0.184
			l-0.061,0.169l0.135,0.225l-0.05,0.106L343.712,24.276z M328.957,33.326l0.024-0.094l-0.184-0.393l-0.22-0.081L328.957,33.326z
			 M337.299,25.743c0,0.341,0.209,0.577,0.588,0.784c0,0-0.001-0.057-0.004-0.15l-0.238-0.236l0.127-0.226l0.103-0.03
			c-0.008-0.394-0.014-0.836-0.016-0.897l-0.021,0.001C337.489,25.179,337.299,25.412,337.299,25.743"/>
		<path fill="#FFFFFF" d="M339.578,34.486c0.641,0.318,1.233,0.762,1.479,1.602c0.109-1.389-0.68-1.991-1.461-2.397
			C339.599,33.692,339.578,34.486,339.578,34.486"/>
		<path fill="#FFFFFF" d="M343.835,20.388c0-1.262-0.926-2.662-3.197-3.156c-0.168-0.036-0.422-0.063-0.689-0.08
			c-0.007,0.191-0.017,0.626-0.017,0.626c-0.005,0.137-0.013,0.642-0.018,0.751c0.211,0.018,0.366,0.044,0.437,0.062
			c1.318,0.31,1.792,1.059,1.792,1.797c0,1.198-1.037,1.649-2.311,1.991c-0.139,0.038-0.28,0.073-0.424,0.108
			c-0.386,0.096-0.785,0.187-1.175,0.291c-0.142,0.039-0.28,0.077-0.419,0.119c-1.411,0.426-2.626,1.097-2.626,2.822
			c0,1.708,1.384,2.347,2.735,2.757c-0.01-0.491-0.02-0.985-0.025-1.48c-0.6-0.277-1.021-0.64-1.021-1.255
			c0-0.598,0.386-0.958,0.971-1.221c0.13-0.058,0.268-0.111,0.416-0.161c0.338-0.113,0.713-0.209,1.113-0.304
			c0.137-0.032,0.276-0.065,0.419-0.099C341.701,23.5,343.835,22.911,343.835,20.388"/>
		<path fill="#FFFFFF" d="M336.996,32.435c0.004,0.69,0.516,1.067,1.031,1.35c-0.003-0.114-0.024-1.184-0.025-1.201
			c0.013-0.213,0.222-0.341,0.39-0.419c0.248-0.117,0.5-0.201,0.818-0.309c0.151-0.053,0.283-0.103,0.429-0.147
			c1.033-0.308,2.226-0.7,2.226-1.94c0-1.245-1.023-1.753-2.144-2.136c-0.008,0.396-0.021,0.973-0.024,1.374
			c0.471,0.184,0.783,0.406,0.783,0.762c0,0.442-0.479,0.7-0.821,0.83c-0.142,0.052-0.356,0.125-0.418,0.143
			c-0.271,0.085-0.568,0.182-0.846,0.282c-0.145,0.054-0.285,0.113-0.419,0.179C337.492,31.449,336.991,31.808,336.996,32.435"/>
		<path fill="#FFFFFF" d="M337.695,17.349c-0.687,0.195-1.093,0.451-1.244,0.501c-0.446,0.146-1.075,0.17-1.721,0.87
			c-0.116,0.124-0.396,0.474-0.597,0.758c-0.193,0.278-0.202,0.727-0.348,0.967c-0.206,0.348-0.158,0.548-0.158,0.548l0.003,0.011
			c-0.003,0.042-0.044,0.227-0.236,0.438c-0.216,0.236-0.501,0.368-0.84,0.315c0.294,0.144,0.703-0.059,0.703-0.059
			s-0.077,0.222-0.154,0.581c0.331-0.742,0.635-1.013,0.728-1.089c0.146,0.034,0.438,0.02,0.983-0.29
			c0.622-0.352,1.554-0.927,1.815-1.288c0.285-0.392,0.676-0.65,1.099-0.818C337.718,18.248,337.705,17.76,337.695,17.349
			 M334.991,19.769l-0.32,0.068l0.472-0.721l0.449,0.013L334.991,19.769z"/>
		<path fill="#FFFFFF" d="M338.973,32.35c-0.059,0.019-0.217,0.087-0.311,0.119c-0.104,0.039-0.235,0.089-0.235,0.126
			c0,0.011,0.097,5.349,0.097,5.467c0,1.101,0.569,1.106,0.569,0c0-0.076,0.114-5.789,0.114-5.789S339.071,32.315,338.973,32.35"/>
		<path fill="#FFFFFF" d="M338.388,30.589c0.178-0.062,0.352-0.114,0.517-0.165c0.122-0.037,0.238-0.072,0.341-0.106
			c0.007-0.336,0.105-4.984,0.121-5.83c-0.42,0.103-0.79,0.203-1.091,0.311C338.289,25.434,338.375,30.08,338.388,30.589"/>
		<path fill="#FFFFFF" d="M338.858,12.787c-1.592,0-0.915,2.334-0.789,3.095c0.007,0.035,0.132,5.271,0.154,6.473
			c0.242-0.063,0.484-0.121,0.713-0.177c0.169-0.042,0.328-0.081,0.482-0.119c0.022-1.157,0.141-6.154,0.145-6.186
			C339.659,15.058,340.494,12.787,338.858,12.787"/>
		<polyline fill="#FFFFFF" points="364.866,17.208 364.845,17.208 363.497,24.482 361.646,24.482 359.92,15.604 361.387,15.604 
			362.588,22.448 362.611,22.448 363.899,15.604 365.811,15.604 367.087,22.448 367.109,22.448 368.359,15.604 369.781,15.604 
			368.017,24.482 366.145,24.482 		"/>
		<path fill="#FFFFFF" d="M372.394,17.83c1.284,0,2.77,0.7,2.77,3.371c0,2.748-1.485,3.383-2.77,3.383
			c-1.288,0-2.78-0.635-2.78-3.383C369.613,18.53,371.105,17.83,372.394,17.83 M372.394,23.464c0.979,0,1.201-1.171,1.201-2.264
			c0-1.094-0.222-2.251-1.201-2.251c-0.98,0-1.214,1.157-1.214,2.251C371.18,22.293,371.413,23.464,372.394,23.464"/>
		<path fill="#FFFFFF" d="M376.105,19.013c0-0.407-0.015-0.789-0.05-1.082h1.373c0.013,0.394,0.048,0.801,0.048,1.197h0.028
			c0.183-0.51,0.661-1.298,1.603-1.298c0.098,0,0.171,0.025,0.259,0.039v1.476c-0.135-0.039-0.271-0.064-0.43-0.064
			c-0.624,0-1.313,0.395-1.313,1.615v3.588h-1.518"/>
		<rect x="380.323" y="14.943" fill="#FFFFFF" width="1.518" height="9.54"/>
		<path fill="#FFFFFF" d="M388.184,14.942v8.42c0,0.471,0.016,0.878,0.05,1.12h-1.42c-0.027-0.191-0.05-0.573-0.05-1.018h-0.038
			c-0.246,0.56-0.698,1.119-1.678,1.119c-1.569,0-2.219-1.552-2.219-3.37c0-2.137,0.822-3.384,2.181-3.384
			c0.907,0,1.41,0.534,1.63,1.043h0.025v-3.931 M385.464,23.426c0.894,0,1.201-1.006,1.201-2.238c0-1.272-0.345-2.201-1.18-2.201
			c-0.843,0-1.138,0.853-1.138,2.164C384.348,22.662,384.581,23.426,385.464,23.426"/>
		<polyline fill="#FFFFFF" points="393.189,15.604 394.759,15.604 394.759,19.216 397.297,19.216 397.297,15.604 398.863,15.604 
			398.863,24.482 397.297,24.482 397.297,20.565 394.759,20.565 394.759,24.482 393.189,24.482 		"/>
		<path fill="#FFFFFF" d="M404.683,24.164c-0.314,0.14-0.979,0.419-1.884,0.419c-2.037,0-2.917-1.514-2.917-3.281
			c0-1.958,0.991-3.473,2.598-3.473c1.355,0,2.523,0.826,2.523,3.498v0.306h-3.652c0,1.12,0.43,1.792,1.606,1.792
			c0.932,0,1.372-0.292,1.654-0.508 M403.533,20.641c0-1.158-0.369-1.743-1.054-1.743c-0.797,0-1.129,0.876-1.129,1.743H403.533z"/>
		<path fill="#FFFFFF" d="M406.364,18.313c0.43-0.203,1.029-0.483,1.997-0.483c1.958,0,2.413,0.993,2.413,2.634v2.861
			c0,0.472,0.052,0.903,0.087,1.158h-1.37c-0.076-0.255-0.086-0.573-0.086-0.891h-0.026c-0.38,0.533-0.86,0.992-1.766,0.992
			c-0.98,0-1.888-0.699-1.888-1.919c0-1.782,1.397-2.227,3.323-2.227h0.305v-0.243c0-0.648-0.305-1.246-1.174-1.246
			c-0.764,0-1.437,0.381-1.729,0.636 M409.354,21.276h-0.135c-1.299,0-2.07,0.281-2.07,1.233c0,0.6,0.377,1.006,0.968,1.006
			c0.908,0,1.237-0.7,1.237-1.87V21.276z"/>
		<rect x="412.27" y="14.943" fill="#FFFFFF" width="1.521" height="9.54"/>
		<path fill="#FFFFFF" d="M415.689,16.583l1.519-0.484v1.832h1.261v1.158h-1.261v3.396c0,0.699,0.246,0.903,0.686,0.903
			c0.271,0,0.466-0.076,0.575-0.141v1.12c-0.231,0.115-0.563,0.216-1.015,0.216c-1.128,0-1.765-0.535-1.765-1.908v-3.587h-1.006
			v-1.158h1.006"/>
		<path fill="#FFFFFF" d="M419.256,14.943h1.52v3.828h0.036c0.27-0.407,0.626-0.941,1.568-0.941c1.432,0,1.862,1.107,1.862,2.429
			v4.224h-1.521v-3.931c0-1.005-0.245-1.424-0.871-1.424c-0.797,0-1.075,0.699-1.075,1.539v3.816h-1.52"/>
		<path fill="#FFFFFF" d="M363.263,26.845c1.778,0,3.408,1.375,3.408,4.566c0,3.191-1.63,4.565-3.408,4.565
			c-1.777,0-3.407-1.374-3.407-4.565C359.855,28.219,361.485,26.845,363.263,26.845 M363.263,34.731c0.995,0,1.79-0.88,1.79-3.321
			c0-2.441-0.795-3.319-1.79-3.319c-0.991,0-1.79,0.877-1.79,3.319C361.473,33.852,362.271,34.731,363.263,34.731"/>
		<path fill="#FFFFFF" d="M367.693,30.379c0-0.407-0.014-0.788-0.049-1.081h1.373c0.011,0.396,0.048,0.802,0.048,1.196h0.025
			c0.185-0.508,0.661-1.296,1.605-1.296c0.097,0,0.171,0.024,0.256,0.038v1.477c-0.133-0.04-0.269-0.063-0.428-0.063
			c-0.626,0-1.313,0.393-1.313,1.614v3.587h-1.518"/>
		<path fill="#FFFFFF" d="M371.895,36.868c0.358,0.203,1.067,0.558,1.863,0.558c1.435,0,1.666-1.028,1.666-2.06v-0.622h-0.021
			c-0.248,0.509-0.676,1.106-1.667,1.106c-0.883,0-2.208-0.61-2.208-3.257c0-1.806,0.626-3.396,2.278-3.396
			c0.921,0,1.349,0.548,1.67,1.119h0.049c0-0.344,0.035-0.673,0.049-1.017h1.372c-0.025,0.343-0.05,0.687-0.05,1.029v4.835
			c0,2.044-0.602,3.508-2.917,3.508c-1.003,0-1.8-0.267-2.17-0.406 M374.257,34.692c0.96,0,1.337-0.712,1.337-2.2
			c0-1.374-0.501-2.113-1.224-2.099c-0.8,0.012-1.104,0.774-1.104,2.112C373.266,34.043,373.743,34.692,374.257,34.692"/>
		<path fill="#FFFFFF" d="M378.54,29.682c0.43-0.205,1.028-0.484,1.995-0.484c1.963,0,2.417,0.993,2.417,2.633v2.862
			c0,0.471,0.048,0.902,0.087,1.157h-1.374c-0.076-0.255-0.086-0.572-0.086-0.89h-0.026c-0.379,0.533-0.857,0.991-1.764,0.991
			c-0.98,0-1.888-0.698-1.888-1.919c0-1.783,1.398-2.228,3.324-2.228h0.304v-0.241c0-0.648-0.304-1.245-1.175-1.245
			c-0.762,0-1.435,0.381-1.729,0.636 M381.529,32.645h-0.135c-1.299,0-2.071,0.28-2.071,1.234c0,0.598,0.381,1.004,0.967,1.004
			c0.909,0,1.239-0.699,1.239-1.869V32.645z"/>
		<path fill="#FFFFFF" d="M384.483,30.379c0-0.407-0.013-0.788-0.05-1.081h1.423c0.014,0.333,0.049,0.674,0.049,1.005h0.035h-0.014
			c0.223-0.393,0.653-1.105,1.683-1.105c1.432,0,1.859,1.105,1.859,2.429v4.223h-1.519v-3.93c0-1.004-0.244-1.425-0.869-1.425
			c-0.797,0-1.08,0.7-1.08,1.541v3.815h-1.518"/>
		<path fill="#FFFFFF" d="M390.841,26.515h1.568v1.552h-1.568 M390.864,29.298h1.518v6.551h-1.518V29.298z"/>
		<polyline fill="#FFFFFF" points="393.798,34.489 396.495,30.494 393.884,30.494 393.884,29.298 398.012,29.298 398.012,30.649 
			395.366,34.654 398.1,34.654 398.1,35.85 393.798,35.85 		"/>
		<path fill="#FFFFFF" d="M399.54,29.682c0.426-0.205,1.028-0.484,1.995-0.484c1.96,0,2.413,0.993,2.413,2.633v2.862
			c0,0.471,0.049,0.902,0.087,1.157h-1.371c-0.076-0.255-0.086-0.572-0.086-0.89h-0.027c-0.378,0.533-0.858,0.991-1.764,0.991
			c-0.979,0-1.888-0.698-1.888-1.919c0-1.783,1.397-2.228,3.322-2.228h0.306v-0.241c0-0.648-0.306-1.245-1.177-1.245
			c-0.761,0-1.434,0.381-1.727,0.636 M402.527,32.645h-0.135c-1.299,0-2.069,0.28-2.069,1.234c0,0.598,0.377,1.004,0.967,1.004
			c0.907,0,1.237-0.699,1.237-1.869V32.645z"/>
		<path fill="#FFFFFF" d="M405.695,27.952l1.52-0.485V29.3h1.261v1.156h-1.261v3.397c0,0.7,0.246,0.9,0.688,0.9
			c0.27,0,0.465-0.074,0.573-0.138v1.12c-0.23,0.114-0.56,0.215-1.015,0.215c-1.126,0-1.766-0.533-1.766-1.908v-3.586h-1.005V29.3
			h1.005"/>
		<path fill="#FFFFFF" d="M409.524,26.515h1.566v1.552h-1.566 M409.718,29.298h1.518v6.551h-1.518V29.298z"/>
		<path fill="#FFFFFF" d="M415.182,29.198c1.286,0,2.771,0.7,2.771,3.371c0,2.748-1.484,3.382-2.771,3.382
			c-1.287,0-2.782-0.635-2.782-3.382C412.399,29.898,413.895,29.198,415.182,29.198 M415.182,34.833
			c0.979,0,1.202-1.172,1.202-2.264c0-1.094-0.223-2.251-1.202-2.251c-0.981,0-1.212,1.157-1.212,2.251
			C413.97,33.661,414.2,34.833,415.182,34.833"/>
		<path fill="#FFFFFF" d="M419.276,30.379c0-0.407-0.016-0.788-0.052-1.081h1.421c0.014,0.333,0.05,0.674,0.05,1.005h0.037h-0.013
			c0.221-0.393,0.651-1.105,1.68-1.105c1.432,0,1.862,1.105,1.862,2.429v4.223h-1.519v-3.93c0-1.004-0.247-1.425-0.873-1.425
			c-0.795,0-1.075,0.7-1.075,1.541v3.815h-1.519"/>
		<path fill="#FFFFFF" d="M241.834,14.718h2.541c1.833,0,2.787,1.09,2.787,2.887c0,1.798-0.953,2.901-2.787,2.901h-0.914v3.717
			h-1.626 M244.073,19.171c1.016,0,1.462-0.532,1.462-1.566c0-1.035-0.446-1.552-1.462-1.552h-0.612v3.119H244.073z"/>
		<path fill="#FFFFFF" d="M248.027,17.619c0.445-0.218,1.068-0.518,2.073-0.518c2.033,0,2.503,1.063,2.503,2.819v3.063
			c0,0.505,0.052,0.968,0.089,1.24h-1.426c-0.074-0.272-0.085-0.613-0.085-0.954h-0.029c-0.394,0.572-0.887,1.062-1.828,1.062
			c-1.016,0-1.96-0.748-1.96-2.055c0-1.907,1.452-2.383,3.447-2.383h0.317v-0.26c0-0.694-0.317-1.333-1.218-1.333
			c-0.791,0-1.489,0.409-1.795,0.681 M251.128,20.792h-0.139c-1.348,0-2.149,0.299-2.149,1.321c0,0.64,0.393,1.076,1.005,1.076
			c0.941,0,1.283-0.75,1.283-2.002V20.792z"/>
		<path fill="#FFFFFF" d="M254.194,18.368c0-0.436-0.015-0.845-0.053-1.158h1.477c0.013,0.354,0.05,0.723,0.05,1.076h0.038h-0.012
			c0.228-0.423,0.674-1.185,1.742-1.185c1.487,0,1.933,1.185,1.933,2.602v4.521h-1.578v-4.208c0-1.076-0.255-1.524-0.902-1.524
			c-0.826,0-1.12,0.749-1.12,1.646v4.085h-1.575"/>
		<path fill="#FFFFFF" d="M268.332,21.936h-3.051l-0.636,2.288h-1.629l2.977-9.505h1.779l2.861,9.505h-1.679 M267.989,20.601
			l-1.119-4.439h-0.026l-1.221,4.439H267.989z"/>
		<path fill="#FFFFFF" d="M271.512,18.354c0-0.504-0.025-0.885-0.052-1.145h1.577c0.015,0.368,0.051,0.737,0.051,1.104h0.025
			c0.242-0.545,0.751-1.213,1.652-1.213c1.105,0,1.463,0.736,1.654,1.118c0.317-0.492,0.789-1.118,1.756-1.118
			c1.424,0,1.881,1.09,1.881,2.792v4.331h-1.577v-4.426c0-0.871-0.252-1.307-0.837-1.307c-0.701,0-1.068,0.708-1.068,1.483v4.25
			h-1.576v-4.426c0-0.871-0.257-1.307-0.841-1.307c-0.699,0-1.069,0.708-1.069,1.483v4.25h-1.576"/>
		<path fill="#FFFFFF" d="M286.377,23.883c-0.333,0.149-1.019,0.448-1.96,0.448c-2.11,0-3.027-1.62-3.027-3.512
			c0-2.098,1.029-3.718,2.697-3.718c1.411,0,2.618,0.885,2.618,3.745v0.326h-3.79c0,1.199,0.445,1.92,1.667,1.92
			c0.968,0,1.424-0.313,1.717-0.545 M285.181,20.11c0-1.24-0.38-1.865-1.093-1.865c-0.827,0-1.172,0.938-1.172,1.865H285.181z"/>
		<path fill="#FFFFFF" d="M288.104,18.368c0-0.436-0.013-0.845-0.052-1.158h1.425c0.015,0.423,0.052,0.858,0.052,1.281h0.025
			c0.19-0.544,0.687-1.39,1.666-1.39c0.101,0,0.178,0.027,0.265,0.041v1.58c-0.139-0.042-0.277-0.069-0.443-0.069
			c-0.649,0-1.361,0.423-1.361,1.729v3.84h-1.576"/>
		<path fill="#FFFFFF" d="M292.785,14.227h1.625v1.662h-1.625 M292.809,17.21h1.577v7.013h-1.577V17.21z"/>
		<path fill="#FFFFFF" d="M300.54,24.045c-0.372,0.149-0.918,0.286-1.555,0.286c-2.161,0-3.076-1.62-3.076-3.609
			c0-2.001,0.967-3.622,3.166-3.622c0.496,0,1.081,0.164,1.371,0.286l-0.083,1.334c-0.282-0.149-0.677-0.341-1.108-0.341
			c-1.196,0-1.718,0.857-1.718,2.356c0,1.307,0.583,2.315,1.794,2.315c0.381,0,0.903-0.191,1.115-0.341"/>
		<path fill="#FFFFFF" d="M301.952,17.619c0.441-0.218,1.066-0.518,2.068-0.518c2.037,0,2.508,1.063,2.508,2.819v3.063
			c0,0.505,0.048,0.968,0.087,1.24h-1.425c-0.076-0.272-0.087-0.613-0.087-0.954h-0.025c-0.396,0.572-0.891,1.062-1.831,1.062
			c-1.018,0-1.959-0.748-1.959-2.055c0-1.907,1.45-2.383,3.446-2.383h0.318v-0.26c0-0.694-0.318-1.333-1.223-1.333
			c-0.787,0-1.485,0.409-1.791,0.681 M305.053,20.792h-0.14c-1.347,0-2.149,0.299-2.149,1.321c0,0.64,0.394,1.076,1.006,1.076
			c0.94,0,1.283-0.75,1.283-2.002V20.792L305.053,20.792z"/>
		<path fill="#FFFFFF" d="M308.116,18.368c0-0.436-0.014-0.845-0.051-1.158h1.477c0.013,0.354,0.051,0.723,0.051,1.076h0.039h-0.014
			c0.229-0.423,0.673-1.185,1.74-1.185c1.487,0,1.935,1.185,1.935,2.602v4.521h-1.576v-4.208c0-1.076-0.256-1.524-0.902-1.524
			c-0.826,0-1.121,0.749-1.121,1.646v4.085h-1.577"/>
		<polyline fill="#FFFFFF" points="241.91,26.662 243.538,26.662 243.538,30.53 246.169,30.53 246.169,26.662 247.798,26.662 
			247.798,36.167 246.169,36.167 246.169,31.972 243.538,31.972 243.538,36.167 241.91,36.167 		"/>
		<path fill="#FFFFFF" d="M254.384,35.827c-0.332,0.148-1.02,0.447-1.959,0.447c-2.11,0-3.027-1.619-3.027-3.511
			c0-2.098,1.032-3.718,2.698-3.718c1.41,0,2.617,0.886,2.617,3.745v0.328h-3.789c0,1.197,0.445,1.919,1.665,1.919
			c0.968,0,1.424-0.313,1.718-0.544 M253.188,32.054c0-1.239-0.381-1.866-1.092-1.866c-0.827,0-1.172,0.94-1.172,1.866H253.188z"/>
		<path fill="#FFFFFF" d="M256.38,29.563c0.444-0.217,1.068-0.517,2.072-0.517c2.033,0,2.505,1.062,2.505,2.819v3.062
			c0,0.506,0.049,0.967,0.088,1.241h-1.426c-0.075-0.274-0.086-0.614-0.086-0.954h-0.028c-0.393,0.572-0.888,1.062-1.829,1.062
			c-1.017,0-1.96-0.747-1.96-2.055c0-1.907,1.452-2.385,3.446-2.385h0.318v-0.258c0-0.693-0.318-1.334-1.218-1.334
			c-0.79,0-1.488,0.409-1.795,0.682 M259.48,32.736h-0.138c-1.348,0-2.149,0.3-2.149,1.321c0,0.64,0.394,1.076,1.005,1.076
			c0.941,0,1.282-0.749,1.282-2.003V32.736L259.48,32.736z"/>
		<rect x="262.7" y="25.954" fill="#FFFFFF" width="1.576" height="10.213"/>
		<path fill="#FFFFFF" d="M266.564,27.71l1.576-0.517v1.961h1.31v1.239h-1.31v3.635c0,0.751,0.256,0.967,0.713,0.967
			c0.28,0,0.483-0.08,0.597-0.148v1.199c-0.24,0.121-0.584,0.23-1.054,0.23c-1.171,0-1.832-0.572-1.832-2.043v-3.84h-1.045v-1.239
			h1.045"/>
		<path fill="#FFFFFF" d="M270.583,25.955h1.577v4.098h0.037c0.282-0.435,0.649-1.007,1.628-1.007c1.488,0,1.934,1.185,1.934,2.6
			v4.523h-1.578V31.96c0-1.075-0.254-1.525-0.902-1.525c-0.825,0-1.119,0.749-1.119,1.648v4.086h-1.577"/>
		<path fill="#FFFFFF" d="M245.09,38.472c1.841,0,3.532,1.471,3.532,4.89c0,3.417-1.691,4.888-3.532,4.888
			c-1.845,0-3.536-1.471-3.536-4.888C241.554,39.942,243.245,38.472,245.09,38.472 M245.09,46.914c1.028,0,1.854-0.938,1.854-3.553
			c0-2.616-0.826-3.555-1.854-3.555c-1.031,0-1.858,0.938-1.858,3.555C243.231,45.976,244.059,46.914,245.09,46.914"/>
		<path fill="#FFFFFF" d="M250.099,42.257c0-0.436-0.015-0.845-0.053-1.157h1.426c0.013,0.422,0.051,0.858,0.051,1.279h0.025
			c0.189-0.545,0.687-1.389,1.667-1.389c0.099,0,0.177,0.028,0.265,0.041v1.579c-0.138-0.04-0.279-0.067-0.443-0.067
			c-0.649,0-1.362,0.423-1.362,1.729v3.841h-1.575"/>
		<path fill="#FFFFFF" d="M254.73,49.201c0.366,0.218,1.105,0.6,1.932,0.6c1.487,0,1.729-1.103,1.729-2.204v-0.668h-0.026
			c-0.253,0.543-0.698,1.185-1.729,1.185c-0.914,0-2.29-0.653-2.29-3.485c0-1.935,0.649-3.637,2.367-3.637
			c0.954,0,1.398,0.585,1.729,1.197h0.051c0-0.367,0.039-0.722,0.05-1.089h1.427c-0.029,0.367-0.053,0.734-0.053,1.103v5.176
			c0,2.19-0.624,3.758-3.025,3.758c-1.045,0-1.871-0.286-2.251-0.436 M257.005,46.874c0.993,0,1.386-0.764,1.386-2.354
			c0-1.473-0.522-2.263-1.272-2.25c-0.826,0.015-1.143,0.831-1.143,2.262C255.975,46.178,256.471,46.874,257.005,46.874"/>
		<path fill="#FFFFFF" d="M261.799,41.508c0.444-0.217,1.068-0.517,2.072-0.517c2.034,0,2.506,1.063,2.506,2.818v3.063
			c0,0.505,0.049,0.969,0.087,1.239h-1.424c-0.076-0.271-0.088-0.612-0.088-0.953h-0.026c-0.394,0.572-0.889,1.063-1.83,1.063
			c-1.017,0-1.959-0.75-1.959-2.056c0-1.906,1.453-2.384,3.445-2.384h0.318v-0.26c0-0.693-0.318-1.334-1.218-1.334
			c-0.789,0-1.488,0.41-1.796,0.681 M264.9,44.68h-0.139c-1.346,0-2.15,0.301-2.15,1.321c0,0.641,0.394,1.077,1.006,1.077
			c0.941,0,1.282-0.75,1.282-2.004V44.68z"/>
		<path fill="#FFFFFF" d="M267.966,42.257c0-0.436-0.015-0.845-0.053-1.157h1.477c0.013,0.354,0.051,0.722,0.051,1.077h0.038h-0.013
			c0.229-0.424,0.674-1.187,1.741-1.187c1.489,0,1.935,1.187,1.935,2.601v4.521h-1.578v-4.205c0-1.077-0.254-1.528-0.901-1.528
			c-0.826,0-1.12,0.751-1.12,1.648v4.085h-1.576"/>
		<path fill="#FFFFFF" d="M274.818,38.116h1.627v1.664h-1.627 M274.843,41.1h1.579v7.013h-1.579V41.1z"/>
		<polyline fill="#FFFFFF" points="277.769,46.656 280.565,42.379 277.858,42.379 277.858,41.1 282.142,41.1 282.142,42.543 
			279.396,46.833 282.231,46.833 282.231,48.112 277.769,48.112 		"/>
		<path fill="#FFFFFF" d="M283.745,41.508c0.444-0.217,1.068-0.517,2.07-0.517c2.037,0,2.508,1.063,2.508,2.818v3.063
			c0,0.505,0.048,0.969,0.086,1.239h-1.424c-0.077-0.271-0.087-0.612-0.087-0.953h-0.026c-0.396,0.572-0.889,1.063-1.83,1.063
			c-1.017,0-1.958-0.75-1.958-2.056c0-1.906,1.45-2.384,3.444-2.384h0.319v-0.26c0-0.693-0.319-1.334-1.222-1.334
			c-0.788,0-1.485,0.41-1.793,0.681 M286.847,44.68h-0.139c-1.349,0-2.149,0.301-2.149,1.321c0,0.641,0.393,1.077,1.005,1.077
			c0.941,0,1.283-0.75,1.283-2.004V44.68L286.847,44.68z"/>
		<path fill="#FFFFFF" d="M290.495,39.655l1.575-0.517V41.1h1.313v1.239h-1.313v3.637c0,0.747,0.255,0.967,0.713,0.967
			c0.28,0,0.485-0.083,0.6-0.151v1.199c-0.242,0.122-0.585,0.231-1.058,0.231c-1.17,0-1.83-0.572-1.83-2.044v-3.839h-1.043V41.1
			h1.043"/>
		<path fill="#FFFFFF" d="M294.64,38.116h1.627v1.664h-1.627 M294.667,41.1h1.577v7.013h-1.577V41.1z"/>
		<path fill="#FFFFFF" d="M300.653,40.991c1.336,0,2.875,0.75,2.875,3.608c0,2.941-1.539,3.622-2.875,3.622
			c-1.335,0-2.888-0.681-2.888-3.622C297.766,41.741,299.318,40.991,300.653,40.991 M300.653,47.022
			c1.017,0,1.245-1.253,1.245-2.423c0-1.171-0.229-2.411-1.245-2.411c-1.016,0-1.259,1.24-1.259,2.411
			C299.395,45.77,299.638,47.022,300.653,47.022"/>
		<path fill="#FFFFFF" d="M304.902,42.257c0-0.436-0.015-0.845-0.053-1.157h1.476c0.013,0.354,0.052,0.722,0.052,1.077h0.04h-0.015
			c0.228-0.424,0.674-1.187,1.74-1.187c1.489,0,1.934,1.187,1.934,2.601v4.521H308.5v-4.205c0-1.077-0.256-1.528-0.901-1.528
			c-0.827,0-1.122,0.751-1.122,1.648v4.085h-1.574"/>
		<path fill="#FFFFFF" d="M219.345,50.716c-10.593,0-19.21-8.508-19.21-18.964c0-10.456,8.617-18.965,19.21-18.965
			c10.593,0,19.212,8.509,19.212,18.965C238.557,42.208,229.938,50.716,219.345,50.716 M219.345,13.656
			c-10.108,0-18.33,8.118-18.33,18.095c0,9.98,8.222,18.095,18.33,18.095c10.11,0,18.332-8.115,18.332-18.095
			C237.677,21.774,229.456,13.656,219.345,13.656"/>
		<path fill="#FFFFFF" d="M219.345,45.503c-7.885,0-14.303-6.169-14.303-13.751c0-7.584,6.418-13.753,14.303-13.753
			c7.888,0,14.304,6.169,14.304,13.753C233.649,39.334,227.233,45.503,219.345,45.503 M219.345,18.967
			c-7.346,0-13.321,5.735-13.321,12.785c0,7.048,5.975,12.783,13.321,12.783c7.348,0,13.323-5.734,13.323-12.783
			C232.668,24.702,226.693,18.967,219.345,18.967"/>
		<polyline fill="#FFFFFF" points="204.172,25.153 204.423,26.081 205.341,26.081 204.673,26.602 204.923,27.415 204.132,26.773 
			203.36,27.473 203.671,26.602 202.879,26.085 203.798,26.104 		"/>
		<path fill="#FFFFFF" d="M205.019,27.554l-0.884-0.715l-0.741,0.671l-0.08-0.052l0.299-0.834l-0.902-0.589l1.054,0.021l0.416-1.058
			l0.28,1.036h1.021l-0.752,0.588 M203.047,26.137l0.684,0.446l-0.259,0.724l0.659-0.598l0.7,0.567l-0.213-0.691l0.583-0.456h-0.815
			l-0.221-0.82l-0.333,0.844L203.047,26.137z"/>
		<polyline fill="#FFFFFF" points="233.475,38.308 233.726,39.237 234.641,39.237 233.975,39.759 234.227,40.574 233.432,39.93 
			232.661,40.63 232.975,39.759 232.179,39.242 233.1,39.259 		"/>
		<path fill="#FFFFFF" d="M234.321,40.713l-0.887-0.72l-0.742,0.675l-0.08-0.054l0.303-0.833l-0.903-0.592l1.053,0.023l0.417-1.058
			l0.281,1.034h1.018l-0.75,0.588 M232.348,39.295l0.687,0.447l-0.263,0.722l0.66-0.598l0.701,0.568l-0.214-0.692l0.583-0.456
			h-0.814l-0.222-0.819l-0.335,0.844L232.348,39.295z"/>
		<polyline fill="#FFFFFF" points="205.153,38.102 205.404,39.03 206.323,39.03 205.655,39.552 205.905,40.366 205.113,39.723 
			204.34,40.423 204.654,39.552 203.861,39.033 204.779,39.053 		"/>
		<path fill="#FFFFFF" d="M205.998,40.505l-0.883-0.718l-0.742,0.671l-0.079-0.051l0.299-0.836l-0.9-0.589l1.053,0.021l0.415-1.059
			l0.281,1.037h1.021l-0.752,0.588 M204.029,39.085l0.683,0.448l-0.259,0.723l0.657-0.597l0.701,0.568l-0.212-0.691l0.583-0.457
			h-0.815l-0.222-0.821l-0.331,0.846L204.029,39.085z"/>
		<polyline fill="#FFFFFF" points="234.612,24.485 234.946,25.415 235.781,25.415 235.112,25.935 235.363,26.749 234.612,26.061 
			233.801,26.808 234.112,25.935 233.318,25.417 234.237,25.438 		"/>
		<path fill="#FFFFFF" d="M235.464,26.906l-0.854-0.779l-0.778,0.716l-0.08-0.051l0.301-0.836l-0.902-0.588l1.053,0.022l0.408-1.042
			l0.367,1.021h0.944l-0.753,0.586 M233.487,25.47l0.686,0.446l-0.262,0.722l0.7-0.643l0.656,0.597l-0.209-0.674l0.583-0.454h-0.727
			l-0.303-0.84l-0.341,0.863L233.487,25.47z"/>
		<path fill="#FFFFFF" d="M220.476,31.746c0.077-0.003,0.156-0.004,0.229,0"/>
		<polyline fill="#FFFFFF" points="209.614,42.526 210.016,42.89 208.102,44.932 207.671,44.541 208.195,42.322 208.188,42.317 
			206.823,43.771 206.421,43.407 208.335,41.365 208.789,41.78 208.274,43.942 208.281,43.948 		"/>
		<path fill="#FFFFFF" d="M220.063,17.233l-0.625-0.061l1.292-2.642l0.681,0.066l0.721,2.838l-0.644-0.063l-0.122-0.583
			l-1.049-0.102 M220.521,16.229l0.726,0.069l-0.242-1.117h-0.007L220.521,16.229z"/>
		<polyline fill="#FFFFFF" points="223.894,17.364 225.239,17.787 225.075,18.256 223.164,17.656 224.069,15.064 224.633,15.242 		
			"/>
		<path fill="#FFFFFF" d="M228.227,19.05c-0.407,0.603-0.956,0.626-1.554,0.252c-0.215-0.137-0.506-0.392-0.561-0.751
			c-0.033-0.221,0.043-0.438,0.19-0.673l1.027-1.52l0.502,0.317l-1.004,1.488c-0.215,0.321-0.118,0.58,0.11,0.725
			c0.34,0.213,0.587,0.142,0.773-0.137l1.02-1.511l0.502,0.317"/>
		<polyline fill="#FFFFFF" points="229.515,21.23 229.057,20.866 230.56,19.134 229.897,18.609 230.221,18.234 232.004,19.652 
			231.679,20.026 231.02,19.498 		"/>
		<path fill="#FFFFFF" d="M216.912,16.592c0.03,0.152,0.157,0.431,0.67,0.356c0.275-0.039,0.574-0.149,0.525-0.439
			c-0.037-0.213-0.255-0.241-0.564-0.267l-0.313-0.023c-0.472-0.037-0.924-0.074-1.026-0.674c-0.051-0.305,0.026-0.867,0.938-1
			c0.86-0.124,1.181,0.391,1.24,0.725l-0.56,0.082c-0.037-0.12-0.134-0.402-0.645-0.328c-0.225,0.033-0.475,0.152-0.433,0.398
			c0.036,0.212,0.224,0.233,0.344,0.243l0.711,0.064c0.398,0.036,0.774,0.137,0.858,0.627c0.137,0.823-0.71,1.021-0.957,1.057
			c-1.024,0.149-1.296-0.401-1.354-0.741"/>
		<path fill="#FFFFFF" d="M210.484,16.667c0.333-0.168,1.283-0.473,1.898,0.676c0.615,1.146-0.186,1.729-0.517,1.897
			c-0.334,0.168-1.284,0.473-1.9-0.673C209.351,17.419,210.151,16.836,210.484,16.667 M211.633,18.808
			c0.284-0.143,0.591-0.516,0.224-1.199c-0.366-0.684-0.858-0.653-1.142-0.508c-0.282,0.143-0.589,0.516-0.223,1.2
			C210.858,18.984,211.351,18.953,211.633,18.808"/>
		<path fill="#FFFFFF" d="M206.39,19.993l0.989-1.01c0.521-0.531,1.012-0.262,1.188-0.1c0.223,0.207,0.303,0.494,0.179,0.754
			c0.232-0.096,0.382-0.128,0.759,0.221c0.296,0.273,0.368,0.341,0.49,0.284l0.054,0.049l-0.453,0.461
			c-0.125-0.06-0.244-0.14-0.451-0.331c-0.276-0.258-0.399-0.34-0.701-0.03l-0.423,0.432l0.79,0.731l-0.399,0.408 M208.159,19.917
			c0.213-0.215,0.24-0.394,0.041-0.577c-0.108-0.098-0.311-0.197-0.551,0.048l-0.51,0.519l0.54,0.501L208.159,19.917z"/>
		<polyline fill="#FFFFFF" points="227.057,44.149 227.538,43.89 228.915,46.27 228.396,46.549 226.407,45.397 226.402,45.402 
			227.382,47.098 226.9,47.361 225.526,44.98 226.069,44.685 228.009,45.811 228.015,45.809 		"/>
		<path fill="#FFFFFF" d="M228.084,43.386l0.988-0.739c0.753-0.567,1.41-0.062,1.741,0.351c0.374,0.464,0.722,1.274-0.018,1.829
			l-0.967,0.728 M229.983,44.835l0.454-0.339c0.383-0.287,0.213-0.754-0.079-1.11c-0.513-0.64-0.867-0.454-1.063-0.305l-0.45,0.336
			L229.983,44.835z"/>
		<polyline fill="#FFFFFF" points="232.817,42.987 232.427,43.418 230.3,41.611 230.688,41.18 		"/>
		<polyline fill="#FFFFFF" points="233.725,22.588 232.814,21.425 232.34,21.775 233.178,22.841 232.781,23.132 231.94,22.068 
			231.357,22.496 232.31,23.709 231.907,24.002 230.605,22.341 232.864,20.684 234.126,22.294 		"/>
		<path fill="#FFFFFF" d="M211.496,43.948c0.306,0.206,1.022,0.883,0.267,1.94c-0.756,1.058-1.658,0.638-1.965,0.428
			c-0.308-0.209-1.023-0.883-0.267-1.941C210.287,43.32,211.188,43.738,211.496,43.948 M210.083,45.919
			c0.261,0.18,0.742,0.271,1.195-0.359c0.451-0.632,0.194-1.038-0.068-1.215s-0.741-0.271-1.193,0.361
			C209.564,45.334,209.822,45.743,210.083,45.919"/>
		<polyline fill="#FFFFFF" points="214.499,45.434 215.069,45.648 213.146,47.885 212.624,47.69 212.772,44.792 213.358,45.009 
			213.141,47.167 213.148,47.168 		"/>
		<polyline fill="#FFFFFF" points="215.461,48.554 214.888,48.407 215.618,45.774 216.192,45.921 		"/>
		<polyline fill="#FFFFFF" points="222.176,48.761 221.622,48.799 221.46,46.511 221.453,46.511 221.087,48.834 220.503,48.873 
			219.826,46.618 219.818,46.618 219.978,48.909 219.427,48.946 219.233,46.206 220.099,46.146 220.764,48.273 220.773,48.273 
			221.127,46.079 221.985,46.021 		"/>
		<path fill="#FFFFFF" d="M225.461,47.059c0.187,0.706-0.171,1.114-0.862,1.285c-0.254,0.063-0.647,0.095-0.962-0.107
			c-0.192-0.128-0.308-0.33-0.385-0.598l-0.471-1.773l0.586-0.145l0.459,1.737c0.101,0.372,0.364,0.483,0.635,0.415
			c0.393-0.097,0.509-0.322,0.421-0.647l-0.468-1.763l0.587-0.145"/>
		<path fill="#FFFFFF" d="M206.678,24.005l-0.33,0.48l-2.343-1.551l0.726-1.049c0.31-0.443,0.786-0.519,1.244-0.215
			c0.213,0.14,0.668,0.611,0.241,1.228l-0.38,0.549 M205.738,22.733c0.248-0.357-0.013-0.529-0.118-0.6
			c-0.228-0.15-0.409-0.09-0.615,0.208l-0.264,0.38l0.687,0.457L205.738,22.733z"/>
		<path fill="#FFFFFF" d="M222.146,42.56c0.208,0.471-0.331,0.351-0.537,0.521h-0.174C221.469,42.811,221.767,42.374,222.146,42.56"
			/>
		<path fill="#FFFFFF" d="M219.096,34.18v0.188h-0.727C218.299,33.961,218.924,33.896,219.096,34.18"/>
		<polyline fill="#FFFFFF" points="220.362,29.384 220.713,28.96 221.649,28.884 222.076,28.806 221.882,29.192 221.374,29.384 
			221.453,29.192 220.87,29.153 220.558,29.384 		"/>
		<polyline fill="#FFFFFF" points="222.663,28.845 222.973,28.806 223.323,28.96 223.129,29.192 222.779,29.269 222.622,29.46 
			222.427,29.308 222.117,29.384 222.078,29.231 222.35,29.154 222.235,28.999 222.35,28.884 		"/>
		<polyline fill="#FFFFFF" points="223.626,29.209 223.819,29.053 224.17,29.092 224.092,29.286 223.585,29.4 		"/>
		<polyline fill="#FFFFFF" points="220.87,29.654 221.258,29.617 221.179,29.847 220.792,29.847 		"/>
		<polyline fill="#FFFFFF" points="223.519,29.596 223.749,29.42 223.878,29.545 223.725,29.672 		"/>
		<polyline fill="#FFFFFF" points="223.318,29.97 223.513,30.201 223.67,30.124 223.551,29.739 		"/>
		<polyline fill="#FFFFFF" points="224.031,30.116 224.146,29.963 223.797,29.77 		"/>
		<line fill="none" x1="224.031" y1="30.116" x2="224.146" y2="29.963"/>
		<polyline fill="#FFFFFF" points="224.422,29.943 224.56,29.998 224.505,30.563 224.317,30.052 		"/>
		<path fill="#FFFFFF" d="M218.195,21.289c0.14-0.152,0.036-0.806-0.189-0.874c-0.261,0.402,0.536,0.587,0,0.874 M219.444,23.385
			c-0.032-0.316-0.111-0.98,0.187-1.395l0.177-0.181c-0.07,0.052-0.127,0.113-0.177,0.181l-0.36-0.351l0.173-0.183
			c-0.261,0.083-0.348-0.219-0.538-0.336c-0.243,0.654,1.318,1.494-0.171,1.561c-0.107-0.1-0.243-0.185-0.193-0.354h-0.172v0.186
			h0.172c-0.103,0.085-0.19,0.219-0.347,0.168c-0.015,0.201,0.036,0.419-0.189,0.521h0.364c0.102,0.1,0.242,0.183,0.172,0.351
			c0.243,0.069,0.607-0.149,0.729,0.169C219.219,23.571,219.357,23.488,219.444,23.385 M221.355,31.746
			c0.384-0.237,0.603-0.395,1.158-0.519c-0.056,0.168,0.083,0.252,0.169,0.353c0.396-0.448,0.642-0.081,0.939,0.167
			c0.146,0.125,0.306,0.218,0.501,0.168c0.011-0.056,0.038-0.11,0.069-0.168h0.191c0.267,0.647,1.281,1.028,1.368,1.751
			c0.624,0.3,1.491,0.045,1.974,0.683c1.265,1.395-1.522,1.898-1.075,3.328c-0.224,0.92-0.935,1.074-1.801,1.209
			c-0.278,0.702-0.831,0.988-1.436,1.392c-0.9-0.033-1.023,0.624-1.803,0.875c-0.278,0.905-1.042,1.156-1.266,2.097
			c0.138,0.285,0.624,0.117,0.534,0.518c-0.621,0.019-1.419-0.351-1.436-1.038c0.242-1.946,1.683-3.426,1.802-5.406
			c-0.972-0.704-1.127-2.048-1.076-3.307c0.625-0.317,0.488-0.94,0.709-1.394l-0.344-0.352c-0.365,0.521-0.607-0.271-1.091,0
			c-0.033-0.131-0.099-0.247-0.182-0.355c-0.199-0.25-0.5-0.456-0.721-0.704c-0.709-0.218-1.505-0.269-2.147-0.688
			c-0.816-0.066-0.348-0.972-1.075-1.224c-0.104,0.101-0.243,0.184-0.191,0.352c-1.16-0.303-0.691-1.561-1.246-2.267
			c0.123-0.495,0.143-0.957,0.038-1.395c-0.073-0.3-0.206-0.589-0.403-0.872c-1.144-1.242-2.409,0.907-3.777,0.169
			c0.502-0.034,0.918-0.27,1.249-0.689c-0.105-0.168-0.416-0.269-0.35-0.521l0.175-0.184l-0.175-0.169l0.175-0.168
			c-0.104-0.099-0.242-0.183-0.175-0.352c0.678-0.537,1.598-1.276,2.688-1.225c0.833-0.304,1.958,0.671,2.705-0.352
			c-0.381-0.018-0.781-0.572-0.366-0.856c0.26,0.033,0.537-0.419,0.729,0c0.226-0.118,0.172-0.336,0.172-0.539
			c0.592-0.319,1.23,0.673,1.439-0.167h0.364c-0.053,0.167,0.088,0.253,0.172,0.353l0.193-0.186l0.171,0.186
			c0.486-0.47,0.797,0.487,1.439,0.168c0.484,0.303,0.781,0.973,0.901,1.577c-0.19,0-0.417-0.05-0.538,0.167l0.729,0.706
			c0.223-0.118,0.174-0.336,0.174-0.538c0.866,0.438,1.385,1.327,1.803,2.1c-0.937,0.151-1.788,0.554-2.341,1.391
			c0.572,1.413-1.835,1.379-0.727,2.789l-0.358,0.356c-0.038-0.326-0.147-0.619-0.353-0.877c-0.937,0.589-2.564-0.587-2.339,1.227
			c0.241,0.202,0.226,0.504,0.537,0.688c0.451,0.201,0.606-0.353,0.902-0.521v-0.168h0.709c0.381,0.639-0.796,1.394,0.364,1.56
			c0,0.202,0.052,0.422-0.173,0.521c0.089,0.243,0.244,0.329,0.424,0.351c0.132,0.022,0.274,0.009,0.416,0h0.23
			c0.14,0.013,0.272,0.052,0.368,0.168C221.178,31.854,221.272,31.798,221.355,31.746"/>
		<path fill="#FFFFFF" d="M234.643,28.298c0.135-0.022,0.33-0.038,0.616-0.038c0.265,0,0.456,0.046,0.585,0.144
			c0.128,0.093,0.213,0.257,0.213,0.445c0,0.185-0.064,0.349-0.179,0.452c-0.153,0.132-0.37,0.19-0.62,0.19
			c-0.05,0-0.093-0.003-0.125-0.005v0.625h-0.492 M235.135,29.111c0.028,0.001,0.061,0.006,0.114,0.006
			c0.196,0,0.316-0.1,0.316-0.257c0-0.136-0.095-0.228-0.28-0.228c-0.076,0-0.124,0.005-0.15,0.009V29.111z"/>
		<path fill="#FFFFFF" d="M235.447,32.237l-0.103,0.424h-0.515l0.54-1.836h0.664l0.553,1.836h-0.538l-0.12-0.424 M235.86,31.872
			l-0.086-0.331c-0.026-0.103-0.063-0.253-0.091-0.361h-0.004c-0.028,0.108-0.056,0.26-0.082,0.366l-0.081,0.326H235.86z"/>
		<polyline fill="#FFFFFF" points="235.049,33.447 235.049,34.125 235.654,34.125 235.654,33.447 236.149,33.447 236.149,35.285 
			235.654,35.285 235.654,34.558 235.049,34.558 235.049,35.285 234.551,35.285 234.551,33.447 		"/>
		<path fill="#FFFFFF" d="M235.707,36.948c0,0.594-0.356,0.969-0.93,0.969c-0.578,0-0.898-0.427-0.898-0.939
			c0-0.533,0.358-0.957,0.928-0.957C235.406,36.021,235.707,36.459,235.707,36.948 M234.409,36.971c0,0.346,0.151,0.555,0.392,0.555
			c0.238,0,0.381-0.229,0.381-0.56c0-0.316-0.146-0.556-0.386-0.556C234.56,36.41,234.409,36.633,234.409,36.971"/>
		<path fill="#FFFFFF" d="M204.308,30.151c0,0.592-0.359,0.968-0.931,0.968c-0.576,0-0.893-0.427-0.893-0.938
			c0-0.533,0.354-0.957,0.921-0.957C204.007,29.225,204.308,29.661,204.308,30.151 M203.008,30.173c0,0.344,0.154,0.556,0.393,0.556
			c0.24,0,0.383-0.231,0.383-0.56c0-0.318-0.146-0.558-0.386-0.558C203.162,29.612,203.008,29.835,203.008,30.173"/>
		<path fill="#FFFFFF" d="M202.485,32.209c0.132-0.022,0.329-0.039,0.612-0.039c0.269,0,0.459,0.046,0.589,0.145
			c0.126,0.093,0.212,0.258,0.212,0.445c0,0.185-0.063,0.349-0.179,0.452c-0.152,0.134-0.369,0.19-0.622,0.19
			c-0.047,0-0.091-0.002-0.12-0.004v0.624h-0.492 M202.977,33.021c0.027,0.002,0.059,0.007,0.113,0.007
			c0.195,0,0.317-0.101,0.317-0.258c0-0.137-0.094-0.229-0.281-0.229c-0.076,0-0.125,0.007-0.149,0.012V33.021L202.977,33.021z"/>
		<path fill="#FFFFFF" d="M203.284,36.108c0.112,0.057,0.297,0.117,0.483,0.117c0.17,0,0.253-0.061,0.253-0.152
			c0-0.088-0.083-0.14-0.291-0.213c-0.316-0.107-0.523-0.279-0.523-0.552c0-0.323,0.276-0.575,0.746-0.575
			c0.222,0,0.381,0.04,0.506,0.095l-0.105,0.393c-0.082-0.035-0.218-0.087-0.406-0.087c-0.15,0-0.235,0.055-0.235,0.136
			c0,0.094,0.101,0.131,0.334,0.219c0.334,0.12,0.485,0.297,0.485,0.555c0,0.314-0.25,0.587-0.793,0.587
			c-0.223,0-0.442-0.061-0.545-0.113"/>
		<path fill="#FFFFFF" d="M3.454,13.526h28c6.62,0,15.549,2.82,15.549,13.017c0,9.871-7.107,13.939-15.61,13.939H19.731v10.9H3.454
			V13.526z M19.306,31.695h3.583c3.888,0,7.835-0.65,7.835-4.881c0-4.013-3.947-4.501-7.896-4.501h-3.523V31.695z"/>
		<path fill="#FFFFFF" d="M58.247,13.528h22.411l15.124,37.854H78.714l-2.793-8.189H62.194l-2.611,8.189H43.366L58.247,13.528z
			 M64.442,34.082h9.415l-4.616-12.42h-0.123L64.442,34.082z"/>
		<polygon fill="#FFFFFF" points="125.064,13.528 141.342,13.528 141.342,51.383 125.064,51.383 125.064,37.771 114.193,37.771 
			114.193,51.383 97.916,51.383 97.916,13.528 114.193,13.528 114.193,26.598 125.064,26.598 		"/>
		<path fill="#FFFFFF" d="M169.045,52.034c-14.82,0-23.506-6.671-23.506-19.578c0-12.691,8.686-19.58,23.506-19.58
			c14.819,0,23.687,6.889,23.687,19.58C192.732,45.363,183.864,52.034,169.045,52.034 M169.045,42.924
			c6.438,0,6.62-6.401,6.681-10.468c-0.061-3.525-0.486-10.468-6.681-10.468c-6.013,0-6.5,6.943-6.5,10.468
			C162.545,36.522,163.214,42.924,169.045,42.924"/>
	</g>
</g>
</svg>
