<svg xmlns="http://www.w3.org/2000/svg" viewBox="0 0 673.24 177.96" class="logo svg replaced-svg"><defs><style>.cls-1{fill:#0093d5;}</style></defs><title>世界卫生组织</title><g id="Layer_2" data-name="Layer 2"><g id="CHINESE"><path class="cls-1" d="M271.61,98.53V75.26h14.6V68.57H271.38v-18h-6.7v18H252.39V50.87h-6.93v17.7H235.31V55h-6.93V68.57h-11v6.69h11v44.05h6.93v-5.15h46.82v-6.78H235.31V75.26h10.15V98.53Zm-6.93-23.27v16.6H252.39V75.26Z"></path><path class="cls-1" d="M312.58,92v.38c.1,6.83-1.37,11.92-4.38,15.12s-8.07,5.19-15,5.89l-.59.06,3.71,6.25.25,0c7.91-1.25,13.79-4.08,17.47-8.42s5.48-10.68,5.35-18.87V92Zm46.27,4.27c-10.48-1.72-18.07-5.75-22.62-12h10.93V52.4H299.31V84.34H310.6c-5.15,5.7-12.76,9.56-22.69,11.42l-.55.1,4,6.07.25-.06c13.49-3.09,22.37-9,26.45-17.53h10.64a23.12,23.12,0,0,0,5.32,7.45h-4.55v27.75h6.7V93.75c3.9,3.45,10.13,6.45,18.59,8.92l.26.07,4.38-6.35ZM326.6,58.79h13.86v6H326.6ZM319.91,78H306V71.22h13.94Zm0-13.12H306v-6h13.94ZM326.6,78V71.22h13.86V78Z"></path><path class="cls-1" d="M400.29,108.18V61.61H421c-.47,7-1,13.27-1.63,18.69-.8,7.13-1.38,8.7-1.66,9a2.19,2.19,0,0,1-1.69.77,18.89,18.89,0,0,1-4.72-.9l-5.15-1.38.13.59,1.3,6.8.23,0a40.38,40.38,0,0,0,8.79,1.39c3.85,0,6.53-1.65,7.95-4.9s2.45-15,3.25-36.19l0-.39H372.85v6.47h20.74v46.57H368.46v6.44H435.6v-6.44Z"></path><path class="cls-1" d="M479.66,108.41V92.54h22V86.07h-22V72.21h25.62V65.78H479.66V49.12H473V65.78H460.69a42.63,42.63,0,0,0,1.54-9.08v-.28l-6.63-2,0,.47A41.34,41.34,0,0,1,441.4,83.69L441,84l6.67,3.59.2-.21c5.4-5.74,8.91-10.85,10.49-15.21H473V86.07H452.75v6.47H473v15.87H445.08v6.44h65.2v-6.44Z"></path><path class="cls-1" d="M525.43,94.57l3.1,5.76.31-.11c1.86-.68,9.59-2.61,23-5.75l.29-.06V88.34l-16,3.49c5.53-5.25,10.86-13,15.85-23.18l.17-.35-6.25-2.79-.16.33a75.07,75.07,0,0,1-5.11,9.09l-7.25,1.52c2.81-5.11,6.49-12.83,10.94-23l.15-.34-6-2.76-.15.37c-4.75,12.11-9.15,21.46-13.09,27.82l-.11.18,3.22,5.87L533.71,83l2.56-.7a103.51,103.51,0,0,1-10.65,12.11ZM553.83,99l-.5.19c-2.78,1-12,4-27.32,8.69l-.44.13,3.26,6.06,25-8.39Zm30.93,9.85V53.2H555.9v55.67H547v6.47h46.74v-6.47Zm-6.7,0h-15.5V95.59h15.5Zm0-19.45h-15.5V77.28h15.5Zm0-18.26h-15.5V59.63h15.5Z"></path><path class="cls-1" d="M606.51,84.77a33.79,33.79,0,0,1,9.22-1.89c-4.71,6.25-8.8,10.91-12.14,13.76l-.23.2,3,5.73.28,0c5.69-1.09,13.78-3,24.05-5.72l.28-.08V90.29L614.2,93.91c5.65-4.77,11.38-13.23,17-25.27l.17-.34-6.14-2.79-.16.33c-2.46,5.13-4.2,8.48-5.19,10l-7.86,1a77.24,77.24,0,0,0,11.2-23.34l.09-.32-6.11-2.46-.12.4c-3.37,11.66-8,20.82-13.87,27.23l-.17.19,3.12,6.33Zm60-29.4H634V92h32.51Zm-6.69,30.16H640.66V61.84h19.16Zm-28.84,22v-6.72l-.5.16-28.77,9.45,3.67,6.19.28-.09c10.08-3.34,18.51-6.34,25.08-8.89Zm12-11.16c-4.52,7.57-10.08,13-16.54,16.1l-.49.23,5.06,4.89.25-.16c8.7-5.48,14.29-11.41,16.62-17.61l.1-.27L643.15,96Zm30.16,17a49.83,49.83,0,0,0-16.9-16.87l-.28-.17-.21.25L652,101l.33.23c7.66,5.28,13,11.07,15.89,17.2l.24.52,4.76-5.4Z"></path><path class="cls-1" d="M164,32.58c3.86,4.6,10.61,7.31,14.56,11.92-2.83-13.63-13.35-24.76-25.79-27.42C158.84,21.65,160.15,28,164,32.58ZM14.48,67.13c8.57-18.65,21.36-14.7,26.77-32.47-3,5.45-17,7.75-23.51,21.72,3.31-8.3,1.65-21,7.25-27.85C8.25,40.88,15.38,60.86,14.48,67.13ZM30,111.86c1.54,7.26-3,17.74,4.2,27.76C26.76,131.28,11,129.16,4.58,116.48c8,31,29,24.6,38.39,31.33C35.21,136.66,41.56,129.25,30,111.86Zm-2.41,19.45C23,114,31.18,108,24.93,91.4c-.65,9.36-6.89,13.92-2.68,31C14.82,107.94,3.33,102.54,0,92.6.23,119.78,22.07,123.81,27.59,131.31Zm33.54,29c-6.43-8.9-2-13.93-20.1-30.09,3.82,5.9-.12,13.32,12.06,24.86-11.92-7-28.36-4-36.29-13.41C30.42,167.74,54.35,157.1,61.13,160.34Zm87.42-5.23c12.18-11.54,8.24-19,12.06-24.86-18.06,16.16-13.67,21.19-20.1,30.09,6.78-3.24,30.71,7.4,44.32-18.64C176.91,151.09,160.47,148.08,148.55,155.11Zm18.89-15.49c7.17-10,2.66-20.5,4.2-27.76-11.56,17.39-5.21,24.8-13,36,9.44-6.73,30.36-.35,38.39-31.33C190.62,129.16,174.88,131.28,167.44,139.62Zm-28.86,21.95a89.2,89.2,0,0,0-19.75-3,47.75,47.75,0,0,0-18,3.06,47.78,47.78,0,0,0-18-3.06,89.2,89.2,0,0,0-19.75,3c-10.87,2.89-20.26,5.13-28.45,1,7.85,7,17,9.45,30.23,8,11-1.18,19.91-6.69,30.29-6.61h.41a55.47,55.47,0,0,0-17.12,13.31l5,.67s5.27-10.59,17.39-13.35c12.12,2.76,17.39,13.35,17.39,13.35l5-.67A55.63,55.63,0,0,0,106.1,164h.41c10.38-.08,19.27,5.43,30.28,6.61,13.23,1.43,22.39-1.06,30.24-8C158.84,166.7,149.45,164.46,138.58,161.57ZM25.67,72.63C21.19,81.23,14.23,83.2,15,101,11.22,85.18,2.24,79.32,2.35,69.23c-6.24,26.3,10.44,29.42,14.72,40.44C16.44,93.88,26.52,90.69,25.67,72.63Zm6.26-20.3c-1.56,2.18-2.65,3.11-6.81,6.54A33.77,33.77,0,0,0,13,78.64c.43-9.64-5.53-23.49-1.57-33.59-15.33,21.65.88,34.62,1.45,42.46C16.86,72.42,26,72.3,31.93,52.33Zm156.7,26.31a33.82,33.82,0,0,0-12.11-19.77c-4.16-3.43-5.25-4.36-6.81-6.54,5.93,20,15.07,20.09,19,35.18.57-7.84,16.78-20.81,1.44-42.46C194.15,55.15,188.2,69,188.63,78.64Zm13,14c-3.33,9.94-14.82,15.34-22.25,29.84,4.21-17.12-2-21.68-2.68-31-6.25,16.62,2,22.59-2.66,39.91C179.57,123.81,201.41,119.78,201.64,92.6ZM176,72.63c-.85,18.06,9.24,21.25,8.6,37,4.29-11,21-14.14,14.72-40.44.12,10.09-8.86,16-12.61,31.72C187.41,83.2,180.45,81.23,176,72.63Zm-138.34-40c3.87-4.6,5.18-10.93,11.24-15.5-12.44,2.66-23,13.79-25.79,27.42C27,39.89,33.76,37.18,37.62,32.58Zm122.77,2.08c5.41,17.77,18.2,13.82,26.76,32.47-.89-6.27,6.24-26.25-10.5-38.6,5.6,6.86,3.94,19.55,7.25,27.85C177.41,42.41,163.44,40.11,160.39,34.66ZM117,44.75A41.92,41.92,0,0,0,106.77,42c0,.75,0,1.52,0,2.28a40,40,0,0,1,9.4,2.58A6,6,0,0,0,117,44.75Zm-2.59-22,.68-.61-1.3-.55-3.42-.07-.89.62-2-.17,0,.49a34.75,34.75,0,0,1,3.52.37l1.67-.15ZM107.78,96.5c0-.58-.77-1.15-1.91-1.69h-.21c0,.47,0,2.79-.07,3.92C107,98.1,107.78,97.42,107.78,96.5ZM68.16,53a10.92,10.92,0,0,1,.29-1.25,5.79,5.79,0,0,1-1.4.14Zm32.73,100.6A69.76,69.76,0,0,0,108,14.47c0,.13,0,.27-.08.4-.14.68-.27,1.29-.37,1.83a67.35,67.35,0,0,1,40.63,19l-7.7,7.7.29-1.36-1-.44-1.38-.08.29-.89-.93-3.15-1.92-2.11-6-3.17-.52.55-1.09.32a18,18,0,0,1,3.18,10.11c0,.47,0,.92,0,1.37l3,3.75-1.4.32.93,1.4-2.63,2.62-1.06-2a17.92,17.92,0,0,1-2,3.93l.59.54-8.11,8.11c-.49-.47-1-.92-1.52-1.35-.78.36-1.57.69-2.38,1l.69.54-.41.41-1,.53-.35,1-.59-.59-1.71.57.47.75,1.18-.31.77.06.06-.42.59-.3.18-.35,1.06-.3.83,0c.16.14.33.29.48.44L115.81,68l-.24-.34-3.36.55-.75.75-.73.09,2.08-2-.74-.37-1.95,2.6.57-.06,0,1,.71.28.14,1-1.17-.23-1.22.22-3-1.51s-.16,7.92-.24,11.9c7,2.34,14.35,5.72,14.35,14.6a11,11,0,0,1-5,9.38h0l-.15.1h0l-.22.15c-2.82,1.86-6.44,2.86-9.58,3.84,0,0-.09,6.22-.09,6.22,5,2.48,11.05,6.09,10.49,16.42-.07,2.54-1.06,3.24-1.91,3.47h0a52.52,52.52,0,0,1-9,1.43c0,.8,0,1.56,0,2.27a55.87,55.87,0,0,0,34.78-15.36l8.1,8.1a67.37,67.37,0,0,1-93.3.19l8.1-8.1a55.83,55.83,0,0,0,34.29,15.15c0-.7,0-1.46,0-2.27A53.59,53.59,0,0,1,64.05,123l2.16-2.17,3,.34,1.58-1.7,4.14.14.61-1.43-.15-.61A42,42,0,0,0,96.48,126c0-.88,0-1.65,0-2.28A39.93,39.93,0,0,1,73.76,113.3l8.11-8.11a28.85,28.85,0,0,0,6.57,4.41,7.67,7.67,0,0,1,.82-2.13,26.22,26.22,0,0,1-5.79-3.89l8.13-8.12a14.86,14.86,0,0,0,4.34,2.41c0-.8,0-1.65,0-2.44a12.47,12.47,0,0,1-2.68-1.59l2.29-2.29c-.8-.24-1.62-.5-2.42-.78l-1.54,1.54a12.4,12.4,0,0,1-1.94-2.89,27.57,27.57,0,0,1-4-2.14A15.69,15.69,0,0,1,78.06,73.5,16.54,16.54,0,0,1,81.34,63l-8.08-8.08A39.91,39.91,0,0,1,94.9,44.28c0-.78,0-1.55-.05-2.28A42.18,42.18,0,0,0,71.66,53.34L70.29,52c-.31.55-.67,1.24-1.09,2.11l.86.87A42.13,42.13,0,0,0,58.6,83.17H47.13A53.62,53.62,0,0,1,62,46.83l3.64,3.65a4.61,4.61,0,0,0,.52,0,5.5,5.5,0,0,0,2.07-.6l-4.63-4.63a54.51,54.51,0,0,1,8-6.38,15.06,15.06,0,0,1,.57-1.68,26.93,26.93,0,0,1,1.75-2.35A56,56,0,0,0,62,43.63l-8.1-8.1A67.2,67.2,0,0,1,94,16.73c-.06-.28-.1-.5-.1-.5-.1-.53-.22-1.12-.33-1.74a69.77,69.77,0,0,0,7.28,139.15ZM116,105.45v-.06l0,0Zm33.78-68.12a67.26,67.26,0,0,1,18.65,45.84H156.92a55.67,55.67,0,0,0-6-24.48l.1-.2.79.42.19-.61L150,54.71l-2.43-3.36L144.69,49c-1-1.22-2-2.4-3.07-3.54ZM135.13,52l2.75.12.66.79-.33,1.17L142,56.48l.75-.09,4.9,5.6,2-.7a53.4,53.4,0,0,1,5,21.88H143.19a41.78,41.78,0,0,0-1.07-8.72l.53-.71.71-3.59-.54-3.86-1.38-4.44-3.2-4.68.78.41.39-.39-2.57-1.74-.17.57,2.57,3.67,1.45,3,1,3,.33,2,.53,3.38-1,.07s-1.11-2.07-1.45-2.92l.51-.77-1-1.4v-1.4l-.7-.88-.87.11c-.31-.58-.64-1.15-1-1.71l.62.31.16-.16-.33-.72.75-.42-.34-.42-1.11.42.41-1.74-.66-.38-.59,1.39a42.64,42.64,0,0,0-4.17-5.3Zm-2.3,26.87,2.06-1.12,2.1-.32.46-1,1.17-.7.45-1,.36-1.69c.17.59.32,1.2.46,1.81l-1.11,3.31,0,1.12,1.61-2.15a38.74,38.74,0,0,1,.57,6h-10l-.23-.87,1.17-.93.23-.56.51-.38,1.36-.14.14-.6ZM119.07,71l1-.24,0-.24-1-.69.35-2.16,1.23-1.23a27.16,27.16,0,0,1,2.13,2.77l-.43,1.33-1.12-.8-.85.23.42.79h.42l-.47,1.17-.32-.47Zm4.39,38.07-2.48-.7-.74.27-1.4-1.07-1.32-.47c.65-.47,1.28-1,1.89-1.48l2,1.44,1.56.82.77.77ZM122.2,64.85l8.11-8.11a40.43,40.43,0,0,1,5,6.74l-1,.28.05,1.81,3,1.92a39.2,39.2,0,0,1,1.9,5.12l-.53.78-1.1.7-.27,1.68-.75.42-.63.74-.63-.23-1.12,0,.65-.88.47-2.29.74-.46L134,70.92l-1.63.55L132,73l-1,1.11-1.07-.88-.38-.94.61-.38.34.62.5-.19-.22-1-.71,0-.05.42-.47.09L127,68.86l-.86-.65.33-.36.76-.26-.7-.28s-.89.2-1,.2l.51.64-1.28,0A27.71,27.71,0,0,0,122.2,64.85ZM126.33,108l-1.1-1.1.84-1.09,1.06-2.16-.41-.6.7-1.6-.08-1.44-.42-1.49-1-.35-.37.84-.6-.16a27.18,27.18,0,0,0,2.4-4.19l1-.44.58-.78.28.32.7-.84-.56-.7.51-.14.94.38,1.77,0,1.07-.56,2.8-.74-.53-.93-.18-1.13,1.5.66.56-.33-.28-1.16L135.7,89l-2-.42-1.54-3.15h8.77a39.92,39.92,0,0,1-11.07,26.08l-1.2-1.21.52-1.61-.94-3.55Zm1.55,22.37,1.08-2.32-.42-1,1.59-1.4v-.84l-1.36-.85,1.12-2.23,1.68-2.2-1.68-1.81h-1.26l-.78-1.27c.67-.56,1.34-1.13,2-1.73l8.11,8.11A54.38,54.38,0,0,1,127.88,130.38ZM138,119.67l.9-1-.85-4.44-.58-.23.36-.75-1.92-.6-.37,1.58-.19,2-.4.37-3.5-3.5a42.17,42.17,0,0,0,11.74-27.67h11.47a53.55,53.55,0,0,1-15.1,35.78Zm3.16,3.15a55.84,55.84,0,0,0,15.77-37.38h11.46a67.28,67.28,0,0,1-19.12,45.49Zm-69-11.11c-.83-.86-1.62-1.75-2.38-2.68l.35-2.9-1.21-2.78L68.62,99l-1.36-2.64.28-1.64L65.9,91.57l-1.43-.72.58-1.67-.59-1.32.59-1.51h1.57l.55-.91h2.68l.41.79L69.76,89l-.32.47,1,2.19-.66.36-.46-.58-.2.22.46,1.3.79,1.52.37,0L71,93l-.38-.5,0-.92-.12-1.9L71,86.34l-.54-.9h1.92a28.48,28.48,0,0,0,7.89,18.17ZM64.56,89.3,63.48,91H61.62l-.15-.11a40.74,40.74,0,0,1-.58-5.45h3.45l-.83,2.76Zm3.77-7.87.21-2.28,1.36-.79,2.43.43.37.44a27,27,0,0,0-.37,3.94H69.58ZM80,90l.57-.29L82,90.84l-.65.53,1.69,1.12L83,91.29l.9-1.49.94,1,1,1.38L84,92.56l.79,1.58L86,93.5,85.88,93l.9-.61.53-2.5a14.91,14.91,0,0,0,2.63,4l-8.1,8.1a26.21,26.21,0,0,1-7.1-15.22l1.66,1.77,1.56,0ZM71.66,56.54l8.1,8.11a28.91,28.91,0,0,0-4.3,6.19l-.56,0-1.14.35-.4,0-1.21,1.13L73.68,72l1.38-.35-.24.53-1.21.74H73l-1.78,1.36-1.72-.14-2.49,4.64.49.93-1.35,1.5-.21,2H60.86A39.92,39.92,0,0,1,71.66,56.54ZM61.19,117.69l2.57,1.51.53.36-1.86,1.86q-1.3-1.35-2.52-2.79ZM58.62,85.44c0,1.11.14,2.22.26,3.31l-1.4.32-.29,1.42-2.92,3.72.07,5.11-3,1H49.7a53.48,53.48,0,0,1-2.56-14.89ZM47.3,100.26l-.67-.13L46,99.42l-3.22-.28,1,1.35-3-.56.78-.72-.73-.72-2.15.94-.77,1.42.3,3.27L40.69,110l1.19,1.86.68.25-1.87-3.55-.41-1.81.42-.44-.26-1,1.13.15,1.73,2.62.43.17,0-1.91.7.41.15,1,1.82.48.76-.54.26.18,0,1.39.8,1,1,.22,2.12,3.59,1.29.36.4-1.68a56.32,56.32,0,0,0,7.9,10.2l-8.1,8.1A67.32,67.32,0,0,1,33.41,85.44H44.88A55.83,55.83,0,0,0,47.3,100.26Zm5-63.13,8.1,8.1A55.91,55.91,0,0,0,44.86,83.17H33.4A67.28,67.28,0,0,1,52.25,37.13Zm83-4.18-.69-1.12-1.5-.75-1.17.89,1.5.8L135.05,34ZM128.29,65.3l0,.88,2-.59.61-1.21-1.37-1.8.73-1.1,1.85,1.32.34-.27-.37-.26-.42-.8.76-.44-.74-1-1.74.88L129.36,62l-.35.95.77,1.29-.28.6Zm-82.9,51.42.15-.52-1-2.24-1.22-.45ZM92.27,73.64c0,1.92,1.17,3.28,3.3,4.45,0,0,0-.33,0-.86l-1.34-1.34.71-1.29.58-.16c0-2.24-.09-4.75-.1-5.11l-.1,0C93.34,70.43,92.27,71.75,92.27,73.64Z"></path><path class="cls-1" d="M105.07,123.32c3.6,1.82,6.92,4.34,8.31,9.11.61-7.9-3.82-11.32-8.21-13.63C105.17,118.81,105.07,123.33,105.07,123.32Z"></path><path class="cls-1" d="M129,43.2c0-7.17-5.2-15.13-17.95-17.94a30.69,30.69,0,0,0-3.89-.45c0,1.08-.08,3.56-.08,3.56,0,.78-.08,3.65-.1,4.27a18,18,0,0,1,2.45.34c7.41,1.77,10.06,6,10.06,10.22,0,6.81-5.82,9.38-13,11.32l-2.37.62c-2.17.54-4.4,1.06-6.61,1.65-.79.21-1.57.44-2.35.67h0c-7.93,2.42-14.75,6.24-14.75,16s7.78,13.34,15.37,15.68q-.07-4.19-.16-8.42c-3.35-1.57-5.71-3.64-5.71-7.12s2.15-5.46,5.44-7c.73-.33,1.51-.63,2.34-.91,1.89-.64,4-1.19,6.25-1.73l2.37-.57h0C117,60.89,129,57.54,129,43.2Z"></path><path class="cls-1" d="M90.56,111.67c0,3.92,2.9,6,5.79,7.67,0-.66-.12-6.73-.12-6.83.06-1.21,1.23-1.94,2.18-2.39a47.05,47.05,0,0,1,4.59-1.75c.86-.3,1.59-.59,2.41-.83h0c5.8-1.75,12.51-4,12.51-11s-5.75-10-12-12.13c0,2.25-.11,5.54-.16,7.81,2.66,1,4.42,2.31,4.42,4.32,0,2.53-2.7,4-4.61,4.72-.8.31-2,.71-2.35.82-1.54.48-3.2,1-4.75,1.6a22.79,22.79,0,0,0-2.35,1C93.36,106.06,90.55,108.09,90.56,111.67Z"></path><path class="cls-1" d="M94.49,25.93a46.17,46.17,0,0,0-7,2.85c-2.5.83-6,1-9.67,4.94A49.49,49.49,0,0,0,74.49,38c-1.1,1.58-1.15,4.12-2,5.49-1.16,2-.88,3.11-.88,3.11l0,.06a5.31,5.31,0,0,1-1.34,2.48A5.08,5.08,0,0,1,65.61,51c1.66.83,4-.33,4-.33a30.61,30.61,0,0,0-.88,3.3c1.86-4.21,3.57-5.75,4.1-6.18.8.18,2.46.11,5.54-1.66,3.48-2,8.71-5.25,10.19-7.31a13.59,13.59,0,0,1,6.16-4.65C94.61,31,94.55,28.26,94.49,25.93ZM79.81,39.08,78,39.47,80.16,36l2.52.08Z"></path><path class="cls-1" d="M101.68,111.18c-.34.12-1.21.49-1.76.68s-1.32.51-1.32.71.56,30.41.56,31.08c0,6.25,3.18,6.29,3.18,0,0-.45.64-32.9.64-32.9S102.22,111,101.68,111.18Z"></path><path class="cls-1" d="M98.38,101.16c1-.34,2-.64,2.9-.93l1.93-.6c0-1.91.58-28.33.68-33.13a60.72,60.72,0,0,0-6.15,1.77C97.81,71.87,98.33,98.28,98.38,101.16Z"></path><path class="cls-1" d="M101,0c-8.94,0-5.14,13.26-4.43,17.58,0,.21.72,30,.86,36.79,1.36-.36,2.71-.69,4-1l2.7-.68c.13-6.57.79-35,.81-35.15C105.53,12.91,110.21,0,101,0Z"></path></g></g></svg>