<?xml version="1.0" ?><!DOCTYPE svg  PUBLIC '-//W3C//DTD SVG 1.1//EN'  'http://www.w3.org/Graphics/SVG/1.1/DTD/svg11.dtd'><svg id="Layer_1" style="enable-background:new 0 0 512 512;" version="1.1" viewBox="0 0 512 512" xml:space="preserve" xmlns="http://www.w3.org/2000/svg" xmlns:xlink="http://www.w3.org/1999/xlink"><style type="text/css">
	.st0{fill:#FFFFFF;}
	.st1{fill:#263238;}
	.st2{fill:#4CB6AC;}
	.st3{fill:#FFFFFF;stroke:#263238;stroke-width:4;stroke-miterlimit:10;}
</style><g><g id="XMLID_843_"><g id="XMLID_52_"><path class="st0" d="M93.1,353.5c37.9,38.9,90.8,63.2,149.4,63.2c115.2,0,208.5-93.4,208.5-208.5      c0-58.6-24.2-111.6-63.2-149.4" id="XMLID_511_"/><path class="st1" d="M242.5,426.9c-59.5,0-115.2-23.5-156.7-66.3l14.6-14.2c37.7,38.8,88.2,60.1,142.1,60.1      c109.4,0,198.3-89,198.3-198.3c0-54-21.3-104.5-60.1-142.2L395,51.5c42.7,41.6,66.3,97.2,66.3,156.7      C461.2,328.8,363.1,426.9,242.5,426.9z" id="XMLID_512_"/></g><g id="XMLID_28_"><circle class="st0" cx="241.5" cy="207.2" id="XMLID_256_" r="166.7"/><circle class="st2" cx="221.1" cy="197" id="XMLID_507_" r="166.7"/><path class="st1" d="M241.5,384C144,384,64.6,304.7,64.6,207.2c0-97.5,79.3-176.8,176.8-176.8      s176.8,79.3,176.8,176.8C418.3,304.7,339,384,241.5,384z M241.5,50.7C155.2,50.7,85,120.9,85,207.2      c0,86.3,70.2,156.5,156.5,156.5S398,293.4,398,207.2C398,120.9,327.8,50.7,241.5,50.7z" id="XMLID_508_"/></g><g id="XMLID_231_"><path class="st3" d="M408.1,207.2" id="XMLID_1421_"/></g><g id="XMLID_230_"><path class="st3" d="M182.9,51.1" id="XMLID_1419_"/></g><g id="XMLID_316_"><path class="st1" d="M369.6,220.1c-168.4,0-196.5-165.6-196.7-167.4l20.1-3.2c1.1,7.1,29.9,173.2,213.8,147.6      l2.8,20.2C395.4,219.2,382.1,220.1,369.6,220.1z" id="XMLID_506_"/></g><g id="XMLID_317_"><path class="st1" d="M309.7,321.5c-53.6,0-98.9-14-135.3-41.8c-76.1-58.3-84.5-155.3-84.8-159.4l20.3-1.6      l-10.1,0.8l10.1-0.8c0.1,0.9,8.2,92.3,77.1,145c46.2,35.3,109.4,45.8,187.7,31l3.8,20C354.2,319.2,331.3,321.5,309.7,321.5z" id="XMLID_504_"/></g><g id="XMLID_319_"><rect class="st1" height="332.8" id="XMLID_503_" transform="matrix(0.8113 0.5847 -0.5847 0.8113 171.1678 -105.3852)" width="20.4" x="238.7" y="46.1"/></g><g id="XMLID_349_"><path class="st1" d="M89.6,299.7c0-1.8-1-184.5,196.2-261.6l7.4,19c-183.7,71.9-183.4,235.4-183.3,242.3      L89.6,299.7z" id="XMLID_502_"/></g><g id="XMLID_350_"><path class="st1" d="M218.1,381.6l-5.6-19.6c1.3-0.4,130-39.8,171-225.5l19.9,4.4      C359.6,339,223.9,379.9,218.1,381.6z" id="XMLID_501_"/></g><g id="XMLID_318_"><line class="st0" id="XMLID_498_" x1="241" x2="241" y1="415" y2="476"/><rect class="st1" height="61" id="XMLID_499_" width="18" x="234" y="415"/></g><g id="XMLID_351_"><line class="st0" id="XMLID_496_" x1="197" x2="291" y1="476" y2="476"/><rect class="st1" height="19" id="XMLID_497_" width="94" x="197" y="468"/></g></g></g></svg>