<?xml version="1.0" ?><!DOCTYPE svg  PUBLIC '-//W3C//DTD SVG 1.1//EN'  'http://www.w3.org/Graphics/SVG/1.1/DTD/svg11.dtd'><svg height="100%" style="fill-rule:evenodd;clip-rule:evenodd;stroke-linejoin:round;stroke-miterlimit:1.41421;" version="1.1" viewBox="0 0 64 64" width="100%" xml:space="preserve" xmlns="http://www.w3.org/2000/svg" xmlns:serif="http://www.serif.com/" xmlns:xlink="http://www.w3.org/1999/xlink"><rect height="64" id="peaks--analytics--frequency" style="fill:none;" width="64" x="0" y="0"/><path d="M18,32c-4.103,0.018 -5.005,22.979 -8,23l16,0c-2.992,-0.02 -3.466,-23.02 -8,-23Z" style="fill:#6ae573;"/><path d="M44,29c-5.458,-0.063 -5.999,25.951 -10,26l20,0c-3.999,-0.009 -4.566,-25.938 -10,-26Z" style="fill:#ccff90;"/><path d="M32,18c-7.236,-0.148 -7.982,36.971 -13,37l26,0c-5.035,0.001 -5.333,-36.843 -13,-37Z" style="fill:#00c853;"/><path d="M56,56l0,-2l-46,0l0,-46l-2,0l0,48l48,0Z" style="fill:#00c853;"/></svg>