<?xml version="1.0" encoding="utf-8"?>
<!-- Generator: Adobe Illustrator 17.1.0, SVG Export Plug-In . SVG Version: 6.00 Build 0)  -->
<!DOCTYPE svg PUBLIC "-//W3C//DTD SVG 1.1//EN" "http://www.w3.org/Graphics/SVG/1.1/DTD/svg11.dtd">
<svg version="1.1" id="Layer_1" xmlns="http://www.w3.org/2000/svg" xmlns:xlink="http://www.w3.org/1999/xlink" x="0px" y="0px"
	 viewBox="0 0 612 792" enable-background="new 0 0 612 792" xml:space="preserve">
<path fill="#A3A3A3" d="M560.8,587.1l-102-102c-4.6-4.6-10.8-7.2-17.4-7.2h-16.7c28.2-36.1,45-81.6,45-131
	c0-117.6-95.3-212.9-212.9-212.9S44,229.3,44,346.9s95.3,212.9,212.9,212.9c49.4,0,94.9-16.8,131-45v16.7c0,6.5,2.6,12.8,7.2,17.4
	l102,102c9.6,9.6,25.2,9.6,34.7,0l29-29C570.3,612.3,570.3,596.7,560.8,587.1z M256.9,477.9c-72.4,0-131-58.5-131-131
	c0-72.4,58.5-131,131-131c72.4,0,131,58.5,131,131C387.9,419.2,329.3,477.9,256.9,477.9z"/>
</svg>
