<?xml version="1.0" encoding="utf-8"?>
<!-- Generator: Adobe Illustrator 14.0.0, SVG Export Plug-In . SVG Version: 6.00 Build 43363)  -->
<!DOCTYPE svg PUBLIC "-//W3C//DTD SVG 1.1//EN" "http://www.w3.org/Graphics/SVG/1.1/DTD/svg11.dtd">
<svg version="1.1" id="Camada_1" xmlns="http://www.w3.org/2000/svg" xmlns:xlink="http://www.w3.org/1999/xlink" x="0px" y="0px"
	 width="60px" height="60px" viewBox="0 0 60 60" enable-background="new 0 0 60 60" xml:space="preserve">
<g id="Layer_2">
	<g>
		<path d="M30.042,56.731c-1.31,0-2.375-1.065-2.375-2.375V13.234l-7.82,6.007c-0.411,0.414-1.005,0.658-1.636,0.658l0,0
			c-0.639,0-1.237-0.25-1.686-0.703c-0.458-0.461-0.702-1.059-0.7-1.693c0.002-0.635,0.252-1.23,0.703-1.676L28.47,3.922
			c0.458-0.441,0.986-0.654,1.544-0.654c0.591,0,1.143,0.235,1.552,0.662l11.917,11.917c0.918,0.924,0.918,2.426,0.001,3.35
			c-0.45,0.447-1.045,0.692-1.676,0.692c-0.632,0-1.227-0.245-1.675-0.69l-7.717-5.928v41.085
			C32.417,55.666,31.352,56.731,30.042,56.731L30.042,56.731z"/>
		<path fill="#DDDDDD" d="M30.014,3.768c0.434,0,0.867,0.17,1.191,0.508L43.13,16.201c0.727,0.731,0.727,1.912,0,2.644
			c-0.366,0.363-0.844,0.545-1.321,0.545c-0.479,0-0.957-0.182-1.322-0.545l-8.569-6.588v42.1c0,1.035-0.839,1.875-1.875,1.875
			c-1.035,0-1.875-0.84-1.875-1.875V12.22l-8.625,6.625c-0.004,0.004-0.007,0.008-0.01,0.011c-0.366,0.363-0.844,0.544-1.321,0.544
			c-0.482,0-0.965-0.185-1.331-0.555c-0.004-0.004-0.008-0.008-0.011-0.011c-0.729-0.735-0.725-1.923,0.011-2.651L28.823,4.276
			c0.016-0.017,0.032-0.033,0.049-0.049C29.192,3.921,29.603,3.768,30.014,3.768 M30.014,2.768c-0.687,0-1.338,0.262-1.834,0.738
			c-0.024,0.023-0.055,0.054-0.085,0.085L16.174,15.475c-0.543,0.538-0.846,1.259-0.849,2.027s0.293,1.492,0.834,2.037
			c0.554,0.559,1.279,0.861,2.052,0.861c0.748,0,1.454-0.284,1.993-0.802l6.963-5.349v40.107c0,1.585,1.29,2.875,2.875,2.875
			c1.585,0,2.875-1.29,2.875-2.875V14.287l6.915,5.316c0.536,0.508,1.235,0.787,1.977,0.787c0.764,0,1.483-0.297,2.026-0.835
			c1.114-1.122,1.114-2.94,0.005-4.058L31.912,3.569C31.43,3.066,30.732,2.768,30.014,2.768L30.014,2.768z"/>
	</g>
</g>
</svg>
