<?xml version="1.0" encoding="utf-8"?>
<!-- Generator: Adobe Illustrator 14.0.0, SVG Export Plug-In . SVG Version: 6.00 Build 43363)  -->
<!DOCTYPE svg PUBLIC "-//W3C//DTD SVG 1.1//EN" "http://www.w3.org/Graphics/SVG/1.1/DTD/svg11.dtd">
<svg version="1.1" id="Camada_1" xmlns="http://www.w3.org/2000/svg" xmlns:xlink="http://www.w3.org/1999/xlink" x="0px" y="0px"
	 width="60px" height="60px" viewBox="0 0 60 60" enable-background="new 0 0 60 60" xml:space="preserve">
<g id="Layer_2_1_">
	<g>
		<path d="M42.478,44.175c-0.632,0-1.227-0.245-1.675-0.69c-0.919-0.925-0.919-2.428-0.002-3.351l5.928-7.717H5.644
			c-1.31,0-2.375-1.065-2.375-2.375s1.065-2.375,2.375-2.375h41.122l-6.007-7.82c-0.416-0.414-0.661-1.011-0.658-1.646
			c0.003-0.635,0.252-1.23,0.703-1.676c0.458-0.455,1.052-0.7,1.683-0.7c0.639,0,1.237,0.25,1.687,0.703L56.078,28.47
			c0.453,0.47,0.665,1.014,0.653,1.589c-0.012,0.574-0.247,1.11-0.662,1.507L44.152,43.483
			C43.703,43.93,43.108,44.175,42.478,44.175L42.478,44.175z"/>
		<path fill="#DDDDDD" d="M42.486,16.325c0.482,0,0.965,0.185,1.331,0.555l11.906,11.943c0.017,0.016,0.033,0.032,0.049,0.049
			c0.631,0.657,0.609,1.702-0.049,2.333L43.799,43.13c-0.365,0.363-0.844,0.545-1.322,0.545c-0.478,0-0.955-0.182-1.321-0.545
			c-0.727-0.731-0.727-1.912,0-2.644l6.588-8.569h-42.1c-1.035,0-1.875-0.839-1.875-1.875c0-1.035,0.84-1.875,1.875-1.875H47.78
			l-6.625-8.625c-0.004-0.004-0.008-0.007-0.011-0.01c-0.729-0.736-0.725-1.924,0.011-2.652c0.004-0.004,0.008-0.008,0.011-0.011
			C41.532,16.506,42.009,16.325,42.486,16.325 M42.486,15.325c-0.764,0-1.482,0.296-2.024,0.834
			c-0.556,0.551-0.858,1.271-0.861,2.04c-0.003,0.752,0.281,1.463,0.802,2.004l5.349,6.963H5.644c-1.585,0-2.875,1.29-2.875,2.875
			c0,1.585,1.29,2.875,2.875,2.875h40.069l-5.315,6.915c-1.062,1.121-1.045,2.901,0.049,4.003c0.547,0.543,1.267,0.84,2.031,0.84
			c0.764,0,1.483-0.297,2.026-0.835l11.927-11.928c0.496-0.475,0.786-1.135,0.801-1.843s-0.247-1.379-0.737-1.89
			c-0.022-0.024-0.054-0.055-0.085-0.085L44.525,16.174C43.984,15.627,43.259,15.325,42.486,15.325L42.486,15.325z"/>
	</g>
</g>
</svg>
