<?xml version="1.0" encoding="utf-8"?>
<!-- Generator: Adobe Illustrator 14.0.0, SVG Export Plug-In . SVG Version: 6.00 Build 43363)  -->
<!DOCTYPE svg PUBLIC "-//W3C//DTD SVG 1.1//EN" "http://www.w3.org/Graphics/SVG/1.1/DTD/svg11.dtd">
<svg version="1.1" id="Camada_1" xmlns="http://www.w3.org/2000/svg" xmlns:xlink="http://www.w3.org/1999/xlink" x="0px" y="0px"
	 width="35px" height="160.5px" viewBox="0 0 35 160.5" enable-background="new 0 0 35 160.5" xml:space="preserve">
<rect x="0" fill="#007CA8" width="35" height="160.5"/>
<g>
	<path fill="#FFFFFF" d="M20.729,152.711h-7.415v-1.056l3.752-2.366c0.869-0.539,1.649-0.979,2.409-1.319l-0.012-0.033
		c-0.989,0.088-1.892,0.11-3.047,0.11h-3.103v-0.902h7.415v0.969l-3.763,2.354c-0.825,0.518-1.672,1.012-2.476,1.375l0.012,0.033
		c0.935-0.055,1.826-0.066,3.059-0.066h3.168V152.711z"/>
	<path fill="#FFFFFF" d="M16.945,139.137c2.541,0,3.905,1.551,3.905,3.443c0,1.969-1.529,3.334-3.773,3.334
		c-2.354,0-3.895-1.453-3.895-3.434C13.182,140.445,14.733,139.137,16.945,139.137z M17.054,144.901
		c1.596,0,3.015-0.858,3.015-2.376c0-1.519-1.397-2.377-3.08-2.377c-1.485,0-3.025,0.771-3.025,2.365
		C13.963,144.109,15.437,144.901,17.054,144.901z"/>
	<path fill="#FFFFFF" d="M13.314,136.938h4.4c1.65,0,2.354-0.737,2.354-1.728c0-1.089-0.726-1.804-2.354-1.804h-4.4v-0.969h4.335
		c2.277,0,3.201,1.199,3.201,2.806c0,1.519-0.858,2.662-3.169,2.662h-4.367V136.938z"/>
	<path fill="#FFFFFF" d="M19.563,130.898c0.274-0.429,0.484-1.045,0.484-1.705c0-0.979-0.518-1.551-1.266-1.551
		c-0.682,0-1.089,0.396-1.463,1.396c-0.44,1.211-1.078,1.959-2.112,1.959c-1.155,0-2.014-0.957-2.014-2.398
		c0-0.748,0.176-1.31,0.363-1.629l0.781,0.265c-0.144,0.231-0.353,0.726-0.353,1.397c0,1.012,0.605,1.396,1.111,1.396
		c0.693,0,1.034-0.451,1.431-1.475c0.483-1.254,1.089-1.881,2.178-1.881c1.145,0,2.146,0.836,2.146,2.586
		c0,0.715-0.22,1.496-0.484,1.893L19.563,130.898z"/>
	<path fill="#FFFFFF" d="M19.563,123.144c0.274-0.429,0.484-1.045,0.484-1.705c0-0.979-0.518-1.552-1.266-1.552
		c-0.682,0-1.089,0.396-1.463,1.398c-0.44,1.209-1.078,1.957-2.112,1.957c-1.155,0-2.014-0.957-2.014-2.398
		c0-0.748,0.176-1.309,0.363-1.627l0.781,0.264c-0.144,0.23-0.353,0.727-0.353,1.396c0,1.013,0.605,1.398,1.111,1.398
		c0.693,0,1.034-0.451,1.431-1.475c0.483-1.254,1.089-1.882,2.178-1.882c1.145,0,2.146,0.837,2.146,2.585
		c0,0.716-0.22,1.497-0.484,1.893L19.563,123.144z"/>
	<path fill="#FFFFFF" d="M16.945,111.264c2.541,0,3.905,1.551,3.905,3.443c0,1.969-1.529,3.333-3.773,3.333
		c-2.354,0-3.895-1.452-3.895-3.433C13.182,112.572,14.733,111.264,16.945,111.264z M17.054,117.027
		c1.596,0,3.015-0.857,3.015-2.376s-1.397-2.376-3.08-2.376c-1.485,0-3.025,0.77-3.025,2.365S15.437,117.027,17.054,117.027z"/>
	<path fill="#FFFFFF" d="M13.314,109.063h4.4c1.65,0,2.354-0.737,2.354-1.728c0-1.089-0.726-1.804-2.354-1.804h-4.4v-0.968h4.335
		c2.277,0,3.201,1.199,3.201,2.805c0,1.519-0.858,2.662-3.169,2.662h-4.367V109.063z"/>
	<path fill="#FFFFFF" d="M13.314,101.947h3.103V98.36h-3.103v-0.968h7.415v0.968h-3.477v3.587h3.477v0.968h-7.415V101.947z"/>
	<path fill="#FFFFFF" d="M18.397,94.533l2.332,0.77v0.99l-7.415-2.53v-1.145l7.415-2.53v1.023l-2.332,0.792V94.533z M17.649,92.09
		l-2.135,0.737c-0.484,0.165-0.924,0.275-1.354,0.386v0.021c0.43,0.109,0.892,0.221,1.343,0.374l2.146,0.726V92.09z"/>
	<path fill="#FFFFFF" d="M13.314,88.043h7.415v0.968h-7.415V88.043z"/>
	<path fill="#FFFFFF" d="M14.128,84.963v2.256h-0.814v-5.49h0.814v2.266h6.601v0.969H14.128z"/>
	<path fill="#FFFFFF" d="M16.945,74.864c2.541,0,3.905,1.551,3.905,3.443c0,1.969-1.529,3.333-3.773,3.333
		c-2.354,0-3.895-1.452-3.895-3.432C13.182,76.173,14.733,74.864,16.945,74.864z M17.054,80.629c1.596,0,3.015-0.858,3.015-2.376
		c0-1.518-1.397-2.376-3.08-2.376c-1.485,0-3.025,0.77-3.025,2.365S15.437,80.629,17.054,80.629z"/>
	<path fill="#FFFFFF" d="M20.729,73.622h-7.415v-1.056l3.752-2.366c0.869-0.539,1.649-0.979,2.409-1.32l-0.012-0.033
		c-0.989,0.088-1.892,0.11-3.047,0.11h-3.103v-0.902h7.415v0.968l-3.763,2.354c-0.825,0.517-1.672,1.012-2.476,1.375l0.012,0.033
		c0.935-0.055,1.826-0.066,3.059-0.066h3.168V73.622z"/>
	<path fill="#FFFFFF" d="M19.563,66.505c0.274-0.429,0.484-1.045,0.484-1.705c0-0.979-0.518-1.551-1.266-1.551
		c-0.682,0-1.089,0.396-1.463,1.397c-0.44,1.21-1.078,1.958-2.112,1.958c-1.155,0-2.014-0.957-2.014-2.398
		c0-0.748,0.176-1.309,0.363-1.628l0.781,0.264c-0.144,0.231-0.353,0.726-0.353,1.397c0,1.012,0.605,1.397,1.111,1.397
		c0.693,0,1.034-0.451,1.431-1.475c0.483-1.254,1.089-1.881,2.178-1.881c1.145,0,2.146,0.836,2.146,2.585
		c0,0.715-0.22,1.497-0.484,1.893L19.563,66.505z"/>
	<path fill="#FFFFFF" d="M20.729,57.397l-7.415,2.431v-1.045l3.652-1.155c1.001-0.308,1.903-0.583,2.772-0.792v-0.022
		c-0.858-0.209-1.793-0.506-2.762-0.847l-3.663-1.254v-1.023l7.415,2.651V57.397z"/>
	<path fill="#FFFFFF" d="M16.945,46.551c2.541,0,3.905,1.551,3.905,3.443c0,1.969-1.529,3.333-3.773,3.333
		c-2.354,0-3.895-1.452-3.895-3.433C13.182,47.86,14.733,46.551,16.945,46.551z M17.054,52.315c1.596,0,3.015-0.858,3.015-2.376
		c0-1.518-1.397-2.376-3.08-2.376c-1.485,0-3.025,0.77-3.025,2.365S15.437,52.315,17.054,52.315z"/>
	<path fill="#FFFFFF" d="M14.128,44.175v2.255h-0.814v-5.49h0.814v2.267h6.601v0.968H14.128z"/>
	<path fill="#FFFFFF" d="M13.412,40.117c-0.088-0.484-0.153-1.188-0.153-1.837c0-1.023,0.197-1.694,0.604-2.146
		c0.33-0.363,0.836-0.583,1.42-0.583c0.968,0,1.617,0.616,1.881,1.386h0.033c0.198-0.561,0.726-0.902,1.496-1.078
		c1.034-0.242,1.749-0.418,2.035-0.572v0.99c-0.22,0.121-0.847,0.286-1.771,0.484c-1.022,0.22-1.408,0.627-1.441,1.496v0.902h3.213
		v0.958H13.412z M16.79,39.159V38.18c0-1.023-0.562-1.672-1.408-1.672c-0.957,0-1.375,0.693-1.375,1.706
		c0,0.462,0.032,0.781,0.077,0.946H16.79z"/>
	<path fill="#FFFFFF" d="M17.252,30.37v2.871h2.674v-3.212h0.803v4.181h-7.415v-4.016h0.803v3.047h2.344V30.37H17.252z"/>
	<path fill="#FFFFFF" d="M18.397,25.255l2.332,0.77v0.99l-7.415-2.53v-1.145l7.415-2.53v1.023l-2.332,0.792V25.255z M17.649,22.813
		l-2.135,0.737c-0.484,0.165-0.924,0.275-1.354,0.385v0.022c0.43,0.11,0.892,0.22,1.343,0.374l2.146,0.726V22.813z"/>
	<path fill="#FFFFFF" d="M20.729,18.677l-7.415,2.431v-1.045l3.652-1.155c1.001-0.308,1.903-0.583,2.772-0.792v-0.022
		c-0.858-0.209-1.793-0.506-2.762-0.847l-3.663-1.254V14.97l7.415,2.651V18.677z"/>
	<path fill="#FFFFFF" d="M13.314,13.21h7.415v0.968h-7.415V13.21z"/>
	<path fill="#FFFFFF" d="M19.563,11.659c0.274-0.429,0.484-1.045,0.484-1.705c0-0.979-0.518-1.551-1.266-1.551
		c-0.682,0-1.089,0.396-1.463,1.397c-0.44,1.21-1.078,1.958-2.112,1.958c-1.155,0-2.014-0.957-2.014-2.398
		c0-0.748,0.176-1.309,0.363-1.628l0.781,0.264c-0.144,0.231-0.353,0.726-0.353,1.397c0,1.012,0.605,1.397,1.111,1.397
		c0.693,0,1.034-0.451,1.431-1.475c0.483-1.254,1.089-1.881,2.178-1.881c1.145,0,2.146,0.836,2.146,2.585
		c0,0.715-0.22,1.497-0.484,1.893L19.563,11.659z"/>
</g>
</svg>
